<svg width="390" height="390" viewBox="0 0 390 390" fill="none" xmlns="http://www.w3.org/2000/svg">
<g clip-path="url(#clip0_219_4805)">
<path d="M39 390H195C205.34 389.99 215.254 385.877 222.566 378.566C229.877 371.254 233.99 361.34 234 351C234 349.276 233.315 347.623 232.096 346.404C230.877 345.185 229.224 344.5 227.5 344.5C225.776 344.5 224.123 345.185 222.904 346.404C221.685 347.623 221 349.276 221 351C221 357.896 218.261 364.509 213.385 369.385C208.509 374.261 201.896 377 195 377H39C32.1044 377 25.4912 374.261 20.6152 369.385C15.7393 364.509 13 357.896 13 351V39C13 32.1044 15.7393 25.4912 20.6152 20.6152C25.4912 15.7393 32.1044 13 39 13H41.483L55.5945 41.223C57.204 44.4695 59.691 47.2 62.7735 49.1048C65.8559 51.0097 69.4105 52.0127 73.034 52H160.966C164.59 52.0127 168.144 51.0097 171.227 49.1048C174.309 47.2 176.796 44.4695 178.406 41.223L192.517 13H195C201.896 13 208.509 15.7393 213.385 20.6152C218.261 25.4912 221 32.1044 221 39V52C221 53.7239 221.685 55.3772 222.904 56.5962C224.123 57.8152 225.776 58.5 227.5 58.5C229.224 58.5 230.877 57.8152 232.096 56.5962C233.315 55.3772 234 53.7239 234 52V39C233.99 28.6597 229.877 18.7459 222.566 11.4342C215.254 4.12256 205.34 0.0103248 195 0L39 0C28.6597 0.0103248 18.7459 4.12256 11.4342 11.4342C4.12256 18.7459 0.0103248 28.6597 0 39L0 351C0.0103248 361.34 4.12256 371.254 11.4342 378.566C18.7459 385.877 28.6597 389.99 39 390ZM166.777 35.4055C166.241 36.4879 165.413 37.3984 164.386 38.0338C163.358 38.6691 162.174 39.0039 160.966 39H73.034C71.8263 39.0039 70.6416 38.6691 69.6145 38.0338C68.5873 37.3984 67.7588 36.4879 67.223 35.4055L56.017 13H177.983L166.777 35.4055Z" fill="black"/>
<path d="M169 364C170.724 364 172.377 363.315 173.596 362.096C174.815 360.877 175.5 359.224 175.5 357.5C175.5 355.776 174.815 354.123 173.596 352.904C172.377 351.685 170.724 351 169 351H65C63.2761 351 61.6228 351.685 60.4038 352.904C59.1848 354.123 58.5 355.776 58.5 357.5C58.5 359.224 59.1848 360.877 60.4038 362.096C61.6228 363.315 63.2761 364 65 364H169ZM351 71.5H169C158.66 71.5103 148.746 75.6225 141.434 82.9342C134.123 90.2459 130.01 100.16 130 110.5V152.1L58.838 190.054C56.7678 191.165 55.0376 192.817 53.8315 194.834C52.6254 196.851 51.9885 199.157 51.9885 201.506C51.9885 203.856 52.6254 206.162 53.8315 208.179C55.0376 210.196 56.7678 211.848 58.838 212.96L130 250.9V292.5C130.01 302.84 134.123 312.754 141.434 320.066C148.746 327.377 158.66 331.49 169 331.5H351C361.34 331.49 371.254 327.377 378.566 320.066C385.877 312.754 389.99 302.84 390 292.5V110.5C389.99 100.16 385.877 90.2459 378.566 82.9342C371.254 75.6225 361.34 71.5103 351 71.5ZM377 292.5C377 299.396 374.261 306.009 369.385 310.885C364.509 315.761 357.896 318.5 351 318.5H169C162.104 318.5 155.491 315.761 150.615 310.885C145.739 306.009 143 299.396 143 292.5V247C143 245.823 142.68 244.667 142.074 243.658C141.469 242.648 140.6 241.822 139.562 241.267L65 201.5L139.581 161.72C140.614 161.164 141.477 160.339 142.079 159.331C142.681 158.324 142.999 157.173 143 156V110.5C143 103.604 145.739 96.9912 150.615 92.1152C155.491 87.2393 162.104 84.5 169 84.5H351C357.896 84.5 364.509 87.2393 369.385 92.1152C374.261 96.9912 377 103.604 377 110.5V292.5Z" fill="black"/>
<path d="M227.825 175.5H221.325V169C221.325 167.276 220.64 165.623 219.421 164.404C218.202 163.185 216.549 162.5 214.825 162.5C213.101 162.5 211.448 163.185 210.229 164.404C209.01 165.623 208.325 167.276 208.325 169V175.5H201.825C200.101 175.5 198.448 176.185 197.229 177.404C196.01 178.623 195.325 180.276 195.325 182C195.325 183.724 196.01 185.377 197.229 186.596C198.448 187.815 200.101 188.5 201.825 188.5H208.325V195C208.325 196.724 209.01 198.377 210.229 199.596C211.448 200.815 213.101 201.5 214.825 201.5C216.549 201.5 218.202 200.815 219.421 199.596C220.64 198.377 221.325 196.724 221.325 195V188.5H227.825C229.549 188.5 231.202 187.815 232.421 186.596C233.64 185.377 234.325 183.724 234.325 182C234.325 180.276 233.64 178.623 232.421 177.404C231.202 176.185 229.549 175.5 227.825 175.5Z" fill="black"/>
<path d="M305.825 175.487C309.415 175.487 312.325 172.577 312.325 168.987C312.325 165.397 309.415 162.487 305.825 162.487C302.235 162.487 299.325 165.397 299.325 168.987C299.325 172.577 302.235 175.487 305.825 175.487Z" fill="black"/>
<path d="M305.825 201.487C309.415 201.487 312.325 198.577 312.325 194.987C312.325 191.397 309.415 188.487 305.825 188.487C302.235 188.487 299.325 191.397 299.325 194.987C299.325 198.577 302.235 201.487 305.825 201.487Z" fill="black"/>
<path d="M292.825 188.487C296.415 188.487 299.325 185.577 299.325 181.987C299.325 178.397 296.415 175.487 292.825 175.487C289.235 175.487 286.325 178.397 286.325 181.987C286.325 185.577 289.235 188.487 292.825 188.487Z" fill="black"/>
<path d="M318.825 188.487C322.415 188.487 325.325 185.577 325.325 181.987C325.325 178.397 322.415 175.487 318.825 175.487C315.235 175.487 312.325 178.397 312.325 181.987C312.325 185.577 315.235 188.487 318.825 188.487Z" fill="black"/>
<path d="M319.15 143H266.825V117C266.825 115.276 266.14 113.623 264.921 112.404C263.702 111.185 262.049 110.5 260.325 110.5C258.601 110.5 256.948 111.185 255.729 112.404C254.51 113.623 253.825 115.276 253.825 117V143H201.5C194.933 143.021 188.615 145.518 183.809 149.994C179.002 154.469 176.061 160.592 175.571 167.141L169.721 248.983C168.913 255.208 170.294 261.521 173.628 266.839C176.963 272.158 182.044 276.151 187.999 278.135C193.597 280.035 199.669 280.013 205.252 278.071C210.836 276.13 215.612 272.38 218.822 267.417L230.646 246.948C230.789 246.948 230.925 246.987 231.068 246.987C235.36 246.974 239.56 245.748 243.184 243.45C246.808 241.152 249.708 237.876 251.55 234H269.1C270.939 237.876 273.836 241.154 277.458 243.454C281.08 245.755 285.278 246.984 289.568 247C289.711 247 289.841 246.961 289.984 246.961L301.97 267.677C304.355 271.343 307.627 274.349 311.482 276.416C315.337 278.483 319.651 279.544 324.025 279.5C327.878 279.508 331.688 278.693 335.201 277.11C338.714 275.527 341.848 273.212 344.394 270.319C346.94 267.427 348.838 264.024 349.963 260.339C351.088 256.654 351.412 252.771 350.915 248.95L345.065 167.148C344.575 160.601 341.635 154.479 336.832 150.004C332.029 145.528 325.715 143.027 319.15 143ZM231.075 234C228.489 234 226.009 232.973 224.181 231.144C222.352 229.316 221.325 226.836 221.325 224.25C221.325 221.664 222.352 219.184 224.181 217.356C226.009 215.527 228.489 214.5 231.075 214.5C233.661 214.5 236.141 215.527 237.969 217.356C239.798 219.184 240.825 221.664 240.825 224.25C240.825 226.836 239.798 229.316 237.969 231.144C236.141 232.973 233.661 234 231.075 234ZM279.825 224.25C279.825 221.664 280.852 219.184 282.681 217.356C284.509 215.527 286.989 214.5 289.575 214.5C292.161 214.5 294.641 215.527 296.469 217.356C298.298 219.184 299.325 221.664 299.325 224.25C299.325 226.836 298.298 229.316 296.469 231.144C294.641 232.973 292.161 234 289.575 234C286.989 234 284.509 232.973 282.681 231.144C280.852 229.316 279.825 226.836 279.825 224.25ZM328.575 265.798C325.813 266.787 322.803 266.845 320.005 265.965C317.206 265.085 314.772 263.315 313.072 260.923L302.614 242.834C305.707 240.679 308.215 237.789 309.913 234.424C311.61 231.058 312.443 227.323 312.337 223.555C312.23 219.788 311.188 216.106 309.303 212.841C307.419 209.577 304.751 206.833 301.541 204.857C298.332 202.881 294.68 201.735 290.917 201.522C287.154 201.309 283.397 202.036 279.985 203.638C276.573 205.239 273.613 207.665 271.372 210.696C269.131 213.727 267.68 217.268 267.15 221H253.5C252.965 217.274 251.512 213.739 249.271 210.714C247.03 207.689 244.072 205.268 240.663 203.671C237.254 202.074 233.502 201.349 229.743 201.563C225.985 201.777 222.338 202.922 219.132 204.896C215.927 206.869 213.262 209.609 211.379 212.869C209.495 216.129 208.452 219.806 208.344 223.569C208.235 227.332 209.064 231.063 210.756 234.426C212.448 237.789 214.949 240.678 218.036 242.834L207.727 260.65C206.045 263.11 203.597 264.946 200.765 265.872C197.932 266.799 194.873 266.763 192.062 265.772C188.849 264.686 186.134 262.48 184.414 259.557C182.695 256.634 182.084 253.189 182.695 249.854L188.545 168.058C188.792 164.787 190.263 161.729 192.664 159.494C195.065 157.26 198.22 156.012 201.5 156H319.15C322.433 156.012 325.592 157.261 327.995 159.498C330.399 161.735 331.871 164.796 332.117 168.071L337.967 249.834C338.582 253.177 337.971 256.629 336.247 259.559C334.524 262.488 331.802 264.699 328.581 265.785L328.575 265.798Z" fill="black"/>
<path d="M266.825 175.5H253.825C252.101 175.5 250.448 176.185 249.229 177.404C248.01 178.623 247.325 180.276 247.325 182C247.325 183.724 248.01 185.377 249.229 186.596C250.448 187.815 252.101 188.5 253.825 188.5H266.825C268.549 188.5 270.202 187.815 271.421 186.596C272.64 185.377 273.325 183.724 273.325 182C273.325 180.276 272.64 178.623 271.421 177.404C270.202 176.185 268.549 175.5 266.825 175.5Z" fill="black"/>
</g>
<defs>
<clipPath id="clip0_219_4805">
<rect width="390" height="390" fill="white"/>
</clipPath>
</defs>
</svg>
