<svg width="390" height="390" viewBox="0 0 390 390" fill="none" xmlns="http://www.w3.org/2000/svg">
<path d="M375.812 249.272V251.272H377.812H378.574C383.78 251.272 388 255.493 388 260.698V294.975C388 297.475 387.007 299.873 385.239 301.64L386.653 303.054L385.239 301.64L362.387 324.492L362.387 324.492C360.62 326.259 358.223 327.253 355.723 327.253H303.611H301.665L301.612 329.198C301.604 329.495 301.66 329.823 301.686 329.97L301.689 329.989C301.718 330.158 301.758 330.367 301.8 330.59L301.831 330.757C301.942 331.347 302.083 332.123 302.216 333.066C302.481 334.951 302.709 337.502 302.558 340.461C302.256 346.365 300.451 353.892 294.395 361.036L294.394 361.037C291.13 364.895 287.064 367.994 282.478 370.118C277.893 372.243 272.9 373.341 267.846 373.337H267.845C254.571 373.337 242.65 365.969 236.714 354.098L224.036 328.739L223.483 327.634H222.247H167.806H166.571L166.018 328.737L152.999 354.703C147.234 366.201 135.675 373.337 122.815 373.337H122.241C100.661 373.337 84.2899 354.016 87.8261 332.806L88.3638 329.582L88.7523 327.253H86.3911H34.2775C31.7777 327.253 29.3804 326.26 27.6129 324.492L26.1986 325.906L27.6128 324.492L4.76121 301.64L4.76095 301.64C2.99281 299.872 2 297.475 2 294.976V260.698C2 255.493 6.22027 251.272 11.4258 251.272H12.1875H14.1875V249.272V48.9404C14.1875 31.1445 28.6689 16.6631 46.4648 16.6631H343.535C361.331 16.6631 375.812 31.1445 375.812 48.9404V249.272ZM354.961 251.272H356.961V249.272V48.9404C356.961 41.5357 350.94 35.5146 343.535 35.5146H46.4648C39.0601 35.5146 33.0391 41.5357 33.0391 48.9404V249.272V251.272H35.0391H100.329H101.775L102.228 249.899C108.568 230.683 126.492 217.376 147.313 217.376H242.729C263.555 217.376 281.476 230.681 287.813 249.899L288.266 251.272H289.713H354.961ZM37.5957 307.816L38.1815 308.401H39.0099H90.1989H91.8932L92.1717 306.73L97.8846 272.453L98.2727 270.124H95.9118H22.8516H20.8516V272.124V290.243V291.071L21.4373 291.657L37.5957 307.816ZM122.241 354.485H122.294L122.305 354.486C122.376 354.487 122.486 354.49 122.626 354.49C122.906 354.491 123.299 354.484 123.777 354.448C124.73 354.378 126.036 354.195 127.483 353.734C130.408 352.802 133.905 350.726 136.147 346.254L152.326 313.983C153.11 312.42 154.313 311.106 155.801 310.187C157.289 309.269 159.004 308.782 160.752 308.782H229.307C231.058 308.782 232.773 309.27 234.262 310.19C235.751 311.11 236.955 312.427 237.737 313.993L239.526 313.098L237.737 313.993L253.574 345.667L255.363 344.773L253.574 345.667C256.292 351.102 261.767 354.485 267.843 354.485C277.724 354.485 285.196 345.649 283.58 335.919L271.002 260.197C271.002 260.196 271.002 260.195 271.002 260.193C269.906 253.49 266.459 247.396 261.277 243.004C256.095 238.612 249.517 236.209 242.723 236.228H147.318C140.527 236.209 133.952 238.61 128.77 243C123.589 247.389 120.141 253.479 119.042 260.179C119.042 260.18 119.042 260.181 119.041 260.182L106.421 335.906C104.792 345.686 112.325 354.485 122.241 354.485ZM368.563 291.657L369.148 291.071V290.243V272.124V270.124H367.148H294.12H291.761L292.147 272.452L297.841 306.729L298.119 308.401H299.814H350.99H351.819L352.404 307.816L368.563 291.657Z" fill="#FF9700" stroke="white" stroke-width="4"/>
<path d="M142.612 173.128L142.613 173.128C146.293 176.808 152.26 176.809 155.942 173.128C155.942 173.128 155.942 173.127 155.942 173.127M142.612 173.128L157.357 158.383C161.819 162.846 161.819 170.08 157.357 174.542L155.942 173.127M142.612 173.128L119.742 150.256L119.742 150.256C116.057 146.572 116.064 140.591 119.753 136.916L119.753 136.916L142.681 114.064L142.681 114.064C146.367 110.389 152.335 110.398 156.011 114.086L156.011 114.086C159.686 117.773 159.676 123.741 155.989 127.416L155.989 127.416L141.167 142.189L139.748 143.603L141.165 145.019L155.942 159.798L155.942 159.798C159.623 163.479 159.623 169.446 155.942 173.127M142.612 173.128L155.942 173.127M210.643 104.002L209.904 105.861C205.066 103.939 199.587 106.304 197.665 111.143L174.813 168.686C174.813 168.686 174.813 168.686 174.813 168.686C172.349 174.895 176.96 181.594 183.57 181.594C187.324 181.594 190.867 179.338 192.334 175.644L210.643 104.002ZM210.643 104.002L209.904 105.861C214.742 107.782 217.107 113.262 215.186 118.1C215.186 118.1 215.186 118.1 215.186 118.1L192.335 175.644L210.643 104.002ZM247.319 173.138L247.319 173.138C243.64 176.806 237.672 176.811 233.989 173.116C230.314 169.429 230.324 163.461 234.011 159.787L234.012 159.787L248.833 145.014L250.252 143.6L248.836 142.184L234.058 127.405L232.695 128.768L234.058 127.405C230.377 123.724 230.377 117.757 234.058 114.075C237.741 110.395 243.709 110.395 247.388 114.075L247.388 114.075L270.258 136.946L270.258 136.946C273.943 140.63 273.936 146.611 270.247 150.286L270.247 150.287L247.319 173.138Z" fill="#FF9700" stroke="white" stroke-width="4"/>
<path d="M170.102 272.505C170.102 277.711 165.882 281.931 160.676 281.931C155.471 281.931 151.25 277.711 151.25 272.505C151.25 267.299 155.471 263.079 160.676 263.079C165.882 263.079 170.102 267.299 170.102 272.505Z" fill="#FF9700" stroke="white" stroke-width="4"/>
<path d="M238.657 272.505C238.657 277.711 234.437 281.931 229.231 281.931C224.025 281.931 219.805 277.711 219.805 272.505C219.805 267.299 224.025 263.079 229.231 263.079C234.437 263.079 238.657 267.299 238.657 272.505Z" fill="#FF9700" stroke="white" stroke-width="4"/>
</svg>
