<svg width="381" height="381" viewBox="0 0 381 381" fill="none" xmlns="http://www.w3.org/2000/svg">
<path d="M208.985 257.877C209.637 258.561 210.269 259.263 210.878 259.985L229.202 281.555C232.356 285.268 235.774 288.247 239.326 290.544M283.703 223.238L269.467 141.744C266.497 124.736 262.359 118.225 245.968 111.863L224.88 103.679C213.489 99.2585 206.967 100.828 200.213 107.842C191.525 116.866 186.658 117.646 177.097 117.646H120.559C110.997 117.646 106.13 116.866 97.4422 107.843C90.6884 100.829 84.1667 99.2585 72.7754 103.68L51.6872 111.864C35.2961 118.226 31.1594 124.739 28.1888 141.745L8.13494 256.544C1.55301 294.223 43.3573 311.099 68.4535 281.555L86.7772 259.984C87.3555 259.301 87.9528 258.634 88.5683 257.984M128.061 251.24H169.73" stroke="#FF9700" stroke-width="13" stroke-miterlimit="22.9256" stroke-linecap="round" stroke-linejoin="round"/>
<path d="M122.425 258.874C131.403 249.896 131.402 235.34 122.424 226.362C113.446 217.384 98.89 217.384 89.9122 226.362C80.9344 235.341 80.9347 249.897 89.9128 258.874C98.8909 267.852 113.447 267.852 122.425 258.874Z"  stroke="#FF9700" stroke-width="13" stroke-miterlimit="22.9256" stroke-linecap="round" stroke-linejoin="round"/>
<path d="M191.485 265.609C204.182 265.609 214.474 255.316 214.474 242.619C214.474 229.922 204.182 219.63 191.485 219.63C178.788 219.63 168.495 229.922 168.495 242.619C168.495 255.316 178.788 265.609 191.485 265.609Z" stroke="#FF9700" stroke-width="13" stroke-miterlimit="22.9256" stroke-linecap="round" stroke-linejoin="round"/>
<path d="M83.5908 230.507C68.3017 224.502 58.2468 209.75 58.2468 193.323C58.2468 171.259 76.1322 153.374 98.196 153.374C120.26 153.374 138.145 171.259 138.145 193.323C138.145 199.165 136.864 204.935 134.392 210.228C131.92 215.521 128.318 220.207 123.838 223.956M228.22 160.23H228.227M230.655 199.764H230.662M194.175 181.513H194.182" stroke="#FF9700" stroke-width="13" stroke-miterlimit="22.9256" stroke-linecap="round" stroke-linejoin="round"/>
<path d="M306.586 354.211C343.574 354.211 373.559 324.227 373.559 287.239C373.559 250.251 343.574 220.266 306.586 220.266C269.598 220.266 239.614 250.251 239.614 287.239C239.614 324.227 269.598 354.211 306.586 354.211Z"  stroke="#FF9700" stroke-width="13" stroke-miterlimit="22.9256" stroke-linecap="round" stroke-linejoin="round"/>
<path d="M106.73 44.2257C112.258 38.6978 118.821 34.3127 126.044 31.321C133.266 28.3293 141.007 26.7895 148.825 26.7895C156.643 26.7895 164.384 28.3293 171.606 31.321C178.829 34.3127 185.392 38.6978 190.92 44.2257M127.778 65.273C133.36 59.6915 140.931 56.556 148.825 56.556C156.719 56.556 164.29 59.6915 169.872 65.273M148.828 86.321H148.822M284.262 287.239L306.587 250.032L328.911 287.239L306.587 324.446L284.262 287.239Z" fill="#FF9700" stroke-width="13" stroke-miterlimit="22.9256" stroke-linecap="round" stroke-linejoin="round"/>
</svg>
