<svg width="390" height="390" viewBox="0 0 390 390" fill="none" xmlns="http://www.w3.org/2000/svg">
<path d="M170.625 188.906H219.375V201.094H170.625V188.906Z" fill="black"/>
<path d="M188.906 170.625H201.094V219.375H188.906V170.625ZM347.344 188.906H359.531V201.094H347.344V188.906ZM298.594 188.906H310.781V201.094H298.594V188.906ZM322.969 164.531H335.156V176.719H322.969V164.531ZM322.969 213.281H335.156V225.469H322.969V213.281ZM56.1798 95.2148L28.7579 60.9375L56.1798 26.6602L65.6952 34.2773L44.3671 60.9375L65.6952 87.5977L56.1798 95.2148ZM151.008 95.2148L141.492 87.5977L162.827 60.9375L141.492 34.2773L151.008 26.6602L178.423 60.9375L151.008 95.2148ZM77.6717 81.2929L120.339 32.5543L129.51 40.579L86.842 89.3207L77.6717 81.2929ZM48.75 255.938H24.375V231.562H36.5625V243.75H48.75V255.938Z" fill="black"/>
<path d="M371.719 0H18.2812C8.18543 0 0 8.18543 0 18.2812V262.031C0 272.127 8.18543 280.312 18.2812 280.312H146.25V310.781C146.25 320.877 138.065 329.062 127.969 329.062H97.5V365.625H292.5V329.062H262.031C251.935 329.062 243.75 320.877 243.75 310.781V280.312H371.719C381.815 280.312 390 272.127 390 262.031V18.2812C390 8.18543 381.815 0 371.719 0ZM280.312 341.25V353.438H109.688V341.25H280.312ZM195 317.131C205.096 317.131 213.281 308.946 213.281 298.85V280.312H231.562V310.781C231.586 317.396 233.782 323.819 237.814 329.062H152.186C156.218 323.819 158.414 317.396 158.438 310.781V280.312H176.719V298.85C176.719 308.946 184.904 317.131 195 317.131ZM188.906 298.85V280.312H201.094V298.85C201.094 300.466 200.452 302.016 199.309 303.159C198.166 304.301 196.616 304.943 195 304.943C193.384 304.943 191.834 304.301 190.691 303.159C189.548 302.016 188.906 300.466 188.906 298.85ZM377.812 262.031C377.812 263.647 377.17 265.197 376.028 266.34C374.885 267.483 373.335 268.125 371.719 268.125H18.2812C16.6651 268.125 15.1151 267.483 13.9723 266.34C12.8295 265.197 12.1875 263.647 12.1875 262.031V207.188H135.283C140.329 231.994 160.193 251.091 185.181 255.152C210.166 259.217 235.058 247.398 247.704 225.469H276.346C281.374 234.209 288.497 241.56 297.073 246.861C305.65 252.162 315.411 255.246 325.476 255.835C335.542 256.424 345.596 254.499 354.732 250.235C363.868 245.97 371.8 239.499 377.812 231.405V262.031ZM329.062 243.75C319.984 243.772 311.083 241.244 303.371 236.454C295.659 231.665 289.447 224.806 285.442 216.659L283.755 213.281H240.307L238.621 216.659C227.932 238.207 203.126 248.742 180.2 241.468C157.271 234.19 143.078 211.282 146.773 187.511C150.466 163.743 170.946 146.223 195 146.25H329.062C355.988 146.25 377.812 168.075 377.812 195C377.812 221.925 355.988 243.75 329.062 243.75ZM377.812 158.595C372.159 150.991 364.808 144.813 356.344 140.553C347.88 136.294 338.538 134.071 329.062 134.062H195C161.359 134.098 134.098 161.359 134.062 195H12.1875V18.2812C12.1875 16.6651 12.8295 15.1151 13.9723 13.9723C15.1151 12.8295 16.6651 12.1875 18.2812 12.1875H371.719C373.335 12.1875 374.885 12.8295 376.028 13.9723C377.17 15.1151 377.812 16.6651 377.812 18.2812V158.595Z" fill="black"/>
<path d="M249.844 188.906H274.219V201.094H249.844V188.906ZM182.812 36.5625H231.562V48.75H182.812V36.5625ZM255.938 36.5625H353.438V48.75H255.938V36.5625ZM268.125 60.9375H353.438V73.125H268.125V60.9375ZM195 60.9375H243.75V73.125H195V60.9375ZM182.812 85.3125H304.688V97.5H182.812V85.3125ZM329.062 85.3125H353.438V97.5H329.062V85.3125ZM36.5625 109.688H97.5V121.875H36.5625V109.688ZM121.875 109.688H237.656V121.875H121.875V109.688ZM255.938 109.688H353.438V121.875H255.938V109.688ZM36.5625 134.062H134.062V146.25H36.5625V134.062ZM36.5625 158.438H85.3125V170.625H36.5625V158.438ZM97.5 158.438H121.875V170.625H97.5V158.438Z" fill="black"/>
</svg>
