<svg width="368" height="368" viewBox="0 0 368 368" fill="none" xmlns="http://www.w3.org/2000/svg">
<path fill-rule="evenodd" clip-rule="evenodd" d="M5.05096 146.873C5.05099 145.86 5.31773 144.864 5.82438 143.987C6.33102 143.109 7.05972 142.381 7.93724 141.874L129.358 71.773C130.235 71.2663 131.231 70.9996 132.244 70.9996C133.257 70.9996 134.253 71.2663 135.13 71.773L200.394 109.452C200.331 108.156 200.301 106.858 200.302 105.56C200.302 69.1255 229.838 39.5889 266.273 39.5889C302.707 39.5889 332.244 69.1255 332.244 105.56C332.244 120.255 328.503 128.725 323.792 137.058C317.67 147.89 309.634 158.446 307.986 186.593L307.984 186.62L307.975 196.04C307.975 202.564 303.916 208.173 298.211 210.477V215.609C298.211 222.23 294.013 227.912 288.164 230.149V235.177C288.164 243.713 281.163 250.734 272.627 250.734H259.918C259.757 250.734 259.597 250.732 259.437 250.727V287.075C259.437 288.089 259.17 289.084 258.664 289.962C258.157 290.839 257.428 291.568 256.551 292.074L135.13 362.176C134.253 362.682 133.257 362.949 132.244 362.949C131.231 362.949 130.235 362.682 129.358 362.176L7.93724 292.074C7.05972 291.568 6.33102 290.839 5.82438 289.962C5.31773 289.084 5.05099 288.089 5.05096 287.075V146.873ZM53.9293 128.651L22.3686 146.873L132.244 210.308L163.804 192.087L53.9293 128.651ZM89.1382 108.325L65.4744 121.986L175.349 185.421L199.014 171.76L89.1382 108.325ZM202.934 124.25L132.244 83.4371L100.683 101.659L210.559 165.095L219.911 159.695C216.668 149.779 212.376 143.467 208.753 137.058C206.486 133.046 204.443 129.003 202.934 124.25ZM296.433 192.028H236.096V196.04C236.096 198.249 237.899 200.052 240.107 200.052H292.439C294.635 200.052 296.43 198.245 296.43 196.037L296.433 192.028ZM224.551 186.426C224.211 180.728 223.608 175.752 222.813 171.351L216.331 175.093V226.978C216.331 227.991 216.065 228.987 215.558 229.864C215.051 230.742 214.323 231.47 213.445 231.977L178.235 252.304C177.358 252.81 176.362 253.077 175.349 253.076C174.336 253.076 173.341 252.809 172.464 252.302C171.586 251.796 170.858 251.067 170.351 250.19C169.844 249.313 169.577 248.318 169.577 247.305V202.085L138.017 220.307V347.178L247.892 283.742V245.016C245.686 242.327 244.361 238.893 244.361 235.177V230.146C238.511 227.907 234.334 222.227 234.334 215.609V210.483C228.612 208.181 224.551 202.567 224.551 196.04V186.426ZM286.666 211.597H245.88V215.609C245.88 217.817 247.683 219.62 249.891 219.62H282.654C284.854 219.62 286.666 217.817 286.666 215.609V211.597ZM276.619 231.165H255.906V235.177C255.906 236.408 256.485 237.511 257.369 238.25C258.082 238.854 258.985 239.186 259.918 239.189H272.627C274.825 239.189 276.619 237.374 276.619 235.177V231.165ZM16.5961 156.871V283.742L126.471 347.178V220.307L16.5961 156.871ZM204.786 181.758L181.122 195.42V237.307L204.786 223.645V181.758ZM282.435 180.483H296.866C298.911 158.127 304.853 146.706 310.435 137.075C315.664 128.052 320.699 120.889 320.699 105.56C320.699 75.5013 296.332 51.1339 266.273 51.1339C236.214 51.1339 211.847 75.5013 211.847 105.56C211.847 120.889 216.882 128.052 222.111 137.075C227.693 146.706 233.635 158.127 235.68 180.483H250.111V125.757H241.883C231.022 125.757 222.13 116.864 222.13 106.004C222.13 95.1179 231.025 86.231 241.883 86.231C252.766 86.231 261.656 95.1201 261.656 106.004V114.212H270.89V106.004C270.89 95.1201 279.78 86.231 290.663 86.231C301.52 86.231 310.416 95.1179 310.416 106.004C310.416 116.864 301.523 125.757 290.663 125.757H282.435V180.483ZM261.656 180.483H270.89V125.757H261.656V180.483ZM250.111 114.212V106.004C250.111 101.475 246.411 97.7762 241.883 97.7762C237.368 97.7762 233.675 101.477 233.675 106.004C233.675 110.517 237.37 114.212 241.883 114.212H250.111ZM282.435 114.212H290.663C295.176 114.212 298.871 110.517 298.871 106.004C298.871 101.477 295.178 97.7762 290.663 97.7762C286.134 97.7762 282.435 101.475 282.435 106.004V114.212ZM272.045 25.0059C272.045 28.1917 269.459 30.7785 266.273 30.7785C263.087 30.7785 260.5 28.1917 260.5 25.0059V10.8235C260.5 7.63779 263.087 5.05096 266.273 5.05096C269.459 5.05096 272.045 7.63779 272.045 10.8235V25.0059ZM225.863 34.2882C227.454 37.0482 226.504 40.581 223.744 42.1721C220.984 43.7631 217.451 42.8135 215.86 40.0528L208.779 27.7674C208.015 26.4409 207.809 24.8653 208.207 23.3869C208.604 21.9086 209.572 20.6485 210.898 19.8835C212.225 19.1198 213.8 18.9139 215.278 19.3112C216.757 19.7084 218.017 20.6763 218.782 22.0021L225.863 34.2882ZM190.524 65.4196C193.282 67.0135 194.227 70.5478 192.633 73.3056C191.866 74.6306 190.605 75.597 189.126 75.9925C187.647 76.388 186.072 76.1802 184.746 75.4147L172.461 68.3138C171.136 67.5471 170.169 66.2858 169.774 64.8069C169.378 63.3281 169.586 61.7527 170.352 60.427C171.118 59.1022 172.379 58.136 173.858 57.7405C175.337 57.345 176.912 57.5527 178.238 58.3179L190.524 65.4196ZM316.662 40.0593C315.068 42.8179 311.534 43.7624 308.776 42.1685C307.451 41.4018 306.484 40.1405 306.089 38.6616C305.693 37.1828 305.901 35.6074 306.667 34.2817L313.768 21.9963C314.534 20.6711 315.796 19.7046 317.274 19.3091C318.753 18.9136 320.329 19.1215 321.654 19.8871C322.979 20.6538 323.945 21.915 324.341 23.3938C324.736 24.8725 324.528 26.4477 323.763 27.7732L316.662 40.0593ZM347.803 75.4133C346.478 76.1796 344.903 76.3884 343.424 75.9939C341.945 75.5994 340.683 74.6337 339.915 73.3092C339.149 71.9842 338.94 70.4091 339.334 68.9301C339.729 67.4511 340.694 66.1892 342.019 65.4217L354.284 58.3201C355.609 57.5537 357.185 57.3448 358.664 57.7392C360.143 58.1336 361.404 59.0991 362.172 60.4234C362.938 61.7485 363.148 63.3238 362.753 64.8029C362.359 66.2821 361.393 67.5441 360.069 68.3116L347.803 75.4133Z" fill="black"/>
</svg>
