<svg width="368" height="368" viewBox="0 0 368 368" fill="none" xmlns="http://www.w3.org/2000/svg">
<path d="M159.128 159.124C156.587 161.648 155.167 165.088 155.167 168.667V199.332L159.128 159.124ZM159.128 159.124C160.378 157.869 161.864 156.874 163.5 156.195C165.138 155.515 166.894 155.165 168.668 155.167M159.128 159.124L168.668 155.167M168.668 212.833H168.667V210.833L168.668 212.833ZM168.668 212.833H199.332M168.668 212.833L208.873 159.125M168.668 155.167H199.333C202.911 155.167 206.349 156.586 208.873 159.125M168.668 155.167L208.873 159.125M208.873 159.125C211.413 161.649 212.833 165.088 212.833 168.667V199.333C212.833 202.911 211.414 206.35 208.874 208.875C207.623 210.13 206.137 211.126 204.5 211.805C202.862 212.485 201.105 212.835 199.332 212.833M199.332 212.833L199.333 210.843V212.833H199.332ZM44.1267 44.1248C41.5863 46.6493 40.1666 50.0883 40.1666 53.6667L40.1666 84.3318L40.1666 84.3333L44.1267 44.1248ZM44.1267 44.1248C45.3772 42.8697 46.8633 41.8739 48.4997 41.1947C50.1374 40.5148 51.8934 40.1655 53.6666 40.1667C53.6671 40.1667 53.6677 40.1667 53.6682 40.1667M44.1267 44.1248L92.46 92.46C94.622 90.3133 95.8333 87.3847 95.8333 84.3333V53.6667C95.8333 50.6153 94.622 47.6867 92.46 45.54C90.3133 43.378 87.3846 42.1667 84.3333 42.1667H53.6666L53.6682 40.1667M53.6682 97.8333H53.6666V95.8333L53.6682 97.8333ZM53.6682 97.8333H84.3317M53.6682 97.8333L93.873 93.8754M53.6682 40.1667L84.3333 40.1667C87.9111 40.1667 91.3496 41.5859 93.874 44.1256C96.4139 46.6501 97.8333 50.0887 97.8333 53.6667V84.3333C97.8333 87.9118 96.4135 91.3508 93.873 93.8754M53.6682 40.1667L93.873 93.8754M93.873 93.8754C92.6226 95.1304 91.1365 96.1261 89.5002 96.8053C87.862 97.4853 86.1055 97.8347 84.3317 97.8333M84.3317 97.8333L84.3333 95.8333V97.8333H84.3317ZM283.667 325.833C282.157 325.835 280.661 325.537 279.266 324.958C277.872 324.379 276.605 323.53 275.54 322.46C274.47 321.395 273.621 320.128 273.042 318.734C272.463 317.339 272.165 315.843 272.167 314.333H270.167V314.332V283.667C270.167 280.089 271.586 276.65 274.126 274.125L323.875 323.873M283.667 325.833V327.833H283.668H314.332H314.333V325.833M283.667 325.833H314.333M283.667 325.833H314.333M314.333 325.833C315.843 325.835 317.339 325.537 318.733 324.958C320.128 324.379 321.395 323.53 322.46 322.46C324.622 320.313 325.833 317.385 325.833 314.333V283.667C325.833 280.615 324.622 277.687 322.46 275.54C320.313 273.378 317.385 272.167 314.333 272.167H283.667M283.667 272.167L283.668 270.167M283.667 272.167V270.167H283.668M283.667 272.167C282.157 272.165 280.661 272.463 279.266 273.042C277.872 273.621 276.605 274.47 275.54 275.54C273.378 277.687 272.167 280.615 272.167 283.667L283.668 270.167M283.668 270.167H314.333C317.912 270.167 321.351 271.586 323.875 274.127M323.875 274.127C323.873 274.125 323.871 274.123 323.869 274.121L322.461 275.539L323.879 274.131C323.878 274.13 323.877 274.128 323.875 274.127ZM323.875 274.127C326.414 276.651 327.833 280.089 327.833 283.667V314.333C327.833 317.911 326.414 321.349 323.875 323.873M323.875 323.873C323.876 323.872 323.877 323.872 323.877 323.871L322.461 322.461L323.869 323.879C323.871 323.877 323.873 323.875 323.875 323.873ZM136.167 199.333V168.667C136.167 160.047 139.591 151.781 145.686 145.686C151.781 139.591 160.047 136.167 168.667 136.167H199.333C207.953 136.167 216.219 139.591 222.314 145.686C228.409 151.781 231.833 160.047 231.833 168.667V199.333C231.833 207.953 228.409 216.219 222.314 222.314C216.219 228.409 207.953 231.833 199.333 231.833H168.667C160.047 231.833 151.781 228.409 145.686 222.314C139.591 216.219 136.167 207.953 136.167 199.333ZM21.1666 84.3333V53.6667C21.1666 45.0471 24.5907 36.7806 30.6857 30.6857C36.7806 24.5908 45.0471 21.1667 53.6666 21.1667H84.3333C92.9528 21.1667 101.219 24.5908 107.314 30.6857C113.409 36.7806 116.833 45.0471 116.833 53.6667V84.3333C116.833 92.9529 113.409 101.219 107.314 107.314C101.219 113.409 92.9528 116.833 84.3333 116.833H53.6666C45.0471 116.833 36.7806 113.409 30.6857 107.314C24.5907 101.219 21.1666 92.9529 21.1666 84.3333ZM251.167 314.333V283.667C251.167 275.047 254.591 266.781 260.686 260.686C266.781 254.591 275.047 251.167 283.667 251.167H314.333C322.953 251.167 331.219 254.591 337.314 260.686C343.409 266.781 346.833 275.047 346.833 283.667V314.333C346.833 322.953 343.409 331.219 337.314 337.314C331.219 343.409 322.953 346.833 314.333 346.833H283.667C275.047 346.833 266.781 343.409 260.686 337.314C254.591 331.219 251.167 322.953 251.167 314.333Z" fill="black" stroke="white" stroke-width="4"/>
<path d="M306.67 78.5H306.667H107.333C104.814 78.5 102.397 77.4991 100.616 75.7175C98.8342 73.9359 97.8333 71.5195 97.8333 69C97.8333 66.4804 98.8342 64.0641 100.616 62.2825C102.397 60.5009 104.814 59.5 107.333 59.5L306.666 59.5C306.666 59.5 306.666 59.5 306.667 59.5C317.319 59.5047 327.534 63.7323 335.074 71.2562C342.597 78.7938 346.833 89.0193 346.833 99.6666V153.332C346.833 153.333 346.833 153.333 346.833 153.333C346.829 163.985 342.601 174.201 335.077 181.741C327.539 189.264 317.314 193.5 306.667 193.5H260.667C258.147 193.5 255.731 192.499 253.949 190.717C252.168 188.936 251.167 186.52 251.167 184C251.167 181.48 252.168 179.064 253.949 177.282C255.731 175.501 258.147 174.5 260.667 174.5H306.667L306.67 174.5C312.28 174.491 317.658 172.258 321.625 168.291C325.592 164.324 327.824 158.947 327.833 153.337V153.333V99.6666V99.6635C327.824 94.0533 325.592 88.6755 321.625 84.7085C317.658 80.7415 312.28 78.5089 306.67 78.5ZM61.3301 289.5H61.3333H199.333C201.853 289.5 204.269 290.501 206.051 292.282C207.832 294.064 208.833 296.48 208.833 299C208.833 301.52 207.832 303.936 206.051 305.717C204.269 307.499 201.853 308.5 199.333 308.5H61.3341C61.3339 308.5 61.3336 308.5 61.3333 308.5C50.68 308.495 40.4632 304.267 32.9228 296.741C25.4015 289.204 21.1666 278.979 21.1666 268.333L21.1666 214.667C21.1666 214.667 21.1666 214.667 21.1666 214.667C21.1713 204.015 25.3989 193.799 32.9228 186.259C40.4604 178.736 50.6859 174.5 61.3333 174.5H145.667C148.186 174.5 150.603 175.501 152.384 177.282C154.166 179.064 155.167 181.48 155.167 184C155.167 186.52 154.166 188.936 152.384 190.717C150.603 192.499 148.186 193.5 145.667 193.5H61.3333H61.3301C55.7199 193.509 50.3421 195.742 46.3752 199.709C42.4082 203.676 40.1756 209.053 40.1666 214.663V214.667L40.1666 268.333L40.1666 268.337C40.1756 273.947 42.4082 279.324 46.3752 283.291C50.3421 287.258 55.7199 289.491 61.3301 289.5Z" fill="black" stroke="white" stroke-width="4"/>
<path d="M298.045 207.954L298.046 207.954C298.927 208.836 299.626 209.882 300.104 211.034C300.581 212.186 300.826 213.42 300.826 214.667C300.826 215.913 300.581 217.148 300.104 218.299C299.626 219.451 298.927 220.498 298.046 221.379C297.164 222.261 296.118 222.96 294.966 223.437C293.814 223.914 292.58 224.16 291.333 224.16C290.087 224.16 288.852 223.914 287.7 223.437C286.549 222.96 285.502 222.261 284.621 221.379L253.954 190.712L253.953 190.711C253.071 189.831 252.371 188.784 251.894 187.633C251.416 186.481 251.17 185.247 251.17 184C251.17 182.753 251.416 181.519 251.894 180.367C252.371 179.216 253.071 178.169 253.953 177.289L253.954 177.288L284.621 146.621C285.502 145.739 286.549 145.04 287.7 144.563C288.852 144.086 290.087 143.84 291.333 143.84C292.58 143.84 293.814 144.086 294.966 144.563C296.118 145.04 297.164 145.739 298.046 146.621C298.927 147.502 299.626 148.549 300.104 149.701C300.581 150.852 300.826 152.087 300.826 153.333C300.826 154.58 300.581 155.814 300.104 156.966C299.626 158.118 298.927 159.164 298.046 160.046L298.045 160.046L275.521 182.586L274.108 184L275.521 185.414L298.045 207.954ZM221.38 305.711L221.379 305.712L190.712 336.379C189.831 337.261 188.784 337.96 187.633 338.437C186.481 338.914 185.247 339.159 184 339.159C182.753 339.159 181.519 338.914 180.367 338.437C179.215 337.96 178.169 337.261 177.287 336.379C176.406 335.498 175.707 334.451 175.23 333.299C174.753 332.148 174.507 330.913 174.507 329.667C174.507 328.42 174.753 327.186 175.23 326.034C175.707 324.882 176.406 323.836 177.287 322.954L177.288 322.954L199.813 300.414L201.225 299L199.813 297.586L177.288 275.046L177.287 275.046C175.507 273.266 174.507 270.851 174.507 268.333C174.507 265.816 175.507 263.401 177.287 261.621C179.068 259.841 181.482 258.84 184 258.84C186.518 258.84 188.932 259.841 190.712 261.621L221.379 292.288L221.38 292.289C222.262 293.169 222.962 294.216 223.44 295.367C223.917 296.519 224.163 297.753 224.163 299C224.163 300.247 223.917 301.481 223.44 302.633C222.962 303.784 222.262 304.831 221.38 305.711Z" fill="black" stroke="white" stroke-width="4"/>
</svg>
