<svg width="350" height="350" viewBox="0 0 350 350" fill="none" xmlns="http://www.w3.org/2000/svg">
<path d="M85.5009 0.89031C73.1944 0.89031 63.2219 10.8629 63.2219 23.1693V259.988C63.2219 262.658 65.403 264.839 68.0726 264.839H281.927C284.597 264.839 286.778 262.658 286.778 259.988V22.9643C286.778 10.8675 276.81 0.685272 264.499 0.685272L264.498 0.685273L85.5009 0.89031ZM85.5009 0.89031V1.64031L85.5 0.890311L85.5009 0.89031ZM85.5009 10.5918L85.5017 10.5918L264.499 10.3868C271.254 10.3868 277.077 16.1947 277.077 23.1693V255.138H72.9234V23.1693C72.9234 16.2022 78.5337 10.5918 85.5009 10.5918Z" fill="#FF9700" stroke="#FF9700" stroke-width="1.5"/>
<path d="M107.516 114.315L107.514 114.332L107.513 114.349C107.276 117.19 109.407 119.877 112.361 119.877C114.787 119.877 116.959 117.956 117.207 115.52C120.244 90.8458 139.667 70.8099 164.152 66.5574C165.682 66.3201 166.795 65.5529 167.467 64.5137C168.13 63.4883 168.333 62.2473 168.155 61.0898C167.977 59.9323 167.41 58.8098 166.469 58.0311C165.515 57.2407 164.22 56.8435 162.686 57.0795L162.686 57.0794L162.678 57.0808C133.849 61.8511 111.249 85.489 107.516 114.315ZM182.978 66.5575C207.662 70.8092 226.884 90.8403 230.127 115.52C230.376 118.168 232.555 119.877 234.769 119.877C237.656 119.877 240.091 117.246 239.612 114.305C236.08 85.4839 213.485 61.8552 184.666 57.0824C183.132 56.7899 181.822 57.1576 180.844 57.9356C179.881 58.7023 179.287 59.8296 179.08 60.9961C178.873 62.1624 179.044 63.4234 179.685 64.4694C180.336 65.532 181.44 66.319 182.978 66.5575Z" fill="#FF9700" stroke="#FF9700" stroke-width="1.5"/>
<path d="M173.667 45.9987C168.746 45.9987 165.001 47.8652 162.494 50.7056C160 53.5318 158.77 57.278 158.77 60.9988C158.77 64.7197 160 68.4659 162.494 71.2921C165.001 74.1325 168.746 75.999 173.667 75.999C178.589 75.999 182.334 74.1325 184.84 71.2921C187.334 68.4659 188.565 64.7197 188.565 60.9988C188.565 57.278 187.334 53.5318 184.84 50.7056C182.334 47.8652 178.589 45.9987 173.667 45.9987ZM173.667 66.2975C171.816 66.2975 170.485 65.6218 169.61 64.6543C168.724 63.674 168.266 62.3477 168.266 60.9988C168.266 59.6499 168.724 58.3237 169.61 57.3433C170.485 56.3758 171.816 55.7002 173.667 55.7002C175.461 55.7002 176.752 56.3708 177.603 57.3363C178.466 58.3161 178.915 59.6448 178.915 60.9988C178.915 62.3529 178.466 63.6816 177.603 64.6614C176.752 65.6269 175.461 66.2975 173.667 66.2975Z" fill="#FF9700" stroke="#FF9700" stroke-width="1.5"/>
<path d="M183.919 65.7471H233.333C234.918 65.7471 236.163 65.1532 237.005 64.2173C237.835 63.2946 238.235 62.0839 238.235 60.8963C238.235 59.7088 237.835 58.4981 237.005 57.5753C236.163 56.6395 234.918 56.0456 233.333 56.0456H183.919C182.335 56.0456 181.09 56.6395 180.248 57.5753C179.417 58.4981 179.017 59.7088 179.017 60.8963C179.017 62.0839 179.417 63.2946 180.248 64.2173C181.09 65.1532 182.335 65.7471 183.919 65.7471ZM116.462 65.7471H163.415C164.958 65.7471 166.167 65.1455 166.981 64.2068C167.781 63.2833 168.164 62.0763 168.164 60.8963C168.164 59.7164 167.781 58.5093 166.981 57.5859C166.167 56.6472 164.958 56.0456 163.415 56.0456H116.462C114.919 56.0456 113.71 56.6472 112.896 57.5859C112.096 58.5093 111.713 59.7164 111.713 60.8963C111.713 62.0763 112.096 63.2833 112.896 64.2068C113.71 65.1455 114.919 65.7471 116.462 65.7471Z" fill="#FF9700" stroke="#FF9700" stroke-width="1.5"/>
<path d="M127.053 133.07L127.053 133.063C127.032 130.534 127.044 128.275 127.055 126.267C127.069 123.431 127.082 121.094 126.995 119.195C126.848 115.978 126.419 113.701 124.994 112.246C123.565 110.787 121.309 110.33 118.093 110.176C116.034 110.078 113.459 110.104 110.279 110.136C108.446 110.155 106.412 110.176 104.159 110.176C100.085 110.176 96.6431 113.352 96.6431 117.487C96.6431 119.72 96.6228 121.741 96.6045 123.565C96.5724 126.772 96.5464 129.371 96.6471 131.45C96.8039 134.683 97.2674 136.957 98.7393 138.398C100.208 139.836 102.503 140.272 105.752 140.409C107.751 140.494 110.226 140.465 113.25 140.429C115.183 140.406 117.341 140.381 119.742 140.381C123.847 140.381 127.053 137.175 127.053 133.07ZM151.798 189.856V189.865C151.798 192.535 153.979 194.716 156.649 194.716C157.891 194.716 158.954 194.327 159.787 193.589C160.609 192.86 161.156 191.837 161.466 190.647C162.082 188.283 161.808 185.11 160.722 181.669C158.59 174.914 153.24 166.828 144.516 161.11L174.9 104.712L205.482 161.111C199.157 165.245 188.091 174.57 188.295 189.875L188.295 189.884L188.296 189.893C188.354 191.477 188.994 192.703 189.956 193.522C190.905 194.329 192.125 194.705 193.309 194.69C194.492 194.676 195.69 194.269 196.588 193.445C197.498 192.609 198.053 191.384 197.996 189.846C197.901 182.556 201.79 176.954 205.811 173.135C207.818 171.228 209.839 169.784 211.372 168.817C212.137 168.334 212.778 167.971 213.229 167.732C213.455 167.612 213.632 167.524 213.751 167.467C213.767 167.459 213.782 167.452 213.796 167.446H213.812L213.96 167.379C216.611 166.174 217.599 163.023 216.147 160.584L179.248 92.3206L179.244 92.3128L179.239 92.3051C177.333 88.9698 172.481 88.8835 170.747 92.3299L133.641 160.597L133.62 160.635L133.604 160.676C133.166 161.771 132.889 163.207 133.387 164.484C133.606 165.182 134.131 165.8 134.743 166.361C135.377 166.942 136.195 167.538 137.099 168.165C137.487 168.434 137.894 168.71 138.315 168.996C139.879 170.058 141.639 171.253 143.379 172.705C147.765 176.365 151.897 181.552 151.798 189.856ZM106.21 45.9987C101.337 45.9987 97.6178 47.8672 95.1221 50.7067C92.6391 53.5319 91.4023 57.2764 91.389 60.9961C91.3756 64.7159 92.5855 68.4627 95.0638 71.2902C97.5549 74.1322 101.288 75.999 106.21 75.999C111.18 75.999 114.951 74.1344 117.468 71.2932C119.973 68.466 121.198 64.7181 121.184 60.9961C121.171 57.2742 119.92 53.5287 117.41 50.7037C114.888 47.865 111.131 45.9987 106.21 45.9987ZM106.21 66.2975C104.416 66.2975 103.125 65.6269 102.274 64.6614C101.411 63.6816 100.962 62.3529 100.962 60.9988C100.962 59.6448 101.411 58.3161 102.274 57.3363C103.125 56.3708 104.416 55.7002 106.21 55.7002C108.061 55.7002 109.392 56.3758 110.267 57.3433C111.153 58.3237 111.611 59.6499 111.611 60.9988C111.611 62.3477 111.153 63.674 110.267 64.6543C109.392 65.6218 108.061 66.2975 106.21 66.2975ZM243.585 45.9987C238.664 45.9987 234.919 47.8652 232.412 50.7056C229.918 53.5318 228.688 57.278 228.688 60.9988C228.688 64.7197 229.918 68.4659 232.412 71.2921C234.919 74.1325 238.664 75.999 243.585 75.999C248.507 75.999 252.252 74.1325 254.758 71.2921C257.252 68.4659 258.483 64.7197 258.483 60.9988C258.483 57.278 257.252 53.5318 254.758 50.7056C252.252 47.8652 248.507 45.9987 243.585 45.9987ZM243.585 66.2975C241.792 66.2975 240.501 65.6269 239.65 64.6614C238.786 63.6816 238.338 62.3529 238.338 60.9988C238.338 59.6448 238.786 58.3161 239.65 57.3363C240.501 56.3708 241.792 55.7002 243.585 55.7002C245.379 55.7002 246.67 56.3708 247.521 57.3363C248.384 58.3161 248.833 59.6448 248.833 60.9988C248.833 62.3529 248.384 63.6816 247.521 64.6614C246.67 65.6269 245.379 66.2975 243.585 66.2975ZM117.352 119.877V130.679H106.345V119.877H117.352ZM220.281 117.487C220.281 119.89 220.256 122.047 220.233 123.978C220.197 126.995 220.168 129.459 220.253 131.445C220.39 134.674 220.825 136.949 222.269 138.393C223.713 139.837 225.988 140.272 229.217 140.409C231.203 140.494 233.667 140.465 236.684 140.429C238.615 140.406 240.772 140.381 243.175 140.381C247.28 140.381 250.486 137.175 250.486 133.07C250.486 130.839 250.507 128.821 250.525 127C250.558 123.832 250.584 121.258 250.486 119.194C250.332 115.97 249.875 113.694 248.421 112.241C246.968 110.787 244.692 110.33 241.468 110.176C239.404 110.078 236.83 110.104 233.662 110.137C231.841 110.155 229.823 110.176 227.592 110.176C223.487 110.176 220.281 113.382 220.281 117.487ZM240.785 119.877V130.679H229.983V119.877H240.785Z" fill="#FF9700" stroke="#FF9700" stroke-width="1.5"/>
<path d="M145.372 219.731H204.628C207.298 219.731 209.479 217.55 209.479 214.88V189.865C209.479 187.196 207.298 185.015 204.628 185.015H145.372C142.702 185.015 140.521 187.196 140.521 189.865V214.88C140.521 217.55 142.702 219.731 145.372 219.731ZM199.777 194.716V210.029H150.223V194.716H199.777ZM170.047 132.25C170.047 134.919 172.228 137.1 174.897 137.1C177.567 137.1 179.748 134.919 179.748 132.25V94.5226C179.748 92.9796 179.147 91.7706 178.208 90.9571C177.284 90.1568 176.077 89.7743 174.897 89.7743C173.718 89.7743 172.511 90.1568 171.587 90.9571C170.648 91.7706 170.047 92.9796 170.047 94.5226V132.25Z" fill="#FF9700" stroke="#FF9700" stroke-width="1.5"/>
<path d="M174.897 127.399C170.639 127.399 167.393 129.037 165.22 131.533C163.061 134.013 161.999 137.297 161.999 140.554C161.999 143.81 163.061 147.094 165.22 149.574C167.393 152.07 170.639 153.708 174.897 153.708C179.204 153.708 182.488 152.072 184.687 149.578C186.873 147.098 187.95 143.813 187.95 140.554C187.95 137.294 186.873 134.01 184.687 131.529C182.488 129.035 179.204 127.399 174.897 127.399ZM174.897 144.007C173.72 144.007 172.891 143.568 172.347 142.949C171.791 142.315 171.495 141.447 171.495 140.554C171.495 139.66 171.791 138.792 172.347 138.159C172.891 137.539 173.72 137.1 174.897 137.1C176.075 137.1 176.904 137.539 177.448 138.159C178.004 138.792 178.299 139.66 178.299 140.554C178.299 141.447 178.004 142.315 177.448 142.949C176.904 143.568 176.075 144.007 174.897 144.007Z" fill="#FF9700" stroke="#FF9700" stroke-width="1.5"/>
<path d="M26.4499 297.235H323.55C338.522 297.235 350.545 285.212 350.545 270.24V56.5905C350.545 41.6262 338.53 29.3906 323.55 29.3906H281.927C280.384 29.3906 279.175 29.9922 278.362 30.9309C277.562 31.8544 277.179 33.0614 277.179 34.2414C277.179 35.4213 277.562 36.6284 278.362 37.5518C279.175 38.4905 280.384 39.0921 281.927 39.0921H323.55C333.172 39.0921 340.843 46.9468 340.843 56.5905V270.24C340.843 279.873 333.183 287.534 323.55 287.534H26.4499C16.8062 287.534 8.95152 279.862 8.95152 270.24V56.5905C8.95152 46.9579 16.8173 39.0921 26.4499 39.0921H68.0726C69.6156 39.0921 70.8246 38.4905 71.6381 37.5518C72.4385 36.6284 72.8209 35.4213 72.8209 34.2414C72.8209 33.0614 72.4385 31.8544 71.6381 30.9309C70.8246 29.9922 69.6156 29.3906 68.0726 29.3906H26.4499C11.478 29.3906 -0.75 41.6186 -0.75 56.5905V270.24C-0.75 285.22 11.4856 297.235 26.4499 297.235Z" fill="#FF9700" stroke="#FF9700" stroke-width="1.5"/>
<path d="M182.146 292.852L182.147 292.862C182.886 300.993 186.729 306.708 192.231 311.021C197.703 315.31 204.822 318.22 212.145 320.798C214.154 321.505 216.177 322.187 218.19 322.865C223.554 324.673 228.84 326.455 233.589 328.625C239.637 331.388 244.678 334.725 247.78 339.408H102.015C105.116 334.725 110.158 331.388 116.206 328.625C120.955 326.455 126.241 324.673 131.605 322.865C133.618 322.187 135.641 321.505 137.65 320.798C144.973 318.22 152.092 315.31 157.563 311.021C163.064 306.709 166.906 300.997 167.647 292.871C167.822 291.334 167.361 290.066 166.519 289.158C165.689 288.263 164.531 287.758 163.363 287.64C162.195 287.522 160.961 287.784 159.975 288.496C158.972 289.219 158.277 290.37 158.157 291.91C157.571 298.189 153.77 302.416 148.062 305.767C142.836 308.833 136.128 311.098 129.043 313.489C128.344 313.726 127.64 313.963 126.934 314.203C119.124 316.853 111.028 319.756 104.344 324.13C97.6432 328.516 92.3233 334.406 90.1096 343.031C89.1415 346.217 91.6119 349.11 94.7276 349.11H255.272C258.459 349.11 260.614 346.162 259.899 343.065L259.896 343.054L259.894 343.044C257.63 334.412 252.283 328.531 245.568 324.158C238.875 319.8 230.785 316.917 222.989 314.279C222.324 314.054 221.661 313.831 221.002 313.609C213.887 311.214 207.15 308.946 201.911 305.854C196.22 302.495 192.427 298.241 191.842 291.905L191.842 291.897L191.841 291.888C191.663 290.354 190.942 289.21 189.931 288.492C188.935 287.785 187.704 287.521 186.535 287.64C185.365 287.758 184.21 288.263 183.371 289.153C182.519 290.055 182.028 291.316 182.146 292.852ZM281.927 264.839H311.658C314.328 264.839 316.509 262.658 316.509 259.988V66.6374C316.509 63.9678 314.328 61.7866 311.658 61.7866H281.927C280.384 61.7866 279.175 62.3882 278.362 63.3269C277.562 64.2504 277.179 65.4574 277.179 66.6374C277.179 67.8173 277.562 69.0244 278.362 69.9479C279.175 70.8865 280.384 71.4881 281.927 71.4881H306.807V255.138H281.927C280.384 255.138 279.175 255.739 278.362 256.678C277.562 257.601 277.179 258.808 277.179 259.988C277.179 261.168 277.562 262.375 278.362 263.299C279.175 264.237 280.384 264.839 281.927 264.839ZM38.3421 264.839H68.0726C69.6156 264.839 70.8245 264.237 71.6381 263.299C72.4384 262.375 72.8209 261.168 72.8209 259.988C72.8209 258.808 72.4384 257.601 71.6381 256.678C70.8245 255.739 69.6156 255.138 68.0726 255.138H43.1929V71.4881H68.0726C69.6156 71.4881 70.8245 70.8865 71.6381 69.9479C72.4384 69.0244 72.8209 67.8173 72.8209 66.6374C72.8209 65.4574 72.4384 64.2504 71.6381 63.3269C70.8245 62.3882 69.6156 61.7866 68.0726 61.7866H38.3421C35.4428 61.7866 33.4913 63.9928 33.4913 66.6374V259.988C33.4913 262.633 35.4428 264.839 38.3421 264.839ZM53.1048 281.037H69.5079C71.0509 281.037 72.2598 280.435 73.0733 279.497C73.8737 278.573 74.2561 277.366 74.2561 276.186C74.2561 275.006 73.8737 273.799 73.0733 272.876C72.2598 271.937 71.0509 271.336 69.5079 271.336H53.1048C51.5205 271.336 50.2756 271.929 49.4334 272.865C48.6029 273.788 48.2028 274.999 48.2028 276.186C48.2028 277.374 48.6029 278.585 49.4334 279.507C50.2756 280.443 51.5205 281.037 53.1048 281.037ZM85.7059 281.037H102.314C103.857 281.037 105.066 280.435 105.879 279.497C106.68 278.573 107.062 277.366 107.062 276.186C107.062 275.006 106.68 273.799 105.879 272.876C105.066 271.937 103.857 271.336 102.314 271.336H85.7059C84.1629 271.336 82.954 271.937 82.1404 272.876C81.3401 273.799 80.9577 275.006 80.9577 276.186C80.9577 277.366 81.3401 278.573 82.1404 279.497C82.954 280.435 84.1629 281.037 85.7059 281.037ZM280.492 281.037H296.895C298.438 281.037 299.647 280.435 300.461 279.497C301.261 278.573 301.643 277.366 301.643 276.186C301.643 275.006 301.261 273.799 300.461 272.876C299.647 271.937 298.438 271.336 296.895 271.336H280.492C278.908 271.336 277.663 271.929 276.821 272.865C275.99 273.788 275.59 274.999 275.59 276.186C275.59 277.374 275.99 278.585 276.821 279.507C277.663 280.443 278.908 281.037 280.492 281.037Z" fill="#FF9700" stroke="#FF9700" stroke-width="1.5"/>
</svg>
