<svg width="371" height="371" viewBox="0 0 371 371" fill="none" xmlns="http://www.w3.org/2000/svg">
<path d="M359.406 263.809H359.407C360.542 263.808 361.667 264.031 362.716 264.465C363.765 264.899 364.718 265.536 365.521 266.339C366.323 267.142 366.96 268.095 367.394 269.144C367.828 270.193 368.051 271.317 368.051 272.452V272.453V295.639C368.037 307.152 363.458 318.191 355.316 326.332C347.175 334.473 336.137 339.053 324.623 339.066H46.3767C34.8631 339.053 23.8249 334.473 15.6836 326.332C7.54246 318.191 2.96281 307.153 2.94922 295.64L2.94922 272.453L2.94922 272.452C2.94857 271.317 3.1717 270.193 3.60586 269.144C4.04001 268.095 4.67668 267.142 5.47945 266.339C6.28221 265.536 7.23534 264.899 8.28433 264.465C9.33332 264.031 10.4576 263.808 11.5929 263.809H11.5938H18.8398H20.3398V262.309L20.3398 63.7674C20.3398 63.7669 20.3398 63.7664 20.3398 63.7659C20.3505 55.3267 23.7077 47.2363 29.6751 41.2688C35.6427 35.3013 43.7334 31.9441 52.1728 31.9336H318.827C327.267 31.9441 335.357 35.3013 341.325 41.2688C347.293 47.2366 350.65 55.3277 350.66 63.7674V262.309V263.809H352.16H359.406ZM333.371 63.7656V63.7636C333.366 59.9087 331.832 56.2131 329.106 53.4873C326.381 50.7614 322.685 49.2278 318.83 49.2227H318.828H131.879H130.379V50.7227V76.8086V78.3086H131.879H331.871H333.371V76.8086V63.7656ZM52.1719 49.2227L52.1699 49.2227C48.3149 49.2278 44.6194 50.7614 41.8935 53.4873C39.1677 56.2131 37.634 59.9087 37.6289 63.7636V63.7656V76.8086V78.3086H39.1289H111.59H113.09V76.8086V50.7227V49.2227H111.59L52.1719 49.2227ZM39.1289 95.5977H37.6289V97.0977V262.309V263.809H39.1289H144.922H144.922C146.74 263.808 148.512 264.38 149.986 265.445C151.46 266.509 152.561 268.01 153.132 269.736L153.133 269.739L156.611 280.174L156.953 281.199H158.034H212.977H214.058L214.4 280.174L217.878 269.739L217.879 269.736C218.45 268.012 219.55 266.511 221.021 265.447C222.493 264.383 224.263 263.81 226.079 263.809H331.871H333.371V262.309V97.0977V95.5977H331.871H39.1289ZM350.762 295.642V295.641V282.598V281.098H349.262H233.382H232.301L231.959 282.123L228.481 292.558L228.48 292.561C227.909 294.285 226.81 295.785 225.338 296.849C223.866 297.914 222.096 298.487 220.28 298.488H150.719H150.718C148.9 298.489 147.128 297.917 145.654 296.852C144.181 295.788 143.08 294.286 142.508 292.561L142.507 292.558L139.029 282.123L138.687 281.098H137.606H21.7383H20.2383V282.598L20.2383 295.641L20.2383 295.642C20.2448 302.572 23.0004 309.215 27.9003 314.115C32.8002 319.015 39.4441 321.771 46.3736 321.777H46.375H324.625H324.626C331.556 321.771 338.2 319.015 343.1 314.115C348 309.215 350.755 302.572 350.762 295.642Z" fill="black" stroke="white" stroke-width="3"/>
<path d="M243.468 152.858L244.814 155.585L250.785 167.689C250.785 167.689 250.785 167.689 250.785 167.689C251.406 168.946 252.323 170.034 253.457 170.858C254.591 171.683 255.908 172.219 257.295 172.422L243.468 152.858ZM243.468 152.858L242.123 155.586L236.153 167.694L243.468 152.858ZM209.667 196.316L209.801 195.539L209.237 194.989L188.687 174.92L188.686 174.919C187.531 173.793 186.714 172.366 186.327 170.8C185.941 169.234 186 167.591 186.499 166.057C186.997 164.523 187.915 163.159 189.148 162.119C190.382 161.08 191.881 160.406 193.478 160.174L193.276 158.783L193.478 160.174L221.882 156.046L222.663 155.933L223.012 155.226L235.724 129.477C236.438 128.031 237.543 126.814 238.912 125.963C240.282 125.112 241.862 124.661 243.475 124.661C245.087 124.661 246.667 125.112 248.037 125.963C249.406 126.814 250.511 128.031 251.225 129.476C251.225 129.477 251.225 129.477 251.225 129.477L263.937 155.226L264.286 155.933L265.067 156.046L293.471 160.174L293.471 160.174C295.068 160.406 296.567 161.08 297.801 162.119C299.034 163.159 299.952 164.523 300.45 166.057C300.949 167.591 301.008 169.234 300.622 170.8C300.235 172.366 299.418 173.793 298.263 174.919L298.263 174.919L277.701 194.965L277.137 195.515L277.27 196.292L282.122 224.592C282.122 224.592 282.122 224.592 282.122 224.593C282.394 226.182 282.215 227.815 281.607 229.308C280.999 230.802 279.986 232.095 278.681 233.043C277.376 233.99 275.833 234.554 274.224 234.67C272.616 234.787 271.007 234.451 269.58 233.701L269.579 233.7L244.166 220.367L243.469 220.002L242.772 220.368L217.358 233.706L217.357 233.707C215.93 234.457 214.32 234.793 212.712 234.677C211.103 234.56 209.559 233.996 208.254 233.048C206.949 232.1 205.935 230.805 205.328 229.311C204.72 227.817 204.543 226.183 204.815 224.593L209.667 196.316ZM270.628 174.358L257.296 172.422L225.141 186.296C226.14 187.274 226.887 188.481 227.317 189.812C227.747 191.144 227.847 192.56 227.609 193.94L227.608 193.943L225.33 207.275L224.82 210.259L227.503 208.858L239.445 202.62L239.45 202.617C240.69 201.963 242.072 201.621 243.475 201.621C244.877 201.621 246.259 201.963 247.499 202.617L247.501 202.618L259.436 208.896L262.125 210.31L261.613 207.316L259.335 193.983L259.335 193.98C259.096 192.601 259.196 191.185 259.626 189.853C260.057 188.521 260.804 187.313 261.804 186.334C261.804 186.334 261.804 186.334 261.804 186.334L271.46 176.916L273.635 174.795L270.628 174.358ZM215.483 176.876L225.139 186.294L236.153 167.695C235.531 168.951 234.614 170.037 233.48 170.861C232.347 171.684 231.03 172.219 229.644 172.422C229.643 172.422 229.642 172.422 229.642 172.422L216.319 174.317L213.3 174.746L215.483 176.876ZM75.3594 211.637H133.328C135.621 211.637 137.82 212.547 139.441 214.169C141.062 215.79 141.973 217.989 141.973 220.281C141.973 222.574 141.062 224.773 139.441 226.394C137.82 228.015 135.621 228.926 133.328 228.926H75.3594C73.0667 228.926 70.8679 228.015 69.2468 226.394C67.6256 224.773 66.7148 222.574 66.7148 220.281C66.7148 217.989 67.6256 215.79 69.2468 214.169C70.8679 212.547 73.0667 211.637 75.3594 211.637ZM75.3594 171.059H133.328C135.621 171.059 137.82 171.969 139.441 173.591C141.062 175.212 141.973 177.41 141.973 179.703C141.973 181.996 141.062 184.195 139.441 185.816C137.82 187.437 135.621 188.348 133.328 188.348H75.3594C73.0667 188.348 70.8679 187.437 69.2468 185.816C67.6256 184.195 66.7148 181.996 66.7148 179.703C66.7148 177.41 67.6256 175.212 69.2468 173.591C70.8679 171.969 73.0667 171.059 75.3594 171.059ZM75.3594 130.48H133.328C135.621 130.48 137.82 131.391 139.441 133.012C141.062 134.634 141.973 136.832 141.973 139.125C141.973 141.418 141.062 143.616 139.441 145.238C137.82 146.859 135.621 147.77 133.328 147.77H75.3594C73.0667 147.77 70.8679 146.859 69.2468 145.238C67.6256 143.616 66.7148 141.418 66.7148 139.125C66.7148 136.832 67.6256 134.634 69.2468 133.012C70.8679 131.391 73.0667 130.48 75.3594 130.48Z" fill="black" stroke="white" stroke-width="3"/>
</svg>
