<svg width="371" height="371" viewBox="0 0 371 371" fill="none" xmlns="http://www.w3.org/2000/svg">
<path d="M129.815 163.419C132.806 167.569 135.824 170.944 138.742 174.208C144.006 180.095 148.32 184.938 150.664 192.34C147.046 194.984 144.681 199.25 144.681 204.07C144.681 209.703 147.917 214.586 152.621 216.987C152.139 218.446 151.893 219.972 151.891 221.509C151.891 227.716 155.824 233.01 161.326 235.077C160.971 236.337 160.79 237.639 160.786 238.948C160.786 246.958 167.302 253.475 175.312 253.475H195.709C203.708 253.475 210.216 246.958 210.216 238.948C210.216 237.607 210.019 236.315 209.678 235.081C215.178 233.018 219.11 227.721 219.11 221.509C219.11 219.93 218.849 218.412 218.381 216.988C223.085 214.587 226.32 209.704 226.32 204.07C226.32 199.253 223.957 194.989 220.341 192.344C222.694 184.937 227.006 180.092 232.268 174.203C235.182 170.941 238.197 167.567 241.18 163.428C249.653 151.71 254.132 137.85 254.132 123.345C254.132 85.5017 223.345 54.7138 185.501 54.7138C147.658 54.7138 116.89 85.5017 116.89 123.345C116.89 137.869 121.362 151.729 129.816 163.42L129.815 163.419ZM172.022 129.81H166.336C163.202 129.81 160.651 127.26 160.651 124.125C160.651 120.99 163.202 118.46 166.336 118.46C169.471 118.46 172.022 121.001 172.022 124.125V129.81ZM183.615 141.404H187.406V189.543H183.615V141.404ZM211.813 201.136C213.392 201.136 214.726 202.48 214.726 204.07C214.726 205.649 213.392 206.982 211.813 206.982H159.188C157.609 206.982 156.275 205.649 156.275 204.07C156.275 202.48 157.609 201.136 159.188 201.136H211.813ZM207.516 221.509C207.516 223.088 206.182 224.422 204.603 224.422H166.417C164.828 224.422 163.484 223.088 163.484 221.509C163.485 220.731 163.794 219.986 164.344 219.436C164.894 218.886 165.64 218.576 166.417 218.576H204.603C206.182 218.576 207.516 219.919 207.516 221.509ZM195.709 241.881H175.312C173.722 241.881 172.38 240.538 172.38 238.948C172.38 238.17 172.689 237.425 173.239 236.875C173.789 236.325 174.534 236.016 175.312 236.015H195.709C197.288 236.015 198.622 237.358 198.622 238.948C198.622 240.538 197.288 241.881 195.709 241.881ZM185.501 66.3068C216.951 66.3068 242.538 91.8935 242.538 123.344C242.538 135.394 238.82 146.906 231.779 156.641C229.145 160.296 226.337 163.439 223.621 166.478C217.963 172.811 212.138 179.334 209.066 189.543H198.999V141.404H204.664C214.192 141.404 221.944 133.652 221.944 124.125C221.944 114.598 214.192 106.866 204.664 106.866C195.135 106.866 187.406 114.609 187.406 124.125V129.81H183.615V124.125C183.615 114.608 175.863 106.866 166.336 106.866C156.808 106.866 149.056 114.609 149.056 124.125C149.056 133.641 156.808 141.404 166.336 141.404H172.021V189.543H161.939C158.874 179.334 153.045 172.812 147.384 166.48C144.666 163.44 141.855 160.296 139.216 156.633C132.195 146.924 128.483 135.412 128.483 123.344C128.483 91.8935 154.061 66.3068 185.501 66.3068ZM199 129.81V124.125C199 121.001 201.541 118.46 204.664 118.46C207.788 118.46 210.35 121.001 210.35 124.125C210.35 127.249 207.8 129.81 204.664 129.81H199ZM80.6766 123.344C80.6766 121.807 81.2873 120.333 82.3744 119.245C83.4615 118.158 84.936 117.548 86.4734 117.548H100.79C102.328 117.548 103.802 118.158 104.889 119.245C105.976 120.333 106.587 121.807 106.587 123.344C106.587 124.882 105.976 126.356 104.889 127.443C103.802 128.531 102.328 129.141 100.79 129.141H86.4734C84.936 129.141 83.4615 128.531 82.3744 127.443C81.2873 126.356 80.6766 124.882 80.6766 123.344ZM111.378 57.4195C110.84 56.8813 110.413 56.2423 110.121 55.5391C109.83 54.8358 109.68 54.082 109.68 53.3207C109.68 52.5595 109.83 51.8057 110.121 51.1024C110.413 50.3992 110.84 49.7602 111.378 49.222C111.916 48.6836 112.555 48.2565 113.259 47.9651C113.962 47.6738 114.716 47.5238 115.477 47.5238C116.238 47.5238 116.992 47.6738 117.695 47.9651C118.399 48.2565 119.038 48.6836 119.576 49.222L129.703 59.3491C130.241 59.8873 130.668 60.5263 130.96 61.2296C131.251 61.9328 131.401 62.6866 131.401 63.4479C131.401 64.2091 131.251 64.9629 130.96 65.6662C130.668 66.3695 130.241 67.0085 129.703 67.5466C128.571 68.6785 127.088 69.2444 125.604 69.2444C124.12 69.2444 122.637 68.6785 121.505 67.5466L111.378 57.4195ZM179.704 38.634V24.3172C179.704 22.7797 180.315 21.3053 181.402 20.2182C182.489 19.131 183.963 18.5203 185.501 18.5203C187.038 18.5203 188.513 19.131 189.6 20.2182C190.687 21.3053 191.298 22.7797 191.298 24.3172V38.634C191.298 40.1714 190.687 41.6459 189.6 42.733C188.513 43.8201 187.038 44.4309 185.501 44.4309C183.963 44.4309 182.489 43.8201 181.402 42.733C180.315 41.6459 179.704 40.1714 179.704 38.634ZM241.298 67.5466C240.211 66.4595 239.6 64.9852 239.6 63.4479C239.6 61.9106 240.211 60.4362 241.298 59.3491L251.425 49.222C251.963 48.6836 252.602 48.2565 253.306 47.9651C254.009 47.6737 254.763 47.5237 255.524 47.5237C256.285 47.5237 257.039 47.6737 257.743 47.9651C258.446 48.2565 259.085 48.6836 259.623 49.222C260.71 50.3091 261.321 51.7834 261.321 53.3207C261.321 54.8581 260.71 56.3324 259.623 57.4195L249.496 67.5466C248.364 68.6785 246.881 69.2444 245.397 69.2444C243.913 69.2444 242.43 68.6785 241.298 67.5466ZM264.414 123.344C264.414 121.807 265.024 120.333 266.111 119.245C267.199 118.158 268.673 117.548 270.21 117.548H284.527C286.065 117.548 287.539 118.158 288.626 119.245C289.713 120.333 290.324 121.807 290.324 123.344C290.324 124.882 289.713 126.356 288.626 127.443C287.539 128.531 286.065 129.141 284.527 129.141H270.21C268.673 129.141 267.199 128.531 266.111 127.443C265.024 126.356 264.414 124.882 264.414 123.344ZM338.821 223.094C346.094 214.21 349.893 201.622 349.893 189.445C349.893 169.667 333.802 153.577 314.024 153.577C294.246 153.577 278.175 169.667 278.175 189.445C278.175 199.652 281.154 210.582 286.143 218.684C291.329 227.106 298.613 232.518 307.082 234.42C305.958 235.485 304.908 236.536 303.917 237.528L262.098 279.347H213.189C202.166 279.347 193.198 288.315 193.198 299.338C193.198 302.328 193.864 305.165 195.048 307.714H175.953C177.172 305.09 177.803 302.231 177.801 299.338C177.801 288.315 168.843 279.347 157.831 279.347H108.9L67.0822 237.528C66.0909 236.536 65.0417 235.486 63.9178 234.421C72.3935 232.52 79.6795 227.106 84.8641 218.683C89.8479 210.585 92.8239 199.655 92.8239 189.444C92.8239 169.666 76.7427 153.576 56.9753 153.576C37.208 153.576 21.1071 169.667 21.1071 189.444C21.1071 201.622 24.9055 214.211 32.1814 223.096C19.2594 225.412 9.41992 236.728 9.41992 250.306V346.684C9.41992 348.221 10.0307 349.695 11.1178 350.783C12.2049 351.87 13.6794 352.48 15.2168 352.48C16.7542 352.48 18.2287 351.87 19.3158 350.783C20.4029 349.695 21.0137 348.221 21.0137 346.684V250.306C21.0137 241.451 28.217 234.248 37.0717 234.248C47.4206 234.248 52.9871 239.821 58.8796 245.721L104.098 290.94H157.831C162.449 290.94 166.207 294.707 166.207 299.337C166.207 303.967 162.449 307.713 157.831 307.713H101.426C98.5092 307.713 96.189 306.752 94.1253 304.688L56.4326 266.975C55.8956 266.431 55.2564 265.999 54.5518 265.703C53.8471 265.407 53.091 265.254 52.3267 265.251C51.5625 265.249 50.8054 265.398 50.0988 265.689C49.3923 265.98 48.7503 266.408 48.2098 266.948C47.6693 267.489 47.2409 268.13 46.9494 268.837C46.6579 269.543 46.5089 270.3 46.511 271.065C46.5132 271.829 46.6664 272.585 46.9619 273.29C47.2574 273.995 47.6894 274.634 48.2329 275.171L67.6314 294.581V346.684C67.6314 348.222 68.2422 349.696 69.3293 350.783C70.4164 351.87 71.8909 352.481 73.4283 352.481C74.9657 352.481 76.4402 351.87 77.5273 350.783C78.6144 349.696 79.2252 348.222 79.2252 346.684V306.181L85.9264 312.886C86.953 313.916 88.0765 314.844 89.2813 315.659V346.684C89.2813 348.222 89.892 349.696 90.9792 350.783C92.0663 351.87 93.5407 352.481 95.0782 352.481H275.92C277.457 352.481 278.932 351.87 280.019 350.783C281.106 349.696 281.717 348.222 281.717 346.684V315.659C282.921 314.844 284.045 313.916 285.071 312.886L291.773 306.184V346.685C291.773 348.222 292.383 349.697 293.471 350.784C294.558 351.871 296.032 352.482 297.57 352.482C299.107 352.482 300.581 351.871 301.669 350.784C302.756 349.697 303.366 348.222 303.366 346.685V294.591L322.784 275.173C323.328 274.635 323.76 273.996 324.056 273.291C324.351 272.587 324.505 271.831 324.507 271.066C324.509 270.302 324.361 269.545 324.069 268.838C323.778 268.132 323.35 267.49 322.809 266.95C322.269 266.409 321.627 265.981 320.92 265.69C320.214 265.399 319.457 265.25 318.692 265.252C317.928 265.254 317.172 265.408 316.467 265.704C315.763 265.999 315.123 266.431 314.586 266.975L276.873 304.688C274.809 306.753 272.489 307.715 269.573 307.715H213.189C208.559 307.715 204.792 303.957 204.792 299.338C204.792 294.72 208.559 290.942 213.189 290.942H266.9L312.12 245.722C318.013 239.821 323.579 234.249 333.948 234.249C342.791 234.249 349.986 241.452 349.986 250.307V346.684C349.986 348.222 350.596 349.696 351.683 350.783C352.771 351.87 354.245 352.481 355.782 352.481C357.32 352.481 358.794 351.87 359.881 350.783C360.969 349.696 361.579 348.222 361.579 346.684V250.307C361.579 236.723 351.739 225.405 338.82 223.094H338.821ZM56.976 165.169C70.3501 165.169 81.2309 176.058 81.2309 189.443C81.2309 202.649 74.6464 223.599 56.976 223.599C40.2325 223.599 32.7016 203.626 32.7016 189.443C32.7016 176.058 43.591 165.169 56.976 165.169ZM269.574 319.307H270.124V340.887H100.876V319.307H269.574H269.574ZM289.769 189.443C289.769 176.058 300.65 165.169 314.024 165.169C327.398 165.169 338.299 176.058 338.299 189.443C338.299 203.625 330.768 223.599 314.024 223.599C297.28 223.599 289.769 203.626 289.769 189.443Z" fill="black"/>
</svg>
