<svg width="300" height="300" viewBox="0 0 300 300" fill="none" xmlns="http://www.w3.org/2000/svg">
<path d="M245.373 205.464H266.991C268.138 205.427 269.225 204.945 270.023 204.121C270.821 203.297 271.267 202.195 271.267 201.048C271.267 199.901 270.821 198.798 270.023 197.974C269.225 197.15 268.138 196.669 266.991 196.632H245.373C244.226 196.669 243.139 197.15 242.341 197.974C241.543 198.798 241.096 199.901 241.096 201.048C241.096 202.195 241.543 203.297 242.341 204.121C243.139 204.945 244.226 205.427 245.373 205.464ZM245.373 224.2H266.991C268.163 224.2 269.286 223.735 270.115 222.906C270.944 222.077 271.409 220.954 271.409 219.782C271.409 218.61 270.944 217.486 270.115 216.658C269.286 215.829 268.163 215.364 266.991 215.364H245.373C244.201 215.364 243.077 215.829 242.249 216.658C241.42 217.486 240.955 218.61 240.955 219.782C240.955 220.954 241.42 222.077 242.249 222.906C243.077 223.735 244.201 224.2 245.373 224.2ZM254.909 250.114C251.254 250.117 247.749 251.571 245.165 254.156C242.58 256.74 241.126 260.245 241.123 263.9C241.128 267.554 242.581 271.056 245.165 273.64C247.748 276.223 251.251 277.677 254.905 277.682C258.559 277.678 262.063 276.225 264.647 273.642C267.232 271.058 268.686 267.554 268.691 263.9C268.687 260.245 267.234 256.74 264.649 254.156C262.064 251.571 258.56 250.117 254.905 250.114H254.909ZM254.909 268.85C253.595 268.85 252.335 268.328 251.406 267.399C250.477 266.47 249.955 265.21 249.955 263.895C250.009 262.619 250.555 261.414 251.477 260.53C252.399 259.646 253.627 259.153 254.905 259.153C256.182 259.153 257.41 259.646 258.332 260.53C259.254 261.414 259.8 262.619 259.855 263.895C259.855 266.627 257.636 268.85 254.905 268.85H254.909Z" fill="black"/>
<path d="M295.455 101.373V49.7136C295.455 44.3955 291.127 40.0636 285.805 40.0636H209.441C204.118 40.0636 199.791 44.3909 199.791 49.7136V101.373C199.791 106.691 204.118 111.023 209.441 111.023H212.605L180.577 129.5C182.723 112.118 169.341 95.4818 150.614 95.2909V56.7H170.75C173.792 56.6964 176.709 55.4867 178.86 53.336C181.012 51.1854 182.222 48.2693 182.227 45.2273V16.5682C182.224 13.5253 181.013 10.6081 178.862 8.45651C176.71 6.30489 173.793 5.09452 170.75 5.09091H120.568C117.525 5.09452 114.608 6.30489 112.457 8.45651C110.305 10.6081 109.095 13.5253 109.091 16.5682V45.2273C109.096 48.2686 110.306 51.1839 112.457 53.3344C114.607 55.4849 117.522 56.6952 120.564 56.7H141.777V96.5636C136.913 97.9662 132.476 100.562 128.87 104.115C125.263 107.668 122.602 112.066 121.127 116.909C117.539 116.168 113.819 116.373 110.333 117.502C106.847 118.631 103.714 120.646 101.241 123.35L70.6409 105.705C71.4591 104.236 71.9591 102.568 71.9591 100.773V65.8182C71.9591 60.9545 68.55 56.8955 64.0045 55.85V46.7091C64.0045 34.0455 53.7045 23.7455 41.0409 23.7455C28.3773 23.7455 18.0818 34.0455 18.0818 46.7091V55.8455C13.5364 56.8955 10.1227 60.9545 10.1227 65.8182V100.777C10.1251 103.495 11.2058 106.101 13.1275 108.022C15.0493 109.944 17.655 111.025 20.3727 111.027H61.7182C61.8591 111.027 61.9909 110.991 62.1364 110.982C62.1545 110.995 62.1682 111.018 62.1864 111.027L96.7682 130.973C96.6636 131.291 96.5136 131.582 96.4227 131.905C85.7409 132.664 74.3318 142.95 74.3318 156.541C74.3318 167.927 82.15 177.495 92.6955 180.241L62.1864 197.855C62.0136 197.955 61.9091 198.114 61.7545 198.232H45.4727V191.364C51.8364 189.45 56.5091 183.605 56.5091 176.632C56.5091 168.105 49.5727 161.173 41.0545 161.173C32.5364 161.173 25.5909 168.105 25.5909 176.627C25.5909 183.609 30.2727 189.459 36.6409 191.368V198.232H20.0045C19.4236 198.231 18.8482 198.345 18.3115 198.567C17.7748 198.789 17.2874 199.116 16.8773 199.527C16.4636 199.937 16.1353 200.425 15.9114 200.963C15.6874 201.5 15.5723 202.077 15.5727 202.659V214.227C9.21818 216.145 4.54546 221.986 4.54546 228.955C4.54546 237.477 11.4818 244.414 20.0045 244.414C28.5273 244.414 35.4636 237.477 35.4636 228.959C35.4636 221.973 30.7773 216.123 24.4045 214.214V207.059H40.9955C41.0182 207.059 41.0364 207.073 41.0591 207.073C41.0818 207.073 41.1 207.059 41.1227 207.059H57.6682V214.218C51.3045 216.132 46.6227 221.977 46.6227 228.955C46.6227 237.477 53.5591 244.414 62.0818 244.414C70.6045 244.414 77.5409 237.477 77.5409 228.959C77.5409 221.977 72.8636 216.132 66.5 214.218V205.536C66.5318 205.523 66.5682 205.518 66.6 205.495L108.955 181.041H141.777V210.595H106.118C104.948 210.597 103.826 211.062 102.999 211.89C102.171 212.717 101.706 213.839 101.705 215.009V270.409C101.705 272.845 103.682 274.827 106.118 274.827H141.795V284.323H128.205C127.058 284.36 125.971 284.841 125.172 285.665C124.374 286.489 123.928 287.591 123.928 288.739C123.928 289.886 124.374 290.988 125.172 291.812C125.971 292.636 127.058 293.118 128.205 293.155H164.218C165.365 293.118 166.452 292.636 167.25 291.812C168.048 290.988 168.495 289.886 168.495 288.739C168.495 287.591 168.048 286.489 167.25 285.665C166.452 284.841 165.365 284.36 164.218 284.323H150.627V274.823H186.309C187.478 274.82 188.599 274.354 189.426 273.527C190.252 272.7 190.717 271.579 190.718 270.409V215.014C190.717 213.844 190.252 212.723 189.426 211.896C188.599 211.068 187.478 210.602 186.309 210.6H150.614V181.045H179.055C180.355 181.045 181.618 180.914 182.864 180.718C197.491 189.145 224.468 204.814 225.423 205.2V279.5C225.423 288 232.336 294.909 240.832 294.909H268.977C277.477 294.909 284.386 288 284.386 279.5V195.068C284.386 186.568 277.477 179.659 268.977 179.659H240.836C232.336 179.659 225.427 186.568 225.427 195.068V195.095L193.223 176.505C196.417 174.245 199.024 171.253 200.824 167.779C202.624 164.304 203.565 160.449 203.568 156.536C203.561 151.922 202.253 147.403 199.794 143.498C197.336 139.593 193.826 136.46 189.668 134.459L229.277 111.595C229.541 111.445 229.714 111.214 229.932 111.023H285.805C291.123 111.023 295.455 106.691 295.455 101.373ZM26.9136 46.7045C26.9136 38.9136 33.2545 32.5727 41.0455 32.5727C48.8364 32.5727 55.1727 38.9136 55.1727 46.7045V55.5682H26.9091L26.9136 46.7045ZM63.1364 100.773C63.1364 101.555 62.5 102.186 61.7227 102.186H20.3727C20.1871 102.187 20.0031 102.151 19.8314 102.08C19.6597 102.01 19.5035 101.906 19.3718 101.776C19.2401 101.645 19.1355 101.489 19.0639 101.318C18.9923 101.147 18.9551 100.963 18.9545 100.777V65.8136C18.9545 63.7727 21.7682 64.5318 22.5 64.4H59.5909C60.3227 64.5318 63.1318 63.7773 63.1318 65.8091L63.1364 100.773ZM26.6364 228.959C26.559 230.664 25.8272 232.274 24.5932 233.453C23.3593 234.632 21.7182 235.29 20.0114 235.29C18.3045 235.29 16.6634 234.632 15.4295 233.453C14.1955 232.274 13.4637 230.664 13.3864 228.959C13.3864 225.309 16.3545 222.336 20.0091 222.336C23.6636 222.336 26.6364 225.309 26.6364 228.959ZM41.0455 183.255C37.3955 183.255 34.4227 180.282 34.4227 176.632C34.4227 172.982 37.4 170 41.0455 170C44.6909 170 47.6727 172.973 47.6727 176.627C47.6727 180.282 44.7 183.25 41.0455 183.25V183.255ZM68.7045 228.959C68.7045 232.614 65.7318 235.586 62.0818 235.586C58.4318 235.586 55.4545 232.614 55.4545 228.955C55.4545 225.295 58.4273 222.332 62.0818 222.332C65.7364 222.332 68.7045 225.309 68.7045 228.959ZM234.25 195.068C234.25 191.441 237.205 188.491 240.832 188.491H268.968C272.6 188.491 275.55 191.445 275.55 195.068V279.495C275.55 283.123 272.595 286.073 268.973 286.073H240.832C237.205 286.073 234.255 283.123 234.255 279.495L234.25 195.068ZM163.709 13.9273L145.664 26.45L127.618 13.9273H163.709ZM120.573 47.8682C119.872 47.8682 119.2 47.5901 118.704 47.095C118.208 46.5998 117.928 45.9281 117.927 45.2273V17.9545L143.145 35.4545C143.885 35.9688 144.763 36.2444 145.664 36.2444C146.564 36.2444 147.443 35.9688 148.182 35.4545L173.4 17.9545V45.2273C173.4 46.6818 172.214 47.8682 170.759 47.8682H120.573ZM181.891 219.432V265.986H110.541V219.432H181.891ZM194.741 156.536C194.737 160.694 193.084 164.681 190.144 167.621C187.204 170.561 183.217 172.215 179.059 172.218H98.85C94.692 172.215 90.7054 170.561 87.7653 167.621C84.8251 164.681 83.1718 160.694 83.1682 156.536C83.1682 147.009 91.9045 140.686 97.6818 140.686C101.355 140.686 104.241 140.75 104.5 136.814C105.077 127.932 114.709 122.673 122.386 126.664C123.022 126.993 123.728 127.163 124.444 127.159C125.16 127.155 125.865 126.977 126.497 126.641C127.129 126.305 127.67 125.82 128.074 125.229C128.477 124.637 128.731 123.957 128.814 123.245C129.419 117.973 131.945 113.107 135.908 109.577C139.872 106.048 144.997 104.101 150.305 104.109C166.427 104.109 176.705 121.2 169.805 135.191C169.427 135.955 169.278 136.813 169.378 137.66C169.477 138.507 169.819 139.307 170.364 139.964C172.768 142.864 175.177 140.827 179.064 140.827C187.709 140.827 194.741 147.873 194.741 156.536ZM226.1 102.186H209.441C207.85 102.186 208.995 102.641 208.627 49.7136C208.627 49.2636 208.991 48.8955 209.445 48.8955H226.1V102.186ZM286.627 101.373C286.627 101.59 286.541 101.798 286.388 101.951C286.234 102.105 286.026 102.191 285.809 102.191H234.927V48.8909H285.805C286.255 48.8909 286.623 49.2591 286.623 49.7091L286.627 101.373Z" fill="black"/>
<path d="M217.032 80.45C219.698 80.45 221.859 78.2888 221.859 75.6227C221.859 72.9567 219.698 70.7955 217.032 70.7955C214.366 70.7955 212.205 72.9567 212.205 75.6227C212.205 78.2888 214.366 80.45 217.032 80.45Z" fill="black"/>
</svg>
