<svg width="307" height="307" viewBox="0 0 307 307" fill="none" xmlns="http://www.w3.org/2000/svg">
<g clip-path="url(#clip0_221_4842)">
<path d="M219.395 50.2239L150.581 10.4938L81.7651 50.2239V112.127M119.406 151.416L150.581 169.415L169.911 158.254" stroke="#FF9700" stroke-width="9" stroke-miterlimit="10" stroke-linecap="round" stroke-linejoin="round"/>
<path d="M188.086 147.761L219.395 129.685V50.2239L150.581 89.9546M150.581 89.9546L81.7651 50.2239V112.127M150.581 89.9546V169.415M47.0508 260.233V246.884C47.0508 246.115 47.3565 245.377 47.9008 244.832C48.445 244.288 49.1832 243.982 49.9529 243.982H55.3254C56.5564 243.982 57.6417 243.201 58.0584 242.043C58.416 241.047 58.8201 240.069 59.2696 239.111C59.7924 237.998 59.5778 236.68 58.7078 235.81L54.9116 232.013C54.3675 231.469 54.0619 230.731 54.0619 229.962C54.0619 229.192 54.3675 228.454 54.9116 227.91L64.3507 218.471C64.8949 217.927 65.633 217.621 66.4025 217.621C67.1721 217.621 67.9102 217.927 68.4544 218.471L72.2505 222.267C73.1206 223.137 74.4385 223.351 75.552 222.829C76.5096 222.379 77.4878 221.975 78.4835 221.617C79.6419 221.201 80.4232 220.115 80.4232 218.884V213.512C80.4232 212.742 80.729 212.004 81.2732 211.46C81.8175 210.916 82.5556 210.61 83.3253 210.61H96.6738C97.4435 210.61 98.1817 210.916 98.7259 211.46C99.2702 212.004 99.5759 212.742 99.5759 213.512V218.884C99.5759 220.115 100.357 221.201 101.516 221.617C102.511 221.975 103.49 222.379 104.447 222.829C105.561 223.351 106.879 223.137 107.749 222.267L111.545 218.471C112.089 217.927 112.827 217.621 113.597 217.621C114.366 217.621 115.104 217.927 115.648 218.471L125.088 227.91C125.632 228.454 125.937 229.192 125.937 229.962C125.937 230.731 125.632 231.469 125.088 232.013L121.291 235.81C120.421 236.68 120.207 237.998 120.73 239.111C121.179 240.069 121.583 241.047 121.941 242.043C122.357 243.201 123.443 243.982 124.674 243.982H130.046C130.816 243.982 131.554 244.288 132.098 244.832C132.643 245.377 132.948 246.115 132.948 246.884V260.233C132.948 261.003 132.643 261.741 132.098 262.285C131.554 262.829 130.816 263.135 130.046 263.135H124.674C123.443 263.135 122.357 263.916 121.941 265.075C121.583 266.07 121.179 267.049 120.73 268.006C120.207 269.12 120.421 270.438 121.291 271.308L125.088 275.104C125.632 275.648 125.937 276.386 125.937 277.156C125.937 277.925 125.632 278.663 125.088 279.208L115.648 288.647C115.104 289.191 114.366 289.496 113.597 289.496C112.827 289.496 112.089 289.191 111.545 288.647L107.749 284.85C106.879 283.98 105.561 283.766 104.447 284.289C103.49 284.738 102.511 285.142 101.516 285.5C100.357 285.916 99.5759 287.002 99.5759 288.233V293.605C99.5759 294.375 99.2702 295.113 98.7259 295.657C98.1817 296.202 97.4435 296.507 96.6738 296.507H83.3253C82.5556 296.507 81.8175 296.202 81.2732 295.657C80.729 295.113 80.4232 294.375 80.4232 293.605V288.233C80.4232 287.002 79.6419 285.917 78.4835 285.5C77.4879 285.142 76.5096 284.738 75.552 284.289C74.4385 283.766 73.1206 283.98 72.2505 284.85L68.4544 288.647C67.9102 289.191 67.1721 289.496 66.4025 289.496C65.633 289.496 64.8949 289.191 64.3507 288.647L54.9104 279.208C54.3663 278.664 54.0607 277.926 54.0607 277.156C54.0607 276.387 54.3663 275.649 54.9104 275.104L58.7066 271.308C59.5766 270.438 59.7913 269.12 59.2684 268.007C58.8187 267.049 58.4145 266.071 58.0572 265.075C57.641 263.917 56.5552 263.136 55.3242 263.136H49.9517C49.1821 263.135 48.4443 262.829 47.9003 262.285C47.3563 261.74 47.0508 261.002 47.0508 260.233Z" stroke="#FF9700" stroke-width="9" stroke-miterlimit="10" stroke-linecap="round" stroke-linejoin="round"/>
<path d="M85.3874 239.525H94.6094C95.3789 239.525 96.117 239.831 96.6612 240.375L103.182 246.896C103.451 247.165 103.665 247.485 103.811 247.837C103.957 248.189 104.032 248.567 104.032 248.948V258.17C104.032 258.94 103.726 259.677 103.182 260.222L96.6612 266.742C96.3918 267.012 96.0719 267.225 95.7198 267.371C95.3677 267.517 94.9904 267.592 94.6094 267.592H85.3874C84.6178 267.592 83.8798 267.286 83.3355 266.742L76.8148 260.222C76.5453 259.952 76.3316 259.632 76.1859 259.28C76.0401 258.928 75.9651 258.551 75.9651 258.17V248.948C75.9651 248.178 76.2709 247.44 76.8148 246.896L83.3355 240.375C83.8799 239.831 84.6179 239.526 85.3874 239.525Z" stroke="#FF9700" stroke-width="9" stroke-miterlimit="10" stroke-linecap="round" stroke-linejoin="round"/>
<path d="M146.868 253.559H221.684" stroke="#FF9700" stroke-width="9" stroke-miterlimit="10" stroke-linecap="round" stroke-linejoin="round" stroke-dasharray="10 25"/>
<path d="M34.4092 253.559H13.7784C8.65236 253.559 4.49707 249.403 4.49707 244.277V91.85C4.49707 86.7239 8.65236 82.5686 13.7784 82.5686H64.6997" stroke="#FF9700" stroke-width="9" stroke-miterlimit="10" stroke-linecap="round" stroke-linejoin="round"/>
<path d="M49.7094 97.5594L64.6996 82.5692L49.7094 67.579M266.731 154.999V202.993M266.731 202.993L251.741 188.003M266.731 202.993L281.722 188.003M235.579 82.5692H257.45C262.576 82.5692 266.731 86.7245 266.731 91.8506V128.017M232.527 264.052C237.011 278.687 250.627 289.33 266.731 289.33C286.487 289.33 302.502 273.315 302.502 253.559C302.502 233.803 286.487 217.787 266.731 217.787C250.627 217.787 237.011 228.43 232.527 243.065" stroke="#FF9700" stroke-width="9" stroke-miterlimit="10" stroke-linecap="round" stroke-linejoin="round"/>
<path d="M249.268 251.809L263.061 265.602L284.44 244.223M25.7832 168.49V190.136C25.7832 191.318 26.2529 192.452 27.0889 193.288C27.925 194.124 29.0589 194.594 30.2413 194.594H114.947C116.129 194.594 117.263 194.124 118.099 193.288C118.935 192.452 119.405 191.318 119.405 190.136V131.961H25.7832V147.504" stroke="#FF9700" stroke-width="9" stroke-miterlimit="10" stroke-linecap="round" stroke-linejoin="round"/>
<path d="M39.5826 178.01H106.268M48.2901 155.457V178.01M64.7134 160.06V178.01M81.1367 146.252V178.01M97.56 164.662V178.01M119.406 131.961H25.7832V116.585C25.7832 115.403 26.2529 114.269 27.0889 113.433C27.925 112.597 29.0589 112.127 30.2413 112.127H114.947C116.129 112.127 117.263 112.597 118.099 113.433C118.935 114.269 119.405 115.403 119.405 116.585V131.961H119.406Z" stroke="#FF9700" stroke-width="9" stroke-miterlimit="10" stroke-linecap="round" stroke-linejoin="round"/>
<path d="M266.731 154.999C274.182 154.999 280.223 148.959 280.223 141.508C280.223 134.057 274.182 128.017 266.731 128.017C259.28 128.017 253.24 134.057 253.24 141.508C253.24 148.959 259.28 154.999 266.731 154.999Z" stroke="#FF9700" stroke-width="9" stroke-miterlimit="10" stroke-linecap="round" stroke-linejoin="round"/>
</g>
<defs>
<clipPath id="clip0_221_4842">
<rect width="307" height="307" fill="white"/>
</clipPath>
</defs>
</svg>
