<svg width="324" height="324" viewBox="0 0 324 324" fill="none" xmlns="http://www.w3.org/2000/svg">
<path fill-rule="evenodd" clip-rule="evenodd" d="M284.32 181.588C276.32 181.588 269.764 175.07 269.764 167.051C269.764 159.032 276.32 152.513 284.32 152.513C292.321 152.513 298.877 159.032 298.877 167.051C298.876 175.07 292.321 181.588 284.32 181.588ZM244.726 217.675C259.653 208.726 270.69 198.729 276.469 189.059C261.387 183.668 256.073 164.992 266.023 152.531C262.579 150.457 258.616 148.601 254.097 146.99C254.06 170.946 252.282 195.574 244.726 217.686V217.675ZM162.019 281.237C144.499 276.022 129.906 268.707 118.165 259.184C152.909 259.497 193.07 251.269 225.577 237.291C212.132 258.092 191.131 272.574 162.019 281.237ZM57.9766 237.587C67.9188 225.124 62.6156 206.446 47.5315 201.056C52.1984 193.241 60.347 185.173 71.199 177.651C73.6413 203.646 80.0474 228.421 95.8295 249.006C80.2736 247.058 67.1996 243.113 57.9766 237.587ZM25.1606 223.064C25.1606 231.079 31.6794 237.602 39.6796 237.602C47.7168 237.602 54.2357 231.079 54.2357 223.064C54.2357 215.049 47.7168 208.526 39.6796 208.526C31.6794 208.526 25.1606 215.049 25.1606 223.064ZM79.2368 119.978C108.066 115.754 137.833 106.753 162.018 94.0319C186.075 106.713 216.012 115.779 244.8 119.978C245.726 151.427 246.392 186.503 235.984 215.894C234.984 218.779 233.836 221.568 232.613 224.275C216.501 232.324 197.723 238.906 177.573 243.524C153.647 248.999 129.868 251.246 108.385 250.099C99.4589 240.487 92.6809 229.117 88.014 215.894C77.6071 186.503 78.2739 151.428 79.2368 119.978ZM61.3099 68.1093C57.8651 68.1093 55.0502 65.3093 55.0502 61.8574C55.0502 58.4166 57.8651 55.6127 61.3099 55.6127C64.7547 55.6127 67.5696 58.4166 67.5696 61.8574C67.5696 65.3087 64.7547 68.1093 61.3099 68.1093ZM103.942 55.0787C100.497 55.0787 97.7191 52.2748 97.7191 48.83C97.7191 45.3814 100.497 42.5814 103.942 42.5814C107.387 42.5814 110.201 45.3814 110.201 48.83C110.201 52.2748 107.387 55.0787 103.942 55.0787ZM220.058 42.582C223.503 42.582 226.318 45.382 226.318 48.8307C226.318 52.2755 223.503 55.0794 220.058 55.0794C216.613 55.0794 213.799 52.2755 213.799 48.8307C213.799 45.382 216.613 42.582 220.058 42.582ZM262.69 55.612C266.134 55.612 268.949 58.4159 268.949 61.8568C268.949 65.3087 266.134 68.1087 262.69 68.1087C259.245 68.1087 256.43 65.3087 256.43 61.8568C256.43 58.4159 259.245 55.612 262.69 55.612ZM307.692 167.051C307.692 149.256 288.547 138.08 273.098 146.561C267.838 143.027 261.467 140.046 254.023 137.642C253.949 130.289 253.726 123.041 253.504 115.989C253.467 114.94 253.06 113.939 252.355 113.163C251.649 112.386 250.692 111.885 249.652 111.748C242.096 110.748 234.429 109.388 226.836 107.718V88.0762L252.504 72.9719C262.226 81.8152 277.764 74.912 277.764 61.8568C277.764 53.5455 271.023 46.7824 262.69 46.7824C253.052 46.7824 245.807 55.7416 248.022 65.3612L220.169 81.7471C219.512 82.1424 218.968 82.7013 218.592 83.3694C218.215 84.0375 218.019 84.7918 218.021 85.5587V105.623C206.131 102.608 194.723 98.8887 184.204 94.5924V75.0507L209.872 59.9387C219.386 68.7262 235.133 61.987 235.133 48.8307C235.133 40.5156 228.355 33.7524 220.058 33.7524C210.357 33.7524 203.177 42.7544 205.39 52.3351L177.537 68.7172C176.87 69.1032 176.316 69.6586 175.933 70.3272C175.549 70.9958 175.349 71.7539 175.352 72.5248V90.7589C171.463 88.9665 167.685 87.0919 164.092 85.1511C163.452 84.7976 162.732 84.6122 162 84.6122C161.268 84.6122 160.548 84.7976 159.907 85.1511C156.314 87.0919 152.536 88.9659 148.647 90.7589V72.5242C148.651 71.7533 148.45 70.9953 148.067 70.3267C147.683 69.6581 147.129 69.1026 146.462 68.7165L118.609 52.3344C118.905 51.2121 119.017 50.034 119.017 48.8307C119.017 40.5156 112.276 33.7524 103.942 33.7524C95.6455 33.7524 88.8667 40.5156 88.8667 48.8307C88.8667 61.9864 104.612 68.7262 114.127 59.9387L139.832 75.0507V94.5924C129.276 98.8887 117.868 102.608 106.015 105.63V85.5587C106.015 83.9918 105.164 82.5435 103.83 81.7471L75.9774 65.3612C78.1922 55.7416 70.9469 46.7824 61.3099 46.7824C53.0135 46.7824 46.2355 53.5455 46.2355 61.8568C46.2355 74.8602 61.7505 81.8366 71.4958 72.9719L97.1637 88.0762V107.718C89.5711 109.388 81.904 110.748 74.3476 111.748C73.3078 111.885 72.3502 112.386 71.645 113.163C70.9399 113.939 70.5327 114.941 70.4959 115.989C70.0145 132.482 69.4585 150.068 70.459 167.539C54.7917 177.599 43.7167 188.651 38.1983 199.748C26.0127 200.518 16.3082 210.678 16.3082 223.064C16.3082 240.858 35.4514 252.034 50.9024 243.554C63.4211 251.966 82.2001 257.081 104.312 258.658C118.425 272.844 137.166 283.237 160.76 290.079C161.572 290.305 162.43 290.305 163.242 290.079C200.281 279.348 225.282 259.885 239.356 230.764C239.857 230.248 273.724 214.606 285.803 190.366C297.988 189.596 307.692 179.436 307.692 167.051ZM140.314 190.456L150.648 204.712C152.179 206.801 155.172 207.14 157.13 205.452L183.02 183.055C184.872 181.462 185.057 178.669 183.464 176.828C181.872 174.987 179.094 174.784 177.242 176.377L154.982 195.633L147.426 185.27C146.018 183.292 143.24 182.855 141.278 184.292C140.809 184.633 140.412 185.063 140.11 185.557C139.808 186.052 139.606 186.601 139.517 187.174C139.427 187.746 139.452 188.331 139.588 188.894C139.725 189.457 139.972 189.988 140.314 190.456ZM124.943 166.899V214.931H199.057V166.899H124.943ZM139.166 149.45V158.069H184.834V149.45C184.834 136.867 174.611 126.622 162.018 126.622C149.425 126.623 139.166 136.868 139.166 149.45ZM98.0152 205.452C95.6079 205.452 93.6075 207.43 93.6075 209.867C93.6075 212.308 95.6079 214.282 98.0152 214.282H116.127V215.008C116.127 219.834 120.054 223.756 124.868 223.756H199.131C203.946 223.756 207.872 219.834 207.872 215.008V214.282H225.984C226.563 214.283 227.137 214.169 227.673 213.947C228.208 213.725 228.695 213.4 229.104 212.99C229.514 212.58 229.838 212.093 230.059 211.557C230.28 211.021 230.393 210.447 230.391 209.867C230.393 209.288 230.279 208.714 230.058 208.178C229.838 207.642 229.513 207.155 229.104 206.745C228.694 206.335 228.208 206.01 227.672 205.788C227.137 205.566 226.563 205.452 225.984 205.452H207.872V195.329H225.984C226.563 195.33 227.137 195.216 227.673 194.994C228.208 194.772 228.694 194.447 229.104 194.037C229.513 193.627 229.838 193.14 230.059 192.604C230.28 192.068 230.393 191.494 230.391 190.914C230.393 190.335 230.279 189.761 230.058 189.225C229.838 188.689 229.513 188.202 229.104 187.792C228.694 187.382 228.208 187.057 227.672 186.835C227.137 186.613 226.563 186.499 225.984 186.5H207.872V176.377H225.984C226.563 176.378 227.138 176.264 227.673 176.041C228.209 175.819 228.696 175.494 229.105 175.083C229.515 174.673 229.839 174.185 230.06 173.649C230.28 173.113 230.393 172.538 230.391 171.958C230.392 171.379 230.279 170.805 230.058 170.27C229.836 169.735 229.512 169.248 229.102 168.838C228.693 168.429 228.207 168.104 227.672 167.882C227.136 167.66 226.563 167.547 225.984 167.547H207.872V166.828C207.872 162.002 203.946 158.069 199.131 158.069H193.649V149.45C193.649 131.997 179.463 117.793 162.018 117.793C144.536 117.793 130.35 131.997 130.35 149.45V158.069H124.868C120.053 158.069 116.127 162.002 116.127 166.828V167.547H98.0152C95.6079 167.547 93.6075 169.525 93.6075 171.958C93.6075 174.403 95.6079 176.377 98.0152 176.377H116.127V186.5H98.0152C95.6079 186.5 93.6075 188.477 93.6075 190.914C93.6075 193.355 95.6079 195.329 98.0152 195.329H116.127V205.452H98.0152Z" fill="black"/>
</svg>
