<svg width="307" height="307" viewBox="0 0 307 307" fill="none" xmlns="http://www.w3.org/2000/svg">
<path d="M124.61 153.462L124.61 153.463C122.464 155.609 118.984 155.609 116.838 153.462L116.838 153.462C114.691 151.316 114.692 147.836 116.838 145.689C137.053 125.474 169.947 125.474 190.163 145.69C192.309 147.837 192.309 151.317 190.163 153.463C188.048 155.578 184.504 155.577 182.39 153.463C166.46 137.533 140.54 137.533 124.61 153.462Z" fill="#FF9700" stroke="white"/>
<path d="M134.164 169.81L134.164 169.81C132.017 167.663 132.017 164.183 134.164 162.037C145.288 150.913 163.389 150.913 174.513 162.037L174.513 162.037C176.66 164.183 176.659 167.663 174.513 169.81C172.398 171.925 168.855 171.924 166.74 169.81C159.901 162.97 148.774 162.971 141.936 169.81L141.936 169.81C139.791 171.956 136.31 171.956 134.164 169.81ZM151.4 177.281L151.4 177.281C154.167 176.14 157.42 177.485 158.572 180.248C159.707 183.019 158.372 186.274 155.604 187.426L155.604 187.426C152.84 188.576 149.574 187.214 148.427 184.452L148.427 184.452C147.281 181.691 148.637 178.42 151.4 177.281Z" fill="#FF9700" stroke="white"/>
<mask id="path-3-inside-1_221_4876" fill="white">
<path d="M29.8168 195.723C17.7472 202.692 13.5967 218.18 20.5648 230.25C25.2411 238.35 33.7544 242.883 42.4967 242.883C46.9196 242.884 51.2645 241.718 55.0921 239.501C57.1692 238.303 59.0661 236.816 60.726 235.085L129.24 274.647C128.567 276.946 128.225 279.329 128.225 281.725C128.225 295.661 139.563 307 153.5 307C167.437 307 178.775 295.661 178.775 281.725C178.775 279.329 178.433 276.946 177.76 274.647L246.274 235.085C247.934 236.816 249.831 238.303 251.908 239.501C255.735 241.718 260.08 242.884 264.503 242.883C273.244 242.883 281.759 238.348 286.435 230.25C293.403 218.18 289.253 202.692 277.183 195.723C275.106 194.523 272.869 193.623 270.538 193.051V113.942C272.868 113.372 275.105 112.475 277.183 111.277C289.253 104.308 293.403 88.8195 286.435 76.75C279.467 64.6805 263.977 60.53 251.908 67.4986C249.83 68.6978 247.932 70.1854 246.271 71.9171L177.758 32.3591C178.432 30.0583 178.775 27.673 178.775 25.2753C178.775 11.3386 167.437 0 153.5 0C139.563 0 128.225 11.3386 128.225 25.2753C128.221 29.6253 129.348 33.9017 131.494 37.6854C134.655 43.7373 140.965 48.229 147.504 49.8263V87.6617C127.696 89.4473 110.373 99.9849 99.4488 115.372L66.7209 96.4766C68.0796 91.856 68.0467 86.9302 66.7119 82.3102L94.0283 66.5381C96.8963 64.8819 97.879 61.2153 96.2229 58.3474C94.5668 55.4789 90.899 54.4967 88.0322 56.1528L60.7284 71.9171C59.0679 70.1851 57.17 68.6974 55.0915 67.4986C43.022 60.53 27.5335 64.6805 20.5648 76.75C13.5961 88.8195 17.7466 104.308 29.8162 111.277C31.8939 112.475 34.1312 113.372 36.461 113.942V193.051C34.1311 193.623 31.8941 194.523 29.8168 195.723ZM139.082 260.983C137.696 261.947 136.408 263.045 135.236 264.262L66.7131 224.694C68.0509 220.091 68.076 215.13 66.7227 210.526L99.3187 191.707C110.235 207.196 127.616 217.813 147.504 219.606V257.174C144.487 257.911 141.633 259.215 139.082 260.983ZM153.5 295.008C146.176 295.008 140.217 289.049 140.217 281.725C140.217 279.208 140.92 276.853 142.141 274.845C147.343 266.521 159.656 266.52 164.858 274.845C166.12 276.918 166.786 279.298 166.783 281.725C166.783 289.049 160.824 295.008 153.5 295.008ZM171.764 264.262C168.448 260.807 164.148 258.311 159.496 257.174V219.606C179.385 217.813 196.765 207.196 207.682 191.708L240.278 210.527C238.923 215.136 238.952 220.086 240.288 224.695L171.764 264.262ZM271.187 206.109C277.53 209.771 279.711 217.911 276.049 224.254C272.388 230.597 264.247 232.779 257.904 229.116C253.837 226.718 251.269 222.32 251.269 217.6C251.275 210.617 256.9 204.713 263.879 204.349C266.434 204.214 268.973 204.825 271.187 206.109ZM251.375 87.7211C251.898 83.6389 254.333 79.9393 257.904 77.8839C264.247 74.2215 272.387 76.4028 276.049 82.7455C279.711 89.0888 277.53 97.2285 271.187 100.891C269.013 102.149 266.525 102.761 264.016 102.653C256.999 102.365 251.238 96.4184 251.269 89.3784C251.27 88.8249 251.306 88.2715 251.375 87.7211ZM246.275 106.862C249.595 110.346 253.879 112.787 258.547 113.935V193.063C253.887 194.212 249.587 196.662 246.273 200.141L213.676 181.321C217.569 172.891 219.747 163.513 219.747 153.634C219.747 143.674 217.533 134.223 213.578 125.74L246.275 106.862ZM167.937 46.0038C169.314 45.0437 170.594 43.9514 171.759 42.7426L240.288 82.3102C238.953 86.9302 238.92 91.856 240.279 96.4766L207.551 115.372C196.627 99.9849 179.304 89.4473 159.496 87.6617V49.8263C162.521 49.0831 165.383 47.7872 167.937 46.0038ZM144.828 35.3242C141.923 32.8226 140.217 29.1086 140.217 25.2753C140.217 17.9511 146.176 11.9922 153.5 11.9922C160.824 11.9922 166.783 17.9511 166.783 25.2753C166.783 27.7619 166.095 30.0902 164.901 32.0821C160.71 39.0729 151.006 40.6427 144.828 35.3242ZM106.311 126.886C115.572 110.537 133.204 99.9195 151.983 99.4014C151.983 99.4014 154.531 99.528 155.016 99.4014C183.994 100.201 207.754 124.672 207.754 153.634C207.754 183.549 183.415 207.888 153.499 207.888C123.583 207.888 99.2449 183.549 99.2449 153.634C99.2455 143.915 101.817 134.785 106.311 126.886ZM93.4215 125.739C89.4671 134.223 87.2533 143.674 87.2533 153.634C87.2533 163.512 89.4305 172.891 93.3244 181.321L60.7266 200.141C57.4174 196.668 53.1092 194.204 48.4532 193.063V113.935C53.1206 112.785 57.4042 110.346 60.7248 106.861L93.4215 125.739ZM35.8129 100.891C29.4696 97.2291 27.2882 89.0894 30.9506 82.7461C33.4084 78.4895 37.8827 76.1072 42.4769 76.1072C49.7238 76.1072 55.7313 82.1801 55.7313 89.4048C55.7253 96.437 50.0062 102.367 42.98 102.654C40.4719 102.76 37.9855 102.149 35.8129 100.891ZM42.4128 204.324C47.7853 204.354 52.7404 207.646 54.7635 212.627C57.2159 218.704 54.7839 225.832 49.096 229.116C42.7527 232.778 34.613 230.598 30.9506 224.255C27.2888 217.911 29.4696 209.772 35.8129 206.109C37.8179 204.945 40.0942 204.329 42.4128 204.324Z"/>
</mask>
<path d="M29.8168 195.723C17.7472 202.692 13.5967 218.18 20.5648 230.25C25.2411 238.35 33.7544 242.883 42.4967 242.883C46.9196 242.884 51.2645 241.718 55.0921 239.501C57.1692 238.303 59.0661 236.816 60.726 235.085L129.24 274.647C128.567 276.946 128.225 279.329 128.225 281.725C128.225 295.661 139.563 307 153.5 307C167.437 307 178.775 295.661 178.775 281.725C178.775 279.329 178.433 276.946 177.76 274.647L246.274 235.085C247.934 236.816 249.831 238.303 251.908 239.501C255.735 241.718 260.08 242.884 264.503 242.883C273.244 242.883 281.759 238.348 286.435 230.25C293.403 218.18 289.253 202.692 277.183 195.723C275.106 194.523 272.869 193.623 270.538 193.051V113.942C272.868 113.372 275.105 112.475 277.183 111.277C289.253 104.308 293.403 88.8195 286.435 76.75C279.467 64.6805 263.977 60.53 251.908 67.4986C249.83 68.6978 247.932 70.1854 246.271 71.9171L177.758 32.3591C178.432 30.0583 178.775 27.673 178.775 25.2753C178.775 11.3386 167.437 0 153.5 0C139.563 0 128.225 11.3386 128.225 25.2753C128.221 29.6253 129.348 33.9017 131.494 37.6854C134.655 43.7373 140.965 48.229 147.504 49.8263V87.6617C127.696 89.4473 110.373 99.9849 99.4488 115.372L66.7209 96.4766C68.0796 91.856 68.0467 86.9302 66.7119 82.3102L94.0283 66.5381C96.8963 64.8819 97.879 61.2153 96.2229 58.3474C94.5668 55.4789 90.899 54.4967 88.0322 56.1528L60.7284 71.9171C59.0679 70.1851 57.17 68.6974 55.0915 67.4986C43.022 60.53 27.5335 64.6805 20.5648 76.75C13.5961 88.8195 17.7466 104.308 29.8162 111.277C31.8939 112.475 34.1312 113.372 36.461 113.942V193.051C34.1311 193.623 31.8941 194.523 29.8168 195.723ZM139.082 260.983C137.696 261.947 136.408 263.045 135.236 264.262L66.7131 224.694C68.0509 220.091 68.076 215.13 66.7227 210.526L99.3187 191.707C110.235 207.196 127.616 217.813 147.504 219.606V257.174C144.487 257.911 141.633 259.215 139.082 260.983ZM153.5 295.008C146.176 295.008 140.217 289.049 140.217 281.725C140.217 279.208 140.92 276.853 142.141 274.845C147.343 266.521 159.656 266.52 164.858 274.845C166.12 276.918 166.786 279.298 166.783 281.725C166.783 289.049 160.824 295.008 153.5 295.008ZM171.764 264.262C168.448 260.807 164.148 258.311 159.496 257.174V219.606C179.385 217.813 196.765 207.196 207.682 191.708L240.278 210.527C238.923 215.136 238.952 220.086 240.288 224.695L171.764 264.262ZM271.187 206.109C277.53 209.771 279.711 217.911 276.049 224.254C272.388 230.597 264.247 232.779 257.904 229.116C253.837 226.718 251.269 222.32 251.269 217.6C251.275 210.617 256.9 204.713 263.879 204.349C266.434 204.214 268.973 204.825 271.187 206.109ZM251.375 87.7211C251.898 83.6389 254.333 79.9393 257.904 77.8839C264.247 74.2215 272.387 76.4028 276.049 82.7455C279.711 89.0888 277.53 97.2285 271.187 100.891C269.013 102.149 266.525 102.761 264.016 102.653C256.999 102.365 251.238 96.4184 251.269 89.3784C251.27 88.8249 251.306 88.2715 251.375 87.7211ZM246.275 106.862C249.595 110.346 253.879 112.787 258.547 113.935V193.063C253.887 194.212 249.587 196.662 246.273 200.141L213.676 181.321C217.569 172.891 219.747 163.513 219.747 153.634C219.747 143.674 217.533 134.223 213.578 125.74L246.275 106.862ZM167.937 46.0038C169.314 45.0437 170.594 43.9514 171.759 42.7426L240.288 82.3102C238.953 86.9302 238.92 91.856 240.279 96.4766L207.551 115.372C196.627 99.9849 179.304 89.4473 159.496 87.6617V49.8263C162.521 49.0831 165.383 47.7872 167.937 46.0038ZM144.828 35.3242C141.923 32.8226 140.217 29.1086 140.217 25.2753C140.217 17.9511 146.176 11.9922 153.5 11.9922C160.824 11.9922 166.783 17.9511 166.783 25.2753C166.783 27.7619 166.095 30.0902 164.901 32.0821C160.71 39.0729 151.006 40.6427 144.828 35.3242ZM106.311 126.886C115.572 110.537 133.204 99.9195 151.983 99.4014C151.983 99.4014 154.531 99.528 155.016 99.4014C183.994 100.201 207.754 124.672 207.754 153.634C207.754 183.549 183.415 207.888 153.499 207.888C123.583 207.888 99.2449 183.549 99.2449 153.634C99.2455 143.915 101.817 134.785 106.311 126.886ZM93.4215 125.739C89.4671 134.223 87.2533 143.674 87.2533 153.634C87.2533 163.512 89.4305 172.891 93.3244 181.321L60.7266 200.141C57.4174 196.668 53.1092 194.204 48.4532 193.063V113.935C53.1206 112.785 57.4042 110.346 60.7248 106.861L93.4215 125.739ZM35.8129 100.891C29.4696 97.2291 27.2882 89.0894 30.9506 82.7461C33.4084 78.4895 37.8827 76.1072 42.4769 76.1072C49.7238 76.1072 55.7313 82.1801 55.7313 89.4048C55.7253 96.437 50.0062 102.367 42.98 102.654C40.4719 102.76 37.9855 102.149 35.8129 100.891ZM42.4128 204.324C47.7853 204.354 52.7404 207.646 54.7635 212.627C57.2159 218.704 54.7839 225.832 49.096 229.116C42.7527 232.778 34.613 230.598 30.9506 224.255C27.2888 217.911 29.4696 209.772 35.8129 206.109C37.8179 204.945 40.0942 204.329 42.4128 204.324Z" fill="#FF9700" stroke="white" stroke-width="2" mask="url(#path-3-inside-1_221_4876)"/>
<path d="M119.017 49.708L119.017 49.7079C120.315 45.0418 115.066 41.0455 110.9 43.5294L110.9 43.5294C108.599 44.901 107.619 47.8702 108.649 50.3428C109.548 52.5003 111.796 53.9043 114.127 53.723L119.017 49.708ZM119.017 49.708C118.401 51.9236 116.422 53.5443 114.127 53.723L119.017 49.708Z" fill="#FF9700" stroke="white"/>
</svg>
