<svg width="316" height="316" viewBox="0 0 316 316" fill="none" xmlns="http://www.w3.org/2000/svg">
<path d="M120.969 214.164V269.711M195.031 214.164V269.711" stroke="#FF9700" stroke-width="11" stroke-miterlimit="10"/>
<path d="M120.969 306.742C131.195 306.742 139.484 298.452 139.484 288.227C139.484 278.001 131.195 269.711 120.969 269.711C110.743 269.711 102.453 278.001 102.453 288.227C102.453 298.452 110.743 306.742 120.969 306.742Z" stroke="#FF9700" stroke-width="11" stroke-miterlimit="10"/>
<path d="M46.9062 306.742C57.1321 306.742 65.4219 298.452 65.4219 288.227C65.4219 278.001 57.1321 269.711 46.9062 269.711C36.6804 269.711 28.3906 278.001 28.3906 288.227C28.3906 298.452 36.6804 306.742 46.9062 306.742Z" stroke="#FF9700" stroke-width="11" stroke-miterlimit="10"/>
<path d="M195.031 306.742C205.257 306.742 213.547 298.452 213.547 288.227C213.547 278.001 205.257 269.711 195.031 269.711C184.805 269.711 176.516 278.001 176.516 288.227C176.516 298.452 184.805 306.742 195.031 306.742Z" stroke="#FF9700" stroke-width="11" stroke-miterlimit="10"/>
<path d="M269.094 306.742C279.32 306.742 287.609 298.452 287.609 288.227C287.609 278.001 279.32 269.711 269.094 269.711C258.868 269.711 250.578 278.001 250.578 288.227C250.578 298.452 258.868 306.742 269.094 306.742Z" stroke="#FF9700" stroke-width="11" stroke-miterlimit="10"/>
<path d="M46.9062 269.711V214.164H269.094V269.711M158 214.164V177.133M232.041 81.5953C231.124 41.4886 198.327 9.25781 158 9.25781C117.673 9.25781 84.8762 41.4886 83.9591 81.5953C62.7025 86.7223 46.9062 105.853 46.9062 128.684C46.9062 155.441 68.5979 177.133 95.3555 177.133H220.645C247.402 177.133 269.094 155.441 269.094 128.684C269.094 105.853 253.297 86.7223 232.041 81.5953Z" stroke="#FF9700" stroke-width="11" stroke-miterlimit="10"/>
</svg>
