<svg width="342" height="342" viewBox="0 0 342 342" fill="none" xmlns="http://www.w3.org/2000/svg">
<g clip-path="url(#clip0_221_4890)">
<mask id="path-1-inside-1_221_4890" fill="white">
<path d="M278.496 226.441V208.274H176.344V216.285C176.344 217.702 175.781 219.061 174.779 220.064C173.776 221.066 172.417 221.629 171 221.629C169.583 221.629 168.224 221.066 167.221 220.064C166.219 219.061 165.656 217.702 165.656 216.285V208.274H58.4827V226.441C58.4827 227.858 57.9197 229.217 56.9175 230.219C55.9154 231.221 54.5562 231.784 53.1389 231.784C51.7217 231.784 50.3625 231.221 49.3603 230.219C48.3582 229.217 47.7952 227.858 47.7952 226.441V202.93C47.7952 201.513 48.3582 200.154 49.3603 199.152C50.3625 198.149 51.7217 197.586 53.1389 197.586H165.656V189.577C165.656 188.16 166.219 186.8 167.221 185.798C168.224 184.796 169.583 184.233 171 184.233C172.417 184.233 173.776 184.796 174.779 185.798C175.781 186.8 176.344 188.16 176.344 189.577V197.586H283.84C285.257 197.586 286.616 198.149 287.619 199.152C288.621 200.154 289.184 201.513 289.184 202.93V226.441C289.184 227.858 288.621 229.217 287.619 230.219C286.616 231.221 285.257 231.784 283.84 231.784C282.423 231.784 281.063 231.221 280.061 230.219C279.059 229.217 278.496 227.858 278.496 226.441ZM34.045 330.055C33.0506 330.055 32.0759 329.777 31.2305 329.253C30.3852 328.73 29.7028 327.98 29.2601 327.09C28.8174 326.199 28.632 325.203 28.7246 324.213C28.8173 323.223 29.1845 322.278 29.7847 321.485L38.7883 309.593V306.566H5.34375C3.9265 306.566 2.5673 306.003 1.56515 305.001C0.563001 303.999 0 302.64 0 301.223V243.314C0 241.897 0.563001 240.538 1.56515 239.536C2.5673 238.534 3.9265 237.971 5.34375 237.971H100.933C102.351 237.971 103.71 238.534 104.712 239.536C105.714 240.538 106.277 241.897 106.277 243.314V301.223C106.277 302.64 105.714 303.999 104.712 305.001C103.71 306.003 102.351 306.566 100.933 306.566H67.4889V309.593L76.4924 321.485C77.0927 322.278 77.4598 323.223 77.5525 324.213C77.6452 325.203 77.4598 326.199 77.0171 327.09C76.5744 327.98 75.892 328.73 75.0466 329.253C74.2013 329.777 73.2266 330.055 72.2321 330.055H34.045ZM10.6875 295.879H95.5897V248.658H10.6875V295.879ZM49.4758 306.566V311.388C49.4758 312.553 49.095 313.685 48.3923 314.614L44.7933 319.367H61.4838L57.8848 314.614C57.182 313.685 56.8016 312.553 56.8014 311.388V306.566H49.4758ZM341.355 318.79C342.413 321.353 342.163 324.104 340.668 326.339C339.135 328.631 336.511 330.055 333.821 330.055H234.976C232.285 330.055 229.662 328.632 228.129 326.339C226.634 324.104 226.383 321.353 227.441 318.79L237.575 294.25C237.669 294.022 237.775 293.802 237.888 293.587V246.124C237.888 241.629 241.545 237.971 246.04 237.971H322.756C327.252 237.971 330.909 241.629 330.909 246.124V293.587C331.021 293.802 331.127 294.022 331.222 294.25V294.25L341.355 318.79ZM248.575 248.658V289.209H320.222V248.658H248.575ZM330.031 319.367L321.99 299.897H246.806L238.765 319.367H330.031ZM189.555 226.343C195.262 226.343 199.905 230.986 199.905 236.692V319.705C199.905 325.412 195.262 330.055 189.555 330.055H147.423C141.717 330.055 137.074 325.412 137.074 319.705V236.692C137.074 230.986 141.717 226.343 147.423 226.343H189.555ZM189.218 237.03H147.761V319.368H189.218V237.03ZM159.141 307.416C159.141 302.261 163.335 298.067 168.49 298.067C173.644 298.067 177.839 302.261 177.839 307.416C177.839 312.571 173.645 316.765 168.49 316.765C163.334 316.765 159.141 312.571 159.141 307.416ZM167.15 307.416C167.15 308.167 167.738 308.755 168.489 308.755C169.24 308.755 169.828 308.167 169.828 307.416C169.828 306.665 169.24 306.077 168.489 306.077C167.739 306.077 167.15 306.665 167.15 307.416ZM240.178 53.2652L228.898 67.8549C229.763 69.6916 230.54 71.5685 231.227 73.4792L249.52 75.8205C250.81 75.9855 251.995 76.6149 252.853 77.5906C253.712 78.5664 254.186 79.8217 254.185 81.1215V109.143C254.185 110.443 253.711 111.698 252.853 112.674C251.994 113.65 250.809 114.279 249.52 114.444L231.227 116.785C230.54 118.696 229.762 120.573 228.897 122.41L240.178 137C240.972 138.028 241.365 139.311 241.283 140.608C241.2 141.906 240.648 143.128 239.729 144.047L219.914 163.862C218.995 164.781 217.772 165.334 216.475 165.416C215.178 165.499 213.895 165.106 212.867 164.312L198.276 153.03C196.439 153.896 194.563 154.673 192.652 155.36L190.311 173.654C190.146 174.943 189.517 176.128 188.541 176.987C187.565 177.845 186.31 178.319 185.011 178.319H156.988C155.688 178.319 154.433 177.845 153.458 176.987C152.482 176.128 151.853 174.943 151.688 173.654L149.346 155.36C147.436 154.674 145.559 153.896 143.722 153.031L129.132 164.312C128.103 165.107 126.821 165.5 125.523 165.417C124.226 165.334 123.004 164.782 122.085 163.862L102.27 144.047C101.351 143.128 100.798 141.906 100.715 140.608C100.633 139.311 101.026 138.028 101.821 137L113.102 122.409C112.236 120.573 111.459 118.696 110.773 116.785L92.4789 114.444C91.1896 114.279 90.0046 113.65 89.1458 112.674C88.287 111.699 87.8132 110.443 87.8132 109.143V81.1215C87.8133 79.8217 88.2871 78.5666 89.1457 77.5909C90.0044 76.6152 91.1891 75.9858 92.4783 75.8205L110.772 73.4792C111.458 71.5685 112.236 69.6916 113.101 67.8549L101.82 53.2652C101.026 52.2367 100.633 50.9538 100.715 49.6566C100.798 48.3594 101.35 47.1367 102.269 46.2174L122.084 26.4028C123.003 25.4834 124.225 24.9305 125.523 24.8477C126.82 24.765 128.103 25.158 129.131 25.9533L143.721 37.2346C145.558 36.3689 147.435 35.5914 149.345 34.9047L151.686 16.6104C151.851 15.3212 152.481 14.1364 153.456 13.2777C154.432 12.419 155.687 11.9453 156.987 11.9453H185.009C186.309 11.9453 187.564 12.419 188.54 13.2777C189.515 14.1364 190.145 15.3212 190.31 16.6104L192.651 34.9047C194.561 35.5913 196.438 36.3688 198.275 37.2346L212.866 25.9533C213.894 25.1582 215.177 24.7652 216.474 24.848C217.771 24.9307 218.994 25.4835 219.913 26.4028L239.727 46.2174C240.647 47.1361 241.201 48.3587 241.284 49.6562C241.367 50.9536 240.974 52.2368 240.178 53.2652ZM226.528 83.6524C225.501 83.521 224.535 83.0945 223.747 82.4247C222.958 81.7549 222.381 80.8705 222.085 79.879C221.043 76.3842 219.643 73.006 217.909 69.7981C217.416 68.8876 217.198 67.8536 217.282 66.8217C217.366 65.7898 217.747 64.8045 218.38 63.9854L228.846 50.449L215.683 37.2853L202.146 47.7517C201.327 48.385 200.342 48.7667 199.31 48.8504C198.278 48.9341 197.244 48.7163 196.334 48.2233C193.126 46.4888 189.748 45.0896 186.254 44.0479C185.262 43.7524 184.377 43.1753 183.707 42.3866C183.037 41.598 182.611 40.6317 182.48 39.6052L180.308 22.6328H161.693L159.521 39.6052C159.39 40.6317 158.963 41.598 158.293 42.3866C157.623 43.1753 156.739 43.7524 155.747 44.0479C152.252 45.0895 148.874 46.4888 145.667 48.2233C144.756 48.7164 143.722 48.9344 142.691 48.8507C141.659 48.7669 140.673 48.3852 139.855 47.7517L126.318 37.2853L113.154 50.449L123.62 63.9854C124.253 64.8045 124.635 65.7898 124.718 66.8217C124.802 67.8536 124.584 68.8876 124.091 69.7981C122.357 73.006 120.957 76.3842 119.915 79.879C119.619 80.8705 119.042 81.7549 118.253 82.4247C117.465 83.0945 116.499 83.521 115.472 83.6524L98.5007 85.824V104.439L115.472 106.61C116.498 106.742 117.464 107.168 118.253 107.838C119.042 108.508 119.619 109.392 119.914 110.384C120.956 113.879 122.356 117.257 124.091 120.465C124.583 121.376 124.801 122.41 124.717 123.442C124.633 124.474 124.252 125.459 123.618 126.278L113.154 139.815L126.317 152.978L139.854 142.512C140.673 141.879 141.658 141.497 142.69 141.413C143.722 141.329 144.756 141.547 145.667 142.04C148.874 143.775 152.252 145.175 155.747 146.217C156.738 146.513 157.623 147.09 158.293 147.878C158.963 148.667 159.389 149.633 159.52 150.659L161.692 167.63H180.307L182.479 150.659C182.61 149.633 183.037 148.667 183.707 147.878C184.376 147.09 185.261 146.512 186.252 146.217C189.747 145.174 193.125 143.775 196.333 142.04C197.244 141.547 198.278 141.33 199.309 141.413C200.341 141.497 201.326 141.879 202.145 142.512L215.682 152.978L228.845 139.815L218.38 126.278C217.746 125.459 217.365 124.474 217.281 123.442C217.197 122.41 217.415 121.376 217.908 120.465C219.643 117.257 221.043 113.879 222.084 110.384C222.38 109.392 222.957 108.508 223.746 107.838C224.534 107.168 225.501 106.742 226.527 106.61L243.498 104.439V85.824L226.528 83.6524ZM210.16 95.1321C210.16 116.724 192.593 134.291 171 134.291C149.407 134.291 131.84 116.724 131.84 95.1321C131.84 73.5393 149.407 55.9724 171 55.9724C192.593 55.9724 210.16 73.5393 210.16 95.1321ZM199.472 95.1321C199.472 79.4322 186.7 66.6599 171 66.6599C155.3 66.6599 142.528 79.4322 142.528 95.1321C142.528 110.831 155.3 123.604 171 123.604C186.7 123.604 199.472 110.831 199.472 95.1321Z"/>
</mask>
<path d="M278.496 226.441V208.274H176.344V216.285C176.344 217.702 175.781 219.061 174.779 220.064C173.776 221.066 172.417 221.629 171 221.629C169.583 221.629 168.224 221.066 167.221 220.064C166.219 219.061 165.656 217.702 165.656 216.285V208.274H58.4827V226.441C58.4827 227.858 57.9197 229.217 56.9175 230.219C55.9154 231.221 54.5562 231.784 53.1389 231.784C51.7217 231.784 50.3625 231.221 49.3603 230.219C48.3582 229.217 47.7952 227.858 47.7952 226.441V202.93C47.7952 201.513 48.3582 200.154 49.3603 199.152C50.3625 198.149 51.7217 197.586 53.1389 197.586H165.656V189.577C165.656 188.16 166.219 186.8 167.221 185.798C168.224 184.796 169.583 184.233 171 184.233C172.417 184.233 173.776 184.796 174.779 185.798C175.781 186.8 176.344 188.16 176.344 189.577V197.586H283.84C285.257 197.586 286.616 198.149 287.619 199.152C288.621 200.154 289.184 201.513 289.184 202.93V226.441C289.184 227.858 288.621 229.217 287.619 230.219C286.616 231.221 285.257 231.784 283.84 231.784C282.423 231.784 281.063 231.221 280.061 230.219C279.059 229.217 278.496 227.858 278.496 226.441ZM34.045 330.055C33.0506 330.055 32.0759 329.777 31.2305 329.253C30.3852 328.73 29.7028 327.98 29.2601 327.09C28.8174 326.199 28.632 325.203 28.7246 324.213C28.8173 323.223 29.1845 322.278 29.7847 321.485L38.7883 309.593V306.566H5.34375C3.9265 306.566 2.5673 306.003 1.56515 305.001C0.563001 303.999 0 302.64 0 301.223V243.314C0 241.897 0.563001 240.538 1.56515 239.536C2.5673 238.534 3.9265 237.971 5.34375 237.971H100.933C102.351 237.971 103.71 238.534 104.712 239.536C105.714 240.538 106.277 241.897 106.277 243.314V301.223C106.277 302.64 105.714 303.999 104.712 305.001C103.71 306.003 102.351 306.566 100.933 306.566H67.4889V309.593L76.4924 321.485C77.0927 322.278 77.4598 323.223 77.5525 324.213C77.6452 325.203 77.4598 326.199 77.0171 327.09C76.5744 327.98 75.892 328.73 75.0466 329.253C74.2013 329.777 73.2266 330.055 72.2321 330.055H34.045ZM10.6875 295.879H95.5897V248.658H10.6875V295.879ZM49.4758 306.566V311.388C49.4758 312.553 49.095 313.685 48.3923 314.614L44.7933 319.367H61.4838L57.8848 314.614C57.182 313.685 56.8016 312.553 56.8014 311.388V306.566H49.4758ZM341.355 318.79C342.413 321.353 342.163 324.104 340.668 326.339C339.135 328.631 336.511 330.055 333.821 330.055H234.976C232.285 330.055 229.662 328.632 228.129 326.339C226.634 324.104 226.383 321.353 227.441 318.79L237.575 294.25C237.669 294.022 237.775 293.802 237.888 293.587V246.124C237.888 241.629 241.545 237.971 246.04 237.971H322.756C327.252 237.971 330.909 241.629 330.909 246.124V293.587C331.021 293.802 331.127 294.022 331.222 294.25V294.25L341.355 318.79ZM248.575 248.658V289.209H320.222V248.658H248.575ZM330.031 319.367L321.99 299.897H246.806L238.765 319.367H330.031ZM189.555 226.343C195.262 226.343 199.905 230.986 199.905 236.692V319.705C199.905 325.412 195.262 330.055 189.555 330.055H147.423C141.717 330.055 137.074 325.412 137.074 319.705V236.692C137.074 230.986 141.717 226.343 147.423 226.343H189.555ZM189.218 237.03H147.761V319.368H189.218V237.03ZM159.141 307.416C159.141 302.261 163.335 298.067 168.49 298.067C173.644 298.067 177.839 302.261 177.839 307.416C177.839 312.571 173.645 316.765 168.49 316.765C163.334 316.765 159.141 312.571 159.141 307.416ZM167.15 307.416C167.15 308.167 167.738 308.755 168.489 308.755C169.24 308.755 169.828 308.167 169.828 307.416C169.828 306.665 169.24 306.077 168.489 306.077C167.739 306.077 167.15 306.665 167.15 307.416ZM240.178 53.2652L228.898 67.8549C229.763 69.6916 230.54 71.5685 231.227 73.4792L249.52 75.8205C250.81 75.9855 251.995 76.6149 252.853 77.5906C253.712 78.5664 254.186 79.8217 254.185 81.1215V109.143C254.185 110.443 253.711 111.698 252.853 112.674C251.994 113.65 250.809 114.279 249.52 114.444L231.227 116.785C230.54 118.696 229.762 120.573 228.897 122.41L240.178 137C240.972 138.028 241.365 139.311 241.283 140.608C241.2 141.906 240.648 143.128 239.729 144.047L219.914 163.862C218.995 164.781 217.772 165.334 216.475 165.416C215.178 165.499 213.895 165.106 212.867 164.312L198.276 153.03C196.439 153.896 194.563 154.673 192.652 155.36L190.311 173.654C190.146 174.943 189.517 176.128 188.541 176.987C187.565 177.845 186.31 178.319 185.011 178.319H156.988C155.688 178.319 154.433 177.845 153.458 176.987C152.482 176.128 151.853 174.943 151.688 173.654L149.346 155.36C147.436 154.674 145.559 153.896 143.722 153.031L129.132 164.312C128.103 165.107 126.821 165.5 125.523 165.417C124.226 165.334 123.004 164.782 122.085 163.862L102.27 144.047C101.351 143.128 100.798 141.906 100.715 140.608C100.633 139.311 101.026 138.028 101.821 137L113.102 122.409C112.236 120.573 111.459 118.696 110.773 116.785L92.4789 114.444C91.1896 114.279 90.0046 113.65 89.1458 112.674C88.287 111.699 87.8132 110.443 87.8132 109.143V81.1215C87.8133 79.8217 88.2871 78.5666 89.1457 77.5909C90.0044 76.6152 91.1891 75.9858 92.4783 75.8205L110.772 73.4792C111.458 71.5685 112.236 69.6916 113.101 67.8549L101.82 53.2652C101.026 52.2367 100.633 50.9538 100.715 49.6566C100.798 48.3594 101.35 47.1367 102.269 46.2174L122.084 26.4028C123.003 25.4834 124.225 24.9305 125.523 24.8477C126.82 24.765 128.103 25.158 129.131 25.9533L143.721 37.2346C145.558 36.3689 147.435 35.5914 149.345 34.9047L151.686 16.6104C151.851 15.3212 152.481 14.1364 153.456 13.2777C154.432 12.419 155.687 11.9453 156.987 11.9453H185.009C186.309 11.9453 187.564 12.419 188.54 13.2777C189.515 14.1364 190.145 15.3212 190.31 16.6104L192.651 34.9047C194.561 35.5913 196.438 36.3688 198.275 37.2346L212.866 25.9533C213.894 25.1582 215.177 24.7652 216.474 24.848C217.771 24.9307 218.994 25.4835 219.913 26.4028L239.727 46.2174C240.647 47.1361 241.201 48.3587 241.284 49.6562C241.367 50.9536 240.974 52.2368 240.178 53.2652ZM226.528 83.6524C225.501 83.521 224.535 83.0945 223.747 82.4247C222.958 81.7549 222.381 80.8705 222.085 79.879C221.043 76.3842 219.643 73.006 217.909 69.7981C217.416 68.8876 217.198 67.8536 217.282 66.8217C217.366 65.7898 217.747 64.8045 218.38 63.9854L228.846 50.449L215.683 37.2853L202.146 47.7517C201.327 48.385 200.342 48.7667 199.31 48.8504C198.278 48.9341 197.244 48.7163 196.334 48.2233C193.126 46.4888 189.748 45.0896 186.254 44.0479C185.262 43.7524 184.377 43.1753 183.707 42.3866C183.037 41.598 182.611 40.6317 182.48 39.6052L180.308 22.6328H161.693L159.521 39.6052C159.39 40.6317 158.963 41.598 158.293 42.3866C157.623 43.1753 156.739 43.7524 155.747 44.0479C152.252 45.0895 148.874 46.4888 145.667 48.2233C144.756 48.7164 143.722 48.9344 142.691 48.8507C141.659 48.7669 140.673 48.3852 139.855 47.7517L126.318 37.2853L113.154 50.449L123.62 63.9854C124.253 64.8045 124.635 65.7898 124.718 66.8217C124.802 67.8536 124.584 68.8876 124.091 69.7981C122.357 73.006 120.957 76.3842 119.915 79.879C119.619 80.8705 119.042 81.7549 118.253 82.4247C117.465 83.0945 116.499 83.521 115.472 83.6524L98.5007 85.824V104.439L115.472 106.61C116.498 106.742 117.464 107.168 118.253 107.838C119.042 108.508 119.619 109.392 119.914 110.384C120.956 113.879 122.356 117.257 124.091 120.465C124.583 121.376 124.801 122.41 124.717 123.442C124.633 124.474 124.252 125.459 123.618 126.278L113.154 139.815L126.317 152.978L139.854 142.512C140.673 141.879 141.658 141.497 142.69 141.413C143.722 141.329 144.756 141.547 145.667 142.04C148.874 143.775 152.252 145.175 155.747 146.217C156.738 146.513 157.623 147.09 158.293 147.878C158.963 148.667 159.389 149.633 159.52 150.659L161.692 167.63H180.307L182.479 150.659C182.61 149.633 183.037 148.667 183.707 147.878C184.376 147.09 185.261 146.512 186.252 146.217C189.747 145.174 193.125 143.775 196.333 142.04C197.244 141.547 198.278 141.33 199.309 141.413C200.341 141.497 201.326 141.879 202.145 142.512L215.682 152.978L228.845 139.815L218.38 126.278C217.746 125.459 217.365 124.474 217.281 123.442C217.197 122.41 217.415 121.376 217.908 120.465C219.643 117.257 221.043 113.879 222.084 110.384C222.38 109.392 222.957 108.508 223.746 107.838C224.534 107.168 225.501 106.742 226.527 106.61L243.498 104.439V85.824L226.528 83.6524ZM210.16 95.1321C210.16 116.724 192.593 134.291 171 134.291C149.407 134.291 131.84 116.724 131.84 95.1321C131.84 73.5393 149.407 55.9724 171 55.9724C192.593 55.9724 210.16 73.5393 210.16 95.1321ZM199.472 95.1321C199.472 79.4322 186.7 66.6599 171 66.6599C155.3 66.6599 142.528 79.4322 142.528 95.1321C142.528 110.831 155.3 123.604 171 123.604C186.7 123.604 199.472 110.831 199.472 95.1321Z" fill="black" stroke="white" stroke-width="2" mask="url(#path-1-inside-1_221_4890)"/>
</g>
<defs>
<clipPath id="clip0_221_4890">
<rect width="342" height="342" fill="white"/>
</clipPath>
</defs>
</svg>
