<svg width="324" height="324" viewBox="0 0 324 324" fill="none" xmlns="http://www.w3.org/2000/svg">
<g clip-path="url(#clip0_221_4893)">
<path fill-rule="evenodd" clip-rule="evenodd" d="M277.687 269.905C265.35 269.905 255.29 260.035 255.29 247.698C255.29 235.36 265.35 225.301 277.687 225.301C289.835 225.301 299.895 235.36 299.895 247.698C299.895 260.035 289.835 269.905 277.687 269.905ZM277.687 324C276.359 324 275.03 323.431 274.081 322.482C253.012 301.413 239.156 271.613 239.156 246.749C239.156 225.68 256.429 208.408 277.497 208.408C298.566 208.408 315.838 225.68 315.838 246.749C315.838 271.613 302.172 301.413 281.104 322.482C280.155 323.431 279.016 324 277.687 324ZM277.687 218.467C262.123 218.467 249.406 231.185 249.406 246.749C249.406 267.817 260.415 292.682 277.687 311.663C294.96 292.682 305.779 267.627 305.779 246.749C305.779 231.185 293.251 218.467 277.687 218.467ZM220.935 260.225H55.6134C29.4201 260.225 7.97192 238.967 7.97192 212.583V197.779C7.97192 171.395 29.4201 150.137 55.6134 150.137H93.1951V104.204C93.1951 101.547 95.4728 99.2689 98.3199 99.2689H225.87C228.527 99.2689 230.805 101.547 230.805 104.204V150.137H268.197C288.886 150.137 305.779 133.244 305.779 112.555V97.5606C305.779 76.8717 288.886 59.9789 268.197 59.9789H103.255C96.6116 59.9789 96.6116 49.9192 103.255 49.9192H268.197C294.58 49.9192 315.838 71.3673 315.838 97.5606V112.555C315.838 138.749 294.58 160.197 268.197 160.197H230.805V212.583C230.805 215.241 228.527 217.518 225.87 217.518H98.3199C95.4728 217.518 93.1951 215.241 93.1951 212.583V160.197H55.6134C34.9245 160.197 18.0317 177.09 18.0317 197.779V212.583C18.0317 233.272 34.9245 250.165 55.6134 250.165H220.935C227.578 250.165 227.578 260.225 220.935 260.225ZM182.594 197.779H141.596C134.953 197.779 134.953 187.719 141.596 187.719H182.594C189.047 187.719 189.237 197.779 182.594 197.779ZM182.594 176.52H141.596C134.953 176.52 134.953 166.46 141.596 166.46H182.594C189.047 166.46 189.237 176.52 182.594 176.52ZM182.594 155.262H141.596C134.953 155.262 134.953 145.202 141.596 145.202H182.594C189.047 145.202 189.237 155.262 182.594 155.262ZM185.441 135.332H138.749C135.902 135.332 133.624 133.054 133.624 130.397V109.329H103.255V207.459H220.745V109.329H190.376V130.397C190.376 133.244 188.288 135.332 185.441 135.332ZM143.684 125.272H180.316V109.329H143.684V125.272ZM47.0721 61.4974C34.7347 61.4974 24.8647 51.4376 24.8647 39.1002C24.8647 26.9525 34.7347 16.8928 47.0721 16.8928C59.4095 16.8928 69.2795 26.9525 69.2795 39.1002C69.2795 51.4376 59.4095 61.4974 47.0721 61.4974ZM47.0721 26.9525C30.9385 26.9525 30.9385 51.4376 47.0721 51.4376C63.2057 51.4376 63.2057 26.9525 47.0721 26.9525ZM47.0721 115.402C45.7435 115.402 44.4148 115.023 43.4658 114.074C22.3972 93.0053 8.73115 63.2056 8.73115 38.341C8.73115 17.2724 26.0036 0 47.0721 0C68.1406 0 85.413 17.2724 85.413 38.341C85.413 63.2056 71.747 93.0053 50.6784 114.074C49.7294 115.023 48.4007 115.402 47.0721 115.402ZM47.0721 10.0598C31.508 10.0598 18.7909 22.7768 18.7909 38.341C18.7909 59.2197 29.7997 84.2742 47.0721 103.065C64.3445 84.2742 75.3533 59.2197 75.3533 38.341C75.3533 22.7768 62.6362 10.0598 47.0721 10.0598ZM277.687 235.36C261.554 235.36 261.554 259.845 277.687 259.845C293.631 259.845 293.631 235.36 277.687 235.36Z" fill="black"/>
</g>
<defs>
<clipPath id="clip0_221_4893">
<rect width="324" height="324" fill="white"/>
</clipPath>
</defs>
</svg>
