<svg width="331" height="331" viewBox="0 0 331 331" fill="none" xmlns="http://www.w3.org/2000/svg">
<g clip-path="url(#clip0_221_4896)">
<path d="M192.584 289.625V290.125H193.084H317.209H317.709V289.625V193.084V192.584H317.209H193.084H192.584V193.084V289.625ZM324.103 302.916H186.187C182.656 302.916 179.791 300.054 179.791 296.522V186.187C179.791 182.656 182.655 179.791 186.187 179.791H324.103C327.635 179.791 330.5 182.655 330.5 186.187V296.522C330.5 300.053 327.636 302.916 324.103 302.916ZM228.062 317.709H282.228V330.5H228.062V317.709Z" fill="black" stroke="white"/>
<path d="M248.25 296.522H262.041V324.103H248.25V296.522ZM186.188 262.041H303.416V275.834H186.188V262.041ZM179.291 151.709H41.375C18.5231 151.709 0 133.184 0 110.334C0 87.4823 18.5231 68.9592 41.375 68.9592C41.375 30.8748 72.2498 0 110.334 0C148.419 0 179.291 30.8748 179.291 68.9592C202.143 68.9592 220.666 87.4823 220.666 110.334C220.666 133.184 202.143 151.709 179.291 151.709ZM41.375 82.75C26.1419 82.75 13.7908 95.0991 13.7908 110.334C13.7908 125.567 26.1419 137.916 41.375 137.916H179.291C194.526 137.916 206.875 125.567 206.875 110.334C206.875 95.0991 194.526 82.75 179.291 82.75H171.99C170.031 82.75 168.162 81.916 166.854 80.4569C165.546 78.9978 164.921 77.0499 165.134 75.1034C165.368 73.0636 165.49 71.0124 165.5 68.9592C165.5 38.491 140.802 13.7908 110.334 13.7908C79.866 13.7908 55.1658 38.491 55.1658 68.9592C55.1761 71.0124 55.2996 73.0631 55.5317 75.1034C55.6375 76.0665 55.539 77.0411 55.2427 77.9635C54.9464 78.886 54.4589 79.7356 53.8121 80.4569C53.1656 81.1785 52.3742 81.7556 51.4896 82.1507C50.6051 82.5458 49.6471 82.75 48.6783 82.75H41.375Z" fill="black"/>
<path d="M289.625 131.022H275.834V124.125C275.834 120.317 272.746 117.228 268.938 117.228H213.772V103.438H268.938C280.362 103.438 289.625 112.7 289.625 124.125V131.022Z" fill="black"/>
<path d="M282.728 165C271.58 165 262.541 155.961 262.541 144.812C262.541 133.664 271.58 124.625 282.728 124.625C293.879 124.625 302.916 133.664 302.916 144.812C302.916 155.961 293.879 165 282.728 165ZM282.728 137.416C278.644 137.416 275.334 140.728 275.334 144.812C275.334 148.897 278.643 152.209 282.728 152.209C286.813 152.209 290.125 148.897 290.125 144.812C290.125 140.728 286.813 137.416 282.728 137.416ZM144.812 254.647C133.664 254.647 124.625 245.608 124.625 234.459C124.625 223.308 133.664 214.272 144.812 214.272C155.961 214.272 165 223.308 165 234.459C165 245.608 155.961 254.647 144.812 254.647ZM144.812 227.062C140.729 227.062 137.416 230.375 137.416 234.459C137.416 238.544 140.728 241.853 144.812 241.853C148.897 241.853 152.209 238.544 152.209 234.459C152.209 230.375 148.897 227.062 144.812 227.062Z" fill="black" stroke="white"/>
<path d="M126.07 244.689H107.505C97.2496 244.689 88.9392 235.773 88.9392 224.771V151.741H101.315V224.771C101.315 228.438 104.087 231.411 107.505 231.411H126.07V244.689ZM101.315 331C91.0627 331 82.75 322.082 82.75 311.082C82.75 300.083 91.0627 291.165 101.315 291.165C111.568 291.165 119.881 300.083 119.881 311.082C119.881 322.082 111.568 331 101.315 331ZM101.315 304.442C97.8982 304.442 95.1262 307.416 95.1262 311.082C95.1262 314.749 97.8976 317.722 101.315 317.722C104.733 317.722 107.505 314.749 107.505 311.082C107.505 307.416 104.733 304.442 101.315 304.442Z" fill="black"/>
<path d="M89.6467 317.209H68.9592C57.532 317.209 48.2717 308.263 48.2717 297.23V150.714H62.0625V297.23C62.0625 300.907 65.1508 303.888 68.9592 303.888H89.6467V317.209ZM110.334 77.4575H172.397V90.7762H110.334V77.4575Z" fill="black"/>
</g>
<defs>
<clipPath id="clip0_221_4896">
<rect width="331" height="331" fill="white"/>
</clipPath>
</defs>
</svg>
