<svg width="124" height="124" viewBox="0 0 124 124" fill="none" xmlns="http://www.w3.org/2000/svg">
<circle cx="62" cy="62" r="62" fill="white"/>
<g clip-path="url(#clip0_1_1055)">
<path d="M86.056 65.1228V75.2227H75.1704V74.438C75.1704 69.2716 72.0626 64.8187 67.6197 62.8485C70.0101 61.3278 71.6832 58.7757 72.0072 55.8224C73.2529 55.2914 74.5774 55.0219 75.9558 55.0219C81.5246 55.0219 86.056 59.5533 86.056 65.1228ZM75.9559 35.8915C70.4772 35.8915 66.0725 40.5196 66.4081 46.0425C63.9266 44.9279 61.0748 44.9275 58.5924 46.0425C58.9281 40.531 54.5341 35.8915 49.0445 35.8915C43.7707 35.8915 39.4794 40.1823 39.4794 45.4567C39.4794 48.8502 41.2555 51.8349 43.9254 53.5334C39.4823 55.5035 36.3745 59.9559 36.3745 65.1228V76.5079C36.3745 77.2174 36.9493 77.7932 37.6597 77.7932H49.8297V85.823C49.8297 86.5328 50.4056 87.1083 51.1148 87.1083H73.8853C74.5955 87.1083 75.1704 86.5326 75.1704 85.823V77.7932H87.3414C88.0511 77.7932 88.6255 77.2173 88.6255 76.5079V65.1228C88.6256 59.9559 85.5178 55.5035 81.0757 53.5333C83.7448 51.8349 85.521 48.8501 85.521 45.4567C85.521 40.1823 81.2307 35.8915 75.9559 35.8915ZM75.9557 38.4613C79.8131 38.4613 82.9502 41.5996 82.9502 45.4566C82.9502 49.314 79.8129 52.4523 75.9557 52.4523C74.0752 52.4523 72.3233 51.7198 71.0002 50.3882C70.6201 49.6549 70.1472 48.9736 69.5932 48.361C69.175 47.4473 68.96 46.4718 68.96 45.4566C68.96 41.5998 72.0984 38.4613 75.9557 38.4613ZM69.4912 54.9398C69.3667 58.8507 66.204 61.7675 62.5005 61.7675C58.6298 61.7675 55.5048 58.6112 55.5048 54.7719C55.5048 50.9155 58.6431 47.7771 62.5005 47.7771C66.392 47.7771 69.5864 50.9845 69.4912 54.9398ZM42.0496 45.4567C42.0496 41.5998 45.1879 38.4614 49.0442 38.4614C52.9016 38.4614 56.0399 41.5998 56.0399 45.4567C56.0399 46.4721 55.8258 47.4475 55.4068 48.361C54.8527 48.9736 54.3798 49.6549 53.9997 50.3883C52.6766 51.7199 50.9257 52.4524 49.0442 52.4524C45.1881 52.4524 42.0496 49.3139 42.0496 45.4567ZM38.9439 75.2227V65.1228C38.9439 59.5533 43.4754 55.0219 49.0442 55.0219C50.4236 55.0219 51.7472 55.2914 52.9928 55.8224C53.3168 58.7757 54.9899 61.3278 57.3803 62.8485C52.9372 64.8187 49.8296 69.2716 49.8296 74.438V75.2227H38.9439ZM72.601 84.5385H52.4001V74.4381C52.4001 68.8686 56.9316 64.3378 62.5005 64.3378C68.0696 64.3378 72.601 68.8689 72.601 74.4381V84.5385Z" fill="#FF9700" stroke="#FF9700" stroke-width="0.5"/>
</g>
<defs>
<clipPath id="clip0_1_1055">
<rect width="53" height="53" fill="white" transform="translate(36 35)"/>
</clipPath>
</defs>
</svg>
