<svg width="124" height="124" viewBox="0 0 124 124" fill="none" xmlns="http://www.w3.org/2000/svg">
<circle cx="62" cy="62" r="62" fill="white"/>
<g clip-path="url(#clip0_1_1060)">
<path d="M55.875 64.8125C55.875 61.1588 52.9037 58.1875 49.25 58.1875C45.5963 58.1875 42.625 61.1588 42.625 64.8125C42.625 68.4662 45.5963 71.4375 49.25 71.4375C52.9037 71.4375 55.875 68.4662 55.875 64.8125ZM49.25 68.125C47.4232 68.125 45.9375 66.6393 45.9375 64.8125C45.9375 62.9857 47.4232 61.5 49.25 61.5C51.0768 61.5 52.5625 62.9857 52.5625 64.8125C52.5625 66.6393 51.0768 68.125 49.25 68.125ZM49.25 71.4375C42.8569 71.4375 37.6562 76.6398 37.6562 83.0312C37.6562 83.4705 37.8307 83.8918 38.1414 84.2024C38.452 84.513 38.8732 84.6875 39.3125 84.6875H59.2206C59.4686 84.6877 59.7134 84.6321 59.9371 84.525C60.1607 84.4179 60.3575 84.2619 60.5128 84.0686C60.6681 83.8753 60.778 83.6496 60.8344 83.4081C60.8909 83.1667 60.8923 82.9156 60.8388 82.6735C60.6483 76.446 55.5239 71.4375 49.25 71.4375ZM41.136 81.375C41.9045 77.6004 45.2502 74.75 49.25 74.75C53.2498 74.75 56.5955 77.6004 57.364 81.375H41.136Z" fill="#FF9700"/>
<path d="M81.5568 68.8786C85.131 65.2829 87.3438 60.334 87.3438 54.875C87.3438 49.416 85.1293 44.4671 81.5568 40.8714C81.5419 40.8565 81.5369 40.8366 81.522 40.8217C81.5071 40.8068 81.4873 40.8018 81.4723 40.7869C77.7554 37.079 72.7189 34.9977 67.4688 35C62.219 34.9974 57.1829 37.0788 53.4668 40.7869C53.4519 40.8018 53.4304 40.8068 53.4155 40.8217C53.4006 40.8366 53.3956 40.8565 53.3807 40.8731C49.6725 44.5891 47.5911 49.6253 47.5938 54.875C47.5938 55.3143 47.7683 55.7355 48.0789 56.0461C48.3895 56.3568 48.8107 56.5313 49.25 56.5313H52.5625C53.0018 56.5313 53.423 56.3568 53.7336 56.0461C54.0443 55.7355 54.2188 55.3143 54.2188 54.875C54.2188 54.4357 54.0443 54.0145 53.7336 53.7039C53.423 53.3933 53.0018 53.2188 52.5625 53.2188H50.9907C51.3145 49.9825 52.5886 46.9144 54.6527 44.4009L55.7574 45.5056C55.9109 45.6599 56.0933 45.7824 56.2943 45.866C56.4952 45.9496 56.7107 45.9926 56.9284 45.9926C57.146 45.9926 57.3615 45.9496 57.5625 45.866C57.7634 45.7824 57.9459 45.6599 58.0993 45.5056C58.2533 45.3519 58.3754 45.1694 58.4587 44.9685C58.5421 44.7675 58.585 44.5521 58.585 44.3346C58.585 44.1171 58.5421 43.9017 58.4587 43.7008C58.3754 43.4999 58.2533 43.3173 58.0993 43.1637L56.9946 42.0589C59.5083 39.9951 62.5763 38.7209 65.8125 38.397V39.9688C65.8125 40.408 65.987 40.8293 66.2976 41.1399C66.6082 41.4505 67.0295 41.625 67.4688 41.625C67.908 41.625 68.3293 41.4505 68.6399 41.1399C68.9505 40.8293 69.125 40.408 69.125 39.9688V38.397C72.4508 38.7282 75.4883 40.0499 77.9429 42.0589L76.8365 43.1637C76.5259 43.4742 76.3515 43.8954 76.3515 44.3346C76.3515 44.7738 76.5259 45.195 76.8365 45.5056C77.1471 45.8162 77.5683 45.9906 78.0075 45.9906C78.4467 45.9906 78.8679 45.8162 79.1784 45.5056L80.2848 44.4009C82.3489 46.9144 83.623 49.9825 83.9468 53.2188H82.375C81.9357 53.2188 81.5145 53.3933 81.2039 53.7039C80.8932 54.0145 80.7188 54.4357 80.7188 54.875C80.7188 55.3143 80.8932 55.7355 81.2039 56.0461C81.5145 56.3568 81.9357 56.5313 82.375 56.5313H83.9468C83.6228 59.7675 82.3487 62.8355 80.2848 65.3491L79.1801 64.2428C78.8695 63.9322 78.4483 63.7577 78.0091 63.7577C77.5699 63.7577 77.1487 63.9322 76.8382 64.2428C76.5276 64.5533 76.3531 64.9745 76.3531 65.4137C76.3531 65.8529 76.5276 66.2741 76.8382 66.5847L77.9429 67.6911C75.4293 69.7551 72.3613 71.0293 69.125 71.353V69.7813C69.125 69.342 68.9505 68.9207 68.6399 68.6101C68.3293 68.2995 67.908 68.125 67.4688 68.125C67.0295 68.125 66.6082 68.2995 66.2976 68.6101C65.987 68.9207 65.8125 69.342 65.8125 69.7813V71.3199C63.208 71.0752 60.6995 70.2127 58.4952 68.8041C58.1264 68.5791 57.6842 68.5071 57.2631 68.6035C56.842 68.6998 56.4751 68.957 56.2409 69.32C56.0067 69.683 55.9236 70.1232 56.0093 70.5466C56.095 70.9701 56.3428 71.3433 56.6998 71.5866C59.9095 73.6571 63.6492 74.7556 67.4688 74.75C72.9278 74.75 77.8766 72.5356 81.4723 68.9631C81.4873 68.9482 81.5071 68.9432 81.522 68.9283C81.5369 68.9134 81.5419 68.8935 81.5568 68.8786Z" fill="#FF9700"/>
<path d="M63.671 61.0147L68.6397 56.046C68.7938 55.8924 68.916 55.7099 68.9993 55.509C69.0826 55.308 69.1253 55.0925 69.125 54.875V44.9375C69.125 44.4982 68.9505 44.077 68.6399 43.7664C68.3293 43.4557 67.908 43.2812 67.4687 43.2812C67.0295 43.2812 66.6082 43.4557 66.2976 43.7664C65.987 44.077 65.8125 44.4982 65.8125 44.9375V54.1893L61.329 58.6728C61.1753 58.8266 61.0533 59.0091 60.97 59.21C60.8868 59.4109 60.844 59.6263 60.844 59.8438C60.844 60.0612 60.8868 60.2766 60.97 60.4775C61.0533 60.6784 61.1753 60.8609 61.329 61.0147C61.4828 61.1685 61.6654 61.2905 61.8663 61.3737C62.0672 61.4569 62.2825 61.4998 62.5 61.4998C62.7175 61.4998 62.9328 61.4569 63.1337 61.3737C63.3346 61.2905 63.5172 61.1685 63.671 61.0147Z" fill="#FF9700"/>
</g>
<defs>
<clipPath id="clip0_1_1060">
<rect width="53" height="53" fill="white" transform="translate(36 35)"/>
</clipPath>
</defs>
</svg>
