<svg width="70" height="69" viewBox="0 0 70 69" fill="none" xmlns="http://www.w3.org/2000/svg">
<circle cx="35.0858" cy="34.386" r="33.6899" fill="black" fill-opacity="0.2" stroke="white" stroke-width="1.29577"/>
<g clip-path="url(#clip0_947_975)">
<path d="M45.1783 44.4858V44.4849H45.1839V36.3363C45.1839 32.3499 44.3257 29.2791 39.6654 29.2791C37.425 29.2791 35.9215 30.5085 35.3077 31.6741H35.2429V29.6512H30.8242V44.4849H35.4253V37.1398C35.4253 35.2059 35.7919 33.3358 38.1869 33.3358C40.5467 33.3358 40.5819 35.5429 40.5819 37.2639V44.4858H45.1783Z" fill="white"/>
<path d="M23.334 29.6516H27.9406V44.4853H23.334V29.6516Z" fill="white"/>
<path d="M25.6329 22.2667C24.16 22.2667 22.9648 23.4618 22.9648 24.9347C22.9648 26.4076 24.16 27.6278 25.6329 27.6278C27.1058 27.6278 28.301 26.4076 28.301 24.9347C28.3001 23.4618 27.1049 22.2667 25.6329 22.2667V22.2667Z" fill="white"/>
</g>
<defs>
<clipPath id="clip0_947_975">
<rect width="22.2186" height="22.2186" fill="white" transform="translate(22.9648 22.2667)"/>
</clipPath>
</defs>
</svg>
