<svg xmlns="http://www.w3.org/2000/svg" width="112" height="112" viewBox="0 0 112 112" fill="none">
  <path d="M75.7314 7H15.2305C13.8385 7.00139 12.504 7.55496 11.5197 8.53922C10.5354 9.52349 9.98186 10.858 9.98047 12.25V99.75C9.98186 101.142 10.5354 102.477 11.5197 103.461C12.504 104.445 13.8385 104.999 15.2305 105H75.7314C77.1234 104.999 78.4579 104.445 79.4422 103.461C80.4265 102.477 80.98 101.142 80.9814 99.75V12.25C80.98 10.858 80.4265 9.52349 79.4422 8.53922C78.4579 7.55496 77.1234 7.00139 75.7314 7ZM77.4814 99.75C77.481 100.214 77.2965 100.659 76.9684 100.987C76.6403 101.315 76.1954 101.5 75.7314 101.5H15.2305C14.7665 101.5 14.3216 101.315 13.9935 100.987C13.6655 100.659 13.4809 100.214 13.4805 99.75V12.25C13.4809 11.786 13.6655 11.3412 13.9935 11.0131C14.3216 10.685 14.7665 10.5005 15.2305 10.5H75.7314C76.1954 10.5005 76.6403 10.685 76.9684 11.0131C77.2965 11.3412 77.481 11.786 77.4814 12.25V99.75Z" fill="#FF9700"/>
  <path d="M31.9933 18.5955L23.8996 26.691L20.4696 23.261C20.1412 22.9326 19.6958 22.7482 19.2314 22.7482C18.7671 22.7482 18.3217 22.9326 17.9933 23.261C17.6649 23.5894 17.4805 24.0348 17.4805 24.4991C17.4805 24.9635 17.6649 25.4089 17.9933 25.7373L22.6623 30.4045C22.9905 30.7326 23.4355 30.9169 23.8996 30.9169C24.3636 30.9169 24.8086 30.7326 25.1368 30.4045L34.4678 21.0718C34.7962 20.7436 34.9808 20.2985 34.9809 19.8343C34.9811 19.37 34.7968 18.9248 34.4687 18.5964C34.1406 18.268 33.6954 18.0834 33.2312 18.0833C32.767 18.0831 32.3217 18.2674 31.9933 18.5955ZM71.7323 22.75H40.2323C39.7682 22.75 39.3231 22.9344 38.9949 23.2626C38.6667 23.5908 38.4823 24.0359 38.4823 24.5C38.4823 24.9641 38.6667 25.4093 38.9949 25.7375C39.3231 26.0656 39.7682 26.25 40.2323 26.25H71.7323C72.1965 26.25 72.6416 26.0656 72.9698 25.7375C73.298 25.4093 73.4823 24.9641 73.4823 24.5C73.4823 24.0359 73.298 23.5908 72.9698 23.2626C72.6416 22.9344 72.1965 22.75 71.7323 22.75ZM31.9933 39.5955L23.8996 47.691L20.4696 44.261C20.1412 43.9326 19.6958 43.7482 19.2314 43.7482C18.7671 43.7482 18.3217 43.9326 17.9933 44.261C17.6649 44.5894 17.4805 45.0348 17.4805 45.4991C17.4805 45.9635 17.6649 46.4089 17.9933 46.7373L22.6623 51.4045C22.9905 51.7326 23.4355 51.9169 23.8996 51.9169C24.3636 51.9169 24.8086 51.7326 25.1368 51.4045L34.4678 42.0718C34.7962 41.7436 34.9808 41.2985 34.9809 40.8343C34.9811 40.37 34.7968 39.9248 34.4687 39.5964C34.1406 39.268 33.6954 39.0835 33.2312 39.0833C32.767 39.0831 32.3217 39.2674 31.9933 39.5955ZM71.7323 43.75H40.2323C39.7682 43.75 39.3231 43.9344 38.9949 44.2626C38.6667 44.5908 38.4823 45.0359 38.4823 45.5C38.4823 45.9641 38.6667 46.4093 38.9949 46.7375C39.3231 47.0656 39.7682 47.25 40.2323 47.25H71.7323C72.1965 47.25 72.6416 47.0656 72.9698 46.7375C73.298 46.4093 73.4823 45.9641 73.4823 45.5C73.4823 45.0359 73.298 44.5908 72.9698 44.2626C72.6416 43.9344 72.1965 43.75 71.7323 43.75ZM31.9933 60.5955L23.8996 68.691L20.4696 65.261C20.1412 64.9327 19.6958 64.7482 19.2314 64.7482C18.7671 64.7482 18.3217 64.9327 17.9933 65.261C17.6649 65.5894 17.4805 66.0348 17.4805 66.4991C17.4805 66.9635 17.6649 67.4089 17.9933 67.7373L22.6623 72.4045C22.9905 72.7326 23.4355 72.9169 23.8996 72.9169C24.3636 72.9169 24.8086 72.7326 25.1368 72.4045L34.4678 63.0718C34.7962 62.7436 34.9808 62.2985 34.9809 61.8343C34.9811 61.37 34.7968 60.9248 34.4687 60.5964C34.1406 60.268 33.6954 60.0835 33.2312 60.0833C32.767 60.0831 32.3217 60.2674 31.9933 60.5955ZM71.7323 64.75H40.2323C39.7682 64.75 39.3231 64.9344 38.9949 65.2626C38.6667 65.5908 38.4823 66.0359 38.4823 66.5C38.4823 66.9642 38.6667 67.4093 38.9949 67.7375C39.3231 68.0657 39.7682 68.25 40.2323 68.25H71.7323C72.1965 68.25 72.6416 68.0657 72.9698 67.7375C73.298 67.4093 73.4823 66.9642 73.4823 66.5C73.4823 66.0359 73.298 65.5908 72.9698 65.2626C72.6416 64.9344 72.1965 64.75 71.7323 64.75ZM31.9933 81.5955L23.8996 89.691L20.4696 86.261C20.1412 85.9327 19.6958 85.7482 19.2314 85.7482C18.7671 85.7482 18.3217 85.9327 17.9933 86.261C17.6649 86.5894 17.4805 87.0348 17.4805 87.4992C17.4805 87.9635 17.6649 88.4089 17.9933 88.7373L22.6623 93.4045C22.9905 93.7326 23.4355 93.9169 23.8996 93.9169C24.3636 93.9169 24.8086 93.7326 25.1368 93.4045L34.4678 84.0718C34.7962 83.7436 34.9808 83.2985 34.9809 82.8343C34.9811 82.37 34.7968 81.9248 34.4687 81.5964C34.1406 81.268 33.6954 81.0835 33.2312 81.0833C32.767 81.0831 32.3217 81.2674 31.9933 81.5955ZM71.7323 85.75H40.2323C39.7682 85.75 39.3231 85.9344 38.9949 86.2626C38.6667 86.5908 38.4823 87.0359 38.4823 87.5C38.4823 87.9642 38.6667 88.4093 38.9949 88.7375C39.3231 89.0657 39.7682 89.25 40.2323 89.25H71.7323C72.1965 89.25 72.6416 89.0657 72.9698 88.7375C73.298 88.4093 73.4823 87.9642 73.4823 87.5C73.4823 87.0359 73.298 86.5908 72.9698 86.2626C72.6416 85.9344 72.1965 85.75 71.7323 85.75ZM94.7448 21C92.8194 21.0023 90.9735 21.7682 89.612 23.1297C88.2505 24.4912 87.4846 26.3371 87.4823 28.2625V78.75C87.4825 78.9699 87.5241 79.1878 87.6048 79.3923L93.1226 93.3923C93.2513 93.7193 93.4755 93.9999 93.7659 94.1977C94.0563 94.3955 94.3996 94.5013 94.751 94.5013C95.1023 94.5013 95.4456 94.3955 95.736 94.1977C96.0265 93.9999 96.2506 93.7193 96.3793 93.3923L101.897 79.3923C101.977 79.1877 102.018 78.9698 102.018 78.75V28.2625C102.015 26.3354 101.248 24.4882 99.8839 23.1265C98.5203 21.7648 96.6719 21 94.7448 21ZM98.5178 78.4175L94.7518 87.976L90.9823 78.4175V35H98.5178V78.4175ZM98.5178 31.5H90.9823V28.2625C90.9823 27.2632 91.3793 26.3049 92.0859 25.5983C92.7925 24.8917 93.7508 24.4948 94.7501 24.4948C95.7494 24.4948 96.7077 24.8917 97.4143 25.5983C98.1209 26.3049 98.5178 27.2632 98.5178 28.2625V31.5Z" fill="#FF9700"/>
</svg>