<svg xmlns="http://www.w3.org/2000/svg" width="106" height="106" viewBox="0 0 106 106" fill="none">
  <path d="M71.8041 32.2235L71.8042 32.2235C72.063 32.2232 72.3192 32.274 72.5584 32.3728C72.7975 32.4717 73.0148 32.6167 73.1978 32.7997C73.3808 32.9826 73.5259 33.1999 73.6249 33.439C73.7238 33.6781 73.7746 33.9344 73.7744 34.1931V34.1932C73.7744 35.2815 72.8939 36.1635 71.8041 36.1635C70.7165 36.1635 69.8338 35.2814 69.8338 34.1932C69.8338 33.1043 70.7164 32.2235 71.8041 32.2235ZM32.2172 71.8099V71.8098C32.2172 70.7221 33.0975 69.8395 34.1875 69.8395C35.2751 69.8395 36.1578 70.7222 36.1578 71.8098C36.1578 72.8996 35.2752 73.7801 34.1875 73.7801H34.1874C33.9286 73.7804 33.6723 73.7296 33.4331 73.6306C33.194 73.5317 32.9767 73.3866 32.7937 73.2036C32.6107 73.0206 32.4656 72.8033 32.3666 72.5642C32.2677 72.325 32.2169 72.0687 32.2172 71.8099ZM71.8041 36.2635C72.9492 36.2635 73.8744 35.3367 73.8744 34.1932C73.8746 33.9213 73.8212 33.652 73.7173 33.4008C73.6133 33.1495 73.4608 32.9212 73.2685 32.729C73.0762 32.5367 72.8479 32.3843 72.5966 32.2804C72.3453 32.1765 72.076 32.1232 71.8041 32.1235C70.6613 32.1235 69.7338 33.049 69.7338 34.1932C69.7338 35.3367 70.6613 36.2635 71.8041 36.2635Z" fill="#FF9700" stroke="white" stroke-width="0.2"/>
  <mask id="path-2-inside-1_2006_1294" fill="white">
    <path d="M103.424 12.7369C103.081 12.6568 102.722 12.6661 102.383 12.7637C102.044 12.8614 101.735 13.0442 101.487 13.2948L92.9037 21.9456H88.7889L84.2593 17.2526V13.0805L92.7194 4.49431C92.9658 4.24427 93.1445 3.93567 93.2387 3.59754C93.3329 3.2594 93.3395 2.90286 93.2579 2.56147C93.1766 2.22013 93.0099 1.90507 92.7734 1.64591C92.5368 1.38674 92.2383 1.19199 91.9058 1.07995C89.7804 0.363413 87.5565 0.000279461 85.2945 0.000279461C78.5514 0.000279461 72.4254 3.14467 68.487 8.62686C64.8008 13.759 63.6646 20.0484 65.2925 26.0676L50.0426 41.3175L24.6359 15.8527V10.8549C24.636 10.4974 24.5434 10.146 24.3672 9.83486C24.1911 9.52374 23.9374 9.26355 23.6308 9.07964L8.9922 0.295299C8.59637 0.057548 8.13237 -0.0409361 7.67409 0.0155282C7.21581 0.0719925 6.7896 0.280159 6.46331 0.606882L0.608258 6.46111C0.281949 6.78782 0.0740973 7.21414 0.0176872 7.67244C-0.0387229 8.13073 0.0595402 8.59474 0.296883 8.99083L9.07936 23.6294C9.26321 23.9358 9.52324 24.1894 9.83416 24.3656C10.1451 24.5417 10.4963 24.6344 10.8536 24.6345L15.8501 24.6362L41.2591 50.1011L26.0673 65.2928C20.0481 63.6655 13.7554 64.8036 8.62079 68.4921C3.14212 72.4281 0 78.5526 0 85.2956C0 87.5568 0.363133 89.7815 1.07967 91.9061C1.19237 92.2406 1.38872 92.5407 1.65009 92.778C1.91145 93.0153 2.22913 93.1818 2.57296 93.2617C2.91678 93.3416 3.27533 93.3322 3.61454 93.2346C3.95374 93.1369 4.26234 92.9541 4.51101 92.7036L13.0931 84.0534H17.2306L21.9447 88.7675V92.9048L13.2943 101.487C13.0438 101.736 12.861 102.044 12.7633 102.384C12.6656 102.723 12.6562 103.081 12.7361 103.425C12.816 103.769 12.9825 104.087 13.2197 104.348C13.457 104.609 13.7571 104.806 14.0916 104.918C16.2161 105.635 18.4409 105.998 20.7021 105.998C27.4451 105.998 33.5689 102.855 37.5056 97.3765C41.1943 92.2419 42.3321 85.95 40.7049 79.9308L52.906 67.7298L55.701 70.7657L54.4184 72.0474C53.6095 72.8561 53.6095 74.167 54.4184 74.9759C55.2271 75.7837 56.5372 75.7837 57.3467 74.9759L58.5081 73.8144L84.7317 102.299C84.751 102.32 84.7711 102.34 84.7916 102.36C89.6438 107.213 97.5054 107.214 102.36 102.36C107.201 97.5162 107.201 89.6354 102.36 84.7919C102.339 84.7707 102.317 84.7505 102.295 84.7304L73.7663 58.557L74.9147 57.4086C75.7234 56.6008 75.7234 55.2899 74.9147 54.4812C74.1061 53.6726 72.7958 53.6723 71.9863 54.4812L70.7126 55.7557L67.6709 52.9639L79.9311 40.7037C81.6806 41.1708 83.4837 41.4068 85.2945 41.4057C96.7102 41.4057 105.997 32.1183 105.997 20.7034C105.997 18.4414 105.634 16.2175 104.917 14.0921C104.805 13.7576 104.608 13.4574 104.347 13.2202C104.086 12.983 103.768 12.8166 103.424 12.7369ZM18.1743 21.1038C17.7861 20.7146 17.2596 20.5167 16.7097 20.5167L12.0273 20.515L4.67932 8.24675L8.24813 4.67795L20.4953 12.0276V16.7098C20.4953 17.258 20.7129 17.7838 21.1002 18.1718L47.115 44.2458L44.1867 47.1732L18.1743 21.1038ZM70.8354 61.4878L99.4616 87.7493C102.659 90.9811 102.649 96.2134 99.4316 99.4327C96.2065 102.658 90.9855 102.668 87.7474 99.4611L61.4382 70.8837L70.8354 61.4878ZM67.7817 58.6856L58.6313 67.8345L55.8364 64.7986L64.7404 55.894L67.7817 58.6856ZM85.2945 37.2651C83.4955 37.267 81.7083 36.9756 80.0031 36.4022C79.6377 36.2796 79.2453 36.2612 78.8701 36.3492C78.4948 36.4372 78.1514 36.628 77.8786 36.9003C67.4995 47.2794 45.1353 69.643 36.9 77.8789C36.6272 78.1515 36.436 78.495 36.348 78.8706C36.26 79.2461 36.2787 79.6388 36.4019 80.0043C38.123 85.1144 37.2996 90.5651 34.1424 94.9606C30.994 99.3431 26.0949 101.857 20.7023 101.857C20.0965 101.857 19.4941 101.824 18.8972 101.76L25.4729 95.2356C25.6669 95.0431 25.8209 94.8142 25.926 94.562C26.031 94.3098 26.0851 94.0393 26.0851 93.7661V87.9093C26.085 87.3603 25.8668 86.8338 25.4785 86.4456L19.5516 80.5185C19.1635 80.1302 18.637 79.912 18.0879 79.9119H12.231C11.9577 79.912 11.6871 79.9661 11.4348 80.0712C11.1825 80.1763 10.9535 80.3302 10.7609 80.5241L4.2369 87.0998C4.17206 86.5003 4.13965 85.8978 4.1398 85.2947C4.1398 79.9016 6.65316 75.0032 11.0366 71.8547C15.4311 68.6974 20.8826 67.8735 25.9938 69.5951C26.3592 69.7183 26.7516 69.7369 27.127 69.6489C27.5024 69.5609 27.8457 69.3697 28.1182 69.097C28.2323 68.9838 69.0675 28.1476 69.0967 28.1185C69.3693 27.8459 69.5604 27.5026 69.6484 27.1272C69.7364 26.7519 69.7179 26.3595 69.5948 25.9941C67.8732 20.8837 68.6949 15.4347 71.8494 11.0423C75.0006 6.65613 79.9007 4.14091 85.2938 4.14091C85.9182 4.14091 86.5385 4.17569 87.153 4.2436L80.7143 10.7787C80.3327 11.1659 80.1188 11.6877 80.1189 12.2313V18.0882C80.1187 18.6246 80.3269 19.1401 80.6996 19.5258L86.4197 25.4531C86.6127 25.6532 86.8441 25.8123 87.1001 25.921C87.356 26.0296 87.6312 26.0855 87.9093 26.0854H93.7662C94.0394 26.0854 94.3099 26.0313 94.562 25.9263C94.8142 25.8212 95.0431 25.6672 95.2355 25.4732L101.759 18.8983C101.824 19.4952 101.856 20.0976 101.856 20.7034C101.856 29.8356 94.4268 37.2651 85.2947 37.2651H85.2945Z"/>
  </mask>
  <path d="M103.424 12.7369C103.081 12.6568 102.722 12.6661 102.383 12.7637C102.044 12.8614 101.735 13.0442 101.487 13.2948L92.9037 21.9456H88.7889L84.2593 17.2526V13.0805L92.7194 4.49431C92.9658 4.24427 93.1445 3.93567 93.2387 3.59754C93.3329 3.2594 93.3395 2.90286 93.2579 2.56147C93.1766 2.22013 93.0099 1.90507 92.7734 1.64591C92.5368 1.38674 92.2383 1.19199 91.9058 1.07995C89.7804 0.363413 87.5565 0.000279461 85.2945 0.000279461C78.5514 0.000279461 72.4254 3.14467 68.487 8.62686C64.8008 13.759 63.6646 20.0484 65.2925 26.0676L50.0426 41.3175L24.6359 15.8527V10.8549C24.636 10.4974 24.5434 10.146 24.3672 9.83486C24.1911 9.52374 23.9374 9.26355 23.6308 9.07964L8.9922 0.295299C8.59637 0.057548 8.13237 -0.0409361 7.67409 0.0155282C7.21581 0.0719925 6.7896 0.280159 6.46331 0.606882L0.608258 6.46111C0.281949 6.78782 0.0740973 7.21414 0.0176872 7.67244C-0.0387229 8.13073 0.0595402 8.59474 0.296883 8.99083L9.07936 23.6294C9.26321 23.9358 9.52324 24.1894 9.83416 24.3656C10.1451 24.5417 10.4963 24.6344 10.8536 24.6345L15.8501 24.6362L41.2591 50.1011L26.0673 65.2928C20.0481 63.6655 13.7554 64.8036 8.62079 68.4921C3.14212 72.4281 0 78.5526 0 85.2956C0 87.5568 0.363133 89.7815 1.07967 91.9061C1.19237 92.2406 1.38872 92.5407 1.65009 92.778C1.91145 93.0153 2.22913 93.1818 2.57296 93.2617C2.91678 93.3416 3.27533 93.3322 3.61454 93.2346C3.95374 93.1369 4.26234 92.9541 4.51101 92.7036L13.0931 84.0534H17.2306L21.9447 88.7675V92.9048L13.2943 101.487C13.0438 101.736 12.861 102.044 12.7633 102.384C12.6656 102.723 12.6562 103.081 12.7361 103.425C12.816 103.769 12.9825 104.087 13.2197 104.348C13.457 104.609 13.7571 104.806 14.0916 104.918C16.2161 105.635 18.4409 105.998 20.7021 105.998C27.4451 105.998 33.5689 102.855 37.5056 97.3765C41.1943 92.2419 42.3321 85.95 40.7049 79.9308L52.906 67.7298L55.701 70.7657L54.4184 72.0474C53.6095 72.8561 53.6095 74.167 54.4184 74.9759C55.2271 75.7837 56.5372 75.7837 57.3467 74.9759L58.5081 73.8144L84.7317 102.299C84.751 102.32 84.7711 102.34 84.7916 102.36C89.6438 107.213 97.5054 107.214 102.36 102.36C107.201 97.5162 107.201 89.6354 102.36 84.7919C102.339 84.7707 102.317 84.7505 102.295 84.7304L73.7663 58.557L74.9147 57.4086C75.7234 56.6008 75.7234 55.2899 74.9147 54.4812C74.1061 53.6726 72.7958 53.6723 71.9863 54.4812L70.7126 55.7557L67.6709 52.9639L79.9311 40.7037C81.6806 41.1708 83.4837 41.4068 85.2945 41.4057C96.7102 41.4057 105.997 32.1183 105.997 20.7034C105.997 18.4414 105.634 16.2175 104.917 14.0921C104.805 13.7576 104.608 13.4574 104.347 13.2202C104.086 12.983 103.768 12.8166 103.424 12.7369ZM18.1743 21.1038C17.7861 20.7146 17.2596 20.5167 16.7097 20.5167L12.0273 20.515L4.67932 8.24675L8.24813 4.67795L20.4953 12.0276V16.7098C20.4953 17.258 20.7129 17.7838 21.1002 18.1718L47.115 44.2458L44.1867 47.1732L18.1743 21.1038ZM70.8354 61.4878L99.4616 87.7493C102.659 90.9811 102.649 96.2134 99.4316 99.4327C96.2065 102.658 90.9855 102.668 87.7474 99.4611L61.4382 70.8837L70.8354 61.4878ZM67.7817 58.6856L58.6313 67.8345L55.8364 64.7986L64.7404 55.894L67.7817 58.6856ZM85.2945 37.2651C83.4955 37.267 81.7083 36.9756 80.0031 36.4022C79.6377 36.2796 79.2453 36.2612 78.8701 36.3492C78.4948 36.4372 78.1514 36.628 77.8786 36.9003C67.4995 47.2794 45.1353 69.643 36.9 77.8789C36.6272 78.1515 36.436 78.495 36.348 78.8706C36.26 79.2461 36.2787 79.6388 36.4019 80.0043C38.123 85.1144 37.2996 90.5651 34.1424 94.9606C30.994 99.3431 26.0949 101.857 20.7023 101.857C20.0965 101.857 19.4941 101.824 18.8972 101.76L25.4729 95.2356C25.6669 95.0431 25.8209 94.8142 25.926 94.562C26.031 94.3098 26.0851 94.0393 26.0851 93.7661V87.9093C26.085 87.3603 25.8668 86.8338 25.4785 86.4456L19.5516 80.5185C19.1635 80.1302 18.637 79.912 18.0879 79.9119H12.231C11.9577 79.912 11.6871 79.9661 11.4348 80.0712C11.1825 80.1763 10.9535 80.3302 10.7609 80.5241L4.2369 87.0998C4.17206 86.5003 4.13965 85.8978 4.1398 85.2947C4.1398 79.9016 6.65316 75.0032 11.0366 71.8547C15.4311 68.6974 20.8826 67.8735 25.9938 69.5951C26.3592 69.7183 26.7516 69.7369 27.127 69.6489C27.5024 69.5609 27.8457 69.3697 28.1182 69.097C28.2323 68.9838 69.0675 28.1476 69.0967 28.1185C69.3693 27.8459 69.5604 27.5026 69.6484 27.1272C69.7364 26.7519 69.7179 26.3595 69.5948 25.9941C67.8732 20.8837 68.6949 15.4347 71.8494 11.0423C75.0006 6.65613 79.9007 4.14091 85.2938 4.14091C85.9182 4.14091 86.5385 4.17569 87.153 4.2436L80.7143 10.7787C80.3327 11.1659 80.1188 11.6877 80.1189 12.2313V18.0882C80.1187 18.6246 80.3269 19.1401 80.6996 19.5258L86.4197 25.4531C86.6127 25.6532 86.8441 25.8123 87.1001 25.921C87.356 26.0296 87.6312 26.0855 87.9093 26.0854H93.7662C94.0394 26.0854 94.3099 26.0313 94.562 25.9263C94.8142 25.8212 95.0431 25.6672 95.2355 25.4732L101.759 18.8983C101.824 19.4952 101.856 20.0976 101.856 20.7034C101.856 29.8356 94.4268 37.2651 85.2947 37.2651H85.2945Z" fill="#FF9700" stroke="white" stroke-width="0.4" mask="url(#path-2-inside-1_2006_1294)"/>
  <path d="M38.6572 64.5614L64.3936 38.8248V38.825L64.5643 38.6543C65.3341 37.8845 66.5817 37.8847 67.3513 38.6543C68.121 39.424 68.1209 40.6715 67.3514 41.4403L67.3513 41.4403L41.444 67.3474L41.5148 67.4181L41.444 67.3474C40.6744 68.1172 39.4268 68.1172 38.6572 67.3474C37.8882 66.578 37.8882 65.3304 38.6572 64.5614ZM72.0614 72.1221L72.0615 72.1221C72.8287 71.3517 74.0771 71.3493 74.8474 72.1173L93.5086 90.7187C94.279 91.4867 94.2812 92.7345 93.5132 93.5049C92.7435 94.2769 91.4959 94.2769 90.7261 93.5094L72.0651 74.9081C71.2948 74.1401 71.2924 72.8933 72.0614 72.1221Z" fill="#FF9700" stroke="white" stroke-width="0.2"/>
</svg>