<svg width="46" height="46" viewBox="0 0 46 46" fill="none" xmlns="http://www.w3.org/2000/svg">
<circle cx="23" cy="23" r="22.5" fill="#FF9700" fill-opacity="0.17" stroke="#FF9700"/>
<path d="M17.276 18.922C17.364 17.558 17.8847 16.4947 18.838 15.732C19.806 14.9693 21.038 14.588 22.534 14.588C23.5607 14.588 24.448 14.7713 25.196 15.138C25.944 15.5047 26.5087 16.0033 26.89 16.634C27.2713 17.2647 27.462 17.976 27.462 18.768C27.462 19.6773 27.22 20.4547 26.736 21.1C26.252 21.7453 25.6727 22.178 24.998 22.398V22.486C25.8633 22.75 26.538 23.234 27.022 23.938C27.506 24.6273 27.748 25.5147 27.748 26.6C27.748 27.4653 27.55 28.2353 27.154 28.91C26.758 29.5847 26.1713 30.12 25.394 30.516C24.6167 30.8973 23.6853 31.088 22.6 31.088C21.016 31.088 19.7107 30.6847 18.684 29.878C17.672 29.0567 17.1293 27.8833 17.056 26.358H19.476C19.5347 27.1353 19.8353 27.7733 20.378 28.272C20.9207 28.756 21.654 28.998 22.578 28.998C23.4727 28.998 24.162 28.756 24.646 28.272C25.13 27.7733 25.372 27.1353 25.372 26.358C25.372 25.3313 25.042 24.6053 24.382 24.18C23.7367 23.74 22.7393 23.52 21.39 23.52H20.818V21.452H21.412C22.6 21.4373 23.502 21.2393 24.118 20.858C24.7487 20.4767 25.064 19.8753 25.064 19.054C25.064 18.35 24.8367 17.7927 24.382 17.382C23.9273 16.9567 23.282 16.744 22.446 16.744C21.6247 16.744 20.9867 16.9567 20.532 17.382C20.0773 17.7927 19.806 18.306 19.718 18.922H17.276Z" fill="#FF9700"/>
</svg>
