<svg width="46" height="46" viewBox="0 0 46 46" fill="none" xmlns="http://www.w3.org/2000/svg">
<circle cx="23" cy="23" r="22.5" fill="#FF9700" fill-opacity="0.17" stroke="#FF9700"/>
<path d="M19.706 27.59C21.114 26.3727 22.2213 25.3753 23.028 24.598C23.8493 23.806 24.5313 22.9847 25.074 22.134C25.6167 21.2833 25.888 20.4327 25.888 19.582C25.888 18.702 25.6753 18.0127 25.25 17.514C24.8393 17.0153 24.1867 16.766 23.292 16.766C22.4267 16.766 21.752 17.0447 21.268 17.602C20.7987 18.1447 20.5493 18.878 20.52 19.802H18.1C18.144 18.13 18.6427 16.854 19.596 15.974C20.564 15.0793 21.7887 14.632 23.27 14.632C24.8687 14.632 26.1153 15.072 27.01 15.952C27.9193 16.832 28.374 18.0053 28.374 19.472C28.374 20.528 28.1027 21.5473 27.56 22.53C27.032 23.498 26.394 24.3707 25.646 25.148C24.9127 25.9107 23.974 26.798 22.83 27.81L21.84 28.69H28.814V30.78H18.122V28.954L19.706 27.59Z" fill="#FF9700"/>
</svg>
