<svg width="41" height="41" viewBox="0 0 41 41" fill="none" xmlns="http://www.w3.org/2000/svg">
<circle cx="20.9513" cy="20.0492" r="19.6706" stroke="#646464" stroke-width="0.756563"/>
<g clip-path="url(#clip0_72_925)">
<path d="M26.8439 25.9462V25.9457H26.8471V21.1879C26.8471 18.8603 26.346 17.0674 23.625 17.0674C22.3169 17.0674 21.4391 17.7852 21.0807 18.4657H21.0429V17.2847H18.4629V25.9457H21.1493V21.6571C21.1493 20.5279 21.3634 19.436 22.7618 19.436C24.1396 19.436 24.1601 20.7246 24.1601 21.7295V25.9462H26.8439Z" fill="#646464"/>
<path d="M14.0898 17.2849H16.7795V25.9459H14.0898V17.2849Z" fill="#646464"/>
<path d="M15.4328 12.973C14.5728 12.973 13.875 13.6709 13.875 14.5308C13.875 15.3908 14.5728 16.1033 15.4328 16.1033C16.2928 16.1033 16.9906 15.3908 16.9906 14.5308C16.9901 13.6709 16.2923 12.973 15.4328 12.973V12.973Z" fill="#646464"/>
</g>
<defs>
<clipPath id="clip0_72_925">
<rect width="12.9728" height="12.9728" fill="white" transform="translate(13.875 12.973)"/>
</clipPath>
</defs>
</svg>
