<svg width="42" height="41" viewBox="0 0 42 41" fill="none" xmlns="http://www.w3.org/2000/svg">
<circle cx="20.9845" cy="20.0492" r="19.6706" stroke="#646464" stroke-width="0.756563"/>
<g clip-path="url(#clip0_72_918)">
<path d="M28.06 15.8852C27.4899 16.1353 26.8824 16.3011 26.249 16.3816C26.9006 15.9925 27.3979 15.3812 27.6317 14.6443C27.0242 15.0065 26.3534 15.2624 25.6386 15.4052C25.0618 14.7909 24.2396 14.4105 23.3427 14.4105C21.6026 14.4105 20.2017 15.8229 20.2017 17.5544C20.2017 17.8036 20.2228 18.0431 20.2745 18.2712C17.6614 18.1437 15.3492 16.8914 13.796 14.9835C13.5248 15.454 13.3657 15.9925 13.3657 16.5723C13.3657 17.6608 13.9263 18.6257 14.7619 19.1844C14.2569 19.1748 13.7615 19.0282 13.3418 18.7973C13.3418 18.8068 13.3418 18.8193 13.3418 18.8317C13.3418 20.3592 14.4313 21.6278 15.86 21.9201C15.6041 21.99 15.3253 22.0236 15.0359 22.0236C14.8347 22.0236 14.6315 22.0121 14.4409 21.9699C14.8481 23.2146 16.0037 24.1297 17.3778 24.1595C16.3084 24.996 14.9506 25.5 13.4807 25.5C13.223 25.5 12.9757 25.4885 12.7285 25.4569C14.1208 26.3547 15.7709 26.8674 17.5503 26.8674C23.3341 26.8674 26.4962 22.0763 26.4962 17.9234C26.4962 17.7844 26.4914 17.6503 26.4847 17.5171C27.1085 17.0744 27.6327 16.5215 28.06 15.8852Z" fill="#646464"/>
</g>
<defs>
<clipPath id="clip0_72_918">
<rect width="15.3315" height="15.3315" fill="white" transform="translate(12.7285 12.973)"/>
</clipPath>
</defs>
</svg>
