<svg width="42" height="41" viewBox="0 0 42 41" fill="none" xmlns="http://www.w3.org/2000/svg">
<circle cx="20.9837" cy="20.0489" r="20.0489" fill="#FF9700"/>
<g clip-path="url(#clip0_947_60)">
<path d="M28.0598 15.8849C27.4897 16.135 26.8821 16.3007 26.2488 16.3812C26.9003 15.9922 27.3977 15.3808 27.6315 14.644C27.024 15.0062 26.3532 15.262 25.6384 15.4048C25.0615 14.7906 24.2394 14.4102 23.3425 14.4102C21.6023 14.4102 20.2014 15.8226 20.2014 17.5541C20.2014 17.8032 20.2225 18.0428 20.2743 18.2708C17.6612 18.1434 15.349 16.891 13.7957 14.9832C13.5246 15.4537 13.3655 15.9922 13.3655 16.5719C13.3655 17.6604 13.926 18.6254 14.7616 19.184C14.2566 19.1744 13.7612 19.0278 13.3415 18.7969C13.3415 18.8065 13.3415 18.8189 13.3415 18.8314C13.3415 20.3588 14.431 21.6275 15.8597 21.9197C15.6039 21.9897 15.325 22.0232 15.0357 22.0232C14.8344 22.0232 14.6313 22.0117 14.4406 21.9696C14.8479 23.2143 16.0035 24.1294 17.3776 24.1591C16.3082 24.9956 14.9504 25.4996 13.4805 25.4996C13.2227 25.4996 12.9755 25.4881 12.7283 25.4565C14.1206 26.3544 15.7706 26.867 17.55 26.867C23.3339 26.867 26.496 22.0759 26.496 17.923C26.496 17.784 26.4912 17.6499 26.4845 17.5167C27.1083 17.074 27.6324 16.5211 28.0598 15.8849Z" fill="white"/>
</g>
<defs>
<clipPath id="clip0_947_60">
<rect width="15.3315" height="15.3315" fill="white" transform="translate(12.7283 12.9727)"/>
</clipPath>
</defs>
</svg>
