<svg width="272" height="272" viewBox="0 0 272 272" fill="none" xmlns="http://www.w3.org/2000/svg">
<mask id="path-1-inside-1_221_4939" fill="white">
<path d="M20.4037 213.84H105.605L101.85 225.894C97.7682 226.37 94.0034 228.328 91.2692 231.395C88.5351 234.463 87.0217 238.427 87.0161 242.536V252.919C87.0161 254.609 87.6877 256.231 88.8833 257.426C90.0788 258.622 91.7003 259.294 93.3911 259.294H178.609C180.3 259.294 181.921 258.622 183.117 257.426C184.312 256.231 184.984 254.609 184.984 252.919V242.536C184.978 238.427 183.465 234.463 180.731 231.395C177.997 228.327 174.232 226.37 170.15 225.893L166.395 213.84H251.596C257.006 213.834 262.192 211.682 266.017 207.857C269.842 204.032 271.994 198.846 272 193.437V33.1101C271.994 27.7006 269.842 22.5143 266.017 18.6892C262.192 14.8641 257.006 12.7125 251.596 12.7064H20.4037C14.9942 12.7125 9.80792 14.8641 5.98279 18.6892C2.15766 22.5143 0.00604631 27.7006 0 33.1101L0 193.437C0.0061869 198.846 2.15786 204.032 5.98298 207.857C9.80809 211.682 14.9943 213.834 20.4037 213.84ZM172.235 242.536V246.544H99.7688V242.536C99.783 241.479 100.209 240.468 100.957 239.72C101.705 238.972 102.715 238.546 103.773 238.531H168.227C169.285 238.545 170.296 238.971 171.045 239.719C171.793 240.468 172.22 241.478 172.234 242.536H172.235ZM153.134 214.142L156.76 225.781H115.24L118.866 214.143C118.897 214.042 118.919 213.942 118.943 213.841H153.057C153.083 213.941 153.103 214.041 153.134 214.142ZM12.75 33.1101C12.7522 31.0809 13.5593 29.1355 14.9942 27.7006C16.4291 26.2658 18.3745 25.4587 20.4037 25.4564H251.596C253.625 25.4587 255.571 26.2658 257.006 27.7006C258.441 29.1355 259.248 31.0809 259.25 33.1101V193.437C259.248 195.466 258.44 197.411 257.006 198.846C255.571 200.281 253.625 201.088 251.596 201.09H20.4037C18.3746 201.088 16.4292 200.281 14.9944 198.846C13.5595 197.411 12.7524 195.466 12.75 193.437V33.1101ZM101.119 143.437C102.424 144.422 103.477 145.702 104.189 147.173C104.902 148.644 105.255 150.263 105.219 151.897V161.202C105.226 167.18 107.603 172.911 111.83 177.138C116.057 181.365 121.788 183.743 127.766 183.75H144.234C150.212 183.744 155.943 181.366 160.17 177.139C164.397 172.912 166.775 167.181 166.782 161.203V151.898C166.745 150.264 167.098 148.644 167.81 147.173C168.523 145.702 169.575 144.422 170.88 143.437C172.623 142.06 174.284 140.583 175.855 139.013C183.738 131.13 189.107 121.087 191.283 110.153C193.458 99.2186 192.342 87.8851 188.076 77.5853C183.81 67.2854 176.586 58.482 167.316 52.2882C158.047 46.0944 147.149 42.7884 136.001 42.7884C124.852 42.7884 113.954 46.0944 104.685 52.2882C95.4154 58.482 88.1909 67.2854 83.9249 77.5853C79.6589 87.8851 78.543 99.2186 80.7184 110.153C82.8938 121.087 88.2627 131.13 96.1462 139.013C97.7164 140.583 99.3769 142.061 101.119 143.437ZM154.032 161.202C154.029 163.8 152.996 166.29 151.159 168.127C149.322 169.964 146.832 170.997 144.234 171H127.766C125.168 170.997 122.678 169.964 120.841 168.127C119.004 166.291 117.971 163.801 117.968 161.203V151.898C117.969 150.987 117.919 150.077 117.819 149.172H154.179C154.079 150.077 154.029 150.987 154.03 151.898L154.032 161.202ZM136 99.4372C135.676 99.4372 135.359 99.3412 135.09 99.1612C134.821 98.9812 134.611 98.7254 134.487 98.4262C134.363 98.1269 134.33 97.7976 134.394 97.4799C134.457 97.1621 134.613 96.8703 134.842 96.6413C135.071 96.4122 135.363 96.2562 135.68 96.193C135.998 96.1298 136.327 96.1623 136.627 96.2862C136.926 96.4102 137.182 96.6201 137.362 96.8895C137.542 97.1588 137.638 97.4755 137.638 97.7994C137.632 98.232 137.458 98.6452 137.152 98.9511C136.846 99.257 136.433 99.4315 136 99.4372ZM105.161 68.3187C113.37 60.2868 124.416 55.8171 135.901 55.8799C147.386 55.9426 158.383 60.5328 166.504 68.6539C174.625 76.7751 179.215 87.7717 179.278 99.2565C179.341 110.741 174.871 121.787 166.839 129.997C165.62 131.215 164.332 132.361 162.98 133.429C161.838 134.331 160.78 135.332 159.816 136.421H142.375V110.693C145.286 109.254 147.624 106.873 149.011 103.937C150.397 101.001 150.749 97.6827 150.011 94.5211C149.272 91.3594 147.486 88.5405 144.942 86.5226C142.398 84.5048 139.247 83.4066 136 83.4066C132.753 83.4066 129.602 84.5048 127.058 86.5226C124.514 88.5405 122.728 91.3594 121.989 94.5211C121.251 97.6827 121.603 101.001 122.989 103.937C124.376 106.873 126.714 109.254 129.625 110.693V136.425H112.182C111.219 135.336 110.161 134.334 109.019 133.433C107.667 132.365 106.379 131.219 105.161 130.001C96.9927 121.815 92.4053 110.724 92.4053 99.1597C92.4053 87.5958 96.9927 76.5043 105.161 68.3187Z"/>
</mask>
<path d="M20.4037 213.84H105.605L101.85 225.894C97.7682 226.37 94.0034 228.328 91.2692 231.395C88.5351 234.463 87.0217 238.427 87.0161 242.536V252.919C87.0161 254.609 87.6877 256.231 88.8833 257.426C90.0788 258.622 91.7003 259.294 93.3911 259.294H178.609C180.3 259.294 181.921 258.622 183.117 257.426C184.312 256.231 184.984 254.609 184.984 252.919V242.536C184.978 238.427 183.465 234.463 180.731 231.395C177.997 228.327 174.232 226.37 170.15 225.893L166.395 213.84H251.596C257.006 213.834 262.192 211.682 266.017 207.857C269.842 204.032 271.994 198.846 272 193.437V33.1101C271.994 27.7006 269.842 22.5143 266.017 18.6892C262.192 14.8641 257.006 12.7125 251.596 12.7064H20.4037C14.9942 12.7125 9.80792 14.8641 5.98279 18.6892C2.15766 22.5143 0.00604631 27.7006 0 33.1101L0 193.437C0.0061869 198.846 2.15786 204.032 5.98298 207.857C9.80809 211.682 14.9943 213.834 20.4037 213.84ZM172.235 242.536V246.544H99.7688V242.536C99.783 241.479 100.209 240.468 100.957 239.72C101.705 238.972 102.715 238.546 103.773 238.531H168.227C169.285 238.545 170.296 238.971 171.045 239.719C171.793 240.468 172.22 241.478 172.234 242.536H172.235ZM153.134 214.142L156.76 225.781H115.24L118.866 214.143C118.897 214.042 118.919 213.942 118.943 213.841H153.057C153.083 213.941 153.103 214.041 153.134 214.142ZM12.75 33.1101C12.7522 31.0809 13.5593 29.1355 14.9942 27.7006C16.4291 26.2658 18.3745 25.4587 20.4037 25.4564H251.596C253.625 25.4587 255.571 26.2658 257.006 27.7006C258.441 29.1355 259.248 31.0809 259.25 33.1101V193.437C259.248 195.466 258.44 197.411 257.006 198.846C255.571 200.281 253.625 201.088 251.596 201.09H20.4037C18.3746 201.088 16.4292 200.281 14.9944 198.846C13.5595 197.411 12.7524 195.466 12.75 193.437V33.1101ZM101.119 143.437C102.424 144.422 103.477 145.702 104.189 147.173C104.902 148.644 105.255 150.263 105.219 151.897V161.202C105.226 167.18 107.603 172.911 111.83 177.138C116.057 181.365 121.788 183.743 127.766 183.75H144.234C150.212 183.744 155.943 181.366 160.17 177.139C164.397 172.912 166.775 167.181 166.782 161.203V151.898C166.745 150.264 167.098 148.644 167.81 147.173C168.523 145.702 169.575 144.422 170.88 143.437C172.623 142.06 174.284 140.583 175.855 139.013C183.738 131.13 189.107 121.087 191.283 110.153C193.458 99.2186 192.342 87.8851 188.076 77.5853C183.81 67.2854 176.586 58.482 167.316 52.2882C158.047 46.0944 147.149 42.7884 136.001 42.7884C124.852 42.7884 113.954 46.0944 104.685 52.2882C95.4154 58.482 88.1909 67.2854 83.9249 77.5853C79.6589 87.8851 78.543 99.2186 80.7184 110.153C82.8938 121.087 88.2627 131.13 96.1462 139.013C97.7164 140.583 99.3769 142.061 101.119 143.437ZM154.032 161.202C154.029 163.8 152.996 166.29 151.159 168.127C149.322 169.964 146.832 170.997 144.234 171H127.766C125.168 170.997 122.678 169.964 120.841 168.127C119.004 166.291 117.971 163.801 117.968 161.203V151.898C117.969 150.987 117.919 150.077 117.819 149.172H154.179C154.079 150.077 154.029 150.987 154.03 151.898L154.032 161.202ZM136 99.4372C135.676 99.4372 135.359 99.3412 135.09 99.1612C134.821 98.9812 134.611 98.7254 134.487 98.4262C134.363 98.1269 134.33 97.7976 134.394 97.4799C134.457 97.1621 134.613 96.8703 134.842 96.6413C135.071 96.4122 135.363 96.2562 135.68 96.193C135.998 96.1298 136.327 96.1623 136.627 96.2862C136.926 96.4102 137.182 96.6201 137.362 96.8895C137.542 97.1588 137.638 97.4755 137.638 97.7994C137.632 98.232 137.458 98.6452 137.152 98.9511C136.846 99.257 136.433 99.4315 136 99.4372ZM105.161 68.3187C113.37 60.2868 124.416 55.8171 135.901 55.8799C147.386 55.9426 158.383 60.5328 166.504 68.6539C174.625 76.7751 179.215 87.7717 179.278 99.2565C179.341 110.741 174.871 121.787 166.839 129.997C165.62 131.215 164.332 132.361 162.98 133.429C161.838 134.331 160.78 135.332 159.816 136.421H142.375V110.693C145.286 109.254 147.624 106.873 149.011 103.937C150.397 101.001 150.749 97.6827 150.011 94.5211C149.272 91.3594 147.486 88.5405 144.942 86.5226C142.398 84.5048 139.247 83.4066 136 83.4066C132.753 83.4066 129.602 84.5048 127.058 86.5226C124.514 88.5405 122.728 91.3594 121.989 94.5211C121.251 97.6827 121.603 101.001 122.989 103.937C124.376 106.873 126.714 109.254 129.625 110.693V136.425H112.182C111.219 135.336 110.161 134.334 109.019 133.433C107.667 132.365 106.379 131.219 105.161 130.001C96.9927 121.815 92.4053 110.724 92.4053 99.1597C92.4053 87.5958 96.9927 76.5043 105.161 68.3187Z" fill="#FF9700" stroke="white" stroke-width="2" mask="url(#path-1-inside-1_221_4939)"/>
</svg>
