<svg width="256" height="256" viewBox="0 0 256 256" fill="none" xmlns="http://www.w3.org/2000/svg">
<g clip-path="url(#clip0_221_4942)">
<mask id="path-1-inside-1_221_4942" fill="white">
<path d="M57.5125 180.47H68.9C77.658 208.865 104.146 229.559 135.378 229.559C151.059 229.574 166.281 224.263 178.55 214.496L179.79 215.737L178.949 216.577C177.449 218.077 176.606 220.112 176.606 222.234C176.606 224.355 177.449 226.39 178.949 227.891L202.034 250.976C203.63 252.572 205.525 253.838 207.61 254.702C209.696 255.566 211.931 256.01 214.188 256.01C216.446 256.01 218.681 255.566 220.766 254.702C222.852 253.838 224.747 252.572 226.343 250.976C227.939 249.38 229.205 247.485 230.069 245.4C230.933 243.314 231.378 241.079 231.378 238.822C231.378 236.564 230.933 234.329 230.07 232.244C229.206 230.158 227.94 228.263 226.344 226.667L203.26 203.582C201.76 202.081 199.725 201.238 197.603 201.238C195.482 201.238 193.447 202.081 191.947 203.582L191.105 204.423L189.865 203.183C195.263 196.394 199.341 188.653 201.888 180.362C214.127 179.602 225.762 174.774 234.942 166.644C244.123 158.515 250.323 147.55 252.557 135.492C254.792 123.435 252.932 110.976 247.274 100.097C241.616 89.2175 232.484 80.5413 221.329 75.447C224.455 69.4714 225.581 62.65 224.541 55.9867C223.5 49.3234 220.348 43.1701 215.549 38.4322C210.749 33.6944 204.555 30.6224 197.879 29.6681C191.203 28.7139 184.397 29.9279 178.462 33.1315C174.57 24.1493 168.351 16.3687 160.447 10.5933C152.543 4.8178 143.24 1.2568 133.5 0.277957C123.76 -0.700884 113.935 0.937914 105.04 5.02513C96.1446 9.11235 88.5016 15.4998 82.9 23.528C82.27 23.5067 81.6403 23.4959 81.011 23.4955C66.431 23.5113 52.4525 29.31 42.1426 39.6194C31.8328 49.9288 26.0334 63.907 26.017 78.487C26.017 79.115 26.0278 79.7447 26.0495 80.376C16.4511 87.0721 9.23927 96.6557 5.46291 107.733C1.68655 118.81 1.54264 130.803 5.0521 141.968C8.56156 153.133 15.5414 162.887 24.9763 169.811C34.4112 176.735 45.8092 180.469 57.5125 180.47ZM215.031 237.98C215.247 238.207 215.368 238.508 215.368 238.822C215.368 239.135 215.247 239.436 215.031 239.663C214.805 239.879 214.504 240 214.191 240C213.878 240 213.576 239.879 213.35 239.663L195.921 222.235L197.604 220.553L215.031 237.98ZM81.8275 160.009C81.8275 149.418 84.9682 139.064 90.8523 130.258C96.7365 121.452 105.1 114.588 114.885 110.535C124.67 106.482 135.437 105.422 145.825 107.488C156.212 109.554 165.754 114.654 173.243 122.143C180.732 129.633 185.832 139.174 187.899 149.562C189.965 159.95 188.904 170.717 184.851 180.502C180.798 190.287 173.935 198.65 165.128 204.534C156.322 210.418 145.969 213.559 135.378 213.559C121.18 213.543 107.569 207.896 97.5299 197.857C87.4909 187.818 81.8438 174.206 81.8275 160.009ZM38.346 91.517C39.7302 90.7338 40.8495 89.5558 41.561 88.1334C42.2725 86.711 42.5439 85.1089 42.3405 83.5315C42.1254 81.8586 42.0174 80.1737 42.017 78.487C42.0286 68.1494 46.1404 58.2385 53.4502 50.9287C60.76 43.6189 70.6709 39.5072 81.0085 39.4955C82.6948 39.4958 84.3794 39.6038 86.052 39.819C87.6295 40.0226 89.2319 39.7513 90.6544 39.0398C92.077 38.3283 93.2552 37.2089 94.0385 35.8245C97.9992 28.8116 104.034 23.1968 111.314 19.7515C118.594 16.3062 126.762 15.1993 134.697 16.5829C142.631 17.9665 149.942 21.7726 155.627 27.4786C161.311 33.1845 165.089 40.5104 166.443 48.45C166.705 50.0058 167.421 51.4492 168.502 52.5988C169.583 53.7484 170.979 54.5528 172.516 54.9108C174.052 55.2689 175.66 55.1646 177.138 54.6111C178.615 54.0576 179.896 53.0795 180.819 51.8C182.117 49.9959 183.788 48.4922 185.719 47.3908C187.649 46.2895 189.794 45.6163 192.008 45.417C194.221 45.2177 196.452 45.497 198.548 46.2358C200.644 46.9746 202.557 48.1557 204.156 49.699C205.756 51.2422 207.005 53.1115 207.818 55.1799C208.631 57.2484 208.99 59.4675 208.87 61.6869C208.75 63.9062 208.154 66.0738 207.122 68.0424C206.091 70.0111 204.648 71.7348 202.891 73.0965C201.681 74.0365 200.766 75.3042 200.256 76.7489C199.745 78.1937 199.66 79.7546 200.011 81.2462C200.362 82.7378 201.134 84.0972 202.235 85.1629C203.336 86.2285 204.72 86.9556 206.222 87.2575C215.161 89.0679 223.183 93.9547 228.892 101.068C234.601 108.181 237.636 117.071 237.469 126.19C237.301 135.309 233.943 144.081 227.977 150.98C222.011 157.879 213.815 162.469 204.815 163.95C204.888 162.646 204.928 161.333 204.928 160.011C204.928 121.661 173.728 90.461 135.378 90.461C97.0285 90.461 65.8285 121.661 65.8285 160.011C65.8285 161.511 65.882 162.996 65.9755 164.472H57.5125C48.8958 164.471 40.5217 161.617 33.6985 156.355C26.8752 151.093 21.987 143.719 19.7976 135.385C17.6081 127.051 18.2406 118.227 21.5963 110.29C24.952 102.354 30.842 95.7523 38.346 91.517ZM165.49 159.987L150.423 175.053C148.922 176.553 146.887 177.396 144.766 177.396C142.644 177.396 140.609 176.553 139.109 175.053L125.99 161.935L102.95 184.976C102.209 185.726 101.327 186.323 100.354 186.731C99.3815 187.139 98.3378 187.35 97.2832 187.354C96.2285 187.357 95.1837 187.151 94.2087 186.749C93.2337 186.347 92.3478 185.756 91.6021 185.01C90.8563 184.265 90.2654 183.379 89.8632 182.404C89.4611 181.429 89.2557 180.384 89.2589 179.329C89.2621 178.275 89.4739 177.231 89.8819 176.259C90.2899 175.286 90.8862 174.404 91.6365 173.663L120.337 144.963C121.837 143.462 123.872 142.619 125.993 142.619C128.115 142.619 130.15 143.462 131.65 144.963L144.769 158.081L154.179 148.671C152.107 148.538 150.169 147.604 148.773 146.067C147.378 144.53 146.634 142.511 146.701 140.436C146.768 138.361 147.639 136.393 149.13 134.949C150.621 133.504 152.616 132.697 154.691 132.697H173.467C175.589 132.697 177.624 133.539 179.124 135.04C180.624 136.54 181.467 138.575 181.467 140.697V159.472C181.467 161.548 180.659 163.543 179.215 165.034C177.77 166.525 175.803 167.396 173.728 167.463C171.653 167.529 169.633 166.786 168.097 165.39C166.56 163.995 165.626 162.056 165.492 159.985L165.49 159.987Z"/>
</mask>
<path d="M57.5125 180.47H68.9C77.658 208.865 104.146 229.559 135.378 229.559C151.059 229.574 166.281 224.263 178.55 214.496L179.79 215.737L178.949 216.577C177.449 218.077 176.606 220.112 176.606 222.234C176.606 224.355 177.449 226.39 178.949 227.891L202.034 250.976C203.63 252.572 205.525 253.838 207.61 254.702C209.696 255.566 211.931 256.01 214.188 256.01C216.446 256.01 218.681 255.566 220.766 254.702C222.852 253.838 224.747 252.572 226.343 250.976C227.939 249.38 229.205 247.485 230.069 245.4C230.933 243.314 231.378 241.079 231.378 238.822C231.378 236.564 230.933 234.329 230.07 232.244C229.206 230.158 227.94 228.263 226.344 226.667L203.26 203.582C201.76 202.081 199.725 201.238 197.603 201.238C195.482 201.238 193.447 202.081 191.947 203.582L191.105 204.423L189.865 203.183C195.263 196.394 199.341 188.653 201.888 180.362C214.127 179.602 225.762 174.774 234.942 166.644C244.123 158.515 250.323 147.55 252.557 135.492C254.792 123.435 252.932 110.976 247.274 100.097C241.616 89.2175 232.484 80.5413 221.329 75.447C224.455 69.4714 225.581 62.65 224.541 55.9867C223.5 49.3234 220.348 43.1701 215.549 38.4322C210.749 33.6944 204.555 30.6224 197.879 29.6681C191.203 28.7139 184.397 29.9279 178.462 33.1315C174.57 24.1493 168.351 16.3687 160.447 10.5933C152.543 4.8178 143.24 1.2568 133.5 0.277957C123.76 -0.700884 113.935 0.937914 105.04 5.02513C96.1446 9.11235 88.5016 15.4998 82.9 23.528C82.27 23.5067 81.6403 23.4959 81.011 23.4955C66.431 23.5113 52.4525 29.31 42.1426 39.6194C31.8328 49.9288 26.0334 63.907 26.017 78.487C26.017 79.115 26.0278 79.7447 26.0495 80.376C16.4511 87.0721 9.23927 96.6557 5.46291 107.733C1.68655 118.81 1.54264 130.803 5.0521 141.968C8.56156 153.133 15.5414 162.887 24.9763 169.811C34.4112 176.735 45.8092 180.469 57.5125 180.47ZM215.031 237.98C215.247 238.207 215.368 238.508 215.368 238.822C215.368 239.135 215.247 239.436 215.031 239.663C214.805 239.879 214.504 240 214.191 240C213.878 240 213.576 239.879 213.35 239.663L195.921 222.235L197.604 220.553L215.031 237.98ZM81.8275 160.009C81.8275 149.418 84.9682 139.064 90.8523 130.258C96.7365 121.452 105.1 114.588 114.885 110.535C124.67 106.482 135.437 105.422 145.825 107.488C156.212 109.554 165.754 114.654 173.243 122.143C180.732 129.633 185.832 139.174 187.899 149.562C189.965 159.95 188.904 170.717 184.851 180.502C180.798 190.287 173.935 198.65 165.128 204.534C156.322 210.418 145.969 213.559 135.378 213.559C121.18 213.543 107.569 207.896 97.5299 197.857C87.4909 187.818 81.8438 174.206 81.8275 160.009ZM38.346 91.517C39.7302 90.7338 40.8495 89.5558 41.561 88.1334C42.2725 86.711 42.5439 85.1089 42.3405 83.5315C42.1254 81.8586 42.0174 80.1737 42.017 78.487C42.0286 68.1494 46.1404 58.2385 53.4502 50.9287C60.76 43.6189 70.6709 39.5072 81.0085 39.4955C82.6948 39.4958 84.3794 39.6038 86.052 39.819C87.6295 40.0226 89.2319 39.7513 90.6544 39.0398C92.077 38.3283 93.2552 37.2089 94.0385 35.8245C97.9992 28.8116 104.034 23.1968 111.314 19.7515C118.594 16.3062 126.762 15.1993 134.697 16.5829C142.631 17.9665 149.942 21.7726 155.627 27.4786C161.311 33.1845 165.089 40.5104 166.443 48.45C166.705 50.0058 167.421 51.4492 168.502 52.5988C169.583 53.7484 170.979 54.5528 172.516 54.9108C174.052 55.2689 175.66 55.1646 177.138 54.6111C178.615 54.0576 179.896 53.0795 180.819 51.8C182.117 49.9959 183.788 48.4922 185.719 47.3908C187.649 46.2895 189.794 45.6163 192.008 45.417C194.221 45.2177 196.452 45.497 198.548 46.2358C200.644 46.9746 202.557 48.1557 204.156 49.699C205.756 51.2422 207.005 53.1115 207.818 55.1799C208.631 57.2484 208.99 59.4675 208.87 61.6869C208.75 63.9062 208.154 66.0738 207.122 68.0424C206.091 70.0111 204.648 71.7348 202.891 73.0965C201.681 74.0365 200.766 75.3042 200.256 76.7489C199.745 78.1937 199.66 79.7546 200.011 81.2462C200.362 82.7378 201.134 84.0972 202.235 85.1629C203.336 86.2285 204.72 86.9556 206.222 87.2575C215.161 89.0679 223.183 93.9547 228.892 101.068C234.601 108.181 237.636 117.071 237.469 126.19C237.301 135.309 233.943 144.081 227.977 150.98C222.011 157.879 213.815 162.469 204.815 163.95C204.888 162.646 204.928 161.333 204.928 160.011C204.928 121.661 173.728 90.461 135.378 90.461C97.0285 90.461 65.8285 121.661 65.8285 160.011C65.8285 161.511 65.882 162.996 65.9755 164.472H57.5125C48.8958 164.471 40.5217 161.617 33.6985 156.355C26.8752 151.093 21.987 143.719 19.7976 135.385C17.6081 127.051 18.2406 118.227 21.5963 110.29C24.952 102.354 30.842 95.7523 38.346 91.517ZM165.49 159.987L150.423 175.053C148.922 176.553 146.887 177.396 144.766 177.396C142.644 177.396 140.609 176.553 139.109 175.053L125.99 161.935L102.95 184.976C102.209 185.726 101.327 186.323 100.354 186.731C99.3815 187.139 98.3378 187.35 97.2832 187.354C96.2285 187.357 95.1837 187.151 94.2087 186.749C93.2337 186.347 92.3478 185.756 91.6021 185.01C90.8563 184.265 90.2654 183.379 89.8632 182.404C89.4611 181.429 89.2557 180.384 89.2589 179.329C89.2621 178.275 89.4739 177.231 89.8819 176.259C90.2899 175.286 90.8862 174.404 91.6365 173.663L120.337 144.963C121.837 143.462 123.872 142.619 125.993 142.619C128.115 142.619 130.15 143.462 131.65 144.963L144.769 158.081L154.179 148.671C152.107 148.538 150.169 147.604 148.773 146.067C147.378 144.53 146.634 142.511 146.701 140.436C146.768 138.361 147.639 136.393 149.13 134.949C150.621 133.504 152.616 132.697 154.691 132.697H173.467C175.589 132.697 177.624 133.539 179.124 135.04C180.624 136.54 181.467 138.575 181.467 140.697V159.472C181.467 161.548 180.659 163.543 179.215 165.034C177.77 166.525 175.803 167.396 173.728 167.463C171.653 167.529 169.633 166.786 168.097 165.39C166.56 163.995 165.626 162.056 165.492 159.985L165.49 159.987Z" fill="black" stroke="white" stroke-width="6" mask="url(#path-1-inside-1_221_4942)"/>
</g>
<defs>
<clipPath id="clip0_221_4942">
<rect width="256" height="256" fill="white"/>
</clipPath>
</defs>
</svg>
