<svg width="272" height="272" viewBox="0 0 272 272" fill="none" xmlns="http://www.w3.org/2000/svg">
<g clip-path="url(#clip0_221_4945)">
<mask id="path-1-outside-1_221_4945" maskUnits="userSpaceOnUse" x="-1.00308" y="-2" width="256" height="259" fill="black">
<rect fill="white" x="-1.00308" y="-2" width="256" height="259"/>
<path d="M10.4596 56.5118C9.91905 50.3845 10.2762 44.2111 11.5196 38.187C13.1834 30.6839 16.4504 24.4551 21.2281 19.6792C27.9227 12.9794 37.3375 9.30742 49.1747 8.76371C54.9084 8.54848 60.6488 8.9398 66.3002 9.93116L67.8052 1.37276C61.5375 0.273028 55.1708 -0.159279 48.812 0.0830787C34.706 0.734224 23.3577 5.25875 15.0868 13.5366C9.11254 19.5087 5.05517 27.1785 3.0317 36.3419C3.02822 36.3589 3.023 36.3776 3.01952 36.3941C1.59701 43.2576 1.18829 50.2926 1.8064 57.2747L10.4596 56.5118ZM29.5134 113.28C26.8966 108.506 24.4973 103.707 22.3803 99.0145L14.4609 102.588C16.6697 107.482 19.1707 112.486 21.8962 117.456L29.5134 113.28ZM4.33225 73.2989C5.42163 77.9536 6.74532 82.5504 8.29828 87.0717L16.52 84.2631C15.0616 80.0203 13.8186 75.7064 12.7958 71.338L4.33225 73.2989ZM63.439 161.125C63.0602 160.692 62.6826 160.261 62.3072 159.829L55.7506 165.525C56.1346 165.969 56.5204 166.412 56.911 166.855C59.1464 169.4 61.4211 171.909 63.7344 174.383C64.7792 175.498 65.8315 176.607 66.8914 177.708L73.1527 171.684C69.8364 168.238 66.5977 164.717 63.439 161.125ZM45.2539 152.76L52.1112 147.428C51.4825 146.618 50.8583 145.805 50.2387 144.988C47.622 141.548 45.0852 138.048 42.6302 134.491L35.4772 139.422C38.0083 143.089 40.6239 146.698 43.3218 150.244C43.9601 151.087 44.604 151.926 45.2535 152.76L45.2539 152.76ZM74.2806 185.146C82.4878 193.155 91.1245 200.712 100.152 207.783C112.395 217.419 125.464 225.957 139.206 233.298C147.233 237.571 155.551 241.272 164.098 244.375L156.163 246.647L158.552 254.999L180.766 248.643C183.071 247.984 184.405 245.578 183.746 243.27L177.958 223.038L169.604 225.427L173.283 238.28C162.913 234.999 152.869 230.762 143.281 225.626C129.993 218.527 117.357 210.27 105.519 200.951C96.7358 194.072 88.3327 186.722 80.3471 178.931L74.2806 185.146ZM252.259 186.567C250.485 175.485 246.82 163.565 241.364 151.136L233.409 154.627C238.568 166.38 242.022 177.59 243.678 187.938C246.788 207.365 243.373 222.69 233.805 232.261C229.066 236.999 222.904 240.248 215.487 241.92C209.491 243.269 202.693 243.59 195.276 242.88C193.448 242.705 191.562 242.462 189.669 242.163L188.313 250.743C190.376 251.069 192.441 251.333 194.447 251.526C197.273 251.797 200.025 251.932 202.705 251.932C207.644 251.962 212.571 251.446 217.397 250.393C226.443 248.353 234.029 244.319 239.947 238.401C251.567 226.781 255.824 208.859 252.259 186.567H252.259ZM231.198 131.019L223.651 135.32C225.709 138.927 227.664 142.591 229.515 146.309L237.296 142.446C235.375 138.579 233.341 134.768 231.198 131.019ZM211.034 100.821L204.132 106.098C207.381 110.349 210.515 114.687 213.53 119.108L220.71 114.216C217.606 109.665 214.379 105.198 211.034 100.821ZM189.557 75.7129L183.275 81.7111C186.97 85.5824 190.558 89.5533 194.036 93.6197L200.639 87.9738C197.056 83.7876 193.361 79.6991 189.557 75.7129ZM81.9064 30.5664L90.4013 28.7504L87.5967 15.6284C95.5695 18.4566 103.326 21.8615 110.804 25.8162C123.92 32.7403 136.404 40.7998 148.113 49.9024C153.633 54.1621 159.194 58.7849 164.64 63.6396C169.072 67.5993 173.393 71.6827 177.596 75.8848L183.738 69.7426C182.407 68.4118 181.065 67.0926 179.711 65.7853C176.672 62.8488 173.577 59.9717 170.427 57.1555C164.827 52.1656 159.106 47.4096 153.436 43.0348C147.914 38.7408 142.197 34.6734 136.332 30.8231C139.604 28.9747 142.924 27.2116 146.288 25.5356L142.423 17.7553C138.525 19.6892 134.546 21.8197 130.597 24.0828L133.356 28.8979C127.339 25.0643 121.17 21.4735 114.865 18.1342C109.251 15.1705 103.487 12.4994 97.597 10.1317L105.252 8.49708L103.44 0L80.8481 4.829C80.2903 4.94804 79.7613 5.17581 79.2915 5.49931C78.8217 5.82281 78.4202 6.23569 78.11 6.71438C77.7998 7.19307 77.5869 7.72819 77.4836 8.28916C77.3802 8.85013 77.3884 9.42598 77.5076 9.98379L81.9064 30.5664ZM1.35055 187.246C0.250641 193.514 -0.180943 199.881 0.0630523 206.24C0.710283 220.345 5.23481 231.691 13.5144 239.968C19.4865 245.942 27.1615 249.995 36.3197 252.018C36.3371 252.019 36.3554 252.024 36.3758 252.028C41.1663 253.022 46.046 253.523 50.9385 253.523C53.0438 253.523 55.149 253.431 57.2525 253.246L56.4896 244.589C50.3623 245.132 44.1884 244.775 38.1648 243.527C30.6599 241.869 24.4329 238.605 19.657 233.825C12.959 227.128 9.28565 217.711 8.74195 205.877C8.52499 200.142 8.91617 194.401 9.90896 188.749L1.35055 187.246ZM102.565 240.589C107.464 238.382 112.466 235.878 117.432 233.156L113.26 225.539C108.487 228.154 103.687 230.554 98.9924 232.67L102.565 240.589ZM73.2767 250.719C77.9315 249.63 82.5283 248.307 87.0495 246.754L84.2409 238.53C79.998 239.989 75.6842 241.232 71.3158 242.256L73.2767 250.719ZM159.808 192.741L165.501 199.303C165.948 198.918 166.392 198.53 166.835 198.141C169.378 195.904 171.887 193.629 174.362 191.318C175.478 190.272 176.587 189.219 177.689 188.159L171.664 181.9C170.593 182.932 169.513 183.956 168.426 184.971C166.019 187.223 163.577 189.437 161.101 191.612C160.671 191.99 160.241 192.368 159.808 192.741Z"/>
</mask>
<path d="M10.4596 56.5118C9.91905 50.3845 10.2762 44.2111 11.5196 38.187C13.1834 30.6839 16.4504 24.4551 21.2281 19.6792C27.9227 12.9794 37.3375 9.30742 49.1747 8.76371C54.9084 8.54848 60.6488 8.9398 66.3002 9.93116L67.8052 1.37276C61.5375 0.273028 55.1708 -0.159279 48.812 0.0830787C34.706 0.734224 23.3577 5.25875 15.0868 13.5366C9.11254 19.5087 5.05517 27.1785 3.0317 36.3419C3.02822 36.3589 3.023 36.3776 3.01952 36.3941C1.59701 43.2576 1.18829 50.2926 1.8064 57.2747L10.4596 56.5118ZM29.5134 113.28C26.8966 108.506 24.4973 103.707 22.3803 99.0145L14.4609 102.588C16.6697 107.482 19.1707 112.486 21.8962 117.456L29.5134 113.28ZM4.33225 73.2989C5.42163 77.9536 6.74532 82.5504 8.29828 87.0717L16.52 84.2631C15.0616 80.0203 13.8186 75.7064 12.7958 71.338L4.33225 73.2989ZM63.439 161.125C63.0602 160.692 62.6826 160.261 62.3072 159.829L55.7506 165.525C56.1346 165.969 56.5204 166.412 56.911 166.855C59.1464 169.4 61.4211 171.909 63.7344 174.383C64.7792 175.498 65.8315 176.607 66.8914 177.708L73.1527 171.684C69.8364 168.238 66.5977 164.717 63.439 161.125ZM45.2539 152.76L52.1112 147.428C51.4825 146.618 50.8583 145.805 50.2387 144.988C47.622 141.548 45.0852 138.048 42.6302 134.491L35.4772 139.422C38.0083 143.089 40.6239 146.698 43.3218 150.244C43.9601 151.087 44.604 151.926 45.2535 152.76L45.2539 152.76ZM74.2806 185.146C82.4878 193.155 91.1245 200.712 100.152 207.783C112.395 217.419 125.464 225.957 139.206 233.298C147.233 237.571 155.551 241.272 164.098 244.375L156.163 246.647L158.552 254.999L180.766 248.643C183.071 247.984 184.405 245.578 183.746 243.27L177.958 223.038L169.604 225.427L173.283 238.28C162.913 234.999 152.869 230.762 143.281 225.626C129.993 218.527 117.357 210.27 105.519 200.951C96.7358 194.072 88.3327 186.722 80.3471 178.931L74.2806 185.146ZM252.259 186.567C250.485 175.485 246.82 163.565 241.364 151.136L233.409 154.627C238.568 166.38 242.022 177.59 243.678 187.938C246.788 207.365 243.373 222.69 233.805 232.261C229.066 236.999 222.904 240.248 215.487 241.92C209.491 243.269 202.693 243.59 195.276 242.88C193.448 242.705 191.562 242.462 189.669 242.163L188.313 250.743C190.376 251.069 192.441 251.333 194.447 251.526C197.273 251.797 200.025 251.932 202.705 251.932C207.644 251.962 212.571 251.446 217.397 250.393C226.443 248.353 234.029 244.319 239.947 238.401C251.567 226.781 255.824 208.859 252.259 186.567H252.259ZM231.198 131.019L223.651 135.32C225.709 138.927 227.664 142.591 229.515 146.309L237.296 142.446C235.375 138.579 233.341 134.768 231.198 131.019ZM211.034 100.821L204.132 106.098C207.381 110.349 210.515 114.687 213.53 119.108L220.71 114.216C217.606 109.665 214.379 105.198 211.034 100.821ZM189.557 75.7129L183.275 81.7111C186.97 85.5824 190.558 89.5533 194.036 93.6197L200.639 87.9738C197.056 83.7876 193.361 79.6991 189.557 75.7129ZM81.9064 30.5664L90.4013 28.7504L87.5967 15.6284C95.5695 18.4566 103.326 21.8615 110.804 25.8162C123.92 32.7403 136.404 40.7998 148.113 49.9024C153.633 54.1621 159.194 58.7849 164.64 63.6396C169.072 67.5993 173.393 71.6827 177.596 75.8848L183.738 69.7426C182.407 68.4118 181.065 67.0926 179.711 65.7853C176.672 62.8488 173.577 59.9717 170.427 57.1555C164.827 52.1656 159.106 47.4096 153.436 43.0348C147.914 38.7408 142.197 34.6734 136.332 30.8231C139.604 28.9747 142.924 27.2116 146.288 25.5356L142.423 17.7553C138.525 19.6892 134.546 21.8197 130.597 24.0828L133.356 28.8979C127.339 25.0643 121.17 21.4735 114.865 18.1342C109.251 15.1705 103.487 12.4994 97.597 10.1317L105.252 8.49708L103.44 0L80.8481 4.829C80.2903 4.94804 79.7613 5.17581 79.2915 5.49931C78.8217 5.82281 78.4202 6.23569 78.11 6.71438C77.7998 7.19307 77.5869 7.72819 77.4836 8.28916C77.3802 8.85013 77.3884 9.42598 77.5076 9.98379L81.9064 30.5664ZM1.35055 187.246C0.250641 193.514 -0.180943 199.881 0.0630523 206.24C0.710283 220.345 5.23481 231.691 13.5144 239.968C19.4865 245.942 27.1615 249.995 36.3197 252.018C36.3371 252.019 36.3554 252.024 36.3758 252.028C41.1663 253.022 46.046 253.523 50.9385 253.523C53.0438 253.523 55.149 253.431 57.2525 253.246L56.4896 244.589C50.3623 245.132 44.1884 244.775 38.1648 243.527C30.6599 241.869 24.4329 238.605 19.657 233.825C12.959 227.128 9.28565 217.711 8.74195 205.877C8.52499 200.142 8.91617 194.401 9.90896 188.749L1.35055 187.246ZM102.565 240.589C107.464 238.382 112.466 235.878 117.432 233.156L113.26 225.539C108.487 228.154 103.687 230.554 98.9924 232.67L102.565 240.589ZM73.2767 250.719C77.9315 249.63 82.5283 248.307 87.0495 246.754L84.2409 238.53C79.998 239.989 75.6842 241.232 71.3158 242.256L73.2767 250.719ZM159.808 192.741L165.501 199.303C165.948 198.918 166.392 198.53 166.835 198.141C169.378 195.904 171.887 193.629 174.362 191.318C175.478 190.272 176.587 189.219 177.689 188.159L171.664 181.9C170.593 182.932 169.513 183.956 168.426 184.971C166.019 187.223 163.577 189.437 161.101 191.612C160.671 191.99 160.241 192.368 159.808 192.741Z" fill="black"/>
<path d="M10.4596 56.5118C9.91905 50.3845 10.2762 44.2111 11.5196 38.187C13.1834 30.6839 16.4504 24.4551 21.2281 19.6792C27.9227 12.9794 37.3375 9.30742 49.1747 8.76371C54.9084 8.54848 60.6488 8.9398 66.3002 9.93116L67.8052 1.37276C61.5375 0.273028 55.1708 -0.159279 48.812 0.0830787C34.706 0.734224 23.3577 5.25875 15.0868 13.5366C9.11254 19.5087 5.05517 27.1785 3.0317 36.3419C3.02822 36.3589 3.023 36.3776 3.01952 36.3941C1.59701 43.2576 1.18829 50.2926 1.8064 57.2747L10.4596 56.5118ZM29.5134 113.28C26.8966 108.506 24.4973 103.707 22.3803 99.0145L14.4609 102.588C16.6697 107.482 19.1707 112.486 21.8962 117.456L29.5134 113.28ZM4.33225 73.2989C5.42163 77.9536 6.74532 82.5504 8.29828 87.0717L16.52 84.2631C15.0616 80.0203 13.8186 75.7064 12.7958 71.338L4.33225 73.2989ZM63.439 161.125C63.0602 160.692 62.6826 160.261 62.3072 159.829L55.7506 165.525C56.1346 165.969 56.5204 166.412 56.911 166.855C59.1464 169.4 61.4211 171.909 63.7344 174.383C64.7792 175.498 65.8315 176.607 66.8914 177.708L73.1527 171.684C69.8364 168.238 66.5977 164.717 63.439 161.125ZM45.2539 152.76L52.1112 147.428C51.4825 146.618 50.8583 145.805 50.2387 144.988C47.622 141.548 45.0852 138.048 42.6302 134.491L35.4772 139.422C38.0083 143.089 40.6239 146.698 43.3218 150.244C43.9601 151.087 44.604 151.926 45.2535 152.76L45.2539 152.76ZM74.2806 185.146C82.4878 193.155 91.1245 200.712 100.152 207.783C112.395 217.419 125.464 225.957 139.206 233.298C147.233 237.571 155.551 241.272 164.098 244.375L156.163 246.647L158.552 254.999L180.766 248.643C183.071 247.984 184.405 245.578 183.746 243.27L177.958 223.038L169.604 225.427L173.283 238.28C162.913 234.999 152.869 230.762 143.281 225.626C129.993 218.527 117.357 210.27 105.519 200.951C96.7358 194.072 88.3327 186.722 80.3471 178.931L74.2806 185.146ZM252.259 186.567C250.485 175.485 246.82 163.565 241.364 151.136L233.409 154.627C238.568 166.38 242.022 177.59 243.678 187.938C246.788 207.365 243.373 222.69 233.805 232.261C229.066 236.999 222.904 240.248 215.487 241.92C209.491 243.269 202.693 243.59 195.276 242.88C193.448 242.705 191.562 242.462 189.669 242.163L188.313 250.743C190.376 251.069 192.441 251.333 194.447 251.526C197.273 251.797 200.025 251.932 202.705 251.932C207.644 251.962 212.571 251.446 217.397 250.393C226.443 248.353 234.029 244.319 239.947 238.401C251.567 226.781 255.824 208.859 252.259 186.567H252.259ZM231.198 131.019L223.651 135.32C225.709 138.927 227.664 142.591 229.515 146.309L237.296 142.446C235.375 138.579 233.341 134.768 231.198 131.019ZM211.034 100.821L204.132 106.098C207.381 110.349 210.515 114.687 213.53 119.108L220.71 114.216C217.606 109.665 214.379 105.198 211.034 100.821ZM189.557 75.7129L183.275 81.7111C186.97 85.5824 190.558 89.5533 194.036 93.6197L200.639 87.9738C197.056 83.7876 193.361 79.6991 189.557 75.7129ZM81.9064 30.5664L90.4013 28.7504L87.5967 15.6284C95.5695 18.4566 103.326 21.8615 110.804 25.8162C123.92 32.7403 136.404 40.7998 148.113 49.9024C153.633 54.1621 159.194 58.7849 164.64 63.6396C169.072 67.5993 173.393 71.6827 177.596 75.8848L183.738 69.7426C182.407 68.4118 181.065 67.0926 179.711 65.7853C176.672 62.8488 173.577 59.9717 170.427 57.1555C164.827 52.1656 159.106 47.4096 153.436 43.0348C147.914 38.7408 142.197 34.6734 136.332 30.8231C139.604 28.9747 142.924 27.2116 146.288 25.5356L142.423 17.7553C138.525 19.6892 134.546 21.8197 130.597 24.0828L133.356 28.8979C127.339 25.0643 121.17 21.4735 114.865 18.1342C109.251 15.1705 103.487 12.4994 97.597 10.1317L105.252 8.49708L103.44 0L80.8481 4.829C80.2903 4.94804 79.7613 5.17581 79.2915 5.49931C78.8217 5.82281 78.4202 6.23569 78.11 6.71438C77.7998 7.19307 77.5869 7.72819 77.4836 8.28916C77.3802 8.85013 77.3884 9.42598 77.5076 9.98379L81.9064 30.5664ZM1.35055 187.246C0.250641 193.514 -0.180943 199.881 0.0630523 206.24C0.710283 220.345 5.23481 231.691 13.5144 239.968C19.4865 245.942 27.1615 249.995 36.3197 252.018C36.3371 252.019 36.3554 252.024 36.3758 252.028C41.1663 253.022 46.046 253.523 50.9385 253.523C53.0438 253.523 55.149 253.431 57.2525 253.246L56.4896 244.589C50.3623 245.132 44.1884 244.775 38.1648 243.527C30.6599 241.869 24.4329 238.605 19.657 233.825C12.959 227.128 9.28565 217.711 8.74195 205.877C8.52499 200.142 8.91617 194.401 9.90896 188.749L1.35055 187.246ZM102.565 240.589C107.464 238.382 112.466 235.878 117.432 233.156L113.26 225.539C108.487 228.154 103.687 230.554 98.9924 232.67L102.565 240.589ZM73.2767 250.719C77.9315 249.63 82.5283 248.307 87.0495 246.754L84.2409 238.53C79.998 239.989 75.6842 241.232 71.3158 242.256L73.2767 250.719ZM159.808 192.741L165.501 199.303C165.948 198.918 166.392 198.53 166.835 198.141C169.378 195.904 171.887 193.629 174.362 191.318C175.478 190.272 176.587 189.219 177.689 188.159L171.664 181.9C170.593 182.932 169.513 183.956 168.426 184.971C166.019 187.223 163.577 189.437 161.101 191.612C160.671 191.99 160.241 192.368 159.808 192.741Z" stroke="black" stroke-width="2" mask="url(#path-1-outside-1_221_4945)"/>
<mask id="path-2-outside-2_221_4945" maskUnits="userSpaceOnUse" x="-2.02219" y="0.565979" width="259" height="221" fill="black">
<rect fill="white" x="-2.02219" y="0.565979" width="259" height="221"/>
<path d="M134.471 212.417L139.402 219.572C143.07 217.042 146.679 214.427 150.225 211.729C151.067 211.089 151.905 210.445 152.739 209.797L147.408 202.936C143.188 206.22 138.874 209.382 134.471 212.417H134.471ZM187.917 11.37C207.343 8.26435 222.669 11.678 232.24 21.2472C236.975 25.9823 240.226 32.1466 241.899 39.5633C243.247 45.5615 243.571 52.3608 242.858 59.7757C242.685 61.6004 242.444 63.4847 242.142 65.3812L250.723 66.7382C251.049 64.6691 251.312 62.6048 251.506 60.6048C252.305 52.2743 251.924 44.5536 250.373 37.6551C248.334 28.6091 244.3 21.0193 238.382 15.1016C226.76 3.48145 208.833 -0.776439 186.546 2.79159C175.47 4.56365 163.546 8.23042 151.115 13.6845L154.607 21.6413C166.36 16.4826 177.567 13.0268 187.917 11.3704V11.37ZM93.5962 61.0141L87.9481 54.4135C83.7639 57.9957 79.6762 61.6891 75.6894 65.4899L81.6889 71.7747C85.56 68.0809 89.5306 64.4927 93.5962 61.0141ZM119.09 41.5219L114.194 34.3419C109.644 37.4469 105.177 40.6735 100.8 44.0182L106.078 50.9198C110.328 47.669 114.667 44.5354 119.089 41.5223L119.09 41.5219ZM248.623 74.288C247.963 71.98 245.558 70.6464 243.252 71.3058L223.017 77.0961L225.406 85.4488L238.262 81.7703C234.978 92.1407 230.74 102.185 225.603 111.773C218.504 125.061 210.248 137.697 200.929 149.535C194.05 158.318 186.698 166.72 178.907 174.705L185.124 180.773C193.133 172.565 200.689 163.929 207.761 154.901C217.397 142.659 225.936 129.59 233.276 115.847C237.548 107.82 241.25 99.5025 244.353 90.9555L246.624 98.8906L254.977 96.5013L248.623 74.288ZM9.05427 177.641C9.35874 177.641 9.66453 177.609 9.96509 177.543L30.5447 173.145L28.7283 164.648L15.6079 167.455C18.4351 159.482 21.84 151.726 25.7957 144.248C32.7181 131.131 40.7769 118.646 49.8798 106.937C54.1381 101.419 58.7614 95.8575 63.6174 90.41C66.3561 87.3433 69.1549 84.3309 72.0122 81.3744C73.285 80.0568 74.5691 78.7501 75.8643 77.4545L69.7221 71.3128C65.4013 75.6313 61.2035 80.0712 57.1338 84.6271C52.1382 90.2252 47.3862 95.9476 43.0126 101.616C33.6029 113.721 25.2716 126.627 18.1142 140.187C15.1473 145.799 12.476 151.563 10.1112 157.455L8.47489 149.795L-0.0221863 151.61L4.80682 174.202C5.0149 175.175 5.54998 176.047 6.32288 176.672C7.09578 177.298 8.05981 177.64 9.05427 177.641ZM90.0125 93.0811V161.993C90.0125 165.67 92.0755 170.847 102.535 174.63C109.308 177.081 118.161 178.432 127.564 178.432H127.901C133.333 178.432 138.753 177.936 144.095 176.951C157.636 174.354 165.488 168.902 165.488 161.993V93.0811C165.488 89.4026 163.189 84.2291 152.728 80.4414C145.954 77.9917 136.981 76.6407 127.566 76.6407C118.148 76.6407 109.335 77.9917 102.56 80.4414C92.1007 84.2274 90.0125 89.4022 90.0125 93.0811ZM142.469 168.413C137.555 169.324 132.566 169.77 127.568 169.744C119.129 169.744 111.365 168.577 105.517 166.463C99.7966 164.392 98.7005 162.316 98.7005 161.993V149.868C99.936 150.522 101.218 151.086 102.535 151.553C109.308 154.005 118.162 155.354 127.582 155.354C137.003 155.354 145.991 154.005 152.764 151.553C154.249 151.016 155.171 150.451 156.801 149.864V161.991C156.801 162.806 153.284 166.339 142.469 168.413V168.413ZM156.801 138.914C156.801 139.24 155.494 141.315 149.775 143.386C143.925 145.503 136.006 146.667 127.566 146.667C119.129 146.667 111.365 145.503 105.517 143.386C99.7966 141.315 98.7005 139.239 98.7005 138.914V126.949C99.9356 127.605 101.217 128.169 102.535 128.637C109.308 131.088 118.162 132.437 127.582 132.437C137.003 132.437 145.991 131.088 152.764 128.636C154.249 128.099 155.171 127.534 156.801 126.949L156.801 138.914ZM149.775 120.467C143.925 122.584 136.006 123.748 127.566 123.748C119.129 123.748 111.365 122.584 105.517 120.467C99.7966 118.398 98.7005 116.321 98.7005 115.999V104.03C99.9364 104.684 101.218 105.248 102.535 105.717C109.31 108.169 118.164 109.518 127.582 109.518C137 109.518 145.99 108.168 152.764 105.717C154.249 105.179 155.171 104.613 156.801 104.03V115.999C156.801 116.321 155.494 118.398 149.775 120.467ZM105.359 88.611C111.209 86.4923 119.078 85.3283 127.514 85.3283C135.948 85.3283 143.818 86.4923 149.668 88.611C155.385 90.6819 156.59 92.7567 156.59 93.0811C156.59 93.4022 155.385 95.4769 149.668 97.5483C143.818 99.6665 135.948 100.831 127.514 100.831C119.078 100.831 111.209 99.6635 105.359 97.5483C99.6383 95.4769 98.4356 93.4022 98.4356 93.0811C98.4356 92.7567 99.6405 90.6819 105.361 88.611H105.359Z"/>
</mask>
<path d="M134.471 212.417L139.402 219.572C143.07 217.042 146.679 214.427 150.225 211.729C151.067 211.089 151.905 210.445 152.739 209.797L147.408 202.936C143.188 206.22 138.874 209.382 134.471 212.417H134.471ZM187.917 11.37C207.343 8.26435 222.669 11.678 232.24 21.2472C236.975 25.9823 240.226 32.1466 241.899 39.5633C243.247 45.5615 243.571 52.3608 242.858 59.7757C242.685 61.6004 242.444 63.4847 242.142 65.3812L250.723 66.7382C251.049 64.6691 251.312 62.6048 251.506 60.6048C252.305 52.2743 251.924 44.5536 250.373 37.6551C248.334 28.6091 244.3 21.0193 238.382 15.1016C226.76 3.48145 208.833 -0.776439 186.546 2.79159C175.47 4.56365 163.546 8.23042 151.115 13.6845L154.607 21.6413C166.36 16.4826 177.567 13.0268 187.917 11.3704V11.37ZM93.5962 61.0141L87.9481 54.4135C83.7639 57.9957 79.6762 61.6891 75.6894 65.4899L81.6889 71.7747C85.56 68.0809 89.5306 64.4927 93.5962 61.0141ZM119.09 41.5219L114.194 34.3419C109.644 37.4469 105.177 40.6735 100.8 44.0182L106.078 50.9198C110.328 47.669 114.667 44.5354 119.089 41.5223L119.09 41.5219ZM248.623 74.288C247.963 71.98 245.558 70.6464 243.252 71.3058L223.017 77.0961L225.406 85.4488L238.262 81.7703C234.978 92.1407 230.74 102.185 225.603 111.773C218.504 125.061 210.248 137.697 200.929 149.535C194.05 158.318 186.698 166.72 178.907 174.705L185.124 180.773C193.133 172.565 200.689 163.929 207.761 154.901C217.397 142.659 225.936 129.59 233.276 115.847C237.548 107.82 241.25 99.5025 244.353 90.9555L246.624 98.8906L254.977 96.5013L248.623 74.288ZM9.05427 177.641C9.35874 177.641 9.66453 177.609 9.96509 177.543L30.5447 173.145L28.7283 164.648L15.6079 167.455C18.4351 159.482 21.84 151.726 25.7957 144.248C32.7181 131.131 40.7769 118.646 49.8798 106.937C54.1381 101.419 58.7614 95.8575 63.6174 90.41C66.3561 87.3433 69.1549 84.3309 72.0122 81.3744C73.285 80.0568 74.5691 78.7501 75.8643 77.4545L69.7221 71.3128C65.4013 75.6313 61.2035 80.0712 57.1338 84.6271C52.1382 90.2252 47.3862 95.9476 43.0126 101.616C33.6029 113.721 25.2716 126.627 18.1142 140.187C15.1473 145.799 12.476 151.563 10.1112 157.455L8.47489 149.795L-0.0221863 151.61L4.80682 174.202C5.0149 175.175 5.54998 176.047 6.32288 176.672C7.09578 177.298 8.05981 177.64 9.05427 177.641ZM90.0125 93.0811V161.993C90.0125 165.67 92.0755 170.847 102.535 174.63C109.308 177.081 118.161 178.432 127.564 178.432H127.901C133.333 178.432 138.753 177.936 144.095 176.951C157.636 174.354 165.488 168.902 165.488 161.993V93.0811C165.488 89.4026 163.189 84.2291 152.728 80.4414C145.954 77.9917 136.981 76.6407 127.566 76.6407C118.148 76.6407 109.335 77.9917 102.56 80.4414C92.1007 84.2274 90.0125 89.4022 90.0125 93.0811ZM142.469 168.413C137.555 169.324 132.566 169.77 127.568 169.744C119.129 169.744 111.365 168.577 105.517 166.463C99.7966 164.392 98.7005 162.316 98.7005 161.993V149.868C99.936 150.522 101.218 151.086 102.535 151.553C109.308 154.005 118.162 155.354 127.582 155.354C137.003 155.354 145.991 154.005 152.764 151.553C154.249 151.016 155.171 150.451 156.801 149.864V161.991C156.801 162.806 153.284 166.339 142.469 168.413V168.413ZM156.801 138.914C156.801 139.24 155.494 141.315 149.775 143.386C143.925 145.503 136.006 146.667 127.566 146.667C119.129 146.667 111.365 145.503 105.517 143.386C99.7966 141.315 98.7005 139.239 98.7005 138.914V126.949C99.9356 127.605 101.217 128.169 102.535 128.637C109.308 131.088 118.162 132.437 127.582 132.437C137.003 132.437 145.991 131.088 152.764 128.636C154.249 128.099 155.171 127.534 156.801 126.949L156.801 138.914ZM149.775 120.467C143.925 122.584 136.006 123.748 127.566 123.748C119.129 123.748 111.365 122.584 105.517 120.467C99.7966 118.398 98.7005 116.321 98.7005 115.999V104.03C99.9364 104.684 101.218 105.248 102.535 105.717C109.31 108.169 118.164 109.518 127.582 109.518C137 109.518 145.99 108.168 152.764 105.717C154.249 105.179 155.171 104.613 156.801 104.03V115.999C156.801 116.321 155.494 118.398 149.775 120.467ZM105.359 88.611C111.209 86.4923 119.078 85.3283 127.514 85.3283C135.948 85.3283 143.818 86.4923 149.668 88.611C155.385 90.6819 156.59 92.7567 156.59 93.0811C156.59 93.4022 155.385 95.4769 149.668 97.5483C143.818 99.6665 135.948 100.831 127.514 100.831C119.078 100.831 111.209 99.6635 105.359 97.5483C99.6383 95.4769 98.4356 93.4022 98.4356 93.0811C98.4356 92.7567 99.6405 90.6819 105.361 88.611H105.359Z" fill="black"/>
<path d="M134.471 212.417L139.402 219.572C143.07 217.042 146.679 214.427 150.225 211.729C151.067 211.089 151.905 210.445 152.739 209.797L147.408 202.936C143.188 206.22 138.874 209.382 134.471 212.417H134.471ZM187.917 11.37C207.343 8.26435 222.669 11.678 232.24 21.2472C236.975 25.9823 240.226 32.1466 241.899 39.5633C243.247 45.5615 243.571 52.3608 242.858 59.7757C242.685 61.6004 242.444 63.4847 242.142 65.3812L250.723 66.7382C251.049 64.6691 251.312 62.6048 251.506 60.6048C252.305 52.2743 251.924 44.5536 250.373 37.6551C248.334 28.6091 244.3 21.0193 238.382 15.1016C226.76 3.48145 208.833 -0.776439 186.546 2.79159C175.47 4.56365 163.546 8.23042 151.115 13.6845L154.607 21.6413C166.36 16.4826 177.567 13.0268 187.917 11.3704V11.37ZM93.5962 61.0141L87.9481 54.4135C83.7639 57.9957 79.6762 61.6891 75.6894 65.4899L81.6889 71.7747C85.56 68.0809 89.5306 64.4927 93.5962 61.0141ZM119.09 41.5219L114.194 34.3419C109.644 37.4469 105.177 40.6735 100.8 44.0182L106.078 50.9198C110.328 47.669 114.667 44.5354 119.089 41.5223L119.09 41.5219ZM248.623 74.288C247.963 71.98 245.558 70.6464 243.252 71.3058L223.017 77.0961L225.406 85.4488L238.262 81.7703C234.978 92.1407 230.74 102.185 225.603 111.773C218.504 125.061 210.248 137.697 200.929 149.535C194.05 158.318 186.698 166.72 178.907 174.705L185.124 180.773C193.133 172.565 200.689 163.929 207.761 154.901C217.397 142.659 225.936 129.59 233.276 115.847C237.548 107.82 241.25 99.5025 244.353 90.9555L246.624 98.8906L254.977 96.5013L248.623 74.288ZM9.05427 177.641C9.35874 177.641 9.66453 177.609 9.96509 177.543L30.5447 173.145L28.7283 164.648L15.6079 167.455C18.4351 159.482 21.84 151.726 25.7957 144.248C32.7181 131.131 40.7769 118.646 49.8798 106.937C54.1381 101.419 58.7614 95.8575 63.6174 90.41C66.3561 87.3433 69.1549 84.3309 72.0122 81.3744C73.285 80.0568 74.5691 78.7501 75.8643 77.4545L69.7221 71.3128C65.4013 75.6313 61.2035 80.0712 57.1338 84.6271C52.1382 90.2252 47.3862 95.9476 43.0126 101.616C33.6029 113.721 25.2716 126.627 18.1142 140.187C15.1473 145.799 12.476 151.563 10.1112 157.455L8.47489 149.795L-0.0221863 151.61L4.80682 174.202C5.0149 175.175 5.54998 176.047 6.32288 176.672C7.09578 177.298 8.05981 177.64 9.05427 177.641ZM90.0125 93.0811V161.993C90.0125 165.67 92.0755 170.847 102.535 174.63C109.308 177.081 118.161 178.432 127.564 178.432H127.901C133.333 178.432 138.753 177.936 144.095 176.951C157.636 174.354 165.488 168.902 165.488 161.993V93.0811C165.488 89.4026 163.189 84.2291 152.728 80.4414C145.954 77.9917 136.981 76.6407 127.566 76.6407C118.148 76.6407 109.335 77.9917 102.56 80.4414C92.1007 84.2274 90.0125 89.4022 90.0125 93.0811ZM142.469 168.413C137.555 169.324 132.566 169.77 127.568 169.744C119.129 169.744 111.365 168.577 105.517 166.463C99.7966 164.392 98.7005 162.316 98.7005 161.993V149.868C99.936 150.522 101.218 151.086 102.535 151.553C109.308 154.005 118.162 155.354 127.582 155.354C137.003 155.354 145.991 154.005 152.764 151.553C154.249 151.016 155.171 150.451 156.801 149.864V161.991C156.801 162.806 153.284 166.339 142.469 168.413V168.413ZM156.801 138.914C156.801 139.24 155.494 141.315 149.775 143.386C143.925 145.503 136.006 146.667 127.566 146.667C119.129 146.667 111.365 145.503 105.517 143.386C99.7966 141.315 98.7005 139.239 98.7005 138.914V126.949C99.9356 127.605 101.217 128.169 102.535 128.637C109.308 131.088 118.162 132.437 127.582 132.437C137.003 132.437 145.991 131.088 152.764 128.636C154.249 128.099 155.171 127.534 156.801 126.949L156.801 138.914ZM149.775 120.467C143.925 122.584 136.006 123.748 127.566 123.748C119.129 123.748 111.365 122.584 105.517 120.467C99.7966 118.398 98.7005 116.321 98.7005 115.999V104.03C99.9364 104.684 101.218 105.248 102.535 105.717C109.31 108.169 118.164 109.518 127.582 109.518C137 109.518 145.99 108.168 152.764 105.717C154.249 105.179 155.171 104.613 156.801 104.03V115.999C156.801 116.321 155.494 118.398 149.775 120.467ZM105.359 88.611C111.209 86.4923 119.078 85.3283 127.514 85.3283C135.948 85.3283 143.818 86.4923 149.668 88.611C155.385 90.6819 156.59 92.7567 156.59 93.0811C156.59 93.4022 155.385 95.4769 149.668 97.5483C143.818 99.6665 135.948 100.831 127.514 100.831C119.078 100.831 111.209 99.6635 105.359 97.5483C99.6383 95.4769 98.4356 93.4022 98.4356 93.0811C98.4356 92.7567 99.6405 90.6819 105.361 88.611H105.359Z" stroke="black" stroke-width="2" mask="url(#path-2-outside-2_221_4945)"/>
</g>
<defs>
<clipPath id="clip0_221_4945">
<rect width="272" height="272" fill="white"/>
</clipPath>
</defs>
</svg>
