<svg width="282" height="282" viewBox="0 0 282 282" fill="none" xmlns="http://www.w3.org/2000/svg">
<path d="M46.001 123.817V176.981L37.0564 172.51L37.0562 172.51C34.9465 171.456 32.9711 169.496 31.52 167.147C30.0688 164.799 29.2 162.156 29.2 159.801V141C29.2 138.643 30.0695 136.001 31.5209 133.653C32.9724 131.305 34.9479 129.345 37.0565 128.291L37.0566 128.291L46.001 123.817ZM236.002 176.981V123.817L244.949 128.291C247.058 129.345 249.032 131.304 250.482 133.652C251.932 136 252.8 138.643 252.8 141V159.801C252.8 162.156 251.932 164.799 250.483 167.148C249.033 169.496 247.059 171.456 244.949 172.51L236.002 176.981ZM234.002 178.599V180.217V197.4C234.002 227.995 209.197 252.8 178.602 252.8H132.601V226.6H149.402V239.7V240.7H150.402H178.602C202.518 240.7 221.902 221.313 221.902 197.4V122.199C221.902 77.5899 185.612 41.3 141 41.3C96.388 41.3 60.101 77.59 60.101 122.199V177.599H48.001V122.817V122.199C48.001 70.8352 89.6361 29.2 141 29.2C192.358 29.2 234.002 70.8352 234.002 122.199V178.599Z" fill="#FF9700" stroke="white" stroke-width="2"/>
<path d="M92.999 126.899V126.9V164.499C92.999 180.604 106.094 193.699 122.199 193.699H159.804C175.905 193.699 189.004 180.604 189.004 164.499L189.001 126.9V126.899C188.998 124.142 187.901 121.498 185.951 119.549C184.001 117.6 181.357 116.503 178.6 116.501H178.599L103.398 116.501L103.397 116.501C100.64 116.505 97.998 117.602 96.049 119.551C94.0999 121.5 93.0032 124.142 92.999 126.899ZM103.401 99.7H178.602C193.619 99.7 205.802 111.88 205.799 126.9V164.499C205.799 189.888 185.19 210.5 159.801 210.5H122.199C96.8102 210.5 76.2009 189.888 76.2009 164.499V126.9C76.2009 111.88 88.3839 99.7 103.401 99.7Z" fill="#FF9700" stroke="white" stroke-width="2"/>
<path d="M134.95 78.7316V78.0166L134.273 77.7854C128.938 75.9617 125.551 72.229 125.551 68.151C125.551 65.3116 127.159 62.6479 129.949 60.6548C132.736 58.663 136.64 57.4 141 57.4C145.36 57.4 149.264 58.6631 152.053 60.6549C154.844 62.648 156.452 65.3117 156.452 68.151C156.452 72.2232 153.065 75.9587 147.727 77.7795L147.05 78.0105V78.726V97.7H134.95V78.7316ZM158.804 170.2V177.878L145.541 182.3H136.461L123.199 177.878V170.2H158.804ZM163.502 148.05C163.502 151.4 160.795 154.1 157.452 154.1C154.109 154.1 151.402 151.4 151.402 148.05V138.651C151.402 135.298 154.11 132.595 157.452 132.595C160.794 132.595 163.502 135.298 163.502 138.651V148.05ZM130.601 148.05C130.601 151.4 127.891 154.1 124.551 154.1C121.211 154.1 118.501 151.4 118.501 148.05V138.651C118.501 137.046 119.138 135.508 120.273 134.373C121.408 133.238 122.946 132.601 124.551 132.601C126.156 132.601 127.694 133.238 128.829 134.373C129.964 135.508 130.601 137.046 130.601 138.651V148.05Z" fill="#FF9700" stroke="white" stroke-width="2"/>
</svg>
