<svg width="282" height="282" viewBox="0 0 282 282" fill="none" xmlns="http://www.w3.org/2000/svg">
<path fill-rule="evenodd" clip-rule="evenodd" d="M5.7085 72.239C5.7085 62.5553 11.7726 54.2424 20.268 50.9198C22.1226 40.1087 31.5884 31.8815 42.8507 31.8815C43.8869 31.8815 44.9231 31.9545 45.9482 32.0922C48.599 22.4046 57.4876 15.2551 68.0471 15.2551C74.3716 15.2551 80.0713 17.8158 84.2311 21.9755C88.3931 26.1375 90.951 31.8422 90.951 38.1137V73.5251C90.951 81.096 87.2773 87.8093 81.6152 91.9796C87.2778 96.136 90.951 102.833 90.951 110.406V145.817C90.9534 148.821 90.3597 151.794 89.2042 154.567C88.0488 157.339 86.3547 159.854 84.2201 161.966C80.0614 166.12 74.3661 168.676 68.0471 168.676C57.4937 168.676 48.6101 161.574 45.9527 151.876C44.9251 152.022 43.8885 152.095 42.8507 152.095C31.5884 152.095 22.122 143.821 20.2685 133.044C11.7715 129.688 5.7085 121.374 5.7085 111.692V111.646C5.7085 103.537 9.73501 96.35 15.8937 91.9801C9.73557 87.5958 5.7085 80.3921 5.7085 72.2849V72.2401V72.239ZM45.3201 40.9785C44.5044 40.838 43.6784 40.766 42.8507 40.7634C35.3196 40.7634 29.1007 46.7705 28.8303 54.2861C28.9685 58.3939 30.9309 62.0422 33.8714 64.5332C35.7415 66.1174 35.9737 68.9219 34.3896 70.792C32.8054 72.662 30.0009 72.8942 28.1308 71.3101C24.8065 68.4945 22.2691 64.7621 20.9503 60.505C17.1284 63.0038 14.5904 67.3361 14.5904 72.239V72.2401L14.5898 72.2849C14.5898 80.6785 21.4137 87.5477 29.8068 87.5477H49.9654C49.1612 86.5127 48.4459 85.4116 47.8271 84.2561C47.2716 83.2176 47.1511 82.0011 47.4921 80.8739C47.8331 79.7466 48.6078 78.8009 49.6458 78.2445C50.6843 77.6893 51.9007 77.5689 53.0278 77.9099C54.155 78.2509 55.1007 79.0254 55.6573 80.0631C58.0317 84.4983 62.6692 87.5477 68.0471 87.5477C75.7905 87.5477 82.0691 81.2685 82.0691 73.5251V38.1137C82.0691 34.2807 80.4938 30.7994 77.9503 28.2559C75.4045 25.7101 71.9182 24.137 68.0471 24.137C60.3059 24.137 54.0245 30.4079 54.0245 38.1137C54.0245 41.6785 55.3543 44.9281 57.5213 47.4097C58.2956 48.2971 58.6859 49.4555 58.6063 50.6305C58.5268 51.8055 57.984 52.9008 57.0972 53.6757C56.2099 54.4499 55.0515 54.8402 53.8766 54.7607C52.7016 54.6813 51.6063 54.1387 50.8313 53.2521C47.8929 49.8869 45.9029 45.653 45.3201 40.9785ZM45.3168 142.98C45.8779 138.422 47.8077 134.141 50.8517 130.701C51.633 129.82 52.7322 129.285 53.9077 129.214C55.0833 129.143 56.239 129.541 57.121 130.322C58.0022 131.103 58.5371 132.202 58.6084 133.378C58.6796 134.553 58.2812 135.709 57.5008 136.591C55.3422 139.028 54.0245 142.267 54.0245 145.817C54.0245 153.558 60.3059 159.794 68.0471 159.794C71.9182 159.794 75.4045 158.221 77.9503 155.675L77.9724 155.654C79.2726 154.367 80.3043 152.835 81.0075 151.146C81.7108 149.458 82.0717 147.646 82.0691 145.817V110.406C82.0691 102.665 75.7877 96.4296 68.0471 96.4296C62.6714 96.4296 58.0306 99.4343 55.6573 103.868C54.5 106.028 51.8067 106.843 49.6458 105.686C47.4849 104.53 46.6698 101.836 47.8271 99.6748C48.4367 98.536 49.1408 97.4505 49.9322 96.4296H29.8068C21.4164 96.4296 14.5904 103.256 14.5904 111.646V111.648L14.5898 111.692C14.5898 116.596 17.1284 120.927 20.9487 123.444C22.2674 119.168 24.8065 115.436 28.1308 112.621C30.0009 111.037 32.8054 111.269 34.3896 113.139C35.9737 115.009 35.7415 117.814 33.8714 119.398C30.9287 121.891 28.9685 125.544 28.8303 129.69C29.1007 137.171 35.3196 143.213 42.8507 143.213C43.6773 143.213 44.5045 143.136 45.3168 142.98ZM94.5335 228.174H42.6356C31.25 228.174 21.929 218.853 21.929 207.467V155.806C21.929 153.365 23.9113 151.383 26.3526 151.383C28.7943 151.383 30.7761 153.365 30.7761 155.806V207.467C30.7761 213.988 36.1147 219.327 42.6356 219.327H221.819C228.34 219.327 233.678 213.988 233.678 207.467V95.4847C233.678 88.9638 228.34 83.6257 221.819 83.6257H185.958C183.517 83.6257 181.534 81.6434 181.534 79.2022C181.534 76.7604 183.517 74.7787 185.958 74.7787H221.819C233.205 74.7787 242.525 84.099 242.525 95.4847V207.467C242.525 218.853 233.205 228.174 221.819 228.174H169.935V245.195H190.288C200.594 245.195 208.594 252.47 208.594 260.699V271.794C208.594 272.967 208.128 274.092 207.299 274.922C206.469 275.751 205.344 276.217 204.171 276.217H60.2982C59.125 276.217 57.9998 275.751 57.1703 274.922C56.3407 274.092 55.8746 272.967 55.8746 271.794V260.699C55.8746 252.47 63.8746 245.195 74.1809 245.195H94.5335V228.174ZM161.088 228.174H103.381V245.195H161.088V228.174ZM64.7217 267.37H199.747V260.699C199.747 256.731 195.257 254.042 190.288 254.042H74.1809C69.2116 254.042 64.7217 256.731 64.7217 260.699V267.37ZM220.068 97.2496H187.704C185.262 97.2496 183.28 95.2674 183.28 92.8261C183.28 90.3849 185.262 88.4026 187.704 88.4026H222.236C225.895 88.4026 228.915 91.3807 228.915 95.0827V196.33C228.915 197.503 228.449 198.628 227.62 199.457C226.79 200.287 225.665 200.753 224.492 200.753H39.9627C38.7895 200.753 37.6643 200.287 36.8347 199.457C36.0052 198.628 35.5391 197.503 35.5391 196.33V159.991C35.5391 157.55 37.5209 155.568 39.9627 155.568C42.4039 155.568 44.3862 157.55 44.3862 159.991V191.906H220.068V97.2496ZM218.308 45.5729C217.136 45.6251 215.991 45.21 215.125 44.4189C214.259 43.6277 213.743 42.5251 213.689 41.3534C213.637 40.1815 214.052 39.0369 214.843 38.1709C215.634 37.3049 216.737 36.7883 217.909 36.7347C225.255 36.4034 232.462 38.9088 237.813 44.2613C243.166 49.6127 245.671 56.8202 245.339 64.1661C245.229 66.6045 243.16 68.4956 240.721 68.3856C238.282 68.2755 236.391 66.2059 236.501 63.7668C236.721 58.8855 235.114 54.0738 231.558 50.5173C228.001 46.9602 223.19 45.3522 218.308 45.5729ZM260.785 63.4688C260.732 64.6405 260.215 65.7431 259.349 66.5343C258.483 67.3254 257.339 67.7405 256.167 67.6883C254.995 67.6349 253.893 67.1185 253.101 66.2526C252.31 65.3866 251.895 64.242 251.948 63.0701C252.346 54.2347 249.409 45.5391 242.972 39.1018C236.535 32.665 227.84 29.7283 219.004 30.1265C216.565 30.2365 214.496 28.3454 214.386 25.907C214.276 23.4679 216.167 21.3983 218.606 21.2888C229.905 20.779 240.996 24.6142 249.228 32.8464C257.46 41.0786 261.296 52.1695 260.785 63.4688ZM219.701 14.6811C217.262 14.7912 215.193 12.9001 215.083 10.4611C214.973 8.02208 216.864 5.95297 219.303 5.84293C234.554 5.15563 249.531 10.3201 260.643 21.432C271.754 32.5434 276.918 47.5198 276.231 62.7715C276.121 65.2106 274.052 67.1016 271.613 66.9916C269.174 66.8816 267.283 64.8125 267.393 62.3734C267.969 49.585 263.704 37.0045 254.387 27.688C245.071 18.3709 232.489 14.105 219.701 14.6811ZM225.395 56.6792C228.337 59.6214 228.337 64.3917 225.395 67.3333C222.453 70.2755 217.683 70.2755 214.741 67.3333C211.799 64.3917 211.799 59.6214 214.741 56.6792C217.683 53.7376 222.453 53.7376 225.395 56.6792ZM98.4246 164.225V19.6864C98.4246 18.5132 98.8906 17.388 99.7202 16.5585C100.55 15.7289 101.675 15.2628 102.848 15.2628H112.625C113.519 15.2629 114.391 15.5333 115.128 16.0387C115.864 16.544 116.431 17.2605 116.752 18.0939L120.559 27.9611C125.811 29.4088 130.862 31.502 135.598 34.1928L145.249 29.9014C146.066 29.5381 146.974 29.431 147.854 29.5941C148.733 29.7573 149.542 30.1831 150.174 30.8154L163.998 44.6389C164.631 45.2714 165.057 46.0806 165.22 46.9599C165.383 47.8392 165.276 48.7474 164.912 49.5645L160.621 59.2156C163.314 63.9578 165.411 69.0138 166.867 74.2694L176.716 78.0604C177.55 78.3814 178.268 78.9477 178.774 79.6846C179.28 80.4216 179.551 81.2946 179.551 82.1886V101.742C179.551 102.636 179.28 103.509 178.774 104.247C178.268 104.984 177.55 105.55 176.716 105.871L166.865 109.662C165.41 114.912 163.313 119.962 160.622 124.699L164.912 134.347C165.276 135.164 165.383 136.072 165.22 136.951C165.057 137.831 164.631 138.64 163.998 139.272L150.174 153.096C149.543 153.727 148.735 154.153 147.857 154.316C146.979 154.48 146.072 154.374 145.255 154.012L135.597 149.734C130.854 152.423 125.798 154.518 120.542 155.97L116.753 165.814C116.432 166.648 115.866 167.365 115.129 167.871C114.392 168.377 113.519 168.648 112.625 168.648H102.848C101.675 168.648 100.55 168.182 99.7202 167.353C98.8906 166.523 98.4246 165.398 98.4246 164.225ZM107.272 116.885V159.801H109.588L113.105 150.663C113.363 149.992 113.781 149.394 114.323 148.921C114.865 148.448 115.513 148.114 116.213 147.948C122.156 146.54 127.806 144.179 132.999 140.997C133.61 140.623 134.302 140.403 135.017 140.355C135.732 140.308 136.447 140.435 137.102 140.725L146.064 144.695L155.594 135.165L151.61 126.205C151.317 125.547 151.19 124.827 151.239 124.108C151.287 123.39 151.511 122.694 151.89 122.081C155.089 116.907 157.428 111.239 158.854 105.315C159.022 104.618 159.356 103.973 159.828 103.434C160.301 102.896 160.897 102.48 161.565 102.222L170.704 98.705V85.2259L161.565 81.7087C160.896 81.4511 160.3 81.0348 159.827 80.4954C159.355 79.9561 159.021 79.31 158.853 78.6128C157.435 72.6828 155.083 67.0158 151.886 61.8238C151.509 61.2116 151.287 60.5167 151.238 59.7991C151.19 59.0816 151.318 58.3632 151.61 57.7061L155.594 48.7462L146.067 39.2201L137.107 43.2035C136.45 43.4957 135.732 43.6233 135.014 43.5752C134.297 43.5271 133.602 43.3048 132.989 42.9276C127.809 39.7338 122.151 37.3892 116.23 35.9827C115.531 35.8165 114.884 35.4828 114.343 35.0105C113.802 34.5382 113.385 33.9414 113.126 33.2716L109.591 24.1099H107.272V65.2504L114.632 57.8902C115.043 57.4794 115.53 57.1536 116.067 56.9313C116.604 56.709 117.179 56.5946 117.76 56.5946H123.737C125.532 51.7863 130.169 48.3586 135.6 48.3586C142.587 48.3586 148.26 54.0312 148.26 61.0182C148.26 68.0051 142.587 73.6778 135.6 73.6778C130.169 73.6778 125.532 70.2501 123.737 65.4417H119.592L107.272 77.7618V87.5323H124.826C126.358 82.2633 131.225 78.4082 136.985 78.4082C143.972 78.4082 149.645 84.0808 149.645 91.0678C149.645 98.0547 143.972 103.727 136.985 103.727C131.894 103.727 127.501 100.716 125.492 96.3793H107.272V104.374L119.592 116.694H123.737C125.532 111.885 130.169 108.458 135.6 108.458C142.587 108.458 148.26 114.13 148.26 121.117C148.26 128.105 142.587 133.777 135.6 133.777C130.169 133.777 125.532 130.349 123.737 125.541H117.76C117.179 125.541 116.604 125.427 116.067 125.204C115.53 124.982 115.043 124.656 114.632 124.245L107.272 116.885ZM135.6 57.2056C134.589 57.2061 133.62 57.6079 132.905 58.3228C132.19 59.0377 131.788 60.0072 131.788 61.0182C131.788 63.1221 133.496 64.8307 135.6 64.8307C137.705 64.8307 139.413 63.1221 139.413 61.0182C139.413 60.0072 139.011 59.0377 138.296 58.3228C137.581 57.6079 136.611 57.2061 135.6 57.2056ZM136.985 87.2552C135.974 87.2557 135.005 87.6575 134.29 88.3724C133.575 89.0873 133.173 90.0568 133.172 91.0678C133.173 92.0788 133.575 93.0483 134.29 93.7631C135.005 94.478 135.974 94.8799 136.985 94.8803C137.996 94.8799 138.966 94.478 139.68 93.7631C140.395 93.0483 140.797 92.0788 140.798 91.0678C140.797 90.0568 140.395 89.0874 139.68 88.3725C138.965 87.6577 137.996 87.2558 136.985 87.2552ZM135.6 124.93C136.612 124.93 137.581 124.528 138.296 123.813C139.011 123.098 139.413 122.128 139.413 121.117C139.413 119.013 137.705 117.305 135.6 117.305C133.496 117.305 131.788 119.013 131.788 121.117C131.788 122.128 132.19 123.098 132.905 123.813C133.62 124.528 134.589 124.93 135.6 124.93Z" fill="black"/>
</svg>
