<svg width="265" height="265" viewBox="0 0 265 265" fill="none" xmlns="http://www.w3.org/2000/svg">
<g clip-path="url(#clip0_221_4957)">
<path d="M120.302 57.4217L106.011 50.276V39.7562H97.1778V50.276L83.9287 56.9005L70.6796 50.276V39.7562H61.8469V50.276L46.6236 57.8854C45.8895 58.2523 45.2722 58.8165 44.8408 59.5146C44.4094 60.2128 44.1811 61.0173 44.1814 61.838V79.5035H35.3486V88.3363H47.5555L61.8469 95.482V106.002H70.6796V95.482L83.9287 88.8574L97.1778 95.482V106.002H106.011V95.482L121.234 87.8946C121.971 87.5261 122.591 86.9585 123.023 86.256C123.454 85.5536 123.681 84.7443 123.676 83.9199V66.2544H132.509V57.4217H120.302ZM79.5124 81.1906L66.2632 87.8151L53.0141 81.1906V64.5673L66.2632 57.9428L79.5124 64.5673V81.1906ZM114.843 81.1906L101.594 87.8151L88.3451 81.1906V64.5673L101.594 57.9428L114.843 64.5673V81.1906ZM123.676 39.7562H132.509V48.5889H123.676V39.7562ZM35.3486 97.169H44.1814V106.002H35.3486V97.169ZM194.338 136.916H203.171V145.749H194.338V136.916ZM176.673 136.916H185.505V145.749H176.673V136.916ZM212.004 136.916H220.836V145.749H212.004V136.916ZM194.338 101.585H203.171V110.418H194.338V101.585ZM176.673 101.585H185.505V110.418H176.673V101.585ZM212.004 101.585H220.836V110.418H212.004V101.585ZM194.338 172.247H203.171V181.08H194.338V172.247ZM176.673 172.247H185.505V181.08H176.673V172.247ZM212.004 172.247H220.836V181.08H212.004V172.247ZM194.338 207.578H203.171V216.411H194.338V207.578ZM176.673 207.578H185.505V216.411H176.673V207.578ZM212.004 207.578H220.836V216.411H212.004V207.578Z" fill="black"/>
<path d="M198.754 39.7562C188.378 39.7258 178.024 40.7124 167.84 42.7019V22.0907C167.84 20.9194 167.375 19.7961 166.546 18.9678C165.718 18.1396 164.595 17.6743 163.423 17.6743H30.9323C30.8484 17.6743 30.7689 17.7185 30.685 17.7229C30.2796 17.7451 29.8795 17.8255 29.497 17.9614C29.3663 17.9995 29.238 18.0452 29.1127 18.0983C28.6292 18.3125 28.1879 18.6117 27.8099 18.9816L1.31166 45.4798C0.941256 45.854 0.641966 46.2925 0.428388 46.7738C0.366559 46.9107 0.331228 47.0476 0.282648 47.1889C0.15521 47.555 0.0794022 47.937 0.0574128 48.3239C0.0574128 48.4211 0 48.505 0 48.6022V242.909C0 244.081 0.465295 245.204 1.29353 246.032C2.12176 246.86 3.24508 247.326 4.41637 247.326H163.423C164.595 247.326 165.718 246.86 166.546 246.032C167.375 245.204 167.84 244.081 167.84 242.909V231.131C178.024 233.12 188.378 234.107 198.754 234.077C206.469 234.077 214.173 233.538 221.812 232.465L230.411 245.36C230.814 245.965 231.361 246.461 232.002 246.804C232.643 247.146 233.359 247.326 234.085 247.326H251.751C252.922 247.326 254.045 246.86 254.874 246.032C255.702 245.204 256.167 244.081 256.167 242.909V221.3C258.667 219.93 260.784 217.958 262.326 215.561C263.869 213.165 264.788 210.42 265 207.578V66.2544C265 49.0306 230.866 39.7562 198.754 39.7562ZM26.5159 32.7518V44.1726H15.0952L26.5159 32.7518ZM159.007 238.493H8.85041V53.0053H30.9323C32.1036 53.0053 33.2269 52.54 34.0551 51.7118C34.8833 50.8835 35.3486 49.7602 35.3486 48.5889V26.5071H159.007V238.493ZM167.866 51.6539C178.027 49.5577 188.38 48.5305 198.754 48.5889C233.803 48.5889 256.167 59.0513 256.167 66.2544C256.167 73.4575 233.803 83.9199 198.754 83.9199C195.826 83.9199 192.934 83.8316 190.081 83.6858C189.131 83.6373 188.213 83.5445 187.276 83.4783C185.406 83.3549 183.538 83.2077 181.672 83.0366C180.599 82.9218 179.556 82.7716 178.505 82.6392C176.849 82.4272 175.206 82.1975 173.608 81.9369C172.552 81.7603 171.532 81.5616 170.516 81.3672C169.633 81.1906 168.75 80.9963 167.866 80.8019V51.6539ZM167.84 89.8776C168.392 89.988 168.984 90.0631 169.545 90.1691C170.525 90.3501 171.523 90.5135 172.526 90.6769C174.292 90.964 176.059 91.2202 177.905 91.4498C178.943 91.5779 179.972 91.7104 181.023 91.8164C182.984 92.024 184.971 92.1785 186.98 92.3154C187.917 92.3773 188.84 92.4612 189.785 92.5097C192.744 92.6599 195.729 92.7526 198.754 92.7526C200.521 92.7526 202.327 92.7129 204.12 92.6555C204.602 92.6555 205.079 92.6246 205.556 92.6025C207.131 92.5407 208.705 92.4568 210.277 92.3508L210.975 92.3066C212.744 92.1761 214.51 92.0171 216.274 91.8296L217.599 91.6839C219.056 91.5161 220.501 91.3306 221.932 91.1274L222.965 90.9861C224.661 90.7299 226.332 90.4473 227.978 90.1382L229.104 89.9173C230.455 89.6524 231.789 89.3697 233.078 89.065C233.458 88.9828 233.836 88.8959 234.213 88.8044C235.781 88.429 237.305 88.0271 238.811 87.5943C239.085 87.5148 239.345 87.4309 239.615 87.347C240.836 86.9826 242.049 86.5924 243.254 86.1767C243.625 86.0442 243.996 85.9205 244.362 85.7836C245.736 85.289 247.07 84.7678 248.337 84.2202C248.483 84.154 248.615 84.0833 248.779 84.0215C249.905 83.5224 250.987 82.9969 252.003 82.4581L252.957 81.9458C253.994 81.3672 254.993 80.7754 255.92 80.1527C255.995 80.0997 256.083 80.0512 256.163 79.9982L256.167 79.9805V101.585C256.167 108.788 233.803 119.251 198.754 119.251C188.368 119.295 178.005 118.242 167.84 116.111V89.8776ZM256.167 115.311V136.916C256.167 144.119 233.803 154.582 198.754 154.582C195.826 154.582 192.934 154.494 190.081 154.348C189.131 154.299 188.213 154.206 187.276 154.14C185.406 154.017 183.538 153.87 181.672 153.699C180.599 153.584 179.556 153.434 178.505 153.301C176.849 153.089 175.206 152.859 173.608 152.599C172.552 152.422 171.532 152.224 170.516 152.029C169.633 151.853 168.75 151.658 167.866 151.464V125.231C178.046 127.179 188.39 128.135 198.754 128.084C220.872 128.084 243.943 123.667 256.167 115.311ZM247.335 238.493H236.448L231.299 230.769C236.778 229.642 242.145 228.025 247.335 225.937V238.493ZM256.167 207.578C256.167 214.781 233.803 225.244 198.754 225.244C188.371 225.304 178.009 224.277 167.84 222.179V195.8C178.024 197.789 188.378 198.776 198.754 198.746C220.876 198.746 243.947 194.329 256.167 185.969V207.578ZM256.167 172.247C256.167 179.45 233.803 189.913 198.754 189.913C188.371 189.973 178.009 188.946 167.84 186.848V160.54C168.392 160.65 168.984 160.725 169.545 160.831C170.525 161.012 171.523 161.176 172.526 161.339C174.292 161.626 176.059 161.882 177.905 162.112C178.943 162.24 179.972 162.372 181.023 162.478C182.984 162.686 184.971 162.84 186.98 162.977C187.917 163.039 188.84 163.123 189.785 163.172C192.744 163.322 195.729 163.415 198.754 163.415C200.521 163.415 202.327 163.375 204.12 163.317C204.602 163.317 205.079 163.287 205.556 163.264C207.131 163.203 208.705 163.119 210.277 163.013L210.975 162.969C212.744 162.838 214.51 162.679 216.274 162.492L217.599 162.346C219.056 162.178 220.501 161.993 221.932 161.789L222.965 161.648C224.661 161.392 226.332 161.109 227.978 160.8L229.104 160.579C230.455 160.314 231.789 160.032 233.078 159.727C233.458 159.645 233.836 159.558 234.213 159.466C235.781 159.091 237.305 158.689 238.811 158.256C239.085 158.177 239.345 158.093 239.615 158.009C240.836 157.645 242.049 157.254 243.254 156.839C243.625 156.706 243.996 156.582 244.362 156.446C245.736 155.951 247.07 155.43 248.337 154.882C248.483 154.816 248.615 154.745 248.779 154.683C249.905 154.184 250.987 153.659 252.003 153.12L252.957 152.608C253.994 152.029 254.993 151.437 255.92 150.815C255.995 150.762 256.083 150.713 256.163 150.66H256.189L256.167 172.247Z" fill="black"/>
<path d="M26.5159 194.329H141.342V203.162H26.5159V194.329ZM26.5159 211.995H141.342V220.827H26.5159V211.995ZM53.0141 176.664H141.342V185.496H53.0141V176.664ZM35.3486 176.664H44.1814V185.496H35.3486V176.664ZM136.925 119.251H30.9322C29.7609 119.251 28.6376 119.716 27.8094 120.544C26.9812 121.373 26.5159 122.496 26.5159 123.667V158.998C26.5159 160.169 26.9812 161.293 27.8094 162.121C28.6376 162.949 29.7609 163.415 30.9322 163.415H136.925C137.505 163.415 138.079 163.3 138.615 163.078C139.151 162.856 139.638 162.531 140.048 162.121C140.458 161.711 140.783 161.224 141.005 160.688C141.227 160.152 141.342 159.578 141.342 158.998V123.667C141.342 122.496 140.876 121.373 140.048 120.544C139.22 119.716 138.096 119.251 136.925 119.251ZM132.509 154.582H35.3486V128.084H132.509V154.582Z" fill="black"/>
<path d="M114.843 136.916H123.676V145.749H114.843V136.916ZM97.1778 136.916H106.011V145.749H97.1778V136.916ZM79.5123 136.916H88.3451V145.749H79.5123V136.916Z" fill="black"/>
</g>
<defs>
<clipPath id="clip0_221_4957">
<rect width="265" height="265" fill="white"/>
</clipPath>
</defs>
</svg>
