<svg width="84" height="84" viewBox="0 0 84 84" fill="none" xmlns="http://www.w3.org/2000/svg">
<path d="M10.4437 69.0307C10.1217 67.9556 9.9586 66.8391 9.95964 65.7167C9.95964 64.5886 10.122 63.4987 10.4242 62.4685C7.87442 61.1426 6.13289 58.4771 6.13289 55.4044C6.13021 53.7041 6.67472 52.0481 7.68592 50.6813C4.34408 49.2643 2 45.9534 2 42.095C2 39.1806 3.33755 36.5786 5.43203 34.8692C4.52057 33.8174 4.01977 32.4717 4.02184 31.0799C4.02184 28.2616 6.03344 25.9132 8.69895 25.3918C8.564 24.7536 8.49614 24.1031 8.49647 23.4508C8.49647 19.5254 10.9228 16.1668 14.3572 14.7925C14.1792 14.1227 14.0893 13.4326 14.0898 12.7395C14.0898 8.34498 17.6523 4.78263 22.0468 4.78263C23.6143 4.78263 25.076 5.23601 26.3077 6.01861C27.3903 4.14449 29.1585 2.71626 31.2694 2.07666M36.5817 2.17741C39.9572 3.34271 42.3819 6.54804 42.3819 10.3197V71.4107C42.3819 77.1418 37.736 81.7877 32.005 81.7877C28.3686 81.7877 25.1691 79.9172 23.3161 77.0858C22.7074 77.1834 22.0918 77.2323 21.4753 77.2322C18.2431 77.2322 15.322 75.9006 13.2306 73.7561" stroke="#0FDE81" stroke-width="2.5" stroke-miterlimit="10" stroke-linecap="round" stroke-linejoin="round"/>
<path d="M14.0808 12.7613C14.0808 17.1526 17.6406 20.7123 22.0319 20.7123M21.4607 54.192C15.1056 54.192 9.95379 59.3437 9.95379 65.6988M8.90646 33.0941C4.92941 34.1557 2 37.7832 2 42.0949C2 47.2395 6.17059 51.4101 11.3152 51.4101M28.7175 25.8982C32.4836 24.8694 34.7027 20.9824 33.6741 17.2163M27.2387 65.6346C29.9063 65.3899 31.8707 63.0291 31.6259 60.3613M22.1908 43.1479C22.1833 40.7061 20.1979 38.7327 17.7561 38.7402M21.6132 71.3886C21.6132 77.1153 26.2557 81.7578 31.9825 81.7578M42.3817 47.6258H36.9631M36.9631 47.6258C34.3802 47.6258 32.2862 45.5318 32.2862 42.9488V42.4772M36.9631 47.6258H33.4976C31.4347 47.6258 29.7624 49.2981 29.7624 51.361" stroke="#0FDE81" stroke-width="2.5" stroke-miterlimit="10" stroke-linecap="round" stroke-linejoin="round"/>
<path d="M42.3809 56.8833H61.4483C61.75 56.8833 62.0393 56.7634 62.2526 56.5501C62.4659 56.3368 62.5858 56.0475 62.5858 55.7458V27.6968C62.5858 27.3951 62.4659 27.1057 62.2526 26.8924C62.0393 26.6791 61.75 26.5592 61.4483 26.5592H42.3809M47.4429 26.3992V21.5573M52.4905 26.3992V16.483H57.5573V11.4354M57.5382 26.3992V21.3896H62.5716M62.605 31.4658H67.6144M62.605 36.5136H77.7145M62.605 41.5612H70.1335L75.2003 46.7222M62.605 46.6088H67.6144M62.605 51.6564H70.1431V56.8643M47.4429 57.0435V66.9596H52.4762V74.5501M52.4905 62.0529V57.0435M57.5382 57.0435V61.8846H62.5716V69.4835" stroke="#0FDE81" stroke-width="2.5" stroke-miterlimit="10" stroke-linecap="round" stroke-linejoin="round"/>
<path d="M57.5573 41.5908V50.6887C57.5573 50.9904 57.4375 51.2798 57.2242 51.4931C57.0108 51.7064 56.7215 51.8262 56.4198 51.8262H42.381M42.3809 31.6165H56.4197C56.7214 31.6165 57.0107 31.7363 57.224 31.9496C57.4373 32.1629 57.5572 32.4523 57.5572 32.754V36.2791" stroke="#0FDE81" stroke-width="2.5" stroke-miterlimit="10" stroke-linecap="round" stroke-linejoin="round"/>
<path d="M65.1103 23.8535C66.4936 23.8535 67.6151 22.732 67.6151 21.3487C67.6151 19.9653 66.4936 18.8439 65.1103 18.8439C63.7269 18.8439 62.6055 19.9653 62.6055 21.3487C62.6055 22.732 63.7269 23.8535 65.1103 23.8535Z" stroke="#0FDE81" stroke-width="2.5" stroke-miterlimit="10" stroke-linecap="round" stroke-linejoin="round"/>
<path d="M80.2372 39.0184C81.6206 39.0184 82.742 37.897 82.742 36.5136C82.742 35.1303 81.6206 34.0088 80.2372 34.0088C78.8539 34.0088 77.7324 35.1303 77.7324 36.5136C77.7324 37.897 78.8539 39.0184 80.2372 39.0184Z" stroke="#0FDE81" stroke-width="2.5" stroke-miterlimit="10" stroke-linecap="round" stroke-linejoin="round"/>
<path d="M77.7138 51.7881C79.0971 51.7881 80.2186 50.6666 80.2186 49.2833C80.2186 47.8999 79.0971 46.7785 77.7138 46.7785C76.3304 46.7785 75.209 47.8999 75.209 49.2833C75.209 50.6666 76.3304 51.7881 77.7138 51.7881Z" stroke="#0FDE81" stroke-width="2.5" stroke-miterlimit="10" stroke-linecap="round" stroke-linejoin="round"/>
<path d="M70.1435 61.8929C71.5268 61.8929 72.6483 60.7714 72.6483 59.3881C72.6483 58.0047 71.5268 56.8833 70.1435 56.8833C68.7601 56.8833 67.6387 58.0047 67.6387 59.3881C67.6387 60.7714 68.7601 61.8929 70.1435 61.8929Z" stroke="#0FDE81" stroke-width="2.5" stroke-miterlimit="10" stroke-linecap="round" stroke-linejoin="round"/>
<path d="M57.5048 11.4164C58.8882 11.4164 60.0096 10.295 60.0096 8.91162C60.0096 7.52826 58.8882 6.40683 57.5048 6.40683C56.1214 6.40683 55 7.52826 55 8.91162C55 10.295 56.1214 11.4164 57.5048 11.4164Z" stroke="#0FDE81" stroke-width="2.5" stroke-miterlimit="10" stroke-linecap="round" stroke-linejoin="round"/>
<path d="M52.4775 79.5597C53.8608 79.5597 54.9822 78.4382 54.9822 77.0549C54.9822 75.6715 53.8608 74.5501 52.4775 74.5501C51.0941 74.5501 49.9727 75.6715 49.9727 77.0549C49.9727 78.4382 51.0941 79.5597 52.4775 79.5597Z" stroke="#0FDE81" stroke-width="2.5" stroke-miterlimit="10" stroke-linecap="round" stroke-linejoin="round"/>
<path d="M62.5712 74.5121C63.9546 74.5121 65.076 73.3907 65.076 72.0073C65.076 70.6239 63.9546 69.5025 62.5712 69.5025C61.1878 69.5025 60.0664 70.6239 60.0664 72.0073C60.0664 73.3907 61.1878 74.5121 62.5712 74.5121Z" stroke="#0FDE81" stroke-width="2.5" stroke-miterlimit="10" stroke-linecap="round" stroke-linejoin="round"/>
</svg>
