<svg width="77" height="77" viewBox="0 0 77 77" fill="none" xmlns="http://www.w3.org/2000/svg">
<circle cx="38.5" cy="38.5" r="38" fill="#FF9700" fill-opacity="0.25" stroke="#FF9700"/>
<g clip-path="url(#clip0_143_538)">
<path d="M55.0725 43.3072V35.2026C56.3854 34.9201 57.3726 33.7507 57.3726 32.3546C57.3726 30.0483 54.8121 28.6698 52.8931 29.8981L47.102 24.1069C48.3304 22.1877 46.9515 19.6275 44.6454 19.6275C42.8373 19.6275 41.4505 21.2702 41.7803 23.0676L35.04 25.8686L33.2925 24.1211C34.5285 22.2155 33.1702 19.6275 30.8448 19.6275C28.5415 19.6275 27.1581 22.1849 28.3883 24.107L22.5971 29.8981C20.6777 28.6695 18.1177 30.049 18.1177 32.3546C18.1177 34.1663 19.7635 35.5487 21.5578 35.2197L23.2347 39.2549L21.5578 43.2901C19.757 42.9597 18.1177 44.3505 18.1177 46.1552C18.1177 48.4616 20.6781 49.84 22.5971 48.6118L28.3883 54.4029C27.1597 56.3224 28.5392 58.8824 30.8448 58.8824C32.2409 58.8824 33.4102 57.8952 33.6927 56.5823H41.7974C42.08 57.8952 43.2493 58.8824 44.6453 58.8824C46.2518 58.8824 47.5588 57.5754 47.5588 55.9689C47.5588 54.3625 46.2518 53.0555 44.6453 53.0555C43.2492 53.0555 42.08 54.0427 41.7974 55.3556H33.9185L52.065 47.8148C53.6742 50.1438 57.3726 49.0111 57.3726 46.1552C57.3726 44.7591 56.3854 43.5898 55.0725 43.3072ZM23.8974 45.6353L25.5949 44.9345L29.1074 53.3871L23.4699 47.7496C23.8826 47.1216 24.0296 46.366 23.8974 45.6353ZM39.8895 32.453L37.2754 38.7853L26.2581 43.3336L24.5631 39.2549L28.4331 29.9424L34.7526 27.316L39.8895 32.453ZM45.7749 36.6035L49.2322 35.1762L52.7052 43.5339L45.7749 36.6035ZM50.3661 34.7081L52.0607 34.0085C52.4808 34.6205 53.1198 35.0478 53.8458 35.2025V43.0816L50.3661 34.7081ZM51.5928 32.8745L49.8954 33.5753L46.3829 25.1229L52.0203 30.7603C51.6076 31.3882 51.4606 32.1438 51.5928 32.8745ZM44.1258 25.4072C44.4642 25.4685 44.8118 25.4721 45.1721 25.406L48.7614 34.0434L44.8355 35.6642L41.336 32.1646L44.1258 25.4072ZM43.6076 36.1711L38.8752 38.1248L40.8289 33.3925L43.6076 36.1711ZM36.6149 40.3851L31.3647 53.1027C31.0187 53.0394 30.664 53.0398 30.3181 53.1039L26.7288 44.4665L36.6149 40.3851ZM33.2379 54.3099C33.0373 54.0218 32.7867 53.7719 32.4982 53.5719L38.2148 39.7247L44.547 37.1105L52.0115 44.5751C51.6001 45.2094 51.4622 45.9631 51.5942 46.6821L33.2379 54.3099ZM42.2522 24.1999C42.4529 24.4881 42.7036 24.7381 42.9923 24.9381L40.3964 31.225L35.9781 26.8067L42.2522 24.1999ZM29.1002 28.3369L30.3181 25.4059C31.0386 25.5382 31.792 25.3991 32.425 24.9885L33.8143 26.3779L29.1002 28.3369ZM23.6131 30.6172L29.1074 25.1229L27.4945 29.0043L23.6131 30.6172ZM22.6906 34.7489C23.6283 34.1011 24.1045 32.9637 23.8963 31.8279L26.8273 30.6098L23.899 37.6566L22.6906 34.7489ZM25.1241 43.8017L23.4281 44.5019C23.2282 44.2133 22.9782 43.9627 22.6902 43.762L23.899 40.8533L25.1241 43.8017Z" fill="#FF9700"/>
</g>
<defs>
<clipPath id="clip0_143_538">
<rect width="39.2549" height="39.2549" fill="white" transform="translate(18.1177 19.6275)"/>
</clipPath>
</defs>
</svg>
