<svg width="99" height="76" viewBox="0 0 99 76" fill="none" xmlns="http://www.w3.org/2000/svg">
<path opacity="0.7" fill-rule="evenodd" clip-rule="evenodd" d="M49.4991 13.4404L29.3663 25.0631L49.4991 36.6862L69.6322 25.0631L49.4991 13.4404ZM50.6594 61.9428V38.6973L70.7922 27.0727V50.3204L50.6594 61.9428ZM85.2804 70.7429C85.2806 70.0913 85.1346 69.4479 84.8531 68.8602C84.5716 68.2725 84.1618 67.7555 83.6539 67.3473C83.1461 66.939 82.553 66.6499 81.9186 66.5013C81.2841 66.3527 80.6244 66.3484 79.988 66.4887L75.3592 58.4731C75.2576 58.2963 75.111 58.1495 74.9344 58.0476C74.7578 57.9457 74.5574 57.8923 74.3534 57.8929H66.8183C66.6644 57.8903 66.5115 57.9185 66.3685 57.9757C66.2255 58.0328 66.0953 58.1179 65.9855 58.2259C65.8758 58.3338 65.7886 58.4626 65.729 58.6046C65.6695 58.7466 65.6389 58.8991 65.6389 59.0531C65.6389 59.2071 65.6695 59.3595 65.729 59.5015C65.7886 59.6436 65.8758 59.7723 65.9855 59.8803C66.0953 59.9883 66.2255 60.0733 66.3685 60.1305C66.5115 60.1877 66.6644 60.2158 66.8183 60.2133H73.6846L77.937 67.5784C77.4123 68.0736 77.0189 68.6914 76.7921 69.3764C76.5653 70.0613 76.5123 70.7919 76.6378 71.5024C76.7632 72.2129 77.0633 72.8811 77.511 73.4469C77.9587 74.0128 78.54 74.4585 79.2026 74.744C79.8652 75.0296 80.5883 75.146 81.3071 75.0828C82.0258 75.0197 82.7176 74.7789 83.3202 74.3822C83.9229 73.9855 84.4175 73.4452 84.7596 72.81C85.1018 72.1747 85.2807 71.4644 85.2804 70.7429ZM89.2216 63.9112C88.4072 63.9122 87.6088 63.6847 86.9173 63.2545C86.2257 62.8244 85.6688 62.2089 85.3096 61.4779C84.9505 60.747 84.8036 59.93 84.8856 59.1197C84.9677 58.3095 85.2754 57.5385 85.7738 56.8944L77.6965 49.023H75.3394C75.0316 49.023 74.7365 48.9007 74.5189 48.6831C74.3013 48.4655 74.179 48.1704 74.179 47.8626C74.179 47.5549 74.3013 47.2597 74.5189 47.0421C74.7365 46.8245 75.0316 46.7023 75.3394 46.7023H78.168C78.4707 46.7028 78.7612 46.8213 78.9779 47.0326L87.6523 55.4889C88.2489 55.2597 88.8886 55.1646 89.5261 55.2103C90.1636 55.256 90.7832 55.4414 91.341 55.7533C91.8988 56.0653 92.3811 56.4961 92.7538 57.0154C93.1264 57.5346 93.3803 58.1294 93.4973 58.7577C93.6143 59.386 93.5917 60.0324 93.431 60.651C93.2703 61.2696 92.9754 61.8452 92.5673 62.337C92.1592 62.8289 91.6479 63.225 91.0697 63.4971C90.4914 63.7693 89.8604 63.9109 89.2212 63.9118L89.2216 63.9112ZM94.6393 33.6693C93.6869 33.6713 92.7614 33.9849 92.0038 34.5621C91.2463 35.1393 90.6985 35.9486 90.4438 36.8663H75.34C75.0356 36.8713 74.7454 36.9957 74.5319 37.2127C74.3184 37.4298 74.1987 37.722 74.1987 38.0265C74.1987 38.3309 74.3184 38.6231 74.5319 38.8402C74.7454 39.0572 75.0356 39.1817 75.34 39.1867H90.4438C90.6601 39.9692 91.0908 40.6757 91.6872 41.2265C92.2836 41.7774 93.0221 42.1506 93.8193 42.3041C94.6165 42.4576 95.4408 42.3853 96.1991 42.0953C96.9574 41.8054 97.6196 41.3093 98.111 40.663C98.6024 40.0168 98.9035 39.2461 98.9802 38.4379C99.057 37.6297 98.9064 36.8161 98.5454 36.0889C98.1844 35.3617 97.6274 34.7498 96.9372 34.3223C96.2471 33.8948 95.4512 33.6686 94.6393 33.6693ZM75.3592 17.5795C75.2576 17.7563 75.111 17.9031 74.9344 18.005C74.7578 18.1069 74.5574 18.1603 74.3534 18.1597H66.8183C66.6644 18.1623 66.5115 18.1341 66.3685 18.077C66.2255 18.0198 66.0953 17.9347 65.9855 17.8267C65.8758 17.7188 65.7886 17.59 65.729 17.448C65.6695 17.306 65.6389 17.1535 65.6389 16.9995C65.6389 16.8455 65.6695 16.6931 65.729 16.5511C65.7886 16.409 65.8758 16.2803 65.9855 16.1723C66.0953 16.0643 66.2255 15.9793 66.3685 15.9221C66.5115 15.8649 66.6644 15.8368 66.8183 15.8393H73.6846L77.937 8.47677C77.2007 7.78135 76.7299 6.85099 76.6056 5.84586C76.4813 4.84073 76.7113 3.82372 77.256 2.96989C77.8008 2.11607 78.6261 1.47885 79.59 1.16794C80.5538 0.857023 81.596 0.891867 82.5369 1.26647C83.4779 1.64107 84.2588 2.33199 84.7453 3.22029C85.2317 4.10859 85.3933 5.1387 85.2022 6.13328C85.011 7.12787 84.4791 8.0247 83.698 8.66939C82.9169 9.31408 81.9355 9.6663 80.9227 9.66542C80.608 9.66494 80.2942 9.6307 79.9868 9.56327L75.3579 17.5795H75.3592ZM75.34 29.3497H78.1686C78.4713 29.3492 78.7618 29.2307 78.9785 29.0194L87.6529 20.565C88.5207 20.8997 89.4727 20.9479 90.3698 20.7027C91.267 20.4575 92.0621 19.9316 92.6388 19.202C93.2156 18.4724 93.5438 17.5774 93.5754 16.6479C93.607 15.7184 93.3403 14.8032 92.8144 14.0361C92.2885 13.2691 91.531 12.6904 90.6526 12.3848C89.7742 12.0792 88.821 12.0627 87.9326 12.3377C87.0441 12.6128 86.267 13.1648 85.7148 13.9132C85.1627 14.6617 84.8645 15.5671 84.8639 16.4971C84.8635 17.4606 85.1842 18.3968 85.7754 19.1576L77.6981 27.0318H75.3409C75.1871 27.0293 75.0344 27.0574 74.8915 27.1145C74.7487 27.1716 74.6187 27.2566 74.509 27.3644C74.3994 27.4723 74.3123 27.6009 74.2528 27.7428C74.1934 27.8847 74.1628 28.0369 74.1628 28.1908C74.1628 28.3446 74.1934 28.4969 74.2528 28.6387C74.3123 28.7806 74.3994 28.9092 74.509 29.0171C74.6187 29.125 74.7487 29.2099 74.8915 29.267C75.0344 29.3241 75.1871 29.3522 75.3409 29.3497H75.34ZM18.0742 75.0996C18.9464 75.1001 19.7986 74.8385 20.5204 74.3488C21.2421 73.8591 21.8001 73.1638 22.1219 72.3532C22.4437 71.5425 22.5145 70.6539 22.3252 69.8025C22.1358 68.9511 21.695 68.1762 21.0599 67.5784L25.3135 60.2142H32.1792C32.4836 60.2092 32.7738 60.0848 32.9873 59.8677C33.2008 59.6507 33.3205 59.3585 33.3205 59.054C33.3205 58.7496 33.2008 58.4573 32.9873 58.2403C32.7738 58.0233 32.4836 57.8988 32.1792 57.8938H24.6441C24.4402 57.8932 24.2397 57.9466 24.0631 58.0485C23.8865 58.1504 23.7399 58.2972 23.6384 58.474L19.0086 66.4903C18.4113 66.3597 17.7933 66.3562 17.1947 66.4802C16.596 66.6042 16.0302 66.8528 15.5339 67.2098C15.0377 67.5668 14.6221 68.0243 14.3143 68.5525C14.0065 69.0807 13.8133 69.6678 13.7473 70.2756C13.6813 70.8833 13.744 71.4982 13.9313 72.0801C14.1186 72.6621 14.4262 73.1981 14.8343 73.6533C15.2424 74.1086 15.7417 74.4728 16.2998 74.7224C16.8578 74.9719 17.4622 75.1012 18.0736 75.1018L18.0742 75.0996ZM23.6582 49.0236H21.301L13.2238 56.895C13.8644 57.7273 14.1821 58.7634 14.1182 59.8117C14.0542 60.8601 13.6129 61.8498 12.8758 62.5981C12.1387 63.3463 11.1557 63.8024 10.1084 63.882C9.06111 63.9617 8.02039 63.6595 7.17861 63.0314C6.33683 62.4032 5.75091 61.4916 5.52913 60.465C5.30736 59.4383 5.46473 58.3661 5.97217 57.4465C6.4796 56.5269 7.30278 55.8221 8.28956 55.4624C9.27634 55.1026 10.36 55.1123 11.3402 55.4895L20.0178 47.0332C20.2347 46.822 20.5253 46.7036 20.828 46.7029H23.6566C23.9643 46.7029 24.2595 46.8252 24.4771 47.0428C24.6947 47.2604 24.817 47.5555 24.817 47.8633C24.817 48.171 24.6947 48.4661 24.4771 48.6838C24.2595 48.9014 23.9643 49.0236 23.6566 49.0236H23.6582ZM4.35512 42.3833C5.30768 42.3821 6.23365 42.0691 6.99162 41.4922C7.74959 40.9152 8.29789 40.1061 8.55277 39.1882H23.6582C23.9626 39.1832 24.2528 39.0588 24.4663 38.8418C24.6798 38.6247 24.7994 38.3325 24.7994 38.028C24.7994 37.7236 24.6798 37.4314 24.4663 37.2143C24.2528 36.9973 23.9626 36.8728 23.6582 36.8678H8.55277C8.33657 36.0855 7.90611 35.3792 7.30992 34.8284C6.71373 34.2777 5.97553 33.9045 5.17857 33.7509C4.3816 33.5972 3.55757 33.6693 2.79939 33.959C2.04121 34.2487 1.37904 34.7444 0.887546 35.3904C0.396055 36.0363 0.0947928 36.8066 0.0177291 37.6146C-0.0593345 38.4226 0.0908644 39.236 0.451393 39.9632C0.811922 40.6903 1.36844 41.3023 2.05819 41.7301C2.74794 42.1579 3.54348 42.3844 4.35512 42.3842V42.3833ZM22.4306 5.30967C22.4307 5.90317 22.3092 6.4904 22.0738 7.03519C21.8383 7.57998 21.4938 8.0708 21.0615 8.4774L25.3135 15.84H32.1792C32.4836 15.845 32.7738 15.9694 32.9873 16.1864C33.2008 16.4035 33.3205 16.6957 33.3205 17.0002C33.3205 17.3046 33.2008 17.5968 32.9873 17.8139C32.7738 18.0309 32.4836 18.1553 32.1792 18.1604H24.6441C24.4402 18.161 24.2397 18.1076 24.0631 18.0057C23.8865 17.9038 23.7399 17.757 23.6384 17.5802L19.0086 9.5639C18.1279 9.75739 17.2088 9.67279 16.3782 9.32178C15.5476 8.97077 14.8464 8.37065 14.3714 7.60422C13.8963 6.83779 13.6708 5.94282 13.726 5.04279C13.7811 4.14276 14.1143 3.28203 14.6794 2.57936C15.2445 1.87669 16.0137 1.3667 16.881 1.11977C17.7482 0.872833 18.6707 0.901119 19.5212 1.20072C20.3717 1.50033 21.1083 2.05648 21.6292 2.79246C22.1502 3.52843 22.43 4.40796 22.4299 5.30967H22.4306ZM9.7785 12.1433C9.1397 12.1441 8.50889 12.2854 7.93079 12.5572C7.35269 12.829 6.84146 13.2246 6.43333 13.7161C6.0252 14.2075 5.73018 14.7827 5.56916 15.4009C5.40814 16.0191 5.38508 16.6651 5.5016 17.2932C5.61813 17.9213 5.87139 18.516 6.24343 19.0353C6.61547 19.5546 7.09719 19.9857 7.65443 20.298C8.21168 20.6104 8.83081 20.7963 9.46793 20.8427C10.1051 20.889 10.7446 20.7946 11.3412 20.5662L20.0187 29.0206C20.2356 29.2318 20.5262 29.3503 20.8289 29.351H23.6575C23.8113 29.3535 23.9641 29.3254 24.1069 29.2683C24.2498 29.2112 24.3798 29.1262 24.4895 29.0183C24.5991 28.9105 24.6862 28.7819 24.7457 28.64C24.8051 28.4981 24.8357 28.3458 24.8357 28.192C24.8357 28.0382 24.8051 27.8859 24.7457 27.744C24.6862 27.6022 24.5991 27.4736 24.4895 27.3657C24.3798 27.2578 24.2498 27.1729 24.1069 27.1157C23.9641 27.0586 23.8113 27.0305 23.6575 27.0331H21.3004L13.2231 19.1589C13.7214 18.515 14.0291 17.7443 14.1111 16.9343C14.1932 16.1243 14.0464 15.3075 13.6874 14.5768C13.3285 13.8461 12.7717 13.2307 12.0804 12.8006C11.3891 12.3706 10.5911 12.143 9.77693 12.1439L9.7785 12.1433ZM28.2059 27.072L48.339 38.6967V61.9428L28.2059 50.3204V27.072Z" fill="#5079E1"/>
</svg>
