<svg width="96" height="97" viewBox="0 0 96 97" fill="none" xmlns="http://www.w3.org/2000/svg">
<path d="M47.0285 61.5021L43.2758 55.0026C43.045 54.6027 42.6748 54.302 42.236 54.1579C41.7973 54.0139 41.3209 54.0368 40.898 54.222L37.8304 55.566C36.9182 54.8887 35.9315 54.3181 34.8895 53.8653L34.5198 50.5398C34.4689 50.0809 34.2505 49.6569 33.9064 49.3489C33.5624 49.0409 33.1169 48.8706 32.6551 48.8706H25.1501C24.6883 48.8706 24.2428 49.0408 23.8987 49.3488C23.5547 49.6568 23.3363 50.0808 23.2854 50.5398L22.9158 53.8653C21.8738 54.3181 20.8871 54.8887 19.975 55.566L16.9073 54.222C16.4843 54.0368 16.0079 54.0139 15.5692 54.1579C15.1305 54.302 14.7603 54.6027 14.5294 55.0026L10.7768 61.5021C10.5459 61.902 10.4706 62.373 10.5652 62.8249C10.6599 63.2768 10.9178 63.678 11.2898 63.9516L13.9877 65.9364C13.8602 67.0645 13.8603 68.2033 13.9879 69.3314L11.2898 71.3164C10.9178 71.59 10.6599 71.9912 10.5652 72.4431C10.4706 72.895 10.5459 73.366 10.7768 73.7659L14.5294 80.2654C14.7603 80.6653 15.1305 80.966 15.5692 81.1101C16.0079 81.2541 16.4843 81.2313 16.9073 81.046L19.9747 79.702C20.8869 80.3794 21.8737 80.95 22.9158 81.4028L23.2854 84.7282C23.3364 85.1872 23.5548 85.6111 23.8988 85.9191C24.2428 86.2271 24.6884 86.3974 25.1501 86.3974H32.6551C33.1169 86.3974 33.5625 86.2272 33.9065 85.9192C34.2506 85.6112 34.4689 85.1872 34.5198 84.7282L34.8895 81.4027C35.9314 80.9499 36.9181 80.3793 37.8302 79.702L40.898 81.046C41.3209 81.2314 41.7974 81.2543 42.2361 81.1103C42.6749 80.9663 43.0451 80.6654 43.2758 80.2654L47.0285 73.7659C47.2593 73.366 47.3346 72.895 47.24 72.4431C47.1454 71.9912 46.8874 71.59 46.5155 71.3164L43.8175 69.3316C43.9449 68.2035 43.9449 67.0646 43.8175 65.9364L46.5155 63.9516C46.8874 63.678 47.1454 63.2768 47.24 62.8249C47.3346 62.373 47.2593 61.902 47.0285 61.5021ZM39.9501 65.458C40.2302 66.8951 40.2302 68.3728 39.9501 69.8099C39.8817 70.159 39.914 70.5203 40.0431 70.8517C40.1723 71.1832 40.393 71.4711 40.6796 71.6819L42.9388 73.3439L40.8655 76.9348L38.2942 75.8083C37.9681 75.6654 37.608 75.6183 37.256 75.6724C36.9041 75.7265 36.5748 75.8796 36.3066 76.1139C35.1961 77.0843 33.9301 77.8167 32.5435 78.2902C32.2066 78.4054 31.9095 78.6139 31.6867 78.8916C31.4639 79.1693 31.3248 79.5046 31.2854 79.8585L30.9759 82.6446H26.8294L26.5198 79.8586C26.4805 79.5048 26.3413 79.1695 26.1186 78.8918C25.8958 78.6141 25.5986 78.4055 25.2617 78.2904C23.8772 77.818 22.5986 77.0787 21.4986 76.1143C21.2304 75.8799 20.9012 75.7267 20.5492 75.6725C20.1972 75.6183 19.8371 75.6654 19.5108 75.8083L16.9395 76.9348L14.8664 73.3439L17.1259 71.6817C17.4123 71.4709 17.633 71.1831 17.7621 70.8517C17.8913 70.5203 17.9237 70.1591 17.8556 69.8101C17.575 68.3729 17.5749 66.8951 17.8552 65.458C17.9235 65.1089 17.8913 64.7475 17.7621 64.4161C17.6329 64.0846 17.4122 63.7967 17.1257 63.586L14.8664 61.9239L16.9395 58.333L19.511 59.4596C19.8372 59.6025 20.1973 59.6497 20.5492 59.5956C20.9012 59.5415 21.2305 59.3883 21.4986 59.1539C22.5987 58.1896 23.8771 57.4502 25.2615 56.9776C25.5985 56.8625 25.8957 56.654 26.1185 56.3763C26.3413 56.0986 26.4805 55.7632 26.5198 55.4094L26.8294 52.6232H30.9759L31.2854 55.4094C31.3247 55.7632 31.4639 56.0986 31.6867 56.3763C31.9095 56.654 32.2068 56.8625 32.5437 56.9776C33.9282 57.45 35.2065 58.1893 36.3065 59.1537C36.5746 59.3881 36.9039 59.5413 37.2559 59.5955C37.6079 59.6496 37.968 59.6025 38.2942 59.4596L40.8655 58.333L42.9388 61.9239L40.6796 63.586C40.393 63.7967 40.1723 64.0846 40.0431 64.4161C39.914 64.7475 39.8817 65.1089 39.9501 65.458Z" fill="#567BFF"/>
<path d="M28.9046 61.0668C25.2835 61.0668 22.3375 64.0128 22.3375 67.6339C22.6677 76.334 35.1427 76.3318 35.4715 67.6339C35.4715 64.0128 32.5257 61.0668 28.9046 61.0668ZM28.9046 70.4484C27.3527 70.4484 26.0901 69.1858 26.0901 67.6339C26.2316 63.9053 31.5779 63.9063 31.7189 67.6339C31.7189 69.1858 30.4565 70.4484 28.9046 70.4484ZM87.5881 8.95058C76.8252 -2.26677 57.4592 -2.2662 46.6965 8.95058C44.2704 11.3766 42.2844 14.2483 40.8527 17.3696L40.8437 17.3493C40.4246 16.4018 39.3164 15.9731 38.3689 16.3924C37.421 16.8116 36.9926 17.9197 37.4118 18.8674L39.3093 23.1573C39.5107 23.6123 39.8846 23.9687 40.3487 24.1481C40.8128 24.3276 41.3292 24.3154 41.7843 24.1142L46.074 22.2165C47.0217 21.7973 47.45 20.6892 47.0309 19.7416C46.9312 19.5163 46.7881 19.3128 46.6098 19.1427C46.4314 18.9727 46.2214 18.8394 45.9915 18.7505C45.7617 18.6617 45.5166 18.619 45.2703 18.6248C45.0239 18.6307 44.7812 18.685 44.5558 18.7847L44.2744 18.9093C45.5195 16.2012 47.2444 13.7098 49.35 11.6042C58.716 1.84273 75.5686 1.84311 84.9342 11.6042C94.6958 20.9702 94.6954 37.8229 84.9342 47.1885C75.5671 56.9498 58.7165 56.9498 49.35 47.1883C44.9429 42.7814 39.3646 39.9647 33.2182 39.0423C27.196 38.1389 21.1586 39.1179 15.7599 41.874C14.8369 42.3452 14.4707 43.4755 14.942 44.3984C15.4131 45.3214 16.5434 45.6875 17.4662 45.2165C27.2088 40.2428 38.956 42.1013 46.6963 49.8422C57.46 61.0588 76.8248 61.0593 87.5877 49.8418C98.8047 39.0796 98.8054 19.7124 87.5881 8.95058Z" fill="#567BFF"/>
<path d="M49.0151 35.5278L52.7677 42.0275C52.9986 42.4275 53.3688 42.7282 53.8076 42.8722C54.2463 43.0163 54.7228 42.9934 55.1457 42.8081L58.2129 41.4641C59.1251 42.1415 60.1119 42.7122 61.1541 43.1649L61.5237 46.4903C61.5747 46.9492 61.7931 47.3732 62.1371 47.6812C62.4811 47.9892 62.9266 48.1595 63.3884 48.1595H70.8934C71.3552 48.1595 71.8007 47.9893 72.1448 47.6813C72.4888 47.3733 72.7072 46.9493 72.7581 46.4903L73.1277 43.1648C74.1697 42.712 75.1564 42.1413 76.0685 41.4641L79.1363 42.8081C79.5592 42.9934 80.0356 43.0162 80.4743 42.8722C80.913 42.7281 81.2832 42.4274 81.5141 42.0275L85.2667 35.5278C85.4976 35.1279 85.5729 34.6569 85.4783 34.205C85.3836 33.7531 85.1257 33.3519 84.7537 33.0783L82.0558 31.0935C82.1832 29.9654 82.1832 28.8265 82.0558 27.6983L84.7537 25.7136C85.1257 25.4399 85.3836 25.0387 85.4783 24.5868C85.5729 24.1349 85.4976 23.6639 85.2667 23.264L81.5141 16.7645C81.2832 16.3646 80.913 16.0639 80.4743 15.9199C80.0356 15.7758 79.5592 15.7987 79.1363 15.9839L76.0687 17.3279C75.1565 16.6506 74.1698 16.08 73.1277 15.6273L72.7581 12.3017C72.7071 11.8428 72.4887 11.4188 72.1447 11.1108C71.8007 10.8028 71.3552 10.6325 70.8934 10.6325H63.3884C62.9266 10.6325 62.4811 10.8027 62.137 11.1107C61.793 11.4187 61.5746 11.8427 61.5237 12.3017L61.1541 15.6273C60.1121 16.0801 59.1255 16.6507 58.2133 17.3279L55.1455 15.9839C54.7226 15.7987 54.2462 15.7758 53.8075 15.9199C53.3688 16.0639 52.9986 16.3646 52.7677 16.7645L49.0151 23.264C48.7842 23.6639 48.7089 24.1349 48.8035 24.5868C48.8982 25.0387 49.1561 25.4399 49.5281 25.7136L52.226 27.6983C52.0985 28.8264 52.0985 29.9653 52.2262 31.0933L49.5281 33.0783C49.1561 33.3519 48.8982 33.7531 48.8035 34.205C48.7089 34.6569 48.7842 35.1279 49.0151 35.5278ZM56.0936 31.5722C55.8131 30.135 55.813 28.6572 56.0933 27.22C56.1616 26.871 56.1293 26.5096 56.0002 26.1782C55.871 25.8467 55.6503 25.5588 55.3638 25.348L53.1045 23.686L55.1776 20.0951L57.7491 21.2217C58.0753 21.3646 58.4354 21.4118 58.7873 21.3577C59.1393 21.3035 59.4686 21.1504 59.7367 20.916C60.8475 19.9454 62.1134 19.2133 63.4996 18.7399C63.8366 18.6248 64.1338 18.4162 64.3566 18.1384C64.5794 17.8607 64.7186 17.5253 64.7579 17.1715L65.0675 14.3853H69.2139L69.5235 17.1715C69.5628 17.5253 69.702 17.8607 69.9248 18.1384C70.1476 18.4161 70.4449 18.6246 70.7818 18.7397C72.1662 19.2121 73.4446 19.9514 74.5445 20.9158C74.8127 21.1502 75.142 21.3034 75.494 21.3576C75.846 21.4117 76.2061 21.3646 76.5323 21.2217L79.1036 20.0951L81.1769 23.686L78.9177 25.348C78.6311 25.5588 78.4104 25.8467 78.2812 26.1782C78.1521 26.5096 78.1198 26.871 78.1882 27.22C78.4683 28.6572 78.4683 30.1348 78.1882 31.572C78.1198 31.9211 78.1521 32.2824 78.2812 32.6138C78.4104 32.9453 78.6311 33.2332 78.9177 33.444L81.1769 35.106L79.1038 38.6969L76.5323 37.5703C76.2061 37.4276 75.8461 37.3805 75.4942 37.4346C75.1422 37.4887 74.813 37.6418 74.5447 37.876C73.4341 38.8464 72.1682 39.5788 70.7816 40.0523C70.4447 40.1675 70.1476 40.376 69.9248 40.6537C69.702 40.9314 69.5629 41.2667 69.5235 41.6206L69.2139 44.4067H65.0675L64.7579 41.6207C64.7186 41.2669 64.5794 40.9315 64.3566 40.6538C64.1338 40.3761 63.8366 40.1676 63.4996 40.0525C62.1151 39.5802 60.8366 38.8408 59.7367 37.8764C59.4685 37.642 59.1392 37.4887 58.7872 37.4345C58.4352 37.3804 58.075 37.4275 57.7487 37.5703L55.1776 38.6969L53.1045 35.106L55.3639 33.4438C55.6505 33.233 55.8712 32.9452 56.0004 32.6138C56.1296 32.2825 56.1619 31.9212 56.0936 31.5722Z" fill="#567BFF"/>
<path d="M67.1414 35.9631C70.7625 35.9631 73.7085 33.0171 73.7085 29.396C73.3783 20.6959 60.9032 20.6982 60.5745 29.396C60.5745 33.0171 63.5203 35.9631 67.1414 35.9631ZM67.1414 26.5815C68.6933 26.5815 69.9559 27.8441 69.9559 29.396C69.8144 33.1246 64.468 33.1237 64.3271 29.396C64.3271 27.8441 65.5897 26.5815 67.1414 26.5815ZM56.7365 73.8728C56.5351 73.4178 56.1612 73.0614 55.6971 72.882C55.2329 72.7025 54.7166 72.7147 54.2614 72.9159L49.9718 74.8136C47.7347 75.8974 49.1849 79.1719 51.4901 78.2454L51.7727 78.1204C50.5278 80.8289 48.8031 83.3189 46.696 85.426C37.3302 95.1876 20.4775 95.1872 11.1119 85.426C3.3706 77.6853 1.51193 65.9381 6.48641 56.1948C6.95774 55.2718 6.59148 54.1417 5.66852 53.6704C4.74594 53.1993 3.61546 53.5653 3.14432 54.4883C-2.55517 65.3345 -0.343557 79.5089 8.45822 88.0795C22.4431 102.321 47.0476 97.8756 55.1936 79.6613L55.2022 79.6808C55.3019 79.9061 55.4449 80.1097 55.6232 80.2797C55.8015 80.4498 56.0116 80.583 56.2414 80.6719C56.4712 80.7608 56.7163 80.8035 56.9627 80.7976C57.209 80.7917 57.4518 80.7374 57.6771 80.6377C58.6248 80.2185 59.0534 79.1104 58.6342 78.1626L56.7365 73.8728ZM9.78609 50.3906C10.2098 50.3906 10.6361 50.2478 10.9867 49.9555C11.7829 49.292 11.8904 48.109 11.2271 47.3129C10.5633 46.5168 9.38005 46.4096 8.5845 47.0727L8.58337 47.0737C7.78725 47.7371 7.6803 48.9198 8.34358 49.7159C8.51966 49.9274 8.74022 50.0976 8.98954 50.2142C9.23887 50.3308 9.51084 50.3911 9.78609 50.3906Z" fill="#567BFF"/>
</svg>
