<svg width="77" height="77" viewBox="0 0 77 77" fill="none" xmlns="http://www.w3.org/2000/svg">
<circle cx="38.5" cy="38.5" r="38" fill="#FF9700" fill-opacity="0.25" stroke="#FF9700"/>
<path fill-rule="evenodd" clip-rule="evenodd" d="M21.9259 45.5638C21.9827 45.7147 21.9773 45.882 21.9108 46.0288C21.8443 46.1757 21.7221 46.2901 21.5713 46.3469C21.4204 46.4037 21.2531 46.3983 21.1062 46.3318C20.9594 46.2653 20.845 46.1432 20.7881 45.9923C19.4152 42.3608 19.2544 38.4156 20.2454 34.7447C21.9152 28.5593 26.7311 23.6935 32.8542 21.9416L31.9458 21.6193C31.7951 21.5645 31.6722 21.4524 31.6037 21.3075C31.5351 21.1625 31.5266 20.9964 31.5799 20.8452C31.6333 20.694 31.7441 20.57 31.8884 20.5001C32.0327 20.4302 32.1987 20.4201 32.3504 20.472L35.2459 21.4994C35.6305 21.6351 35.7755 22.1103 35.5316 22.4373L33.6632 24.9401C33.6153 25.0042 33.5553 25.0582 33.4866 25.0991C33.4179 25.14 33.3418 25.167 33.2627 25.1785C33.1836 25.19 33.1029 25.1858 33.0254 25.1661C32.9479 25.1465 32.875 25.1117 32.811 25.0639C32.7469 25.0161 32.6928 24.9561 32.6519 24.8874C32.611 24.8187 32.5841 24.7426 32.5726 24.6634C32.5611 24.5843 32.5653 24.5037 32.5849 24.4262C32.6046 24.3486 32.6393 24.2758 32.6872 24.2117L33.5926 22.9988C27.6956 24.5338 23.0198 29.1373 21.4213 35.0589C20.4952 38.4896 20.6445 42.1744 21.9259 45.5638ZM40.5413 42.0787C40.418 42.1803 40.2596 42.2291 40.1004 42.2145C39.9413 42.1999 39.7944 42.1231 39.6916 42.0009C39.5887 41.8786 39.5383 41.7207 39.5512 41.5614C39.5641 41.4022 39.6394 41.2544 39.7606 41.1503L41.6884 39.5257L39.7606 37.9011C39.6394 37.797 39.5641 37.6493 39.5512 37.4901C39.5383 37.3308 39.5887 37.1729 39.6916 37.0506C39.7944 36.9283 39.9413 36.8516 40.1004 36.837C40.2596 36.8224 40.418 36.8712 40.5413 36.9728L43.0136 39.0561C43.3054 39.2955 43.3115 39.7447 43.02 39.9899L40.5413 42.0787ZM36.0421 41.1503L34.1143 39.5257L36.0421 37.9011C36.1633 37.797 36.2385 37.6493 36.2514 37.4901C36.2643 37.3308 36.2139 37.1729 36.1111 37.0506C36.0082 36.9283 35.8613 36.8516 35.7022 36.837C35.5431 36.8224 35.3847 36.8712 35.2613 36.9728L32.789 39.0561C32.4973 39.2955 32.4911 39.7447 32.7827 39.9899L35.2614 42.0786C35.5177 42.2941 35.9003 42.2611 36.116 42.0048C36.3316 41.7484 36.2984 41.366 36.0421 41.1503ZM37.7287 42.5215C37.7089 42.5996 37.6738 42.6731 37.6254 42.7375C37.577 42.802 37.5163 42.8562 37.4468 42.897C37.3773 42.9378 37.3004 42.9643 37.2205 42.9752C37.1407 42.986 37.0594 42.9809 36.9816 42.9601C36.9037 42.9393 36.8308 42.9032 36.7669 42.854C36.7031 42.8048 36.6497 42.7433 36.6098 42.6733C36.57 42.6033 36.5444 42.526 36.5346 42.446C36.5248 42.366 36.531 42.2849 36.5528 42.2073L38.074 36.5301C38.0938 36.4519 38.1289 36.3785 38.1773 36.314C38.2257 36.2496 38.2864 36.1954 38.3559 36.1546C38.4254 36.1138 38.5023 36.0872 38.5822 36.0764C38.6621 36.0655 38.7433 36.0707 38.8212 36.0915C38.899 36.1123 38.972 36.1483 39.0358 36.1976C39.0996 36.2468 39.153 36.3082 39.1929 36.3782C39.2328 36.4483 39.2584 36.5255 39.2681 36.6055C39.2779 36.6855 39.2717 36.7667 39.2499 36.8443L37.7287 42.5215ZM27.4564 42.0186C27.7197 43.1238 28.1576 44.18 28.7535 45.1473L27.8506 47.1803L30.2466 49.5765L32.279 48.6738C33.2466 49.2699 34.3031 49.7078 35.4086 49.9711L36.2069 52.0453H39.5955L40.3941 49.9706C41.4993 49.7073 42.5554 49.2695 43.5227 48.6735L45.5557 49.5765L47.9519 47.1804L47.0492 45.148C47.6453 44.1805 48.0833 43.124 48.3465 42.0185L50.4207 41.2202V37.8316L48.3461 37.033C48.0827 35.9278 47.6449 34.8717 47.0489 33.9044L47.9519 31.8714L45.5558 29.4752L43.5234 30.3779C42.5558 29.7818 41.4994 29.3439 40.3939 29.0806L39.5955 27.0064H36.2068L35.4084 29.0809C34.3031 29.3441 33.2468 29.782 32.2795 30.378L30.2467 29.4752L27.8506 31.8713L28.7535 33.9043C28.1576 34.8716 27.7197 35.9278 27.4564 37.033L25.3818 37.8316V41.2202L27.4564 42.0186ZM30.5298 39.5258C30.5298 43.5973 33.8298 46.8973 37.9013 46.8973C41.9728 46.8973 45.2727 43.5974 45.2727 39.5258C45.2727 35.4543 41.9728 32.1543 37.9013 32.1543C33.8298 32.1543 30.5298 35.4543 30.5298 39.5258ZM27.3494 50.6856C27.4278 50.7 27.5027 50.7297 27.5697 50.773C27.6366 50.8163 27.6944 50.8724 27.7397 50.938C27.7851 51.0037 27.817 51.0776 27.8337 51.1556C27.8505 51.2336 27.8517 51.3141 27.8373 51.3926C27.8229 51.471 27.7932 51.5459 27.7499 51.6129C27.7066 51.6798 27.6505 51.7376 27.5849 51.7829C27.5192 51.8283 27.4453 51.8602 27.3673 51.8769C27.2893 51.8937 27.2088 51.8949 27.1304 51.8805L25.8765 51.649C28.7836 54.5389 32.5346 56.192 36.4054 56.5328C42.051 57.0298 47.5383 54.707 51.1188 50.3415C51.2211 50.2171 51.3685 50.1384 51.5288 50.1228C51.6891 50.1072 51.849 50.1559 51.9734 50.2581C52.0977 50.3604 52.1764 50.5079 52.192 50.6682C52.2076 50.8284 52.159 50.9883 52.0567 51.1127C48.2323 55.7756 42.3602 58.2803 36.3008 57.7468C32.166 57.3828 28.1579 55.6192 25.0458 52.5364L25.19 53.7556C25.2294 54.0895 24.9907 54.3921 24.6568 54.4316C24.3228 54.471 24.0202 54.2323 23.9807 53.8984L23.614 50.7966C23.5667 50.3942 23.9233 50.0535 24.3281 50.1277L27.3494 50.6856ZM56.3865 43.3214L55.6478 43.9514C56.2643 41.4731 56.3608 38.8816 55.9185 36.3548C54.5769 28.6895 48.5086 22.7275 40.8565 21.4772C40.6982 21.4533 40.537 21.4927 40.4076 21.5869C40.2783 21.6812 40.1913 21.8226 40.1657 21.9805C40.14 22.1385 40.1776 22.3002 40.2704 22.4306C40.3632 22.5609 40.5036 22.6495 40.6613 22.6769C47.8061 23.8442 53.4663 29.4078 54.7189 36.5643C55.1542 39.0559 55.0336 41.6129 54.3656 44.0525L53.7701 42.667C53.7385 42.5935 53.6928 42.527 53.6355 42.4712C53.5782 42.4154 53.5105 42.3715 53.4363 42.3418C53.2863 42.282 53.1187 42.2842 52.9703 42.348C52.8219 42.4117 52.705 42.5318 52.6451 42.6818C52.5853 42.8318 52.5875 42.9994 52.6513 43.1478L53.8846 46.0173C54.0458 46.3922 54.5293 46.5038 54.8391 46.2387L57.1767 44.2449C57.2953 44.139 57.3677 43.9909 57.3784 43.8322C57.3891 43.6735 57.3372 43.517 57.2338 43.3962C57.1304 43.2753 56.9838 43.1998 56.8254 43.1859C56.667 43.1719 56.5094 43.2205 56.3865 43.3214Z" fill="#FF9700"/>
</svg>
