<svg width="29" height="42" viewBox="0 0 29 42" fill="none" xmlns="http://www.w3.org/2000/svg">
<path d="M14.6527 27.5325H6.24727C5.59067 27.5329 4.94224 27.387 4.34916 27.1052C3.75608 26.8235 3.23329 26.4131 2.81884 25.9038C-1.86287 20.1416 2.17639 13.6437 7.70886 13.6437H14.6527V27.5325Z" fill="#AF83C8"/>
<path d="M7.53538 41.2406C1.56766 41.0938 -2.55685 33.3822 4.41067 27.353H14.6525V34.2313C14.6525 38.1452 11.4476 41.3371 7.53538 41.2406Z" fill="#7CB75E"/>
<path d="M14.6527 13.8887H6.24727C5.59063 13.8891 4.94218 13.743 4.34911 13.4612C3.75603 13.1793 3.23326 12.7688 2.81884 12.2595C-1.86287 6.49783 2.17639 0 7.70886 0H14.6527V13.8887Z" fill="#EC4D6B"/>
<path d="M14.6523 0H21.5962C27.1286 0 31.1673 6.49783 26.4856 12.2595C26.0712 12.7688 25.5484 13.1793 24.9553 13.4612C24.3623 13.743 23.7138 13.8891 23.0572 13.8887H14.6523V0Z" fill="#F07118"/>
<path d="M21.5032 27.4117C17.7174 27.4117 14.6367 24.3858 14.6367 20.6671C14.6367 16.9485 17.7174 13.9221 21.5032 13.9221C25.289 13.9221 28.3702 16.9491 28.3702 20.6671C28.3702 24.3852 25.2895 27.4117 21.5032 27.4117Z" fill="#49BEF2"/>
</svg>
