<svg width="80" height="80" viewBox="0 0 80 80" fill="none" xmlns="http://www.w3.org/2000/svg">
<path d="M68 53.3333C68.3536 53.3333 68.6928 53.1929 68.9428 52.9428C69.1929 52.6928 69.3333 52.3536 69.3333 52V50.6667C69.3333 50.3131 69.1929 49.9739 68.9428 49.7239C68.6928 49.4738 68.3536 49.3333 68 49.3333C67.6464 49.3333 67.3072 49.4738 67.0572 49.7239C66.8071 49.9739 66.6667 50.3131 66.6667 50.6667V52C66.6667 52.3536 66.8071 52.6928 67.0572 52.9428C67.3072 53.1929 67.6464 53.3333 68 53.3333ZM65.3333 53.3333H64C63.6464 53.3333 63.3072 53.4738 63.0572 53.7239C62.8071 53.9739 62.6667 54.3131 62.6667 54.6667C62.6667 55.0203 62.8071 55.3594 63.0572 55.6095C63.3072 55.8595 63.6464 56 64 56H65.3333C65.687 56 66.0261 55.8595 66.2761 55.6095C66.5262 55.3594 66.6667 55.0203 66.6667 54.6667C66.6667 54.3131 66.5262 53.9739 66.2761 53.7239C66.0261 53.4738 65.687 53.3333 65.3333 53.3333ZM68 56C67.6464 56 67.3072 56.1405 67.0572 56.3905C66.8071 56.6406 66.6667 56.9797 66.6667 57.3333V58.6667C66.6667 59.0203 66.8071 59.3594 67.0572 59.6095C67.3072 59.8595 67.6464 60 68 60C68.3536 60 68.6928 59.8595 68.9428 59.6095C69.1929 59.3594 69.3333 59.0203 69.3333 58.6667V57.3333C69.3333 56.9797 69.1929 56.6406 68.9428 56.3905C68.6928 56.1405 68.3536 56 68 56ZM73.3333 54.6667C73.3333 54.3131 73.1929 53.9739 72.9428 53.7239C72.6928 53.4738 72.3536 53.3333 72 53.3333H70.6667C70.313 53.3333 69.9739 53.4738 69.7239 53.7239C69.4738 53.9739 69.3333 54.3131 69.3333 54.6667C69.3333 55.0203 69.4738 55.3594 69.7239 55.6095C69.9739 55.8595 70.313 56 70.6667 56H72C72.3536 56 72.6928 55.8595 72.9428 55.6095C73.1929 55.3594 73.3333 55.0203 73.3333 54.6667ZM45.3333 53.3333H42.6667V50.6667C42.6667 50.3131 42.5262 49.9739 42.2761 49.7239C42.0261 49.4738 41.687 49.3333 41.3333 49.3333C40.9797 49.3333 40.6406 49.4738 40.3905 49.7239C40.1405 49.9739 40 50.3131 40 50.6667V53.3333H37.3333C36.9797 53.3333 36.6406 53.4738 36.3905 53.7239C36.1405 53.9739 36 54.3131 36 54.6667C36 55.0203 36.1405 55.3594 36.3905 55.6095C36.6406 55.8595 36.9797 56 37.3333 56H40V58.6667C40 59.0203 40.1405 59.3594 40.3905 59.6095C40.6406 59.8595 40.9797 60 41.3333 60C41.687 60 42.0261 59.8595 42.2761 59.6095C42.5262 59.3594 42.6667 59.0203 42.6667 58.6667V56H45.3333C45.687 56 46.0261 55.8595 46.2761 55.6095C46.5262 55.3594 46.6667 55.0203 46.6667 54.6667C46.6667 54.3131 46.5262 53.9739 46.2761 53.7239C46.0261 53.4738 45.687 53.3333 45.3333 53.3333ZM52 58.6667H50.6667C50.313 58.6667 49.9739 58.8072 49.7239 59.0572C49.4738 59.3073 49.3333 59.6464 49.3333 60C49.3333 60.3536 49.4738 60.6928 49.7239 60.9428C49.9739 61.1929 50.313 61.3333 50.6667 61.3333H52C52.3536 61.3333 52.6928 61.1929 52.9428 60.9428C53.1929 60.6928 53.3333 60.3536 53.3333 60C53.3333 59.6464 53.1929 59.3073 52.9428 59.0572C52.6928 58.8072 52.3536 58.6667 52 58.6667ZM58.6667 58.6667H57.3333C56.9797 58.6667 56.6406 58.8072 56.3905 59.0572C56.1405 59.3073 56 59.6464 56 60C56 60.3536 56.1405 60.6928 56.3905 60.9428C56.6406 61.1929 56.9797 61.3333 57.3333 61.3333H58.6667C59.0203 61.3333 59.3594 61.1929 59.6095 60.9428C59.8595 60.6928 60 60.3536 60 60C60 59.6464 59.8595 59.3073 59.6095 59.0572C59.3594 58.8072 59.0203 58.6667 58.6667 58.6667Z" fill="#914DF6"/>
<path d="M79.9747 54.544C79.8894 51.6344 78.7723 48.8499 76.8228 46.6882C74.8734 44.5265 72.2187 43.1284 69.3333 42.744V6.66667C69.3312 4.89921 68.6282 3.20474 67.3784 1.95496C66.1286 0.705176 64.4341 0.00211714 62.6667 0L6.66667 0C4.89921 0.00211714 3.20474 0.705176 1.95496 1.95496C0.705176 3.20474 0.00211714 4.89921 0 6.66667L0 66.6667C0.00211714 68.4341 0.705176 70.1286 1.95496 71.3784C3.20474 72.6282 4.89921 73.3312 6.66667 73.3333H29.3867C29.5078 75.147 30.3158 76.8463 31.6461 78.0849C32.9765 79.3236 34.729 80.0085 36.5467 80C37.8301 79.9978 39.0899 79.6543 40.1968 79.0045C41.3037 78.3548 42.2178 77.4223 42.8453 76.3027L44.4987 73.3333H62.6667C63.3431 73.3297 64.0149 73.2222 64.6587 73.0147L66.4907 76.3053C67.269 77.6997 68.488 78.7963 69.9567 79.4231C71.4253 80.05 73.0605 80.1718 74.6058 79.7693C76.1511 79.3668 77.5191 78.4629 78.4953 77.1992C79.4716 75.9355 80.0008 74.3835 80 72.7867V55.0533C80 54.9787 79.9907 54.9067 79.9893 54.8333C79.988 54.76 80 54.7213 80 54.6667C79.9936 54.6254 79.9852 54.5844 79.9747 54.544ZM6.66667 2.66667H62.6667C63.7275 2.66667 64.7449 3.08809 65.4951 3.83824C66.2452 4.58839 66.6667 5.6058 66.6667 6.66667V10.6667H2.66667V6.66667C2.66667 5.6058 3.08809 4.58839 3.83824 3.83824C4.58839 3.08809 5.6058 2.66667 6.66667 2.66667ZM2.66667 66.6667V13.3333H66.6667V42.7413C63.7337 43.0604 61.0245 44.4596 59.0667 46.6667H50.28C49.1449 45.3953 47.7516 44.3809 46.1931 43.6911C44.6347 43.0013 42.9469 42.652 41.2427 42.6667C38.119 42.7495 35.146 44.0273 32.9363 46.2368C30.7267 48.4462 29.4486 51.419 29.3653 54.5427C29.3653 54.5853 29.34 54.6227 29.34 54.6667C29.34 54.7107 29.3507 54.776 29.3507 54.8307C29.3507 54.9053 29.34 54.9787 29.34 55.0533V70.6667H6.66667C5.6058 70.6667 4.58839 70.2452 3.83824 69.4951C3.08809 68.745 2.66667 67.7275 2.66667 66.6667ZM62.6667 70.6667H45.9827L47.8293 67.352C47.9447 67.1445 48.1135 66.9715 48.3181 66.851C48.5228 66.7305 48.7559 66.6669 48.9933 66.6667H60.34C60.5775 66.6669 60.8106 66.7305 61.0152 66.851C61.2198 66.9715 61.3886 67.1445 61.504 67.352L63.3053 70.5853C63.095 70.6298 62.8814 70.657 62.6667 70.6667ZM77.3333 72.7867C77.3331 73.7927 76.9992 74.7703 76.3839 75.5663C75.7686 76.3623 74.9067 76.9317 73.9331 77.1854C72.9596 77.4391 71.9294 77.3627 71.0039 76.9682C70.0784 76.5737 69.3098 75.8834 68.8187 75.0053L63.8347 66.0547C63.488 65.4319 62.9813 64.9131 62.3669 64.5518C61.7525 64.1906 61.0527 64.0001 60.34 64H48.9933C48.2806 64.0001 47.5808 64.1906 46.9664 64.5518C46.352 64.9131 45.8453 65.4319 45.4987 66.0547L40.5173 75.0013C40.0277 75.8815 39.2595 76.5741 38.3336 76.9703C37.4076 77.3666 36.3763 77.4441 35.4015 77.1906C34.4267 76.9371 33.5637 76.3671 32.9481 75.57C32.3324 74.7729 31.9989 73.7939 32 72.7867V62.1787C32.9225 63.3397 34.0528 64.319 35.3333 65.0667C35.6386 65.2309 35.9958 65.2699 36.3293 65.1752C36.6628 65.0805 36.9463 64.8597 37.1197 64.5595C37.2931 64.2594 37.3428 63.9035 37.2582 63.5673C37.1736 63.2311 36.9615 62.9411 36.6667 62.7587C35.2748 61.9498 34.115 60.7958 33.2992 59.408C32.4834 58.0202 32.0392 56.4455 32.0093 54.836C32.0192 52.3627 32.9887 49.9898 34.7135 48.2172C36.4384 46.4446 38.7839 45.4107 41.256 45.3333H41.3333C43.4002 45.3432 45.4061 46.0344 47.0402 47.3C48.6743 48.5655 49.8454 50.3347 50.372 52.3333C50.4156 52.5034 50.4924 52.6631 50.5979 52.8034C50.7035 52.9436 50.8357 53.0617 50.9869 53.1508C51.1382 53.2398 51.3055 53.2982 51.4794 53.3224C51.6532 53.3466 51.8302 53.3363 52 53.292C52.1697 53.2483 52.3292 53.1717 52.4693 53.0663C52.6093 52.961 52.7273 52.829 52.8163 52.6781C52.9053 52.5271 52.9637 52.3601 52.9882 52.1866C53.0126 52.013 53.0026 51.8363 52.9587 51.6667C52.7434 50.8601 52.4449 50.0782 52.068 49.3333H57.268C56.892 50.0783 56.5944 50.8602 56.38 51.6667C56.3263 51.8391 56.3081 52.0206 56.3267 52.2003C56.3452 52.38 56.4001 52.554 56.4879 52.7118C56.5757 52.8696 56.6947 53.0079 56.8376 53.1184C56.9805 53.2288 57.1444 53.3091 57.3192 53.3543C57.4941 53.3995 57.6763 53.4087 57.8548 53.3814C58.0333 53.354 58.2045 53.2907 58.3578 53.1952C58.5111 53.0997 58.6434 52.9741 58.7467 52.826C58.85 52.6778 58.9221 52.5102 58.9587 52.3333C59.4854 50.3342 60.6569 48.5647 62.2915 47.2991C63.9262 46.0336 65.9327 45.3426 68 45.3333H68.0773C70.5479 45.4107 72.8922 46.4435 74.6166 48.2144C76.341 49.9853 77.3111 52.3562 77.3227 54.828C77.2935 56.4377 76.8496 58.0126 76.034 59.4007C75.2184 60.7888 74.0586 61.9431 72.6667 62.752C72.5095 62.8366 72.3709 62.9519 72.2591 63.091C72.1473 63.2301 72.0646 63.3903 72.0159 63.562C71.9671 63.7337 71.9533 63.9134 71.9754 64.0905C71.9974 64.2677 72.0547 64.4386 72.144 64.5931C72.2333 64.7476 72.3527 64.8827 72.4951 64.9902C72.6376 65.0978 72.8001 65.1756 72.9732 65.2192C73.1463 65.2627 73.3264 65.2711 73.5028 65.2437C73.6791 65.2164 73.8482 65.1539 74 65.06C75.28 64.3143 76.4103 63.3373 77.3333 62.1787V72.7867Z" fill="#914DF6"/>
<path d="M6.66732 7.99998H8.00065C8.35427 7.99998 8.69341 7.8595 8.94346 7.60946C9.19351 7.35941 9.33398 7.02027 9.33398 6.66665C9.33398 6.31302 9.19351 5.97389 8.94346 5.72384C8.69341 5.47379 8.35427 5.33331 8.00065 5.33331H6.66732C6.3137 5.33331 5.97456 5.47379 5.72451 5.72384C5.47446 5.97389 5.33398 6.31302 5.33398 6.66665C5.33398 7.02027 5.47446 7.35941 5.72451 7.60946C5.97456 7.8595 6.3137 7.99998 6.66732 7.99998ZM13.334 7.99998H14.6673C15.0209 7.99998 15.3601 7.8595 15.6101 7.60946C15.8602 7.35941 16.0007 7.02027 16.0007 6.66665C16.0007 6.31302 15.8602 5.97389 15.6101 5.72384C15.3601 5.47379 15.0209 5.33331 14.6673 5.33331H13.334C12.9804 5.33331 12.6412 5.47379 12.3912 5.72384C12.1411 5.97389 12.0007 6.31302 12.0007 6.66665C12.0007 7.02027 12.1411 7.35941 12.3912 7.60946C12.6412 7.8595 12.9804 7.99998 13.334 7.99998ZM20.0007 7.99998H21.334C21.6876 7.99998 22.0267 7.8595 22.2768 7.60946C22.5268 7.35941 22.6673 7.02027 22.6673 6.66665C22.6673 6.31302 22.5268 5.97389 22.2768 5.72384C22.0267 5.47379 21.6876 5.33331 21.334 5.33331H20.0007C19.647 5.33331 19.3079 5.47379 19.0578 5.72384C18.8078 5.97389 18.6673 6.31302 18.6673 6.66665C18.6673 7.02027 18.8078 7.35941 19.0578 7.60946C19.3079 7.8595 19.647 7.99998 20.0007 7.99998ZM56.0007 7.99998H62.6673C63.0209 7.99998 63.3601 7.8595 63.6101 7.60946C63.8602 7.35941 64.0007 7.02027 64.0007 6.66665C64.0007 6.31302 63.8602 5.97389 63.6101 5.72384C63.3601 5.47379 63.0209 5.33331 62.6673 5.33331H56.0007C55.647 5.33331 55.3079 5.47379 55.0578 5.72384C54.8078 5.97389 54.6673 6.31302 54.6673 6.66665C54.6673 7.02027 54.8078 7.35941 55.0578 7.60946C55.3079 7.8595 55.647 7.99998 56.0007 7.99998ZM26.2767 19.0573C26.0266 18.8074 25.6875 18.6669 25.334 18.6669C24.9804 18.6669 24.6414 18.8074 24.3913 19.0573L15.058 28.3906C14.808 28.6407 14.6676 28.9798 14.6676 29.3333C14.6676 29.6869 14.808 30.0259 15.058 30.276L24.3913 39.6093C24.6428 39.8522 24.9796 39.9866 25.3292 39.9835C25.6788 39.9805 26.0132 39.8403 26.2604 39.5931C26.5076 39.3459 26.6478 39.0114 26.6509 38.6618C26.6539 38.3123 26.5195 37.9754 26.2767 37.724L17.886 29.3333L26.2767 20.9426C26.5266 20.6926 26.667 20.3535 26.667 20C26.667 19.6464 26.5266 19.3074 26.2767 19.0573ZM43.058 39.6093C43.308 39.8593 43.6471 39.9997 44.0007 39.9997C44.3542 39.9997 44.6933 39.8593 44.9433 39.6093L54.2767 30.276C54.5266 30.0259 54.667 29.6869 54.667 29.3333C54.667 28.9798 54.5266 28.6407 54.2767 28.3906L44.9433 19.0573C44.6918 18.8144 44.355 18.68 44.0054 18.6831C43.6559 18.6861 43.3214 18.8263 43.0742 19.0736C42.827 19.3208 42.6868 19.6552 42.6838 20.0048C42.6807 20.3544 42.8151 20.6912 43.058 20.9426L51.4487 29.3333L43.058 37.724C42.808 37.974 42.6676 38.3131 42.6676 38.6666C42.6676 39.0202 42.808 39.3593 43.058 39.6093ZM30.142 39.892C30.467 40.0313 30.834 40.0358 31.1623 39.9045C31.4906 39.7732 31.7533 39.5169 31.8927 39.192L39.8927 20.5253C40.0261 20.2014 40.0267 19.838 39.8943 19.5136C39.7619 19.1893 39.5072 18.93 39.1852 18.792C38.8632 18.6539 38.4999 18.6482 38.1736 18.7759C37.8474 18.9037 37.5846 19.1547 37.442 19.4746L29.442 38.1413C29.3027 38.4663 29.2982 38.8333 29.4295 39.1616C29.5607 39.4899 29.817 39.7526 30.142 39.892Z" fill="#914DF6"/>
</svg>
