<svg width="77" height="77" viewBox="0 0 77 77" fill="none" xmlns="http://www.w3.org/2000/svg">
<circle cx="38.5" cy="38.5" r="38" fill="white" stroke="#FF9700"/>
<path d="M48.9 48.9H47.6V51.5H35.9V52.8H47.6V54.75C47.6 55.8269 46.7269 56.7 45.65 56.7H31.35C31.0076 56.6995 30.6714 56.6092 30.3748 56.4381C30.0783 56.267 29.8318 56.0211 29.66 55.725L28.5342 56.375C28.8206 56.8683 29.2313 57.278 29.7253 57.5631C30.2194 57.8482 30.7796 57.9989 31.35 58H45.65C47.4441 57.9978 48.8978 56.5442 48.9 54.75V48.9Z" fill="#FF9700"/>
<path d="M37.85 54.1H39.15V55.4H37.85V54.1ZM41.75 36.55V35.25H39.767C39.4429 31.1022 36.1478 27.8071 32 27.483V25.5H30.7V27.483C30.262 27.5166 29.8275 27.5846 29.4 27.6858V24.2H39.8V22.9H29.4V22.25C29.4 21.1731 30.2731 20.3 31.35 20.3H45.65C46.1248 20.3 46.5834 20.4733 46.9395 20.7875L47.7996 19.8125C47.2061 19.2886 46.4416 18.9996 45.65 19H31.35C29.5558 19.0022 28.1021 20.4558 28.1 22.25V28.1C25.1731 29.3261 23.1783 32.0864 22.9329 35.25H20.95V36.55H22.9346C23.2411 40.7058 26.5442 44.011 30.7 44.3202V46.3H32V44.3202C36.1557 44.011 39.4587 40.7058 39.7653 36.55H41.75ZM30.7 41.75V43.0202C29.7933 42.9385 28.9107 42.6838 28.1 42.2698V41.1C28.1 39.3052 29.5551 37.85 31.35 37.85C33.1448 37.85 34.6 39.3052 34.6 41.1V42.2698C33.7893 42.6843 32.9067 42.9396 32 43.0221V41.75H30.7ZM29.4 34.6C29.4 33.5231 30.2731 32.65 31.35 32.65C32.4268 32.65 33.3 33.5231 33.3 34.6C33.3 35.6769 32.4268 36.55 31.35 36.55C30.2731 36.55 29.4 35.6769 29.4 34.6ZM36.1164 41.2302C36.0463 41.2948 35.9714 41.3469 35.9 41.4069V41.1C35.8992 40.267 35.6697 39.4502 35.2366 38.7387C34.8035 38.0271 34.1833 37.4481 33.4438 37.0648C33.9535 36.6355 34.3189 36.0598 34.4904 35.4158C34.662 34.7719 34.6314 34.0907 34.4028 33.4647C34.1743 32.8387 33.7588 32.2981 33.2127 31.9161C32.6667 31.5342 32.0164 31.3293 31.35 31.3293C30.6835 31.3293 30.0332 31.5342 29.4872 31.9161C28.9411 32.2981 28.5256 32.8387 28.2971 33.4647C28.0685 34.0907 28.0379 34.7719 28.2095 35.4158C28.381 36.0598 28.7464 36.6355 29.2561 37.0648C28.5166 37.4481 27.8964 38.0271 27.4633 38.7387C27.0302 39.4502 26.8008 40.267 26.8 41.1V41.4101C26.7279 41.3511 26.653 41.2955 26.5835 41.2333C25.2364 40.0254 24.3971 38.352 24.2346 36.55H25.5V35.25H24.2329C24.5506 31.8185 27.2684 29.1007 30.7 28.783V30.05H32V28.783C35.4315 29.1007 38.1493 31.8185 38.467 35.25H37.2V36.55H38.4653C38.3028 38.352 37.4634 40.0254 36.1164 41.2333V41.2302Z" fill="#FF9700"/>
<path d="M56.05 30.7C56.2224 30.7 56.3877 30.6315 56.5096 30.5096C56.6315 30.3877 56.7 30.2224 56.7 30.05V22.25C56.7 22.0776 56.6315 21.9123 56.5096 21.7904C56.3877 21.6685 56.2224 21.6 56.05 21.6H41.75C41.5776 21.6 41.4123 21.6685 41.2904 21.7904C41.1685 21.9123 41.1 22.0776 41.1 22.25V30.05C41.1 30.2224 41.1685 30.3877 41.2904 30.5096C41.4123 30.6315 41.5776 30.7 41.75 30.7H56.05ZM42.4 22.9H55.4V29.4H42.4V22.9Z" fill="#FF9700"/>
<path d="M43.7 24.2H46.3V25.5H43.7V24.2ZM47.6 24.2H54.1V25.5H47.6V24.2ZM43.7 26.8H54.1V28.1H43.7V26.8ZM55.9351 32C55.4319 32.0008 54.9464 32.1857 54.5701 32.5198L48.9 37.5187V32H47.6V38.5H47.7879L44.09 41.763C41.6842 41.9007 39.8028 43.8901 39.7999 46.3V47.4467C39.8012 47.7629 39.7138 48.0731 39.5475 48.3421C39.3813 48.6111 39.1429 48.828 38.8595 48.9682C38.7284 49.0336 38.6232 49.1414 38.5609 49.2741C38.4987 49.4067 38.4832 49.5566 38.5168 49.6992C38.5505 49.8418 38.6313 49.9689 38.7462 50.0598C38.8612 50.1507 39.0035 50.2001 39.15 50.2H43.7C46.1099 50.1972 48.0993 48.3157 48.237 45.91L57.4839 35.4306C57.7467 35.1326 57.9179 34.765 57.977 34.372C58.0361 33.9791 57.9805 33.5774 57.8169 33.2153C57.6534 32.8531 57.3889 32.5458 57.0551 32.3302C56.7214 32.1147 56.3325 32 55.9351 32ZM43.7 48.9H40.7274C40.9727 48.455 41.101 47.9549 41.1 47.4467V46.3C41.1022 44.6067 42.4022 43.1979 44.09 43.0605L46.9395 45.9099C46.8025 47.5978 45.3933 48.8981 43.7 48.9ZM56.5089 34.5707L47.5708 44.701L45.299 42.4298L55.4293 33.4911C55.5753 33.363 55.7646 33.2952 55.9588 33.3015C56.153 33.3078 56.3375 33.3877 56.4749 33.5251C56.6123 33.6625 56.6922 33.847 56.6985 34.0412C56.7048 34.2354 56.637 34.4247 56.5089 34.5707ZM19.65 54.75H33.95C34.1224 54.75 34.2877 54.6815 34.4096 54.5596C34.5315 54.4377 34.6 54.2724 34.6 54.1V48.9C34.6 48.7276 34.5315 48.5623 34.4096 48.4404C34.2877 48.3185 34.1224 48.25 33.95 48.25H29.4V45H28.1V48.25H19.65C19.4776 48.25 19.3123 48.3185 19.1904 48.4404C19.0685 48.5623 19 48.7276 19 48.9V54.1C19 54.2724 19.0685 54.4377 19.1904 54.5596C19.3123 54.6815 19.4776 54.75 19.65 54.75ZM20.3 49.55H33.3V53.45H20.3V49.55Z" fill="#FF9700"/>
<path d="M21.6 50.85H24.85V52.15H21.6V50.85ZM26.15 50.85H32V52.15H26.15V50.85ZM19.65 28.1H26.15C26.3224 28.1 26.4877 28.0315 26.6096 27.9096C26.7315 27.7877 26.8 27.6224 26.8 27.45V22.25C26.8 22.0776 26.7315 21.9123 26.6096 21.7904C26.4877 21.6685 26.3224 21.6 26.15 21.6H19.65C19.4776 21.6 19.3123 21.6685 19.1904 21.7904C19.0685 21.9123 19 22.0776 19 22.25V27.45C19 27.6224 19.0685 27.7877 19.1904 27.9096C19.3123 28.0315 19.4776 28.1 19.65 28.1ZM20.3 22.9H25.5V26.8H20.3V22.9Z" fill="#FF9700"/>
<path d="M21.6 24.2H24.2V25.5H21.6V24.2Z" fill="#FF9700"/>
</svg>
