<svg width="94" height="94" viewBox="0 0 94 94" fill="none" xmlns="http://www.w3.org/2000/svg">
<g clip-path="url(#clip0_72_789)">
<path d="M85.5747 87.3369H8.42531C3.79965 87.3369 0 83.5373 0 78.9116V15.0334C0 10.4078 3.79965 6.66321 8.42531 6.66321H85.5747C90.2003 6.66321 93.9449 10.4078 93.9449 15.0334V78.9116C93.9449 83.5373 90.2003 87.3369 85.5747 87.3369Z" fill="#3499DB" fill-opacity="0.7"/>
<path d="M2.20312 28.9104V78.9116C2.20312 82.3808 5.01156 85.1342 8.42574 85.1342H85.5751C88.9893 85.1342 91.7427 82.3808 91.7427 78.9116V28.9104H2.20312Z" fill="white"/>
<path d="M80.4527 19.2936H85.3537C86.7855 19.2936 86.7855 17.0909 85.3537 17.0909H80.4527C79.021 17.0909 79.021 19.2936 80.4527 19.2936Z" fill="#EDF3F9"/>
<path d="M67.5136 19.2936H72.3595C73.8463 19.2936 73.8463 17.0909 72.3595 17.0909H67.5136C66.0267 17.0909 66.0267 19.2936 67.5136 19.2936Z" fill="#EDF3F9"/>
<path d="M54.5175 19.2936H59.3634C60.8502 19.2936 60.8502 17.0909 59.3634 17.0909H54.5175C53.0306 17.0909 53.0306 19.2936 54.5175 19.2936Z" fill="#EDF3F9"/>
<path d="M37.7216 21.0358H10.4081C6.11288 21.0358 6.05782 14.4828 10.4081 14.4828H37.7216C42.0168 14.4828 42.0168 21.0358 37.7216 21.0358Z" fill="#EDF3F9"/>
<path d="M33.757 69.1097C33.5367 69.1097 33.2614 68.9995 33.0962 68.8343L18.9989 57.8759C18.4483 57.4354 18.4483 56.5543 18.9989 56.1688L33.0962 45.1554C34.1975 44.2743 35.5742 45.9814 34.4178 46.9175L21.477 56.9948L34.4178 67.1272C35.2989 67.788 34.7482 69.1097 33.757 69.1097ZM60.2444 69.1097C59.1981 69.1097 58.7025 67.788 59.5285 67.1272L72.5244 56.9948L59.5285 46.8624C58.4272 45.9814 59.7488 44.2743 60.9052 45.1554L74.9474 56.1138C75.5531 56.5543 75.4981 57.4354 74.9474 57.8759L60.9052 68.8343C60.6849 68.9995 60.4647 69.1097 60.2444 69.1097ZM39.5941 78.5813C38.8783 78.5813 38.3276 77.8103 38.6029 77.0944L53.3059 36.1794C53.8015 34.8027 55.8941 35.5186 55.3985 36.8953L40.6404 77.8654C40.4752 78.3059 40.0897 78.5813 39.5941 78.5813Z" fill="#6A9DD4"/>
</g>
<defs>
<clipPath id="clip0_72_789">
<rect width="94" height="94" fill="white"/>
</clipPath>
</defs>
</svg>
