<svg width="42" height="41" viewBox="0 0 42 41" fill="none" xmlns="http://www.w3.org/2000/svg">
<circle cx="21.0163" cy="20.0492" r="19.6706" fill="#EFEFEF" stroke="white" stroke-width="0.756563"/>
<g clip-path="url(#clip0_88_814)">
<path d="M25.1216 11.7937H18.0903C15.8019 11.7937 13.9402 13.6554 13.9402 15.9438V22.9752C13.9402 25.2635 15.8019 27.1252 18.0903 27.1252H25.1218C27.41 27.1252 29.2717 25.2635 29.2717 22.9752V15.9438C29.2717 13.6554 27.41 11.7937 25.1216 11.7937V11.7937ZM28.3729 22.9752C28.3729 24.7679 26.9144 26.2264 25.1216 26.2264H18.0903C16.2975 26.2264 14.839 24.7679 14.839 22.9752V15.9438C14.839 14.151 16.2975 12.6925 18.0903 12.6925H25.1218C26.9144 12.6925 28.3729 14.151 28.3729 15.9438V22.9752Z" fill="#FF9700"/>
<path d="M21.606 15.2673C19.2945 15.2673 17.4139 17.1479 17.4139 19.4594C17.4139 21.771 19.2945 23.6515 21.606 23.6515C23.9176 23.6515 25.7981 21.771 25.7981 19.4594C25.7981 17.1479 23.9176 15.2673 21.606 15.2673ZM21.606 22.7527C19.7902 22.7527 18.3127 21.2754 18.3127 19.4594C18.3127 17.6436 19.7902 16.1661 21.606 16.1661C23.422 16.1661 24.8993 17.6436 24.8993 19.4594C24.8993 21.2754 23.422 22.7527 21.606 22.7527Z" fill="#FF9700"/>
<path d="M25.8983 13.7786C25.2152 13.7786 24.6596 14.3343 24.6596 15.0173C24.6596 15.7004 25.2152 16.2561 25.8983 16.2561C26.5814 16.2561 27.1371 15.7004 27.1371 15.0173C27.1371 14.3342 26.5814 13.7786 25.8983 13.7786ZM25.8983 15.3572C25.7109 15.3572 25.5584 15.2047 25.5584 15.0173C25.5584 14.8298 25.7109 14.6774 25.8983 14.6774C26.0858 14.6774 26.2383 14.8298 26.2383 15.0173C26.2383 15.2047 26.0858 15.3572 25.8983 15.3572Z" fill="#FF9700"/>
</g>
<defs>
<clipPath id="clip0_88_814">
<rect width="15.3315" height="15.3315" fill="white" transform="translate(13.9402 11.7937)"/>
</clipPath>
</defs>
</svg>
