<svg width="41" height="41" viewBox="0 0 41 41" fill="none" xmlns="http://www.w3.org/2000/svg">
<circle cx="20.9511" cy="20.0492" r="19.6706" fill="#EFEFEF" stroke="white" stroke-width="0.756563"/>
<g clip-path="url(#clip0_88_828)">
<path d="M26.8445 25.946V25.9454H26.8478V21.1876C26.8478 18.8601 26.3467 17.0671 23.6257 17.0671C22.3176 17.0671 21.4397 17.785 21.0814 18.4655H21.0435V17.2844H18.4636V25.9454H21.15V21.6568C21.15 20.5276 21.3641 19.4358 22.7624 19.4358C24.1402 19.4358 24.1608 20.7244 24.1608 21.7292V25.946H26.8445Z" fill="#FF9700"/>
<path d="M14.089 17.2849H16.7787V25.9459H14.089V17.2849Z" fill="#FF9700"/>
<path d="M15.4328 12.9729C14.5728 12.9729 13.8749 13.6707 13.8749 14.5307C13.8749 15.3907 14.5728 16.1031 15.4328 16.1031C16.2927 16.1031 16.9906 15.3907 16.9906 14.5307C16.99 13.6707 16.2922 12.9729 15.4328 12.9729V12.9729Z" fill="#FF9700"/>
</g>
<defs>
<clipPath id="clip0_88_828">
<rect width="12.9728" height="12.9728" fill="white" transform="translate(13.8749 12.9729)"/>
</clipPath>
</defs>
</svg>
