<svg width="375" height="548" viewBox="0 0 375 548" fill="none" xmlns="http://www.w3.org/2000/svg">
<path d="M197.493 0L-75.9392 275.316L-74.9259 276.336L198.506 1.02017L197.493 0ZM197.477 18.1203L-75.9552 293.435L-74.9411 294.455L198.489 19.1405L197.476 18.1203H197.477ZM197.462 36.2389L-75.9696 311.555L-74.9555 312.575L198.475 37.2591L197.461 36.2389H197.462ZM197.447 54.3592L-75.9848 329.675L-74.9715 330.695L198.46 55.3794L197.447 54.3592ZM197.432 72.4795L-76 347.794L-74.9867 348.814L198.444 73.4988L197.431 72.4787L197.432 72.4795ZM197.529 90.7115L-75.9028 366.027L-74.8895 367.047L198.542 91.7316L197.529 90.7115ZM197.515 108.831L-75.9172 384.147L-74.9048 385.167L198.529 109.851L197.515 108.831H197.515ZM197.499 126.95L-75.9324 402.266L-74.92 403.286L198.513 127.971L197.499 126.95ZM197.484 145.071L-75.9476 420.387L-74.9352 421.407L198.497 146.091L197.484 145.071ZM197.469 163.189L-75.9628 438.505L-74.9495 439.525L198.482 164.209L197.469 163.189Z" fill="white" fill-opacity="0.05"/>
<path d="M197.523 0L196.502 1.0198L368.949 173.267L369.97 172.247L197.523 0ZM197.564 18.1315L196.543 19.1513L359.937 182.311L360.957 181.29L197.564 18.1315ZM197.615 36.2461L196.594 37.2659L350.91 191.36L351.932 190.34L197.615 36.2461ZM197.649 54.3667L196.628 55.3865L341.846 200.416L342.867 199.397L197.649 54.3667ZM197.471 72.4804L196.449 73.5003L332.592 209.466L333.613 208.446L197.471 72.4804ZM197.52 90.5934L196.499 91.6123L323.564 218.514L324.586 217.494L197.52 90.5934ZM197.589 108.703L196.568 109.723L314.575 227.559L315.595 226.539L197.589 108.703ZM197.525 126.93L196.504 127.95L305.433 236.722L306.454 235.702L197.525 126.93ZM197.554 145.044L196.533 146.064L296.371 245.772L297.391 244.752L197.554 145.044ZM197.585 163.151L196.564 164.171L287.325 254.814L288.346 253.795L197.585 163.151ZM188.442 172.195L187.421 173.215L278.182 263.871L279.204 262.852L188.442 172.195ZM179.48 181.245L178.459 182.265L269.22 272.921L270.241 271.901L179.48 181.245ZM170.291 190.295L169.269 191.315L260.031 281.971L261.052 280.951L170.291 190.295ZM161.3 199.355L160.28 200.374L251.041 291.018L252.061 289.999L161.3 199.355ZM152.139 208.394L151.118 209.414L241.879 300.071L242.9 299.051L152.139 208.394ZM143.17 217.457L142.149 218.477L232.923 309.12L233.944 308.101L143.17 217.457ZM134.072 226.615L133.051 227.634L223.812 318.278L224.834 317.258L134.072 226.615ZM124.904 235.67L123.883 236.69L214.657 327.334L215.679 326.314L124.904 235.67ZM115.941 244.72L114.921 245.74L205.695 336.383L206.716 335.363L115.941 244.72ZM106.76 253.757L105.739 254.777L196.501 345.433L197.522 344.414L106.76 253.757Z" fill="white" fill-opacity="0.05"/>
<path d="M368.948 172.717L197.344 344.959L198.36 345.979L369.963 173.737L368.948 172.717ZM368.933 190.833L197.329 363.074L198.345 364.094L369.949 191.852L368.933 190.833ZM368.917 208.947L197.314 381.189L198.33 382.209L369.934 209.967L368.917 208.947ZM368.902 227.062L197.299 399.304L198.315 400.324L369.918 228.082L368.902 227.062ZM368.888 245.177L197.284 417.419L198.3 418.439L369.903 246.197L368.888 245.177ZM368.872 263.292L197.268 435.535L198.284 436.555L369.888 264.312L368.872 263.292ZM368.857 281.407L197.253 453.649L198.27 454.669L369.873 282.427L368.857 281.407ZM368.954 299.636L197.351 471.878L198.366 472.898L369.97 300.655L368.954 299.636ZM368.939 317.75L197.336 489.993L198.352 491.013L369.956 318.77L368.939 317.75ZM368.923 335.866L197.32 508.108L198.336 509.128L369.94 336.886L368.923 335.866Z" fill="white" fill-opacity="0.05"/>
<path d="M610.056 365.511L345.48 631.982L346.356 632.865L610.932 366.394L610.056 365.511ZM610.049 349.773L485.647 475.068L486.522 475.95L610.925 350.656L610.049 349.773ZM610.064 334.051L477.874 467.189L478.749 468.072L610.94 334.935L610.064 334.051ZM609.983 318.432L470.005 459.413L470.88 460.295L610.858 319.315L609.983 318.432ZM609.997 302.707L462.232 451.531L463.108 452.414L610.874 303.59L609.997 302.707ZM610.011 286.979L454.458 443.646L455.335 444.528L610.887 287.862L610.011 286.979ZM610.124 271.352L446.784 435.862L447.66 436.745L611 272.234L610.124 271.352ZM610.041 255.724L438.914 428.077L439.79 428.959L610.917 256.606L610.041 255.724ZM610.057 240.001L431.142 420.198L432.018 421.08L610.933 240.884L610.057 240.001ZM610.072 224.274L423.369 412.314L424.245 413.196L610.947 225.156L610.072 224.274Z" fill="white" fill-opacity="0.05"/>
</svg>
