<svg width="241" height="92" viewBox="0 0 241 92" fill="none" xmlns="http://www.w3.org/2000/svg">
<g filter="url(#filter0_d_144_561)">
<rect x="11" y="7" width="219" height="70" rx="5" fill="#FF9700"/>
</g>
<path d="M50.78 47.16H55.48V49H48.5V35.1H50.78V47.16ZM62.1667 49.18C61.1267 49.18 60.1867 48.9467 59.3467 48.48C58.5067 48 57.8467 47.3333 57.3667 46.48C56.8867 45.6133 56.6467 44.6133 56.6467 43.48C56.6467 42.36 56.8934 41.3667 57.3867 40.5C57.8801 39.6333 58.5534 38.9667 59.4067 38.5C60.2601 38.0333 61.2134 37.8 62.2667 37.8C63.3201 37.8 64.2734 38.0333 65.1267 38.5C65.9801 38.9667 66.6534 39.6333 67.1467 40.5C67.6401 41.3667 67.8867 42.36 67.8867 43.48C67.8867 44.6 67.6334 45.5933 67.1267 46.46C66.6201 47.3267 65.9267 48 65.0467 48.48C64.1801 48.9467 63.2201 49.18 62.1667 49.18ZM62.1667 47.2C62.7534 47.2 63.3001 47.06 63.8067 46.78C64.3267 46.5 64.7467 46.08 65.0667 45.52C65.3867 44.96 65.5467 44.28 65.5467 43.48C65.5467 42.68 65.3934 42.0067 65.0867 41.46C64.7801 40.9 64.3734 40.48 63.8667 40.2C63.3601 39.92 62.8134 39.78 62.2267 39.78C61.6401 39.78 61.0934 39.92 60.5867 40.2C60.0934 40.48 59.7001 40.9 59.4067 41.46C59.1134 42.0067 58.9667 42.68 58.9667 43.48C58.9667 44.6667 59.2667 45.5867 59.8667 46.24C60.4801 46.88 61.2467 47.2 62.1667 47.2ZM69.3806 43.44C69.3806 42.3333 69.6073 41.3533 70.0606 40.5C70.5273 39.6467 71.154 38.9867 71.9406 38.52C72.7406 38.04 73.6206 37.8 74.5806 37.8C75.4473 37.8 76.2006 37.9733 76.8406 38.32C77.494 38.6533 78.014 39.0733 78.4006 39.58V37.98H80.7006V49H78.4006V47.36C78.014 47.88 77.4873 48.3133 76.8206 48.66C76.154 49.0067 75.394 49.18 74.5406 49.18C73.594 49.18 72.7273 48.94 71.9406 48.46C71.154 47.9667 70.5273 47.2867 70.0606 46.42C69.6073 45.54 69.3806 44.5467 69.3806 43.44ZM78.4006 43.48C78.4006 42.72 78.2406 42.06 77.9206 41.5C77.614 40.94 77.2073 40.5133 76.7006 40.22C76.194 39.9267 75.6473 39.78 75.0606 39.78C74.474 39.78 73.9273 39.9267 73.4206 40.22C72.914 40.5 72.5006 40.92 72.1806 41.48C71.874 42.0267 71.7206 42.68 71.7206 43.44C71.7206 44.2 71.874 44.8667 72.1806 45.44C72.5006 46.0133 72.914 46.4533 73.4206 46.76C73.9406 47.0533 74.4873 47.2 75.0606 47.2C75.6473 47.2 76.194 47.0533 76.7006 46.76C77.2073 46.4667 77.614 46.04 77.9206 45.48C78.2406 44.9067 78.4006 44.24 78.4006 43.48ZM82.9353 43.44C82.9353 42.3333 83.162 41.3533 83.6153 40.5C84.082 39.6467 84.7086 38.9867 85.4953 38.52C86.2953 38.04 87.182 37.8 88.1553 37.8C88.8753 37.8 89.582 37.96 90.2753 38.28C90.982 38.5867 91.542 39 91.9553 39.52V34.2H94.2553V49H91.9553V47.34C91.582 47.8733 91.062 48.3133 90.3953 48.66C89.742 49.0067 88.9886 49.18 88.1353 49.18C87.1753 49.18 86.2953 48.94 85.4953 48.46C84.7086 47.9667 84.082 47.2867 83.6153 46.42C83.162 45.54 82.9353 44.5467 82.9353 43.44ZM91.9553 43.48C91.9553 42.72 91.7953 42.06 91.4753 41.5C91.1686 40.94 90.762 40.5133 90.2553 40.22C89.7486 39.9267 89.202 39.78 88.6153 39.78C88.0286 39.78 87.482 39.9267 86.9753 40.22C86.4686 40.5 86.0553 40.92 85.7353 41.48C85.4286 42.0267 85.2753 42.68 85.2753 43.44C85.2753 44.2 85.4286 44.8667 85.7353 45.44C86.0553 46.0133 86.4686 46.4533 86.9753 46.76C87.4953 47.0533 88.042 47.2 88.6153 47.2C89.202 47.2 89.7486 47.0533 90.2553 46.76C90.762 46.4667 91.1686 46.04 91.4753 45.48C91.7953 44.9067 91.9553 44.24 91.9553 43.48ZM117.085 35.1V49H114.805V39.48L110.565 49H108.985L104.725 39.48V49H102.445V35.1H104.905L109.785 46L114.645 35.1H117.085ZM124.862 49.18C123.822 49.18 122.882 48.9467 122.042 48.48C121.202 48 120.542 47.3333 120.062 46.48C119.582 45.6133 119.342 44.6133 119.342 43.48C119.342 42.36 119.589 41.3667 120.082 40.5C120.575 39.6333 121.249 38.9667 122.102 38.5C122.955 38.0333 123.909 37.8 124.962 37.8C126.015 37.8 126.969 38.0333 127.822 38.5C128.675 38.9667 129.349 39.6333 129.842 40.5C130.335 41.3667 130.582 42.36 130.582 43.48C130.582 44.6 130.329 45.5933 129.822 46.46C129.315 47.3267 128.622 48 127.742 48.48C126.875 48.9467 125.915 49.18 124.862 49.18ZM124.862 47.2C125.449 47.2 125.995 47.06 126.502 46.78C127.022 46.5 127.442 46.08 127.762 45.52C128.082 44.96 128.242 44.28 128.242 43.48C128.242 42.68 128.089 42.0067 127.782 41.46C127.475 40.9 127.069 40.48 126.562 40.2C126.055 39.92 125.509 39.78 124.922 39.78C124.335 39.78 123.789 39.92 123.282 40.2C122.789 40.48 122.395 40.9 122.102 41.46C121.809 42.0067 121.662 42.68 121.662 43.48C121.662 44.6667 121.962 45.5867 122.562 46.24C123.175 46.88 123.942 47.2 124.862 47.2ZM135.116 39.58C135.449 39.02 135.889 38.5867 136.436 38.28C136.996 37.96 137.656 37.8 138.416 37.8V40.16H137.836C136.943 40.16 136.263 40.3867 135.796 40.84C135.343 41.2933 135.116 42.08 135.116 43.2V49H132.836V37.98H135.116V39.58ZM150.612 43.22C150.612 43.6333 150.585 44.0067 150.532 44.34H142.112C142.178 45.22 142.505 45.9267 143.092 46.46C143.678 46.9933 144.398 47.26 145.252 47.26C146.478 47.26 147.345 46.7467 147.852 45.72H150.312C149.978 46.7333 149.372 47.5667 148.492 48.22C147.625 48.86 146.545 49.18 145.252 49.18C144.198 49.18 143.252 48.9467 142.412 48.48C141.585 48 140.932 47.3333 140.452 46.48C139.985 45.6133 139.752 44.6133 139.752 43.48C139.752 42.3467 139.978 41.3533 140.432 40.5C140.898 39.6333 141.545 38.9667 142.372 38.5C143.212 38.0333 144.172 37.8 145.252 37.8C146.292 37.8 147.218 38.0267 148.032 38.48C148.845 38.9333 149.478 39.5733 149.932 40.4C150.385 41.2133 150.612 42.1533 150.612 43.22ZM148.232 42.5C148.218 41.66 147.918 40.9867 147.332 40.48C146.745 39.9733 146.018 39.72 145.152 39.72C144.365 39.72 143.692 39.9733 143.132 40.48C142.572 40.9733 142.238 41.6467 142.132 42.5H148.232Z" fill="white"/>
<g clip-path="url(#clip0_144_561)">
<path d="M170 42C170 44.3734 170.704 46.6935 172.022 48.6668C173.341 50.6402 175.215 52.1783 177.408 53.0866C179.601 53.9948 182.013 54.2324 184.341 53.7694C186.669 53.3064 188.807 52.1635 190.485 50.4853C192.164 48.8071 193.306 46.6689 193.769 44.3411C194.232 42.0133 193.995 39.6005 193.087 37.4078C192.178 35.2151 190.64 33.3409 188.667 32.0224C186.693 30.7038 184.373 30 182 30C178.818 30.0034 175.768 31.2688 173.519 33.5185C171.269 35.7682 170.003 38.8185 170 42ZM192 42C192 43.9778 191.414 45.9112 190.315 47.5557C189.216 49.2002 187.654 50.4819 185.827 51.2388C184 51.9957 181.989 52.1937 180.049 51.8079C178.109 51.422 176.327 50.4696 174.929 49.0711C173.53 47.6725 172.578 45.8907 172.192 43.9509C171.806 42.0111 172.004 40.0004 172.761 38.1732C173.518 36.3459 174.8 34.7841 176.444 33.6853C178.089 32.5865 180.022 32 182 32C184.651 32.0029 187.193 33.0574 189.068 34.9321C190.943 36.8069 191.997 39.3487 192 42ZM183.121 36.293C182.934 36.4805 182.828 36.7348 182.828 37C182.828 37.2652 182.934 37.5195 183.121 37.707L186.413 41L176 41.007C175.735 41.007 175.48 41.1124 175.293 41.2999C175.105 41.4874 175 41.7418 175 42.007C175 42.2722 175.105 42.5266 175.293 42.7141C175.48 42.9016 175.735 43.007 176 43.007L186.414 43L183.121 46.293C183.023 46.3832 182.943 46.4922 182.887 46.6136C182.832 46.735 182.801 46.8664 182.797 46.9999C182.793 47.1334 182.815 47.2663 182.864 47.3909C182.912 47.5155 182.984 47.6292 183.077 47.7252C183.17 47.8213 183.281 47.8978 183.404 47.9502C183.527 48.0027 183.659 48.03 183.792 48.0305C183.926 48.031 184.058 48.0048 184.181 47.9534C184.305 47.9019 184.416 47.8263 184.51 47.731L184.535 47.707L188.121 44.122C188.4 43.8434 188.621 43.5127 188.771 43.1487C188.922 42.7847 189 42.3945 189 42.0005C189 41.6065 188.922 41.2163 188.771 40.8523C188.621 40.4883 188.4 40.1576 188.121 39.879L184.535 36.293C184.347 36.1055 184.093 36.0002 183.828 36.0002C183.563 36.0002 183.309 36.1055 183.121 36.293Z" fill="white"/>
</g>
<defs>
<filter id="filter0_d_144_561" x="0.685534" y="0.811321" width="239.629" height="90.6289" filterUnits="userSpaceOnUse" color-interpolation-filters="sRGB">
<feFlood flood-opacity="0" result="BackgroundImageFix"/>
<feColorMatrix in="SourceAlpha" type="matrix" values="0 0 0 0 0 0 0 0 0 0 0 0 0 0 0 0 0 0 127 0" result="hardAlpha"/>
<feOffset dy="4.12579"/>
<feGaussianBlur stdDeviation="5.15723"/>
<feComposite in2="hardAlpha" operator="out"/>
<feColorMatrix type="matrix" values="0 0 0 0 1 0 0 0 0 0.592157 0 0 0 0 0 0 0 0 0.12 0"/>
<feBlend mode="normal" in2="BackgroundImageFix" result="effect1_dropShadow_144_561"/>
<feBlend mode="normal" in="SourceGraphic" in2="effect1_dropShadow_144_561" result="shape"/>
</filter>
<clipPath id="clip0_144_561">
<rect width="24" height="24" fill="white" transform="translate(170 30)"/>
</clipPath>
</defs>
</svg>
