<svg width="19" height="19" viewBox="0 0 19 19" fill="none" xmlns="http://www.w3.org/2000/svg">
<path d="M15.3317 1.45897H14.623V0.741857C14.623 0.332129 14.2909 0 13.8811 0C13.4714 0 13.1393 0.332129 13.1393 0.741857V1.45897H5.86067V0.741857C5.86067 0.332129 5.52854 0 5.11881 0C4.70909 0 4.37696 0.332129 4.37696 0.741857V1.45897H3.6683C1.64559 1.45897 0 3.10456 0 5.12723V15.3232C0 17.346 1.64559 18.9915 3.6683 18.9915H15.3317C17.3544 18.9915 19 17.346 19 15.3232V5.12723C19 3.10456 17.3544 1.45897 15.3317 1.45897ZM3.6683 2.94269H4.37696V4.38931C4.37696 4.79904 4.70909 5.13117 5.11881 5.13117C5.52854 5.13117 5.86067 4.79904 5.86067 4.38931V2.94269H13.1393V4.38931C13.1393 4.79904 13.4715 5.13117 13.8812 5.13117C14.2909 5.13117 14.623 4.79904 14.623 4.38931V2.94269H15.3317C16.5363 2.94269 17.5163 3.92268 17.5163 5.12723V5.83593H1.48371V5.12723C1.48371 3.92268 2.46371 2.94269 3.6683 2.94269ZM15.3317 17.5078H3.6683C2.46371 17.5078 1.48371 16.5278 1.48371 15.3232V7.31964H17.5163V15.3232C17.5163 16.5278 16.5363 17.5078 15.3317 17.5078ZM6.59018 10.2376C6.59018 10.6474 6.25805 10.9795 5.84832 10.9795H4.38935C3.97962 10.9795 3.64749 10.6474 3.64749 10.2376C3.64749 9.8279 3.97962 9.49577 4.38935 9.49577H5.84832C6.25801 9.49577 6.59018 9.8279 6.59018 10.2376ZM15.3525 10.2376C15.3525 10.6474 15.0204 10.9795 14.6107 10.9795H13.1517C12.742 10.9795 12.4099 10.6474 12.4099 10.2376C12.4099 9.8279 12.742 9.49577 13.1517 9.49577H14.6107C15.0204 9.49577 15.3525 9.8279 15.3525 10.2376ZM10.9671 10.2376C10.9671 10.6474 10.635 10.9795 10.2253 10.9795H8.7663C8.35658 10.9795 8.02445 10.6474 8.02445 10.2376C8.02445 9.8279 8.35658 9.49577 8.7663 9.49577H10.2253C10.635 9.49577 10.9671 9.8279 10.9671 10.2376ZM6.59018 14.6146C6.59018 15.0243 6.25805 15.3564 5.84832 15.3564H4.38935C3.97962 15.3564 3.64749 15.0243 3.64749 14.6146C3.64749 14.2049 3.97962 13.8727 4.38935 13.8727H5.84832C6.25801 13.8727 6.59018 14.2049 6.59018 14.6146ZM15.3525 14.6146C15.3525 15.0243 15.0204 15.3564 14.6107 15.3564H13.1517C12.742 15.3564 12.4099 15.0243 12.4099 14.6146C12.4099 14.2049 12.742 13.8727 13.1517 13.8727H14.6107C15.0204 13.8727 15.3525 14.2049 15.3525 14.6146ZM10.9671 14.6146C10.9671 15.0243 10.635 15.3564 10.2253 15.3564H8.7663C8.35658 15.3564 8.02445 15.0243 8.02445 14.6146C8.02445 14.2049 8.35658 13.8727 8.7663 13.8727H10.2253C10.635 13.8727 10.9671 14.2049 10.9671 14.6146Z" fill="white"/>
</svg>
