<svg width="267" height="66" viewBox="0 0 267 66" fill="none" xmlns="http://www.w3.org/2000/svg">
<path d="M0 66L32.0913 0H267V66H0Z" fill="#FF9700"/>
<path d="M67.3317 26.459H66.623V25.7419C66.623 25.3321 66.2909 25 65.8811 25C65.4714 25 65.1393 25.3321 65.1393 25.7419V26.459H57.8607V25.7419C57.8607 25.3321 57.5285 25 57.1188 25C56.7091 25 56.377 25.3321 56.377 25.7419V26.459H55.6683C53.6456 26.459 52 28.1046 52 30.1272V40.3232C52 42.346 53.6456 43.9915 55.6683 43.9915H67.3317C69.3544 43.9915 71 42.346 71 40.3232V30.1272C71 28.1046 69.3544 26.459 67.3317 26.459ZM55.6683 27.9427H56.377V29.3893C56.377 29.799 56.7091 30.1312 57.1188 30.1312C57.5285 30.1312 57.8607 29.799 57.8607 29.3893V27.9427H65.1393V29.3893C65.1393 29.799 65.4715 30.1312 65.8812 30.1312C66.2909 30.1312 66.623 29.799 66.623 29.3893V27.9427H67.3317C68.5363 27.9427 69.5163 28.9227 69.5163 30.1272V30.8359H53.4837V30.1272C53.4837 28.9227 54.4637 27.9427 55.6683 27.9427ZM67.3317 42.5078H55.6683C54.4637 42.5078 53.4837 41.5278 53.4837 40.3232V32.3196H69.5163V40.3232C69.5163 41.5278 68.5363 42.5078 67.3317 42.5078ZM58.5902 35.2376C58.5902 35.6474 58.258 35.9795 57.8483 35.9795H56.3893C55.9796 35.9795 55.6475 35.6474 55.6475 35.2376C55.6475 34.8279 55.9796 34.4958 56.3893 34.4958H57.8483C58.258 34.4958 58.5902 34.8279 58.5902 35.2376ZM67.3525 35.2376C67.3525 35.6474 67.0204 35.9795 66.6107 35.9795H65.1517C64.742 35.9795 64.4099 35.6474 64.4099 35.2376C64.4099 34.8279 64.742 34.4958 65.1517 34.4958H66.6107C67.0204 34.4958 67.3525 34.8279 67.3525 35.2376ZM62.9671 35.2376C62.9671 35.6474 62.635 35.9795 62.2253 35.9795H60.7663C60.3566 35.9795 60.0244 35.6474 60.0244 35.2376C60.0244 34.8279 60.3566 34.4958 60.7663 34.4958H62.2253C62.635 34.4958 62.9671 34.8279 62.9671 35.2376ZM58.5902 39.6146C58.5902 40.0243 58.258 40.3564 57.8483 40.3564H56.3893C55.9796 40.3564 55.6475 40.0243 55.6475 39.6146C55.6475 39.2049 55.9796 38.8727 56.3893 38.8727H57.8483C58.258 38.8727 58.5902 39.2049 58.5902 39.6146ZM67.3525 39.6146C67.3525 40.0243 67.0204 40.3564 66.6107 40.3564H65.1517C64.742 40.3564 64.4099 40.0243 64.4099 39.6146C64.4099 39.2049 64.742 38.8727 65.1517 38.8727H66.6107C67.0204 38.8727 67.3525 39.2049 67.3525 39.6146ZM62.9671 39.6146C62.9671 40.0243 62.635 40.3564 62.2253 40.3564H60.7663C60.3566 40.3564 60.0244 40.0243 60.0244 39.6146C60.0244 39.2049 60.3566 38.8727 60.7663 38.8727H62.2253C62.635 38.8727 62.9671 39.2049 62.9671 39.6146Z" fill="white"/>
<path d="M91.024 28.88V40H89.2V28.88H91.024ZM102.555 40H100.731L95.2428 31.696V40H93.4188V28.864H95.2428L100.731 37.152V28.864H102.555V40ZM108.614 40.112C107.867 40.112 107.195 39.984 106.598 39.728C106.001 39.4613 105.531 39.088 105.19 38.608C104.849 38.128 104.678 37.568 104.678 36.928H106.63C106.673 37.408 106.859 37.8027 107.19 38.112C107.531 38.4213 108.006 38.576 108.614 38.576C109.243 38.576 109.734 38.4267 110.086 38.128C110.438 37.8187 110.614 37.424 110.614 36.944C110.614 36.5707 110.502 36.2667 110.278 36.032C110.065 35.7973 109.793 35.616 109.462 35.488C109.142 35.36 108.694 35.2213 108.118 35.072C107.393 34.88 106.801 34.688 106.342 34.496C105.894 34.2933 105.51 33.984 105.19 33.568C104.87 33.152 104.71 32.5973 104.71 31.904C104.71 31.264 104.87 30.704 105.19 30.224C105.51 29.744 105.958 29.376 106.534 29.12C107.11 28.864 107.777 28.736 108.534 28.736C109.611 28.736 110.491 29.008 111.174 29.552C111.867 30.0853 112.251 30.8213 112.326 31.76H110.31C110.278 31.3547 110.086 31.008 109.734 30.72C109.382 30.432 108.918 30.288 108.342 30.288C107.819 30.288 107.393 30.4213 107.062 30.688C106.731 30.9547 106.566 31.3387 106.566 31.84C106.566 32.1813 106.667 32.464 106.87 32.688C107.083 32.9013 107.35 33.072 107.67 33.2C107.99 33.328 108.427 33.4667 108.982 33.616C109.718 33.8187 110.315 34.0213 110.774 34.224C111.243 34.4267 111.638 34.7413 111.958 35.168C112.289 35.584 112.454 36.144 112.454 36.848C112.454 37.4133 112.299 37.9467 111.99 38.448C111.691 38.9493 111.249 39.3547 110.662 39.664C110.086 39.9627 109.403 40.112 108.614 40.112ZM121.79 28.88V30.368H118.83V40H117.006V30.368H114.03V28.88H121.79ZM130.342 37.728H125.686L124.886 40H122.982L126.966 28.864H129.078L133.062 40H131.142L130.342 37.728ZM129.83 36.24L128.022 31.072L126.198 36.24H129.83ZM143.93 40H142.106L136.618 31.696V40H134.794V28.864H136.618L142.106 37.152V28.864H143.93V40ZM153.509 28.88V30.368H150.549V40H148.725V30.368H145.749V28.88H153.509ZM165.465 34.288C166.062 34.3947 166.569 34.7093 166.985 35.232C167.401 35.7547 167.609 36.3467 167.609 37.008C167.609 37.5733 167.459 38.0853 167.161 38.544C166.873 38.992 166.451 39.3493 165.897 39.616C165.342 39.872 164.697 40 163.961 40H159.513V28.88H163.753C164.51 28.88 165.161 29.008 165.705 29.264C166.249 29.52 166.659 29.8667 166.937 30.304C167.214 30.7307 167.352 31.2107 167.352 31.744C167.352 32.384 167.182 32.9173 166.841 33.344C166.499 33.7707 166.041 34.0853 165.465 34.288ZM161.337 33.552H163.593C164.19 33.552 164.654 33.4187 164.985 33.152C165.326 32.8747 165.497 32.48 165.497 31.968C165.497 31.4667 165.326 31.0773 164.985 30.8C164.654 30.512 164.19 30.368 163.593 30.368H161.337V33.552ZM163.801 38.512C164.419 38.512 164.905 38.3627 165.257 38.064C165.609 37.7653 165.785 37.3493 165.785 36.816C165.785 36.272 165.598 35.84 165.225 35.52C164.851 35.2 164.355 35.04 163.737 35.04H161.337V38.512H163.801ZM174.663 40.112C173.628 40.112 172.673 39.872 171.799 39.392C170.935 38.9013 170.247 38.224 169.735 37.36C169.233 36.4853 168.983 35.504 168.983 34.416C168.983 33.328 169.233 32.352 169.735 31.488C170.247 30.624 170.935 29.952 171.799 29.472C172.673 28.9813 173.628 28.736 174.663 28.736C175.708 28.736 176.663 28.9813 177.527 29.472C178.401 29.952 179.089 30.624 179.591 31.488C180.092 32.352 180.343 33.328 180.343 34.416C180.343 35.504 180.092 36.4853 179.591 37.36C179.089 38.224 178.401 38.9013 177.527 39.392C176.663 39.872 175.708 40.112 174.663 40.112ZM174.663 38.528C175.399 38.528 176.055 38.3627 176.631 38.032C177.207 37.6907 177.655 37.2107 177.975 36.592C178.305 35.9627 178.471 35.2373 178.471 34.416C178.471 33.5947 178.305 32.8747 177.975 32.256C177.655 31.6373 177.207 31.1627 176.631 30.832C176.055 30.5013 175.399 30.336 174.663 30.336C173.927 30.336 173.271 30.5013 172.695 30.832C172.119 31.1627 171.665 31.6373 171.335 32.256C171.015 32.8747 170.855 33.5947 170.855 34.416C170.855 35.2373 171.015 35.9627 171.335 36.592C171.665 37.2107 172.119 37.6907 172.695 38.032C173.271 38.3627 173.927 38.528 174.663 38.528ZM187.21 40.112C186.175 40.112 185.22 39.872 184.346 39.392C183.482 38.9013 182.794 38.224 182.282 37.36C181.78 36.4853 181.53 35.504 181.53 34.416C181.53 33.328 181.78 32.352 182.282 31.488C182.794 30.624 183.482 29.952 184.346 29.472C185.22 28.9813 186.175 28.736 187.21 28.736C188.255 28.736 189.21 28.9813 190.074 29.472C190.948 29.952 191.636 30.624 192.138 31.488C192.639 32.352 192.89 33.328 192.89 34.416C192.89 35.504 192.639 36.4853 192.138 37.36C191.636 38.224 190.948 38.9013 190.074 39.392C189.21 39.872 188.255 40.112 187.21 40.112ZM187.21 38.528C187.946 38.528 188.602 38.3627 189.178 38.032C189.754 37.6907 190.202 37.2107 190.522 36.592C190.852 35.9627 191.018 35.2373 191.018 34.416C191.018 33.5947 190.852 32.8747 190.522 32.256C190.202 31.6373 189.754 31.1627 189.178 30.832C188.602 30.5013 187.946 30.336 187.21 30.336C186.474 30.336 185.818 30.5013 185.242 30.832C184.666 31.1627 184.212 31.6373 183.882 32.256C183.562 32.8747 183.402 33.5947 183.402 34.416C183.402 35.2373 183.562 35.9627 183.882 36.592C184.212 37.2107 184.666 37.6907 185.242 38.032C185.818 38.3627 186.474 38.528 187.21 38.528ZM200.812 40L196.508 35.024V40H194.684V28.88H196.508V33.952L200.828 28.88H203.116L198.284 34.448L203.196 40H200.812ZM206.633 28.88V40H204.809V28.88H206.633ZM218.164 40H216.34L210.852 31.696V40H209.028V28.864H210.852L216.34 37.152V28.864H218.164V40ZM228.607 32.08C228.319 31.5253 227.919 31.1093 227.407 30.832C226.895 30.544 226.303 30.4 225.631 30.4C224.895 30.4 224.239 30.5653 223.663 30.896C223.087 31.2267 222.634 31.696 222.303 32.304C221.983 32.912 221.823 33.616 221.823 34.416C221.823 35.216 221.983 35.9253 222.303 36.544C222.634 37.152 223.087 37.6213 223.663 37.952C224.239 38.2827 224.895 38.448 225.631 38.448C226.623 38.448 227.429 38.1707 228.047 37.616C228.666 37.0613 229.045 36.3093 229.183 35.36H225.007V33.904H231.135V35.328C231.018 36.192 230.709 36.9867 230.207 37.712C229.717 38.4373 229.071 39.0187 228.271 39.456C227.482 39.8827 226.602 40.096 225.631 40.096C224.586 40.096 223.631 39.856 222.767 39.376C221.903 38.8853 221.215 38.208 220.703 37.344C220.202 36.48 219.951 35.504 219.951 34.416C219.951 33.328 220.202 32.352 220.703 31.488C221.215 30.624 221.903 29.952 222.767 29.472C223.642 28.9813 224.597 28.736 225.631 28.736C226.815 28.736 227.866 29.0293 228.783 29.616C229.711 30.192 230.383 31.0133 230.799 32.08H228.607Z" fill="white"/>
</svg>
