<svg width="194" height="68" viewBox="0 0 194 68" fill="none" xmlns="http://www.w3.org/2000/svg">
<path d="M82.552 34.768H79.144V38.224H77.784V34.768H74.392V33.536H77.784V30.064H79.144V33.536H82.552V34.768ZM86.7859 36.896C86.8925 37.504 87.1379 37.9733 87.5219 38.304C87.9165 38.6347 88.4445 38.8 89.1059 38.8C89.9912 38.8 90.6419 38.4533 91.0579 37.76C91.4845 37.0667 91.6872 35.8987 91.6659 34.256C91.4419 34.736 91.0685 35.1147 90.5459 35.392C90.0232 35.6587 89.4419 35.792 88.8019 35.792C88.0872 35.792 87.4472 35.648 86.8819 35.36C86.3272 35.0613 85.8899 34.6293 85.5699 34.064C85.2499 33.4987 85.0899 32.816 85.0899 32.016C85.0899 30.8747 85.4205 29.9573 86.0819 29.264C86.7432 28.56 87.6819 28.208 88.8979 28.208C90.3912 28.208 91.4365 28.6933 92.0339 29.664C92.6419 30.6347 92.9459 32.08 92.9459 34C92.9459 35.344 92.8232 36.4533 92.5779 37.328C92.3432 38.2027 91.9379 38.8693 91.3619 39.328C90.7965 39.7867 90.0179 40.016 89.0259 40.016C87.9379 40.016 87.0899 39.7227 86.4819 39.136C85.8739 38.5493 85.5272 37.8027 85.4419 36.896H86.7859ZM89.0419 34.56C89.7565 34.56 90.3432 34.3413 90.8019 33.904C91.2605 33.456 91.4899 32.8533 91.4899 32.096C91.4899 31.296 91.2659 30.6507 90.8179 30.16C90.3699 29.6693 89.7405 29.424 88.9299 29.424C88.1832 29.424 87.5859 29.6587 87.1379 30.128C86.7005 30.5973 86.4819 31.216 86.4819 31.984C86.4819 32.7627 86.7005 33.3867 87.1379 33.856C87.5752 34.3253 88.2099 34.56 89.0419 34.56ZM94.816 38.832C96.1707 37.744 97.232 36.8533 98 36.16C98.768 35.456 99.4133 34.7253 99.936 33.968C100.469 33.2 100.736 32.448 100.736 31.712C100.736 31.0187 100.565 30.4747 100.224 30.08C99.8933 29.6747 99.3547 29.472 98.608 29.472C97.8827 29.472 97.3173 29.7013 96.912 30.16C96.5173 30.608 96.304 31.2107 96.272 31.968H94.864C94.9067 30.7733 95.2693 29.8507 95.952 29.2C96.6347 28.5493 97.5147 28.224 98.592 28.224C99.6907 28.224 100.56 28.528 101.2 29.136C101.851 29.744 102.176 30.5813 102.176 31.648C102.176 32.5333 101.909 33.3973 101.376 34.24C100.853 35.072 100.256 35.808 99.584 36.448C98.912 37.0773 98.0533 37.8133 97.008 38.656H102.512V39.872H94.816V38.832ZM108.429 31.344C108.503 30.3627 108.882 29.5947 109.565 29.04C110.247 28.4853 111.133 28.208 112.221 28.208C112.946 28.208 113.57 28.3413 114.093 28.608C114.626 28.864 115.026 29.216 115.293 29.664C115.57 30.112 115.709 30.6187 115.709 31.184C115.709 31.8453 115.517 32.416 115.133 32.896C114.759 33.376 114.269 33.6853 113.661 33.824V33.904C114.354 34.0747 114.903 34.4107 115.309 34.912C115.714 35.4133 115.917 36.0693 115.917 36.88C115.917 37.488 115.778 38.0373 115.501 38.528C115.223 39.008 114.807 39.3867 114.253 39.664C113.698 39.9413 113.031 40.08 112.253 40.08C111.122 40.08 110.194 39.7867 109.469 39.2C108.743 38.6027 108.338 37.76 108.253 36.672H109.661C109.735 37.312 109.997 37.8347 110.445 38.24C110.893 38.6453 111.49 38.848 112.237 38.848C112.983 38.848 113.549 38.656 113.933 38.272C114.327 37.8773 114.525 37.3707 114.525 36.752C114.525 35.952 114.258 35.376 113.725 35.024C113.191 34.672 112.386 34.496 111.309 34.496H110.941V33.28H111.325C112.306 33.2693 113.047 33.1093 113.549 32.8C114.05 32.48 114.301 31.9893 114.301 31.328C114.301 30.7627 114.114 30.3093 113.741 29.968C113.378 29.6267 112.855 29.456 112.173 29.456C111.511 29.456 110.978 29.6267 110.573 29.968C110.167 30.3093 109.927 30.768 109.853 31.344H108.429ZM117.851 31.344C117.925 30.3627 118.304 29.5947 118.987 29.04C119.669 28.4853 120.555 28.208 121.643 28.208C122.368 28.208 122.992 28.3413 123.515 28.608C124.048 28.864 124.448 29.216 124.715 29.664C124.992 30.112 125.131 30.6187 125.131 31.184C125.131 31.8453 124.939 32.416 124.555 32.896C124.181 33.376 123.691 33.6853 123.083 33.824V33.904C123.776 34.0747 124.325 34.4107 124.731 34.912C125.136 35.4133 125.339 36.0693 125.339 36.88C125.339 37.488 125.2 38.0373 124.923 38.528C124.645 39.008 124.229 39.3867 123.675 39.664C123.12 39.9413 122.453 40.08 121.675 40.08C120.544 40.08 119.616 39.7867 118.891 39.2C118.165 38.6027 117.76 37.76 117.675 36.672H119.083C119.157 37.312 119.419 37.8347 119.867 38.24C120.315 38.6453 120.912 38.848 121.659 38.848C122.405 38.848 122.971 38.656 123.355 38.272C123.749 37.8773 123.947 37.3707 123.947 36.752C123.947 35.952 123.68 35.376 123.147 35.024C122.613 34.672 121.808 34.496 120.731 34.496H120.363V33.28H120.747C121.728 33.2693 122.469 33.1093 122.971 32.8C123.472 32.48 123.723 31.9893 123.723 31.328C123.723 30.7627 123.536 30.3093 123.163 29.968C122.8 29.6267 122.277 29.456 121.595 29.456C120.933 29.456 120.4 29.6267 119.995 29.968C119.589 30.3093 119.349 30.768 119.275 31.344H117.851ZM127.273 31.344C127.347 30.3627 127.726 29.5947 128.409 29.04C129.091 28.4853 129.977 28.208 131.065 28.208C131.79 28.208 132.414 28.3413 132.937 28.608C133.47 28.864 133.87 29.216 134.137 29.664C134.414 30.112 134.553 30.6187 134.553 31.184C134.553 31.8453 134.361 32.416 133.977 32.896C133.603 33.376 133.113 33.6853 132.505 33.824V33.904C133.198 34.0747 133.747 34.4107 134.153 34.912C134.558 35.4133 134.76 36.0693 134.76 36.88C134.76 37.488 134.622 38.0373 134.345 38.528C134.067 39.008 133.651 39.3867 133.097 39.664C132.542 39.9413 131.875 40.08 131.097 40.08C129.966 40.08 129.038 39.7867 128.312 39.2C127.587 38.6027 127.182 37.76 127.097 36.672H128.505C128.579 37.312 128.841 37.8347 129.289 38.24C129.737 38.6453 130.334 38.848 131.081 38.848C131.827 38.848 132.393 38.656 132.777 38.272C133.171 37.8773 133.369 37.3707 133.369 36.752C133.369 35.952 133.102 35.376 132.569 35.024C132.035 34.672 131.23 34.496 130.153 34.496H129.785V33.28H130.169C131.15 33.2693 131.891 33.1093 132.393 32.8C132.894 32.48 133.145 31.9893 133.145 31.328C133.145 30.7627 132.958 30.3093 132.585 29.968C132.222 29.6267 131.699 29.456 131.016 29.456C130.355 29.456 129.822 29.6267 129.417 29.968C129.011 30.3093 128.771 30.768 128.697 31.344H127.273ZM136.342 29.76V28.432H139.35V40H137.878V29.76H136.342ZM141.467 29.76V28.432H144.475V40H143.003V29.76H141.467ZM154.352 29.696H148.736V33.344C148.982 33.0027 149.344 32.7253 149.824 32.512C150.304 32.288 150.822 32.176 151.376 32.176C152.262 32.176 152.982 32.3627 153.536 32.736C154.091 33.0987 154.486 33.5733 154.72 34.16C154.966 34.736 155.088 35.3493 155.088 36C155.088 36.768 154.944 37.456 154.656 38.064C154.368 38.672 153.926 39.152 153.328 39.504C152.742 39.856 152.011 40.032 151.136 40.032C150.016 40.032 149.11 39.744 148.416 39.168C147.723 38.592 147.302 37.824 147.152 36.864H148.576C148.715 37.472 149.008 37.9467 149.456 38.288C149.904 38.6293 150.47 38.8 151.152 38.8C151.995 38.8 152.63 38.5493 153.056 38.048C153.483 37.536 153.696 36.864 153.696 36.032C153.696 35.2 153.483 34.56 153.056 34.112C152.63 33.6533 152 33.424 151.168 33.424C150.603 33.424 150.107 33.5627 149.68 33.84C149.264 34.1067 148.96 34.4747 148.768 34.944H147.392V28.416H154.352V29.696ZM159.135 33.984C158.538 33.7493 158.079 33.408 157.759 32.96C157.439 32.512 157.279 31.968 157.279 31.328C157.279 30.752 157.423 30.2347 157.711 29.776C157.999 29.3067 158.426 28.9387 158.991 28.672C159.567 28.3947 160.261 28.256 161.071 28.256C161.882 28.256 162.57 28.3947 163.135 28.672C163.711 28.9387 164.143 29.3067 164.431 29.776C164.73 30.2347 164.879 30.752 164.879 31.328C164.879 31.9467 164.714 32.4907 164.383 32.96C164.053 33.4187 163.599 33.76 163.023 33.984C163.685 34.1867 164.207 34.544 164.591 35.056C164.986 35.5573 165.183 36.1653 165.183 36.88C165.183 37.5733 165.013 38.1813 164.671 38.704C164.33 39.216 163.845 39.616 163.215 39.904C162.597 40.1813 161.882 40.32 161.071 40.32C160.261 40.32 159.546 40.1813 158.927 39.904C158.319 39.616 157.845 39.216 157.503 38.704C157.162 38.1813 156.991 37.5733 156.991 36.88C156.991 36.1653 157.183 35.552 157.567 35.04C157.951 34.528 158.474 34.176 159.135 33.984ZM163.471 31.504C163.471 30.8533 163.258 30.352 162.831 30C162.405 29.648 161.818 29.472 161.071 29.472C160.335 29.472 159.754 29.648 159.327 30C158.901 30.352 158.687 30.8587 158.687 31.52C158.687 32.1173 158.906 32.5973 159.343 32.96C159.791 33.3227 160.367 33.504 161.071 33.504C161.786 33.504 162.362 33.3227 162.799 32.96C163.247 32.5867 163.471 32.1013 163.471 31.504ZM161.071 34.624C160.282 34.624 159.637 34.8107 159.135 35.184C158.634 35.5467 158.383 36.096 158.383 36.832C158.383 37.5147 158.623 38.064 159.103 38.48C159.594 38.896 160.25 39.104 161.071 39.104C161.893 39.104 162.543 38.896 163.023 38.48C163.503 38.064 163.743 37.5147 163.743 36.832C163.743 36.1173 163.498 35.5733 163.007 35.2C162.517 34.816 161.871 34.624 161.071 34.624ZM166.941 38.832C168.296 37.744 169.357 36.8533 170.125 36.16C170.893 35.456 171.538 34.7253 172.061 33.968C172.594 33.2 172.861 32.448 172.861 31.712C172.861 31.0187 172.69 30.4747 172.349 30.08C172.018 29.6747 171.48 29.472 170.733 29.472C170.008 29.472 169.442 29.7013 169.037 30.16C168.642 30.608 168.429 31.2107 168.397 31.968H166.989C167.032 30.7733 167.394 29.8507 168.077 29.2C168.76 28.5493 169.64 28.224 170.717 28.224C171.816 28.224 172.685 28.528 173.325 29.136C173.976 29.744 174.301 30.5813 174.301 31.648C174.301 32.5333 174.034 33.3973 173.501 34.24C172.978 35.072 172.381 35.808 171.709 36.448C171.037 37.0773 170.178 37.8133 169.133 38.656H174.637V39.872H166.941V38.832ZM176.144 38.832C177.499 37.744 178.56 36.8533 179.328 36.16C180.096 35.456 180.741 34.7253 181.264 33.968C181.797 33.2 182.064 32.448 182.064 31.712C182.064 31.0187 181.893 30.4747 181.552 30.08C181.221 29.6747 180.683 29.472 179.936 29.472C179.211 29.472 178.645 29.7013 178.24 30.16C177.845 30.608 177.632 31.2107 177.6 31.968H176.192C176.235 30.7733 176.597 29.8507 177.28 29.2C177.963 28.5493 178.843 28.224 179.92 28.224C181.019 28.224 181.888 28.528 182.528 29.136C183.179 29.744 183.504 30.5813 183.504 31.648C183.504 32.5333 183.237 33.3973 182.704 34.24C182.181 35.072 181.584 35.808 180.912 36.448C180.24 37.0773 179.381 37.8133 178.336 38.656H183.84V39.872H176.144V38.832ZM191.971 31.184C191.737 30 191.006 29.408 189.779 29.408C188.83 29.408 188.121 29.776 187.651 30.512C187.182 31.2373 186.953 32.4373 186.963 34.112C187.209 33.5573 187.614 33.1253 188.179 32.816C188.755 32.496 189.395 32.336 190.099 32.336C191.198 32.336 192.073 32.6773 192.723 33.36C193.385 34.0427 193.715 34.9867 193.715 36.192C193.715 36.9173 193.571 37.568 193.283 38.144C193.006 38.72 192.579 39.1787 192.003 39.52C191.438 39.8613 190.75 40.032 189.939 40.032C188.841 40.032 187.982 39.7867 187.363 39.296C186.745 38.8053 186.313 38.128 186.067 37.264C185.822 36.4 185.699 35.3333 185.699 34.064C185.699 30.1493 187.065 28.192 189.795 28.192C190.841 28.192 191.662 28.4747 192.259 29.04C192.857 29.6053 193.209 30.32 193.315 31.184H191.971ZM189.795 33.568C189.337 33.568 188.905 33.664 188.499 33.856C188.094 34.0373 187.763 34.32 187.507 34.704C187.262 35.0773 187.139 35.536 187.139 36.08C187.139 36.8907 187.374 37.552 187.843 38.064C188.313 38.5653 188.985 38.816 189.859 38.816C190.606 38.816 191.198 38.5867 191.635 38.128C192.083 37.6587 192.307 37.0293 192.307 36.24C192.307 35.408 192.094 34.7573 191.667 34.288C191.241 33.808 190.617 33.568 189.795 33.568Z" fill="black"/>
<path d="M57.8147 36.3893C57.4047 35.963 56.9101 35.735 56.3859 35.735C55.866 35.735 55.3671 35.9587 54.9402 36.3851L53.6044 37.7147C53.4945 37.6556 53.3846 37.6008 53.2789 37.5459C53.1267 37.4699 52.983 37.3981 52.8604 37.3222C51.6091 36.5286 50.472 35.4944 49.3813 34.1563C48.8529 33.4894 48.4978 32.928 48.24 32.3581C48.5866 32.0415 48.9079 31.7123 49.2207 31.3957C49.339 31.2775 49.4574 31.1551 49.5758 31.0369C50.4635 30.1504 50.4635 29.0023 49.5758 28.1159L48.4217 26.9635C48.2907 26.8326 48.1554 26.6976 48.0286 26.5625C47.775 26.3008 47.5086 26.0306 47.2339 25.7773C46.8238 25.3721 46.3334 25.1568 45.8177 25.1568C45.302 25.1568 44.8032 25.3721 44.3804 25.7773L44.372 25.7858L42.9347 27.2336C42.3936 27.7739 42.085 28.4324 42.0174 29.1965C41.9159 30.429 42.2795 31.5772 42.5585 32.3286C43.2433 34.1732 44.2663 35.8828 45.7924 37.7147C47.6439 39.9224 49.8717 41.6657 52.4165 42.8941C53.3888 43.3542 54.6866 43.8987 56.1365 43.9916C56.2253 43.9958 56.3183 44 56.4028 44C57.3793 44 58.1994 43.6496 58.842 42.9532C58.8462 42.9447 58.8547 42.9405 58.8589 42.9321C59.0787 42.6661 59.3323 42.4255 59.5987 42.168C59.7804 41.995 59.9664 41.8135 60.1482 41.6235C60.5667 41.1887 60.7865 40.6822 60.7865 40.163C60.7865 39.6396 60.5625 39.1372 60.1355 38.7151L57.8147 36.3893ZM59.3281 40.8341C59.3239 40.8384 59.3239 40.8341 59.3281 40.8341C59.1632 41.0114 58.9942 41.1718 58.8124 41.3491C58.5376 41.6108 58.2586 41.8852 57.9965 42.1934C57.5696 42.6492 57.0665 42.8645 56.4071 42.8645C56.3437 42.8645 56.276 42.8645 56.2126 42.8603C54.9571 42.7801 53.7904 42.2904 52.9153 41.8725C50.5227 40.716 48.4217 39.0739 46.6759 36.9929C45.2344 35.258 44.2705 33.654 43.6322 31.9318C43.2391 30.8807 43.0954 30.0618 43.1588 29.2893C43.201 28.7955 43.3913 28.386 43.7421 28.0357L45.1836 26.5962C45.3908 26.4021 45.6106 26.2965 45.8262 26.2965C46.0925 26.2965 46.3081 26.4569 46.4434 26.592L46.456 26.6047C46.7139 26.8453 46.9591 27.0943 47.217 27.3603C47.348 27.4953 47.4833 27.6304 47.6185 27.7697L48.7726 28.9221C49.2207 29.3695 49.2207 29.7832 48.7726 30.2306C48.65 30.3531 48.5316 30.4755 48.409 30.5937C48.054 30.9567 47.7158 31.2944 47.348 31.6236C47.3395 31.6321 47.3311 31.6363 47.3269 31.6447C46.9633 32.0077 47.031 32.3623 47.107 32.6029L47.1197 32.6409C47.4199 33.367 47.8426 34.0508 48.4851 34.8655L48.4894 34.8697C49.6561 36.3049 50.8862 37.4235 52.2432 38.2804C52.4165 38.3901 52.5941 38.4788 52.7631 38.5632C52.9153 38.6392 53.0591 38.7109 53.1816 38.7869C53.1986 38.7953 53.2155 38.808 53.2324 38.8164C53.3761 38.8882 53.5114 38.922 53.6509 38.922C54.0017 38.922 54.2216 38.7025 54.2934 38.6307L55.7391 37.1871C55.8829 37.0436 56.1112 36.8705 56.3775 36.8705C56.6396 36.8705 56.8552 37.0351 56.9862 37.1786L56.9947 37.1871L59.3239 39.5129C59.7593 39.9435 59.7593 40.3867 59.3281 40.8341ZM52.8096 28.7575C53.9172 28.9432 54.9233 29.4666 55.7265 30.2686C56.5297 31.0707 57.0496 32.0753 57.2398 33.1812C57.2863 33.4598 57.5273 33.654 57.8021 33.654C57.8359 33.654 57.8655 33.6498 57.8993 33.6455C58.2121 33.5949 58.4192 33.2994 58.3685 32.9871C58.1402 31.6489 57.5062 30.429 56.5381 29.4624C55.5701 28.4958 54.3484 27.8626 53.0083 27.6346C52.6955 27.584 52.4038 27.7908 52.3489 28.099C52.2939 28.4071 52.4968 28.7068 52.8096 28.7575ZM61.9913 32.8224C61.6151 30.619 60.5752 28.614 58.9772 27.0184C57.3793 25.4228 55.3714 24.3844 53.1647 24.0087C52.8561 23.9538 52.5645 24.1649 52.5095 24.473C52.4588 24.7854 52.6659 25.0766 52.9787 25.1315C54.9486 25.465 56.7452 26.3979 58.1741 27.8204C59.6029 29.2471 60.5329 31.0411 60.8668 33.0082C60.9133 33.2868 61.1543 33.4809 61.4291 33.4809C61.4629 33.4809 61.4925 33.4767 61.5263 33.4725C61.8349 33.426 62.0463 33.1306 61.9913 32.8224Z" fill="#FF9700"/>
<line x1="29.4589" y1="0.198611" x2="0.458861" y2="67.1986" stroke="#DEDEDE"/>
</svg>
