<svg id="Layer_1" data-name="Layer 1" xmlns="http://www.w3.org/2000/svg" viewBox="0 0 762 487.24"><defs><style>.cls-1{fill:#231f20;}</style></defs><path class="cls-1" d="M596.41,396.56,489.65,287.8l22.53-24.28c-26.29-1.72-50.32-7.5-66.86,17.5-7.61,11.51-18.3,15.81-32.46,14.32-13.05-1.36-26.36-.29-40.7-.29V280.42c4.72,0,9.12-.5,13.37.08,26.21,3.59,48.38-2.16,65.06-24.68,3.17-4.29,11.22-6.39,17.23-6.86,13.12-1,26.38-.36,39.59-.36,22.53,0,22.53,0,39.7-21.15H438.05c.52-6.7.9-11.45,1.29-16.42,33.65,0,67.21-1.08,100.65.42,18.73.84,33-3.7,44.14-18.92,3.48-4.78,8.55-8.39,13.65-13.26,3.34,2.62,7,4.35,9,7.22,15.08,22.12,36.3,26.44,61.6,24.91,29.59-1.79,59.38-.42,90.14-.42.2,4.51.41,8.91.71,15.4h-110c10.76,14.4,19.35,24.75,36.41,22.46,8.65-1.17,17.74.77,26.35-.53,20.51-3.09,36.51,3.28,48.44,20.13,6.65,9.38,15.46,12.6,27,11.67,12.57-1,25.28-.23,39.11-.23.57,5.08,1.13,10,1.76,15.47-18.47,0-36.19,1.27-53.58-.59-7.52-.81-16.75-6.42-21.09-12.7-17-24.6-40.43-20.55-66.36-15l23.56,15.77ZM534,286.8c21,22.81,42,45.68,64,69.61l64.27-69.14-63.75-64.19Z" transform="translate(-217.44 -179.27)"/><path class="cls-1" d="M546.7,619.65c-9.75-17-21.08-24.63-38.1-22.19-5.38.77-11.11-.91-16.46-.07-24.31,3.79-43.68-3.14-58.69-23.42-3.16-4.27-11.06-6.62-16.94-7-15.81-.94-31.72-.32-47.61-.32.8-5.85,1.45-10.62,2.2-16.12,17.15,0,34.79-.83,52.26.46,6.13.45,13,5,17.59,9.63,25.7,25.61,30.39,27.35,69.83,20.76L489.4,558.17,600.13,450l108.2,111.37-22.81,17.13,2.89,4.38c22.1-.06,45.85,7.67,62.44-16.91,8.72-12.93,21.21-17.34,37-15.7,13.05,1.35,26.36.27,40.23.27v15c-5.47,0-10.94.61-16.23-.1-26.28-3.53-48.34,2.53-65,25-3.23,4.36-11,6.9-17,7.38-15.32,1.26-30.85,1.93-46.16.89s-24.76,5.49-33.38,19.5h108.6c-.47,5.69-.8,9.67-1.3,15.65-33.17,0-66.13,1.07-99-.41-19.22-.87-34.21,3.63-45.69,19.31-3.53,4.82-8.18,8.82-12.86,13.76-3.82-2.69-7.67-4.2-9.69-7-15.3-21.36-35.87-27.09-61.42-25.19-25.7,1.91-51.69-.27-77.54,0-10,.11-13.92-3.42-11.75-14.65Zm49.66,2.69,70.84-67.11-68.28-64.74-66.45,66.82Z" transform="translate(-217.44 -179.27)"/><path class="cls-1" d="M805.11,381.68c17.47,31.5,42.43,39.34,73.52,33.18l3.61,16.94c-30.85-3.55-59.68-3-74.69,32.84,19.2,0,38-.45,56.83.26,6,.23,14.74,1.68,17.48,5.76,17.46,26,42.51,29.82,70.56,26.91,3.19-.34,6.47.22,10.06.38.32,4.2.6,7.77.9,11.74a20.43,20.43,0,0,1-4.38,1.12c-7.69.25-15.54-.58-23.06.65-24.64,4-43.33-4.46-58.36-24.12-3.32-4.34-11-5.37-16.7-7.78-.93-.4-2.18-.1-3.27,0-24.45,1.28-52-4-72.44,5.72-20.08,9.56-32.92,34.37-48.76,52.3L622.28,422.88,733.47,312C747,326.41,761,340.41,774,355.27c8.63,9.86,18.11,15.1,31.49,13.21a79.27,79.27,0,0,1,19.77,0c28.23,3.2,53.18-.91,70.26-27.19,2.36-3.62,9.3-5.75,14.22-5.95,17.56-.7,35.16-.27,52.72-.27.9,4.48,1.69,8.37,2.78,13.79-10.59,0-21,.87-31.31-.2-17.84-1.86-32.49,2.85-42.92,17.82-9.16,13.16-21.56,16.62-37,15.49C838.4,380.79,822.63,381.68,805.11,381.68Zm-139,41.53L733.91,488,798.58,424l-62.89-64.45Z" transform="translate(-217.44 -179.27)"/><path class="cls-1" d="M314.46,431.3c.65-5.27,1.15-9.36,1.93-15.74,31.7,6.43,58.13-1.35,75.45-33.94-20.31,0-39.78.43-59.21-.26-6-.21-14.77-1.57-17.47-5.61-17.44-26.11-42.4-30.17-70.59-26.95-3.78.43-7.65.06-11.91.06V335.21c19.3,0,38.08-1.55,56.39.73,7.8,1,16.08,8.73,21.56,15.5,10.67,13.17,23.33,15.92,39.8,17.52,41.37,4,75.6-4.7,99.44-41.14,3.6-5.49,7.89-10.53,11.23-14.95L573.8,423.92,460.59,532.27c-12.61-13.13-27.31-29.37-43.17-44.38-5-4.69-12.85-7.46-19.8-8.56-9.13-1.45-18.74.43-28-.54-27.61-2.91-52.08.8-69.17,26.27-2.65,3.94-10.31,6-15.79,6.29-15.91.81-31.89.29-49.27.29-.75-4.59-1.46-8.93-2.35-14.34,5.54,0,10-.48,14.27.08,27.22,3.54,50.78-1.05,67.26-26.2,2.75-4.2,11.28-6.16,17.26-6.41,19-.79,38-.29,57.07-.29l2.17-4.36c-10.61-9.61-19.77-23.12-32.23-27.75C345.84,427.55,329.67,431.3,314.46,431.3Zm149.45-72.49-65.6,64.27L461,487l70.89-65.67Z" transform="translate(-217.44 -179.27)"/><circle class="cls-1" cx="146" cy="107.21" r="13"/><circle class="cls-1" cx="13" cy="162.21" r="13"/><circle class="cls-1" cx="95.5" cy="244.71" r="13"/><circle class="cls-1" cx="16" cy="325.21" r="13"/><circle class="cls-1" cx="151" cy="379.21" r="13"/><circle class="cls-1" cx="220" cy="446.21" r="13"/><circle class="cls-1" cx="220" cy="41.21" r="13"/><circle class="cls-1" cx="544" cy="39.21" r="13"/><circle class="cls-1" cx="616" cy="105.21" r="13"/><circle class="cls-1" cx="748" cy="160.21" r="13"/><circle class="cls-1" cx="666" cy="243.21" r="13"/><circle class="cls-1" cx="749" cy="324.21" r="13"/><circle class="cls-1" cx="611" cy="379.21" r="13"/><circle class="cls-1" cx="544" cy="446.21" r="13"/></svg>