<svg xmlns="http://www.w3.org/2000/svg" width="393" height="150" viewBox="0 0 393 150">
  <g id="Group_1" data-name="Group 1" transform="translate(-366 -354)">
    <g id="Ellipse_1" data-name="Ellipse 1" transform="translate(366 354)" fill="#fff" stroke="#fff" stroke-width="1">
      <circle cx="75" cy="75" r="75" stroke="none"/>
      <circle cx="75" cy="75" r="74.5" fill="none"/>
    </g>
    <g id="Page-1" transform="translate(-585.631 362.635)">
      <g id="v" transform="translate(972.631 21.865)">
        <g id="Group-2" transform="translate(0 0)">
          <g id="Group" transform="translate(10.013 0)">
            <g id="Group-7" transform="translate(0)">
              <path id="Fill-3" d="M115.051,53.861l-4.75-1.068a39.465,39.465,0,0,0,.955-8.64A39.215,39.215,0,0,0,53.678,9.517,39.544,39.544,0,0,0,39.94,21.665l-3.986-2.8A44.021,44.021,0,0,1,72.054.083a44.034,44.034,0,0,1,44.07,44.069,44.338,44.338,0,0,1-1.073,9.708" transform="translate(-27.985 -0.083)" fill="#ff9700" fill-rule="evenodd"/>
              <path id="Fill-5" d="M44.2,206.74A44.035,44.035,0,0,1,.135,162.671a44.283,44.283,0,0,1,1.176-10.155l4.739,1.118A39.408,39.408,0,0,0,5,162.671a39.215,39.215,0,0,0,57.421,34.719,39.549,39.549,0,0,0,13.69-11.944l3.961,2.832A44.017,44.017,0,0,1,44.2,206.74" transform="translate(-0.135 -118.601)" fill="#ff9700" fill-rule="evenodd"/>
            </g>
          </g>
          <path id="Fill-2" d="M0,100.536v8.014H55.778l-22.856,26.6v6.946h75.484v-8.015H44.676l22.857-26.6v-6.946Z" transform="translate(0 -78.186)" fill-rule="evenodd"/>
        </g>
      </g>
    </g>
    <text id="ZWEIDEVS" transform="translate(536 444.672)" font-size="44.56" font-family="Poppins-SemiBold, Poppins" font-weight="600" letter-spacing="0.003em"><tspan x="0" y="0">ZWEIDEVS</tspan></text>
  </g>
</svg>
