<svg id="Layer_1" data-name="Layer 1" xmlns="http://www.w3.org/2000/svg" viewBox="0 0 547.3 636.6"><defs><style>.cls-1{fill:none;stroke:#231f20;stroke-miterlimit:10;stroke-width:12px;}</style></defs><path class="cls-1" d="M1085.45,1315a102.35,102.35,0,0,0-9-5.63c-21.79-12.73-43.52-25.56-65.48-38-5.48-3.1-7.68-6.45-7.6-13,.73-60,.91-120,1.64-180,.08-7.18-2.16-11.09-8.35-14.66-51.06-29.52-101.79-59.58-152.93-88.94-7.65-4.39-10.18-9.1-9.94-17.7.67-24.25.33-48.53.38-72.79,0-3.13,0-6.27,0-10.79,3.95,2.06,6.49,3.26,8.91,4.68q118.53,69.79,237.13,139.48c5.87,3.44,7.84,7.14,7.77,13.83q-1.49,135.26-2.45,270.51Z" transform="translate(-826.35 -689.92)"/><path class="cls-1" d="M1351.06,1187.22l-93.36,54.15c-.2-4.43-.42-7.26-.43-10.08-.1-43,0-85.92-.43-128.87-.07-6.88,2.31-10.39,8.1-13.69,31.85-18.13,65.37-36.84,97.22-55l3.81,126.14A30,30,0,0,1,1351.06,1187.22Z" transform="translate(-826.35 -689.92)"/><path class="cls-1" d="M1359.79,888.45c-73.46,41.93-146.63,84.69-220,127.06-6.71,3.87-9.52,7.85-9.46,15.92.72,90.5,1,181,1.39,271.5,0,3.13,0,6.25,0,10.69,4.3-2.21,7.18-3.54,9.92-5.13,21.56-12.47,43-25.16,64.71-37.36,5.51-3.1,7.61-6.52,7.57-13-.34-60.34-.17-120.67-.46-181,0-6.4,1.92-9.95,7.51-13.16,42.38-24.37,84.6-49,126.87-73.6a22.19,22.19,0,0,0,11-18.94Z" transform="translate(-826.35 -689.92)"/><path class="cls-1" d="M1108.3,698a18.48,18.48,0,0,1,18,.59c13.48,8.14,26.94,16.32,40.52,24.28,22.84,13.4,45.82,26.57,69.74,40.4-2.7,1.89-4.6,3.43-6.69,4.63q-56.94,32.91-114,65.6c-2.94,1.67-8,3.12-10.37,1.76-41.24-23.33-82.23-47.12-124.39-71.46Z" transform="translate(-826.35 -689.92)"/><path class="cls-1" d="M855.29,836c26.27-15.17,51.63-30.08,77.37-44.31,3-1.64,8.75-.79,12,1.07,52.82,30.26,105.45,60.88,158.12,91.41,2,1.14,4,2.25,6.17,3.5,54.35-31.4,108.81-62.65,163-94.41,6.68-3.92,11.26-3.7,17.63.17,23.74,14.41,47.84,28.22,72.6,42.72-3.14,2-5.5,3.62-8,5.05Q1235.07,910.12,1116,979.11c-4.85,2.83-8.26,3-13.2.15Q980.75,908.79,858.46,838.7A31.27,31.27,0,0,1,855.29,836Z" transform="translate(-826.35 -689.92)"/><path class="cls-1" d="M832.55,1018.25c22.18,13,41.61,24.25,61,35.61,20.61,12.08,41.28,24.05,61.63,36.54,3,1.82,6,6.34,6,9.6-.06,45.56-.65,91.12-1.13,136.67a37.24,37.24,0,0,1-.73,4.23c-3.17-1.77-5.89-3.22-8.55-4.77-34.73-20.33-69.31-40.91-104.25-60.87-10.39-5.93-14.34-13.62-14.2-25.5C832.87,1106.84,832.55,1063.91,832.55,1018.25Z" transform="translate(-826.35 -689.92)"/></svg>
