<svg id="Layer_1" data-name="Layer 1" xmlns="http://www.w3.org/2000/svg" viewBox="0 0 402.26 455.01"><defs><style>.cls-1{fill:#f8941d;}.cls-2{fill:#fff;}</style></defs><path class="cls-1" d="M725.56,938.37c0-33.11.32-66.21-.19-99.31-.16-10.35,2.63-16.75,12.23-22.2,59.49-33.75,118.42-68.49,178-102.06,5.62-3.16,16.06-3.32,21.62-.19q90.15,50.77,179.14,103.57c5.5,3.27,10.64,12.32,10.71,18.75q1.13,103.65,0,207.31c-.06,5.88-5.17,14.1-10.34,17.16q-89.07,52.65-179.18,103.51c-5.6,3.16-16,3.29-21.58.16q-90.16-50.73-179.17-103.48c-5.5-3.26-10.54-12.23-10.73-18.71C725,1008.07,725.56,973.21,725.56,938.37Zm193.75,207.05c0-66.27.15-128.88-.34-191.49,0-4.06-4.07-9.4-7.77-11.86-10.51-7-21.81-12.79-35.88-20.83v146.88c-18.28-4.13-22.23-14.19-21.77-29.8,1.14-38.88.86-77.83-.13-116.72-.17-6.49-5.18-15.21-10.65-18.78-19.87-13-40.85-24.26-61.49-36.05-10.68-6.1-21.51-11.93-34.8-19.28,0,65.67-.08,127.7.2,189.73,0,3.49,2,8.46,4.71,10.21,11.88,7.66,24.36,14.4,38.92,22.79V923.94c15.49,3.36,21.94,10.48,21.44,26.53-1.24,39.45-.7,79-.1,118.46.1,6,2.66,14.64,7,17.32C850.64,1106,883.36,1124.5,919.31,1145.42Zm60.29-151c-5.7-16.91-.4-25.31,13.15-32.65,34.65-18.79,68.5-39.08,102.42-59.19,4.53-2.69,10.4-7.52,10.86-11.86,1.41-13.45.52-27.15.52-41.78-4.26,1.27-6,1.46-7.41,2.26-52.29,30-104.71,59.88-156.54,90.7-4.85,2.88-8.33,12-8.43,18.32-.69,47.64-.38,95.28-.38,142.93V1143c42.48-16.24,43.57-17.77,43.57-58.57,0-8.14.65-16.34-.14-24.39-1.06-10.76,3.45-16.83,12.7-22q52.32-29.38,103.82-60.21c5.29-3.17,11.63-9.09,12.38-14.46,1.81-12.87.58-26.16.58-42.17ZM967.69,760.29c-35.15-28.34-36.53-28.48-72.25-7.94-4,2.31-8.09,4.5-12.09,6.82L754.63,833.9c11.06,6.41,20.52,10.92,28.87,17,9.9,7.15,18.21,6.7,28.27,0a294.47,294.47,0,0,1,40.75-23.11c5.49-2.53,14.47-2.72,19.63.1,36.06,19.73,71.41,40.77,107.35,60.74,5.24,2.91,13.49,4.94,18.46,2.87,11.89-5,22.65-12.62,36.06-20.46L905.68,796.65Z" transform="translate(-725.36 -712.34)"/><path class="cls-2" d="M921.31,1144.42c-35.95-20.92-68.67-39.44-100.65-59.17-4.35-2.68-6.91-11.36-7-17.32-.6-39.48-1.14-79,.1-118.46.5-16.05-6-23.17-21.44-26.53v146.28c-14.56-8.39-27-15.13-38.92-22.79-2.7-1.75-4.69-6.72-4.71-10.21-.28-62-.2-124.06-.2-189.73,13.29,7.35,24.12,13.18,34.8,19.28,20.64,11.79,41.62,23.08,61.49,36.05,5.47,3.57,10.48,12.29,10.65,18.78,1,38.89,1.27,77.84.13,116.72-.46,15.61,3.49,25.67,21.77,29.8V920.24c14.07,8,25.37,13.84,35.88,20.83,3.7,2.46,7.74,7.8,7.77,11.86C921.46,1015.54,921.31,1078.15,921.31,1144.42Z" transform="translate(-725.36 -712.34)"/><path class="cls-2" d="M981.6,993.43l127.1-73.24c0,16,1.23,29.3-.58,42.17-.75,5.37-7.09,11.29-12.38,14.46q-51.51,30.78-103.82,60.21c-9.25,5.19-13.76,11.26-12.7,22,.79,8,.14,16.25.14,24.39,0,40.8-1.09,42.33-43.57,58.57v-39.85c0-47.65-.31-95.29.38-142.93.1-6.29,3.58-15.44,8.43-18.32,51.83-30.82,104.25-60.65,156.54-90.7,1.4-.8,3.15-1,7.41-2.26,0,14.63.89,28.33-.52,41.78-.46,4.34-6.33,9.17-10.86,11.86-33.92,20.11-67.77,40.4-102.42,59.19C981.2,968.12,975.9,976.52,981.6,993.43Z" transform="translate(-725.36 -712.34)"/><path class="cls-2" d="M969.69,759.29l-62,36.36L1036,870c-13.41,7.84-24.17,15.5-36.06,20.46-5,2.07-13.22,0-18.46-2.87-35.94-20-71.29-41-107.35-60.74-5.16-2.82-14.14-2.63-19.63-.1a294.47,294.47,0,0,0-40.75,23.11c-10.06,6.75-18.37,7.2-28.27,0-8.35-6-17.81-10.56-28.87-17l128.72-74.73c4-2.32,8.08-4.51,12.09-6.82C933.16,730.81,934.54,731,969.69,759.29Z" transform="translate(-725.36 -712.34)"/></svg>