<svg id="Layer_1" data-name="Layer 1" xmlns="http://www.w3.org/2000/svg" viewBox="0 0 412.26 465.01"><defs><style>.cls-1{fill:none;stroke:#231f20;stroke-miterlimit:10;stroke-width:10px;}</style></defs><path class="cls-1" d="M911.07,985.3c0-33.11.32-66.21-.19-99.31-.16-10.36,2.63-16.75,12.24-22.2,59.48-33.75,118.41-68.49,178-102.06,5.62-3.16,16.06-3.32,21.62-.19q90.15,50.78,179.14,103.57c5.5,3.27,10.64,12.32,10.71,18.75q1.14,103.65,0,207.31c-.06,5.88-5.17,14.1-10.34,17.16q-89.07,52.65-179.17,103.51c-5.61,3.16-16,3.29-21.59.16q-90.17-50.73-179.17-103.48c-5.5-3.26-10.54-12.23-10.73-18.71C910.52,1055,911.07,1020.14,911.07,985.3Zm193.76,207c0-66.27.14-128.88-.34-191.49,0-4.06-4.08-9.41-7.78-11.86-10.51-7-21.81-12.79-35.88-20.83v146.88c-18.28-4.13-22.22-14.19-21.77-29.81,1.14-38.87.86-77.82-.13-116.71-.16-6.49-5.18-15.21-10.65-18.78-19.87-13-40.85-24.26-61.49-36-10.68-6.1-21.51-11.93-34.8-19.28,0,65.67-.08,127.7.2,189.73,0,3.49,2,8.46,4.72,10.21,11.87,7.66,24.36,14.4,38.91,22.79V970.87c15.49,3.36,21.94,10.48,21.44,26.53-1.24,39.45-.7,79-.09,118.46.09,6,2.66,14.64,7,17.32C1036.15,1152.91,1068.87,1171.43,1104.83,1192.35Zm60.28-151c-5.7-16.91-.4-25.31,13.15-32.65,34.65-18.79,68.5-39.08,102.42-59.19,4.53-2.69,10.4-7.52,10.86-11.86,1.41-13.45.52-27.15.52-41.78-4.25,1.27-6,1.45-7.41,2.26-52.29,30.05-104.71,59.88-156.54,90.7-4.85,2.88-8.33,12-8.42,18.32-.7,47.63-.39,95.28-.39,142.92v39.86c42.48-16.24,43.57-17.77,43.58-58.58,0-8.13.64-16.33-.15-24.38-1.06-10.76,3.45-16.83,12.7-22q52.32-29.39,103.82-60.21c5.29-3.17,11.63-9.09,12.38-14.46,1.81-12.87.59-26.17.59-42.17ZM1153.2,807.22c-35.15-28.34-36.52-28.48-72.25-7.94-4,2.31-8.09,4.5-12.09,6.82L940.14,880.83c11.06,6.41,20.52,10.92,28.87,17,9.9,7.16,18.22,6.71,28.27,0A295,295,0,0,1,1038,874.64c5.5-2.53,14.47-2.73,19.63.1,36.07,19.73,71.41,40.77,107.36,60.74,5.23,2.91,13.48,4.94,18.45,2.87,11.89-5,22.65-12.62,36.06-20.46l-128.34-74.31Z" transform="translate(-905.87 -754.27)"/></svg>
