<svg width="92" height="92" viewBox="0 0 92 92" fill="none" xmlns="http://www.w3.org/2000/svg">
  <path fill-rule="evenodd" clip-rule="evenodd" d="M55.9071 59.9777L51.7804 63.4547L55.9071 66.9316C56.0515 67.0532 56.1705 67.2021 56.2573 67.3697C56.3442 67.5373 56.3971 67.7204 56.4131 67.9085C56.4292 68.0966 56.4079 68.286 56.3507 68.4659C56.2935 68.6458 56.2014 68.8126 56.0796 68.9569C55.9449 69.1175 55.7766 69.2466 55.5866 69.3351C55.3966 69.4236 55.1895 69.4693 54.9799 69.469C54.6413 69.469 54.3135 69.3494 54.0545 69.1312L48.6235 64.5545C48.2993 64.2814 48.1122 63.8791 48.1122 63.4548C48.1122 63.0306 48.2993 62.6283 48.6235 62.3552L54.0545 57.7785C54.3463 57.5333 54.7234 57.414 55.1031 57.4467C55.4828 57.4793 55.834 57.6614 56.0796 57.9528C56.5915 58.5584 56.5143 59.4658 55.9071 59.9777ZM65.7648 57.7783L71.1967 62.355C71.3567 62.4901 71.4853 62.6585 71.5734 62.8484C71.6616 63.0384 71.7073 63.2453 71.7073 63.4547C71.7073 63.6641 71.6616 63.871 71.5734 64.0609C71.4853 64.2508 71.3567 64.4192 71.1967 64.5544L65.7648 69.131C65.5058 69.3493 65.178 69.4689 64.8394 69.4688C64.6298 69.4691 64.4226 69.4234 64.2326 69.3349C64.0426 69.2464 63.8743 69.1173 63.7397 68.9567C63.6179 68.8125 63.5258 68.6456 63.4686 68.4657C63.4113 68.2859 63.3901 68.0965 63.4061 67.9084C63.4222 67.7203 63.4751 67.5372 63.5619 67.3696C63.6488 67.202 63.7678 67.0532 63.9122 66.9316L68.0396 63.4547L63.9122 59.9777C63.3048 59.4656 63.2276 58.5582 63.7397 57.9526C63.9853 57.6613 64.3365 57.4792 64.7162 57.4466C65.0958 57.4139 65.473 57.5332 65.7648 57.7783ZM62.9652 69.3017C63.1701 70.0691 62.7155 70.858 61.9482 71.0628C61.8242 71.0968 61.6984 71.1113 61.5762 71.1113C61.2597 71.1114 60.952 71.007 60.7008 70.8144C60.4497 70.6217 60.2692 70.3515 60.1873 70.0458L56.854 57.6078C56.6492 56.8405 57.1036 56.0517 57.8711 55.8469C58.6383 55.6418 59.4272 56.0966 59.632 56.8639L62.9652 69.3017ZM59.9086 76.5451C67.1284 76.5451 73.0006 70.6729 73.0006 63.4548C73.0006 56.2368 67.1284 50.3644 59.9086 50.3646C52.6914 50.3646 46.8192 56.2366 46.8192 63.4548C46.8192 70.6729 52.6916 76.5451 59.9086 76.5451ZM59.9086 47.4894C51.106 47.4894 43.9442 54.652 43.9442 63.4548C43.9442 72.2577 51.106 79.4201 59.9086 79.4201C68.7132 79.4201 75.8756 72.2577 75.8756 63.4548C75.8758 54.6518 68.7132 47.4896 59.9086 47.4894ZM84.1432 65.9415V60.968L80.81 59.685C80.5924 59.6007 80.3985 59.465 80.2449 59.2895C80.0912 59.1139 79.9824 58.9038 79.9277 58.677C79.4246 56.5566 78.5872 54.5404 77.4426 52.6808C77.3204 52.4819 77.2483 52.2563 77.2327 52.0233C77.217 51.7904 77.2583 51.5571 77.353 51.3437L78.8031 48.0788L75.2866 44.5603L72.0199 46.0124C71.5868 46.2047 71.0855 46.1705 70.683 45.9226C68.8304 44.7793 66.8067 43.9403 64.6886 43.4375C64.4614 43.3836 64.2508 43.275 64.0752 43.1213C63.8995 42.9675 63.764 42.7731 63.6806 42.555L62.3976 39.2218H57.422L56.1391 42.5552C56.0556 42.7733 55.9202 42.9676 55.7445 43.1214C55.5688 43.2751 55.3582 43.3836 55.131 43.4375C53.0131 43.9403 50.9894 44.7793 49.137 45.9226C48.9381 46.0448 48.7124 46.1169 48.4795 46.1326C48.2465 46.1482 48.0133 46.107 47.7998 46.0124L44.5332 44.5603L41.016 48.0788L42.4665 51.3437C42.5613 51.5574 42.6027 51.7909 42.5871 52.0241C42.5715 52.2574 42.4993 52.4833 42.3768 52.6824C41.2342 54.5353 40.3952 56.559 39.8915 58.6768C39.8373 58.9037 39.7287 59.114 39.575 59.2896C39.4214 59.4652 39.2273 59.6007 39.0096 59.6846L35.6772 60.9678V65.9414L39.0089 67.2245C39.2267 67.3084 39.4207 67.444 39.5744 67.6197C39.7281 67.7953 39.8367 68.0056 39.891 68.2326C40.3947 70.3509 41.2338 72.3752 42.3764 74.2287C42.499 74.4274 42.5712 74.653 42.5868 74.886C42.6024 75.1189 42.561 75.3521 42.4661 75.5654L41.016 78.8303L44.5332 82.3488L47.8 80.8969C48.0134 80.8023 48.2466 80.7611 48.4796 80.7767C48.7125 80.7924 48.9381 80.8645 49.137 80.9868C50.9895 82.1298 53.0132 82.9688 55.131 83.4719C55.3583 83.5259 55.5691 83.6344 55.745 83.7882C55.9209 83.9419 56.0568 84.1361 56.1409 84.3541L57.422 87.6873H62.3976L63.6788 84.3559C63.7628 84.1379 63.8987 83.9437 64.0746 83.79C64.2506 83.6362 64.4613 83.5277 64.6886 83.4736C66.8071 82.9687 68.825 82.1332 70.6848 80.9886C70.8833 80.8654 71.1089 80.7928 71.342 80.7771C71.5751 80.7614 71.8084 80.8031 72.0216 80.8985L75.2866 82.3488L78.8031 78.8303L77.353 75.5638C77.2584 75.3504 77.2172 75.1172 77.2328 74.8843C77.2485 74.6514 77.3206 74.4258 77.4428 74.2269C78.5847 72.3737 79.4236 70.3501 79.9279 68.2326C79.9822 68.0056 80.091 67.7953 80.2446 67.6197C80.3983 67.4441 80.5924 67.3084 80.8102 67.2245L84.1432 65.9415ZM33.1658 70.3583C26.1661 70.3583 19.6052 69.4959 14.6911 67.9327C9.65427 66.3297 7.85956 64.4791 7.85956 63.2823V50.5944C9.31466 51.6404 11.3097 52.5748 13.8193 53.3726C19.0077 55.0237 25.8784 55.9349 33.1658 55.9349C34.7029 55.9347 36.2306 55.89 37.7353 55.8073C37.5693 56.2889 37.4183 56.7759 37.2841 57.2682L33.7231 58.6392C33.4519 58.7437 33.2188 58.9279 33.0544 59.1675C32.8899 59.4071 32.802 59.6909 32.802 59.9815V66.928C32.8019 67.2186 32.8899 67.5024 33.0543 67.7421C33.2188 67.9817 33.4519 68.1659 33.7231 68.2705L37.2836 69.6413C37.3385 69.8427 37.3978 70.044 37.4584 70.2434C36.0444 70.3171 34.6084 70.3584 33.1658 70.3583ZM7.85956 33.2959C9.31466 34.3417 11.3097 35.2762 13.8193 36.0741C19.0075 37.7254 25.8783 38.6346 33.1658 38.6346C40.4533 38.6346 47.3241 37.7254 52.5126 36.0741C55.0214 35.2761 57.0176 34.3419 58.473 33.2961V36.347H56.4354C56.1452 36.3471 55.8618 36.4351 55.6226 36.5993C55.3833 36.7635 55.1994 36.9963 55.0949 37.267L53.7239 40.8302C51.8236 41.3473 49.997 42.1045 48.2882 43.0835L44.7979 41.5328C44.5325 41.4148 44.2376 41.38 43.9521 41.433C43.6665 41.4859 43.4037 41.6241 43.1982 41.8293L38.2851 46.7435C38.0797 46.9489 37.9414 47.2116 37.8883 47.4971C37.8353 47.7826 37.87 48.0776 37.9879 48.3429L39.5379 51.8325C39.3483 52.1665 39.1666 52.505 38.9931 52.8477C37.0539 52.9886 35.1103 53.0593 33.166 53.0597C26.1663 53.0597 19.6054 52.1972 14.6913 50.634C9.65445 49.0311 7.85973 47.1804 7.85973 45.9836L7.85956 33.2959ZM7.85956 15.9976V28.6853C7.85956 29.882 9.65427 31.731 14.6911 33.3356C19.6052 34.8989 26.1661 35.7596 33.1658 35.7596C40.1654 35.7596 46.7265 34.8989 51.6406 33.3356C56.678 31.731 58.473 29.8819 58.473 28.6851V15.9974C57.0176 17.0432 55.0212 17.9776 52.5126 18.7754C47.3241 20.4267 40.4533 21.3357 33.1658 21.3359C25.8783 21.3359 19.0075 20.4267 13.8193 18.7754C11.3096 17.9777 9.31466 17.0434 7.85956 15.9976ZM14.6911 6.7381C19.6052 5.1732 26.1659 4.3125 33.1658 4.3125C40.1654 4.31232 46.7265 5.1732 51.6406 6.73828C56.678 8.34091 58.473 10.1901 58.473 11.3868C58.473 12.5835 56.678 14.4325 51.6406 16.0353C46.7265 17.6002 40.1656 18.4611 33.1658 18.4611C26.1661 18.4609 19.6052 17.6004 14.6911 16.0353C9.65427 14.4323 7.85956 12.5835 7.85956 11.3868C7.85956 10.1901 9.65427 8.34109 14.6911 6.7381ZM86.0962 58.6392L82.5366 57.2682C82.0175 55.3684 81.2598 53.542 80.2815 51.8327L81.8322 48.3429C81.9498 48.0775 81.9842 47.7826 81.931 47.4972C81.8777 47.2118 81.7393 46.9492 81.534 46.7439L76.6213 41.8293C76.4158 41.6242 76.1531 41.4861 75.8676 41.4332C75.5822 41.3803 75.2874 41.4151 75.0221 41.533L71.5307 43.0837C69.8221 42.1044 67.9955 41.3472 66.0952 40.8304L64.7244 37.2688C64.6204 36.9975 64.4366 36.7642 64.1973 36.5997C63.9579 36.4351 63.6742 36.3471 63.3837 36.3472L61.3479 36.347V11.3868C61.3479 8.3932 58.2914 5.83805 52.5124 3.99805C47.3241 2.34672 40.4531 1.4375 33.1658 1.4375C25.8784 1.43732 19.0077 2.34672 13.8193 3.99805C8.03942 5.83805 4.98438 8.3932 4.98438 11.3868V63.2823C4.98438 66.2775 8.03942 68.8329 13.8191 70.6711C19.0074 72.3224 25.8781 73.2334 33.1657 73.2334C34.9489 73.232 36.7317 73.175 38.5114 73.0627C38.8201 73.749 39.1618 74.4212 39.5372 75.077L37.9876 78.5666C37.8697 78.8319 37.8349 79.1268 37.888 79.4123C37.9411 79.6978 38.0794 79.9605 38.2848 80.1658L43.198 85.0802C43.4035 85.2854 43.6664 85.4235 43.952 85.4765C44.2376 85.5294 44.5325 85.4946 44.7979 85.3767L48.2882 83.8258C49.9973 84.8041 51.8238 85.5613 53.7237 86.0793L55.0947 89.6405C55.1986 89.9118 55.3823 90.1452 55.6217 90.3098C55.861 90.4744 56.1447 90.5624 56.4352 90.5623H63.3837C63.9785 90.5623 64.5121 90.1958 64.726 89.6405L66.0952 86.0807C67.9956 85.5624 69.8226 84.8053 71.5325 83.8275L75.0203 85.3762C75.2858 85.4946 75.581 85.5296 75.8668 85.4767C76.1527 85.4238 76.4157 85.2855 76.6213 85.0799L81.534 80.1654C81.9544 79.745 82.073 79.1089 81.8322 78.5662L80.2815 75.0765C81.2608 73.3623 82.0155 71.5404 82.5346 69.6411L86.096 68.2699C86.3673 68.1655 86.6005 67.9814 86.7651 67.7418C86.9296 67.5023 87.0177 67.2185 87.0178 66.9278V59.9811C87.0178 59.6905 86.9297 59.4068 86.7652 59.1672C86.6006 58.9277 86.3674 58.7436 86.0962 58.6392ZM14.7587 62.9821C15.872 62.9823 16.7776 62.0765 16.7776 60.9626C16.7776 59.8503 15.872 58.9429 14.7587 58.9429C13.6455 58.9429 12.7397 59.8501 12.7397 60.9626C12.7395 62.0766 13.6455 62.9821 14.7587 62.9821ZM14.7587 56.0679C12.0603 56.0679 9.86469 58.2637 9.86469 60.9626C9.86469 63.6613 12.0603 65.8573 14.7587 65.8573C17.4574 65.8571 19.6526 63.6615 19.6526 60.9626C19.6526 58.2637 17.4572 56.0679 14.7587 56.0679ZM14.7587 41.4683C13.6455 41.4683 12.7397 42.3739 12.7397 43.4862C12.7397 44.6002 13.6455 45.5059 14.7587 45.5059C15.872 45.5059 16.7776 44.6002 16.7776 43.4862C16.7774 42.3739 15.872 41.4683 14.7587 41.4683ZM14.7587 48.3807C17.4574 48.3807 19.6526 46.1851 19.6526 43.4862C19.6526 40.7873 17.4574 38.5933 14.7587 38.5933C12.0603 38.5931 9.86469 40.7873 9.86469 43.4862C9.86451 46.1851 12.0601 48.3809 14.7587 48.3807ZM14.7587 23.9917C15.872 23.9917 16.7776 24.8975 16.7776 26.0098C16.7776 27.1238 15.872 28.0295 14.7587 28.0295C13.6455 28.0295 12.7397 27.1238 12.7397 26.0098C12.7397 24.8973 13.6453 23.9919 14.7587 23.9917ZM14.7587 30.9045C12.0603 30.9045 9.86469 28.7087 9.86469 26.0098C9.86469 23.3109 12.0603 21.1169 14.7587 21.1169C17.4574 21.1169 19.6526 23.3107 19.6526 26.0098C19.6526 28.7087 17.4572 30.9045 14.7587 30.9045Z" fill="#FF9700"/>
</svg>