<svg xmlns="http://www.w3.org/2000/svg" width="92" height="92" viewBox="0 0 92 92" fill="none">
  <path d="M54.1267 79.6185H87.4955C88.9862 79.6185 90.1961 78.4087 90.1961 76.9179V15.0821C90.1961 13.5895 88.9862 12.3815 87.4955 12.3815H4.49746C3.00674 12.3815 1.79688 13.5895 1.79688 15.0821V76.9179C1.79688 78.4087 3.00674 79.6185 4.49746 79.6185H37.926M2.36706 25.345H89.6259" stroke="#FF9700" stroke-width="2.38748" stroke-miterlimit="10" stroke-linecap="round" stroke-linejoin="round"/>
  <path d="M49.8438 39.8304C60.3539 41.6521 68.3462 50.8177 68.3462 61.851M73.134 39.4995H49.8438M42.1496 39.4995H18.8594" stroke="#FF9700" stroke-width="2.38748" stroke-miterlimit="10" stroke-linecap="round" stroke-linejoin="round"/>
  <path d="M23.6479 70.3194C25.7725 70.3194 27.4949 68.597 27.4949 66.4723C27.4949 64.3476 25.7725 62.6252 23.6479 62.6252C21.5232 62.6252 19.8008 64.3476 19.8008 66.4723C19.8008 68.597 21.5232 70.3194 23.6479 70.3194Z" stroke="#FF9700" stroke-width="2.38748" stroke-miterlimit="10" stroke-linecap="round" stroke-linejoin="round"/>
  <path d="M68.3471 70.3194C70.4718 70.3194 72.1942 68.597 72.1942 66.4723C72.1942 64.3476 70.4718 62.6252 68.3471 62.6252C66.2224 62.6252 64.5 64.3476 64.5 66.4723C64.5 68.597 66.2224 70.3194 68.3471 70.3194Z" stroke="#FF9700" stroke-width="2.38748" stroke-miterlimit="10" stroke-linecap="round" stroke-linejoin="round"/>
  <path d="M41.1867 62.7093L39.2631 56.276L45.9955 43.347L52.7279 56.276L50.8044 62.7093M41.1867 62.7093H50.8044M41.1867 62.7093V70.2346H50.8044V62.7093M23.646 61.8509C23.646 50.8175 31.6383 41.6517 42.1484 39.8303M48.9424 43.347H43.0486C42.8099 43.347 42.5809 43.2521 42.4121 43.0833C42.2433 42.9145 42.1484 42.6855 42.1484 42.4468V36.553C42.1484 36.3143 42.2433 36.0853 42.4121 35.9165C42.5809 35.7477 42.8099 35.6528 43.0486 35.6528H48.9424C49.1811 35.6528 49.4101 35.7477 49.5789 35.9165C49.7477 36.0853 49.8426 36.3143 49.8426 36.553V42.4468C49.8426 42.6855 49.7477 42.9145 49.5789 43.0833C49.4101 43.2521 49.1811 43.347 48.9424 43.347ZM17.958 43.347H12.0643C11.8255 43.347 11.5965 43.2521 11.4277 43.0833C11.2589 42.9145 11.1641 42.6855 11.1641 42.4468V36.553C11.1641 36.3143 11.2589 36.0853 11.4277 35.9165C11.5965 35.7477 11.8255 35.6528 12.0643 35.6528H17.958C18.1968 35.6528 18.4257 35.7477 18.5946 35.9165C18.7634 36.0853 18.8582 36.3143 18.8582 36.553V42.4468C18.8582 42.6855 18.7634 42.9145 18.5946 43.0833C18.4257 43.2521 18.1968 43.347 17.958 43.347ZM79.9268 43.347H74.033C73.7943 43.347 73.5653 43.2521 73.3965 43.0833C73.2277 42.9145 73.1328 42.6855 73.1328 42.4468V36.553C73.1328 36.3143 73.2277 36.0853 73.3965 35.9165C73.5653 35.7477 73.7943 35.6528 74.033 35.6528H79.9268C80.1655 35.6528 80.3945 35.7477 80.5633 35.9165C80.7321 36.0853 80.827 36.3143 80.827 36.553V42.4468C80.827 42.6855 80.7321 42.9145 80.5633 43.0833C80.3945 43.2521 80.1655 43.347 79.9268 43.347Z" stroke="#FF9700" stroke-width="2.38748" stroke-miterlimit="10" stroke-linecap="round" stroke-linejoin="round"/>
</svg>