<svg width="92" height="92" viewBox="0 0 92 92" fill="none" xmlns="http://www.w3.org/2000/svg">
  <path d="M86.25 15.8125H5.75C5.36875 15.8125 5.00312 15.964 4.73353 16.2335C4.46395 16.5031 4.3125 16.8688 4.3125 17.25V74.75C4.3125 75.1312 4.46395 75.4969 4.73353 75.7665C5.00312 76.036 5.36875 76.1875 5.75 76.1875H41.6875V79.1919H17.25C16.8688 79.1919 16.5031 79.3433 16.2335 79.6129C15.964 79.8825 15.8125 80.2481 15.8125 80.6294V86.25C15.8125 86.6312 15.964 86.9969 16.2335 87.2665C16.5031 87.536 16.8688 87.6875 17.25 87.6875H74.75C75.1312 87.6875 75.4969 87.536 75.7665 87.2665C76.036 86.9969 76.1875 86.6312 76.1875 86.25V80.6294C76.1875 80.2481 76.036 79.8825 75.7665 79.6129C75.4969 79.3433 75.1312 79.1919 74.75 79.1919H50.3125V76.1875H86.25C86.6312 76.1875 86.9969 76.036 87.2665 75.7665C87.536 75.4969 87.6875 75.1312 87.6875 74.75V17.25C87.6875 16.8688 87.536 16.5031 87.2665 16.2335C86.9969 15.964 86.6312 15.8125 86.25 15.8125ZM7.1875 18.6875H84.8125V65.4925H7.1875V18.6875ZM73.3125 84.8125H18.6875V82.0669H73.3125V84.8125ZM47.4375 79.1919H44.5625V76.1875H47.4375V79.1919ZM84.8125 73.3125H7.1875V68.3675H84.8125V73.3125Z" fill="#FF9700"/>
  <path d="M63.2494 50.4275C62.1948 50.4286 61.1686 50.7688 60.3222 51.3978C59.4757 52.0268 58.854 52.9112 58.5487 53.9206H40.2494C39.9278 52.8606 39.2596 51.9393 38.3519 51.3044L39.2862 48.4294H60.0869C60.4114 48.4405 60.7301 48.3414 60.9912 48.1483C61.2522 47.9551 61.4401 47.6792 61.5244 47.3656L65.5494 32.8181C65.6107 32.6001 65.6196 32.3706 65.5754 32.1484C65.5312 31.9263 65.4351 31.7177 65.2949 31.5397C65.1548 31.3617 64.9746 31.2194 64.769 31.1243C64.5634 31.0292 64.3382 30.9841 64.1119 30.9925H39.6744C39.2931 30.9925 38.9275 31.144 38.6579 31.4135C38.3883 31.6831 38.2369 32.0488 38.2369 32.43C38.2369 32.8113 38.3883 33.1769 38.6579 33.4465C38.9275 33.7161 39.2931 33.8675 39.6744 33.8675H62.2144L58.9369 45.5113H39.3869L34.0825 26.2919C33.9983 25.9783 33.8103 25.7024 33.5493 25.5093C33.2883 25.3161 32.9695 25.217 32.645 25.2281H25.3281C24.9469 25.2281 24.5812 25.3796 24.3117 25.6492C24.0421 25.9188 23.8906 26.2844 23.8906 26.6656C23.8906 27.0469 24.0421 27.4125 24.3117 27.6821C24.5812 27.9517 24.9469 28.1031 25.3281 28.1031H31.6244L36.7994 46.9056L35.6637 50.4275C34.7413 50.3996 33.8294 50.6304 33.0313 51.0938C32.2332 51.5572 31.5807 52.2347 31.1476 53.0497C30.7145 53.8646 30.5181 54.7845 30.5806 55.7053C30.6432 56.6261 30.9621 57.511 31.5014 58.2599C32.0407 59.0088 32.7788 59.5919 33.6322 59.9431C34.4857 60.2944 35.4204 60.3998 36.3306 60.2474C37.2408 60.0951 38.0903 59.691 38.7828 59.081C39.4753 58.471 39.9834 57.6794 40.2494 56.7956H58.4769C58.7425 57.6668 59.2441 58.4474 59.9263 59.0508C60.6084 59.6543 61.4444 60.057 62.3415 60.2143C63.2385 60.3716 64.1616 60.2774 65.0084 59.9421C65.8552 59.6068 66.5926 59.0436 67.1388 58.3148C67.685 57.586 68.0186 56.7201 68.1027 55.8133C68.1869 54.9064 68.0182 53.994 67.6154 53.1771C67.2126 52.3603 66.5914 51.671 65.8208 51.1856C65.0501 50.7003 64.1601 50.4379 63.2494 50.4275ZM35.5919 57.5C35.2895 57.5048 34.9898 57.4433 34.7138 57.3198C34.4378 57.1963 34.1922 57.0139 33.9942 56.7853C33.7963 56.5567 33.6509 56.2875 33.5681 55.9966C33.4854 55.7058 33.4674 55.4004 33.5154 55.1018C33.5634 54.8033 33.6762 54.5188 33.8459 54.2686C34.0156 54.0183 34.238 53.8082 34.4976 53.6532C34.7572 53.4981 35.0476 53.4018 35.3484 53.371C35.6492 53.3402 35.9531 53.3757 36.2387 53.475C36.6548 53.6062 37.0183 53.8663 37.2767 54.2178C37.5352 54.5692 37.6751 54.9938 37.6762 55.43C37.6725 55.9803 37.4512 56.5068 37.0607 56.8946C36.6702 57.2824 36.1422 57.5 35.5919 57.5ZM63.2494 57.5C62.964 57.5239 62.6768 57.4882 62.4059 57.3954C62.135 57.3025 61.8863 57.1545 61.6756 56.9606C61.4648 56.7668 61.2966 56.5313 61.1815 56.269C61.0664 56.0068 61.007 55.7236 61.007 55.4372C61.007 55.1508 61.0664 54.8676 61.1815 54.6054C61.2966 54.3431 61.4648 54.1076 61.6756 53.9138C61.8863 53.7199 62.135 53.5719 62.4059 53.479C62.6768 53.3862 62.964 53.3505 63.2494 53.3744C63.7667 53.4176 64.249 53.6537 64.6005 54.0357C64.9519 54.4178 65.147 54.918 65.147 55.4372C65.147 55.9564 64.9519 56.4566 64.6005 56.8387C64.249 57.2207 63.7667 57.4568 63.2494 57.5Z" fill="#FF9700"/>
</svg>