<svg width="92" height="92" viewBox="0 0 92 92" fill="none" xmlns="http://www.w3.org/2000/svg">
  <path d="M84.1626 7.69885H7.83743C4.40755 7.69885 1.61719 10.4892 1.61719 13.9191V78.0808C1.61719 81.5107 4.40755 84.3011 7.83743 84.3011H84.1626C87.5924 84.3011 90.3828 81.5107 90.3828 78.0808V13.9191C90.3828 10.4892 87.5924 7.69885 84.1626 7.69885ZM7.83743 10.2145H84.1626C86.2053 10.2145 87.8672 11.8764 87.8672 13.9191V23.0312H4.13281V13.9191C4.13281 11.8764 5.79474 10.2145 7.83743 10.2145ZM84.1626 81.7854H7.83743C5.79474 81.7854 4.13281 80.1235 4.13281 78.0808V25.5469H87.8672V78.0808C87.8672 80.1235 86.2053 81.7854 84.1626 81.7854ZM10.6044 16.6229C10.6044 15.6547 11.3893 14.8698 12.3575 14.8698C13.3256 14.8698 14.1105 15.6547 14.1105 16.6229C14.1105 17.591 13.3256 18.3759 12.3575 18.3759C11.3893 18.3759 10.6044 17.591 10.6044 16.6229ZM24.5081 16.6229C24.5081 15.6547 25.293 14.8698 26.2611 14.8698C27.2293 14.8698 28.0142 15.6547 28.0142 16.6229C28.0142 17.591 27.2293 18.3759 26.2611 18.3759C25.293 18.3759 24.5081 17.591 24.5081 16.6229ZM17.5564 16.6229C17.5564 15.6547 18.3412 14.8698 19.3094 14.8698C20.2776 14.8698 21.0624 15.6547 21.0624 16.6229C21.0624 17.591 20.2776 18.3759 19.3094 18.3759C18.3412 18.3759 17.5564 17.591 17.5564 16.6229ZM11.4603 41.6391C11.2244 41.4032 11.0919 41.0833 11.0919 40.7498C11.0919 40.4162 11.2244 40.0963 11.4603 39.8604L16.8028 34.5177C17.0386 34.2819 17.3586 34.1493 17.6921 34.1493C18.0257 34.1493 18.3457 34.2818 18.5816 34.5177C18.8175 34.7535 18.95 35.0735 18.95 35.4071C18.95 35.7406 18.8175 36.0606 18.5817 36.2965L14.1285 40.7497L18.5817 45.2029C18.8175 45.4388 18.95 45.7587 18.95 46.0923C18.95 46.4259 18.8175 46.7458 18.5816 46.9817C18.3457 47.2176 18.0257 47.3501 17.6921 47.35C17.3586 47.35 17.0386 47.2175 16.8028 46.9816L11.4603 41.6391ZM26.7373 45.2029L31.1907 40.7497L26.7375 36.2965C26.618 36.1803 26.5227 36.0415 26.4573 35.8882C26.3919 35.7349 26.3576 35.5702 26.3564 35.4035C26.3552 35.2368 26.3871 35.0716 26.4504 34.9173C26.5136 34.7631 26.6069 34.623 26.7247 34.5051C26.8426 34.3873 26.9827 34.294 27.1369 34.2308C27.2911 34.1675 27.4563 34.1356 27.623 34.1367C27.7897 34.1379 27.9545 34.1722 28.1078 34.2376C28.2611 34.303 28.3999 34.3982 28.516 34.5177L33.8587 39.8602C33.9755 39.977 34.0682 40.1157 34.1314 40.2683C34.1946 40.4209 34.2271 40.5845 34.2271 40.7497C34.2271 40.9149 34.1946 41.0784 34.1314 41.231C34.0682 41.3837 33.9755 41.5223 33.8587 41.6391L28.516 46.9818C28.3994 47.0987 28.2608 47.1915 28.1082 47.2547C27.9556 47.3179 27.792 47.3504 27.6268 47.3501C27.378 47.3502 27.1348 47.2764 26.9279 47.1382C26.7211 47 26.5598 46.8035 26.4646 46.5737C26.3694 46.3438 26.3445 46.0909 26.393 45.8469C26.4416 45.6029 26.5614 45.3788 26.7373 45.2029ZM20.136 45.5698L22.7454 35.3095C22.8331 34.9922 23.0417 34.722 23.3264 34.5567C23.611 34.3915 23.9491 34.3444 24.2681 34.4255C24.5871 34.5066 24.8616 34.7096 25.0328 34.9907C25.2039 35.2719 25.258 35.6089 25.1836 35.9296L22.5741 46.1899C22.4918 46.5131 22.2845 46.7904 21.9978 46.9608C21.7111 47.1312 21.3685 47.1809 21.0452 47.0989C20.8851 47.0582 20.7345 46.9864 20.6022 46.8875C20.4698 46.7887 20.3583 46.6647 20.2738 46.5227C20.1894 46.3807 20.1338 46.2235 20.1101 46.06C20.0864 45.8965 20.0952 45.7299 20.136 45.5698ZM80.2281 54.6528C80.2281 54.9864 80.0956 55.3063 79.8597 55.5422C79.6238 55.7781 79.3039 55.9106 78.9703 55.9106H12.3497C12.0161 55.9106 11.6962 55.7781 11.4603 55.5422C11.2244 55.3063 11.0919 54.9864 11.0919 54.6528C11.0919 54.3192 11.2244 53.9993 11.4603 53.7634C11.6962 53.5275 12.0161 53.395 12.3497 53.395H78.9703C79.3039 53.395 79.6238 53.5275 79.8597 53.7634C80.0956 53.9993 80.2281 54.3192 80.2281 54.6528ZM80.2281 63.2135C80.2281 63.5471 80.0956 63.867 79.8597 64.1029C79.6238 64.3388 79.3039 64.4713 78.9703 64.4713H12.3497C12.0161 64.4713 11.6962 64.3388 11.4603 64.1029C11.2244 63.867 11.0919 63.5471 11.0919 63.2135C11.0919 62.8799 11.2244 62.56 11.4603 62.3241C11.6962 62.0882 12.0161 61.9557 12.3497 61.9557H78.9703C79.3039 61.9557 79.6238 62.0882 79.8597 62.3241C80.0956 62.56 80.2281 62.8799 80.2281 63.2135ZM80.2281 71.7742C80.2281 72.1077 80.0956 72.4277 79.8597 72.6636C79.6238 72.8994 79.3039 73.032 78.9703 73.032H12.3497C12.0161 73.032 11.6962 72.8994 11.4603 72.6636C11.2244 72.4277 11.0919 72.1077 11.0919 71.7742C11.0919 71.4406 11.2244 71.1206 11.4603 70.8848C11.6962 70.6489 12.0161 70.5163 12.3497 70.5163H78.9703C79.3039 70.5163 79.6238 70.6489 79.8597 70.8848C80.0956 71.1206 80.2281 71.4406 80.2281 71.7742ZM80.2281 46.0921C80.2281 46.4257 80.0956 46.7457 79.8597 46.9815C79.6238 47.2174 79.3039 47.35 78.9703 47.35H38.8693C38.5357 47.35 38.2158 47.2174 37.9799 46.9815C37.744 46.7457 37.6115 46.4257 37.6115 46.0921C37.6115 45.7585 37.744 45.4386 37.9799 45.2027C38.2158 44.9669 38.5357 44.8343 38.8693 44.8343H78.9703C79.3039 44.8343 79.6238 44.9669 79.8597 45.2027C80.0956 45.4386 80.2281 45.7585 80.2281 46.0921Z" fill="#FF9700"/>
</svg>