<svg width="92" height="92" viewBox="0 0 92 92" fill="none" xmlns="http://www.w3.org/2000/svg">
  <g clip-path="url(#clip0_2006_1261)">
    <path fill-rule="evenodd" clip-rule="evenodd" d="M53.8251 60.7434C53.7317 60.7434 53.6382 60.7326 53.5448 60.7075C52.9698 60.5529 52.6284 59.9618 52.7811 59.3868L61.4816 26.9172C61.5557 26.6411 61.7365 26.4056 61.9841 26.2628C62.2318 26.1199 62.5261 26.0812 62.8023 26.1554C63.0784 26.2295 63.3139 26.4102 63.4567 26.6579C63.5996 26.9056 63.6383 27.1999 63.5642 27.4761L54.8655 59.9456C54.8038 60.1744 54.6685 60.3765 54.4804 60.5207C54.2924 60.6649 54.0621 60.7432 53.8251 60.7434ZM85.2435 76.024H62.8526V81.704H67.9917C70.669 81.704 72.8468 83.88 72.8468 86.5573V90.3325C72.845 90.9291 72.3634 91.4107 71.7669 91.4107H45.1138C44.5191 91.4107 44.0357 90.9291 44.0357 90.3325V86.5573C44.0357 83.88 46.2135 81.704 48.8909 81.704H54.0299V76.024H31.6409C27.9142 76.024 24.8846 72.9927 24.8846 69.2678V33.8262L23.6232 32.7068C23.0949 32.8811 22.5577 33.023 22.0132 33.1326L20.3134 38.6454C20.2372 38.8903 20.0764 39.1 19.8599 39.2373C19.6433 39.3745 19.385 39.4304 19.131 39.3947L14.6694 38.7622C14.4232 38.7274 14.1966 38.6086 14.028 38.4258C13.8594 38.2431 13.759 38.0078 13.744 37.7596L13.4008 31.9647C12.9048 31.7147 12.4248 31.4345 11.9633 31.1255L6.86197 33.8226C6.63508 33.9419 6.3732 33.9766 6.12306 33.9207C5.87292 33.8647 5.6508 33.7217 5.49635 33.5172L2.78846 29.9162C2.63857 29.7175 2.56221 29.473 2.57236 29.2243C2.58252 28.9757 2.67857 28.7382 2.84416 28.5524L6.69846 24.2111C6.52416 23.6829 6.38221 23.1456 6.2726 22.6011L0.761581 20.9013C0.516336 20.8256 0.306065 20.665 0.168436 20.4484C0.030807 20.2317 -0.0251862 19.9731 0.0104872 19.7189L0.642987 15.2573C0.714862 14.7506 1.13353 14.3625 1.64564 14.3337L7.44057 13.9887C7.69033 13.4946 7.97064 13.013 8.27971 12.5512L5.5826 7.44989C5.33642 6.9809 5.464 6.40231 5.88807 6.08426L9.489 3.37637C9.6877 3.22649 9.9322 3.15012 10.1809 3.16028C10.4296 3.17043 10.667 3.26649 10.8528 3.43207L15.1941 7.28817C15.7212 7.11245 16.259 6.97021 16.8041 6.86231L18.5039 1.3495C18.6603 0.842777 19.1616 0.526527 19.6863 0.598402L24.1461 1.2309C24.6546 1.30278 25.041 1.72145 25.0715 2.23356L25.4165 8.02848C25.9106 8.27825 26.3922 8.55856 26.854 8.86762L31.9553 6.17231C32.1819 6.05235 32.4438 6.01703 32.6941 6.07268C32.9443 6.12833 33.1666 6.27131 33.321 6.47598L36.0288 10.0769C36.1787 10.2756 36.2551 10.5201 36.2449 10.7688C36.2348 11.0175 36.1387 11.2549 35.9731 11.4407L32.1188 15.782C32.2931 16.3102 32.4353 16.8484 32.5447 17.3938L38.0557 19.0918C38.5624 19.2482 38.8805 19.7495 38.8068 20.2742L38.7116 20.9462H85.2435C88.9684 20.9462 91.9997 23.9775 91.9997 27.7025V69.2678C91.9997 72.9927 88.9684 76.024 85.2435 76.024ZM27.0409 35.7417V63.7604H89.8435V27.7025C89.8435 25.1653 87.7788 23.1025 85.2435 23.1025H38.4061L38.1743 24.7358C38.1395 24.982 38.0206 25.2086 37.8379 25.3772C37.6552 25.5459 37.4198 25.6462 37.1717 25.6612L31.3767 26.0044C31.1272 26.5006 30.847 26.9807 30.5376 27.4419L33.2347 32.5432C33.4809 33.0122 33.3515 33.5908 32.9292 33.9089L29.3283 36.6168C29.1296 36.7666 28.8851 36.843 28.6364 36.8329C28.3877 36.8227 28.1503 36.7266 27.9645 36.5611L27.0409 35.7417ZM27.0409 65.9166V69.2678C27.0409 71.8032 29.1037 73.8678 31.6409 73.8678H85.2435C87.7788 73.8678 89.8435 71.8032 89.8435 69.2678V65.9166H27.0409ZM61.7745 83.8602H48.8909C47.4031 83.8602 46.192 85.0695 46.192 86.5573V89.2544H70.6888V86.5573C70.6888 85.0695 69.4795 83.8602 67.9917 83.8602H61.7888H61.7745ZM60.6963 81.704V76.024H56.1862V81.704H60.6963ZM15.8446 36.7515L18.5237 37.1307L20.1463 31.864C20.2067 31.6691 20.3212 31.4952 20.4764 31.3626C20.6315 31.23 20.8211 31.144 21.0231 31.1147C21.8587 30.9943 22.6817 30.7769 23.4687 30.4697C23.846 30.3241 24.2737 30.4014 24.5756 30.6691L26.6635 32.5235L26.6671 32.5271L26.6869 32.5432L26.6905 32.5486L28.7371 34.3635L30.897 32.7391L28.3221 27.8642C28.2263 27.6841 28.1839 27.4804 28.1998 27.277C28.2157 27.0736 28.2893 26.879 28.4119 26.716C28.9186 26.0386 29.3481 25.3036 29.6877 24.531C29.7675 24.3496 29.8957 24.1938 30.0584 24.0806C30.221 23.9674 30.4117 23.9013 30.6095 23.8895L36.1636 23.5607L36.399 21.9004L36.4062 21.8447L36.5428 20.8815L31.2761 19.2589C31.0814 19.1986 30.9077 19.0845 30.7751 18.9296C30.6425 18.7748 30.5564 18.5856 30.5268 18.3839C30.4064 17.5465 30.189 16.7236 29.8817 15.9365C29.7362 15.5592 29.8135 15.1315 30.0812 14.8297L33.7756 10.6699L32.1512 8.50825L27.2763 11.0832C27.0962 11.1787 26.8927 11.2212 26.6894 11.2056C26.4861 11.19 26.2915 11.117 26.1281 10.9951C25.4506 10.4877 24.7175 10.0591 23.9431 9.71754C23.7616 9.63797 23.6056 9.50976 23.4924 9.34708C23.3792 9.18441 23.3131 8.9936 23.3016 8.79575L22.9728 3.24161L20.2936 2.86246L18.6692 8.12911C18.6092 8.32419 18.4952 8.49828 18.3403 8.63121C18.1855 8.76414 17.9961 8.85047 17.7942 8.8802C16.9604 9.00059 16.1374 9.21621 15.3486 9.52348C14.9713 9.66903 14.5436 9.59356 14.2417 9.32403L10.0802 5.62965L7.91853 7.25403L10.4953 12.1289C10.5906 12.3092 10.6327 12.5128 10.6168 12.7161C10.6009 12.9194 10.5276 13.1139 10.4054 13.2772C9.89924 13.9551 9.47127 14.6881 9.12963 15.4622C9.04966 15.6437 8.92111 15.7997 8.75814 15.9129C8.59517 16.0261 8.40412 16.0921 8.20603 16.1036L2.65369 16.4343L2.27455 19.1116L7.54119 20.736C7.73606 20.7961 7.90989 20.9102 8.04252 21.065C8.17515 21.2199 8.26113 21.4093 8.29049 21.6111C8.41088 22.4466 8.6283 23.2696 8.93377 24.0566C9.00585 24.2414 9.02553 24.4426 8.99066 24.6378C8.95579 24.8331 8.86771 25.015 8.73611 25.1635L5.04174 29.325L6.66611 31.4867L11.541 28.91C11.7213 28.8146 11.9249 28.7725 12.1282 28.7884C12.3314 28.8043 12.526 28.8776 12.6892 28.9998C13.3685 29.5065 14.1034 29.936 14.8742 30.2756C15.2444 30.4391 15.4924 30.7949 15.5157 31.1992L15.8446 36.7515ZM19.4078 28.0241H19.3898C14.9623 28.0133 11.3703 24.4034 11.3811 19.9777C11.3919 15.5628 14.9928 11.969 19.4078 11.969H19.4275C23.8532 11.9798 27.4452 15.5897 27.4362 20.0154C27.4254 24.4322 23.8245 28.0241 19.4078 28.0241ZM19.4221 14.1253C16.1788 14.1253 13.5445 16.7541 13.5374 19.9831C13.5302 23.2193 16.1572 25.8607 19.3952 25.8679L19.4095 26.946V25.8679C22.6385 25.8679 25.271 23.2408 25.2799 20.01C25.2871 16.7739 22.6601 14.1343 19.4221 14.1253ZM51.3778 53.0312C51.1585 53.0312 50.9357 52.9647 50.7453 52.8246L39.0458 44.3038C38.9085 44.2036 38.7968 44.0725 38.7197 43.9211C38.6426 43.7697 38.6022 43.6022 38.602 43.4323C38.602 43.0873 38.7673 42.7639 39.0458 42.5608L50.7453 34.0382C51.225 33.6879 51.9006 33.7939 52.251 34.2754C52.6014 34.757 52.4954 35.4308 52.0138 35.7812L41.5111 43.4323L52.0138 51.0816C52.1283 51.1649 52.2253 51.2699 52.2991 51.3906C52.373 51.5114 52.4224 51.6455 52.4444 51.7854C52.4664 51.9252 52.4607 52.068 52.4275 52.2056C52.3943 52.3432 52.3344 52.473 52.251 52.5874C52.1506 52.7248 52.0192 52.8367 51.8675 52.9138C51.7158 52.9909 51.548 53.0311 51.3778 53.0312ZM65.5048 53.0312C65.1724 53.0312 64.8435 52.8767 64.6315 52.5874C64.5482 52.473 64.4882 52.3432 64.455 52.2056C64.4218 52.068 64.4161 51.9252 64.4381 51.7854C64.4601 51.6455 64.5095 51.5114 64.5834 51.3906C64.6573 51.2699 64.7542 51.1649 64.8687 51.0816L75.3714 43.4323L64.8687 35.7812C64.7542 35.6979 64.6573 35.5929 64.5834 35.4722C64.5095 35.3514 64.4601 35.2173 64.4381 35.0775C64.4161 34.9376 64.4218 34.7948 64.455 34.6572C64.4882 34.5196 64.5482 34.3899 64.6315 34.2754C64.8001 34.0442 65.0536 33.8894 65.3362 33.8449C65.6189 33.8005 65.9076 33.87 66.1391 34.0382L77.8385 42.5608C77.9759 42.6608 78.0875 42.7919 78.1644 42.9434C78.2412 43.0949 78.281 43.2624 78.2806 43.4323C78.2806 43.7755 78.1171 44.1007 77.8385 44.302L66.1391 52.8246C65.9546 52.9583 65.7327 53.0306 65.5048 53.0312Z" fill="#FF9700"/>
  </g>
  <defs>
    <clipPath id="clip0_2006_1261">
      <rect width="92" height="92" fill="white"/>
    </clipPath>
  </defs>
</svg>