<svg width="92" height="92" viewBox="0 0 92 92" fill="none" xmlns="http://www.w3.org/2000/svg">
  <g opacity="0.92">
    <path d="M83.2192 24.8121H54.3646C54.504 24.5333 54.6434 24.2545 54.6434 23.9757V18.1212C54.6434 17.4242 54.2252 16.8666 53.5282 16.7273L50.7404 16.1697C50.4616 15.1939 50.0434 14.0788 49.4858 13.103L51.1585 10.7333C51.5767 10.1757 51.4373 9.47877 51.0191 8.92119L46.9767 4.87877C46.5585 4.46059 45.7222 4.32119 45.1646 4.73938L42.7949 6.4121C41.8192 5.85453 40.8434 5.43635 39.7282 5.15756L39.1707 2.36968C39.0313 1.8121 38.4737 1.39392 37.7767 1.39392H32.0616C31.3646 1.39392 30.807 1.8121 30.6676 2.50907L30.1101 5.29695C29.1343 5.57574 28.0192 5.99392 27.0434 6.5515L24.6737 4.87877C24.1161 4.46059 23.4192 4.59998 22.8616 5.01816L18.8192 9.06059C18.401 9.47877 18.2616 10.3151 18.6798 10.8727L20.3525 13.2424C19.7949 14.2182 19.3767 15.1939 19.0979 16.3091L16.3101 16.8666C15.6131 17.006 15.1949 17.5636 15.1949 18.2606V23.9757C15.1949 24.2545 15.3343 24.5333 15.4737 24.8121H8.78279C5.71612 24.8121 3.20703 27.3212 3.20703 30.3879V70.9515C3.20703 74.0182 5.71612 76.5273 8.78279 76.5273H37.3585L29.1343 87.8182H21.3282C20.4919 87.8182 19.9343 88.3757 19.9343 89.2121C19.9343 90.0485 20.4919 90.606 21.3282 90.606H70.8131C71.6495 90.606 72.207 90.0485 72.207 89.2121C72.207 88.3757 71.6495 87.8182 70.8131 87.8182H63.007L54.7828 76.5273H83.3585C86.4252 76.5273 88.9343 74.0182 88.9343 70.9515V30.3879C88.7949 27.3212 86.2858 24.8121 83.2192 24.8121ZM17.9828 19.3757L20.4919 18.9576C21.0495 18.8182 21.4676 18.4 21.607 17.8424C21.8858 16.4485 22.4434 15.1939 23.2798 13.9394C23.5585 13.5212 23.5585 12.8242 23.2798 12.406L21.8858 10.3151L24.2555 7.94544L26.3464 9.33938C26.7646 9.61816 27.4616 9.61816 27.8798 9.33938C29.1343 8.64241 30.3888 8.08483 31.7828 7.66665C32.3404 7.52725 32.7585 7.10907 32.8979 6.5515L33.1767 4.1818H36.6616L37.0798 6.69089C37.2192 7.24847 37.6373 7.66665 38.1949 7.80604C39.5888 8.08483 40.8434 8.64241 42.0979 9.47877C42.5161 9.75756 43.2131 9.75756 43.6313 9.47877L45.7222 8.08483L48.0919 10.4545L46.6979 12.5454C46.4192 12.9636 46.4192 13.6606 46.6979 14.0788C47.3949 15.3333 47.9525 16.5879 48.3707 17.9818C48.5101 18.5394 48.9282 18.9576 49.4858 19.097L51.9949 19.5151V23L49.4858 23.4182C48.9282 23.5576 48.5101 23.9757 48.3707 24.5333L47.9525 25.7879C47.6737 26.6242 47.2555 27.4606 46.6979 28.297C46.4192 28.7151 46.4192 29.4121 46.6979 29.8303L48.0919 31.9212L45.7222 34.2909L43.6313 32.897C43.2131 32.6182 42.5161 32.6182 42.0979 32.897C40.8434 33.5939 39.5888 34.1515 38.1949 34.5697C37.6373 34.7091 37.2192 35.1273 37.0798 35.6848L36.6616 38.1939H33.1767L32.7585 35.6848C32.6192 35.1273 32.201 34.7091 31.6434 34.5697C30.2495 34.2909 28.9949 33.7333 27.7404 32.897C27.3222 32.6182 26.6252 32.6182 26.207 32.897L24.1161 34.2909L21.7464 31.9212L23.1404 29.8303C23.4192 29.4121 23.4192 28.7151 23.1404 28.297C22.4434 27.0424 21.8858 25.7879 21.4676 24.3939C21.3282 23.8363 20.9101 23.4182 20.3525 23.2788L17.8434 22.8606V19.3757H17.9828ZM8.78279 27.6H19.7949C19.9343 28.0182 20.2131 28.4363 20.3525 28.8545L18.6798 31.2242C18.2616 31.7818 18.401 32.4788 18.8192 33.0363L22.8616 37.0788C23.2798 37.497 24.1161 37.6363 24.6737 37.2182L27.0434 35.5454C28.0192 36.103 28.9949 36.5212 30.1101 36.8L30.6676 39.5879C30.807 40.2848 31.3646 40.703 32.0616 40.703H37.7767C38.4737 40.703 39.0313 40.2848 39.1707 39.5879L39.7282 36.8C40.704 36.5212 41.8192 36.103 42.7949 35.5454L45.1646 37.2182C45.7222 37.6363 46.4192 37.497 46.9767 37.0788L51.0191 33.0363C51.4373 32.6182 51.5767 31.7818 51.1585 31.2242L49.4858 28.8545C49.7646 28.4363 49.904 28.0182 50.0434 27.6H83.2192C84.7525 27.6 86.007 28.8545 86.007 30.3879V63.2848H5.99491V30.3879C5.99491 28.8545 7.24946 27.6 8.78279 27.6ZM59.5222 87.8182H32.4798L40.704 76.5273H51.2979L59.5222 87.8182ZM83.2192 73.7394H8.78279C7.24946 73.7394 5.99491 72.4848 5.99491 70.9515V66.0727H86.1464V70.9515C86.007 72.4848 84.7525 73.7394 83.2192 73.7394Z" fill="#FF9700"/>
    <path d="M44.8858 69.1394C44.3282 69.6969 44.3282 70.5333 44.8858 71.0909C45.4434 71.6485 46.2797 71.6485 46.8373 71.0909C47.3949 70.5333 47.3949 69.6969 46.8373 69.1394C46.2797 68.5818 45.4434 68.5818 44.8858 69.1394ZM25.6494 53.3879C27.1828 53.3879 28.4373 52.6909 29.2737 51.5757L34.2919 53.9454V54.3636C34.2919 56.8727 36.3828 58.8242 38.7525 58.8242C41.2616 58.8242 43.2131 56.7333 43.2131 54.3636C43.2131 53.806 43.0737 53.2485 42.9343 52.6909L47.1161 49.3454C47.8131 49.903 48.7888 50.3212 49.7646 50.3212C50.8797 50.3212 51.8555 49.903 52.5525 49.3454L56.0373 52.4121C55.8979 52.8303 55.7585 53.2485 55.7585 53.806C55.7585 56.3151 57.8494 58.2666 60.2191 58.2666C62.7282 58.2666 64.6797 56.1757 64.6797 53.806C64.6797 52.6909 64.2616 51.7151 63.5646 50.8788C64.2616 49.3454 65.0979 47.6727 65.9343 46.1394L67.0494 43.7697H67.7464C70.2555 43.7697 72.207 41.6788 72.207 39.3091C72.207 36.8 70.1161 34.8485 67.7464 34.8485C65.2373 34.8485 63.2858 36.9394 63.2858 39.3091C63.2858 40.5636 63.8434 41.6788 64.6797 42.5151L63.5646 44.8848C62.8676 46.4182 62.0312 47.9515 61.3343 49.3454C60.9161 49.206 60.6373 49.206 60.2191 49.206C59.2434 49.206 58.2676 49.4848 57.5706 50.0424L54.0858 46.9757C54.2252 46.5576 54.2252 46.2788 54.2252 45.8606C54.2252 43.3515 52.1343 41.4 49.7646 41.4C47.2555 41.4 45.304 43.4909 45.304 45.8606C45.304 46.2788 45.4434 46.6969 45.5828 47.1151L41.2616 50.6C40.5646 50.1818 39.7282 49.903 38.8919 49.903C37.4979 49.903 36.3828 50.4606 35.5464 51.4363L30.3888 49.0666V48.9272C30.3888 46.4182 28.2979 44.4666 25.9282 44.4666C23.4191 44.4666 21.4676 46.5575 21.4676 48.9272C21.0494 51.2969 23.1403 53.3879 25.6494 53.3879ZM67.8858 37.3576C68.8616 37.3576 69.5585 38.1939 69.5585 39.0303C69.5585 40.006 68.7222 40.703 67.8858 40.703C66.91 40.703 66.2131 39.8666 66.2131 39.0303C66.2131 38.1939 66.91 37.3576 67.8858 37.3576ZM60.3585 51.8545C61.3343 51.8545 62.0312 52.6909 62.0312 53.5273C62.0312 54.503 61.1949 55.2 60.3585 55.2C59.5222 55.2 58.5464 54.503 58.5464 53.5273C58.5464 52.6909 59.3828 51.8545 60.3585 51.8545ZM49.7646 43.9091C50.7403 43.9091 51.4373 44.7454 51.4373 45.5818C51.4373 46.5576 50.6009 47.2545 49.7646 47.2545C48.7888 47.2545 48.0919 46.4182 48.0919 45.5818C48.0919 44.7454 48.7888 43.9091 49.7646 43.9091ZM38.7525 52.5515C39.7282 52.5515 40.4252 53.3879 40.4252 54.2242C40.4252 55.2 39.5888 55.8969 38.7525 55.8969C37.7767 55.8969 37.0797 55.0606 37.0797 54.2242C37.0797 53.9454 37.0797 53.806 37.2191 53.5273C37.3585 52.9697 37.9161 52.5515 38.7525 52.5515ZM25.6494 47.1151C26.6252 47.1151 27.3222 47.9515 27.3222 48.7879C27.3222 49.6242 26.4858 50.4606 25.6494 50.4606C24.6737 50.4606 23.9767 49.6242 23.9767 48.7879C23.9767 47.9515 24.6737 47.1151 25.6494 47.1151ZM34.8494 30.9454C40.2858 30.9454 44.7464 26.4848 44.7464 21.0485C44.7464 15.6121 40.4252 11.1515 34.8494 11.1515C29.4131 11.1515 24.9525 15.6121 24.9525 21.0485C24.9525 26.4848 29.4131 30.9454 34.8494 30.9454ZM34.8494 13.9394C38.7525 13.9394 41.9585 17.1454 41.9585 21.0485C41.9585 24.9515 38.7525 28.1576 34.8494 28.1576C30.9464 28.1576 27.7403 24.9515 27.7403 21.0485C27.7403 17.1454 30.9464 13.9394 34.8494 13.9394Z" fill="#FF9700"/>
  </g>
</svg>