<svg id="Layer_1" data-name="Layer 1" xmlns="http://www.w3.org/2000/svg" xmlns:xlink="http://www.w3.org/1999/xlink" viewBox="0 0 1687.87 1065.68"><defs><style>.cls-1{fill:url(#linear-gradient);}</style><linearGradient id="linear-gradient" x1="0.09" y1="533.03" x2="1687.96" y2="533.03" gradientUnits="userSpaceOnUse"><stop offset="0" stop-color="#ff9700"/><stop offset="0.2" stop-color="#fd9600"/><stop offset="0.27" stop-color="#f69200"/><stop offset="0.3" stop-color="#f28f00"/><stop offset="0.67" stop-color="#d47702"/><stop offset="1" stop-color="#d96900"/></linearGradient></defs><path class="cls-1" d="M.09,1065.88V.19H1686.37s28.74,145.53-158,167.79c0,0-52.34,10.88-176-11,0,0-83.06-15.07-155,1,0,0-65,11.38-127,55,0,0-48.51,27.93-97,115,0,0-46.9,91.28-61,116,0,0-35,60.8-56,78,0,0-36.76,36.43-81,49a440.87,440.87,0,0,1-72,16s-80.18,8.5-122,28c0,0-82,28.83-139,108,0,0-39.45,45.65-62,134,0,0-24.27,64.36-50,91,0,0-32,53.46-125,94,0,0-52.32,20.12-105,20Z" transform="translate(-0.09 -0.19)"/></svg>