<svg xmlns="http://www.w3.org/2000/svg" width="393" height="150" viewBox="0 0 393 150">
  <g id="Group_1" data-name="Group 1" transform="translate(-359 -349)">
    <g id="Path_1" data-name="Path 1" transform="translate(359 349)" fill="#ff9700">
      <path d="M 75 149.5 C 64.94233703613281 149.5 55.18579864501953 147.5303039550781 46.00138092041016 143.6456146240234 C 41.58705902099609 141.7785186767578 37.32941818237305 139.4675445556641 33.3466796875 136.77685546875 C 29.40167999267578 134.1116638183594 25.69194030761719 131.0508575439453 22.3205394744873 127.679443359375 C 18.94914054870605 124.3080368041992 15.88833999633789 120.5983200073242 13.22313976287842 116.6532974243164 C 10.53246021270752 112.6705780029297 8.221480369567871 108.4129180908203 6.354380130767822 103.9985961914063 C 2.46970009803772 94.81420135498047 0.5 85.05766296386719 0.5 75 C 0.5 64.94233703613281 2.46970009803772 55.18579864501953 6.354380130767822 46.00138092041016 C 8.221480369567871 41.58705902099609 10.53246021270752 37.32941818237305 13.22313976287842 33.3466796875 C 15.88833999633789 29.40167999267578 18.94914054870605 25.69194030761719 22.3205394744873 22.3205394744873 C 25.69194030761719 18.94914054870605 29.40167999267578 15.88833999633789 33.3466796875 13.22313976287842 C 37.32941818237305 10.53246021270752 41.58705902099609 8.221480369567871 46.00138092041016 6.354380130767822 C 55.18579864501953 2.46970009803772 64.94233703613281 0.5 75 0.5 C 85.05766296386719 0.5 94.81420135498047 2.46970009803772 103.9986190795898 6.354380130767822 C 108.4129409790039 8.221480369567871 112.6705780029297 10.53246021270752 116.6533203125 13.22313976287842 C 120.5983200073242 15.88833999633789 124.3080596923828 18.94914054870605 127.6794586181641 22.3205394744873 C 131.0508575439453 25.69194030761719 134.1116638183594 29.40167999267578 136.77685546875 33.3466796875 C 139.4675445556641 37.32941818237305 141.7785186767578 41.58705902099609 143.6456146240234 46.00138092041016 C 147.5303039550781 55.18579864501953 149.5 64.94233703613281 149.5 75 C 149.5 85.05766296386719 147.5303039550781 94.81420135498047 143.6456146240234 103.9985961914063 C 141.7785186767578 108.4129180908203 139.4675445556641 112.6705780029297 136.77685546875 116.6532974243164 C 134.1116638183594 120.5983200073242 131.0508575439453 124.3080368041992 127.6794586181641 127.679443359375 C 124.3080596923828 131.0508575439453 120.5983200073242 134.1116638183594 116.6533203125 136.77685546875 C 112.6705780029297 139.4675445556641 108.4129409790039 141.7785186767578 103.9986190795898 143.6456146240234 C 94.81420135498047 147.5303039550781 85.05766296386719 149.5 75 149.5 Z" stroke="none"/>
      <path d="M 75 1 C 65.00962066650391 1 55.31861877441406 2.956405639648438 46.19615936279297 6.81488037109375 C 41.81157684326172 8.669403076171875 37.58255767822266 10.96484375 33.62660217285156 13.63743591308594 C 29.70793914794922 16.28482055664063 26.02300262451172 19.3251953125 22.67410278320313 22.67410278320313 C 19.3251953125 26.02300262451172 16.28482055664063 29.70793914794922 13.63743591308594 33.62660217285156 C 10.96484375 37.58255767822266 8.669403076171875 41.81157684326172 6.81488037109375 46.19615936279297 C 2.956405639648438 55.31861877441406 1 65.00962066650391 1 75 C 1 84.99037933349609 2.956405639648438 94.68138122558594 6.81488037109375 103.8038177490234 C 8.669403076171875 108.1884155273438 10.96484375 112.4174194335938 13.63743591308594 116.3733978271484 C 16.28482055664063 120.2920379638672 19.3251953125 123.9769973754883 22.67410278320313 127.3258972167969 C 26.02300262451172 130.6748046875 29.70793914794922 133.7151641845703 33.62660217285156 136.3625640869141 C 37.58255767822266 139.03515625 41.81157684326172 141.3305969238281 46.19615936279297 143.1851196289063 C 55.31861877441406 147.0435943603516 65.00962066650391 149 75 149 C 84.99037933349609 149 94.68138122558594 147.0435943603516 103.803840637207 143.1851196289063 C 108.1884155273438 141.3305969238281 112.4174346923828 139.03515625 116.3733978271484 136.3625640869141 C 120.2920608520508 133.7151641845703 123.9769973754883 130.6748046875 127.3258972167969 127.3258972167969 C 130.6748046875 123.9769973754883 133.7151794433594 120.2920379638672 136.3625640869141 116.3733978271484 C 139.03515625 112.4174194335938 141.3305969238281 108.1884155273438 143.1851196289063 103.8038177490234 C 147.0435943603516 94.68138122558594 149 84.99037933349609 149 75 C 149 65.00962066650391 147.0435943603516 55.31861877441406 143.1851196289063 46.19615936279297 C 141.3305969238281 41.81157684326172 139.03515625 37.58255767822266 136.3625640869141 33.62660217285156 C 133.7151794433594 29.70793914794922 130.6748046875 26.02300262451172 127.3258972167969 22.67410278320313 C 123.9769973754883 19.3251953125 120.2920608520508 16.28482055664063 116.3733978271484 13.63743591308594 C 112.4174346923828 10.96484375 108.1884155273438 8.669403076171875 103.803840637207 6.81488037109375 C 94.68138122558594 2.956405639648438 84.99037933349609 1 75 1 M 75 0 C 116.4213562011719 0 150 33.57864379882813 150 75 C 150 116.4213409423828 116.4213562011719 150 75 150 C 33.57864379882813 150 0 116.4213409423828 0 75 C 0 33.57864379882813 33.57864379882813 0 75 0 Z" stroke="none" fill="#fff"/>
    </g>
    <g id="Page-1" transform="translate(-592.631 358.635)">
      <g id="v" transform="translate(972.631 21.865)">
        <g id="Group-2" transform="translate(0 0)">
          <g id="Group" transform="translate(9.989 0)">
            <g id="Group-7" transform="translate(0)">
              <path id="Fill-3" d="M114.865,53.734l-4.739-1.066a39.372,39.372,0,0,0,.952-8.62A39.123,39.123,0,0,0,53.636,9.494a39.451,39.451,0,0,0-13.7,12.12l-3.976-2.79A43.918,43.918,0,0,1,71.97.083a43.931,43.931,0,0,1,43.966,43.966,44.235,44.235,0,0,1-1.071,9.686" transform="translate(-28.004 -0.083)" fill="#0a0a0a" fill-rule="evenodd"/>
              <path id="Fill-5" d="M44.1,206.613A43.932,43.932,0,0,1,.135,162.647a44.179,44.179,0,0,1,1.174-10.131l4.728,1.115a39.315,39.315,0,0,0-1.044,9.016,39.123,39.123,0,0,0,57.286,34.637,39.456,39.456,0,0,0,13.658-11.916l3.951,2.825A43.914,43.914,0,0,1,44.1,206.613" transform="translate(-0.135 -118.681)" fill="#0a0a0a" fill-rule="evenodd"/>
            </g>
          </g>
          <path id="Fill-2" d="M0,100.536v8H55.647l-22.8,26.534V142h75.307v-8H44.571l22.8-26.534v-6.93Z" transform="translate(0 -78.239)" fill-rule="evenodd"/>
        </g>
      </g>
    </g>
    <text id="ZWEIDEVS" transform="translate(529 440)" fill="#ff9700" font-size="44.56" font-family="Poppins-SemiBold, Poppins" font-weight="600" letter-spacing="0.003em"><tspan x="0" y="0">ZWEIDEVS</tspan></text>
  </g>
</svg>
