<?xml version="1.0" encoding="UTF-8"?>
<svg width="488px" height="456px" viewBox="0 0 488 456" version="1.1" xmlns="http://www.w3.org/2000/svg" xmlns:xlink="http://www.w3.org/1999/xlink">
    <!-- Generator: Sketch 60.1 (88133) - https://sketch.com -->
    <title>Group 2</title>
    <desc>Created with Sketch.</desc>
    <g id="Page-1" stroke="none" stroke-width="1" fill="none" fill-rule="evenodd">
        <g id="v" transform="translate(-56.000000, -62.000000)">
            <g id="Group-2" transform="translate(56.630952, 62.000000)">
                <g id="Group" transform="translate(44.869048, 0.000000)">
                    <text id="ZWEIDEVS" font-family="Poppins-SemiBold, Poppins" font-size="44.5674" font-weight="500" letter-spacing="0.133" fill="#000000">
                        <tspan x="95.767541" y="454.754972">ZWEIDEVS</tspan>
                    </text>
                    <g id="Group-7" transform="translate(-0.000000, -0.000000)" fill="#FF9700">
                        <path d="M391.460661,241.793155 L370.110356,236.991517 C372.956451,224.328688 374.401304,211.263045 374.401304,198.158383 C374.401304,151.095674 356.073828,106.849221 322.79517,73.5717119 C289.517661,40.2942024 245.271209,21.9655786 198.208499,21.9655786 C169.417032,21.9655786 140.85509,29.0613071 115.612061,42.4838595 C91.1597419,55.4863833 69.8094371,74.3693071 53.8690086,97.0887214 L35.9546752,84.5211452 C53.8644181,58.9935071 77.8565419,37.7763262 105.338575,23.1625452 C133.731818,8.06332143 165.84679,0.0827785714 198.208499,0.0827785714 C224.94458,0.0827785714 250.885361,5.32165952 275.312432,15.6525262 C298.900594,25.6299262 320.082199,39.90975 338.268518,58.0983643 C356.457132,76.2846833 370.736956,97.4662881 380.714356,121.05445 C391.04637,145.481521 396.284104,171.42345 396.284104,198.158383 C396.284104,212.87545 394.66137,227.55694 391.460661,241.793155" id="Fill-3"></path>
                        <path d="M198.209073,396.23307 C171.47414,396.23307 145.533359,390.994189 121.106287,380.662175 C97.5181252,370.684775 76.3365205,356.404951 58.1490538,338.217484 C39.9615871,320.031165 25.6817633,298.84956 15.7043633,275.260251 C5.37349667,250.834327 0.134615714,224.892399 0.134615714,198.157465 C0.134615714,182.743794 1.91342524,167.387503 5.42169667,152.515508 L26.7203586,157.539784 C23.5999824,170.767241 22.0174157,184.433089 22.0174157,198.157465 C22.0174157,245.220175 40.3448919,289.46548 73.6224014,322.744137 C106.902206,356.021646 151.147511,374.349122 198.209073,374.349122 C226.726259,374.349122 255.042611,367.383075 280.10202,354.203818 C304.37072,341.439999 325.647578,322.876113 341.633911,300.519346 L359.43463,313.247589 C341.473244,338.366675 317.562601,359.228094 290.288287,373.572184 C262.101616,388.397127 230.262073,396.23307 198.209073,396.23307" id="Fill-5"></path>
                    </g>
                </g>
                <polygon id="Fill-2" fill="#000000" points="0 100.536469 0 136.557936 250.700824 136.557936 147.970557 256.099674 147.970557 287.32065 487.243471 287.32065 487.243471 251.296888 200.802348 251.296888 303.533762 131.75515 303.533762 100.536469"></polygon>
            </g>
        </g>
    </g>
</svg>