<svg width="42" height="41" viewBox="0 0 42 41" fill="none" xmlns="http://www.w3.org/2000/svg">
<circle cx="21.0163" cy="20.0489" r="20.0489" fill="#FF9700"/>
<g clip-path="url(#clip0_947_53)">
<path d="M25.1216 11.7935H18.0903C15.8019 11.7935 13.9402 13.6552 13.9402 15.9436V22.975C13.9402 25.2633 15.8019 27.1249 18.0903 27.1249H25.1218C27.41 27.1249 29.2717 25.2633 29.2717 22.975V15.9436C29.2717 13.6552 27.41 11.7935 25.1216 11.7935V11.7935ZM28.3729 22.975C28.3729 24.7677 26.9144 26.2262 25.1216 26.2262H18.0903C16.2975 26.2262 14.839 24.7677 14.839 22.975V15.9436C14.839 14.1508 16.2975 12.6923 18.0903 12.6923H25.1218C26.9144 12.6923 28.3729 14.1508 28.3729 15.9436V22.975Z" fill="white"/>
<path d="M21.606 15.2671C19.2945 15.2671 17.4139 17.1476 17.4139 19.4592C17.4139 21.7707 19.2945 23.6513 21.606 23.6513C23.9176 23.6513 25.7981 21.7707 25.7981 19.4592C25.7981 17.1476 23.9176 15.2671 21.606 15.2671ZM21.606 22.7525C19.7902 22.7525 18.3127 21.2751 18.3127 19.4592C18.3127 17.6433 19.7902 16.1659 21.606 16.1659C23.422 16.1659 24.8993 17.6433 24.8993 19.4592C24.8993 21.2751 23.422 22.7525 21.606 22.7525Z" fill="white"/>
<path d="M25.8983 13.7783C25.2152 13.7783 24.6596 14.334 24.6596 15.017C24.6596 15.7001 25.2152 16.2559 25.8983 16.2559C26.5814 16.2559 27.1371 15.7001 27.1371 15.017C27.1371 14.3339 26.5814 13.7783 25.8983 13.7783ZM25.8983 15.3569C25.7109 15.3569 25.5584 15.2044 25.5584 15.017C25.5584 14.8295 25.7109 14.6771 25.8983 14.6771C26.0858 14.6771 26.2383 14.8295 26.2383 15.017C26.2383 15.2044 26.0858 15.3569 25.8983 15.3569Z" fill="white"/>
</g>
<defs>
<clipPath id="clip0_947_53">
<rect width="15.3315" height="15.3315" fill="white" transform="translate(13.9402 11.7935)"/>
</clipPath>
</defs>
</svg>
