<svg width="42" height="41" viewBox="0 0 42 41" fill="none" xmlns="http://www.w3.org/2000/svg">
<circle cx="21.0157" cy="20.0492" r="19.6706" stroke="#646464" stroke-width="0.756563"/>
<g clip-path="url(#clip0_72_911)">
<path d="M25.1208 11.7936H18.0895C15.8011 11.7936 13.9395 13.6553 13.9395 15.9437V22.9751C13.9395 25.2634 15.8011 27.1251 18.0895 27.1251H25.121C27.4093 27.1251 29.2709 25.2634 29.2709 22.9751V15.9437C29.2709 13.6553 27.4093 11.7936 25.1208 11.7936V11.7936ZM28.3721 22.9751C28.3721 24.7678 26.9136 26.2263 25.1208 26.2263H18.0895C16.2967 26.2263 14.8383 24.7678 14.8383 22.9751V15.9437C14.8383 14.1509 16.2967 12.6924 18.0895 12.6924H25.121C26.9136 12.6924 28.3721 14.1509 28.3721 15.9437V22.9751Z" fill="#646464"/>
<path d="M21.6061 15.2672C19.2946 15.2672 17.4141 17.1477 17.4141 19.4593C17.4141 21.7709 19.2946 23.6514 21.6061 23.6514C23.9177 23.6514 25.7982 21.7709 25.7982 19.4593C25.7982 17.1477 23.9177 15.2672 21.6061 15.2672ZM21.6061 22.7526C19.7903 22.7526 18.3129 21.2753 18.3129 19.4593C18.3129 17.6435 19.7903 16.166 21.6061 16.166C23.4221 16.166 24.8994 17.6435 24.8994 19.4593C24.8994 21.2753 23.4221 22.7526 21.6061 22.7526Z" fill="#646464"/>
<path d="M25.8969 13.7786C25.2138 13.7786 24.6582 14.3343 24.6582 15.0173C24.6582 15.7004 25.2138 16.2561 25.8969 16.2561C26.58 16.2561 27.1357 15.7004 27.1357 15.0173C27.1357 14.3342 26.58 13.7786 25.8969 13.7786ZM25.8969 15.3572C25.7095 15.3572 25.557 15.2047 25.557 15.0173C25.557 14.8298 25.7095 14.6774 25.8969 14.6774C26.0844 14.6774 26.2369 14.8298 26.2369 15.0173C26.2369 15.2047 26.0844 15.3572 25.8969 15.3572Z" fill="#646464"/>
</g>
<defs>
<clipPath id="clip0_72_911">
<rect width="15.3315" height="15.3315" fill="white" transform="translate(13.9395 11.7936)"/>
</clipPath>
</defs>
</svg>
