<svg width="41" height="41" viewBox="0 0 41 41" fill="none" xmlns="http://www.w3.org/2000/svg">
<circle cx="20.9511" cy="20.0489" r="20.0489" fill="#FF9700"/>
<g clip-path="url(#clip0_947_67)">
<path d="M26.8446 25.9457V25.9452H26.8478V21.1874C26.8478 18.8598 26.3467 17.0669 23.6257 17.0669C22.3176 17.0669 21.4397 17.7847 21.0814 18.4653H21.0435V17.2842H18.4636V25.9452H21.15V21.6566C21.15 20.5274 21.3641 19.4355 22.7624 19.4355C24.1403 19.4355 24.1608 20.7242 24.1608 21.729V25.9457H26.8446Z" fill="white"/>
<path d="M14.0889 17.2847H16.7786V25.9457H14.0889V17.2847Z" fill="white"/>
<path d="M15.4328 12.9727C14.5728 12.9727 13.8749 13.6705 13.8749 14.5305C13.8749 15.3905 14.5728 16.1029 15.4328 16.1029C16.2927 16.1029 16.9906 15.3905 16.9906 14.5305C16.99 13.6705 16.2922 12.9727 15.4328 12.9727V12.9727Z" fill="white"/>
</g>
<defs>
<clipPath id="clip0_947_67">
<rect width="12.9728" height="12.9728" fill="white" transform="translate(13.8749 12.9727)"/>
</clipPath>
</defs>
</svg>
