<!DOCTYPE svg PUBLIC "-//W3C//DTD SVG 1.1//EN" "http://www.w3.org/Graphics/SVG/1.1/DTD/svg11.dtd">

<!-- Uploaded to: SVG Repo, www.svgrepo.com, Transformed by: SVG Repo Mixer Tools -->
<svg width="41px" height="41px" viewBox="-4.8 -4.8 57.60 57.60" xmlns="http://www.w3.org/2000/svg" fill="#978282" stroke="#978282">

<g id="SVGRepo_bgCarrier" stroke-width="0">

<rect x="-4.8" y="-4.8" width="57.60" height="57.60" rx="28.8" fill="#ff9700" strokewidth="0"/>

</g>

<g id="SVGRepo_tracerCarrier" stroke-linecap="round" stroke-linejoin="round"/>

<g id="SVGRepo_iconCarrier">

<defs>

<style>.a{fill:none;stroke:#eae6e6;stroke-linecap:round;stroke-linejoin:round;}</style>

</defs>

<path class="a" d="M43.1124,14.394a5.0056,5.0056,0,0,0-3.5332-3.5332c-2.3145-.8936-24.7326-1.3314-31.2358.0256A5.0059,5.0059,0,0,0,4.81,14.42c-1.0446,4.583-1.1239,14.4914.0256,19.1767A5.006,5.006,0,0,0,8.369,37.13c4.5829,1.0548,26.3712,1.2033,31.2358,0a5.0057,5.0057,0,0,0,3.5332-3.5333C44.2518,28.6037,44.3311,19.31,43.1124,14.394Z"/>

<path class="a" d="M30.5669,23.9952,20.1208,18.004V29.9863Z"/>

</g>

</svg>