<svg width="49" height="49" viewBox="0 0 49 49" fill="none" xmlns="http://www.w3.org/2000/svg">
<path d="M38.7461 30.3538C37.7415 29.3092 36.5298 28.7508 35.2455 28.7508C33.9716 28.7508 32.7495 29.2989 31.7035 30.3434L28.4307 33.6011C28.1614 33.4563 27.8922 33.3218 27.6332 33.1874C27.2604 33.0013 26.9083 32.8254 26.6079 32.6393C23.5423 30.695 20.7563 28.1613 18.0842 24.8829C16.7896 23.2489 15.9197 21.8735 15.2879 20.4773C16.1371 19.7017 16.9243 18.8951 17.6907 18.1194C17.9807 17.8298 18.2707 17.5299 18.5606 17.2404C20.7356 15.0686 20.7356 12.2556 18.5606 10.0838L15.7332 7.26054C15.4122 6.93994 15.0807 6.609 14.77 6.27807C14.1486 5.63688 13.4962 4.975 12.823 4.35449C11.8183 3.36168 10.617 2.83425 9.35342 2.83425C8.08988 2.83425 6.86777 3.36168 5.83209 4.35449L5.81138 4.37518L2.29005 7.92241C0.964375 9.24616 0.208326 10.8595 0.0426169 12.7313C-0.205947 15.7511 0.684741 18.5641 1.36829 20.405C3.0461 24.9243 5.55246 29.1127 9.29128 33.6011C13.8276 39.0098 19.2856 43.281 25.5204 46.2905C27.9025 47.4177 31.0821 48.7518 34.6345 48.9793C34.852 48.9897 35.0798 49 35.2869 49C37.6794 49 39.6886 48.1416 41.2628 46.4352C41.2732 46.4146 41.2939 46.4042 41.3043 46.3835C41.8428 45.732 42.4642 45.1425 43.1167 44.5117C43.5621 44.0877 44.0178 43.643 44.4631 43.1776C45.4884 42.1124 46.027 40.8714 46.027 39.5993C46.027 38.3169 45.4781 37.0863 44.432 36.0521L38.7461 30.3538ZM42.4539 41.2437C42.4435 41.2437 42.4435 41.254 42.4539 41.2437C42.05 41.678 41.6357 42.071 41.1903 42.5054C40.5171 43.1465 39.8336 43.8188 39.1915 44.5737C38.1454 45.6906 36.913 46.2181 35.2973 46.2181C35.1419 46.2181 34.9762 46.2181 34.8209 46.2077C31.7449 46.0112 28.8864 44.8116 26.7425 43.7877C20.8806 40.9541 15.7332 36.9311 11.4559 31.8326C7.92417 27.5822 5.56281 23.6523 3.99893 19.4328C3.03574 16.8577 2.68361 14.8514 2.83896 12.9589C2.94253 11.7489 3.40859 10.7457 4.26821 9.88735L7.79989 6.3608C8.30737 5.88508 8.84593 5.62653 9.37413 5.62653C10.0266 5.62653 10.5548 6.01952 10.8862 6.35046L10.9173 6.38149C11.5491 6.97097 12.1498 7.58113 12.7815 8.23267C13.1026 8.5636 13.434 8.89454 13.7654 9.23582L16.5928 12.0591C17.6907 13.1554 17.6907 14.1689 16.5928 15.2651C16.2925 15.565 16.0025 15.8649 15.7022 16.1545C14.8322 17.0439 14.0036 17.8712 13.1026 18.6779C13.0819 18.6986 13.0612 18.7089 13.0508 18.7296C12.1601 19.619 12.3258 20.4877 12.5123 21.0772L12.5433 21.1702C13.2787 22.949 14.3143 24.6244 15.8886 26.6204L15.8989 26.6307C18.7574 30.1469 21.7713 32.8875 25.0958 34.9869C25.5204 35.2558 25.9554 35.4729 26.3697 35.6798C26.7425 35.8659 27.0947 36.0417 27.395 36.2279C27.4365 36.2486 27.4779 36.2796 27.5193 36.3003C27.8714 36.4761 28.2029 36.5588 28.5446 36.5588C29.4043 36.5588 29.9428 36.0211 30.1189 35.8452L33.6609 32.3084C34.0131 31.9567 34.5723 31.5327 35.2248 31.5327C35.8669 31.5327 36.3951 31.936 36.7162 32.2877L36.7369 32.3084L42.4435 38.0067C43.5103 39.0615 43.5103 40.1474 42.4539 41.2437ZM26.4836 11.6558C29.1971 12.1108 31.662 13.3932 33.6298 15.3582C35.5976 17.3231 36.8715 19.7844 37.3376 22.494C37.4515 23.1766 38.0419 23.6523 38.7151 23.6523C38.7979 23.6523 38.8704 23.6419 38.9533 23.6316C39.7197 23.5075 40.2272 22.7836 40.1029 22.0183C39.5436 18.7399 37.9901 15.7511 35.6184 13.3829C33.2466 11.0146 30.2535 9.46334 26.9704 8.90488C26.204 8.78078 25.4894 9.28753 25.3547 10.0425C25.2201 10.7974 25.7172 11.5317 26.4836 11.6558ZM48.9787 21.6149C48.0569 16.2165 45.5091 11.3042 41.5943 7.39498C37.6794 3.48578 32.7599 0.941704 27.3536 0.0212849C26.5976 -0.113158 25.8829 0.403931 25.7483 1.15888C25.624 1.92417 26.1315 2.63776 26.8979 2.7722C31.7242 3.5892 36.1258 5.87474 39.6265 9.35992C43.1271 12.8554 45.4056 17.2507 46.2238 22.07C46.3377 22.7525 46.928 23.2283 47.6012 23.2283C47.6841 23.2283 47.7566 23.2179 47.8394 23.2076C48.5955 23.0938 49.1133 22.3699 48.9787 21.6149Z" fill="#FF9700"/>
</svg>
