<svg width="124" height="35" viewBox="0 0 124 35" fill="none" xmlns="http://www.w3.org/2000/svg">
<path d="M114.015 12.4197C113.713 12.4197 113.42 12.482 113.16 12.6289L104.943 17.3744C104.411 17.6807 104.088 18.2595 104.088 18.8749V28.3488C104.088 28.964 104.411 29.5418 104.943 29.8491L107.089 31.0858C108.131 31.5998 108.516 31.5916 108.991 31.5916C110.534 31.5916 111.415 30.6549 111.415 29.0268V19.6802C111.415 19.548 111.301 19.4535 111.171 19.4535H110.142C110.01 19.4535 109.898 19.5505 109.898 19.6802V29.0317C109.898 29.7533 109.146 30.4793 107.926 29.8692L105.695 28.5607C105.617 28.5178 105.556 28.4395 105.556 28.3515V18.8776C105.556 18.7878 105.616 18.6962 105.695 18.6508L113.896 13.9224C113.972 13.8782 114.064 13.8782 114.14 13.9224L122.34 18.6508C122.418 18.6976 122.48 18.7849 122.48 18.8776V28.3515C122.48 28.4419 122.434 28.5346 122.357 28.5782L114.14 33.3067C114.067 33.3486 113.97 33.3486 113.896 33.3067L111.785 32.0506C111.722 32.0137 111.636 32.0167 111.575 32.0506C110.993 32.3809 110.883 32.4192 110.337 32.6088C110.202 32.6556 109.997 32.7286 110.407 32.958L113.163 34.5826C113.426 34.7344 113.718 34.8094 114.018 34.8094C114.323 34.8094 114.611 34.7366 114.873 34.5826L123.091 29.8542C123.622 29.5448 123.946 28.9691 123.946 28.3539V18.88C123.946 18.2646 123.622 17.687 123.091 17.3795L114.873 12.634C114.616 12.4871 114.32 12.4248 114.018 12.4248L114.015 12.4197ZM116.214 19.1894C113.874 19.1894 112.48 20.1853 112.48 21.8412C112.48 23.6356 113.863 24.1313 116.109 24.3534C118.796 24.6165 119.005 25.011 119.005 25.5399C119.005 26.4572 118.274 26.8483 116.545 26.8483C114.374 26.8483 113.896 26.3061 113.736 25.2237C113.717 25.1077 113.628 25.0144 113.51 25.0144H112.443C112.378 25.0158 112.317 25.042 112.272 25.0875C112.226 25.133 112.2 25.1943 112.198 25.2586C112.198 26.6415 112.951 28.2768 116.543 28.2768C119.143 28.2768 120.643 27.2584 120.643 25.4678C120.643 23.6977 119.431 23.2193 116.909 22.8854C114.363 22.5459 114.118 22.3834 114.118 21.7862C114.118 21.2934 114.324 20.6344 116.211 20.6344C117.897 20.6344 118.521 20.9981 118.776 22.1349C118.798 22.2416 118.893 22.3289 119.003 22.3289H120.07C120.135 22.3289 120.199 22.2886 120.244 22.2416C120.289 22.1914 120.321 22.1349 120.314 22.067C120.149 20.1091 118.844 19.1882 116.214 19.1882L116.214 19.1894Z" fill="#84CE2A"/>
<path d="M65.7047 0.000317138C65.6129 0.000482863 65.5227 0.0245513 65.4431 0.0701531C65.3638 0.116534 65.298 0.182764 65.2521 0.262319C65.2062 0.341874 65.1819 0.432009 65.1814 0.523844V13.8708C65.1814 14.0017 65.1203 14.1191 65.0068 14.1848C64.9512 14.2172 64.888 14.2343 64.8236 14.2343C64.7592 14.2343 64.696 14.2172 64.6404 14.1848L62.4595 12.9287C62.3004 12.8366 62.1199 12.7882 61.9361 12.7882C61.7523 12.7882 61.5718 12.8366 61.4127 12.9287L52.707 17.9532C52.3816 18.1409 52.1832 18.5022 52.1832 18.8778V28.9272C52.1829 29.1111 52.2312 29.2918 52.3231 29.4511C52.4151 29.6103 52.5474 29.7425 52.7067 29.8343L61.4127 34.8591C61.5717 34.9514 61.7523 35 61.9361 35C62.1199 35 62.3005 34.9514 62.4595 34.8591L71.1655 29.8343C71.3248 29.7425 71.4572 29.6103 71.5491 29.4511C71.641 29.2918 71.6893 29.1111 71.689 28.9272V3.87354C71.689 3.49236 71.481 3.13469 71.1483 2.94895L65.9666 0.0524516C65.8851 0.00710674 65.7949 -0.000652805 65.7047 0.000317138ZM9.70017 12.5446C9.53406 12.5514 9.37814 12.5802 9.22902 12.6668L0.523289 17.6914C0.363809 17.783 0.231401 17.9151 0.139499 18.0745C0.0475966 18.2338 -0.000529119 18.4146 4.38789e-06 18.5985L0.0177059 32.0853C0.0177059 32.273 0.1147 32.4471 0.279591 32.5388C0.441329 32.6358 0.641864 32.6358 0.802875 32.5388L5.9671 29.5727C6.29445 29.3787 6.50784 29.0402 6.50784 28.6658V22.3672C6.50784 21.9914 6.70547 21.647 7.03161 21.4603L9.22999 20.1868C9.38884 20.0944 9.56951 20.0462 9.75327 20.0471C9.93713 20.046 10.1179 20.0942 10.2768 20.1868L12.4742 21.4596C12.7999 21.6463 12.9975 21.9911 12.9975 22.3665V28.6648C12.9975 29.0397 13.2157 29.3801 13.5382 29.5717L18.7025 32.5378C18.8649 32.6348 19.065 32.6348 19.2257 32.5378C19.3858 32.4456 19.4876 32.2718 19.4876 32.0843L19.5051 18.598C19.5061 18.414 19.4582 18.233 19.3662 18.0736C19.2743 17.9142 19.1416 17.7821 18.9818 17.6909L10.2761 12.6666C10.1289 12.5802 9.97223 12.5511 9.80492 12.5444H9.70065L9.70017 12.5446ZM87.9319 12.6668C87.7481 12.6663 87.5675 12.7145 87.4084 12.8065L78.7024 17.8313C78.3775 18.0192 78.1786 18.3628 78.1786 18.7382V28.7875C78.1786 29.1653 78.3916 29.5077 78.7194 29.6944L87.3555 34.6169C87.6744 34.7987 88.0636 34.8126 88.3849 34.6338L93.6189 31.7201C93.785 31.628 93.8973 31.4558 93.8978 31.2667C93.8983 31.0775 93.8001 30.9073 93.6359 30.8132L84.8773 25.7884C84.7134 25.6948 84.5985 25.5055 84.5985 25.3173V22.1749C84.5985 21.9872 84.7149 21.8151 84.8773 21.7215L87.599 20.1511C87.761 20.0575 87.9598 20.0575 88.1228 20.1511L90.8456 21.7215C90.9253 21.7673 90.9915 21.8333 91.0375 21.913C91.0834 21.9926 91.1075 22.083 91.1073 22.1749V24.6524C91.107 24.7443 91.1311 24.8347 91.177 24.9143C91.223 24.994 91.2892 25.06 91.3689 25.1058C91.5321 25.1999 91.7297 25.2004 91.8927 25.1058L97.109 22.0707C97.4328 21.8825 97.6328 21.5379 97.6328 21.1638V18.7389C97.6328 18.555 97.5844 18.3744 97.4926 18.2152C97.4007 18.056 97.2685 17.9237 97.1093 17.8318L88.4557 12.807C88.2966 12.7149 88.116 12.6667 87.9322 12.6673L87.9319 12.6668ZM61.9011 20.1693C61.9498 20.1691 61.9978 20.181 62.0407 20.204L65.024 21.9312C65.105 21.978 65.1637 22.0646 65.1637 22.1579V25.6124C65.1637 25.7062 65.1055 25.7926 65.024 25.8391L62.0407 27.5664C61.9595 27.6124 61.8603 27.6124 61.7789 27.5664L58.7955 25.8391C58.7143 25.7923 58.6559 25.7058 58.6559 25.6124V22.1575C58.6559 22.0639 58.7146 21.978 58.7955 21.9307L61.7789 20.2038C61.8196 20.1802 61.8555 20.1693 61.9011 20.1693Z" fill="#404238"/>
<path d="M35.8532 12.6143C35.6694 12.6139 35.4887 12.6621 35.3294 12.7539L26.6234 17.7613C26.298 17.949 26.1002 18.3105 26.1002 18.6859V28.7352C26.0997 28.9191 26.1478 29.0998 26.2397 29.2591C26.3316 29.4184 26.464 29.5505 26.6234 29.6421L35.3294 34.6669C35.4884 34.7592 35.669 34.8078 35.8528 34.8078C36.0367 34.8078 36.2172 34.7592 36.3762 34.6669L45.0822 29.6421C45.2416 29.5503 45.3739 29.4181 45.4658 29.2589C45.5577 29.0996 45.606 28.9189 45.6057 28.735V18.6856C45.6057 18.3098 45.4079 17.9485 45.082 17.761L36.376 12.7537C36.2169 12.6615 36.0361 12.6132 35.8522 12.614L35.8532 12.6143ZM87.9149 21.5821C87.8802 21.5821 87.8417 21.5821 87.8101 21.5991L86.1353 22.5763C86.1041 22.5936 86.078 22.6189 86.0596 22.6495C86.0412 22.6801 86.0312 22.715 86.0305 22.7507V24.6699C86.0305 24.7422 86.0725 24.8082 86.1353 24.8445L87.8101 25.804C87.8389 25.8219 87.8721 25.8313 87.9059 25.8313C87.9398 25.8313 87.9729 25.8219 88.0017 25.804L89.6766 24.8445C89.7386 24.8089 89.7813 24.7422 89.7813 24.6699V22.7507C89.7813 22.6784 89.7389 22.6124 89.6766 22.5761L88.0017 21.5989C87.9707 21.5804 87.9493 21.5819 87.9144 21.5819L87.9149 21.5821Z" fill="#84CE2A"/>
</svg>
