<svg width="102" height="54" viewBox="0 0 102 54" fill="none" xmlns="http://www.w3.org/2000/svg">
<path d="M0 26.828C0 41.6446 22.834 53.656 50.9999 53.656C79.1659 53.656 102 41.6446 102 26.828C102 12.0117 79.1659 9.15527e-05 50.9999 9.15527e-05C22.834 0.000339508 0 12.0117 0 26.828Z" fill="black"/>
<path d="M51.0076 51.6722C78.0736 51.6722 100.015 40.5526 100.015 26.836C100.015 13.1198 78.0736 2 51.0076 2C23.9417 2 2 13.1198 2 26.836C2 40.5528 23.9419 51.6722 51.0076 51.6722Z" fill="#284354"/>
<path d="M27.7086 29.9073C29.934 29.9073 31.5955 29.497 32.6466 28.6878C33.6866 27.887 34.4049 26.4998 34.7814 24.5646C35.1325 22.7557 34.9988 21.4927 34.3839 20.8114C33.7554 20.1153 32.3969 19.7622 30.3455 19.7622H26.7887L24.8171 29.9077H27.7086V29.9073ZM16.076 42.4044C15.9944 42.4045 15.9137 42.3865 15.8398 42.3517C15.766 42.317 15.7007 42.2663 15.6488 42.2033C15.5969 42.1403 15.5596 42.0666 15.5395 41.9874C15.5195 41.9083 15.5172 41.8257 15.5329 41.7456L20.7585 14.8601C20.7831 14.7341 20.8507 14.6205 20.9498 14.5388C21.0489 14.4571 21.1734 14.4124 21.3018 14.4124H32.5639C36.1033 14.4124 38.7379 15.3735 40.3936 17.2692C42.0585 19.1748 42.5725 21.8388 41.9215 25.1865C41.6568 26.5502 41.201 27.817 40.5675 28.9513C39.9333 30.0866 39.0947 31.137 38.0753 32.0742C36.8546 33.2163 35.4736 34.0447 33.9736 34.5322C32.4974 35.0129 30.6016 35.2568 28.3387 35.2568H23.7783L22.4758 41.9566C22.4513 42.0827 22.3837 42.1963 22.2847 42.278C22.1856 42.3597 22.0611 42.4044 21.9327 42.4044H16.076Z" fill="white"/>
<path d="M55.35 35.2567C55.2684 35.2567 55.1877 35.2387 55.1139 35.2038C55.04 35.169 54.9748 35.1183 54.9229 35.0553C54.8709 34.9923 54.8336 34.9186 54.8135 34.8395C54.7934 34.7604 54.7911 34.6778 54.8067 34.5976L57.1184 22.7019C57.3382 21.5708 57.284 20.7588 56.9656 20.4157C56.771 20.2059 56.1857 19.8542 54.4558 19.8542H50.2682L47.3621 34.8089C47.3375 34.935 47.2699 35.0486 47.1708 35.1303C47.0717 35.212 46.9472 35.2567 46.8188 35.2567H41.0083C40.9267 35.2567 40.846 35.2387 40.7722 35.2038C40.6984 35.169 40.6331 35.1183 40.5812 35.0553C40.5293 34.9923 40.4919 34.9186 40.4718 34.8395C40.4517 34.7604 40.4494 34.6778 40.465 34.5976L45.6902 7.71219C45.7148 7.58612 45.7824 7.47251 45.8815 7.39082C45.9807 7.30913 46.1051 7.26444 46.2335 7.2644H52.044C52.1256 7.2643 52.2063 7.28229 52.2802 7.31707C52.3541 7.35186 52.4193 7.40258 52.4713 7.46559C52.5232 7.5286 52.5606 7.60233 52.5806 7.68149C52.6007 7.76065 52.603 7.84327 52.5873 7.92342L51.3263 14.4122H55.8313C59.2632 14.4122 61.5905 15.0174 62.9458 16.262C64.3275 17.5317 64.7583 19.5622 64.2273 22.2974L61.7959 34.8083C61.7714 34.9343 61.7038 35.0479 61.6047 35.1296C61.5056 35.2113 61.3812 35.256 61.2528 35.2561H55.35V35.2567Z" fill="white"/>
<path d="M73.4214 29.9073C75.6467 29.9073 77.3082 29.497 78.3594 28.6878C79.3993 27.8873 80.1176 26.5001 80.4944 24.5646C80.8454 22.7557 80.7118 21.4927 80.0969 20.8113C79.4684 20.1152 78.1098 19.7622 76.0586 19.7622H72.5021L70.5304 29.9077H73.4214V29.9073ZM61.7885 42.4044C61.7069 42.4044 61.6263 42.3864 61.5524 42.3515C61.4786 42.3167 61.4133 42.266 61.3614 42.203C61.3095 42.14 61.2721 42.0663 61.252 41.9872C61.2319 41.9081 61.2296 41.8255 61.2452 41.7453L66.4706 14.8599C66.4952 14.7338 66.5629 14.6202 66.662 14.5385C66.7612 14.4568 66.8857 14.4121 67.0142 14.4121H78.2762C81.8158 14.4121 84.45 15.3733 86.1062 17.269C87.7708 19.1744 88.2846 21.8382 87.634 25.1861C87.3687 26.55 86.9132 27.8167 86.2797 28.9509C85.6454 30.0864 84.8069 31.1367 83.7874 32.074C82.567 33.2161 81.1857 34.0444 79.6858 34.5317C78.2096 35.0126 76.3137 35.2566 74.0509 35.2566H69.4904L68.1888 41.9566C68.1642 42.0827 68.0966 42.1964 67.9974 42.2781C67.8982 42.3598 67.7737 42.4044 67.6452 42.4044H61.7885Z" fill="white"/>
</svg>
