<svg width="120" height="60" viewBox="0 0 120 60" fill="none" xmlns="http://www.w3.org/2000/svg">
<path d="M49.8807 27.6982C48.5334 27.6982 47.4399 28.0985 46.6003 28.8942C45.7606 29.6899 45.331 30.7395 45.331 32.0185C45.331 32.6824 45.4384 33.2877 45.6435 33.8442C45.8485 34.4007 46.1804 34.9182 46.61 35.3819C47.0396 35.8457 47.9183 36.4803 49.2217 37.3346C50.818 38.3109 51.8578 39.1017 52.3655 39.7168C52.837 40.2538 53.1033 40.9403 53.1172 41.6548C53.1172 42.5579 52.8243 43.2755 52.2092 43.8174C51.5942 44.3592 50.7789 44.6277 49.7684 44.6277C48.6945 44.6277 47.8158 44.2518 46.9664 43.5049C46.117 42.758 45.7606 41.7622 45.746 40.5174H45.248V45.028H45.746C45.8924 44.5984 46.1072 44.3836 46.3806 44.3836C46.5124 44.3836 46.8199 44.4813 47.3569 44.6472C48.5285 45.067 49.4951 45.2672 50.2566 45.2672C51.5649 45.2672 52.6779 44.8083 53.6103 43.8808C54.0596 43.4457 54.4152 42.9233 54.6553 42.3458C54.8954 41.7682 55.0149 41.1477 55.0064 40.5223C55.0064 39.5069 54.6989 38.6038 54.0887 37.8178C53.4785 37.0319 52.302 36.1093 50.5348 35.0597C49.0215 34.1469 48.0306 33.4 47.5766 32.8239C47.1322 32.2833 46.889 31.6053 46.8883 30.9055C46.8757 30.5576 46.9441 30.2117 47.0881 29.8948C47.2321 29.578 47.4478 29.2989 47.7181 29.0797C48.2698 28.6257 48.9874 28.3963 49.8905 28.3963C50.9058 28.3963 51.7455 28.699 52.4191 29.3043C53.1152 29.9688 53.5338 30.8723 53.5907 31.833H54.0887V27.9277H53.6249C53.5663 28.1229 53.5175 28.2547 53.4687 28.3182C53.4199 28.3817 53.332 28.4061 53.2002 28.4061C53.0391 28.4061 52.7511 28.3377 52.3459 28.2108C51.4672 27.9179 50.6666 27.7715 49.9295 27.7715L49.8807 27.6982ZM66.1365 27.6982C64.4963 27.6982 63.0123 28.0888 61.6601 28.8601C60.3227 29.6227 59.2162 30.7325 58.4577 32.0722C57.6831 33.3958 57.2769 34.9027 57.2812 36.4363C57.264 38.4748 57.9933 40.449 59.3315 41.9867C60.6984 43.6074 62.3484 44.6228 64.2522 45.0133C64.6915 45.2428 65.3115 45.8286 66.1267 46.7707C67.0543 47.8447 67.8255 48.616 68.4699 49.0749C69.096 49.5257 69.7919 49.8704 70.53 50.0951C71.3 50.3227 72.0995 50.4346 72.9024 50.4271C73.9373 50.4271 74.8551 50.2464 75.685 49.8754L75.4995 49.4214C75.0259 49.5923 74.5231 49.6753 73.9862 49.6753C73.2637 49.6753 72.5363 49.4312 71.8041 48.9577C71.0718 48.4842 70.159 47.5664 69.0704 46.224L68.0062 45.0133C70.0955 44.6082 71.8138 43.5977 73.1465 41.977C74.4577 40.4322 75.1698 38.4674 75.1529 36.4412C75.1751 35.282 74.9542 34.1309 74.5044 33.0622C74.0546 31.9936 73.3858 31.031 72.5412 30.2367C70.8033 28.5525 68.6701 27.6982 66.1365 27.6982ZM76.2903 27.6982L76.3147 28.2352C77.4082 28.2352 78.0233 28.5574 78.1551 29.2018C78.2039 29.4312 78.2283 29.8608 78.2332 30.471L78.2234 42.2455C78.2136 43.1242 78.0867 43.6855 77.8475 43.9296C77.6083 44.1737 77.1983 44.3202 76.6076 44.3836L76.5832 44.9206H87.4692L87.7474 42.2503H87.2495C87.1031 42.9826 86.7809 43.5 86.2634 43.7929C85.746 44.0858 84.8234 44.2323 83.4956 44.2323H82.4704C81.2744 44.2323 80.5861 43.8027 80.4006 42.9338C80.3637 42.7506 80.3457 42.5641 80.3469 42.3773L80.3957 30.4661C80.3957 29.5874 80.508 29.0016 80.7374 28.7087C80.9669 28.4158 81.3867 28.2596 81.992 28.2206L81.9676 27.6836L76.2903 27.6982ZM66.3122 28.3426C67.1879 28.3236 68.0555 28.5133 68.8433 28.8962C69.631 29.279 70.3163 29.844 70.8424 30.5442C72.014 32.0087 72.59 34.0297 72.59 36.5828C72.59 39.0041 72.0042 40.9372 70.8326 42.3919C70.2781 43.0985 69.5647 43.6644 68.7505 44.0435C67.9362 44.4226 67.044 44.6044 66.1463 44.574C65.2625 44.5947 64.3869 44.4007 63.5945 44.0088C62.8021 43.6168 62.1165 43.0386 61.5966 42.3236C60.4348 40.82 59.8587 38.8674 59.8587 36.4656C59.8587 34.0004 60.4445 32.0722 61.6161 30.5491C62.7877 29.026 64.3498 28.3426 66.322 28.3426H66.3122ZM91.355 30.8811C91.0914 30.8811 90.8863 30.9689 90.735 31.1495C90.6587 31.2401 90.6056 31.3478 90.5801 31.4635C90.5545 31.5791 90.5575 31.6992 90.5886 31.8134C90.6484 32.0814 90.8004 32.3198 91.0181 32.4871C91.2476 32.6824 91.4965 32.78 91.7601 32.78C92.0237 32.78 92.2141 32.6824 92.3557 32.4871C92.4973 32.2918 92.5412 32.0722 92.4875 31.8134C92.4338 31.5547 92.2922 31.3253 92.0774 31.1495C91.8626 30.9738 91.6137 30.8811 91.355 30.8811ZM98.5309 32.6873C98.0818 34.4251 97.1006 35.3624 95.602 35.5186L95.6215 36.0165H97.3789L97.3545 41.8842L97.4521 43.9003C97.623 44.7156 98.1599 45.1305 99.0484 45.1305C100.337 45.1305 101.684 44.3494 103.1 42.7727L102.671 42.4066C101.645 43.4415 100.747 43.9589 99.9564 43.9589C99.4682 43.9589 99.1753 43.6807 99.0582 43.129C99.0256 42.9734 99.0109 42.8145 99.0142 42.6555L99.0338 35.997H101.719L101.694 35.2013H99.0484V32.6726L98.5309 32.6873ZM108.89 34.9035C107.391 34.9035 106.171 35.6358 105.229 37.0758C104.286 38.5159 103.993 40.1268 104.364 41.894C104.519 42.8207 104.984 43.6675 105.683 44.2958C106.346 44.862 107.196 45.1403 108.197 45.1403C109.134 45.1403 110.442 44.8962 110.989 44.4227C111.536 43.9492 112.048 43.1681 112.517 42.1088L112.141 41.7183C111.394 43.0949 109.886 43.7881 108.743 43.7881C107.181 43.7881 106.22 42.9289 105.814 41.2203C105.767 40.9898 105.733 40.7567 105.712 40.5223C107.567 40.2294 108.982 39.707 109.934 38.9504C110.886 38.1937 111.838 37.3883 111.663 36.5486C111.566 36.0679 111.293 35.6409 110.896 35.3526C110.491 35.0597 109.432 34.8986 108.846 34.8986L108.89 34.9035ZM92.507 34.967L89.2754 35.709V36.285L90.3982 36.1386C90.9351 36.1386 91.2573 36.3826 91.3598 36.8708C91.4005 37.0947 91.4217 37.3218 91.4233 37.5493L91.3891 42.8313C91.3794 43.5635 91.3013 43.9882 91.1353 44.1151C90.9693 44.2421 90.5348 44.3104 89.8368 44.3104L89.8172 44.8083H94.9429L94.9332 44.3104C94.2205 44.3104 93.7616 44.2616 93.5566 44.1444C93.3515 44.0273 93.2149 43.8369 93.1563 43.5342C93.1075 43.3145 93.0879 42.9387 93.0879 42.4114L93.1075 34.9572H92.5217L92.507 34.967ZM108.07 35.9433C108.382 35.9433 108.685 36.0653 108.987 36.2997C109.29 36.534 109.476 36.7976 109.524 37.0807C109.817 38.4866 108.572 39.4532 105.766 39.995C105.687 39.0187 105.863 38.0424 106.317 37.2028C106.771 36.3631 107.352 35.9335 108.065 35.9335L108.07 35.9433Z" fill="#003B57"/>
<path d="M40.6486 9.53857H12.8527C10.9879 9.53857 9.46484 11.0616 9.46484 12.9264V43.583C9.46484 45.4478 10.9879 46.9708 12.8527 46.9708H31.1588C30.9489 37.8617 34.0633 20.1854 40.6486 9.54834V9.53857Z" fill="#0F80CC"/>
<path d="M39.6394 10.5247H12.8539C12.539 10.524 12.227 10.5856 11.9359 10.7058C11.6448 10.826 11.3803 11.0026 11.1576 11.2253C10.9349 11.4479 10.7584 11.7124 10.6382 12.0035C10.518 12.2946 10.4564 12.6066 10.457 12.9215V41.3326C16.5249 39.004 25.6242 36.9977 31.9215 37.0856C33.1907 30.471 36.9008 17.5591 39.6345 10.5198L39.6394 10.5247Z" fill="url(#paint0_linear_1098_1580)"/>
<path d="M47.1319 8.53316C45.1793 6.83436 42.924 7.51778 40.6491 9.53389L39.6386 10.52C35.748 14.6547 32.1356 22.2993 31.0128 28.1377C31.501 29.0262 31.7939 30.1539 32.0184 31.0667L32.1649 31.672L32.3113 32.3555C32.3113 32.3555 32.2772 32.2237 32.1356 31.8087L32.038 31.5402C32.0197 31.4909 32.0001 31.4421 31.9794 31.3938C31.7255 30.808 31.0226 29.5583 30.7102 29.0164C30.4653 29.7344 30.2342 30.457 30.017 31.1839C30.9103 32.8143 31.4522 35.6115 31.4522 35.6115C31.4522 35.6115 31.4033 35.4309 31.1788 34.7963C30.9835 34.2349 29.9877 32.5019 29.7534 32.0919C29.3531 33.5759 29.192 34.5815 29.3384 34.8256C29.6167 35.2991 29.8852 36.1143 30.1195 37.0125C30.4849 38.4986 30.783 40.0004 31.0128 41.5134L31.047 41.9283C30.982 43.6067 31.0195 45.2875 31.1593 46.9613C31.335 49.075 31.6621 50.891 32.0868 51.8673L32.3699 51.7111C31.7548 49.7975 31.501 47.2835 31.6133 44.3887C31.7792 39.961 32.7995 34.6254 34.6789 29.0604C37.852 20.664 42.2698 13.9274 46.3069 10.7055C42.6262 14.025 37.6469 24.7841 36.1532 28.7675C34.4836 33.2293 33.3023 37.4079 32.5896 41.4255C33.8197 37.6667 37.7983 36.0557 37.7983 36.0557C37.7983 36.0557 39.7509 33.6491 42.0258 30.2124L37.6665 31.3743L36.2606 31.9991C36.2606 31.9991 39.8486 29.8121 42.9289 28.8261C47.1612 22.1578 51.7744 12.6825 47.127 8.54292" fill="#003B57"/>
<defs>
<linearGradient id="paint0_linear_1098_1580" x1="27.284" y1="11.1593" x2="27.284" y2="39.624" gradientUnits="userSpaceOnUse">
<stop stop-color="#97D9F6"/>
<stop offset="0.92024" stop-color="#0F80CC"/>
<stop offset="1" stop-color="#0F80CC"/>
</linearGradient>
</defs>
</svg>
