<svg width="120" height="60" viewBox="0 0 120 60" fill="none" xmlns="http://www.w3.org/2000/svg">
<path d="M65.852 22.815H62.354V30.9C62.354 32.974 61.501 34.632 58.994 34.632C56.514 34.659 55.794 32.952 55.794 30.792V22.822H52.294V31.672C52.294 34.232 53.201 37.872 57.998 37.909C60.638 37.936 61.943 36.656 62.555 35.509V37.454H65.839L65.852 22.815ZM67.234 37.445H70.726V29.37C70.726 27.318 71.579 25.666 74.058 25.638C76.51 25.638 77.23 27.318 77.23 29.503V37.445H80.722V28.623C80.722 26.038 79.815 22.386 75.045 22.359C72.433 22.332 71.125 23.612 70.488 24.759L70.515 22.814H67.235V37.444L67.234 37.445ZM82.054 20.84H85.546V17.72H82.054V20.82V20.84ZM82.054 37.444H85.546V22.814H82.054V37.444ZM89.199 37.446H92.691V25.506H95.196L94.159 22.814H92.7V17.72H89.2V22.816H86.775V25.508H89.2L89.199 37.446ZM98.566 42.563H102.296L110 22.815H106.268L102.748 32.542L99.184 22.815H95.446L100.963 36.889L98.566 42.563ZM45.53 26.256L41.63 11.792L27.1 15.67L24.952 19.446L20.602 19.416L10 30.003L20.622 40.588L24.979 40.555L27.129 44.331L41.629 48.207L45.516 33.745L43.32 30L45.53 26.256ZM36.43 17.21L30.06 28.214H17.32L25.34 20.054L36.43 17.21ZM30.06 31.81L36.43 42.813L25.33 39.961L17.31 31.813H30.05L30.06 31.81ZM33.16 30.023L39.542 19L42.622 30.004L39.542 41.004L33.16 30.023Z" fill="#222C37"/>
</svg>
