<svg width="131" height="43" viewBox="0 0 131 43" fill="none" xmlns="http://www.w3.org/2000/svg">
<path d="M1.47564 26.5616C2.52968 27.194 4.63774 28.0373 6.535 27.8264C8.22145 27.8264 9.27548 26.9832 9.27548 25.7184C9.27548 24.6644 8.64306 23.8211 6.74581 22.7671C4.42693 21.5023 2.74048 19.605 2.74048 17.0753C2.74048 12.6484 6.535 9.6971 11.8052 9.6971C14.124 9.6971 16.0213 10.1187 17.0753 10.7511L15.5997 15.1781C14.7564 14.7565 13.2808 14.3348 11.8052 14.3348C10.1187 14.3348 8.85387 15.1781 8.85387 16.4429C8.85387 17.4969 9.6971 18.1294 11.1727 18.9726C13.4916 20.4482 15.5997 22.3455 15.5997 24.8752C15.5997 29.7237 11.5944 32.675 6.11339 32.4642C3.58371 32.4642 1.26484 31.8318 0 30.9885L1.47564 26.5616ZM16.8645 31.621L22.9779 0H29.0913L26.7724 12.6484V12.8592C28.4589 10.9619 30.5669 9.6971 33.3074 9.6971C36.4695 9.6971 38.3668 11.8052 38.3668 15.3889C38.3668 16.4429 38.156 17.9185 37.9452 19.1834L35.6263 31.621H29.5129L31.8318 19.3942C32.0426 18.551 32.0426 17.7077 32.0426 16.8645C32.0426 15.5997 31.4102 14.5456 30.1453 14.5456C28.2481 14.5456 26.14 16.8645 25.2968 20.8698L23.1887 31.4102H16.8645V31.621ZM60.9231 18.3402C60.9231 25.9292 56.0745 32.4642 48.6963 32.4642C43.2153 32.4642 40.264 28.6697 40.264 23.8211C40.264 16.2321 45.1126 9.6971 52.7016 9.6971C58.1826 9.6971 60.9231 13.9132 60.9231 18.3402ZM46.3774 23.8211C46.3774 26.14 47.2206 27.8264 49.3287 27.8264C52.7016 27.8264 54.3881 21.9239 54.3881 18.1294C54.3881 16.2321 53.7556 14.3348 51.4368 14.3348C48.2747 14.5456 46.3774 20.2374 46.3774 23.8211ZM59.2366 40.0532L63.4527 18.1294C63.8743 15.5997 64.5068 12.6484 64.7176 10.5403H70.1985L69.7769 12.6484C71.4634 10.5403 73.7822 9.27548 76.3119 9.27548C80.7389 9.27548 82.6361 13.2808 82.6361 17.2861C82.6361 24.8752 77.7876 32.2534 70.6201 32.2534C69.5661 32.4642 68.0905 31.621 67.4581 31.621H67.2472L65.5608 40.0532H59.2366ZM68.0905 26.9832C68.7229 27.6156 69.5661 27.8264 70.6201 27.8264C73.993 27.8264 76.5227 22.1347 76.5227 18.1294C76.5227 16.4429 75.8903 14.7564 73.993 14.7564C71.885 14.7564 69.7769 17.2861 69.1445 21.0806L68.0905 26.9832ZM83.2685 31.621L87.4847 10.5403H93.8089L89.5927 31.621H83.2685ZM91.2792 8.43226C89.5927 8.43226 88.3279 6.7458 88.3279 4.84855C88.3279 2.74048 89.8035 1.05403 91.9116 1.05403C93.8089 1.05403 95.0737 2.74048 95.0737 4.42694C94.8629 6.74581 93.1764 8.43226 91.2792 8.43226ZM94.8629 31.621L98.2358 14.7564H95.2845L96.1277 10.5403H99.079L99.2898 9.27548C99.7114 6.7458 100.765 4.00532 102.874 2.10806C104.56 0.632419 106.668 0 108.987 0C110.463 0 111.727 0.210808 112.36 0.421614L111.095 5.27016C110.463 5.05935 109.83 4.84855 109.198 4.84855C107.09 4.84855 105.825 6.95661 105.614 9.06467L104.982 10.5403H109.198L108.354 14.7564H104.138L100.765 31.621H94.8629ZM116.998 10.5403L118.052 20.2374C118.262 22.3455 118.473 23.1887 118.684 25.2968C119.106 23.1887 119.527 22.5563 120.581 20.2374L124.376 10.5403H130.7L123.111 26.5616C120.37 32.0426 117.841 36.0479 114.889 38.7884C112.781 40.8965 110.041 41.7397 108.776 42.1613L107.09 36.8911C108.144 36.4695 109.409 36.0479 110.673 35.2047C112.149 34.1506 113.414 32.8858 114.046 31.4102C114.257 31.1994 114.257 30.9885 114.257 30.5669L110.463 10.5403H116.998Z" fill="#CDD0D8"/>
<path d="M11.8052 9.6971C14.124 9.6971 16.0213 10.1187 17.0753 10.7511L15.5997 15.1781C14.7564 14.7565 13.2808 14.3348 11.8052 14.3348C10.1187 14.3348 8.85387 15.1781 8.85387 16.4429C8.85387 17.4969 9.6971 18.1294 11.1727 18.9726C13.4916 20.4482 15.5997 22.3455 15.5997 24.8752C15.5997 29.7237 11.5944 32.675 6.11339 32.4642C3.58371 32.4642 1.26484 31.8318 0 30.9885L1.47564 26.5616C2.52968 27.194 4.63774 28.0373 6.535 27.8264C8.22145 27.8264 9.27548 26.9832 9.27548 25.7184C9.27548 24.6644 8.64306 23.8211 6.74581 22.7671C4.42693 21.5023 2.74048 19.605 2.74048 17.0753M16.8645 31.621L22.3455 6.535L29.0913 0.421614L26.7724 12.8592C28.4589 10.9619 30.5669 9.6971 33.3074 9.6971C36.4695 9.6971 38.3668 11.8052 38.3668 15.3889C38.3668 16.4429 38.156 17.9185 37.9452 19.1834L35.6263 31.621H29.5129L31.8318 19.3942C32.0426 18.551 32.0426 17.7077 32.0426 16.8645C32.0426 15.5997 31.4102 14.5456 30.1453 14.5456C28.2481 14.5456 26.14 16.8645 25.2968 20.8698L23.1887 31.4102H16.8645V31.621ZM52.4908 9.6971C58.1826 9.6971 60.9231 13.9132 60.9231 18.3402C60.9231 25.9292 56.0745 32.4642 48.6963 32.4642C43.2153 32.4642 40.264 28.6697 40.264 23.8211M46.3774 23.8211C46.3774 26.14 47.2206 27.8264 49.3287 27.8264C52.7016 27.8264 54.3881 21.9239 54.3881 18.1294C54.3881 16.2321 53.7556 14.3348 51.4368 14.3348C48.2747 14.5456 46.3774 20.2374 46.3774 23.8211ZM70.4093 10.5403L69.9877 12.6484C71.6742 10.5403 73.993 9.27548 76.5227 9.27548C80.9497 9.27548 82.8469 13.2808 82.8469 17.2861C82.8469 24.8752 77.9984 32.2534 70.831 32.2534C69.5661 32.4642 68.0905 31.621 67.4581 31.621H67.2472L65.5608 40.0532H59.4474L63.6635 17.7077M68.0905 26.9832C68.7229 27.6156 69.5661 27.8264 70.6201 27.8264C73.993 27.8264 76.5227 22.1347 76.5227 18.1294C76.5227 16.4429 75.8903 14.7564 73.993 14.7564C71.885 14.7564 69.7769 17.2861 69.1445 21.0806L68.0905 26.9832ZM83.2685 31.621L87.4847 15.5997L93.8089 10.5403L89.5927 31.621H83.2685ZM91.9116 1.05403C93.8089 1.05403 95.0737 2.52968 95.0737 4.42694C95.0737 6.74581 93.3872 8.43226 91.49 8.43226C89.8035 8.43226 88.5387 6.7458 88.5387 4.84855M108.776 0C110.252 0 111.517 0.210805 112.149 0.632418L110.884 5.48097C110.252 5.27016 109.619 5.05935 108.987 5.05935C106.879 5.05935 105.614 7.16742 105.403 9.27548L104.982 10.5403H109.198L108.354 14.7564H104.138L100.765 31.621H94.8629L98.2358 14.7564H95.2845L96.1277 10.5403H99.079L99.2898 9.27548M116.998 10.5403L118.052 20.0266C118.262 22.1347 118.473 23.1887 118.684 25.2968C119.106 23.1887 119.527 22.5563 120.581 20.2374L124.376 10.5403H130.7L123.111 26.5616C120.37 32.0426 117.841 36.0479 114.889 38.7884C112.781 40.8965 110.041 41.7397 108.776 42.1613L107.09 36.8911C108.144 36.4695 109.409 36.0479 110.673 35.2047C112.149 34.1506 113.414 32.8858 114.046 31.4102C114.257 31.1994 114.257 30.7777 114.257 30.3561L112.781 15.1781L116.998 10.5403Z" fill="#CDD0D8"/>
</svg>
