<svg width="205" height="60" viewBox="0 0 205 60" fill="none" xmlns="http://www.w3.org/2000/svg">
<g clip-path="url(#clip0_1103_56)">
<path d="M77.2956 25.3056C77.2956 19.024 75.5018 15.8 71.9175 15.6232C70.4905 15.556 69.0988 15.7832 67.7431 16.3088C66.662 16.6952 65.9333 17.0784 65.5505 17.4648V32.4568C67.844 33.8944 69.8812 34.5632 71.6573 34.4584C75.4153 34.2184 77.2964 31.1624 77.2964 25.3064L77.2956 25.3056ZM81.7183 25.5664C81.7183 28.7664 80.9696 31.4064 79.4625 33.5128C77.7833 35.8968 75.4562 37.124 72.4797 37.1912C70.2375 37.2712 67.9264 36.5608 65.5481 35.0888V48.7152L61.7012 47.344V17.0992C62.3322 16.3256 63.145 15.6616 64.1291 15.0976C66.4194 13.7648 69.2005 13.0792 72.4733 13.0456L72.5277 13.1C75.5203 13.0624 77.8265 14.2896 79.4465 16.7784C80.9576 19.0616 81.7151 21.9784 81.7151 25.5656L81.7183 25.5664ZM105.227 34.5088C105.227 38.7888 104.798 41.7528 103.939 43.4008C103.081 45.0488 101.435 46.3648 99.0112 47.3448C97.0461 48.1184 94.9208 48.5392 92.6394 48.6104L92.0035 46.1888C94.3226 45.8736 95.9554 45.5584 96.9019 45.2432C98.7661 44.6128 100.046 43.6456 100.748 42.3504C101.312 41.2944 101.589 39.2816 101.589 36.3008V35.3008C98.9938 36.4859 96.1726 37.0956 93.3192 37.088C91.4902 37.1133 89.7135 36.4788 88.3151 35.3008C86.6992 34.0016 85.8912 32.3536 85.8912 30.3568V14.3568L89.7373 13.0408V29.1368C89.7373 30.8568 90.2931 32.1808 91.4029 33.1096C92.5128 34.0384 93.9534 34.4856 95.7168 34.4504C97.4801 34.4152 99.3699 33.7304 101.377 32.3984V13.6264H105.223V34.5088H105.227ZM120.241 36.9888L118.975 37.0432C116.799 37.0432 115.103 36.5264 113.891 35.488C112.684 34.4496 112.078 33.008 112.078 31.1872V16.0512H109.435V13.6336H112.078V7.2064L115.92 5.84V13.6264H120.241V16.044H115.92V31.0744C115.92 32.5168 116.306 33.5384 117.081 34.1352C117.745 34.6272 118.802 34.9088 120.241 34.98V36.9816V36.9888ZM143.531 36.6736H139.684V21.84C139.684 20.3304 139.332 19.04 138.627 17.9472C137.815 16.7192 136.687 16.1056 135.24 16.1056C133.477 16.1056 131.271 17.0336 128.626 18.8928V36.664H124.78V1.2112L128.626 0V16.1488C131.084 14.3616 133.768 13.4664 136.685 13.4664C138.722 13.4664 140.372 14.152 141.634 15.5184C142.9 16.8848 143.531 18.5872 143.531 20.6224V36.6664L143.531 36.6736ZM163.977 24.7C163.977 22.2864 163.518 20.2936 162.605 18.7176C161.519 16.796 159.832 15.7832 157.551 15.6776C153.334 15.9216 151.229 18.94 151.229 24.7176C151.229 27.3704 151.667 29.5864 152.551 31.3576C153.678 33.624 155.369 34.7416 157.626 34.704C161.86 34.6704 163.976 31.332 163.976 24.6848L163.977 24.7ZM168.189 24.7256C168.189 28.1608 167.31 31.0192 165.546 33.3016C163.615 35.8576 160.947 37.14 157.542 37.14C154.167 37.14 151.536 35.8576 149.638 33.3016C147.916 31.0184 147.058 28.16 147.058 24.7256C147.058 21.4968 147.987 18.7816 149.848 16.5696C151.813 14.2232 154.396 13.0464 157.592 13.0464C160.787 13.0464 163.387 14.224 165.39 16.5696C167.25 18.7808 168.179 21.4976 168.179 24.7256H168.189ZM190.241 36.6656H186.395V20.992C186.395 19.272 185.878 17.9312 184.841 16.964C183.806 16.0016 182.425 15.5344 180.704 15.572C178.879 15.6056 177.141 16.2024 175.499 17.3592V36.6656H171.653V16.8848C173.867 15.2744 175.904 14.2232 177.763 13.7312C179.525 13.2728 181.066 13.0456 182.408 13.0456C183.321 13.0456 184.18 13.1256 184.988 13.3096C186.499 13.6584 187.727 14.3064 188.675 15.256C189.732 16.3072 190.257 17.576 190.257 19.044V36.664L190.241 36.6656Z" fill="#646464"/>
<path d="M23.7111 1.35191C21.7332 1.35991 19.8417 1.5295 18.1793 1.8319C13.2801 2.6959 12.3912 4.5063 12.3912 7.8439V12.2439H23.9673V13.7135H8.0478C4.68452 13.7135 1.73764 15.7335 0.816744 19.5775C-0.245892 23.9831 -0.293139 26.7319 0.816744 31.3311C1.63995 34.7551 3.60506 37.1951 6.96915 37.1951H10.949V31.9111C10.949 28.0935 14.2563 24.7271 18.1801 24.7271H29.7434C32.9625 24.7271 35.5314 22.0871 35.5314 18.8503V7.8359C35.5314 4.7015 32.8848 2.3479 29.7434 1.8239C27.7496 1.49828 25.7313 1.34039 23.7111 1.35191ZM17.4506 4.89591C18.6461 4.89591 19.6231 5.88791 19.6231 7.10631C19.6231 8.32071 18.6461 9.3031 17.4506 9.3031C16.2494 9.3031 15.2781 8.32071 15.2781 7.10631C15.2781 5.88711 16.2502 4.89591 17.4506 4.89591Z" fill="url(#paint0_linear_1103_56)"/>
<path d="M36.975 13.7136V18.8496C36.975 22.8312 33.5957 26.1824 29.7439 26.1824H18.1806C15.0135 26.1824 12.3926 28.8904 12.3926 32.0592V43.072C12.3926 46.2064 15.1208 48.0496 18.1806 48.9488C21.845 50.0256 25.3588 50.2208 29.7439 48.9488C32.6587 48.1056 35.532 46.4096 35.532 43.072V38.672H23.9671V37.2024H41.32C44.6833 37.2024 45.9381 34.8584 47.108 31.3384C48.3172 27.716 48.2652 24.232 47.108 19.5848C46.2768 16.2384 44.6897 13.7208 41.32 13.7208H36.9758L36.975 13.7136ZM30.4726 41.6016C31.6738 41.6016 32.6451 42.584 32.6451 43.7984C32.6451 45.0176 31.673 46.0088 30.4726 46.0088C29.2771 46.0088 28.3001 45.0168 28.3001 43.7984C28.3001 42.584 29.2771 41.6016 30.4726 41.6016Z" fill="url(#paint1_linear_1103_56)"/>
<path d="M197.73 10.2001H198.405V5.97446H200.002V5.47046H196.133V5.97446H197.73V10.2001ZM200.6 10.2001H201.177V6.34086L202.428 10.1993H203.068L204.371 6.35366V10.2001H205V5.47206H204.169L202.745 9.52326L201.53 5.47206H200.601V10.2001" fill="#646464"/>
<path opacity="0.444" d="M24.0995 59.4399C32.6674 59.4399 39.613 58.0943 39.613 56.4343C39.613 54.7744 32.6674 53.4287 24.0995 53.4287C15.5316 53.4287 8.58594 54.7744 8.58594 56.4343C8.58594 58.0943 15.5316 59.4399 24.0995 59.4399Z" fill="url(#paint2_radial_1103_56)"/>
</g>
<defs>
<linearGradient id="paint0_linear_1103_56" x1="-5.2693e-05" y1="1.35271" x2="26.4555" y2="24.3567" gradientUnits="userSpaceOnUse">
<stop stop-color="#5A9FD4"/>
<stop offset="1" stop-color="#306998"/>
</linearGradient>
<linearGradient id="paint1_linear_1103_56" x1="30.1931" y1="43.4288" x2="20.7499" y2="29.9266" gradientUnits="userSpaceOnUse">
<stop stop-color="#FFD43B"/>
<stop offset="1" stop-color="#FFE873"/>
</linearGradient>
<radialGradient id="paint2_radial_1103_56" cx="0" cy="0" r="1" gradientUnits="userSpaceOnUse" gradientTransform="translate(24.0995 56.4347) rotate(-90) scale(3.00529 13.2224)">
<stop stop-color="#B8B8B8" stop-opacity="0.498"/>
<stop offset="1" stop-color="#7F7F7F" stop-opacity="0"/>
</radialGradient>
<clipPath id="clip0_1103_56">
<rect width="205" height="60" fill="white"/>
</clipPath>
</defs>
</svg>
