<svg width="141" height="54" viewBox="0 0 141 54" fill="none" xmlns="http://www.w3.org/2000/svg">
<path d="M72.9173 36L68.544 28.4013H66.166V36H63.05V17.0033H69.61C71.0678 17.0033 72.2978 17.2584 73.3 17.7687C74.3204 18.2789 75.0767 18.9622 75.5687 19.8187C76.0789 20.6751 76.334 21.6318 76.334 22.6887C76.334 23.9278 75.9696 25.0576 75.2407 26.078C74.53 27.0802 73.4276 27.7636 71.9333 28.128L76.6347 36H72.9173ZM66.166 25.914H69.61C70.7762 25.914 71.6509 25.6224 72.234 25.0393C72.8353 24.4562 73.136 23.6727 73.136 22.6887C73.136 21.7047 72.8444 20.9393 72.2613 20.3927C71.6782 19.8278 70.7944 19.5453 69.61 19.5453H66.166V25.914ZM94.1235 28.1007C94.1235 28.6656 94.0871 29.1758 94.0142 29.6313H82.5069C82.598 30.834 83.0444 31.7998 83.8462 32.5287C84.648 33.2576 85.632 33.622 86.7982 33.622C88.4746 33.622 89.6591 32.9204 90.3515 31.5173H93.7135C93.258 32.9022 92.4289 34.0411 91.2262 34.934C90.0417 35.8087 88.5657 36.246 86.7982 36.246C85.3586 36.246 84.0649 35.9271 82.9169 35.2893C81.7871 34.6333 80.8942 33.7222 80.2382 32.556C79.6004 31.3716 79.2815 30.0049 79.2815 28.456C79.2815 26.9071 79.5913 25.5496 80.2109 24.3833C80.8486 23.1989 81.7324 22.2878 82.8622 21.65C84.0102 21.0122 85.3222 20.6933 86.7982 20.6933C88.2195 20.6933 89.486 21.0031 90.5975 21.6227C91.7091 22.2422 92.5746 23.1169 93.1942 24.2467C93.8137 25.3582 94.1235 26.6429 94.1235 28.1007ZM90.8709 27.1167C90.8526 25.9687 90.4426 25.0484 89.6409 24.356C88.8391 23.6636 87.846 23.3173 86.6615 23.3173C85.5864 23.3173 84.6662 23.6636 83.9009 24.356C83.1355 25.0302 82.68 25.9504 82.5342 27.1167H90.8709ZM96.1513 28.4013C96.1513 26.8889 96.4611 25.5496 97.0806 24.3833C97.7184 23.2171 98.5749 22.3151 99.65 21.6773C100.743 21.0213 101.946 20.6933 103.258 20.6933C104.442 20.6933 105.472 20.9302 106.347 21.404C107.24 21.8596 107.95 22.4336 108.479 23.126V20.9393H111.622V36H108.479V33.7587C107.95 34.4693 107.23 35.0616 106.319 35.5353C105.408 36.0091 104.37 36.246 103.203 36.246C101.91 36.246 100.725 35.918 99.65 35.262C98.5749 34.5878 97.7184 33.6584 97.0806 32.474C96.4611 31.2713 96.1513 29.9138 96.1513 28.4013ZM108.479 28.456C108.479 27.4173 108.26 26.5153 107.823 25.75C107.404 24.9847 106.848 24.4016 106.155 24.0007C105.463 23.5998 104.716 23.3993 103.914 23.3993C103.112 23.3993 102.365 23.5998 101.673 24.0007C100.98 24.3833 100.415 24.9573 99.978 25.7227C99.5589 26.4698 99.3493 27.3627 99.3493 28.4013C99.3493 29.44 99.5589 30.3511 99.978 31.1347C100.415 31.9182 100.98 32.5196 101.673 32.9387C102.383 33.3396 103.13 33.54 103.914 33.54C104.716 33.54 105.463 33.3396 106.155 32.9387C106.848 32.5378 107.404 31.9547 107.823 31.1893C108.26 30.4058 108.479 29.4947 108.479 28.456ZM114.676 28.456C114.676 26.9071 114.986 25.5496 115.605 24.3833C116.243 23.1989 117.118 22.2878 118.229 21.65C119.341 21.0122 120.616 20.6933 122.056 20.6933C123.878 20.6933 125.382 21.1307 126.566 22.0053C127.769 22.8618 128.58 24.0918 128.999 25.6953H125.637C125.363 24.9482 124.926 24.3651 124.325 23.946C123.723 23.5269 122.967 23.3173 122.056 23.3173C120.78 23.3173 119.76 23.7729 118.995 24.684C118.248 25.5769 117.874 26.8342 117.874 28.456C117.874 30.0778 118.248 31.3442 118.995 32.2553C119.76 33.1664 120.78 33.622 122.056 33.622C123.86 33.622 125.054 32.8293 125.637 31.244H128.999C128.561 32.7747 127.741 33.9956 126.539 34.9067C125.336 35.7996 123.842 36.246 122.056 36.246C120.616 36.246 119.341 35.9271 118.229 35.2893C117.118 34.6333 116.243 33.7222 115.605 32.556C114.986 31.3716 114.676 30.0049 114.676 28.456ZM135.739 23.4813V31.818C135.739 32.3829 135.867 32.7929 136.122 33.048C136.395 33.2849 136.851 33.4033 137.489 33.4033H139.402V36H136.942C135.539 36 134.464 35.672 133.717 35.016C132.97 34.36 132.596 33.294 132.596 31.818V23.4813H130.819V20.9393H132.596V17.1947H135.739V20.9393H139.402V23.4813H135.739Z" fill="#CDD0D8"/>
<path d="M47.7509 28.5262C47.2653 27.8967 46.7384 27.2669 46.1753 26.6396C46.555 26.1999 46.9228 25.75 47.2783 25.2905C50.8659 20.6387 51.8845 16.4187 50.1464 13.4083C48.4084 10.3978 44.245 9.17009 38.4221 9.95119C37.7935 10.0363 37.1675 10.14 36.545 10.262C36.334 9.64283 36.1043 9.0302 35.8562 8.42495C33.6213 2.99204 30.4761 0 27 0C23.5239 0 20.3787 2.99204 18.1439 8.42495C17.8958 9.0302 17.6661 9.64283 17.4551 10.262C16.8326 10.14 16.2066 10.0364 15.578 9.95119C9.75575 9.17019 5.59185 10.3978 3.85372 13.4083C2.1156 16.4188 3.13421 20.6387 6.72184 25.2905C7.07721 25.7501 7.44501 26.2 7.82483 26.6396C7.26163 27.2669 6.73481 27.8966 6.24923 28.5262C2.66161 33.178 1.64299 37.398 3.38112 40.4083C4.77763 42.8272 7.73919 44.095 11.8697 44.095C12.8799 44.095 13.961 44.0191 15.1053 43.8655C15.8424 43.7666 16.5977 43.6362 17.3672 43.4775C17.6093 44.2035 17.868 44.9044 18.1439 45.5752C20.3787 51.008 23.5239 54 27 54C30.4761 54 33.6213 51.008 35.8561 45.5751C36.132 44.9043 36.3907 44.2034 36.6328 43.4774C37.4023 43.6361 38.1576 43.7666 38.8947 43.8654C40.0393 44.019 41.1197 44.0949 42.1303 44.0949C46.2604 44.0949 49.2226 42.827 50.6189 40.4082C52.3571 37.3979 51.3385 33.178 47.7509 28.5262ZM41.6755 12.8805C44.5677 12.8805 46.6119 13.6146 47.4062 14.9903C48.4455 16.7904 47.4856 19.8404 44.7727 23.3581C44.5089 23.6994 44.2374 24.0348 43.9585 24.3639C42.3724 22.8549 40.5869 21.3783 38.6444 19.9711C38.3761 17.6279 37.9726 15.3888 37.4451 13.307C38.9938 13.0212 40.4158 12.8805 41.6755 12.8805ZM31.2003 34.5929C29.778 35.414 28.3744 36.1506 27.0009 36.8055C25.572 36.1234 24.1705 35.3853 22.7997 34.5929C21.2298 33.6865 19.7274 32.7272 18.31 31.7307C18.1871 30.1568 18.126 28.5787 18.1267 27C18.1267 25.1651 18.2072 23.4036 18.3553 21.7264C19.6461 20.8408 20.971 20.006 22.327 19.2238C23.9132 18.308 25.476 17.4986 26.9999 16.7891C28.5239 17.4986 30.0866 18.308 31.6729 19.2238C33.0289 20.006 34.3538 20.8408 35.6446 21.7264C35.7927 23.4036 35.8732 25.1651 35.8732 27C35.8732 28.638 35.8089 30.2172 35.6899 31.7307C34.2726 32.7272 32.7702 33.6865 31.2003 34.5929ZM35.2073 35.8598C34.9953 37.2066 34.7381 38.4824 34.4428 39.678C33.2693 39.337 32.0466 38.9244 30.7855 38.4383C31.4576 38.0817 32.1233 37.7132 32.7823 37.3331C33.6014 36.8599 34.4099 36.3687 35.2073 35.8598ZM23.2143 38.4382C21.953 38.9244 20.7306 39.3366 19.557 39.6776C19.2618 38.4822 19.0046 37.2065 18.7926 35.8598C19.59 36.3687 20.3985 36.8599 21.2176 37.333C21.8765 37.7132 22.5422 38.0817 23.2143 38.4382ZM15.0012 29.2089C13.9993 28.3789 13.0605 27.5332 12.1943 26.6797C13.0721 25.8426 14.018 25.0147 15.0241 24.2029C14.9833 25.1347 14.9628 26.0673 14.9626 27C14.9626 27.7413 14.976 28.4779 15.0012 29.2089ZM18.8802 17.6036C19.0929 16.3429 19.3456 15.1479 19.632 14.0254C20.7561 14.3396 21.9277 14.721 23.1365 15.1704C22.3301 15.5912 21.5328 16.029 20.7451 16.4837C20.1171 16.8464 19.4954 17.2198 18.8802 17.6036ZM30.8634 15.1703C32.0722 14.7209 33.2437 14.3394 34.368 14.0253C34.6544 15.1479 34.9071 16.3429 35.1198 17.6036C34.5046 17.2198 33.8829 16.8464 33.255 16.4837C32.4673 16.029 31.6699 15.5911 30.8634 15.1703ZM38.9759 24.2029C39.982 25.0147 40.9279 25.8426 41.8057 26.6797C40.9395 27.5332 40.0007 28.3789 38.9988 29.2089C39.0243 28.4729 39.0372 27.7365 39.0374 27C39.0374 26.0593 39.0163 25.1262 38.9759 24.2029ZM27 3.16406C29.2886 3.16406 31.7196 6.07532 33.4573 11.0001C31.3637 11.5885 29.1933 12.3686 27 13.3223C24.8067 12.3686 22.6363 11.5886 20.5427 11.0001C22.2804 6.07532 24.7114 3.16406 27 3.16406ZM6.5938 14.9904C7.38819 13.6145 9.43144 12.8806 12.3244 12.8806C13.5841 12.8806 15.0062 13.0213 16.555 13.3072C16.0273 15.3891 15.624 17.6282 15.3557 19.9712C13.4132 21.3784 11.6277 22.855 10.0416 24.364C9.76268 24.0349 9.4912 23.6995 9.22735 23.3582C6.51438 19.8405 5.55451 16.7905 6.5938 14.9904ZM11.8518 40.9361C8.95968 40.9359 6.91548 40.2019 6.12119 38.8263C5.08191 37.0262 6.04178 33.9762 8.75464 30.4585C9.15264 29.9437 9.56746 29.442 9.99844 28.9544C11.5667 30.4962 13.3466 32.0085 15.2928 33.4526C15.5489 35.9064 15.9512 38.2536 16.489 40.4322C14.7815 40.7708 13.2211 40.9362 11.8518 40.9361ZM27 50.8359C24.667 50.8359 22.1863 47.81 20.4427 42.7105C22.5717 42.0916 24.7762 41.2767 27 40.2861C29.2238 41.2767 31.4283 42.0916 33.5573 42.7105C31.8137 47.81 29.333 50.8359 27 50.8359ZM47.8788 38.8263C46.7085 40.8534 42.826 41.4863 37.5109 40.4322C38.0488 38.2536 38.451 35.9064 38.7071 33.4526C40.6533 32.0085 42.4333 30.4962 44.0015 28.9544C44.4324 29.4421 44.8472 29.9437 45.2452 30.4585C47.9583 33.9762 48.9182 37.0262 47.8788 38.8263Z" fill="#CDD0D8"/>
<path d="M27 31.8885C29.6998 31.8885 31.8885 29.6999 31.8885 27.0001C31.8885 24.3002 29.6998 22.1116 27 22.1116C24.3002 22.1116 22.1115 24.3002 22.1115 27.0001C22.1115 29.6999 24.3002 31.8885 27 31.8885Z" fill="#CDD0D8"/>
</svg>
