<svg width="131" height="46" viewBox="0 0 131 46" fill="none" xmlns="http://www.w3.org/2000/svg">
<path d="M41.063 0C40.0423 0 38.978 0.059966 37.8863 0.190803L38.5195 2.14245C39.4747 2.04432 40.4353 2.01161 41.396 2.01161H41.7235L41.0685 0H41.063ZM53.6991 1.95165L53.5681 4.13226C54.6597 4.49751 55.7187 4.88457 56.7776 5.31524L56.9195 3.11282C56.6193 2.94928 55.7842 2.54586 53.6991 1.95165ZM26.4729 3.2055C25.5992 3.6537 24.7382 4.12635 23.8911 4.62289L25.4195 6.94525C26.2764 6.41645 27.1006 5.90945 27.963 5.48424L26.4729 3.2055ZM42.2475 3.32543C41.0557 3.30496 39.8638 3.35411 38.6777 3.47262C36.2597 3.69069 33.7161 4.39393 31.1452 5.51695C23.4053 8.88599 15.4362 15.973 10.2235 24.6518C5.01075 33.3252 3.17675 41.0064 2.58179 44.2937C2.37983 45.3949 2.30888 46 2.30888 46H28.4543C28.4543 46 28.1432 44.5826 27.9303 42.3039C27.8106 40.977 27.7505 39.6455 27.7502 38.3133C27.7502 35.315 28.0504 31.7552 29.082 28.1844C29.3385 27.2958 29.6442 26.3963 29.999 25.5132C30.3538 24.63 30.7632 23.7632 31.2271 22.9019C32.155 21.1901 33.3067 19.5328 34.7532 18.0282C36.1997 16.5236 37.9409 15.1662 40.0096 14.0159C41.3633 13.3617 43.8195 12.0261 47.3565 11.3501C48.5355 11.1266 49.8291 10.9685 51.2483 10.9358C52.6675 10.9085 54.2067 11.0012 55.8606 11.2629C59.1683 11.7917 62.9455 13.0073 67.1866 15.297C69.3045 16.4473 71.5424 17.8592 73.8895 19.5928C74.4899 19.1022 75.0412 18.7096 75.0412 18.7096C75.0412 18.7096 73.9713 17.6357 72.0555 16.0602C70.145 14.4793 67.3995 12.3968 64.0481 10.3743C62.3778 9.36027 60.5438 8.35719 58.6007 7.44134C56.6038 6.50214 54.5448 5.7007 52.4382 5.04267C50.2528 4.36561 48.0143 3.87324 45.7463 3.57075C44.587 3.42731 43.4209 3.34542 42.253 3.32543H42.2475ZM53.6336 12.3205L53.508 14.4084C54.5997 14.4411 55.6914 14.5719 56.783 14.8009L56.9195 12.7566C55.8358 12.5344 54.7378 12.3887 53.6336 12.3205ZM45.8937 13.1164C44.7692 13.4489 43.814 13.8087 42.9844 14.174L43.7431 16.4527C44.6983 15.9893 45.659 15.5968 46.6196 15.3024L45.8937 13.1164ZM13.1 13.2472C12.243 14.0704 11.4079 14.899 10.6492 15.7277L13.1982 17.9083C13.8915 17.0197 14.6556 16.1256 15.4471 15.3024L13.1 13.2472ZM36.7892 18.1427C36.025 18.8405 35.3372 19.5982 34.7423 20.3615L36.3307 22.7329C36.8929 21.9097 37.5533 21.1519 38.2847 20.3887L36.7892 18.1427ZM42.1875 22.433V46H48.541V40.3141L54.0375 46H63.4313L56.0571 38.5641C56.0571 38.5641 61.8429 38.0735 61.8429 30.6049C61.8429 23.1363 54.829 22.433 54.829 22.433H42.1875ZM71.073 22.6075C66.477 22.6075 64.9269 26.767 64.9269 28.7514V46H71.3732V41.8677H77.4319V46H83.6872V28.7514C83.6872 23.7251 79.1131 22.6075 77.5247 22.6075H71.073ZM86.6292 22.6075V45.9945H93.343V22.6075H86.6292ZM96.0885 22.6075V46H111.808V39.9488H102.769V22.6075H96.0885ZM119.881 22.6075C117.234 22.6075 113.697 24.7826 113.697 28.844V30.932C113.697 34.9988 117.201 37.0758 119.881 37.0758C127.327 37.1086 118.096 37.0758 124.974 37.0758V39.9815L114.03 40.0142V46H124.848C127.065 46 130.869 44.3809 131 39.8561V37.5447C131 33.6741 127.829 31.3899 124.848 31.3899H119.456V28.6205H130.138V22.6075H119.881ZM30.9378 27.3612C30.5342 28.5505 30.2024 29.7629 29.9444 30.9919L32.619 33.1071C32.7555 31.8206 32.9956 30.534 33.3286 29.242L30.9378 27.3612ZM73.3545 28.179H75.5761C77.361 28.179 77.3992 29.4655 77.3992 29.4655V35.1896H71.3404V29.4655C71.3404 29.4655 71.335 28.179 73.3545 28.179ZM48.541 28.3479H53.6336C53.6336 28.3479 55.0637 28.8767 55.0637 31.0192C55.0637 33.1726 53.6008 33.7395 53.6008 33.7395H48.541V28.3479ZM1.65387 28.6805C1.02617 30.0979 0.332958 31.7497 0 32.6438L3.80446 34.0339C4.24112 32.9109 4.92887 31.2863 5.45833 30.0652L1.65387 28.6805ZM29.4477 39.3818C29.5132 41.1318 29.6824 42.5655 29.8516 43.5523L33.8144 44.9697C33.4809 43.5535 33.2186 42.1216 33.0284 40.6793L29.4477 39.3818Z" fill="#CD0001"/>
</svg>
