<svg width="80" height="80" viewBox="0 0 80 80" fill="none" xmlns="http://www.w3.org/2000/svg">
<path d="M73.734 63.6286H6.24865C2.74941 63.6286 0 60.8792 0 57.3799V18.7633C0 15.2641 2.74941 12.5146 6.24865 12.5146H6.74854C7.49838 12.5146 7.99827 13.0145 7.99827 13.7644C7.99827 14.5142 7.49838 15.0141 6.74854 15.0141H6.24865C4.12411 15.0141 2.49946 16.6388 2.49946 18.7633V57.3799C2.49946 59.5045 4.12411 61.1291 6.24865 61.1291H73.734C75.8586 61.1291 77.4832 59.5045 77.4832 57.3799V18.7633C77.4832 16.6388 75.8586 15.0141 73.734 15.0141H35.2424C34.4925 15.0141 33.9926 14.5142 33.9926 13.7644C33.9926 13.0145 34.4925 12.5146 35.2424 12.5146H73.734C77.2333 12.5146 79.9827 15.2641 79.9827 18.7633V57.3799C79.9827 60.8792 77.2333 63.6286 73.734 63.6286Z" fill="#BCBCBC"/>
<path d="M78.733 56.0051H1.24973C0.499892 56.0051 0 55.5052 0 54.7553C0 54.0055 0.499892 53.5056 1.24973 53.5056H78.733C79.4828 53.5056 79.9827 54.0055 79.9827 54.7553C79.9827 55.5052 79.4828 56.0051 78.733 56.0051ZM48.6145 71.7517H31.3682C30.6184 71.7517 30.1185 71.2518 30.1185 70.5019V62.3787C30.1185 61.6289 30.6184 61.129 31.3682 61.129H48.6145C49.3643 61.129 49.8642 61.6289 49.8642 62.3787V70.5019C49.8642 71.2518 49.3643 71.7517 48.6145 71.7517ZM32.6179 69.2522H47.3648V63.6284H32.6179V69.2522Z" fill="#BCBCBC"/>
<path d="M53.9884 80H25.9944C24.2448 80 22.8701 78.6253 22.8701 76.8757V72.3766C22.8701 70.627 24.2448 69.2523 25.9944 69.2523H53.9884C55.738 69.2523 57.1127 70.627 57.1127 72.3766V76.8757C57.1127 78.6253 55.738 80 53.9884 80ZM25.9944 71.7518C25.7445 71.7518 25.3696 72.1267 25.3696 72.3766V76.8757C25.3696 77.1256 25.4946 77.5005 25.9944 77.5005H53.9884C54.2383 77.5005 54.6133 77.3756 54.6133 76.8757V72.3766C54.6133 72.1267 54.4883 71.7518 53.9884 71.7518H25.9944ZM41.866 59.8793H38.1168C37.367 59.8793 36.8671 59.3795 36.8671 58.6296C36.8671 57.8798 37.367 57.3799 38.1168 57.3799H41.866C42.6159 57.3799 43.1157 57.8798 43.1157 58.6296C43.1157 59.3795 42.6159 59.8793 41.866 59.8793ZM20.9955 30.7607C19.7458 30.7607 18.621 30.6357 17.4963 30.3857C16.8714 30.2608 16.4965 29.6359 16.6215 29.011C16.8714 27.6363 16.4965 26.8865 16.1216 26.6365C15.8716 26.5116 15.1218 26.8865 14.372 27.8863C13.997 28.3862 13.2472 28.5111 12.7473 28.2612C10.8727 27.0115 9.37304 25.3868 8.24829 23.5122C7.87337 23.0123 8.12331 22.2625 8.62321 21.8876C9.74796 21.0128 9.99791 20.2629 9.99791 20.013C9.87294 19.763 9.1231 19.3881 7.74839 19.3881C7.12353 19.3881 6.49867 19.0132 6.37369 18.3883C5.99877 16.1388 5.99877 13.8893 6.49867 11.8897C6.62364 11.2649 7.2485 10.8899 7.87337 11.0149C8.99813 11.0149 9.87294 10.64 9.99791 10.3901C10.1229 10.1401 9.74796 9.2653 8.74818 8.51546C8.24829 8.14054 8.12331 7.39071 8.49823 6.89081C9.74796 5.01622 11.3726 3.51654 13.2472 2.39179C13.7471 2.01687 14.4969 2.26681 14.8719 2.76671C15.6217 3.89146 16.4965 4.14141 16.7464 4.14141C16.9964 3.89146 17.4963 3.01665 17.3713 1.64195C17.3713 1.01708 17.7462 0.39222 18.3711 0.267247C20.6206 -0.107672 22.8701 -0.107672 24.8697 0.39222C25.4946 0.517193 25.8695 1.14206 25.7445 1.76692C25.4946 3.14163 25.8695 3.89146 26.2444 4.14141C26.4943 4.26638 27.2442 3.89146 27.994 2.89168C28.3689 2.39179 29.1188 2.26681 29.6187 2.51676C31.4933 3.76649 32.9929 5.39114 34.1177 7.26573C34.4926 7.76562 34.2427 8.51546 33.7428 8.89038C32.618 9.76519 32.3681 10.515 32.3681 10.765C32.493 11.0149 33.2429 11.3898 34.4926 11.2649C35.1175 11.1399 35.7423 11.6398 35.8673 12.2647C36.2422 14.5142 36.2422 16.7637 35.7423 18.7632C35.6174 19.3881 34.9925 19.763 34.3676 19.6381C32.9929 19.3881 32.2431 19.763 31.9932 20.1379C31.7432 20.7628 32.493 21.6376 33.2429 22.1375C33.7428 22.5124 33.8677 23.2623 33.6178 23.7622C32.3681 25.6368 30.7434 27.1364 28.8688 28.2612C28.3689 28.6361 27.6191 28.3862 27.2442 27.8863C26.6193 26.8865 25.7445 26.3866 25.2446 26.6365C24.9947 26.7615 24.6197 27.5114 24.7447 28.8861C24.7447 29.5109 24.3698 30.1358 23.7449 30.2608C22.9951 30.6357 21.9953 30.7607 20.9955 30.7607ZM19.1209 28.1362C20.2457 28.2612 21.3704 28.3862 22.4952 28.1362C22.6202 26.3866 23.495 25.0119 24.6197 24.512C25.9944 24.0121 27.4941 24.512 28.7439 25.7617C29.7436 25.1369 30.4935 24.387 31.2433 23.5122C29.9936 22.2625 29.6187 20.6378 30.1186 19.2631C30.7434 18.0134 32.1181 17.2636 33.8677 17.2636C33.9927 16.1388 34.1177 15.0141 33.9927 13.8893C32.2431 13.8893 30.8684 13.0145 30.3685 11.7648C29.8686 10.515 30.3685 9.01535 31.6182 7.76562C30.9934 6.76584 30.2435 6.016 29.3687 5.26617C28.119 6.5159 26.4943 7.01579 25.2446 6.39092C23.9949 5.76606 23.37 4.39136 23.37 2.64173C22.2453 2.51676 21.1205 2.39179 19.9957 2.64173C19.8708 4.51633 19.1209 5.89103 17.7462 6.39092C16.4965 6.89081 14.9968 6.39092 13.7471 5.14119C12.7473 5.76606 11.9975 6.5159 11.2476 7.39071C12.4974 8.64044 12.9973 10.2651 12.3724 11.5148C11.7475 12.7645 10.3728 13.3894 8.62321 13.3894C8.49823 14.5142 8.37326 15.6389 8.62321 16.7637C10.3728 16.8887 11.7475 17.6385 12.2474 18.8882C12.7473 20.1379 12.2474 21.6376 10.9977 22.8874C11.6226 23.8871 12.3724 24.637 13.2472 25.3868C14.4969 24.1371 16.1216 23.6372 17.3713 24.2621C18.3711 25.0119 19.1209 26.3866 19.1209 28.1362Z" fill="#BCBCBC"/>
<path d="M21.1204 23.8872C18.8997 23.8872 16.7699 23.0051 15.1996 21.4348C13.6294 19.8645 12.7472 17.7348 12.7472 15.5141C12.7472 13.2934 13.6294 11.1636 15.1996 9.59332C16.7699 8.02304 18.8997 7.14087 21.1204 7.14087C23.3411 7.14087 25.4708 8.02304 27.0411 9.59332C28.6114 11.1636 29.4936 13.2934 29.4936 15.5141C29.4936 17.7348 28.6114 19.8645 27.0411 21.4348C25.4708 23.0051 23.3411 23.8872 21.1204 23.8872ZM21.1204 9.64033C17.8711 9.64033 15.2467 12.2648 15.2467 15.5141C15.2467 18.7634 17.8711 21.3878 21.1204 21.3878C24.3697 21.3878 26.9941 18.7634 26.9941 15.5141C26.9941 12.2648 24.3697 9.64033 21.1204 9.64033ZM70.2347 50.3815H43.8655C41.366 50.3815 39.4914 48.5069 39.4914 46.0075V23.3874C39.4914 20.8879 41.366 19.0133 43.8655 19.0133H70.3597C72.8592 19.0133 74.7338 20.8879 74.7338 23.3874V46.1324C74.6088 48.5069 72.6092 50.3815 70.2347 50.3815ZM43.8655 21.5128C42.8657 21.5128 41.9909 22.3876 41.9909 23.3874V46.0075C41.9909 47.0072 42.8657 47.8821 43.8655 47.8821H70.2347C71.2345 47.8821 72.1093 47.1322 72.2343 46.0075V23.3874C72.2343 22.3876 71.3595 21.5128 70.3597 21.5128H43.8655Z" fill="#BCBCBC"/>
<path d="M73.3591 29.8858H40.7412C39.9913 29.8858 39.4915 29.3859 39.4915 28.636C39.4915 27.8862 39.9913 27.3863 40.7412 27.3863H73.3591C74.109 27.3863 74.6089 27.8862 74.6089 28.636C74.6089 29.3859 74.109 29.8858 73.3591 29.8858ZM58.4873 25.7617H44.9903C44.2404 25.7617 43.7405 25.2618 43.7405 24.5119C43.7405 23.7621 44.2404 23.2622 44.9903 23.2622H58.4873C59.2372 23.2622 59.7371 23.7621 59.7371 24.5119C59.7371 25.2618 59.2372 25.7617 58.4873 25.7617ZM63.7362 25.7617H62.3615C61.6117 25.7617 61.1118 25.2618 61.1118 24.5119C61.1118 23.7621 61.6117 23.2622 62.3615 23.2622H63.7362C64.486 23.2622 64.9859 23.7621 64.9859 24.5119C64.9859 25.2618 64.486 25.7617 63.7362 25.7617ZM69.11 25.7617H67.7353C66.9855 25.7617 66.4856 25.2618 66.4856 24.5119C66.4856 23.7621 66.9855 23.2622 67.7353 23.2622H69.11C69.8599 23.2622 70.3598 23.7621 70.3598 24.5119C70.3598 25.2618 69.8599 25.7617 69.11 25.7617ZM52.4886 43.5078C52.1137 43.5078 51.8638 43.3829 51.6138 43.1329L47.9896 39.5087C47.7397 39.2587 47.6147 39.0088 47.6147 38.6339C47.6147 38.259 47.7397 38.009 47.9896 37.7591L51.7388 34.1349C52.2387 33.635 52.9885 33.635 53.4884 34.1349C53.9883 34.6347 53.9883 35.3846 53.4884 35.8845L50.6141 38.6339L53.3635 41.3833C53.8633 41.8832 53.8633 42.633 53.3635 43.1329C53.1135 43.3829 52.8636 43.5078 52.4886 43.5078ZM61.6117 43.5078C61.2368 43.5078 60.9868 43.3829 60.7369 43.1329C60.237 42.633 60.237 41.8832 60.7369 41.3833L64.3611 37.7591C64.861 37.2592 65.6108 37.2592 66.1107 37.7591C66.6106 38.259 66.6106 39.0088 66.1107 39.5087L62.4865 43.1329C62.2365 43.3829 61.9866 43.5078 61.6117 43.5078Z" fill="#BCBCBC"/>
<path d="M65.2358 39.8836C64.9859 39.8836 64.6109 39.7586 64.361 39.5087L60.6118 35.8844C60.1119 35.3846 60.1119 34.6347 60.6118 34.1348C61.1117 33.6349 61.8615 33.6349 62.3614 34.1348L66.1106 37.759C66.6105 38.2589 66.6105 39.0088 66.1106 39.5087C65.8607 39.7586 65.6107 39.8836 65.2358 39.8836ZM55.7378 44.7575H55.3629C54.7381 44.6326 54.3631 43.8827 54.4881 43.2579L57.1126 33.51C57.2375 32.8851 57.9874 32.5102 58.6122 32.6352C59.2371 32.7601 59.612 33.51 59.487 34.1348L56.9876 43.8827C56.7376 44.3826 56.2377 44.7575 55.7378 44.7575ZM31.1182 50.3813H11.1225C8.12314 50.3813 5.74866 48.0068 5.74866 45.0075C5.74866 42.0081 8.12314 39.6336 11.1225 39.6336H31.1182C34.1175 39.6336 36.492 42.0081 36.492 45.0075C36.492 48.0068 34.1175 50.3813 31.1182 50.3813ZM11.1225 42.1331C9.62282 42.1331 8.24812 43.5078 8.24812 45.0075C8.24812 46.5072 9.62282 47.8819 11.1225 47.8819H31.1182C32.6178 47.8819 33.9925 46.5072 33.9925 45.0075C33.9925 43.5078 32.6178 42.1331 31.1182 42.1331H11.1225Z" fill="#BCBCBC"/>
<path d="M23.9949 46.2574H12.8723C12.1225 46.2574 11.6226 45.7575 11.6226 45.0077C11.6226 44.2578 12.1225 43.7579 12.8723 43.7579H23.9949C24.7447 43.7579 25.2446 44.2578 25.2446 45.0077C25.2446 45.7575 24.7447 46.2574 23.9949 46.2574Z" fill="#BCBCBC"/>
</svg>
