<svg width="91" height="72" viewBox="0 0 91 72" fill="none" xmlns="http://www.w3.org/2000/svg">
<path d="M6.8941 2.07119C5.61618 2.07509 4.39172 2.58447 3.4881 3.4881C2.58447 4.39172 2.07509 5.61618 2.07119 6.8941V64.3844C2.07119 67.0473 4.23114 69.2221 6.8941 69.2221H83.75C86.4129 69.2221 88.5729 67.0473 88.5729 64.3844V6.8941C88.569 5.61618 88.0596 4.39172 87.156 3.4881C86.2523 2.58447 85.0279 2.07509 83.75 2.07119H6.8941ZM83.75 71.2933H6.8941C5.06431 71.2893 3.3108 70.5597 2.01833 69.2645C0.725864 67.9692 -4.19504e-06 66.2142 0 64.3844V6.8941C0 3.09199 3.09199 0 6.8941 0H83.75C87.5521 0 90.6441 3.09199 90.6441 6.8941V64.3844C90.6441 68.2013 87.5373 71.2933 83.75 71.2933Z" fill="#BCBCBC"/>
<path d="M89.6085 17.3683H1.03559C0.760937 17.3683 0.49753 17.2592 0.303319 17.065C0.109107 16.8708 0 16.6074 0 16.3327C0 16.0581 0.109107 15.7947 0.303319 15.6005C0.49753 15.4063 0.760937 15.2972 1.03559 15.2972H89.6085C89.8831 15.2972 90.1465 15.4063 90.3408 15.6005C90.535 15.7947 90.6441 16.0581 90.6441 16.3327C90.6441 16.6074 90.535 16.8708 90.3408 17.065C90.1465 17.2592 89.8831 17.3683 89.6085 17.3683ZM12.3532 6.9976C11.9059 6.9976 11.4769 7.17529 11.1606 7.49158C10.8443 7.80787 10.6666 8.23684 10.6666 8.68414C10.6666 9.13144 10.8443 9.56042 11.1606 9.8767C11.4769 10.193 11.9059 10.3707 12.3532 10.3707C12.8005 10.3707 13.2294 10.193 13.5457 9.8767C13.862 9.56042 14.0397 9.13144 14.0397 8.68414C14.0397 8.23684 13.862 7.80787 13.5457 7.49158C13.2294 7.17529 12.8005 6.9976 12.3532 6.9976ZM12.3532 12.4419C11.3546 12.4419 10.3969 12.0452 9.69081 11.3391C8.98471 10.633 8.58803 9.67532 8.58803 8.67675C8.58803 7.67817 8.98471 6.7205 9.69081 6.0144C10.3969 5.3083 11.3546 4.91162 12.3532 4.91162C13.3517 4.91162 14.3094 5.3083 15.0155 6.0144C15.7216 6.7205 16.1183 7.67817 16.1183 8.67675C16.1183 9.67532 15.7216 10.633 15.0155 11.3391C14.3094 12.0452 13.3517 12.4419 12.3532 12.4419ZM23.7151 6.9976C23.2678 6.9976 22.8388 7.17529 22.5225 7.49158C22.2063 7.80787 22.0286 8.23684 22.0286 8.68414C22.0286 9.13144 22.2063 9.56042 22.5225 9.8767C22.8388 10.193 23.2678 10.3707 23.7151 10.3707C24.1624 10.3707 24.5914 10.193 24.9077 9.8767C25.224 9.56042 25.4016 9.13144 25.4016 8.68414C25.4016 8.23684 25.224 7.80787 24.9077 7.49158C24.5914 7.17529 24.1624 6.9976 23.7151 6.9976ZM23.7151 12.4419C22.7165 12.4419 21.7589 12.0452 21.0528 11.3391C20.3467 10.633 19.95 9.67532 19.95 8.67675C19.95 7.67817 20.3467 6.7205 21.0528 6.0144C21.7589 5.3083 22.7165 4.91162 23.7151 4.91162C24.7137 4.91162 25.6713 5.3083 26.3774 6.0144C27.0835 6.7205 27.4802 7.67817 27.4802 8.67675C27.4802 9.67532 27.0835 10.633 26.3774 11.3391C25.6713 12.0452 24.7137 12.4419 23.7151 12.4419ZM35.0918 6.9976C34.6445 6.9976 34.2156 7.17529 33.8993 7.49158C33.583 7.80787 33.4053 8.23684 33.4053 8.68414C33.4053 9.13144 33.583 9.56042 33.8993 9.8767C34.2156 10.193 34.6445 10.3707 35.0918 10.3707C35.5391 10.3707 35.9681 10.193 36.2844 9.8767C36.6007 9.56042 36.7784 9.13144 36.7784 8.68414C36.7784 8.23684 36.6007 7.80787 36.2844 7.49158C35.9681 7.17529 35.5391 6.9976 35.0918 6.9976ZM35.0918 12.4419C34.0933 12.4419 33.1356 12.0452 32.4295 11.3391C31.7234 10.633 31.3267 9.67532 31.3267 8.67675C31.3267 7.67817 31.7234 6.7205 32.4295 6.0144C33.1356 5.3083 34.0933 4.91162 35.0918 4.91162C36.0904 4.91162 37.0481 5.3083 37.7542 6.0144C38.4603 6.7205 38.857 7.67817 38.857 8.67675C38.857 9.67532 38.4603 10.633 37.7542 11.3391C37.0481 12.0452 36.0904 12.4419 35.0918 12.4419ZM15.2084 36.0682C14.8396 36.0682 14.4859 36.2147 14.2251 36.4755C13.9643 36.7363 13.8178 37.09 13.8178 37.4589V58.7921C13.8178 60.8485 15.4895 62.5202 17.5311 62.5202H38.7904C39.2793 62.5202 39.7634 62.4237 40.2149 62.2362C40.6663 62.0486 41.0764 61.7738 41.4214 61.4274C41.7664 61.081 42.0396 60.6699 42.2253 60.2177C42.4111 59.7654 42.5057 59.281 42.5037 58.7921V37.4589C42.5038 37.0926 42.3593 36.7411 42.1017 36.4807C41.8441 36.2203 41.4941 36.0721 41.1279 36.0682H15.2084ZM38.7904 64.5914H17.5311C15.9956 64.5875 14.5243 63.9748 13.4399 62.8876C12.3556 61.8005 11.7466 60.3276 11.7466 58.7921V37.4589C11.7466 35.5504 13.3 33.997 15.2084 33.997H41.1279C43.0363 33.997 44.5897 35.5504 44.5897 37.4589V58.7921C44.5897 60.3302 43.9787 61.8053 42.8911 62.8928C41.8036 63.9804 40.3285 64.5914 38.7904 64.5914Z" fill="#BCBCBC"/>
<path d="M36.6896 36.0682C36.415 36.0682 36.1516 35.9591 35.9573 35.7649C35.7631 35.5707 35.654 35.3073 35.654 35.0326V29.0262C35.6521 28.3734 35.5216 27.7274 35.27 27.125C35.0184 26.5227 34.6506 25.9758 34.1876 25.5156C33.7247 25.0554 33.1756 24.6908 32.5718 24.4428C31.9679 24.1948 31.3212 24.0682 30.6684 24.0701H25.6383C24.3251 24.074 23.0668 24.5974 22.1382 25.526C21.2096 26.4546 20.6862 27.7129 20.6823 29.0262V35.0326C20.6823 35.3073 20.5732 35.5707 20.379 35.7649C20.1848 35.9591 19.9214 36.0682 19.6467 36.0682C19.372 36.0682 19.1086 35.9591 18.9144 35.7649C18.7202 35.5707 18.6111 35.3073 18.6111 35.0326V29.0262C18.6111 25.1501 21.7623 21.9841 25.6531 21.9841H30.6832C34.5592 21.9841 37.7104 25.1501 37.7104 29.0262V35.0326C37.7104 35.3073 37.6013 35.5707 37.4071 35.7649C37.2129 35.9591 36.9643 36.0682 36.6896 36.0682ZM28.1682 54.1763C28.2999 54.1763 28.4305 54.2014 28.5528 54.2503L32.2514 55.7741L31.9555 51.7797C31.9354 51.5117 32.0203 51.2465 32.1922 51.0399L34.7812 47.9923L30.8903 47.0603C30.7584 47.027 30.6343 46.9681 30.5251 46.8869C30.416 46.8057 30.3239 46.7037 30.2541 46.5869L28.1682 43.1842L26.0674 46.5869C25.9976 46.7037 25.9056 46.8057 25.7964 46.8869C25.6873 46.9681 25.5632 47.027 25.4312 47.0603L21.5404 47.9923L24.1293 51.0399C24.3065 51.2442 24.3968 51.5097 24.3808 51.7797L24.085 55.7741L27.7687 54.2503C27.8957 54.1995 28.0314 54.1744 28.1682 54.1763ZM33.4201 58.4222C33.2824 58.4195 33.1466 58.3893 33.0207 58.3335L28.1682 56.3363L23.3009 58.3335C23.1371 58.4026 22.9582 58.4284 22.7816 58.4084C22.6049 58.3884 22.4364 58.3232 22.2922 58.2191C22.148 58.1151 22.0331 57.9757 21.9584 57.8143C21.8837 57.653 21.8518 57.4751 21.8658 57.2979L22.2801 52.0607L18.8774 48.0663C18.7606 47.9325 18.6802 47.7709 18.6439 47.597C18.6076 47.4231 18.6166 47.2428 18.6701 47.0735C18.7236 46.9041 18.8197 46.7513 18.9493 46.6298C19.0789 46.5084 19.2375 46.4222 19.41 46.3798L24.5288 45.1371L27.2805 40.6692C27.3726 40.516 27.5027 40.3893 27.6582 40.3013C27.8138 40.2133 27.9894 40.167 28.1682 40.167C28.3469 40.167 28.5225 40.2133 28.6781 40.3013C28.8336 40.3893 28.9638 40.516 29.0558 40.6692L31.7927 45.1371L36.9115 46.3798C37.0826 46.4216 37.2401 46.5063 37.3693 46.6259C37.4985 46.7456 37.5951 46.8962 37.6499 47.0635C37.7046 47.2308 37.7159 47.4094 37.6825 47.5823C37.649 47.7551 37.5721 47.9166 37.4589 48.0515L34.0562 52.0459L34.4557 57.2979C34.468 57.4412 34.4504 57.5854 34.4039 57.7215C34.3574 57.8576 34.2831 57.9825 34.1856 58.0882C34.0882 58.194 33.9698 58.2783 33.838 58.3358C33.7062 58.3933 33.5639 58.4228 33.4201 58.4222ZM65.775 51.2471H68.8522V48.1699C68.8519 47.9387 68.9289 47.7141 69.071 47.5318C69.2131 47.3495 69.4121 47.22 69.6363 47.1639C70.6066 46.9278 71.5347 46.5435 72.388 46.0247C72.586 45.9031 72.819 45.8515 73.0498 45.8784C73.2805 45.9052 73.4956 46.0089 73.6603 46.1726L75.8499 48.3474L78.0098 46.1874L75.8351 44.0127C75.6713 43.8479 75.5676 43.6329 75.5408 43.4022C75.514 43.1714 75.5655 42.9383 75.6871 42.7404C76.2059 41.8871 76.5902 40.959 76.8263 39.9887C76.8796 39.7617 77.0079 39.5594 77.1904 39.4144C77.373 39.2694 77.5992 39.1903 77.8323 39.1898H80.9095V36.1274H77.8175C77.5844 36.1269 77.3582 36.0478 77.1756 35.9028C76.9931 35.7578 76.8648 35.5555 76.8115 35.3285C76.5754 34.3582 76.1912 33.4301 75.6723 32.5768C75.5507 32.3788 75.4992 32.1458 75.526 31.915C75.5528 31.6843 75.6565 31.4692 75.8203 31.3045L77.995 29.1297L75.8351 26.9698L73.6455 29.1445C73.4808 29.3083 73.2657 29.412 73.035 29.4388C72.8042 29.4656 72.5712 29.4141 72.3732 29.2925C71.5201 28.7734 70.5919 28.3892 69.6215 28.1533C69.3973 28.0972 69.1983 27.9677 69.0562 27.7853C68.9141 27.603 68.8371 27.3784 68.8374 27.1473V24.0553H65.775V27.1325C65.7745 27.3656 65.6954 27.5918 65.5504 27.7744C65.4054 27.9569 65.2031 28.0852 64.9761 28.1385C64.0058 28.3746 63.0777 28.7589 62.2244 29.2777C62.0265 29.3993 61.7934 29.4508 61.5626 29.424C61.3319 29.3972 61.1168 29.2935 60.9521 29.1297L58.7774 26.955L56.6026 29.1149L58.7774 31.2897C58.9411 31.4544 59.0448 31.6695 59.0716 31.9002C59.0985 32.131 59.0469 32.364 58.9253 32.562C58.4063 33.4152 58.022 34.3433 57.7861 35.3137C57.7329 35.5407 57.6045 35.743 57.422 35.888C57.2394 36.033 57.0133 36.1121 56.7801 36.1126H53.7029V39.175H56.7801C57.0133 39.1755 57.2394 39.2546 57.422 39.3996C57.6045 39.5446 57.7329 39.7469 57.7861 39.9739C58.0269 40.945 58.4161 41.8732 58.9401 42.7256C59.0617 42.9235 59.1132 43.1566 59.0864 43.3874C59.0596 43.6181 58.9559 43.8332 58.7921 43.9979L56.6026 46.1726L58.7774 48.3326L60.9521 46.1579C61.1168 45.9941 61.3319 45.8904 61.5626 45.8636C61.7934 45.8368 62.0265 45.8883 62.2244 46.0099C63.0825 46.5277 63.9997 46.9124 64.9761 47.1491C65.2003 47.2052 65.3993 47.3347 65.5414 47.517C65.6835 47.6993 65.7605 47.9239 65.7602 48.1551V51.2323L65.775 51.2471ZM69.8878 53.3182H64.7394C64.6034 53.3182 64.4688 53.2915 64.3431 53.2394C64.2175 53.1874 64.1033 53.1111 64.0071 53.0149C63.911 52.9188 63.8347 52.8046 63.7827 52.679C63.7306 52.5533 63.7038 52.4186 63.7038 52.2827V48.9688C63.0717 48.7645 62.458 48.5072 61.8693 48.1995L59.5171 50.5665C59.4209 50.6627 59.3067 50.739 59.1811 50.791C59.0554 50.8431 58.9208 50.8699 58.7848 50.8699C58.6488 50.8699 58.5141 50.8431 58.3884 50.791C58.2628 50.739 58.1486 50.6627 58.0524 50.5665L54.4131 46.9272C54.3147 46.8307 54.2365 46.7156 54.1831 46.5886C54.1297 46.4616 54.1022 46.3252 54.1022 46.1874C54.1022 46.0497 54.1297 45.9133 54.1831 45.7863C54.2365 45.6592 54.3147 45.5442 54.4131 45.4477L56.7801 43.0955C56.4724 42.5068 56.2151 41.8931 56.0108 41.261H52.6821C52.4075 41.261 52.1441 41.1519 51.9499 40.9577C51.7557 40.7634 51.6466 40.5 51.6466 40.2254V35.0918C51.6466 34.8171 51.7557 34.5537 51.9499 34.3595C52.1441 34.1653 52.4075 34.0562 52.6821 34.0562H56.0108C56.2104 33.4246 56.4628 32.8109 56.7653 32.2217L54.4131 29.8546C54.2233 29.6611 54.117 29.4008 54.117 29.1297C54.117 28.8587 54.2233 28.5984 54.4131 28.4048L58.0524 24.7654C58.1489 24.667 58.264 24.5888 58.391 24.5355C58.518 24.4821 58.6544 24.4546 58.7921 24.4546C58.9299 24.4546 59.0663 24.4821 59.1933 24.5355C59.3204 24.5888 59.4354 24.667 59.5319 24.7654L61.8693 27.1177C62.4585 26.8149 63.0722 26.5625 63.7038 26.3632V23.0197C63.7038 22.7451 63.8129 22.4817 64.0071 22.2874C64.2014 22.0932 64.4648 21.9841 64.7394 21.9841H69.8878C70.1625 21.9841 70.4259 22.0932 70.6201 22.2874C70.8143 22.4817 70.9234 22.7451 70.9234 23.0197V26.3484C71.5595 26.5407 72.1661 26.7922 72.7579 27.0881L75.1102 24.7506C75.2066 24.6522 75.3217 24.5741 75.4487 24.5207C75.5757 24.4673 75.7121 24.4398 75.8499 24.4398C75.9876 24.4398 76.124 24.4673 76.251 24.5207C76.3781 24.5741 76.4931 24.6522 76.5896 24.7506L80.2141 28.3752C80.3126 28.4716 80.3907 28.5867 80.4441 28.7138C80.4975 28.8408 80.525 28.9772 80.525 29.1149C80.525 29.2527 80.4975 29.3891 80.4441 29.5161C80.3907 29.6431 80.3126 29.7582 80.2141 29.8546L77.8471 32.2069C78.1578 32.7987 78.424 33.4053 78.6164 34.0414H81.9451C82.2197 34.0414 82.4831 34.1505 82.6773 34.3447C82.8716 34.5389 82.9807 34.8023 82.9807 35.077V40.2106C82.9807 40.4852 82.8716 40.7486 82.6773 40.9429C82.4831 41.1371 82.2197 41.2462 81.9451 41.2462H78.6164C78.4169 41.8778 78.1645 42.4915 77.8619 43.0807L80.2141 45.4477C80.3103 45.5439 80.3866 45.6581 80.4387 45.7837C80.4907 45.9094 80.5175 46.044 80.5175 46.18C80.5175 46.3161 80.4907 46.4507 80.4387 46.5764C80.3866 46.702 80.3103 46.8162 80.2141 46.9124L76.5748 50.5369C76.4784 50.6353 76.3633 50.7135 76.2363 50.7669C76.1092 50.8203 75.9728 50.8478 75.8351 50.8478C75.6973 50.8478 75.5609 50.8203 75.4339 50.7669C75.3069 50.7135 75.1918 50.6353 75.0954 50.5369L72.7579 48.1847C72.1692 48.4924 71.5555 48.7498 70.9234 48.954V52.2679C70.9234 52.4039 70.8966 52.5385 70.8446 52.6642C70.7925 52.7898 70.7162 52.904 70.6201 53.0001C70.5239 53.0963 70.4097 53.1726 70.2841 53.2246C70.1585 53.2767 70.0238 53.3182 69.8878 53.3182Z" fill="#BCBCBC"/>
<path d="M67.3136 33.7603C66.2778 33.7603 65.2843 34.1718 64.5519 34.9043C63.8194 35.6367 63.4079 36.6301 63.4079 37.666C63.4079 38.7018 63.8194 39.6953 64.5519 40.4277C65.2843 41.1602 66.2778 41.5717 67.3136 41.5717C68.3495 41.5717 69.3429 41.1602 70.0753 40.4277C70.8078 39.6953 71.2193 38.7018 71.2193 37.666C71.2193 36.6301 70.8078 35.6367 70.0753 34.9043C69.3429 34.1718 68.3495 33.7603 67.3136 33.7603ZM67.3136 43.6429C65.7245 43.6409 64.2013 43.0077 63.079 41.8827C61.9568 40.7577 61.3274 39.2329 61.3293 37.6438C61.3313 36.0547 61.9645 34.5315 63.0895 33.4092C64.2145 32.287 65.7393 31.6576 67.3284 31.6596C68.9175 31.6596 70.4415 32.2908 71.5651 33.4145C72.6888 34.5381 73.3201 36.0621 73.3201 37.6512C73.3201 39.2403 72.6888 40.7643 71.5651 41.8879C70.4415 43.0116 68.9027 43.6429 67.3136 43.6429ZM78.7347 64.5914H55.8925C55.6178 64.5914 55.3544 64.4823 55.1602 64.2881C54.966 64.0939 54.8569 63.8305 54.8569 63.5558C54.8569 63.2812 54.966 63.0178 55.1602 62.8236C55.3544 62.6294 55.6178 62.5202 55.8925 62.5202H78.7347C79.0094 62.5202 79.2728 62.6294 79.467 62.8236C79.6612 63.0178 79.7703 63.2812 79.7703 63.5558C79.7703 63.8305 79.6612 64.0939 79.467 64.2881C79.2728 64.4823 79.0094 64.5914 78.7347 64.5914ZM78.7347 58.7329H55.8925C55.7565 58.7329 55.6218 58.7062 55.4962 58.6541C55.3705 58.6021 55.2564 58.5258 55.1602 58.4296C55.064 58.3335 54.9878 58.2193 54.9357 58.0936C54.8837 57.968 54.8569 57.8333 54.8569 57.6973C54.8569 57.5613 54.8837 57.4267 54.9357 57.301C54.9878 57.1754 55.064 57.0612 55.1602 56.9651C55.2564 56.8689 55.3705 56.7926 55.4962 56.7406C55.6218 56.6885 55.7565 56.6617 55.8925 56.6617H78.7347C78.8707 56.6617 79.0054 56.6885 79.131 56.7406C79.2567 56.7926 79.3708 56.8689 79.467 56.9651C79.5632 57.0612 79.6394 57.1754 79.6915 57.301C79.7435 57.4267 79.7703 57.5613 79.7703 57.6973C79.7703 57.8333 79.7435 57.968 79.6915 58.0936C79.6394 58.2193 79.5632 58.3335 79.467 58.4296C79.3708 58.5258 79.2567 58.6021 79.131 58.6541C79.0054 58.7062 78.8707 58.7329 78.7347 58.7329Z" fill="#BCBCBC"/>
</svg>
