<svg width="80" height="80" viewBox="0 0 80 80" fill="none" xmlns="http://www.w3.org/2000/svg">
<path d="M75.3125 48.2584V31.7416C77.9881 31.1658 80 28.7827 80 25.9375C80 21.2372 74.7819 18.428 70.8711 20.9311L59.0689 9.12891C61.5723 5.21766 58.7623 0 54.0625 0C50.3777 0 47.5514 3.34781 48.2236 7.01094L34.487 12.7192L30.9258 9.15781C33.4447 5.27422 30.6766 0 25.9375 0C21.2433 0 18.4241 5.21187 20.9311 9.12906L9.12891 20.9313C5.21719 18.4273 0 21.2386 0 25.9375C0 29.6295 3.35406 32.4469 7.01094 31.7764L10.4283 40L7.01094 48.2236C3.34078 47.5502 0 50.3847 0 54.0625C0 58.7628 5.21812 61.572 9.12891 59.0689L20.9311 70.8711C18.4273 74.7828 21.2386 80 25.9375 80C28.7827 80 31.1656 77.9881 31.7414 75.3125H48.2584C48.8342 77.9881 51.2173 80 54.0623 80C57.3363 80 59.9998 77.3364 59.9998 74.0625C59.9998 70.7886 57.3363 68.125 54.0623 68.125C51.2172 68.125 48.8342 70.1369 48.2584 72.8125H32.2014L69.1834 57.4447C72.4628 62.1911 80 59.8828 80 54.0625C80 51.2173 77.9881 48.8344 75.3125 48.2584ZM11.7789 53.003L15.2383 51.5748L22.3966 68.8008L10.9077 57.3119C11.7487 56.032 12.0483 54.4922 11.7789 53.003ZM44.3702 26.138L39.0427 39.043L16.5898 48.3122L13.1356 40L21.0223 21.0214L33.9012 15.6689L44.3702 26.138ZM56.3644 34.5966L63.4102 31.6878L70.4881 48.7203L56.3644 34.5966ZM65.7211 30.7337L69.1747 29.308C70.0308 30.5551 71.3329 31.4261 72.8125 31.7412V47.7986L65.7211 30.7337ZM68.2211 26.997L64.7617 28.4252L57.6034 11.1994L69.0923 22.6883C68.2513 23.968 67.9517 25.5078 68.2211 26.997ZM53.0036 11.7789C53.6933 11.9038 54.4017 11.9111 55.1359 11.7764L62.4508 29.3792L54.45 32.6822L47.318 25.5502L53.0036 11.7789ZM51.9475 33.7153L42.3031 37.6969L46.2847 28.0527L51.9475 33.7153ZM37.6966 42.3033L26.997 68.2213C26.2918 68.0923 25.569 68.0932 24.8641 68.2237L17.5491 50.6209L37.6966 42.3033ZM30.8145 70.6814C30.4056 70.0943 29.895 69.585 29.3069 69.1775L40.9572 40.9573L53.8619 35.6298L69.0744 50.8423C68.2359 52.135 67.9548 53.6711 68.2239 55.1364L30.8145 70.6814ZM49.1853 9.31844C49.5944 9.90581 50.1052 10.4153 50.6936 10.8228L45.4033 23.6353L36.3989 14.6309L49.1853 9.31844ZM22.3819 17.7495L24.8641 11.7762C26.3323 12.0458 27.8678 11.7623 29.1578 10.9256L31.9892 13.757L22.3819 17.7495ZM11.1994 22.3966L22.3966 11.1994L19.1095 19.1095L11.1994 22.3966ZM9.31953 30.8169C11.2305 29.4967 12.2009 27.1788 11.7766 24.8641L17.7498 22.3816L11.782 36.7427L9.31953 30.8169ZM14.2789 49.2662L10.8225 50.6931C10.415 50.105 9.90566 49.5944 9.31859 49.1853L11.782 43.2575L14.2789 49.2662Z" fill="#BCBCBC"/>
</svg>
