<svg width="81" height="80" viewBox="0 0 81 80" fill="none" xmlns="http://www.w3.org/2000/svg">
<path fill-rule="evenodd" clip-rule="evenodd" d="M4.95529 53.7734C5.0769 54.0963 5.06525 54.4543 4.92289 54.7686C4.78054 55.083 4.51916 55.3279 4.19623 55.4495C3.87331 55.5711 3.51531 55.5594 3.20098 55.4171C2.88665 55.2747 2.64174 55.0133 2.52014 54.6904C-0.418287 46.918 -0.76244 38.4743 1.35856 30.6176C4.93231 17.3792 15.2396 6.96498 28.3448 3.21549L26.4005 2.52555C26.0781 2.40832 25.8149 2.16852 25.6683 1.8583C25.5216 1.54808 25.5034 1.19252 25.6175 0.868923C25.7317 0.545329 25.9689 0.27987 26.2777 0.130266C26.5865 -0.0193388 26.9419 -0.040992 27.2666 0.0700142L33.4638 2.26911C34.2869 2.55946 34.5971 3.57643 34.0751 4.27631L30.0762 9.6331C29.9738 9.77026 29.8454 9.88591 29.6984 9.97346C29.5513 10.061 29.3884 10.1187 29.2191 10.1433C29.0497 10.1679 28.8771 10.1589 28.7113 10.1168C28.5454 10.0747 28.3894 10.0004 28.2522 9.89802C28.1151 9.79566 27.9994 9.66727 27.9119 9.52021C27.8243 9.37315 27.7666 9.21028 27.742 9.04091C27.7174 8.87154 27.7264 8.69898 27.7685 8.53309C27.8106 8.3672 27.8849 8.21122 27.9873 8.07406L29.9252 5.47816C17.304 8.76351 7.29655 18.6163 3.87523 31.2901C1.89313 38.6328 2.21267 46.5191 4.95529 53.7734ZM44.7973 46.3143C44.5333 46.5317 44.1943 46.6361 43.8537 46.6049C43.5132 46.5737 43.1987 46.4094 42.9786 46.1477C42.7585 45.886 42.6506 45.548 42.6782 45.2072C42.7059 44.8663 42.8669 44.5502 43.1263 44.3274L47.2524 40.8503L43.1263 37.3732C42.8669 37.1504 42.7059 36.8342 42.6782 36.4934C42.6506 36.1526 42.7585 35.8146 42.9786 35.5529C43.1987 35.2912 43.5132 35.1269 43.8537 35.0957C44.1943 35.0645 44.5333 35.1689 44.7973 35.3862L50.0887 39.8452C50.7132 40.3574 50.7263 41.3188 50.1023 41.8436L44.7973 46.3143ZM35.1677 44.3274L31.0416 40.8503L35.1677 37.3732C35.4271 37.1504 35.5881 36.8342 35.6158 36.4934C35.6434 36.1526 35.5355 35.8146 35.3154 35.5529C35.0953 35.2912 34.7808 35.1269 34.4403 35.0957C34.0998 35.0645 33.7607 35.1689 33.4967 35.3862L28.2053 39.8452C27.5809 40.3574 27.5677 41.3188 28.1917 41.8436L33.4969 46.314C34.0454 46.7754 34.8643 46.7048 35.3259 46.156C35.7874 45.6073 35.7163 44.7889 35.1677 44.3274ZM38.7775 47.262C38.7352 47.4293 38.66 47.5864 38.5565 47.7243C38.4529 47.8623 38.323 47.9783 38.1742 48.0656C38.0255 48.1529 37.8608 48.2099 37.6899 48.233C37.519 48.2562 37.3451 48.2452 37.1785 48.2007C37.0118 48.1562 36.8557 48.079 36.7191 47.9736C36.5825 47.8683 36.4683 47.7368 36.3829 47.5869C36.2975 47.4371 36.2428 47.2717 36.2218 47.1005C36.2009 46.9293 36.2141 46.7556 36.2608 46.5895L39.5167 34.4387C39.559 34.2715 39.6342 34.1143 39.7377 33.9764C39.8413 33.8385 39.9712 33.7224 40.12 33.6351C40.2687 33.5478 40.4334 33.4909 40.6043 33.4677C40.7752 33.4445 40.949 33.4555 41.1157 33.5C41.2823 33.5445 41.4385 33.6217 41.5751 33.7271C41.7116 33.8325 41.8259 33.9639 41.9113 34.1138C41.9967 34.2637 42.0514 34.429 42.0724 34.6002C42.0933 34.7715 42.0801 34.9451 42.0333 35.1112L38.7775 47.262ZM16.7921 46.1857C17.3556 48.5512 18.2927 50.8117 19.5682 52.882L17.6356 57.2332L22.7639 62.3616L27.1138 60.4297C29.1847 61.7054 31.4457 62.6427 33.8118 63.2062L35.5205 67.6455H42.773L44.4822 63.2051C46.8476 62.6416 49.108 61.7045 51.1783 60.429L55.5295 62.3616L60.6579 57.2333L58.726 52.8834C60.0018 50.8127 60.9391 48.5516 61.5025 46.1856L65.9418 44.4769V37.2244L61.5016 35.5152C60.938 33.1498 60.0008 30.8894 58.7253 28.8191L60.6579 24.4679L55.5297 19.3395L51.1797 21.2714C49.1089 19.9956 46.8478 19.0583 44.4817 18.4948L42.773 14.0554H35.5204L33.8115 18.4955C31.4458 19.0588 29.1851 19.996 27.1148 21.2717L22.764 19.3395L17.6356 24.4677L19.5682 28.8189C18.2927 30.8892 17.3556 33.1497 16.7921 35.5152L12.3519 37.2244V44.4769L16.7921 46.1857ZM23.37 40.8504C23.37 49.5645 30.4329 56.6274 39.1469 56.6274C47.8611 56.6274 54.9238 49.5646 54.9238 40.8504C54.9238 32.1362 47.8611 25.0734 39.1469 25.0734C30.4329 25.0734 23.37 32.1362 23.37 40.8504ZM16.5629 64.7354C16.7308 64.7662 16.8911 64.8298 17.0344 64.9224C17.1778 65.0151 17.3015 65.1352 17.3985 65.2757C17.4954 65.4162 17.5638 65.5744 17.5996 65.7413C17.6355 65.9082 17.6381 66.0806 17.6073 66.2485C17.5765 66.4164 17.513 66.5766 17.4203 66.72C17.3276 66.8634 17.2075 66.9871 17.067 67.084C16.9265 67.181 16.7683 67.2494 16.6014 67.2852C16.4345 67.321 16.2621 67.3236 16.0942 67.2928L13.4106 66.7972C19.6326 72.9825 27.6608 76.5206 35.9454 77.25C48.0284 78.3137 59.7728 73.3424 67.436 63.9989C67.6548 63.7327 67.9705 63.5643 68.3135 63.5309C68.6565 63.4974 68.9988 63.6016 69.265 63.8205C69.5312 64.0394 69.6995 64.3551 69.7329 64.6981C69.7664 65.0411 69.6622 65.3833 69.4433 65.6495C61.2582 75.6293 48.6901 80.9902 35.7214 79.8483C26.8719 79.0692 18.2935 75.2946 11.6328 68.6967L11.9412 71.306C12.0257 72.0207 11.5147 72.6684 10.8 72.7528C10.0853 72.8373 9.4376 72.3264 9.35315 71.6116L8.56833 64.973C8.46709 64.1118 9.23023 63.3826 10.0967 63.5414L16.5629 64.7354ZM78.7102 48.974L77.1293 50.3224C78.4487 45.0183 78.6553 39.4717 77.7087 34.0636C74.8373 17.6577 61.8495 4.89745 45.4718 2.2215C45.1331 2.17027 44.788 2.25466 44.5112 2.45635C44.2344 2.65805 44.0483 2.96077 43.9933 3.29882C43.9383 3.63687 44.0188 3.98296 44.2174 4.26199C44.416 4.54102 44.7167 4.73046 45.0541 4.7892C60.3458 7.28761 72.4603 19.195 75.1412 34.5119C76.0729 39.8447 75.8147 45.3174 74.385 50.5387L73.1105 47.5734C73.0429 47.4162 72.945 47.2738 72.8224 47.1544C72.6999 47.035 72.5549 46.9409 72.396 46.8775C72.075 46.7495 71.7162 46.7542 71.3987 46.8907C71.0811 47.0271 70.8308 47.2841 70.7028 47.6051C70.5747 47.9262 70.5795 48.2849 70.7159 48.6025L73.3555 54.7441C73.7005 55.5463 74.7354 55.7853 75.3984 55.2178L80.4014 50.9506C80.6554 50.7239 80.8104 50.4068 80.8333 50.0673C80.8561 49.7277 80.745 49.3927 80.5237 49.1341C80.3025 48.8755 79.9887 48.7139 79.6496 48.6839C79.3106 48.654 78.9733 48.7581 78.7102 48.974Z" fill="#BCBCBC"/>
</svg>
