<svg width="60" height="59" viewBox="0 0 60 59" fill="none" xmlns="http://www.w3.org/2000/svg">
<path d="M54.5455 47.0909H5.45454C2.90909 47.0909 0.909088 45.0909 0.909088 42.5454V14.4545C0.909088 11.9091 2.90909 9.90906 5.45454 9.90906H5.81818C6.36363 9.90906 6.72727 10.2727 6.72727 10.8181C6.72727 11.3636 6.36363 11.7272 5.81818 11.7272H5.45454C3.90909 11.7272 2.72727 12.9091 2.72727 14.4545V42.5454C2.72727 44.0909 3.90909 45.2727 5.45454 45.2727H54.5455C56.0909 45.2727 57.2727 44.0909 57.2727 42.5454V14.4545C57.2727 12.9091 56.0909 11.7272 54.5455 11.7272H26.5455C26 11.7272 25.6364 11.3636 25.6364 10.8181C25.6364 10.2727 26 9.90906 26.5455 9.90906H54.5455C57.0909 9.90906 59.0909 11.9091 59.0909 14.4545V42.5454C59.0909 45.0909 57.0909 47.0909 54.5455 47.0909Z" fill="white"/>
<path d="M58.1818 41.5454H1.81818C1.27272 41.5454 0.909088 41.1817 0.909088 40.6363C0.909088 40.0908 1.27272 39.7272 1.81818 39.7272H58.1818C58.7273 39.7272 59.0909 40.0908 59.0909 40.6363C59.0909 41.1817 58.7273 41.5454 58.1818 41.5454ZM36.2727 52.9999H23.7273C23.1818 52.9999 22.8182 52.6363 22.8182 52.0908V46.1817C22.8182 45.6363 23.1818 45.2726 23.7273 45.2726H36.2727C36.8182 45.2726 37.1818 45.6363 37.1818 46.1817V52.0908C37.1818 52.6363 36.8182 52.9999 36.2727 52.9999ZM24.6364 51.1817H35.3636V47.0908H24.6364V51.1817Z" fill="white"/>
<path d="M40.1818 59H19.8182C18.5454 59 17.5454 57.9999 17.5454 56.7272V53.4545C17.5454 52.1818 18.5454 51.1818 19.8182 51.1818H40.1818C41.4545 51.1818 42.4545 52.1818 42.4545 53.4545V56.7272C42.4545 57.9999 41.4545 59 40.1818 59ZM19.8182 52.9999C19.6364 52.9999 19.3636 53.2727 19.3636 53.4545V56.7272C19.3636 56.909 19.4545 57.1818 19.8182 57.1818H40.1818C40.3636 57.1818 40.6364 57.0909 40.6364 56.7272V53.4545C40.6364 53.2727 40.5454 52.9999 40.1818 52.9999H19.8182ZM31.3636 44.3636H28.6364C28.0909 44.3636 27.7273 43.9999 27.7273 43.4545C27.7273 42.909 28.0909 42.5454 28.6364 42.5454H31.3636C31.9091 42.5454 32.2727 42.909 32.2727 43.4545C32.2727 43.9999 31.9091 44.3636 31.3636 44.3636ZM16.1818 23.1818C15.2727 23.1818 14.4545 23.0909 13.6364 22.909C13.1818 22.8181 12.9091 22.3636 13 21.909C13.1818 20.909 12.9091 20.3636 12.6364 20.1818C12.4545 20.0909 11.9091 20.3636 11.3636 21.0909C11.0909 21.4545 10.5454 21.5454 10.1818 21.3636C8.81817 20.4545 7.72727 19.2727 6.90908 17.909C6.63636 17.5454 6.81817 16.9999 7.18181 16.7272C7.99999 16.0909 8.18181 15.5454 8.18181 15.3636C8.0909 15.1818 7.54545 14.909 6.54545 14.909C6.0909 14.909 5.63636 14.6363 5.54545 14.1818C5.27272 12.5454 5.27272 10.909 5.63636 9.45449C5.72727 8.99995 6.18181 8.72722 6.63636 8.81813C7.45454 8.81813 8.0909 8.5454 8.18181 8.36358C8.27272 8.18176 7.99999 7.5454 7.27272 6.99995C6.90908 6.72722 6.81817 6.18176 7.0909 5.81813C7.99999 4.45449 9.18181 3.36358 10.5454 2.5454C10.9091 2.27267 11.4545 2.45449 11.7273 2.81813C12.2727 3.63631 12.9091 3.81813 13.0909 3.81813C13.2727 3.63631 13.6364 2.99995 13.5454 1.99995C13.5454 1.5454 13.8182 1.09085 14.2727 0.999946C15.9091 0.727218 17.5454 0.727218 19 1.09085C19.4545 1.18176 19.7273 1.63631 19.6364 2.09085C19.4545 3.09085 19.7273 3.63631 20 3.81813C20.1818 3.90904 20.7273 3.63631 21.2727 2.90904C21.5454 2.5454 22.0909 2.45449 22.4545 2.63631C23.8182 3.5454 24.9091 4.72722 25.7273 6.09085C26 6.45449 25.8182 6.99995 25.4545 7.27267C24.6364 7.90904 24.4545 8.45449 24.4545 8.63631C24.5454 8.81813 25.0909 9.09085 26 8.99995C26.4545 8.90904 26.9091 9.27267 27 9.72722C27.2727 11.3636 27.2727 12.9999 26.9091 14.4545C26.8182 14.909 26.3636 15.1818 25.9091 15.0909C24.9091 14.909 24.3636 15.1818 24.1818 15.4545C24 15.909 24.5454 16.5454 25.0909 16.909C25.4545 17.1818 25.5454 17.7272 25.3636 18.0909C24.4545 19.4545 23.2727 20.5454 21.9091 21.3636C21.5454 21.6363 21 21.4545 20.7273 21.0909C20.2727 20.3636 19.6364 19.9999 19.2727 20.1818C19.0909 20.2727 18.8182 20.8181 18.9091 21.8181C18.9091 22.2727 18.6364 22.7272 18.1818 22.8181C17.6364 23.0909 16.9091 23.1818 16.1818 23.1818ZM14.8182 21.2727C15.6364 21.3636 16.4545 21.4545 17.2727 21.2727C17.3636 19.9999 18 18.9999 18.8182 18.6363C19.8182 18.2727 20.9091 18.6363 21.8182 19.5454C22.5454 19.0909 23.0909 18.5454 23.6364 17.909C22.7273 16.9999 22.4545 15.8181 22.8182 14.8181C23.2727 13.909 24.2727 13.3636 25.5454 13.3636C25.6364 12.5454 25.7273 11.7272 25.6364 10.909C24.3636 10.909 23.3636 10.2727 23 9.36358C22.6364 8.45449 23 7.36358 23.9091 6.45449C23.4545 5.72722 22.9091 5.18176 22.2727 4.63631C21.3636 5.5454 20.1818 5.90904 19.2727 5.45449C18.3636 4.99995 17.9091 3.99995 17.9091 2.72722C17.0909 2.63631 16.2727 2.5454 15.4545 2.72722C15.3636 4.09085 14.8182 5.09085 13.8182 5.45449C12.9091 5.81813 11.8182 5.45449 10.9091 4.5454C10.1818 4.99995 9.63636 5.5454 9.0909 6.18176C9.99999 7.09086 10.3636 8.27267 9.90908 9.18176C9.45454 10.0909 8.45454 10.5454 7.18181 10.5454C7.0909 11.3636 6.99999 12.1818 7.18181 12.9999C8.45454 13.0909 9.45454 13.6363 9.81817 14.5454C10.1818 15.4545 9.81817 16.5454 8.90908 17.4545C9.36363 18.1818 9.90908 18.7272 10.5454 19.2727C11.4545 18.3636 12.6364 17.9999 13.5454 18.4545C14.2727 18.9999 14.8182 19.9999 14.8182 21.2727Z" fill="white"/>
<path d="M16.2727 18.1818C14.6573 18.1818 13.1081 17.5401 11.9658 16.3978C10.8235 15.2556 10.1818 13.7063 10.1818 12.0909C10.1818 10.4755 10.8235 8.92625 11.9658 7.78399C13.1081 6.64172 14.6573 6 16.2727 6C17.8881 6 19.4374 6.64172 20.5796 7.78399C21.7219 8.92625 22.3636 10.4755 22.3636 12.0909C22.3636 13.7063 21.7219 15.2556 20.5796 16.3978C19.4374 17.5401 17.8881 18.1818 16.2727 18.1818ZM16.2727 7.81818C13.9091 7.81818 12 9.72727 12 12.0909C12 14.4545 13.9091 16.3636 16.2727 16.3636C18.6364 16.3636 20.5454 14.4545 20.5454 12.0909C20.5454 9.72727 18.6364 7.81818 16.2727 7.81818ZM52 37.4545H32.8182C31 37.4545 29.6364 36.0909 29.6364 34.2727V17.8182C29.6364 16 31 14.6364 32.8182 14.6364H52.0909C53.9091 14.6364 55.2727 16 55.2727 17.8182V34.3636C55.1818 36.0909 53.7273 37.4545 52 37.4545ZM32.8182 16.4545C32.0909 16.4545 31.4545 17.0909 31.4545 17.8182V34.2727C31.4545 35 32.0909 35.6364 32.8182 35.6364H52C52.7273 35.6364 53.3636 35.0909 53.4545 34.2727V17.8182C53.4545 17.0909 52.8182 16.4545 52.0909 16.4545H32.8182Z" fill="white"/>
<path d="M54.2727 22.5454H30.5454C30 22.5454 29.6364 22.1817 29.6364 21.6363C29.6364 21.0908 30 20.7272 30.5454 20.7272H54.2727C54.8182 20.7272 55.1818 21.0908 55.1818 21.6363C55.1818 22.1817 54.8182 22.5454 54.2727 22.5454ZM43.4545 19.5454H33.6364C33.0909 19.5454 32.7273 19.1817 32.7273 18.6363C32.7273 18.0908 33.0909 17.7272 33.6364 17.7272H43.4545C44 17.7272 44.3636 18.0908 44.3636 18.6363C44.3636 19.1817 44 19.5454 43.4545 19.5454ZM47.2727 19.5454H46.2727C45.7273 19.5454 45.3636 19.1817 45.3636 18.6363C45.3636 18.0908 45.7273 17.7272 46.2727 17.7272H47.2727C47.8182 17.7272 48.1818 18.0908 48.1818 18.6363C48.1818 19.1817 47.8182 19.5454 47.2727 19.5454ZM51.1818 19.5454H50.1818C49.6364 19.5454 49.2727 19.1817 49.2727 18.6363C49.2727 18.0908 49.6364 17.7272 50.1818 17.7272H51.1818C51.7273 17.7272 52.0909 18.0908 52.0909 18.6363C52.0909 19.1817 51.7273 19.5454 51.1818 19.5454ZM39.0909 32.4544C38.8182 32.4544 38.6364 32.3635 38.4545 32.1817L35.8182 29.5454C35.6364 29.3635 35.5454 29.1817 35.5454 28.909C35.5454 28.6363 35.6364 28.4544 35.8182 28.2726L38.5454 25.6363C38.9091 25.2726 39.4545 25.2726 39.8182 25.6363C40.1818 25.9999 40.1818 26.5454 39.8182 26.909L37.7273 28.909L39.7273 30.909C40.0909 31.2726 40.0909 31.8181 39.7273 32.1817C39.5454 32.3635 39.3636 32.4544 39.0909 32.4544ZM45.7273 32.4544C45.4545 32.4544 45.2727 32.3635 45.0909 32.1817C44.7273 31.8181 44.7273 31.2726 45.0909 30.909L47.7273 28.2726C48.0909 27.909 48.6364 27.909 49 28.2726C49.3636 28.6363 49.3636 29.1817 49 29.5454L46.3636 32.1817C46.1818 32.3635 46 32.4544 45.7273 32.4544Z" fill="white"/>
<path d="M48.3636 29.8181C48.1818 29.8181 47.9091 29.7272 47.7273 29.5454L45 26.909C44.6364 26.5454 44.6364 25.9999 45 25.6363C45.3636 25.2726 45.9091 25.2726 46.2727 25.6363L49 28.2726C49.3636 28.6363 49.3636 29.1817 49 29.5454C48.8182 29.7272 48.6364 29.8181 48.3636 29.8181ZM41.4546 33.3636H41.1818C40.7273 33.2726 40.4546 32.7272 40.5455 32.2726L42.4546 25.1817C42.5455 24.7272 43.0909 24.4545 43.5455 24.5454C44 24.6363 44.2727 25.1817 44.1818 25.6363L42.3636 32.7272C42.1818 33.0908 41.8182 33.3636 41.4546 33.3636ZM23.5455 37.4545H9C6.81818 37.4545 5.09091 35.7272 5.09091 33.5454C5.09091 31.3636 6.81818 29.6363 9 29.6363H23.5455C25.7273 29.6363 27.4545 31.3636 27.4545 33.5454C27.4545 35.7272 25.7273 37.4545 23.5455 37.4545ZM9 31.4545C7.90909 31.4545 6.90909 32.4545 6.90909 33.5454C6.90909 34.6363 7.90909 35.6363 9 35.6363H23.5455C24.6364 35.6363 25.6364 34.6363 25.6364 33.5454C25.6364 32.4545 24.6364 31.4545 23.5455 31.4545H9Z" fill="white"/>
<path d="M18.3636 34.4545H10.2727C9.72727 34.4545 9.36363 34.0909 9.36363 33.5454C9.36363 33 9.72727 32.6364 10.2727 32.6364H18.3636C18.9091 32.6364 19.2727 33 19.2727 33.5454C19.2727 34.0909 18.9091 34.4545 18.3636 34.4545Z" fill="white"/>
</svg>
