<svg width="2121" height="61" viewBox="0 0 2121 61" fill="none" xmlns="http://www.w3.org/2000/svg">
<path d="M101.476 34.5616C102.53 35.194 104.638 36.0373 106.535 35.8264C108.221 35.8264 109.275 34.9832 109.275 33.7184C109.275 32.6644 108.643 31.8211 106.746 30.7671C104.427 29.5023 102.74 27.605 102.74 25.0753C102.74 20.6484 106.535 17.6971 111.805 17.6971C114.124 17.6971 116.021 18.1187 117.075 18.7511L115.6 23.1781C114.756 22.7565 113.281 22.3348 111.805 22.3348C110.119 22.3348 108.854 23.1781 108.854 24.4429C108.854 25.4969 109.697 26.1294 111.173 26.9726C113.492 28.4482 115.6 30.3455 115.6 32.8752C115.6 37.7237 111.594 40.675 106.113 40.4642C103.584 40.4642 101.265 39.8318 100 38.9885L101.476 34.5616ZM116.865 39.621L122.978 8H129.091L126.772 20.6484V20.8592C128.459 18.9619 130.567 17.6971 133.307 17.6971C136.47 17.6971 138.367 19.8052 138.367 23.3889C138.367 24.4429 138.156 25.9185 137.945 27.1834L135.626 39.621H129.513L131.832 27.3942C132.043 26.551 132.043 25.7077 132.043 24.8645C132.043 23.5997 131.41 22.5456 130.145 22.5456C128.248 22.5456 126.14 24.8645 125.297 28.8698L123.189 39.4102H116.865V39.621ZM160.923 26.3402C160.923 33.9292 156.075 40.4642 148.696 40.4642C143.215 40.4642 140.264 36.6697 140.264 31.8211C140.264 24.2321 145.113 17.6971 152.702 17.6971C158.183 17.6971 160.923 21.9132 160.923 26.3402ZM146.377 31.8211C146.377 34.14 147.221 35.8264 149.329 35.8264C152.702 35.8264 154.388 29.9239 154.388 26.1294C154.388 24.2321 153.756 22.3348 151.437 22.3348C148.275 22.5456 146.377 28.2374 146.377 31.8211ZM159.237 48.0532L163.453 26.1294C163.874 23.5997 164.507 20.6484 164.718 18.5403H170.199L169.777 20.6484C171.463 18.5403 173.782 17.2755 176.312 17.2755C180.739 17.2755 182.636 21.2808 182.636 25.2861C182.636 32.8752 177.788 40.2534 170.62 40.2534C169.566 40.4642 168.09 39.621 167.458 39.621H167.247L165.561 48.0532H159.237ZM168.09 34.9832C168.723 35.6156 169.566 35.8264 170.62 35.8264C173.993 35.8264 176.523 30.1347 176.523 26.1294C176.523 24.4429 175.89 22.7564 173.993 22.7564C171.885 22.7564 169.777 25.2861 169.145 29.0806L168.09 34.9832ZM183.269 39.621L187.485 18.5403H193.809L189.593 39.621H183.269ZM191.279 16.4323C189.593 16.4323 188.328 14.7458 188.328 12.8485C188.328 10.7405 189.804 9.05403 191.912 9.05403C193.809 9.05403 195.074 10.7405 195.074 12.4269C194.863 14.7458 193.176 16.4323 191.279 16.4323ZM194.863 39.621L198.236 22.7564H195.285L196.128 18.5403H199.079L199.29 17.2755C199.711 14.7458 200.765 12.0053 202.874 10.1081C204.56 8.63242 206.668 8 208.987 8C210.463 8 211.727 8.21081 212.36 8.42161L211.095 13.2702C210.463 13.0594 209.83 12.8485 209.198 12.8485C207.09 12.8485 205.825 14.9566 205.614 17.0647L204.982 18.5403H209.198L208.354 22.7564H204.138L200.765 39.621H194.863ZM216.998 18.5403L218.052 28.2374C218.262 30.3455 218.473 31.1887 218.684 33.2968C219.106 31.1887 219.527 30.5563 220.581 28.2374L224.376 18.5403H230.7L223.111 34.5616C220.37 40.0426 217.841 44.0479 214.889 46.7884C212.781 48.8965 210.041 49.7397 208.776 50.1613L207.09 44.8911C208.144 44.4695 209.409 44.0479 210.673 43.2047C212.149 42.1506 213.414 40.8858 214.046 39.4102C214.257 39.1994 214.257 38.9885 214.257 38.5669L210.463 18.5403H216.998Z" fill="#8DB543"/>
<path d="M342 30.0002C342 44.8167 364.834 56.8281 393 56.8281C421.166 56.8281 444 44.8167 444 30.0002C444 15.1839 421.166 3.17221 393 3.17221C364.834 3.17246 342 15.1839 342 30.0002Z" fill="black"/>
<path d="M393.008 54.8443C420.074 54.8443 442.015 43.7247 442.015 30.0081C442.015 16.2919 420.074 5.17212 393.008 5.17212C365.942 5.17212 344 16.2919 344 30.0081C344 43.7249 365.942 54.8443 393.008 54.8443Z" fill="#284354"/>
<path d="M369.709 33.0794C371.935 33.0794 373.596 32.6691 374.647 31.8599C375.687 31.0591 376.406 29.6719 376.782 27.7367C377.133 25.9278 377 24.6649 376.385 23.9835C375.756 23.2874 374.398 22.9344 372.346 22.9344H368.79L366.818 33.0798H369.709V33.0794ZM358.077 45.5765C357.995 45.5766 357.915 45.5586 357.841 45.5239C357.767 45.4891 357.702 45.4384 357.65 45.3754C357.598 45.3124 357.56 45.2387 357.54 45.1596C357.52 45.0804 357.518 44.9978 357.534 44.9177L362.759 18.0323C362.784 17.9062 362.852 17.7926 362.951 17.7109C363.05 17.6292 363.174 17.5845 363.303 17.5845H374.565C378.104 17.5845 380.739 18.5457 382.394 20.4413C384.059 22.347 384.573 25.0109 383.922 28.3586C383.658 29.7223 383.202 30.9891 382.568 32.1234C381.934 33.2587 381.096 34.3091 380.076 35.2463C378.855 36.3884 377.474 37.2168 375.974 37.7043C374.498 38.185 372.602 38.4289 370.34 38.4289H365.779L364.477 45.1287C364.452 45.2548 364.385 45.3684 364.286 45.4501C364.186 45.5318 364.062 45.5765 363.934 45.5765H358.077Z" fill="white"/>
<path d="M397.35 38.4288C397.269 38.4288 397.188 38.4108 397.114 38.376C397.04 38.3412 396.975 38.2904 396.923 38.2274C396.871 38.1645 396.834 38.0907 396.814 38.0116C396.794 37.9325 396.791 37.8499 396.807 37.7698L399.119 25.874C399.338 24.7429 399.284 23.9309 398.966 23.5878C398.771 23.378 398.186 23.0264 396.456 23.0264H392.268L389.362 37.981C389.338 38.1071 389.27 38.2207 389.171 38.3024C389.072 38.3841 388.947 38.4288 388.819 38.4288H383.009C382.927 38.4288 382.846 38.4108 382.772 38.376C382.699 38.3412 382.633 38.2904 382.581 38.2274C382.53 38.1645 382.492 38.0907 382.472 38.0116C382.452 37.9325 382.45 37.8499 382.465 37.7698L387.69 10.8843C387.715 10.7582 387.783 10.6446 387.882 10.5629C387.981 10.4812 388.105 10.4366 388.234 10.4365H394.044C394.126 10.4364 394.207 10.4544 394.28 10.4892C394.354 10.524 394.42 10.5747 394.472 10.6377C394.524 10.7007 394.561 10.7744 394.581 10.8536C394.601 10.9328 394.603 11.0154 394.588 11.0955L393.327 17.5843H397.832C401.263 17.5843 403.591 18.1895 404.946 19.4341C406.328 20.7039 406.759 22.7344 406.228 25.4695L403.796 37.9804C403.772 38.1064 403.704 38.2201 403.605 38.3017C403.506 38.3834 403.381 38.4281 403.253 38.4282H397.35V38.4288Z" fill="white"/>
<path d="M415.421 33.0794C417.646 33.0794 419.308 32.6691 420.359 31.8599C421.399 31.0595 422.117 29.6722 422.494 27.7367C422.845 25.9278 422.711 24.6648 422.096 23.9835C421.468 23.2874 420.109 22.9343 418.058 22.9343H414.501L412.53 33.0798H415.421V33.0794ZM403.788 45.5765C403.706 45.5765 403.626 45.5585 403.552 45.5237C403.478 45.4889 403.413 45.4381 403.361 45.3752C403.309 45.3122 403.271 45.2385 403.251 45.1593C403.231 45.0802 403.229 44.9976 403.245 44.9175L408.47 18.032C408.495 17.9059 408.562 17.7923 408.661 17.7106C408.761 17.6289 408.885 17.5842 409.014 17.5842H420.276C423.815 17.5842 426.449 18.5454 428.106 20.4411C429.77 22.3465 430.284 25.0103 429.633 28.3582C429.368 29.7221 428.913 30.9889 428.279 32.123C427.645 33.2585 426.806 34.3089 425.787 35.2461C424.566 36.3882 423.185 37.2166 421.685 37.7038C420.209 38.1847 418.313 38.4287 416.05 38.4287H411.49L410.188 45.1287C410.164 45.2548 410.096 45.3685 409.997 45.4502C409.898 45.5319 409.773 45.5765 409.645 45.5765H403.788Z" fill="white"/>
<path d="M828.75 28.5262C828.265 27.8967 827.738 27.2669 827.175 26.6396C827.555 26.1999 827.922 25.75 828.278 25.2905C831.865 20.6387 832.884 16.4187 831.146 13.4083C829.408 10.3978 825.244 9.17009 819.422 9.95119C818.793 10.0363 818.167 10.14 817.545 10.262C817.334 9.64283 817.104 9.0302 816.856 8.42495C814.621 2.99204 811.476 0 808 0C804.523 0 801.378 2.99204 799.143 8.42495C798.895 9.0302 798.666 9.64283 798.455 10.262C797.832 10.14 797.206 10.0364 796.578 9.95119C790.755 9.17019 786.591 10.3978 784.853 13.4083C783.115 16.4188 784.134 20.6387 787.721 25.2905C788.077 25.7501 788.445 26.2 788.824 26.6396C788.261 27.2669 787.734 27.8966 787.249 28.5262C783.661 33.178 782.643 37.398 784.381 40.4083C785.777 42.8272 788.739 44.095 792.869 44.095C793.879 44.095 794.961 44.0191 796.105 43.8655C796.842 43.7666 797.597 43.6362 798.367 43.4775C798.609 44.2035 798.867 44.9044 799.143 45.5752C801.378 51.008 804.523 54 808 54C811.476 54 814.621 51.008 816.856 45.5751C817.132 44.9043 817.39 44.2034 817.632 43.4774C818.402 43.6361 819.157 43.7666 819.894 43.8654C821.039 44.019 822.119 44.0949 823.13 44.0949C827.26 44.0949 830.222 42.827 831.618 40.4082C833.357 37.3979 832.338 33.178 828.75 28.5262ZM822.675 12.8805C825.567 12.8805 827.611 13.6146 828.406 14.9903C829.445 16.7904 828.485 19.8404 825.772 23.3581C825.508 23.6994 825.237 24.0348 824.958 24.3639C823.372 22.8549 821.586 21.3783 819.644 19.9711C819.376 17.6279 818.972 15.3888 818.445 13.307C819.993 13.0212 821.415 12.8805 822.675 12.8805ZM812.2 34.5929C810.778 35.414 809.374 36.1506 808 36.8055C806.572 36.1234 805.17 35.3853 803.799 34.5929C802.229 33.6865 800.727 32.7272 799.31 31.7307C799.187 30.1568 799.125 28.5787 799.126 27C799.126 25.1651 799.207 23.4036 799.355 21.7264C800.646 20.8408 801.971 20.006 803.327 19.2238C804.913 18.308 806.475 17.4986 807.999 16.7891C809.523 17.4986 811.086 18.308 812.672 19.2238C814.028 20.006 815.353 20.8408 816.644 21.7264C816.792 23.4036 816.873 25.1651 816.873 27C816.873 28.638 816.808 30.2172 816.689 31.7307C815.272 32.7272 813.77 33.6865 812.2 34.5929ZM816.207 35.8598C815.995 37.2066 815.738 38.4824 815.442 39.678C814.269 39.337 813.046 38.9244 811.785 38.4383C812.457 38.0817 813.123 37.7132 813.782 37.3331C814.601 36.8599 815.409 36.3687 816.207 35.8598ZM804.214 38.4382C802.953 38.9244 801.73 39.3366 800.556 39.6776C800.261 38.4822 800.004 37.2065 799.792 35.8598C800.589 36.3687 801.398 36.8599 802.217 37.333C802.876 37.7132 803.542 38.0817 804.214 38.4382ZM796.001 29.2089C794.999 28.3789 794.06 27.5332 793.194 26.6797C794.072 25.8426 795.017 25.0147 796.024 24.2029C795.983 25.1347 795.962 26.0673 795.962 27C795.962 27.7413 795.976 28.4779 796.001 29.2089ZM799.88 17.6036C800.092 16.3429 800.345 15.1479 800.631 14.0254C801.756 14.3396 802.927 14.721 804.136 15.1704C803.33 15.5912 802.532 16.029 801.745 16.4837C801.117 16.8464 800.495 17.2198 799.88 17.6036ZM811.863 15.1703C813.072 14.7209 814.243 14.3394 815.368 14.0253C815.654 15.1479 815.907 16.3429 816.119 17.6036C815.504 17.2198 814.882 16.8464 814.255 16.4837C813.467 16.029 812.669 15.5911 811.863 15.1703ZM819.975 24.2029C820.982 25.0147 821.927 25.8426 822.805 26.6797C821.939 27.5332 821 28.3789 819.998 29.2089C820.024 28.4729 820.037 27.7365 820.037 27C820.037 26.0593 820.016 25.1262 819.975 24.2029ZM808 3.16406C810.288 3.16406 812.719 6.07532 814.457 11.0001C812.363 11.5885 810.193 12.3686 808 13.3223C805.806 12.3686 803.636 11.5886 801.542 11.0001C803.28 6.07532 805.711 3.16406 808 3.16406ZM787.593 14.9904C788.388 13.6145 790.431 12.8806 793.324 12.8806C794.584 12.8806 796.006 13.0213 797.555 13.3072C797.027 15.3891 796.624 17.6282 796.355 19.9712C794.413 21.3784 792.627 22.855 791.041 24.364C790.762 24.0349 790.491 23.6995 790.227 23.3582C787.514 19.8405 786.554 16.7905 787.593 14.9904ZM792.851 40.9361C789.959 40.9359 787.915 40.2019 787.121 38.8263C786.081 37.0262 787.041 33.9762 789.754 30.4585C790.152 29.9437 790.567 29.442 790.998 28.9544C792.566 30.4962 794.346 32.0085 796.292 33.4526C796.548 35.9064 796.951 38.2536 797.488 40.4322C795.781 40.7708 794.221 40.9362 792.851 40.9361ZM808 50.8359C805.667 50.8359 803.186 47.81 801.442 42.7105C803.571 42.0916 805.776 41.2767 808 40.2861C810.223 41.2767 812.428 42.0916 814.557 42.7105C812.813 47.81 810.332 50.8359 808 50.8359ZM828.878 38.8263C827.708 40.8534 823.826 41.4863 818.51 40.4322C819.048 38.2536 819.45 35.9064 819.707 33.4526C821.653 32.0085 823.433 30.4962 825.001 28.9544C825.432 29.4421 825.847 29.9437 826.245 30.4585C828.958 33.9762 829.918 37.0262 828.878 38.8263Z" fill="#50D8FC"/>
<path d="M808 31.8885C810.7 31.8885 812.888 29.6999 812.888 27.0001C812.888 24.3002 810.7 22.1116 808 22.1116C805.3 22.1116 803.111 24.3002 803.111 27.0001C803.111 29.6999 805.3 31.8885 808 31.8885Z" fill="#50D8FC"/>
<path d="M853.917 36.5L849.544 28.9013H847.166V36.5H844.05V17.5033H850.61C852.068 17.5033 853.298 17.7584 854.3 18.2687C855.32 18.7789 856.077 19.4622 856.569 20.3187C857.079 21.1751 857.334 22.1318 857.334 23.1887C857.334 24.4278 856.97 25.5576 856.241 26.578C855.53 27.5802 854.428 28.2636 852.933 28.628L857.635 36.5H853.917ZM847.166 26.414H850.61C851.776 26.414 852.651 26.1224 853.234 25.5393C853.835 24.9562 854.136 24.1727 854.136 23.1887C854.136 22.2047 853.844 21.4393 853.261 20.8927C852.678 20.3278 851.794 20.0453 850.61 20.0453H847.166V26.414ZM875.124 28.6007C875.124 29.1656 875.087 29.6758 875.014 30.1313H863.507C863.598 31.334 864.044 32.2998 864.846 33.0287C865.648 33.7576 866.632 34.122 867.798 34.122C869.475 34.122 870.659 33.4204 871.352 32.0173H874.714C874.258 33.4022 873.429 34.5411 872.226 35.434C871.042 36.3087 869.566 36.746 867.798 36.746C866.359 36.746 865.065 36.4271 863.917 35.7893C862.787 35.1333 861.894 34.2222 861.238 33.056C860.6 31.8716 860.282 30.5049 860.282 28.956C860.282 27.4071 860.591 26.0496 861.211 24.8833C861.849 23.6989 862.732 22.7878 863.862 22.15C865.01 21.5122 866.322 21.1933 867.798 21.1933C869.22 21.1933 870.486 21.5031 871.598 22.1227C872.709 22.7422 873.575 23.6169 874.194 24.7467C874.814 25.8582 875.124 27.1429 875.124 28.6007ZM871.871 27.6167C871.853 26.4687 871.443 25.5484 870.641 24.856C869.839 24.1636 868.846 23.8173 867.662 23.8173C866.586 23.8173 865.666 24.1636 864.901 24.856C864.136 25.5302 863.68 26.4504 863.534 27.6167H871.871ZM877.151 28.9013C877.151 27.3889 877.461 26.0496 878.081 24.8833C878.718 23.7171 879.575 22.8151 880.65 22.1773C881.743 21.5213 882.946 21.1933 884.258 21.1933C885.442 21.1933 886.472 21.4302 887.347 21.904C888.24 22.3596 888.95 22.9336 889.479 23.626V21.4393H892.622V36.5H889.479V34.2587C888.95 34.9693 888.23 35.5616 887.319 36.0353C886.408 36.5091 885.37 36.746 884.203 36.746C882.91 36.746 881.725 36.418 880.65 35.762C879.575 35.0878 878.718 34.1584 878.081 32.974C877.461 31.7713 877.151 30.4138 877.151 28.9013ZM889.479 28.956C889.479 27.9173 889.26 27.0153 888.823 26.25C888.404 25.4847 887.848 24.9016 887.155 24.5007C886.463 24.0998 885.716 23.8993 884.914 23.8993C884.112 23.8993 883.365 24.0998 882.673 24.5007C881.98 24.8833 881.415 25.4573 880.978 26.2227C880.559 26.9698 880.349 27.8627 880.349 28.9013C880.349 29.94 880.559 30.8511 880.978 31.6347C881.415 32.4182 881.98 33.0196 882.673 33.4387C883.383 33.8396 884.13 34.04 884.914 34.04C885.716 34.04 886.463 33.8396 887.155 33.4387C887.848 33.0378 888.404 32.4547 888.823 31.6893C889.26 30.9058 889.479 29.9947 889.479 28.956ZM895.676 28.956C895.676 27.4071 895.986 26.0496 896.605 24.8833C897.243 23.6989 898.118 22.7878 899.229 22.15C900.341 21.5122 901.616 21.1933 903.056 21.1933C904.878 21.1933 906.382 21.6307 907.566 22.5053C908.769 23.3618 909.58 24.5918 909.999 26.1953H906.637C906.363 25.4482 905.926 24.8651 905.325 24.446C904.723 24.0269 903.967 23.8173 903.056 23.8173C901.78 23.8173 900.76 24.2729 899.995 25.184C899.248 26.0769 898.874 27.3342 898.874 28.956C898.874 30.5778 899.248 31.8442 899.995 32.7553C900.76 33.6664 901.78 34.122 903.056 34.122C904.86 34.122 906.054 33.3293 906.637 31.744H909.999C909.561 33.2747 908.741 34.4956 907.539 35.4067C906.336 36.2996 904.842 36.746 903.056 36.746C901.616 36.746 900.341 36.4271 899.229 35.7893C898.118 35.1333 897.243 34.2222 896.605 33.056C895.986 31.8716 895.676 30.5049 895.676 28.956ZM916.739 23.9813V32.318C916.739 32.8829 916.867 33.2929 917.122 33.548C917.395 33.7849 917.851 33.9033 918.489 33.9033H920.402V36.5H917.942C916.539 36.5 915.464 36.172 914.717 35.516C913.97 34.86 913.596 33.794 913.596 32.318V23.9813H911.819V21.4393H913.596V17.6947H916.739V21.4393H920.402V23.9813H916.739Z" fill="#50D8FC"/>
<path d="M1129.02 24.9197C1128.71 24.9197 1128.42 24.982 1128.16 25.1289L1119.94 29.8744C1119.41 30.1807 1119.09 30.7595 1119.09 31.3749V40.8488C1119.09 41.464 1119.41 42.0418 1119.94 42.3491L1122.09 43.5858C1123.13 44.0998 1123.52 44.0916 1123.99 44.0916C1125.53 44.0916 1126.42 43.1549 1126.42 41.5268V32.1802C1126.42 32.048 1126.3 31.9535 1126.17 31.9535H1125.14C1125.01 31.9535 1124.9 32.0505 1124.9 32.1802V41.5317C1124.9 42.2533 1124.15 42.9793 1122.93 42.3692L1120.7 41.0607C1120.62 41.0178 1120.56 40.9395 1120.56 40.8515V31.3776C1120.56 31.2878 1120.62 31.1962 1120.7 31.1508L1128.9 26.4224C1128.97 26.3782 1129.06 26.3782 1129.14 26.4224L1137.34 31.1508C1137.42 31.1976 1137.48 31.2849 1137.48 31.3776V40.8515C1137.48 40.9419 1137.43 41.0346 1137.36 41.0782L1129.14 45.8067C1129.07 45.8486 1128.97 45.8486 1128.9 45.8067L1126.78 44.5506C1126.72 44.5137 1126.64 44.5167 1126.58 44.5506C1125.99 44.8809 1125.88 44.9192 1125.34 45.1088C1125.2 45.1556 1125 45.2286 1125.41 45.458L1128.16 47.0826C1128.43 47.2344 1128.72 47.3094 1129.02 47.3094C1129.32 47.3094 1129.61 47.2366 1129.87 47.0826L1138.09 42.3542C1138.62 42.0448 1138.95 41.4691 1138.95 40.8539V31.38C1138.95 30.7646 1138.62 30.187 1138.09 29.8795L1129.87 25.134C1129.62 24.9871 1129.32 24.9248 1129.02 24.9248L1129.02 24.9197ZM1131.21 31.6894C1128.87 31.6894 1127.48 32.6853 1127.48 34.3412C1127.48 36.1356 1128.86 36.6313 1131.11 36.8534C1133.8 37.1165 1134.01 37.511 1134.01 38.0399C1134.01 38.9572 1133.27 39.3483 1131.55 39.3483C1129.37 39.3483 1128.9 38.8061 1128.74 37.7237C1128.72 37.6077 1128.63 37.5144 1128.51 37.5144H1127.44C1127.38 37.5158 1127.32 37.542 1127.27 37.5875C1127.23 37.633 1127.2 37.6943 1127.2 37.7586C1127.2 39.1415 1127.95 40.7768 1131.54 40.7768C1134.14 40.7768 1135.64 39.7584 1135.64 37.9678C1135.64 36.1977 1134.43 35.7193 1131.91 35.3854C1129.36 35.0459 1129.12 34.8834 1129.12 34.2862C1129.12 33.7934 1129.32 33.1344 1131.21 33.1344C1132.9 33.1344 1133.52 33.4981 1133.78 34.6349C1133.8 34.7416 1133.89 34.8289 1134 34.8289H1135.07C1135.14 34.8289 1135.2 34.7886 1135.24 34.7416C1135.29 34.6914 1135.32 34.6349 1135.31 34.567C1135.15 32.6091 1133.84 31.6882 1131.21 31.6882L1131.21 31.6894Z" fill="#84CE2A"/>
<path d="M1080.7 12.5003C1080.61 12.5005 1080.52 12.5246 1080.44 12.5702C1080.36 12.6165 1080.3 12.6828 1080.25 12.7623C1080.21 12.8419 1080.18 12.932 1080.18 13.0238V26.3708C1080.18 26.5017 1080.12 26.6191 1080.01 26.6848C1079.95 26.7172 1079.89 26.7343 1079.82 26.7343C1079.76 26.7343 1079.7 26.7172 1079.64 26.6848L1077.46 25.4287C1077.3 25.3366 1077.12 25.2882 1076.94 25.2882C1076.75 25.2882 1076.57 25.3366 1076.41 25.4287L1067.71 30.4532C1067.38 30.6409 1067.18 31.0022 1067.18 31.3778V41.4272C1067.18 41.6111 1067.23 41.7918 1067.32 41.9511C1067.42 42.1103 1067.55 42.2425 1067.71 42.3343L1076.41 47.3591C1076.57 47.4514 1076.75 47.5 1076.94 47.5C1077.12 47.5 1077.3 47.4514 1077.46 47.3591L1086.17 42.3343C1086.32 42.2425 1086.46 42.1103 1086.55 41.9511C1086.64 41.7918 1086.69 41.6111 1086.69 41.4272V16.3735C1086.69 15.9924 1086.48 15.6347 1086.15 15.4489L1080.97 12.5525C1080.89 12.5071 1080.79 12.4993 1080.7 12.5003ZM1024.7 25.0446C1024.53 25.0514 1024.38 25.0802 1024.23 25.1668L1015.52 30.1914C1015.36 30.283 1015.23 30.4151 1015.14 30.5745C1015.05 30.7338 1015 30.9146 1015 31.0985L1015.02 44.5853C1015.02 44.773 1015.11 44.9471 1015.28 45.0388C1015.44 45.1358 1015.64 45.1358 1015.8 45.0388L1020.97 42.0727C1021.29 41.8787 1021.51 41.5402 1021.51 41.1658V34.8672C1021.51 34.4914 1021.71 34.147 1022.03 33.9603L1024.23 32.6868C1024.39 32.5944 1024.57 32.5462 1024.75 32.5471C1024.94 32.546 1025.12 32.5942 1025.28 32.6868L1027.47 33.9596C1027.8 34.1463 1028 34.4911 1028 34.8665V41.1648C1028 41.5397 1028.22 41.8801 1028.54 42.0717L1033.7 45.0378C1033.86 45.1348 1034.06 45.1348 1034.23 45.0378C1034.39 44.9456 1034.49 44.7718 1034.49 44.5843L1034.51 31.098C1034.51 30.914 1034.46 30.733 1034.37 30.5736C1034.27 30.4142 1034.14 30.2821 1033.98 30.1909L1025.28 25.1666C1025.13 25.0802 1024.97 25.0511 1024.8 25.0444H1024.7L1024.7 25.0446ZM1102.93 25.1668C1102.75 25.1663 1102.57 25.2145 1102.41 25.3065L1093.7 30.3313C1093.38 30.5192 1093.18 30.8628 1093.18 31.2382V41.2875C1093.18 41.6653 1093.39 42.0077 1093.72 42.1944L1102.36 47.1169C1102.67 47.2987 1103.06 47.3126 1103.38 47.1338L1108.62 44.2201C1108.79 44.128 1108.9 43.9558 1108.9 43.7667C1108.9 43.5775 1108.8 43.4073 1108.64 43.3132L1099.88 38.2884C1099.71 38.1948 1099.6 38.0055 1099.6 37.8173V34.6749C1099.6 34.4872 1099.71 34.3151 1099.88 34.2215L1102.6 32.6511C1102.76 32.5575 1102.96 32.5575 1103.12 32.6511L1105.85 34.2215C1105.93 34.2673 1105.99 34.3333 1106.04 34.413C1106.08 34.4926 1106.11 34.583 1106.11 34.6749V37.1524C1106.11 37.2443 1106.13 37.3347 1106.18 37.4143C1106.22 37.494 1106.29 37.56 1106.37 37.6058C1106.53 37.6999 1106.73 37.7004 1106.89 37.6058L1112.11 34.5707C1112.43 34.3825 1112.63 34.0379 1112.63 33.6638V31.2389C1112.63 31.055 1112.58 30.8744 1112.49 30.7152C1112.4 30.556 1112.27 30.4237 1112.11 30.3318L1103.46 25.307C1103.3 25.2149 1103.12 25.1667 1102.93 25.1673L1102.93 25.1668ZM1076.9 32.6693C1076.95 32.6691 1077 32.681 1077.04 32.704L1080.02 34.4312C1080.11 34.478 1080.16 34.5646 1080.16 34.6579V38.1124C1080.16 38.2062 1080.11 38.2926 1080.02 38.3391L1077.04 40.0664C1076.96 40.1124 1076.86 40.1124 1076.78 40.0664L1073.8 38.3391C1073.71 38.2923 1073.66 38.2058 1073.66 38.1124V34.6575C1073.66 34.5639 1073.71 34.478 1073.8 34.4307L1076.78 32.7038C1076.82 32.6802 1076.86 32.6693 1076.9 32.6693Z" fill="#404238"/>
<path d="M1050.85 25.1143C1050.67 25.1139 1050.49 25.1621 1050.33 25.2539L1041.62 30.2613C1041.3 30.449 1041.1 30.8105 1041.1 31.1859V41.2352C1041.1 41.4191 1041.15 41.5998 1041.24 41.7591C1041.33 41.9184 1041.46 42.0505 1041.62 42.1421L1050.33 47.1669C1050.49 47.2592 1050.67 47.3078 1050.85 47.3078C1051.04 47.3078 1051.22 47.2592 1051.38 47.1669L1060.08 42.1421C1060.24 42.0503 1060.37 41.9181 1060.47 41.7589C1060.56 41.5996 1060.61 41.4189 1060.61 41.235V31.1856C1060.61 30.8098 1060.41 30.4485 1060.08 30.261L1051.38 25.2537C1051.22 25.1615 1051.04 25.1132 1050.85 25.114L1050.85 25.1143ZM1102.91 34.0821C1102.88 34.0821 1102.84 34.0821 1102.81 34.0991L1101.13 35.0763C1101.1 35.0936 1101.08 35.1189 1101.06 35.1495C1101.04 35.1801 1101.03 35.215 1101.03 35.2507V37.1699C1101.03 37.2422 1101.07 37.3082 1101.13 37.3445L1102.81 38.304C1102.84 38.3219 1102.87 38.3313 1102.91 38.3313C1102.94 38.3313 1102.97 38.3219 1103 38.304L1104.68 37.3445C1104.74 37.3089 1104.78 37.2422 1104.78 37.1699V35.2507C1104.78 35.1784 1104.74 35.1124 1104.68 35.0761L1103 34.0989C1102.97 34.0804 1102.95 34.0819 1102.91 34.0819L1102.91 34.0821Z" fill="#84CE2A"/>
<path d="M588.063 7C587.042 7 585.978 7.05997 584.886 7.1908L585.519 9.14245C586.475 9.04432 587.435 9.01161 588.396 9.01161H588.723L588.069 7H588.063ZM600.699 8.95165L600.568 11.1323C601.66 11.4975 602.719 11.8846 603.778 12.3152L603.92 10.1128C603.619 9.94928 602.784 9.54586 600.699 8.95165ZM573.473 10.2055C572.599 10.6537 571.738 11.1263 570.891 11.6229L572.419 13.9452C573.276 13.4165 574.101 12.9095 574.963 12.4842L573.473 10.2055ZM589.247 10.3254C588.056 10.305 586.864 10.3541 585.678 10.4726C583.26 10.6907 580.716 11.3939 578.145 12.5169C570.405 15.886 562.436 22.973 557.223 31.6518C552.011 40.3252 550.177 48.0064 549.582 51.2937C549.38 52.3949 549.309 53 549.309 53H575.454C575.454 53 575.143 51.5826 574.93 49.3039C574.811 47.977 574.75 46.6455 574.75 45.3133C574.75 42.315 575.05 38.7552 576.082 35.1844C576.339 34.2958 576.644 33.3963 576.999 32.5132C577.354 31.63 577.763 30.7632 578.227 29.9019C579.155 28.1901 580.307 26.5328 581.753 25.0282C583.2 23.5236 584.941 22.1662 587.01 21.0159C588.363 20.3617 590.819 19.0261 594.356 18.3501C595.535 18.1266 596.829 17.9685 598.248 17.9358C599.667 17.9085 601.207 18.0012 602.861 18.2629C606.168 18.7917 609.945 20.0073 614.187 22.297C616.304 23.4473 618.542 24.8592 620.889 26.5928C621.49 26.1022 622.041 25.7096 622.041 25.7096C622.041 25.7096 620.971 24.6357 619.055 23.0602C617.145 21.4793 614.399 19.3968 611.048 17.3743C609.378 16.3603 607.544 15.3572 605.601 14.4413C603.604 13.5021 601.545 12.7007 599.438 12.0427C597.253 11.3656 595.014 10.8732 592.746 10.5707C591.587 10.4273 590.421 10.3454 589.253 10.3254H589.247ZM600.634 19.3205L600.508 21.4084C601.6 21.4411 602.691 21.5719 603.783 21.8009L603.92 19.7566C602.836 19.5344 601.738 19.3887 600.634 19.3205ZM592.894 20.1164C591.769 20.4489 590.814 20.8087 589.984 21.174L590.743 23.4527C591.698 22.9893 592.659 22.5968 593.62 22.3024L592.894 20.1164ZM560.1 20.2472C559.243 21.0704 558.408 21.899 557.649 22.7277L560.198 24.9083C560.891 24.0197 561.656 23.1256 562.447 22.3024L560.1 20.2472ZM583.789 25.1427C583.025 25.8405 582.337 26.5982 581.742 27.3615L583.331 29.7329C583.893 28.9097 584.553 28.1519 585.285 27.3887L583.789 25.1427ZM589.187 29.433V53H595.541V47.3141L601.037 53H610.431L603.057 45.5641C603.057 45.5641 608.843 45.0735 608.843 37.6049C608.843 30.1363 601.829 29.433 601.829 29.433H589.187ZM618.073 29.6075C613.477 29.6075 611.927 33.767 611.927 35.7514V53H618.373V48.8677H624.432V53H630.687V35.7514C630.687 30.7251 626.113 29.6075 624.525 29.6075H618.073ZM633.629 29.6075V52.9945H640.343V29.6075H633.629ZM643.089 29.6075V53H658.808V46.9488H649.769V29.6075H643.089ZM666.881 29.6075C664.234 29.6075 660.697 31.7826 660.697 35.844V37.932C660.697 41.9988 664.201 44.0758 666.881 44.0758C674.327 44.1086 665.096 44.0758 671.974 44.0758V46.9815L661.03 47.0142V53H671.848C674.065 53 677.869 51.3809 678 46.8561V44.5447C678 40.6741 674.829 38.3899 671.848 38.3899H666.456V35.6205H677.138V29.6075H666.881ZM577.938 34.3612C577.534 35.5505 577.202 36.7629 576.944 37.9919L579.619 40.1071C579.755 38.8206 579.996 37.534 580.329 36.242L577.938 34.3612ZM620.355 35.179H622.576C624.361 35.179 624.399 36.4655 624.399 36.4655V42.1896H618.34V36.4655C618.34 36.4655 618.335 35.179 620.355 35.179ZM595.541 35.3479H600.634C600.634 35.3479 602.064 35.8767 602.064 38.0192C602.064 40.1726 600.601 40.7395 600.601 40.7395H595.541V35.3479ZM548.654 35.6805C548.026 37.0979 547.333 38.7497 547 39.6438L550.804 41.0339C551.241 39.9109 551.929 38.2863 552.458 37.0652L548.654 35.6805ZM576.448 46.3818C576.513 48.1318 576.682 49.5655 576.852 50.5523L580.814 51.9697C580.481 50.5535 580.219 49.1216 580.028 47.6793L576.448 46.3818Z" fill="#CD0001"/>
<path d="M2066.85 22.815H2063.35V30.9C2063.35 32.974 2062.5 34.632 2059.99 34.632C2057.51 34.659 2056.79 32.952 2056.79 30.792V22.822H2053.29V31.672C2053.29 34.232 2054.2 37.872 2059 37.909C2061.64 37.936 2062.94 36.656 2063.56 35.509V37.454H2066.84L2066.85 22.815ZM2068.23 37.445H2071.73V29.37C2071.73 27.318 2072.58 25.666 2075.06 25.638C2077.51 25.638 2078.23 27.318 2078.23 29.503V37.445H2081.72V28.623C2081.72 26.038 2080.81 22.386 2076.04 22.359C2073.43 22.332 2072.12 23.612 2071.49 24.759L2071.51 22.814H2068.24V37.444L2068.23 37.445ZM2083.05 20.84H2086.55V17.72H2083.05V20.82V20.84ZM2083.05 37.444H2086.55V22.814H2083.05V37.444ZM2090.2 37.446H2093.69V25.506H2096.2L2095.16 22.814H2093.7V17.72H2090.2V22.816H2087.78V25.508H2090.2L2090.2 37.446ZM2099.57 42.563H2103.3L2111 22.815H2107.27L2103.75 32.542L2100.18 22.815H2096.45L2101.96 36.889L2099.57 42.563ZM2046.53 26.256L2042.63 11.792L2028.1 15.67L2025.95 19.446L2021.6 19.416L2011 30.003L2021.62 40.588L2025.98 40.555L2028.13 44.331L2042.63 48.207L2046.52 33.745L2044.32 30L2046.53 26.256ZM2037.43 17.21L2031.06 28.214H2018.32L2026.34 20.054L2037.43 17.21ZM2031.06 31.81L2037.43 42.813L2026.33 39.961L2018.31 31.813H2031.05L2031.06 31.81ZM2034.16 30.023L2040.54 19L2043.62 30.004L2040.54 41.004L2034.16 30.023Z" fill="#222C37"/>
<path d="M1837.88 27.6982C1836.53 27.6982 1835.44 28.0985 1834.6 28.8942C1833.76 29.6899 1833.33 30.7395 1833.33 32.0185C1833.33 32.6824 1833.44 33.2877 1833.64 33.8442C1833.85 34.4007 1834.18 34.9182 1834.61 35.3819C1835.04 35.8457 1835.92 36.4803 1837.22 37.3346C1838.82 38.3109 1839.86 39.1017 1840.37 39.7168C1840.84 40.2538 1841.1 40.9403 1841.12 41.6548C1841.12 42.5579 1840.82 43.2755 1840.21 43.8174C1839.59 44.3592 1838.78 44.6277 1837.77 44.6277C1836.69 44.6277 1835.82 44.2518 1834.97 43.5049C1834.12 42.758 1833.76 41.7622 1833.75 40.5174H1833.25V45.028H1833.75C1833.89 44.5984 1834.11 44.3836 1834.38 44.3836C1834.51 44.3836 1834.82 44.4813 1835.36 44.6472C1836.53 45.067 1837.5 45.2672 1838.26 45.2672C1839.56 45.2672 1840.68 44.8083 1841.61 43.8808C1842.06 43.4457 1842.42 42.9233 1842.66 42.3458C1842.9 41.7682 1843.01 41.1477 1843.01 40.5223C1843.01 39.5069 1842.7 38.6038 1842.09 37.8178C1841.48 37.0319 1840.3 36.1093 1838.53 35.0597C1837.02 34.1469 1836.03 33.4 1835.58 32.8239C1835.13 32.2833 1834.89 31.6053 1834.89 30.9055C1834.88 30.5576 1834.94 30.2117 1835.09 29.8948C1835.23 29.578 1835.45 29.2989 1835.72 29.0797C1836.27 28.6257 1836.99 28.3963 1837.89 28.3963C1838.91 28.3963 1839.75 28.699 1840.42 29.3043C1841.12 29.9688 1841.53 30.8723 1841.59 31.833H1842.09V27.9277H1841.62C1841.57 28.1229 1841.52 28.2547 1841.47 28.3182C1841.42 28.3817 1841.33 28.4061 1841.2 28.4061C1841.04 28.4061 1840.75 28.3377 1840.35 28.2108C1839.47 27.9179 1838.67 27.7715 1837.93 27.7715L1837.88 27.6982ZM1854.14 27.6982C1852.5 27.6982 1851.01 28.0888 1849.66 28.8601C1848.32 29.6227 1847.22 30.7325 1846.46 32.0722C1845.68 33.3958 1845.28 34.9027 1845.28 36.4363C1845.26 38.4748 1845.99 40.449 1847.33 41.9867C1848.7 43.6074 1850.35 44.6228 1852.25 45.0133C1852.69 45.2428 1853.31 45.8286 1854.13 46.7707C1855.05 47.8447 1855.83 48.616 1856.47 49.0749C1857.1 49.5257 1857.79 49.8704 1858.53 50.0951C1859.3 50.3227 1860.1 50.4346 1860.9 50.4271C1861.94 50.4271 1862.86 50.2464 1863.69 49.8754L1863.5 49.4214C1863.03 49.5923 1862.52 49.6753 1861.99 49.6753C1861.26 49.6753 1860.54 49.4312 1859.8 48.9577C1859.07 48.4842 1858.16 47.5664 1857.07 46.224L1856.01 45.0133C1858.1 44.6082 1859.81 43.5977 1861.15 41.977C1862.46 40.4322 1863.17 38.4674 1863.15 36.4412C1863.18 35.282 1862.95 34.1309 1862.5 33.0622C1862.05 31.9936 1861.39 31.031 1860.54 30.2367C1858.8 28.5525 1856.67 27.6982 1854.14 27.6982ZM1864.29 27.6982L1864.31 28.2352C1865.41 28.2352 1866.02 28.5574 1866.16 29.2018C1866.2 29.4312 1866.23 29.8608 1866.23 30.471L1866.22 42.2455C1866.21 43.1242 1866.09 43.6855 1865.85 43.9296C1865.61 44.1737 1865.2 44.3202 1864.61 44.3836L1864.58 44.9206H1875.47L1875.75 42.2503H1875.25C1875.1 42.9826 1874.78 43.5 1874.26 43.7929C1873.75 44.0858 1872.82 44.2323 1871.5 44.2323H1870.47C1869.27 44.2323 1868.59 43.8027 1868.4 42.9338C1868.36 42.7506 1868.35 42.5641 1868.35 42.3773L1868.4 30.4661C1868.4 29.5874 1868.51 29.0016 1868.74 28.7087C1868.97 28.4158 1869.39 28.2596 1869.99 28.2206L1869.97 27.6836L1864.29 27.6982ZM1854.31 28.3426C1855.19 28.3236 1856.06 28.5133 1856.84 28.8962C1857.63 29.279 1858.32 29.844 1858.84 30.5442C1860.01 32.0087 1860.59 34.0297 1860.59 36.5828C1860.59 39.0041 1860 40.9372 1858.83 42.3919C1858.28 43.0985 1857.56 43.6644 1856.75 44.0435C1855.94 44.4226 1855.04 44.6044 1854.15 44.574C1853.26 44.5947 1852.39 44.4007 1851.59 44.0088C1850.8 43.6168 1850.12 43.0386 1849.6 42.3236C1848.43 40.82 1847.86 38.8674 1847.86 36.4656C1847.86 34.0004 1848.44 32.0722 1849.62 30.5491C1850.79 29.026 1852.35 28.3426 1854.32 28.3426H1854.31ZM1879.36 30.8811C1879.09 30.8811 1878.89 30.9689 1878.74 31.1495C1878.66 31.2401 1878.61 31.3478 1878.58 31.4635C1878.55 31.5791 1878.56 31.6992 1878.59 31.8134C1878.65 32.0814 1878.8 32.3198 1879.02 32.4871C1879.25 32.6824 1879.5 32.78 1879.76 32.78C1880.02 32.78 1880.21 32.6824 1880.36 32.4871C1880.5 32.2918 1880.54 32.0722 1880.49 31.8134C1880.43 31.5547 1880.29 31.3253 1880.08 31.1495C1879.86 30.9738 1879.61 30.8811 1879.36 30.8811ZM1886.53 32.6873C1886.08 34.4251 1885.1 35.3624 1883.6 35.5186L1883.62 36.0165H1885.38L1885.35 41.8842L1885.45 43.9003C1885.62 44.7156 1886.16 45.1305 1887.05 45.1305C1888.34 45.1305 1889.68 44.3494 1891.1 42.7727L1890.67 42.4066C1889.65 43.4415 1888.75 43.9589 1887.96 43.9589C1887.47 43.9589 1887.18 43.6807 1887.06 43.129C1887.03 42.9734 1887.01 42.8145 1887.01 42.6555L1887.03 35.997H1889.72L1889.69 35.2013H1887.05V32.6726L1886.53 32.6873ZM1896.89 34.9035C1895.39 34.9035 1894.17 35.6358 1893.23 37.0758C1892.29 38.5159 1891.99 40.1268 1892.36 41.894C1892.52 42.8207 1892.98 43.6675 1893.68 44.2958C1894.35 44.862 1895.2 45.1403 1896.2 45.1403C1897.13 45.1403 1898.44 44.8962 1898.99 44.4227C1899.54 43.9492 1900.05 43.1681 1900.52 42.1088L1900.14 41.7183C1899.39 43.0949 1897.89 43.7881 1896.74 43.7881C1895.18 43.7881 1894.22 42.9289 1893.81 41.2203C1893.77 40.9898 1893.73 40.7567 1893.71 40.5223C1895.57 40.2294 1896.98 39.707 1897.93 38.9504C1898.89 38.1937 1899.84 37.3883 1899.66 36.5486C1899.57 36.0679 1899.29 35.6409 1898.9 35.3526C1898.49 35.0597 1897.43 34.8986 1896.85 34.8986L1896.89 34.9035ZM1880.51 34.967L1877.28 35.709V36.285L1878.4 36.1386C1878.94 36.1386 1879.26 36.3826 1879.36 36.8708C1879.4 37.0947 1879.42 37.3218 1879.42 37.5493L1879.39 42.8313C1879.38 43.5635 1879.3 43.9882 1879.14 44.1151C1878.97 44.2421 1878.53 44.3104 1877.84 44.3104L1877.82 44.8083H1882.94L1882.93 44.3104C1882.22 44.3104 1881.76 44.2616 1881.56 44.1444C1881.35 44.0273 1881.21 43.8369 1881.16 43.5342C1881.11 43.3145 1881.09 42.9387 1881.09 42.4114L1881.11 34.9572H1880.52L1880.51 34.967ZM1896.07 35.9433C1896.38 35.9433 1896.69 36.0653 1896.99 36.2997C1897.29 36.534 1897.48 36.7976 1897.52 37.0807C1897.82 38.4866 1896.57 39.4532 1893.77 39.995C1893.69 39.0187 1893.86 38.0424 1894.32 37.2028C1894.77 36.3631 1895.35 35.9335 1896.07 35.9335L1896.07 35.9433Z" fill="#003B57"/>
<path d="M1828.65 9.53857H1800.85C1798.99 9.53857 1797.46 11.0616 1797.46 12.9264V43.583C1797.46 45.4478 1798.99 46.9708 1800.85 46.9708H1819.16C1818.95 37.8617 1822.06 20.1854 1828.65 9.54834V9.53857Z" fill="#0F80CC"/>
<path d="M1827.64 10.5247H1800.85C1800.54 10.524 1800.23 10.5856 1799.94 10.7058C1799.64 10.826 1799.38 11.0026 1799.16 11.2253C1798.93 11.4479 1798.76 11.7124 1798.64 12.0035C1798.52 12.2946 1798.46 12.6066 1798.46 12.9215V41.3326C1804.52 39.004 1813.62 36.9977 1819.92 37.0856C1821.19 30.471 1824.9 17.5591 1827.63 10.5198L1827.64 10.5247Z" fill="url(#paint0_linear_1458_111)"/>
<path d="M1835.13 8.53316C1833.18 6.83436 1830.92 7.51778 1828.65 9.53389L1827.64 10.52C1823.75 14.6547 1820.14 22.2993 1819.01 28.1377C1819.5 29.0262 1819.79 30.1539 1820.02 31.0667L1820.16 31.672L1820.31 32.3555C1820.31 32.3555 1820.28 32.2237 1820.14 31.8087L1820.04 31.5402C1820.02 31.4909 1820 31.4421 1819.98 31.3938C1819.73 30.808 1819.02 29.5583 1818.71 29.0164C1818.47 29.7344 1818.23 30.457 1818.02 31.1839C1818.91 32.8143 1819.45 35.6115 1819.45 35.6115C1819.45 35.6115 1819.4 35.4309 1819.18 34.7963C1818.98 34.2349 1817.99 32.5019 1817.75 32.0919C1817.35 33.5759 1817.19 34.5815 1817.34 34.8256C1817.62 35.2991 1817.89 36.1143 1818.12 37.0125C1818.48 38.4986 1818.78 40.0004 1819.01 41.5134L1819.05 41.9283C1818.98 43.6067 1819.02 45.2875 1819.16 46.9613C1819.33 49.075 1819.66 50.891 1820.09 51.8673L1820.37 51.7111C1819.75 49.7975 1819.5 47.2835 1819.61 44.3887C1819.78 39.961 1820.8 34.6254 1822.68 29.0604C1825.85 20.664 1830.27 13.9274 1834.31 10.7055C1830.63 14.025 1825.65 24.7841 1824.15 28.7675C1822.48 33.2293 1821.3 37.4079 1820.59 41.4255C1821.82 37.6667 1825.8 36.0557 1825.8 36.0557C1825.8 36.0557 1827.75 33.6491 1830.03 30.2124L1825.67 31.3743L1824.26 31.9991C1824.26 31.9991 1827.85 29.8121 1830.93 28.8261C1835.16 22.1578 1839.77 12.6825 1835.13 8.54292" fill="#003B57"/>
<g clip-path="url(#clip0_1458_111)">
<mask id="mask0_1458_111" style="mask-type:luminance" maskUnits="userSpaceOnUse" x="1490" y="0" width="205" height="60">
<path d="M1695 0H1490V60H1695V0Z" fill="white"/>
</mask>
<g mask="url(#mask0_1458_111)">
<path d="M1567.3 25.3056C1567.3 19.024 1565.5 15.8 1561.92 15.6232C1560.49 15.556 1559.1 15.7832 1557.74 16.3088C1556.66 16.6952 1555.93 17.0784 1555.55 17.4648V32.4568C1557.84 33.8944 1559.88 34.5632 1561.66 34.4584C1565.42 34.2184 1567.3 31.1624 1567.3 25.3064L1567.3 25.3056ZM1571.72 25.5664C1571.72 28.7664 1570.97 31.4064 1569.46 33.5128C1567.78 35.8968 1565.46 37.124 1562.48 37.1912C1560.24 37.2712 1557.93 36.5608 1555.55 35.0888V48.7152L1551.7 47.344V17.0992C1552.33 16.3256 1553.14 15.6616 1554.13 15.0976C1556.42 13.7648 1559.2 13.0792 1562.47 13.0456L1562.53 13.1C1565.52 13.0624 1567.83 14.2896 1569.45 16.7784C1570.96 19.0616 1571.72 21.9784 1571.72 25.5656L1571.72 25.5664ZM1595.23 34.5088C1595.23 38.7888 1594.8 41.7528 1593.94 43.4008C1593.08 45.0488 1591.43 46.3648 1589.01 47.3448C1587.05 48.1184 1584.92 48.5392 1582.64 48.6104L1582 46.1888C1584.32 45.8736 1585.96 45.5584 1586.9 45.2432C1588.77 44.6128 1590.05 43.6456 1590.75 42.3504C1591.31 41.2944 1591.59 39.2816 1591.59 36.3008V35.3008C1588.99 36.4859 1586.17 37.0956 1583.32 37.088C1581.49 37.1133 1579.71 36.4788 1578.32 35.3008C1576.7 34.0016 1575.89 32.3536 1575.89 30.3568V14.3568L1579.74 13.0408V29.1368C1579.74 30.8568 1580.29 32.1808 1581.4 33.1096C1582.51 34.0384 1583.95 34.4856 1585.72 34.4504C1587.48 34.4152 1589.37 33.7304 1591.38 32.3984V13.6264H1595.22V34.5088H1595.23ZM1610.24 36.9888L1608.97 37.0432C1606.8 37.0432 1605.1 36.5264 1603.89 35.488C1602.68 34.4496 1602.08 33.008 1602.08 31.1872V16.0512H1599.43V13.6336H1602.08V7.2064L1605.92 5.84V13.6264H1610.24V16.044H1605.92V31.0744C1605.92 32.5168 1606.31 33.5384 1607.08 34.1352C1607.74 34.6272 1608.8 34.9088 1610.24 34.98V36.9816V36.9888ZM1633.53 36.6736H1629.68V21.84C1629.68 20.3304 1629.33 19.04 1628.63 17.9472C1627.81 16.7192 1626.69 16.1056 1625.24 16.1056C1623.48 16.1056 1621.27 17.0336 1618.63 18.8928V36.664H1614.78V1.2112L1618.63 0V16.1488C1621.08 14.3616 1623.77 13.4664 1626.68 13.4664C1628.72 13.4664 1630.37 14.152 1631.63 15.5184C1632.9 16.8848 1633.53 18.5872 1633.53 20.6224V36.6664V36.6736ZM1653.98 24.7C1653.98 22.2864 1653.52 20.2936 1652.6 18.7176C1651.52 16.796 1649.83 15.7832 1647.55 15.6776C1643.33 15.9216 1641.23 18.94 1641.23 24.7176C1641.23 27.3704 1641.67 29.5864 1642.55 31.3576C1643.68 33.624 1645.37 34.7416 1647.63 34.704C1651.86 34.6704 1653.98 31.332 1653.98 24.6848L1653.98 24.7ZM1658.19 24.7256C1658.19 28.1608 1657.31 31.0192 1655.55 33.3016C1653.61 35.8576 1650.95 37.14 1647.54 37.14C1644.17 37.14 1641.54 35.8576 1639.64 33.3016C1637.92 31.0184 1637.06 28.16 1637.06 24.7256C1637.06 21.4968 1637.99 18.7816 1639.85 16.5696C1641.81 14.2232 1644.4 13.0464 1647.59 13.0464C1650.79 13.0464 1653.39 14.224 1655.39 16.5696C1657.25 18.7808 1658.18 21.4976 1658.18 24.7256H1658.19ZM1680.24 36.6656H1676.39V20.992C1676.39 19.272 1675.88 17.9312 1674.84 16.964C1673.81 16.0016 1672.42 15.5344 1670.7 15.572C1668.88 15.6056 1667.14 16.2024 1665.5 17.3592V36.6656H1661.65V16.8848C1663.87 15.2744 1665.9 14.2232 1667.76 13.7312C1669.52 13.2728 1671.07 13.0456 1672.41 13.0456C1673.32 13.0456 1674.18 13.1256 1674.99 13.3096C1676.5 13.6584 1677.73 14.3064 1678.67 15.256C1679.73 16.3072 1680.26 17.576 1680.26 19.044V36.664L1680.24 36.6656Z" fill="#646464"/>
<path d="M1513.71 1.35191C1511.73 1.35991 1509.84 1.5295 1508.18 1.8319C1503.28 2.6959 1502.39 4.5063 1502.39 7.8439V12.2439H1513.97V13.7135H1498.05C1494.68 13.7135 1491.74 15.7335 1490.82 19.5775C1489.75 23.9831 1489.71 26.7319 1490.82 31.3311C1491.64 34.7551 1493.61 37.1951 1496.97 37.1951H1500.95V31.9111C1500.95 28.0935 1504.26 24.7271 1508.18 24.7271H1519.74C1522.96 24.7271 1525.53 22.0871 1525.53 18.8503V7.8359C1525.53 4.7015 1522.88 2.3479 1519.74 1.8239C1517.75 1.49828 1515.73 1.34039 1513.71 1.35191ZM1507.45 4.89591C1508.65 4.89591 1509.62 5.88791 1509.62 7.10631C1509.62 8.32071 1508.65 9.3031 1507.45 9.3031C1506.25 9.3031 1505.28 8.32071 1505.28 7.10631C1505.28 5.88711 1506.25 4.89591 1507.45 4.89591Z" fill="url(#paint1_linear_1458_111)"/>
<path d="M1526.97 13.7136V18.8496C1526.97 22.8312 1523.6 26.1824 1519.74 26.1824H1508.18C1505.01 26.1824 1502.39 28.8904 1502.39 32.0592V43.072C1502.39 46.2064 1505.12 48.0496 1508.18 48.9488C1511.84 50.0256 1515.36 50.2208 1519.74 48.9488C1522.66 48.1056 1525.53 46.4096 1525.53 43.072V38.672H1513.97V37.2024H1531.32C1534.68 37.2024 1535.94 34.8584 1537.11 31.3384C1538.32 27.716 1538.27 24.232 1537.11 19.5848C1536.28 16.2384 1534.69 13.7208 1531.32 13.7208H1526.98L1526.97 13.7136ZM1520.47 41.6016C1521.67 41.6016 1522.65 42.584 1522.65 43.7984C1522.65 45.0176 1521.67 46.0088 1520.47 46.0088C1519.28 46.0088 1518.3 45.0168 1518.3 43.7984C1518.3 42.584 1519.28 41.6016 1520.47 41.6016Z" fill="url(#paint2_linear_1458_111)"/>
<path d="M1687.73 10.2001H1688.4V5.97446H1690V5.47046H1686.13V5.97446H1687.73V10.2001ZM1690.6 10.2001H1691.18V6.34086L1692.43 10.1993H1693.07L1694.37 6.35366V10.2001H1695V5.47206H1694.17L1692.74 9.52326L1691.53 5.47206H1690.6L1690.6 10.2001Z" fill="#646464"/>
<path opacity="0.444" d="M1514.1 59.4399C1522.67 59.4399 1529.61 58.0943 1529.61 56.4343C1529.61 54.7744 1522.67 53.4287 1514.1 53.4287C1505.53 53.4287 1498.59 54.7744 1498.59 56.4343C1498.59 58.0943 1505.53 59.4399 1514.1 59.4399Z" fill="url(#paint3_radial_1458_111)"/>
</g>
</g>
<path fill-rule="evenodd" clip-rule="evenodd" d="M1341.91 22.33C1339.84 22.33 1338.28 23.11 1337.51 24.41L1337.12 25.19V22.72H1333.75V37.8H1337.38V28.83C1337.38 26.75 1338.54 25.45 1340.62 25.45C1342.56 25.45 1343.6 26.62 1343.6 28.7V37.8H1347.23V28.05C1347.1 24.54 1345.15 22.33 1341.91 22.33ZM1324.41 22.33C1320.14 22.33 1317.54 25.06 1317.54 29.35V31.43C1317.54 35.59 1320.27 38.06 1324.54 38.06C1327.4 38.06 1329.47 37.02 1330.64 34.81L1328.43 33.51C1327.53 34.81 1325.97 35.59 1324.54 35.59C1322.34 35.59 1321.04 34.29 1321.04 31.95V31.3H1331.15V28.83C1331.02 24.93 1328.43 22.33 1324.41 22.33ZM1327.78 29.09H1321.04V28.7C1321.04 26.23 1322.21 24.8 1324.41 24.8C1326.49 24.8 1327.78 26.1 1327.78 28.44V29.09ZM1383 20.25V17.39H1370.56V20.25H1374.96V34.94H1370.56V37.8H1383V34.94H1378.59V20.25H1383ZM1288.25 17C1282.68 17 1279.18 20.51 1279.18 26.1V29.09C1279.18 34.68 1282.68 38.19 1288.25 38.19C1293.83 38.19 1297.32 34.68 1297.32 29.09V26.1C1297.32 20.51 1293.83 17 1288.25 17ZM1293.57 29.35C1293.57 33.12 1291.62 35.2 1288.25 35.2C1284.88 35.2 1282.94 33.12 1282.94 29.35V25.84C1282.94 22.07 1284.88 19.99 1288.25 19.99C1291.62 19.99 1293.57 22.07 1293.57 25.84V29.35ZM1308.73 22.46C1306.79 22.46 1305.23 23.24 1304.32 24.54L1303.94 25.06V22.72H1300.57V43H1304.19V35.72L1304.58 36.24C1305.36 37.41 1307.05 38.19 1308.86 38.19C1311.97 38.19 1315.08 36.11 1315.08 31.56V28.96C1314.95 25.71 1313.01 22.33 1308.73 22.46ZM1311.32 31.43C1311.32 33.9 1309.9 35.33 1307.69 35.33C1305.62 35.33 1304.06 33.77 1304.06 31.43V29.22C1304.06 26.88 1305.49 25.32 1307.69 25.32C1309.9 25.32 1311.32 26.88 1311.32 29.22V31.43ZM1357.08 17.39L1349.82 37.8H1353.45L1354.87 33.38H1363.3L1364.72 37.67H1368.35L1361.1 17.26L1357.08 17.39ZM1355.78 30.52L1359.02 20.25L1362.26 30.52H1355.78ZM1269.85 27.66C1270.49 25.84 1270.24 23.89 1269.33 22.33C1267.9 19.86 1265.05 18.56 1262.33 19.21C1260.77 17.52 1258.44 16.74 1256.11 17.13C1253.77 17.65 1251.96 19.34 1251.18 21.55C1249.37 21.94 1247.81 23.11 1246.9 24.67C1245.48 27.14 1245.74 30.26 1247.68 32.34C1247.03 34.16 1247.29 36.11 1248.2 37.67C1249.63 40.14 1252.48 41.44 1255.2 40.79C1256.5 42.22 1258.18 43 1260.13 43C1262.98 43 1265.44 41.18 1266.35 38.45C1268.16 38.06 1269.72 36.89 1270.62 35.33C1272.05 32.86 1271.79 29.74 1269.85 27.66ZM1260.13 41.31C1258.96 41.31 1257.92 40.92 1257.01 40.14L1257.14 40.01L1262.33 37.02C1262.59 36.89 1262.72 36.63 1262.72 36.24V28.96L1264.92 30.26V36.37C1264.92 39.1 1262.85 41.31 1260.13 41.31ZM1249.63 36.76C1249.11 35.72 1248.85 34.68 1249.11 33.51L1249.24 33.64L1254.42 36.63C1254.68 36.76 1254.94 36.76 1255.33 36.63L1261.68 32.99V35.46C1261.68 35.46 1261.68 35.46 1261.68 35.59L1256.5 38.58C1254.03 39.88 1251.05 39.1 1249.63 36.76ZM1248.33 25.58C1248.85 24.54 1249.76 23.89 1250.92 23.5V29.61C1250.92 29.87 1251.05 30.13 1251.31 30.39L1257.53 34.03L1255.33 35.33C1255.33 35.33 1255.33 35.33 1255.2 35.33L1250.02 32.34C1247.81 30.78 1247.03 27.79 1248.33 25.58ZM1266.22 29.74L1260 26.1L1262.2 24.8C1262.2 24.8 1262.2 24.8 1262.33 24.8L1267.51 27.79C1269.2 28.7 1270.11 30.52 1269.98 32.47C1269.85 34.29 1268.55 35.98 1266.87 36.63V30.52C1266.74 30.13 1266.48 29.87 1266.22 29.74ZM1268.42 26.49L1268.29 26.36L1263.11 23.37C1262.85 23.24 1262.46 23.24 1262.2 23.37L1255.98 27.01V24.54C1255.98 24.54 1255.98 24.54 1255.98 24.41L1261.16 21.42C1262.85 20.51 1264.79 20.51 1266.35 21.68C1267.9 22.72 1268.68 24.54 1268.42 26.49ZM1254.81 30.91L1252.61 29.61V23.5C1252.61 21.55 1253.64 19.86 1255.46 19.08C1257.14 18.3 1259.22 18.56 1260.64 19.73L1260.51 19.86L1255.33 22.85C1255.07 22.98 1254.94 23.24 1254.94 23.63L1254.81 30.91ZM1255.98 28.31L1258.83 26.75L1261.68 28.31V31.56L1258.83 33.12L1255.98 31.56V28.31Z" fill="black"/>
<defs>
<linearGradient id="paint0_linear_1458_111" x1="1815.28" y1="11.1593" x2="1815.28" y2="39.624" gradientUnits="userSpaceOnUse">
<stop stop-color="#97D9F6"/>
<stop offset="0.92024" stop-color="#0F80CC"/>
<stop offset="1" stop-color="#0F80CC"/>
</linearGradient>
<linearGradient id="paint1_linear_1458_111" x1="1490" y1="1.35271" x2="1516.46" y2="24.3567" gradientUnits="userSpaceOnUse">
<stop stop-color="#5A9FD4"/>
<stop offset="1" stop-color="#306998"/>
</linearGradient>
<linearGradient id="paint2_linear_1458_111" x1="1520.19" y1="43.4288" x2="1510.75" y2="29.9266" gradientUnits="userSpaceOnUse">
<stop stop-color="#FFD43B"/>
<stop offset="1" stop-color="#FFE873"/>
</linearGradient>
<radialGradient id="paint3_radial_1458_111" cx="0" cy="0" r="1" gradientUnits="userSpaceOnUse" gradientTransform="translate(1514.1 56.4347) rotate(-90) scale(3.00529 13.2224)">
<stop stop-color="#B8B8B8" stop-opacity="0.498"/>
<stop offset="1" stop-color="#7F7F7F" stop-opacity="0"/>
</radialGradient>
<clipPath id="clip0_1458_111">
<rect width="205" height="60" fill="white" transform="translate(1490)"/>
</clipPath>
</defs>
</svg>
