<svg width="147" height="212" viewBox="0 0 147 212" fill="none" xmlns="http://www.w3.org/2000/svg">
<path d="M1.59801 205V190.455H10.6179V192.344H3.79261V196.776H9.97159V198.658H3.79261V205H1.59801ZM19.3732 200.476V194.091H21.5039V205H19.4158V203.111H19.3022C19.0513 203.693 18.6488 204.179 18.0948 204.567C17.5456 204.95 16.8614 205.142 16.0423 205.142C15.3415 205.142 14.7212 204.988 14.1815 204.68C13.6464 204.368 13.225 203.906 12.9173 203.295C12.6142 202.685 12.4627 201.929 12.4627 201.03V194.091H14.5863V200.774C14.5863 201.518 14.7923 202.109 15.2042 202.55C15.6161 202.99 16.1512 203.21 16.8093 203.21C17.207 203.21 17.6024 203.111 17.9954 202.912C18.3931 202.713 18.7222 202.412 18.9826 202.01C19.2478 201.607 19.378 201.096 19.3732 200.476ZM26.4808 198.523V205H24.3572V194.091H26.3956V195.866H26.5305C26.7815 195.289 27.1745 194.825 27.7095 194.474C28.2493 194.124 28.9287 193.949 29.7479 193.949C30.4912 193.949 31.1423 194.105 31.701 194.418C32.2597 194.725 32.6929 195.185 33.0007 195.795C33.3085 196.406 33.4624 197.161 33.4624 198.061V205H31.3388V198.317C31.3388 197.526 31.1328 196.908 30.7209 196.463C30.3089 196.013 29.7431 195.788 29.0234 195.788C28.531 195.788 28.093 195.895 27.7095 196.108C27.3307 196.321 27.0301 196.634 26.8075 197.045C26.5897 197.453 26.4808 197.945 26.4808 198.523ZM40.3942 205.213C39.5135 205.213 38.7275 204.988 38.0362 204.538C37.3497 204.084 36.8099 203.437 36.4169 202.599C36.0286 201.757 35.8345 200.746 35.8345 199.567C35.8345 198.388 36.031 197.379 36.424 196.541C36.8217 195.703 37.3662 195.062 38.0575 194.616C38.7488 194.171 39.5324 193.949 40.4084 193.949C41.0855 193.949 41.63 194.062 42.0419 194.29C42.4586 194.512 42.7805 194.773 43.0078 195.071C43.2398 195.369 43.4197 195.632 43.5476 195.859H43.6754V190.455H45.799V205H43.7251V203.303H43.5476C43.4197 203.535 43.2351 203.8 42.9936 204.098C42.7569 204.396 42.4302 204.657 42.0135 204.879C41.5968 205.102 41.0571 205.213 40.3942 205.213ZM40.8629 203.402C41.4737 203.402 41.9898 203.241 42.4112 202.919C42.8374 202.592 43.1593 202.14 43.3771 201.562C43.5997 200.985 43.7109 200.312 43.7109 199.545C43.7109 198.788 43.602 198.125 43.3842 197.557C43.1664 196.989 42.8468 196.546 42.4254 196.229C42.004 195.911 41.4832 195.753 40.8629 195.753C40.2237 195.753 39.6911 195.919 39.2649 196.25C38.8388 196.581 38.5168 197.034 38.299 197.607C38.0859 198.179 37.9794 198.826 37.9794 199.545C37.9794 200.275 38.0883 200.93 38.3061 201.513C38.5239 202.095 38.8459 202.557 39.272 202.898C39.7029 203.234 40.2332 203.402 40.8629 203.402ZM48.8299 205V194.091H50.9535V205H48.8299ZM49.9023 192.408C49.533 192.408 49.2158 192.285 48.9506 192.038C48.6902 191.787 48.56 191.489 48.56 191.143C48.56 190.793 48.6902 190.495 48.9506 190.249C49.2158 189.998 49.533 189.872 49.9023 189.872C50.2717 189.872 50.5865 189.998 50.8469 190.249C51.1121 190.495 51.2447 190.793 51.2447 191.143C51.2447 191.489 51.1121 191.787 50.8469 192.038C50.5865 192.285 50.2717 192.408 49.9023 192.408ZM55.9339 198.523V205H53.8104V194.091H55.8487V195.866H55.9837C56.2346 195.289 56.6276 194.825 57.1626 194.474C57.7024 194.124 58.3819 193.949 59.201 193.949C59.9444 193.949 60.5954 194.105 61.1541 194.418C61.7128 194.725 62.1461 195.185 62.4538 195.795C62.7616 196.406 62.9155 197.161 62.9155 198.061V205H60.7919V198.317C60.7919 197.526 60.5859 196.908 60.174 196.463C59.7621 196.013 59.1963 195.788 58.4766 195.788C57.9841 195.788 57.5462 195.895 57.1626 196.108C56.7839 196.321 56.4832 196.634 56.2607 197.045C56.0429 197.453 55.9339 197.945 55.9339 198.523ZM70.3374 209.318C69.4709 209.318 68.7251 209.205 68.1001 208.977C67.4799 208.75 66.9732 208.449 66.5803 208.075C66.1873 207.701 65.8937 207.292 65.6996 206.847L67.5249 206.094C67.6527 206.302 67.8232 206.522 68.0362 206.754C68.254 206.991 68.5476 207.192 68.9169 207.358C69.291 207.524 69.7715 207.607 70.3587 207.607C71.1636 207.607 71.8288 207.41 72.3544 207.017C72.88 206.629 73.1428 206.009 73.1428 205.156V203.011H73.0078C72.88 203.243 72.6953 203.501 72.4538 203.786C72.2171 204.07 71.8904 204.316 71.4737 204.524C71.0571 204.732 70.5149 204.837 69.8473 204.837C68.9856 204.837 68.209 204.635 67.5178 204.233C66.8312 203.826 66.2867 203.227 65.8842 202.436C65.4865 201.641 65.2876 200.663 65.2876 199.503C65.2876 198.343 65.4841 197.348 65.8771 196.52C66.2749 195.691 66.8194 195.057 67.5107 194.616C68.2019 194.171 68.9856 193.949 69.8615 193.949C70.5386 193.949 71.0855 194.062 71.5021 194.29C71.9188 194.512 72.2431 194.773 72.4751 195.071C72.7119 195.369 72.8942 195.632 73.022 195.859H73.1783V194.091H75.2592V205.241C75.2592 206.179 75.0414 206.948 74.6058 207.55C74.1702 208.151 73.5807 208.596 72.8374 208.885C72.0987 209.174 71.2654 209.318 70.3374 209.318ZM70.3161 203.075C70.9268 203.075 71.4429 202.933 71.8643 202.649C72.2905 202.36 72.6125 201.948 72.8303 201.413C73.0528 200.874 73.1641 200.227 73.1641 199.474C73.1641 198.741 73.0552 198.094 72.8374 197.536C72.6196 196.977 72.3 196.541 71.8786 196.229C71.4571 195.911 70.9363 195.753 70.3161 195.753C69.6768 195.753 69.1442 195.919 68.718 196.25C68.2919 196.577 67.9699 197.022 67.7521 197.585C67.5391 198.149 67.4325 198.778 67.4325 199.474C67.4325 200.189 67.5414 200.817 67.7592 201.357C67.977 201.896 68.299 202.318 68.7251 202.621C69.156 202.924 69.6863 203.075 70.3161 203.075ZM83.5707 205V190.455H88.7553C89.8822 190.455 90.8174 190.649 91.5607 191.037C92.3088 191.425 92.8675 191.963 93.2369 192.649C93.6062 193.331 93.7908 194.119 93.7908 195.014C93.7908 195.904 93.6038 196.688 93.2298 197.365C92.8604 198.037 92.3017 198.561 91.5536 198.935C90.8103 199.309 89.8751 199.496 88.7482 199.496H84.8207V197.607H88.5494C89.2596 197.607 89.8372 197.505 90.2823 197.301C90.7321 197.098 91.0612 196.802 91.2695 196.413C91.4779 196.025 91.582 195.559 91.582 195.014C91.582 194.465 91.4755 193.989 91.2624 193.587C91.0541 193.184 90.725 192.876 90.2752 192.663C89.8301 192.446 89.2454 192.337 88.521 192.337H85.7653V205H83.5707ZM90.7511 198.438L94.3448 205H91.8448L88.3221 198.438H90.7511ZM99.4656 205.241C98.7743 205.241 98.1493 205.114 97.5906 204.858C97.0318 204.598 96.5891 204.221 96.2624 203.729C95.9405 203.236 95.7795 202.633 95.7795 201.918C95.7795 201.302 95.8978 200.795 96.1346 200.398C96.3713 200 96.6909 199.685 97.0934 199.453C97.4959 199.221 97.9457 199.046 98.4428 198.928C98.94 198.809 99.4466 198.719 99.9627 198.658C100.616 198.582 101.146 198.52 101.554 198.473C101.961 198.421 102.257 198.338 102.441 198.224C102.626 198.111 102.718 197.926 102.718 197.67V197.621C102.718 197 102.543 196.52 102.193 196.179C101.847 195.838 101.331 195.668 100.645 195.668C99.9296 195.668 99.3661 195.826 98.9542 196.143C98.547 196.456 98.2653 196.804 98.109 197.188L96.1133 196.733C96.35 196.07 96.6957 195.535 97.1502 195.128C97.6095 194.716 98.1374 194.418 98.734 194.233C99.3306 194.044 99.958 193.949 100.616 193.949C101.052 193.949 101.513 194.001 102.001 194.105C102.493 194.205 102.953 194.389 103.379 194.659C103.81 194.929 104.163 195.315 104.437 195.817C104.712 196.314 104.849 196.96 104.849 197.756V205H102.775V203.509H102.69C102.553 203.783 102.347 204.053 102.072 204.318C101.797 204.583 101.445 204.804 101.014 204.979C100.583 205.154 100.067 205.241 99.4656 205.241ZM99.9272 203.537C100.514 203.537 101.016 203.421 101.433 203.189C101.854 202.957 102.174 202.654 102.392 202.28C102.614 201.901 102.725 201.496 102.725 201.065V199.659C102.65 199.735 102.503 199.806 102.285 199.872C102.072 199.934 101.828 199.988 101.554 200.036C101.279 200.078 101.011 200.118 100.751 200.156C100.491 200.189 100.273 200.218 100.098 200.241C99.6857 200.294 99.3093 200.381 98.9684 200.504C98.6322 200.627 98.3623 200.805 98.1587 201.037C97.9599 201.264 97.8604 201.567 97.8604 201.946C97.8604 202.472 98.0546 202.869 98.4428 203.139C98.8311 203.404 99.3259 203.537 99.9272 203.537ZM107.678 205V194.091H109.801V205H107.678ZM108.75 192.408C108.381 192.408 108.063 192.285 107.798 192.038C107.538 191.787 107.408 191.489 107.408 191.143C107.408 190.793 107.538 190.495 107.798 190.249C108.063 189.998 108.381 189.872 108.75 189.872C109.119 189.872 109.434 189.998 109.695 190.249C109.96 190.495 110.092 190.793 110.092 191.143C110.092 191.489 109.96 191.787 109.695 192.038C109.434 192.285 109.119 192.408 108.75 192.408ZM120.833 196.754L118.908 197.095C118.828 196.849 118.7 196.615 118.525 196.392C118.354 196.17 118.122 195.987 117.828 195.845C117.535 195.703 117.168 195.632 116.728 195.632C116.126 195.632 115.624 195.767 115.222 196.037C114.819 196.302 114.618 196.645 114.618 197.067C114.618 197.431 114.753 197.725 115.023 197.947C115.293 198.17 115.729 198.352 116.33 198.494L118.063 198.892C119.067 199.124 119.815 199.482 120.307 199.964C120.8 200.447 121.046 201.075 121.046 201.847C121.046 202.5 120.856 203.082 120.478 203.594C120.104 204.1 119.58 204.498 118.908 204.787C118.24 205.076 117.466 205.22 116.586 205.22C115.364 205.22 114.367 204.96 113.596 204.439C112.824 203.913 112.35 203.168 112.175 202.202L114.228 201.889C114.355 202.424 114.618 202.829 115.016 203.104C115.414 203.374 115.932 203.509 116.571 203.509C117.267 203.509 117.824 203.364 118.24 203.075C118.657 202.782 118.865 202.424 118.865 202.003C118.865 201.662 118.738 201.375 118.482 201.143C118.231 200.911 117.845 200.736 117.324 200.618L115.478 200.213C114.46 199.981 113.707 199.612 113.219 199.105C112.736 198.598 112.495 197.957 112.495 197.18C112.495 196.536 112.675 195.973 113.034 195.49C113.394 195.007 113.891 194.631 114.526 194.361C115.16 194.086 115.887 193.949 116.706 193.949C117.885 193.949 118.813 194.205 119.49 194.716C120.167 195.223 120.615 195.902 120.833 196.754ZM128.082 205.22C127.008 205.22 126.082 204.991 125.305 204.531C124.534 204.067 123.937 203.416 123.516 202.578C123.099 201.735 122.891 200.748 122.891 199.616C122.891 198.499 123.099 197.514 123.516 196.662C123.937 195.81 124.524 195.144 125.277 194.666C126.035 194.188 126.92 193.949 127.933 193.949C128.549 193.949 129.145 194.051 129.723 194.254C130.301 194.458 130.819 194.777 131.278 195.213C131.738 195.649 132.1 196.214 132.365 196.911C132.63 197.602 132.763 198.442 132.763 199.432V200.185H124.091V198.594H130.682C130.682 198.035 130.568 197.54 130.341 197.109C130.114 196.674 129.794 196.33 129.382 196.08C128.975 195.829 128.497 195.703 127.947 195.703C127.351 195.703 126.83 195.85 126.385 196.143C125.945 196.432 125.604 196.811 125.362 197.28C125.125 197.744 125.007 198.248 125.007 198.793V200.036C125.007 200.765 125.135 201.385 125.391 201.896C125.651 202.408 126.013 202.798 126.477 203.068C126.941 203.333 127.483 203.466 128.104 203.466C128.506 203.466 128.873 203.409 129.205 203.295C129.536 203.177 129.822 203.002 130.064 202.77C130.305 202.538 130.49 202.251 130.618 201.911L132.628 202.273C132.467 202.865 132.178 203.383 131.761 203.828C131.349 204.268 130.831 204.612 130.206 204.858C129.586 205.099 128.878 205.22 128.082 205.22ZM139.203 205.213C138.322 205.213 137.536 204.988 136.845 204.538C136.158 204.084 135.618 203.437 135.225 202.599C134.837 201.757 134.643 200.746 134.643 199.567C134.643 198.388 134.84 197.379 135.233 196.541C135.63 195.703 136.175 195.062 136.866 194.616C137.557 194.171 138.341 193.949 139.217 193.949C139.894 193.949 140.439 194.062 140.85 194.29C141.267 194.512 141.589 194.773 141.816 195.071C142.048 195.369 142.228 195.632 142.356 195.859H142.484V190.455H144.608V205H142.534V203.303H142.356C142.228 203.535 142.044 203.8 141.802 204.098C141.565 204.396 141.239 204.657 140.822 204.879C140.405 205.102 139.866 205.213 139.203 205.213ZM139.672 203.402C140.282 203.402 140.798 203.241 141.22 202.919C141.646 202.592 141.968 202.14 142.186 201.562C142.408 200.985 142.52 200.312 142.52 199.545C142.52 198.788 142.411 198.125 142.193 197.557C141.975 196.989 141.655 196.546 141.234 196.229C140.813 195.911 140.292 195.753 139.672 195.753C139.032 195.753 138.5 195.919 138.074 196.25C137.647 196.581 137.325 197.034 137.108 197.607C136.895 198.179 136.788 198.826 136.788 199.545C136.788 200.275 136.897 200.93 137.115 201.513C137.333 202.095 137.654 202.557 138.081 202.898C138.511 203.234 139.042 203.402 139.672 203.402Z" fill="#474747"/>
<circle cx="74" cy="62" r="62" fill="white"/>
<path d="M26.4886 170.318C24.7917 170.318 23.2803 170.027 21.9545 169.443C20.6364 168.852 19.5947 168.042 18.8295 167.011C18.072 165.973 17.6818 164.777 17.6591 163.42H22.6136C22.6439 163.989 22.8295 164.489 23.1705 164.92C23.5189 165.345 23.9811 165.674 24.5568 165.909C25.1326 166.144 25.7803 166.261 26.5 166.261C27.25 166.261 27.9129 166.129 28.4886 165.864C29.0644 165.598 29.5152 165.231 29.8409 164.761C30.1667 164.292 30.3295 163.75 30.3295 163.136C30.3295 162.515 30.1553 161.966 29.8068 161.489C29.4659 161.004 28.9735 160.625 28.3295 160.352C27.6932 160.08 26.9356 159.943 26.0568 159.943H23.8864V156.33H26.0568C26.7992 156.33 27.4545 156.201 28.0227 155.943C28.5985 155.686 29.0455 155.33 29.3636 154.875C29.6818 154.413 29.8409 153.875 29.8409 153.261C29.8409 152.678 29.7008 152.167 29.4205 151.727C29.1477 151.28 28.7614 150.932 28.2614 150.682C27.7689 150.432 27.1932 150.307 26.5341 150.307C25.8674 150.307 25.2576 150.428 24.7045 150.67C24.1515 150.905 23.7083 151.242 23.375 151.682C23.0417 152.121 22.8636 152.636 22.8409 153.227H18.125C18.1477 151.886 18.5303 150.705 19.2727 149.682C20.0152 148.659 21.0152 147.86 22.2727 147.284C23.5379 146.701 24.9659 146.409 26.5568 146.409C28.1629 146.409 29.5682 146.701 30.7727 147.284C31.9773 147.867 32.9129 148.655 33.5795 149.648C34.2538 150.633 34.5871 151.739 34.5795 152.966C34.5871 154.269 34.1818 155.356 33.3636 156.227C32.553 157.098 31.4962 157.652 30.1932 157.886V158.068C31.9053 158.288 33.2083 158.883 34.1023 159.852C35.0038 160.814 35.4508 162.019 35.4432 163.466C35.4508 164.792 35.0682 165.97 34.2955 167C33.5303 168.03 32.4735 168.841 31.125 169.432C29.7765 170.023 28.2311 170.318 26.4886 170.318ZM41.1989 170.295C40.4489 170.295 39.8049 170.03 39.267 169.5C38.7367 168.962 38.4716 168.318 38.4716 167.568C38.4716 166.826 38.7367 166.189 39.267 165.659C39.8049 165.129 40.4489 164.864 41.1989 164.864C41.9261 164.864 42.5625 165.129 43.108 165.659C43.6534 166.189 43.9261 166.826 43.9261 167.568C43.9261 168.068 43.7973 168.527 43.5398 168.943C43.2898 169.352 42.9602 169.682 42.5511 169.932C42.142 170.174 41.6913 170.295 41.1989 170.295ZM56.1676 170.318C54.5616 170.318 53.1297 170.023 51.8722 169.432C50.6222 168.841 49.6297 168.027 48.8949 166.989C48.16 165.951 47.7775 164.761 47.7472 163.42H52.5199C52.5729 164.322 52.9517 165.053 53.6562 165.614C54.3608 166.174 55.1979 166.455 56.1676 166.455C56.9403 166.455 57.6222 166.284 58.2131 165.943C58.8116 165.595 59.2775 165.114 59.6108 164.5C59.9517 163.879 60.1222 163.167 60.1222 162.364C60.1222 161.545 59.9479 160.826 59.5994 160.205C59.2585 159.583 58.785 159.098 58.179 158.75C57.5729 158.402 56.8797 158.223 56.0994 158.216C55.4176 158.216 54.7547 158.356 54.1108 158.636C53.4744 158.917 52.9782 159.299 52.6222 159.784L48.2472 159L49.3494 146.727H63.5767V150.75H53.4062L52.804 156.58H52.9403C53.3494 156.004 53.9669 155.527 54.7926 155.148C55.6184 154.769 56.5426 154.58 57.5653 154.58C58.9669 154.58 60.2169 154.909 61.3153 155.568C62.4138 156.227 63.2812 157.133 63.9176 158.284C64.554 159.428 64.8684 160.746 64.8608 162.239C64.8684 163.807 64.5047 165.201 63.7699 166.42C63.0426 167.633 62.0237 168.587 60.7131 169.284C59.41 169.973 57.8949 170.318 56.1676 170.318ZM75.8352 146.727H81.9034L88.3125 162.364H88.5852L94.9943 146.727H101.062V170H96.2898V154.852H96.0966L90.0739 169.886H86.8239L80.8011 154.795H80.608V170H75.8352V146.727ZM120.205 172.909V143.818H122.068V172.909H120.205ZM125.148 153.42C125.057 152.504 124.667 151.792 123.977 151.284C123.288 150.777 122.352 150.523 121.17 150.523C120.367 150.523 119.689 150.636 119.136 150.864C118.583 151.083 118.159 151.39 117.864 151.784C117.576 152.178 117.432 152.625 117.432 153.125C117.417 153.542 117.504 153.905 117.693 154.216C117.89 154.527 118.159 154.795 118.5 155.023C118.841 155.242 119.235 155.436 119.682 155.602C120.129 155.761 120.606 155.898 121.114 156.011L123.205 156.511C124.22 156.739 125.152 157.042 126 157.42C126.848 157.799 127.583 158.265 128.205 158.818C128.826 159.371 129.307 160.023 129.648 160.773C129.996 161.523 130.174 162.383 130.182 163.352C130.174 164.777 129.811 166.011 129.091 167.057C128.379 168.095 127.348 168.902 126 169.477C124.659 170.045 123.042 170.33 121.148 170.33C119.269 170.33 117.633 170.042 116.239 169.466C114.852 168.89 113.769 168.038 112.989 166.909C112.216 165.773 111.811 164.367 111.773 162.693H116.534C116.587 163.473 116.811 164.125 117.205 164.648C117.606 165.163 118.14 165.553 118.807 165.818C119.481 166.076 120.242 166.205 121.091 166.205C121.924 166.205 122.648 166.083 123.261 165.841C123.883 165.598 124.364 165.261 124.705 164.83C125.045 164.398 125.216 163.902 125.216 163.341C125.216 162.818 125.061 162.379 124.75 162.023C124.447 161.667 124 161.364 123.409 161.114C122.826 160.864 122.11 160.636 121.261 160.432L118.727 159.795C116.765 159.318 115.216 158.572 114.08 157.557C112.943 156.542 112.379 155.174 112.386 153.455C112.379 152.045 112.754 150.814 113.511 149.761C114.277 148.708 115.326 147.886 116.659 147.295C117.992 146.705 119.508 146.409 121.205 146.409C122.932 146.409 124.439 146.705 125.727 147.295C127.023 147.886 128.03 148.708 128.75 149.761C129.47 150.814 129.841 152.034 129.864 153.42H125.148Z" fill="#474747"/>
<g clip-path="url(#clip0_1_1059)">
<path d="M58.8932 66.7682L58.8932 66.7682L57.789 67.8721C57.6773 67.9841 57.5446 68.0729 57.3985 68.1335C57.2524 68.1942 57.0958 68.2254 56.9376 68.2254C56.7794 68.2254 56.6228 68.1942 56.4767 68.1335C56.3306 68.0729 56.1979 67.9841 56.0862 67.8721L56.157 67.8015M58.8932 66.7682L56.0863 66.1696C55.9744 66.2813 55.8855 66.4139 55.8249 66.56C55.7643 66.7061 55.7331 66.8627 55.7331 67.0209C55.7331 67.1791 55.7643 67.3357 55.8249 67.4818C55.8856 67.6279 55.9744 67.7606 56.0864 67.8723L56.157 67.8015M58.8932 66.7682C60.0711 65.5904 61.7716 64.9125 63.5628 64.9125H68.8885L72.0153 65.9542L58.8932 66.7682ZM56.157 67.8015C56.2594 67.9042 56.3811 67.9856 56.5151 68.0412C56.649 68.0968 56.7926 68.1254 56.9376 68.1254C57.0826 68.1254 57.2262 68.0968 57.3602 68.0412C57.4941 67.9856 57.6158 67.9042 57.7182 67.8015H56.157ZM57.1906 65.0653L56.0864 66.1695L72.0154 65.9542C72.138 65.9952 72.2668 66.0168 72.3959 66.0168H82.3334C83.4961 66.0168 84.4416 66.9622 84.4416 68.125C84.4416 69.2877 83.4961 70.2336 82.3334 70.2336H72.3959C70.5142 70.2336 68.9834 71.7643 68.9834 73.6461C68.9834 74.3119 69.5229 74.8499 70.1877 74.8499C70.8523 74.8499 71.3916 74.3119 71.3916 73.6461C71.3916 73.0915 71.8425 72.6418 72.3959 72.6418H82.3334C84.8244 72.6418 86.8501 70.616 86.8501 68.125C86.8501 65.6339 84.8244 63.6086 82.3334 63.6086H72.5908L69.4641 62.5669C69.3414 62.5259 69.2126 62.5043 69.0834 62.5043H63.5628C61.1416 62.5043 58.8189 63.4368 57.1906 65.0653Z" fill="#FF9700" stroke="#FF9700" stroke-width="0.2"/>
<path d="M64.3432 81.1928L64.2725 81.1221L62.7113 79.5609L62.6406 79.4902L62.7113 79.4195L64.9194 77.2114C65.0311 77.0993 65.1638 77.0105 65.31 76.9499C65.4562 76.8894 65.6129 76.8583 65.7711 76.8585M64.3432 81.1928L65.771 76.9585M64.3432 81.1928L64.4139 81.1221L66.2697 79.2667L64.3432 81.1928ZM65.7711 76.8585L65.771 76.9585M65.7711 76.8585H65.771V76.9585M65.7711 76.8585H80.7995M65.771 76.9585H80.8352M80.7995 76.8585L80.7719 76.8811L80.8352 76.9585M80.7995 76.8585L92.4596 67.3185M80.7995 76.8585H80.8352V76.9585M80.8352 76.9585L92.4596 67.3185M92.4596 67.3185L92.4724 67.308L92.5357 67.3854L92.4509 67.3324L92.4596 67.3185ZM97.3766 59.6407L97.4296 59.5559L97.4296 59.5559C97.4296 59.5559 97.4296 59.5559 97.4296 59.5558C97.4007 59.5389 97.3716 59.5225 97.3424 59.5066L97.2893 59.5916C97.3183 59.6073 97.3474 59.6237 97.3766 59.6407ZM89.3168 61.647L89.3081 61.6557L89.3788 61.7264L89.3274 61.6406L89.3168 61.647Z" fill="#FF9700" stroke="#FF9700" stroke-width="0.2"/>
<path d="M86.1441 60.3321C86.3347 60.4441 86.5432 60.4961 86.7489 60.4961C87.1625 60.4961 87.5675 60.2822 87.7904 59.8978C89.3418 57.236 90.1626 54.3535 90.1626 51.5626C90.1626 42.375 82.6879 34.9002 73.5002 34.9002C64.3122 34.9002 56.8378 42.375 56.8378 51.5626C56.8378 54.3535 57.6595 57.236 59.2087 59.8985L59.2088 59.8986C59.5449 60.4746 60.2805 60.6667 60.8556 60.3335L60.8559 60.3333C61.4302 59.9974 61.6254 59.2606 61.2906 58.6859C59.9523 56.3872 59.246 53.9245 59.246 51.5626C59.246 43.7034 65.6406 37.3088 73.5002 37.3088C81.3594 37.3088 87.754 43.7034 87.754 51.5626C87.754 53.9244 87.0478 56.3872 85.7094 58.6851C85.3748 59.2592 85.5687 59.9973 86.1441 60.3321ZM86.1441 60.3321C86.1442 60.3321 86.1442 60.3321 86.1443 60.3322L86.1946 60.2457L86.1439 60.3319C86.144 60.332 86.144 60.332 86.1441 60.3321ZM61.3542 88.0999C61.1961 88.1001 61.0394 88.069 60.8933 88.0085C60.7473 87.948 60.6146 87.8592 60.5031 87.7472C60.503 87.7471 60.5029 87.747 60.5028 87.747L60.5737 87.6764C60.471 87.574 60.3896 87.4523 60.334 87.3183C60.2784 87.1844 60.2498 87.0408 60.2498 86.8958C60.2498 86.7508 60.2784 86.6072 60.334 86.4732C60.3896 86.3393 60.471 86.2176 60.5737 86.1152L61.3542 88.0999ZM61.3542 88.0999C61.3542 88.0999 61.3541 88.0999 61.3541 88.0999L61.3542 87.9999L61.3542 88.0999ZM61.3542 88.0999C61.5124 88.1 61.6689 88.069 61.815 88.0084C61.9612 87.9479 62.094 87.859 62.2057 87.747L66.6224 83.3308C66.7342 83.219 66.823 83.0862 66.8835 82.9401C66.9441 82.794 66.9752 82.6374 66.9752 82.4792C66.9752 82.321 66.9441 82.1644 66.8835 82.0183C66.823 81.8722 66.7342 81.7395 66.6224 81.6277C66.6224 81.6277 66.6224 81.6277 66.6224 81.6277L53.3725 68.3778C53.3725 68.3778 53.3725 68.3778 53.3725 68.3778M61.3542 88.0999L53.3725 68.3778M64.0683 82.4792L60.5031 86.0444L64.0683 82.4792ZM64.0683 82.4792L52.521 70.9319L48.9558 74.4971L64.0683 82.4792ZM53.3725 68.3778C53.2607 68.2659 53.1279 68.1772 52.9818 68.1166C52.8357 68.0561 52.6791 68.0249 52.5209 68.0249C52.3628 68.0249 52.2062 68.0561 52.0601 68.1166C51.9139 68.1772 51.7812 68.2659 51.6694 68.3778L47.2531 72.7945C47.1412 72.9062 47.0523 73.0389 46.9917 73.185C46.9311 73.3311 46.8999 73.4877 46.8999 73.6459C46.8999 73.804 46.9311 73.9607 46.9917 74.1067C47.0523 74.2528 47.1412 74.3855 47.2531 74.4973C47.2531 74.4972 47.253 74.4971 47.253 74.4971L53.3725 68.3778Z" fill="#FF9700" stroke="#FF9700" stroke-width="0.2"/>
<path d="M71.2916 59.3919H75.7084C77.5901 59.3919 79.1209 57.8611 79.1209 55.9794V53.7712C79.1209 51.8895 77.5901 50.3587 75.7084 50.3587H71.2916C70.7387 50.3587 70.2877 49.9078 70.2877 49.3544V47.1462C70.2877 46.5929 70.7387 46.1419 71.2916 46.1419H75.7084C76.2625 46.1419 76.7127 46.5929 76.7127 47.1462C76.7127 47.8108 77.2508 48.3501 77.9166 48.3501C78.5824 48.3501 79.1209 47.8108 79.1209 47.1462C79.1209 45.2645 77.5901 43.7337 75.7084 43.7337H71.2916C69.4104 43.7337 67.8791 45.2645 67.8791 47.1462V49.3544C67.8791 51.2361 69.4104 52.7669 71.2916 52.7669H75.7084C76.2625 52.7669 76.7127 53.2179 76.7127 53.7712V55.9794C76.7127 56.5327 76.2625 56.9837 75.7084 56.9837H71.2916C70.7387 56.9837 70.2877 56.5328 70.2877 55.9794C70.2877 55.3148 69.7481 54.7751 69.0834 54.7751C68.4188 54.7751 67.8791 55.3148 67.8791 55.9794C67.8791 57.8611 69.4104 59.3919 71.2916 59.3919Z" fill="#FF9700" stroke="#FF9700" stroke-width="0.2"/>
<path d="M82.3334 50.3587H82.2334V50.4587V52.6669V52.7669H82.3334H84.5416H84.6416V52.6669V50.4587V50.3587H84.5416H82.3334ZM62.4585 50.3587H62.3585V50.4587V52.6669V52.7669H62.4585H64.6667H64.7667V52.6669V50.4587V50.3587H64.6667H62.4585ZM72.2959 60.3961C72.2959 61.0608 72.8353 61.6 73.5002 61.6C74.1649 61.6 74.7041 61.0607 74.7041 60.3961V42.7294C74.7041 42.0648 74.1649 41.5251 73.5002 41.5251C72.8352 41.5251 72.2959 42.0648 72.2959 42.7294V60.3961Z" fill="#FF9700" stroke="#FF9700" stroke-width="0.2"/>
</g>
<defs>
<clipPath id="clip0_1_1059">
<rect width="53" height="53" fill="white" transform="translate(47 35)"/>
</clipPath>
</defs>
</svg>
