<svg width="124" height="124" viewBox="0 0 124 124" fill="none" xmlns="http://www.w3.org/2000/svg">
<circle cx="62" cy="62" r="62" fill="white"/>
<path d="M47.8933 67.768L47.8933 67.768L46.7891 68.8719C46.6774 68.9839 46.5447 69.0727 46.3986 69.1334C46.2525 69.194 46.0959 69.2252 45.9377 69.2252C45.7796 69.2252 45.6229 69.194 45.4768 69.1334C45.3308 69.0728 45.1981 68.9839 45.0864 68.872C45.0864 68.872 45.0863 68.8719 45.0863 68.8719L47.8933 67.768ZM47.8933 67.768C49.0713 66.5902 50.7717 65.9123 52.5629 65.9123H57.8886L61.0154 66.954C61.1381 66.995 61.2669 67.0166 61.396 67.0166H71.3335C72.4962 67.0166 73.4417 67.9621 73.4417 69.1248C73.4417 70.2875 72.4962 71.2334 71.3335 71.2334H61.396C59.5143 71.2334 57.9836 72.7641 57.9836 74.6459C57.9836 75.3117 58.523 75.8498 59.1879 75.8498M47.8933 67.768L59.1879 75.8498M59.1879 75.8498C59.8524 75.8498 60.3918 75.3117 60.3918 74.6459C60.3918 74.0914 60.8426 73.6416 61.396 73.6416H71.3335C73.8245 73.6416 75.8503 71.6158 75.8503 69.1248C75.8503 66.6337 73.8245 64.6084 71.3335 64.6084H61.5909L58.4642 63.5667C58.3415 63.5258 58.2127 63.5041 58.0836 63.5041H52.5629C50.1417 63.5041 47.8191 64.4366 46.1907 66.0651L45.0865 67.1693C45.0865 67.1693 45.0865 67.1693 45.0864 67.1694L59.1879 75.8498Z" fill="#FF9700" stroke="#FF9700" stroke-width="0.2"/>
<path d="M53.3433 82.1927L53.2726 82.122L51.7114 80.5608L51.6407 80.49L51.7114 80.4193L53.9195 78.2113C53.9195 78.2112 53.9195 78.2112 53.9196 78.2112L53.9196 78.2112L53.9903 78.2819C54.0927 78.1792 54.2144 78.0977 54.3484 78.0422C54.4824 77.9867 54.6261 77.9582 54.7711 77.9584L53.3433 82.1927ZM53.3433 82.1927L53.414 82.122L55.2698 80.2666L53.3433 82.1927Z" fill="#FF9700" stroke="#FF9700" stroke-width="0.2"/>
<path d="M75.1442 61.3319C75.3349 61.4439 75.5433 61.496 75.749 61.496C76.1626 61.496 76.5676 61.282 76.7906 60.8976C78.3419 58.2358 79.1627 55.3533 79.1627 52.5624C79.1627 43.3748 71.688 35.9 62.5003 35.9C53.3123 35.9 45.8379 43.3748 45.8379 52.5624C45.8379 55.3533 46.6596 58.2358 48.2089 60.8983L48.2089 60.8985C48.545 61.4744 49.2806 61.6665 49.8557 61.3333L49.8561 61.3331C50.4304 60.9972 50.6255 60.2604 50.2907 59.6857C48.9524 57.387 48.2461 54.9243 48.2461 52.5624C48.2461 44.7032 54.6407 38.3086 62.5003 38.3086C70.3596 38.3086 76.7542 44.7032 76.7542 52.5624C76.7542 54.9243 76.0479 57.387 74.7095 59.6849C74.3749 60.259 74.5688 60.9971 75.1442 61.3319ZM75.1442 61.3319C75.1443 61.3319 75.1444 61.332 75.1444 61.332L75.1947 61.2456L75.144 61.3318C75.1441 61.3318 75.1441 61.3318 75.1442 61.3319ZM50.3543 89.0997C50.1962 89.0999 50.0395 89.0689 49.8934 89.0083C49.7473 88.9477 49.6146 88.8588 49.503 88.7468M50.3543 89.0997L49.5738 88.6762M50.3543 89.0997C50.5125 89.0998 50.669 89.0688 50.8152 89.0082C50.9613 88.9477 51.0941 88.8588 51.2058 88.7468L55.6225 84.3306C55.7344 84.2188 55.8231 84.086 55.8836 83.9399C55.9442 83.7938 55.9754 83.6372 55.9754 83.479C55.9754 83.3209 55.9442 83.1643 55.8836 83.0181C55.8231 82.872 55.7344 82.7393 55.6225 82.6275L42.3726 69.3776C42.2608 69.2657 42.1281 69.177 41.9819 69.1164C41.8358 69.0559 41.6792 69.0247 41.5211 69.0247C41.3629 69.0247 41.2063 69.0559 41.0602 69.1164C40.9141 69.177 40.7813 69.2657 40.6695 69.3776L36.2533 73.7943M50.3543 89.0997C50.3544 89.0997 50.3544 89.0997 50.3545 89.0997L50.3543 88.9997L50.3542 89.0997C50.3542 89.0997 50.3543 89.0997 50.3543 89.0997ZM50.3543 89.0997L36.2533 73.7943M49.503 88.7468L49.5738 88.6762M49.503 88.7468C49.503 88.7469 49.5031 88.7469 49.5032 88.747L49.5738 88.6762M49.503 88.7468C49.3911 88.6351 49.3023 88.5025 49.2417 88.3565C49.1811 88.2104 49.1499 88.0538 49.1499 87.8956C49.1499 87.7374 49.1811 87.5808 49.2417 87.4347C49.3024 87.2886 49.3912 87.1559 49.5032 87.0442M49.5738 88.6762C49.4711 88.5738 49.3897 88.4521 49.3341 88.3182C49.2785 88.1842 49.2499 88.0406 49.2499 87.8956C49.2499 87.7506 49.2785 87.607 49.3341 87.473C49.3897 87.3391 49.4711 87.2174 49.5738 87.115M49.5032 87.0442L49.5031 87.0443L49.5738 87.115M49.5032 87.0442L49.5738 87.115M49.5032 87.0442L53.0684 83.479L41.5212 71.9317L37.9559 75.4969C37.8442 75.6089 37.7115 75.6977 37.5654 75.7583C37.4193 75.819 37.2627 75.8502 37.1045 75.8502C36.9463 75.8502 36.7897 75.819 36.6436 75.7583C36.4975 75.6977 36.3648 75.6089 36.2531 75.4969M49.5738 87.115L36.3239 75.4263M36.2531 75.4969L36.3239 75.4263M36.2531 75.4969C36.2531 75.497 36.2532 75.497 36.2533 75.4971L36.3239 75.4263M36.2531 75.4969C36.1412 75.3852 36.0524 75.2526 35.9918 75.1066C35.9312 74.9605 35.9 74.8038 35.9 74.6457C35.9 74.4875 35.9312 74.3309 35.9918 74.1848H35.9918C36.0524 74.0387 36.1412 73.9061 36.2532 73.7944M36.3239 75.4263C36.2212 75.3239 36.1398 75.2022 36.0842 75.0682C36.0286 74.9343 36 74.7907 36 74.6457C36 74.5007 36.0286 74.3571 36.0842 74.2231C36.1398 74.0892 36.2212 73.9675 36.3239 73.8651L36.2532 73.7944M36.2532 73.7944C36.2532 73.7943 36.2532 73.7943 36.2533 73.7943M36.2532 73.7944L36.2533 73.7943M41.5212 71.7903L41.4504 71.861L41.5919 71.861L41.5212 71.7903Z" fill="#FF9700" stroke="#FF9700" stroke-width="0.2"/>
<path d="M60.2917 60.3917H64.7086C66.5902 60.3917 68.1211 58.8608 68.1211 56.9792V54.771C68.1211 52.8892 66.5902 51.3585 64.7086 51.3585H60.2917C59.7388 51.3585 59.2879 50.9076 59.2879 50.3542V48.146C59.2879 47.5926 59.7388 47.1417 60.2917 47.1417H64.7086C65.2627 47.1417 65.7129 47.5926 65.7129 48.146C65.7129 48.8106 66.2509 49.3499 66.9167 49.3499C67.5825 49.3499 68.1211 48.8106 68.1211 48.146C68.1211 46.2642 66.5902 44.7335 64.7086 44.7335H60.2917C58.4105 44.7335 56.8792 46.2642 56.8792 48.146V50.3542C56.8792 52.2359 58.4105 53.7667 60.2917 53.7667H64.7086C65.2627 53.7667 65.7129 54.2176 65.7129 54.771V56.9792C65.7129 57.5325 65.2627 57.9835 64.7086 57.9835H60.2917C59.7388 57.9835 59.2879 57.5326 59.2879 56.9792C59.2879 56.3146 58.7482 55.7749 58.0836 55.7749C57.4189 55.7749 56.8792 56.3146 56.8792 56.9792C56.8792 58.8609 58.4105 60.3917 60.2917 60.3917Z" fill="#FF9700" stroke="#FF9700" stroke-width="0.2"/>
<path d="M71.3335 51.3584H71.2335V51.4584V53.6666V53.7666H71.3335H73.5417H73.6417V53.6666V51.4584V51.3584H73.5417H71.3335ZM51.4586 51.3584H51.3586V51.4584V53.6666V53.7666H51.4586H53.6668H53.7668V53.6666V51.4584V51.3584H53.6668H51.4586ZM61.2961 61.3959C61.2961 62.0605 61.8355 62.5998 62.5004 62.5998C63.165 62.5998 63.7042 62.0605 63.7042 61.3959V43.7292C63.7042 43.0646 63.165 42.5249 62.5004 42.5249C61.8353 42.5249 61.2961 43.0646 61.2961 43.7292V61.3959Z" fill="#FF9700" stroke="#FF9700" stroke-width="0.2"/>
</svg>
