<svg width="124" height="124" viewBox="0 0 124 124" fill="none" xmlns="http://www.w3.org/2000/svg">
<circle cx="62" cy="62" r="62" fill="white"/>
<g clip-path="url(#clip0_1_1057)">
<path d="M50.1334 56.2H60.7334C61.2019 56.2 61.6513 56.0138 61.9826 55.6825C62.3139 55.3512 62.5 54.9019 62.5 54.4333V49.1333C62.5 48.6648 62.3139 48.2154 61.9826 47.8841C61.6513 47.5528 61.2019 47.3666 60.7334 47.3666H50.1334C49.6648 47.3666 49.2155 47.5528 48.8841 47.8841C48.5528 48.2154 48.3667 48.6648 48.3667 49.1333V54.4333C48.3667 54.9019 48.5528 55.3512 48.8841 55.6825C49.2155 56.0138 49.6648 56.2 50.1334 56.2ZM50.1334 49.1333H60.7334V54.4333H50.1334V49.1333ZM59.85 57.9666H50.1334C49.8991 57.9666 49.6744 58.0597 49.5088 58.2254C49.3431 58.391 49.25 58.6157 49.25 58.85C49.25 59.0842 49.3431 59.3089 49.5088 59.4746C49.6744 59.6402 49.8991 59.7333 50.1334 59.7333H59.85C60.0843 59.7333 60.309 59.6402 60.4746 59.4746C60.6403 59.3089 60.7334 59.0842 60.7334 58.85C60.7334 58.6157 60.6403 58.391 60.4746 58.2254C60.309 58.0597 60.0843 57.9666 59.85 57.9666ZM56.3167 61.5H50.1334C49.8991 61.5 49.6744 61.593 49.5088 61.7587C49.3431 61.9243 49.25 62.149 49.25 62.3833C49.25 62.6176 49.3431 62.8423 49.5088 63.0079C49.6744 63.1736 49.8991 63.2666 50.1334 63.2666H56.3167C56.551 63.2666 56.7757 63.1736 56.9413 63.0079C57.107 62.8423 57.2 62.6176 57.2 62.3833C57.2 62.149 57.107 61.9243 56.9413 61.7587C56.7757 61.593 56.551 61.5 56.3167 61.5ZM72.2167 62.3833C72.451 62.3833 72.6757 62.2902 72.8413 62.1246C73.007 61.9589 73.1 61.7342 73.1 61.5V60.6166C73.1 60.3824 73.007 60.1577 72.8413 59.992C72.6757 59.8264 72.451 59.7333 72.2167 59.7333C71.9824 59.7333 71.7577 59.8264 71.5921 59.992C71.4264 60.1577 71.3334 60.3824 71.3334 60.6166V61.5C71.3334 61.7342 71.4264 61.9589 71.5921 62.1246C71.7577 62.2902 71.9824 62.3833 72.2167 62.3833ZM75.75 73.8666C75.9843 73.8666 76.209 73.7736 76.3746 73.6079C76.5403 73.4423 76.6334 73.2176 76.6334 72.9833C76.6334 72.749 76.5403 72.5243 76.3746 72.3587C76.209 72.193 75.9843 72.1 75.75 72.1C75.0472 72.1 74.3732 71.8208 73.8762 71.3238C73.3792 70.8268 73.1 70.1528 73.1 69.45V65.0333C73.1 64.799 73.007 64.5744 72.8413 64.4087C72.6757 64.243 72.451 64.15 72.2167 64.15C71.9824 64.15 71.7577 64.243 71.5921 64.4087C71.4264 64.5744 71.3334 64.799 71.3334 65.0333V69.45C71.3348 70.6209 71.8005 71.7435 72.6285 72.5715C73.4565 73.3995 74.5791 73.8652 75.75 73.8666Z" fill="#FF9700"/>
<mask id="path-3-outside-1_1_1057" maskUnits="userSpaceOnUse" x="35" y="34" width="55" height="55" fill="black">
<rect fill="white" x="35" y="34" width="55" height="55"/>
<path d="M87.2333 58.85H83.7V57.9667C83.7 57.4981 83.5139 57.0488 83.1826 56.7175C82.8512 56.3861 82.4019 56.2 81.9333 56.2H78.4V46.4833C78.4 45.7805 78.1208 45.1065 77.6238 44.6095C77.1269 44.1125 76.4528 43.8333 75.75 43.8333H69.5667V41.1833C69.5667 40.4805 69.2875 39.8065 68.7905 39.3095C68.2935 38.8125 67.6195 38.5333 66.9167 38.5333H56.17C56.0522 38.5334 55.9355 38.51 55.8267 38.4645C55.718 38.419 55.6194 38.3523 55.5367 38.2683L53.043 35.7773C52.7972 35.5301 52.5049 35.3342 52.1828 35.2007C51.8608 35.0673 51.5154 34.9991 51.1668 35H38.65C37.9472 35 37.2731 35.2792 36.7762 35.7762C36.2792 36.2731 36 36.9472 36 37.65V66.5871C36.0029 67.34 36.1567 68.0847 36.4522 68.7771C36.7478 69.4696 37.1791 70.0957 37.7207 70.6187C38.6757 71.5593 39.9596 72.0907 41.3 72.1H68.2638C68.9558 74.0417 70.3723 75.6402 72.2167 76.5608V80.9333C71.0457 80.9348 69.9231 81.4005 69.0952 82.2285C68.2672 83.0565 67.8014 84.1791 67.8 85.35V86.2333C67.8 86.7019 67.9861 87.1513 68.3174 87.4826C68.6488 87.8139 69.0981 88 69.5667 88H81.9333C82.4019 88 82.8512 87.8139 83.1826 87.4826C83.5139 87.1513 83.7 86.7019 83.7 86.2333V85.35C83.6986 84.1791 83.2328 83.0565 82.4048 82.2285C81.5769 81.4005 80.4543 80.9348 79.2833 80.9333V76.5608C80.3114 76.0481 81.2164 75.319 81.9364 74.4237C82.6563 73.5285 83.1742 72.4881 83.4544 71.3739C85.1811 70.1642 86.5879 68.5531 87.5539 66.6793C88.52 64.8054 89.0162 62.7248 89 60.6167C89 60.1481 88.8139 59.6988 88.4826 59.3675C88.1512 59.0361 87.7019 58.85 87.2333 58.85ZM75.75 45.6C75.9843 45.6 76.209 45.6931 76.3746 45.8587C76.5403 46.0244 76.6333 46.2491 76.6333 46.4833V56.2H69.5667C69.0981 56.2 68.6488 56.3861 68.3174 56.7175C67.9861 57.0488 67.8 57.4981 67.8 57.9667V58.85H64.2667C63.7981 58.85 63.3488 59.0361 63.0174 59.3675C62.6861 59.6988 62.5 60.1481 62.5 60.6167C62.4971 62.3573 62.8384 64.0813 63.5044 65.6894C64.1704 67.2976 65.1478 68.7582 66.3805 69.9871C66.5006 70.1072 66.6366 70.2176 66.763 70.3333H45.2476C46.1188 69.3627 46.6005 68.1043 46.6 66.8V46.4833C46.6 46.2491 46.6931 46.0244 46.8587 45.8587C47.0244 45.6931 47.2491 45.6 47.4833 45.6H75.75ZM67.6313 68.738C66.5626 67.6731 65.7151 66.4073 65.1377 65.0135C64.5603 63.6197 64.2642 62.1254 64.2667 60.6167H67.8V68.8909C67.7452 68.8387 67.6834 68.791 67.6313 68.738ZM37.7667 66.5871V37.65C37.7667 37.4157 37.8597 37.1911 38.0254 37.0254C38.191 36.8597 38.4157 36.7667 38.65 36.7667H51.1668C51.2833 36.7665 51.3987 36.7893 51.5064 36.8339C51.614 36.8784 51.7118 36.9439 51.794 37.0264L54.285 39.52C54.5318 39.7685 54.8256 39.9654 55.1492 40.0993C55.4728 40.2332 55.8198 40.3014 56.17 40.3H66.9167C67.1509 40.3 67.3756 40.3931 67.5413 40.5587C67.7069 40.7244 67.8 40.9491 67.8 41.1833V43.8333H47.4833C46.7805 43.8333 46.1065 44.1125 45.6095 44.6095C45.1125 45.1065 44.8333 45.7805 44.8333 46.4833V66.8C44.8373 67.7162 44.4839 68.5978 43.8482 69.2576C43.2125 69.9173 42.3446 70.3032 41.429 70.3333C40.9707 70.3429 40.5151 70.2608 40.089 70.0918C39.6629 69.9228 39.2748 69.6704 38.9477 69.3493C38.5762 68.9912 38.2802 68.5623 38.0774 68.0879C37.8745 67.6134 37.7689 67.1031 37.7667 66.5871ZM81.9333 85.35V86.2333H69.5667V85.35C69.5667 84.6472 69.8459 83.9732 70.3428 83.4762C70.8398 82.9792 71.5138 82.7 72.2167 82.7H79.2833C79.9862 82.7 80.6602 82.9792 81.1572 83.4762C81.6541 83.9732 81.9333 84.6472 81.9333 85.35ZM77.5167 80.9333H73.9833V77.1951C75.1453 77.4683 76.3547 77.4683 77.5167 77.1951V80.9333ZM81.9333 69.45C81.9333 71.0899 81.2819 72.6627 80.1223 73.8223C78.9627 74.9819 77.3899 75.6333 75.75 75.6333C74.1101 75.6333 72.5373 74.9819 71.3777 73.8223C70.2181 72.6627 69.5667 71.0899 69.5667 69.45V57.9667H81.9333V69.45ZM83.8705 68.7363C83.8175 68.7902 83.7548 68.8387 83.7 68.8909V60.6167H87.2333C87.2359 62.125 86.9401 63.6189 86.3629 65.0124C85.7858 66.4059 84.9387 67.6715 83.8705 68.7363Z"/>
</mask>
<path d="M87.2333 58.85H83.7V57.9667C83.7 57.4981 83.5139 57.0488 83.1826 56.7175C82.8512 56.3861 82.4019 56.2 81.9333 56.2H78.4V46.4833C78.4 45.7805 78.1208 45.1065 77.6238 44.6095C77.1269 44.1125 76.4528 43.8333 75.75 43.8333H69.5667V41.1833C69.5667 40.4805 69.2875 39.8065 68.7905 39.3095C68.2935 38.8125 67.6195 38.5333 66.9167 38.5333H56.17C56.0522 38.5334 55.9355 38.51 55.8267 38.4645C55.718 38.419 55.6194 38.3523 55.5367 38.2683L53.043 35.7773C52.7972 35.5301 52.5049 35.3342 52.1828 35.2007C51.8608 35.0673 51.5154 34.9991 51.1668 35H38.65C37.9472 35 37.2731 35.2792 36.7762 35.7762C36.2792 36.2731 36 36.9472 36 37.65V66.5871C36.0029 67.34 36.1567 68.0847 36.4522 68.7771C36.7478 69.4696 37.1791 70.0957 37.7207 70.6187C38.6757 71.5593 39.9596 72.0907 41.3 72.1H68.2638C68.9558 74.0417 70.3723 75.6402 72.2167 76.5608V80.9333C71.0457 80.9348 69.9231 81.4005 69.0952 82.2285C68.2672 83.0565 67.8014 84.1791 67.8 85.35V86.2333C67.8 86.7019 67.9861 87.1513 68.3174 87.4826C68.6488 87.8139 69.0981 88 69.5667 88H81.9333C82.4019 88 82.8512 87.8139 83.1826 87.4826C83.5139 87.1513 83.7 86.7019 83.7 86.2333V85.35C83.6986 84.1791 83.2328 83.0565 82.4048 82.2285C81.5769 81.4005 80.4543 80.9348 79.2833 80.9333V76.5608C80.3114 76.0481 81.2164 75.319 81.9364 74.4237C82.6563 73.5285 83.1742 72.4881 83.4544 71.3739C85.1811 70.1642 86.5879 68.5531 87.5539 66.6793C88.52 64.8054 89.0162 62.7248 89 60.6167C89 60.1481 88.8139 59.6988 88.4826 59.3675C88.1512 59.0361 87.7019 58.85 87.2333 58.85ZM75.75 45.6C75.9843 45.6 76.209 45.6931 76.3746 45.8587C76.5403 46.0244 76.6333 46.2491 76.6333 46.4833V56.2H69.5667C69.0981 56.2 68.6488 56.3861 68.3174 56.7175C67.9861 57.0488 67.8 57.4981 67.8 57.9667V58.85H64.2667C63.7981 58.85 63.3488 59.0361 63.0174 59.3675C62.6861 59.6988 62.5 60.1481 62.5 60.6167C62.4971 62.3573 62.8384 64.0813 63.5044 65.6894C64.1704 67.2976 65.1478 68.7582 66.3805 69.9871C66.5006 70.1072 66.6366 70.2176 66.763 70.3333H45.2476C46.1188 69.3627 46.6005 68.1043 46.6 66.8V46.4833C46.6 46.2491 46.6931 46.0244 46.8587 45.8587C47.0244 45.6931 47.2491 45.6 47.4833 45.6H75.75ZM67.6313 68.738C66.5626 67.6731 65.7151 66.4073 65.1377 65.0135C64.5603 63.6197 64.2642 62.1254 64.2667 60.6167H67.8V68.8909C67.7452 68.8387 67.6834 68.791 67.6313 68.738ZM37.7667 66.5871V37.65C37.7667 37.4157 37.8597 37.1911 38.0254 37.0254C38.191 36.8597 38.4157 36.7667 38.65 36.7667H51.1668C51.2833 36.7665 51.3987 36.7893 51.5064 36.8339C51.614 36.8784 51.7118 36.9439 51.794 37.0264L54.285 39.52C54.5318 39.7685 54.8256 39.9654 55.1492 40.0993C55.4728 40.2332 55.8198 40.3014 56.17 40.3H66.9167C67.1509 40.3 67.3756 40.3931 67.5413 40.5587C67.7069 40.7244 67.8 40.9491 67.8 41.1833V43.8333H47.4833C46.7805 43.8333 46.1065 44.1125 45.6095 44.6095C45.1125 45.1065 44.8333 45.7805 44.8333 46.4833V66.8C44.8373 67.7162 44.4839 68.5978 43.8482 69.2576C43.2125 69.9173 42.3446 70.3032 41.429 70.3333C40.9707 70.3429 40.5151 70.2608 40.089 70.0918C39.6629 69.9228 39.2748 69.6704 38.9477 69.3493C38.5762 68.9912 38.2802 68.5623 38.0774 68.0879C37.8745 67.6134 37.7689 67.1031 37.7667 66.5871ZM81.9333 85.35V86.2333H69.5667V85.35C69.5667 84.6472 69.8459 83.9732 70.3428 83.4762C70.8398 82.9792 71.5138 82.7 72.2167 82.7H79.2833C79.9862 82.7 80.6602 82.9792 81.1572 83.4762C81.6541 83.9732 81.9333 84.6472 81.9333 85.35ZM77.5167 80.9333H73.9833V77.1951C75.1453 77.4683 76.3547 77.4683 77.5167 77.1951V80.9333ZM81.9333 69.45C81.9333 71.0899 81.2819 72.6627 80.1223 73.8223C78.9627 74.9819 77.3899 75.6333 75.75 75.6333C74.1101 75.6333 72.5373 74.9819 71.3777 73.8223C70.2181 72.6627 69.5667 71.0899 69.5667 69.45V57.9667H81.9333V69.45ZM83.8705 68.7363C83.8175 68.7902 83.7548 68.8387 83.7 68.8909V60.6167H87.2333C87.2359 62.125 86.9401 63.6189 86.3629 65.0124C85.7858 66.4059 84.9387 67.6715 83.8705 68.7363Z" fill="#FF9700"/>
<path d="M87.2333 58.85H83.7V57.9667C83.7 57.4981 83.5139 57.0488 83.1826 56.7175C82.8512 56.3861 82.4019 56.2 81.9333 56.2H78.4V46.4833C78.4 45.7805 78.1208 45.1065 77.6238 44.6095C77.1269 44.1125 76.4528 43.8333 75.75 43.8333H69.5667V41.1833C69.5667 40.4805 69.2875 39.8065 68.7905 39.3095C68.2935 38.8125 67.6195 38.5333 66.9167 38.5333H56.17C56.0522 38.5334 55.9355 38.51 55.8267 38.4645C55.718 38.419 55.6194 38.3523 55.5367 38.2683L53.043 35.7773C52.7972 35.5301 52.5049 35.3342 52.1828 35.2007C51.8608 35.0673 51.5154 34.9991 51.1668 35H38.65C37.9472 35 37.2731 35.2792 36.7762 35.7762C36.2792 36.2731 36 36.9472 36 37.65V66.5871C36.0029 67.34 36.1567 68.0847 36.4522 68.7771C36.7478 69.4696 37.1791 70.0957 37.7207 70.6187C38.6757 71.5593 39.9596 72.0907 41.3 72.1H68.2638C68.9558 74.0417 70.3723 75.6402 72.2167 76.5608V80.9333C71.0457 80.9348 69.9231 81.4005 69.0952 82.2285C68.2672 83.0565 67.8014 84.1791 67.8 85.35V86.2333C67.8 86.7019 67.9861 87.1513 68.3174 87.4826C68.6488 87.8139 69.0981 88 69.5667 88H81.9333C82.4019 88 82.8512 87.8139 83.1826 87.4826C83.5139 87.1513 83.7 86.7019 83.7 86.2333V85.35C83.6986 84.1791 83.2328 83.0565 82.4048 82.2285C81.5769 81.4005 80.4543 80.9348 79.2833 80.9333V76.5608C80.3114 76.0481 81.2164 75.319 81.9364 74.4237C82.6563 73.5285 83.1742 72.4881 83.4544 71.3739C85.1811 70.1642 86.5879 68.5531 87.5539 66.6793C88.52 64.8054 89.0162 62.7248 89 60.6167C89 60.1481 88.8139 59.6988 88.4826 59.3675C88.1512 59.0361 87.7019 58.85 87.2333 58.85ZM75.75 45.6C75.9843 45.6 76.209 45.6931 76.3746 45.8587C76.5403 46.0244 76.6333 46.2491 76.6333 46.4833V56.2H69.5667C69.0981 56.2 68.6488 56.3861 68.3174 56.7175C67.9861 57.0488 67.8 57.4981 67.8 57.9667V58.85H64.2667C63.7981 58.85 63.3488 59.0361 63.0174 59.3675C62.6861 59.6988 62.5 60.1481 62.5 60.6167C62.4971 62.3573 62.8384 64.0813 63.5044 65.6894C64.1704 67.2976 65.1478 68.7582 66.3805 69.9871C66.5006 70.1072 66.6366 70.2176 66.763 70.3333H45.2476C46.1188 69.3627 46.6005 68.1043 46.6 66.8V46.4833C46.6 46.2491 46.6931 46.0244 46.8587 45.8587C47.0244 45.6931 47.2491 45.6 47.4833 45.6H75.75ZM67.6313 68.738C66.5626 67.6731 65.7151 66.4073 65.1377 65.0135C64.5603 63.6197 64.2642 62.1254 64.2667 60.6167H67.8V68.8909C67.7452 68.8387 67.6834 68.791 67.6313 68.738ZM37.7667 66.5871V37.65C37.7667 37.4157 37.8597 37.1911 38.0254 37.0254C38.191 36.8597 38.4157 36.7667 38.65 36.7667H51.1668C51.2833 36.7665 51.3987 36.7893 51.5064 36.8339C51.614 36.8784 51.7118 36.9439 51.794 37.0264L54.285 39.52C54.5318 39.7685 54.8256 39.9654 55.1492 40.0993C55.4728 40.2332 55.8198 40.3014 56.17 40.3H66.9167C67.1509 40.3 67.3756 40.3931 67.5413 40.5587C67.7069 40.7244 67.8 40.9491 67.8 41.1833V43.8333H47.4833C46.7805 43.8333 46.1065 44.1125 45.6095 44.6095C45.1125 45.1065 44.8333 45.7805 44.8333 46.4833V66.8C44.8373 67.7162 44.4839 68.5978 43.8482 69.2576C43.2125 69.9173 42.3446 70.3032 41.429 70.3333C40.9707 70.3429 40.5151 70.2608 40.089 70.0918C39.6629 69.9228 39.2748 69.6704 38.9477 69.3493C38.5762 68.9912 38.2802 68.5623 38.0774 68.0879C37.8745 67.6134 37.7689 67.1031 37.7667 66.5871ZM81.9333 85.35V86.2333H69.5667V85.35C69.5667 84.6472 69.8459 83.9732 70.3428 83.4762C70.8398 82.9792 71.5138 82.7 72.2167 82.7H79.2833C79.9862 82.7 80.6602 82.9792 81.1572 83.4762C81.6541 83.9732 81.9333 84.6472 81.9333 85.35ZM77.5167 80.9333H73.9833V77.1951C75.1453 77.4683 76.3547 77.4683 77.5167 77.1951V80.9333ZM81.9333 69.45C81.9333 71.0899 81.2819 72.6627 80.1223 73.8223C78.9627 74.9819 77.3899 75.6333 75.75 75.6333C74.1101 75.6333 72.5373 74.9819 71.3777 73.8223C70.2181 72.6627 69.5667 71.0899 69.5667 69.45V57.9667H81.9333V69.45ZM83.8705 68.7363C83.8175 68.7902 83.7548 68.8387 83.7 68.8909V60.6167H87.2333C87.2359 62.125 86.9401 63.6189 86.3629 65.0124C85.7858 66.4059 84.9387 67.6715 83.8705 68.7363Z" stroke="#FF9700" stroke-width="0.4" mask="url(#path-3-outside-1_1_1057)"/>
</g>
<defs>
<clipPath id="clip0_1_1057">
<rect width="53" height="53" fill="white" transform="translate(36 35)"/>
</clipPath>
</defs>
</svg>
