<svg width="124" height="124" viewBox="0 0 124 124" fill="none" xmlns="http://www.w3.org/2000/svg">
<circle cx="62" cy="62" r="62" fill="white"/>
<path d="M46.0375 55.0075V55.0076C46.0374 55.1295 46.0133 55.2502 45.9665 55.3627C45.9197 55.4753 45.8513 55.5775 45.765 55.6636C45.6787 55.7497 45.5764 55.818 45.4637 55.8645C45.351 55.911 45.2303 55.9349 45.1085 55.9348C44.9866 55.9347 44.8659 55.9106 44.7533 55.8638C44.6408 55.817 44.5385 55.7486 44.4524 55.6623C44.3663 55.576 44.2981 55.4736 44.2515 55.361C44.205 55.2484 44.1811 55.1277 44.1813 55.0058C44.1813 55.0058 44.1813 55.0058 44.1813 55.0057M46.0375 55.0075L44.2813 55.0058L44.1813 55.0057M46.0375 55.0075V52.0082M46.0375 55.0075L45.6699 51.2675C45.7844 51.354 45.8772 51.466 45.9409 51.5945C46.0047 51.7231 46.0378 51.8647 46.0375 52.0082M44.1813 55.0057L44.1813 52.442M44.1813 55.0057L44.1813 52.442M44.1813 52.442C43.6648 51.9764 43.2507 51.4084 42.9655 50.7738C42.6742 50.1256 42.524 49.4227 42.525 48.712M44.1813 52.442L45.6699 51.2674C44.8496 50.6465 44.3813 49.7151 44.3813 48.7121V46.2277C44.3813 44.4561 45.8221 43.0152 47.5938 43.0152C49.3654 43.0152 50.8063 44.4561 50.8063 46.2277V48.7121C50.8063 49.7151 50.3379 50.6466 49.5176 51.2675L49.5779 51.3472M42.525 48.712C42.525 48.712 42.525 48.712 42.525 48.712L42.625 48.7121H42.525V48.712ZM42.525 48.712V46.2277C42.525 43.4331 44.7991 41.159 47.5938 41.159C50.3884 41.159 52.6625 43.4331 52.6625 46.2277V48.7121C52.6625 50.1438 52.0647 51.4778 51.0063 52.4417V55.0058C51.0063 55.252 50.9085 55.4881 50.7344 55.6621C50.5604 55.8362 50.3243 55.934 50.0781 55.934C49.832 55.934 49.5959 55.8362 49.4218 55.6621C49.2478 55.4881 49.15 55.252 49.15 55.0058V52.0064C49.15 51.7151 49.2855 51.442 49.5178 51.2673L49.5779 51.3472M49.5779 51.3472C49.3709 51.5029 49.25 51.7463 49.25 52.0064V55.0058C49.25 55.2255 49.3373 55.4361 49.4926 55.5914C49.6479 55.7467 49.8585 55.834 50.0781 55.834C50.2978 55.834 50.5084 55.7467 50.6637 55.5914C50.819 55.4361 50.9063 55.2255 50.9063 55.0058V52.3973L44.2813 48.7121V46.2277C44.2813 44.4009 45.7669 42.9152 47.5938 42.9152C49.4206 42.9152 50.9063 44.4009 50.9063 46.2277V48.7121C50.9063 49.7473 50.4226 50.7079 49.5779 51.3472ZM46.0375 52.0082L45.9375 52.008H46.0375V52.0082Z" fill="#FF9700" stroke="#FF9700" stroke-width="0.2"/>
<path d="M48.4274 53.698L48.4258 53.698C48.1973 53.6957 47.9777 53.6091 47.8091 53.4549C47.6405 53.3007 47.5347 53.0898 47.5119 52.8624C47.4892 52.635 47.5511 52.4073 47.6858 52.2227C47.8205 52.0382 48.0186 51.9098 48.242 51.8622L48.2423 51.8621C48.9657 51.7099 49.615 51.314 50.0816 50.7406C50.5482 50.1673 50.804 49.4513 50.8062 48.7121C50.8062 48.712 50.8063 48.7119 50.8063 48.7118L50.9062 48.7121C50.9062 48.4925 50.9935 48.2818 51.1488 48.1265C51.3041 47.9712 51.5147 47.884 51.7344 47.884C51.954 47.884 52.1646 47.9712 52.3199 48.1265C52.4753 48.2818 52.5625 48.4925 52.5625 48.7121L48.4274 53.698ZM48.4274 53.698C48.4903 53.6977 48.553 53.6909 48.6145 53.6777L48.4274 53.698ZM49.7124 55.8232L49.7111 55.8226C49.4884 55.7233 49.3137 55.5404 49.2247 55.3133C49.1358 55.0862 49.1398 54.8333 49.2359 54.6092C49.332 54.385 49.5125 54.2077 49.7383 54.1156C49.964 54.0234 50.217 54.0238 50.4425 54.1167L50.4439 54.1173L50.4439 54.1173L53.5474 55.4505L49.7124 55.8232ZM49.7124 55.8232L52.8156 57.1562C52.8157 57.1562 52.8158 57.1563 52.8159 57.1563M49.7124 55.8232L52.8159 57.1563M39.0707 65.7333L39.0705 65.7332C38.6195 65.5267 38.2373 65.1953 37.9689 64.7783C37.7005 64.3612 37.5573 63.876 37.5563 63.3801L37.5562 63.3798L37.5562 61.0843C37.5562 58.7225 38.9545 56.5994 41.1179 55.6759C41.1181 55.6758 41.1182 55.6758 41.1183 55.6757L44.7388 54.1047C44.8508 54.0527 44.9721 54.0236 45.0955 54.0191C45.2194 54.0145 45.3429 54.0348 45.4588 54.0788C45.5747 54.1228 45.6806 54.1895 45.7703 54.2751C45.86 54.3607 45.9316 54.4633 45.981 54.577C46.0303 54.6908 46.0564 54.8132 46.0577 54.9372C46.0589 55.0611 46.0353 55.1841 45.9883 55.2987C45.9412 55.4134 45.8717 55.5175 45.7838 55.6049C45.6962 55.692 45.5921 55.7607 45.4776 55.807L41.8532 57.3799L41.8527 57.3801C41.1276 57.6901 40.5096 58.2066 40.0757 58.8652C39.6418 59.5238 39.4111 60.2954 39.4125 61.0841L39.4125 61.0843L39.4125 63.3798C39.4125 63.6639 39.5803 63.9263 39.8392 64.0441L43.0092 65.485L43.0093 65.485C43.2021 65.5729 43.3591 65.7241 43.4541 65.9135C43.5491 66.1029 43.5764 66.3191 43.5316 66.5262C43.4867 66.7333 43.3723 66.9188 43.2074 67.0519C43.0425 67.1849 42.8371 67.2576 42.6252 67.2578C42.6252 67.2578 42.6251 67.2578 42.6251 67.2578L42.625 67.1578L39.0707 65.7333ZM39.0707 65.7333L42.2404 67.1741C42.2404 67.1741 42.2405 67.1741 42.2405 67.1741L39.0707 65.7333ZM50.8074 47.8349L50.8049 47.8349C49.1181 47.8298 47.4849 47.2413 46.1824 46.1694C45.9914 46.0152 45.8693 45.7915 45.8429 45.5473C45.8164 45.3031 45.8879 45.0583 46.0417 44.8666L46.0419 44.8664C46.1965 44.6749 46.4208 44.5527 46.6655 44.5266C46.9102 44.5005 47.1553 44.5726 47.3468 44.7272C48.3654 45.5474 49.5658 45.9977 50.7967 45.9812C50.7349 45.1935 50.3852 44.4546 49.8123 43.907C49.2148 43.3357 48.4203 43.0164 47.5937 43.0152C45.8221 43.0153 44.3812 44.4561 44.3812 46.2277V46.8405C44.3812 47.0867 44.2835 47.3228 44.1094 47.4968C43.9354 47.6709 43.6993 47.7687 43.4531 47.7687C43.207 47.7687 42.9709 47.6709 42.7968 47.4968C42.6228 47.3228 42.525 47.0867 42.525 46.8405V46.2277C42.525 43.4331 44.7991 41.159 47.5938 41.159C50.3884 41.159 52.6625 43.4331 52.6625 46.2277V46.8074V46.8074H52.5625L50.8074 47.8349ZM50.8074 47.8349C51.1681 47.8269 51.5275 47.7898 51.8823 47.7241L50.8074 47.8349ZM80.8187 55.0075V55.0077C80.8183 55.2535 80.7203 55.4891 80.5463 55.6628C80.3722 55.8364 80.1365 55.934 79.8906 55.934C79.6445 55.934 79.4084 55.8362 79.2343 55.6621C79.0603 55.4881 78.9625 55.252 78.9625 55.0058V52.0064C78.9625 51.7153 79.0979 51.4422 79.3301 51.2675C80.1504 50.6466 80.6188 49.7151 80.6188 48.7121V46.2277C80.6188 44.4561 79.1779 43.0152 77.4062 43.0152C75.6346 43.0152 74.1937 44.4561 74.1937 46.2277V48.7121C74.1937 49.7151 74.6621 50.6465 75.4824 51.2674C75.4824 51.2674 75.4824 51.2674 75.4824 51.2675L75.4221 51.3472C75.5242 51.4244 75.6069 51.5243 75.6639 51.639L80.8187 55.0075ZM80.8187 55.0075V52.4434M80.8187 55.0075L80.7188 52.3989M72.3375 48.7136C72.3365 49.4244 72.4867 50.1272 72.778 50.7755C73.0632 51.41 73.4773 51.9781 73.9938 52.4437V55.0075C73.9938 55.2537 74.0915 55.4897 74.2656 55.6638C74.4396 55.8378 74.6757 55.9356 74.9219 55.9356C75.168 55.9356 75.4041 55.8378 75.5782 55.6638C75.7522 55.4897 75.85 55.2537 75.85 55.0075V52.0082L72.4375 48.7138M72.3375 48.7136L72.4375 48.7138M72.3375 48.7136V48.7138H72.4375M72.3375 48.7136V46.2294C72.3375 43.4347 74.6116 41.1606 77.4062 41.1606C80.2009 41.1606 82.475 43.4347 82.475 46.2294V48.7138C82.475 50.1454 81.8772 51.4795 80.8187 52.4434M72.4375 48.7138V46.2294C72.4375 43.4899 74.6668 41.2606 77.4062 41.2606C80.1457 41.2606 82.375 43.4899 82.375 46.2294V48.7138C82.375 50.1315 81.7771 51.4515 80.7188 52.3989M80.8187 52.4434V52.3989H80.7188M80.8187 52.4434C80.8077 52.4534 80.7966 52.4634 80.7854 52.4734L80.7188 52.3989M52.8159 57.1563C52.9313 57.2067 53.0559 57.2326 53.1819 57.2325M52.8159 57.1563L53.5477 55.4506C53.7445 55.5345 53.9063 55.6839 54.0057 55.8734C54.1051 56.063 54.1359 56.2812 54.0928 56.4909C54.0498 56.7006 53.9356 56.889 53.7695 57.0242C53.6035 57.1593 53.3959 57.2329 53.1819 57.2325M53.1819 57.2325C53.1818 57.2325 53.1818 57.2325 53.1817 57.2325L53.1819 57.1325L53.1821 57.2325C53.182 57.2325 53.182 57.2325 53.1819 57.2325Z" fill="#FF9700" stroke="#FF9700" stroke-width="0.2"/>
<path d="M72.0621 57.1281C72.1879 57.1284 72.3124 57.1024 72.4277 57.0519C72.4278 57.0519 72.4279 57.0518 72.428 57.0518L75.2877 55.8232L75.2889 55.8226C75.5116 55.7233 75.6864 55.5404 75.7753 55.3133C75.8642 55.0862 75.8602 54.8333 75.7641 54.6091C75.668 54.385 75.4876 54.2077 75.2618 54.1156C75.036 54.0234 74.783 54.0238 74.5575 54.1167L74.5562 54.1173L71.697 55.3457C71.6968 55.3458 71.6966 55.3459 71.6964 55.346C71.4977 55.4284 71.3339 55.5774 71.2331 55.7674C71.1322 55.9576 71.1006 56.177 71.1439 56.3879C71.1872 56.5989 71.3026 56.7881 71.4703 56.9232C71.6378 57.0581 71.847 57.1306 72.0621 57.1281ZM72.0621 57.1281C72.0618 57.1281 72.0615 57.1281 72.0613 57.1281L72.0616 57.0281L72.0628 57.1281C72.0626 57.1281 72.0623 57.1281 72.0621 57.1281ZM87.4438 61.0845C87.4466 59.9335 87.1107 58.8071 86.4779 57.8456C85.8452 56.8842 84.9436 56.1303 83.8855 55.6776C83.8854 55.6775 83.8852 55.6775 83.8851 55.6774L80.2601 54.1042L80.2598 54.1041C79.782 53.8985 79.2429 54.1137 79.0387 54.5852L79.0386 54.5852C78.9411 54.8112 78.9371 55.0666 79.0275 55.2956C79.118 55.5245 79.2955 55.7082 79.5212 55.8064L79.5212 55.8064L83.1517 57.3832L83.1523 57.3834C84.6307 58.0152 85.5875 59.4678 85.5875 61.0843V63.3797C85.5874 63.5197 85.5471 63.6567 85.4715 63.7745C85.3958 63.8923 85.2879 63.9859 85.1606 64.0442L81.9908 65.485L81.9899 65.4854C81.7988 65.5745 81.6437 65.726 81.5501 65.9149C81.4564 66.1038 81.4297 66.3189 81.4743 66.525C81.519 66.731 81.6324 66.9158 81.7959 67.0489C81.9593 67.1821 82.1632 67.2557 82.3741 67.2577L82.3754 67.2577C82.5077 67.2572 82.6385 67.2288 82.759 67.1743L82.7593 67.1742L85.9293 65.7333L85.9295 65.7332C86.8494 65.3129 87.4438 64.3897 87.4438 63.3798V61.0845ZM87.4438 61.0845L87.3438 61.0843M87.4438 61.0845V61.0843H87.3438M87.3438 61.0843V63.3798C87.3438 64.3504 86.7724 65.2381 85.8879 65.6423M87.3438 61.0843C87.3465 59.9529 87.0164 58.8457 86.3944 57.9006C85.7724 56.9555 84.886 56.2143 83.8458 55.7694L85.8879 65.6423M85.8879 65.6423L82.7179 67.0832C82.6101 67.1319 82.4933 67.1573 82.375 67.1577L85.8879 65.6423ZM68.2349 44.5635L68.2347 44.5636C67.1946 45.1182 65.9435 45.3605 64.6697 45.3605C62.2965 45.3605 59.8192 44.5255 58.4449 43.2893C58.4449 43.2893 58.4449 43.2893 58.4449 43.2893L58.5118 43.215L68.2349 44.5635ZM68.2349 44.5635C68.3423 44.5058 68.4373 44.4276 68.5144 44.3333C68.5915 44.2389 68.6493 44.1303 68.6845 44.0136C68.7197 43.8969 68.7315 43.7744 68.7193 43.6531C68.7072 43.5319 68.6712 43.4142 68.6136 43.3068C68.5559 43.1994 68.4777 43.1045 68.3833 43.0273C68.289 42.9502 68.1804 42.8924 68.0637 42.8572C67.947 42.822 67.8245 42.8102 67.7032 42.8224C67.582 42.8345 67.4643 42.8705 67.3569 42.9281C66.2629 43.5152 64.7492 43.6257 63.2984 43.4027C61.8476 43.1796 60.4821 42.6263 59.685 41.91L68.2349 44.5635ZM78.0548 51.8621L78.0546 51.8622C77.8311 51.9098 77.633 52.0382 77.4983 52.2227C77.3636 52.4073 77.3017 52.635 77.3244 52.8624C77.3472 53.0897 77.453 53.3007 77.6217 53.4549C77.7903 53.6091 78.0099 53.6956 78.2383 53.698L78.24 53.698C78.3029 53.6976 78.3656 53.6908 78.4271 53.6777C79.5688 53.4395 80.5939 52.8162 81.3309 51.9123C82.0678 51.0083 82.4717 49.8786 82.475 48.7124V48.7121C82.475 48.4659 82.3773 48.2299 82.2032 48.0558C82.0291 47.8817 81.7931 47.784 81.5469 47.784C81.3008 47.784 81.0647 47.8817 80.8906 48.0558C80.7166 48.2298 80.6189 48.4657 80.6188 48.7118C80.6166 49.4511 80.3608 50.1672 79.8942 50.7406C79.4275 51.314 78.7782 51.7099 78.0548 51.8621ZM57.8378 57.0561L57.8377 57.0561L57.8388 57.0594C58.2206 58.2165 59.6809 60.4058 62.4884 60.4058C64.2361 60.4058 65.404 59.5965 66.1383 58.772C66.8709 57.9495 67.1744 57.1101 67.2004 57.0366L67.2004 57.0366C67.241 56.9216 67.2585 56.7998 67.252 56.6781C67.2455 56.5564 67.2151 56.4371 67.1626 56.3272C67.11 56.2172 67.0363 56.1187 66.9456 56.0372C66.855 55.9557 66.7491 55.8929 66.6342 55.8523C66.5193 55.8117 66.3975 55.7941 66.2758 55.8006C66.154 55.8071 66.0348 55.8375 65.9248 55.8901C65.7032 55.996 65.5326 56.1855 65.4504 56.417C65.4502 56.4176 65.4499 56.4183 65.4496 56.4191C65.4256 56.4814 65.224 57.0045 64.7666 57.5168C64.2998 58.0394 63.5699 58.5479 62.4884 58.5479C61.4155 58.5479 60.7036 58.0546 60.253 57.5472C59.8005 57.0377 59.6137 56.5158 59.5983 56.4717L59.5983 56.4717L59.5975 56.4695C59.513 56.2448 59.3447 56.0616 59.128 55.9584C58.9113 55.8551 58.663 55.8398 58.4353 55.9157C58.2075 55.9917 58.0181 56.1529 57.9066 56.3655C57.7952 56.5781 57.7705 56.8257 57.8378 57.0561ZM59.085 56.0486C59.2783 56.1408 59.4285 56.3043 59.5039 56.5047L65.5442 56.4517C65.6174 56.2446 65.7698 56.075 65.968 55.9803C66.0661 55.9334 66.1725 55.9063 66.2811 55.9005C66.3897 55.8947 66.4984 55.9104 66.6009 55.9466C66.7035 55.9828 66.7979 56.0389 66.8788 56.1116C66.9597 56.1843 67.0254 56.2722 67.0723 56.3703C67.1192 56.4684 67.1464 56.5748 67.1522 56.6834C67.1579 56.792 67.1423 56.9007 67.1061 57.0033C67.058 57.1391 65.9136 60.3058 62.4884 60.3058C59.7407 60.3058 58.3081 58.1626 57.9338 57.0281C57.8738 56.8225 57.8958 56.6016 57.9952 56.4119C58.0946 56.2222 58.2637 56.0783 58.4669 56.0106C58.6701 55.9429 58.8916 55.9565 59.085 56.0486Z" fill="#FF9700" stroke="#FF9700" stroke-width="0.2"/>
<path d="M79.1625 65.6407C79.1638 64.0804 78.6814 62.5581 77.7817 61.2833C76.882 60.0084 75.6093 59.0438 74.1388 58.5222L67.2289 56.0693L67.2285 56.0692C66.9366 55.967 66.7406 55.693 66.7406 55.3885V53.3513C66.7406 53.1051 66.6428 52.869 66.4688 52.695C66.2947 52.5209 66.0587 52.4231 65.8125 52.4231C65.5663 52.4231 65.3303 52.5209 65.1562 52.695C64.9822 52.869 64.8844 53.1051 64.8844 53.3513V55.3885V55.3885C64.8848 55.9232 65.0513 56.4445 65.3609 56.8803C65.6705 57.3161 66.1078 57.645 66.6124 57.8214C66.6125 57.8214 66.6125 57.8215 66.6126 57.8215L73.5203 60.2726C73.5204 60.2726 73.5204 60.2726 73.5204 60.2726C74.6289 60.6663 75.5881 61.3938 76.2661 62.3551C76.9441 63.3164 77.3075 64.4642 77.3062 65.6405V65.6406V66.1027C77.3062 66.3489 77.404 66.585 77.5781 66.759C77.7521 66.9331 77.9882 67.0309 78.2344 67.0309C78.4802 67.0309 78.716 66.9333 78.89 66.7597C79.064 66.586 79.162 66.3504 79.1625 66.1046V66.1044V65.6407ZM79.1625 65.6407L79.0625 65.6406M79.1625 65.6407V65.6406H79.0625M79.0625 65.6406V66.1044M79.0625 65.6406C79.0638 64.101 78.5877 62.5988 77.7 61.3409C76.8122 60.083 75.5564 59.1312 74.1053 58.6165L79.0625 66.1044M79.0625 66.1044C79.0621 66.3237 78.9746 66.5339 78.8194 66.6889C78.6641 66.8438 78.4537 66.9309 78.2344 66.9309C78.0147 66.9309 77.8041 66.8436 77.6488 66.6883C77.4935 66.533 77.4062 66.3224 77.4062 66.1027V65.6406M79.0625 66.1044L77.4062 65.6406M77.4062 65.6406C77.4075 64.4436 77.0377 63.2757 76.3478 62.2975C75.6579 61.3193 74.6818 60.5789 73.5538 60.1783L77.4062 65.6406ZM46.002 64.088L46.0021 64.0875C46.2755 62.8224 46.8663 61.6476 47.7189 60.6738C48.5715 59.6999 49.6578 58.959 50.8757 58.5207L50.8765 58.5205L50.8765 58.5205L57.7698 56.1023L57.7702 56.1022C57.9124 56.053 58.0359 55.961 58.1235 55.8387C58.211 55.7164 58.2585 55.5701 58.2594 55.4197V53.3496C58.2594 53.1035 58.3572 52.8674 58.5312 52.6933C58.7053 52.5193 58.9413 52.4215 59.1875 52.4215C59.4337 52.4215 59.6697 52.5193 59.8438 52.6933C60.0178 52.8674 60.1156 53.1035 60.1156 53.3496V55.4199V55.4201C60.1146 55.9552 59.9474 56.4768 59.6373 56.9129C59.3271 57.3489 58.8893 57.678 58.3842 57.8546L46.002 64.088ZM46.002 64.088C45.8929 64.6064 45.8375 65.1317 45.8375 65.6555V66.1027C45.8375 66.3489 45.9353 66.585 46.1093 66.759C46.2834 66.9331 46.5195 67.0309 46.7656 67.0309C47.0118 67.0309 47.2479 66.9331 47.4219 66.759C47.596 66.585 47.6938 66.3489 47.6938 66.1027V65.6555C47.6938 65.2616 47.7344 64.8628 47.8174 64.4724C48.0237 63.5174 48.4697 62.6306 49.1133 61.8956C49.7568 61.1606 50.5769 60.6015 51.4962 60.2709C51.4963 60.2709 51.4964 60.2708 51.4966 60.2708L58.3841 57.8546L46.002 64.088Z" fill="#FF9700" stroke="#FF9700" stroke-width="0.2"/>
<mask id="path-6-outside-1_1_1062" maskUnits="userSpaceOnUse" x="37.4659" y="36.1183" width="50" height="51" fill="black">
<rect fill="white" x="37.4659" y="36.1183" width="50" height="51"/>
<path d="M62.5 55.3371C62.2803 55.3371 62.0697 55.2498 61.9144 55.0945C61.7591 54.9392 61.6718 54.7286 61.6718 54.509C61.6718 54.2893 61.7591 54.0787 61.9144 53.9234C62.0697 53.7681 62.2803 53.6808 62.5 53.6808C64.2191 53.6808 67.4687 52.124 67.4687 46.2277V43.7433C67.4687 41.0039 65.2394 38.7746 62.5 38.7746C59.7605 38.7746 57.5312 41.0039 57.5312 43.7433V46.2277C57.5312 49.0831 58.2947 51.2677 59.7373 52.5447C59.8222 52.6156 59.892 52.7029 59.9426 52.8013C59.9932 52.8998 60.0236 53.0073 60.0319 53.1177C60.0403 53.228 60.0264 53.3389 59.9911 53.4438C59.9559 53.5487 59.8999 53.6455 59.8267 53.7284C59.7534 53.8113 59.6642 53.8787 59.5644 53.9266C59.4647 53.9745 59.3563 54.0019 59.2458 54.0072C59.1352 54.0125 59.0247 53.9955 58.9209 53.9574C58.817 53.9193 58.7218 53.8607 58.6409 53.7852C57.3788 52.6689 55.875 50.4528 55.875 46.2277V43.7433C55.875 40.0897 58.8463 37.1183 62.5 37.1183C66.1536 37.1183 69.125 40.0897 69.125 43.7433V46.2277C69.125 53.4341 64.7922 55.3371 62.5 55.3371ZM75.1173 81.8371C74.9306 81.8367 74.7496 81.7733 74.6035 81.6571C74.4574 81.5409 74.3548 81.3788 74.3125 81.197C74.2701 81.0152 74.2904 80.8244 74.37 80.6556C74.4496 80.4868 74.584 80.3499 74.7512 80.267L78.8471 78.2381C78.9612 78.1817 79.0868 78.1524 79.214 78.1524C79.3412 78.1524 79.4668 78.1817 79.5809 78.2381L82.2574 79.5647L81.8218 76.61C81.8035 76.4837 81.8146 76.355 81.8542 76.2337C81.8939 76.1125 81.961 76.0021 82.0503 75.911L84.1422 73.7728L81.194 73.271C81.0685 73.2492 80.9496 73.1989 80.8465 73.124C80.7434 73.049 80.6589 72.9514 80.5995 72.8387L79.2148 70.192L77.8285 72.8387C77.7691 72.9514 77.6846 73.049 77.5815 73.124C77.4784 73.1989 77.3595 73.2492 77.234 73.271L74.2875 73.7728L76.3777 75.911C76.5278 76.0687 76.6098 76.2792 76.6059 76.4969C76.602 76.7146 76.5125 76.922 76.3568 77.0742C76.2011 77.2265 75.9918 77.3112 75.774 77.3102C75.5563 77.3092 75.3477 77.2224 75.1935 77.0688L71.9985 73.801C71.8925 73.6931 71.8181 73.5582 71.7835 73.4109C71.7489 73.2637 71.7553 73.1098 71.8021 72.9659C71.8489 72.8221 71.9343 72.6939 72.049 72.5952C72.1636 72.4965 72.3032 72.4312 72.4524 72.4064L76.5532 71.7075L78.4828 68.024C78.5537 67.891 78.6594 67.7797 78.7886 67.7022C78.9179 67.6246 79.0658 67.5836 79.2165 67.5836C79.3672 67.5836 79.5151 67.6246 79.6443 67.7022C79.7736 67.7797 79.8793 67.891 79.9502 68.024L81.8781 71.7075L85.9806 72.4064C86.1295 72.4318 86.2686 72.4974 86.3829 72.5961C86.4972 72.6948 86.5823 72.8229 86.629 72.9665C86.6758 73.1101 86.6823 73.2638 86.648 73.4109C86.6137 73.558 86.5399 73.6929 86.4344 73.801L83.5244 76.7739L84.1306 80.8881C84.1519 81.0376 84.1322 81.19 84.0735 81.3292C84.0149 81.4683 83.9196 81.5889 83.7977 81.6781C83.6756 81.7675 83.5312 81.8215 83.3804 81.8341C83.2296 81.8466 83.0782 81.8173 82.943 81.7493L79.2165 79.9026L75.4883 81.7493C75.3733 81.8076 75.2461 81.8377 75.1173 81.8371ZM57.6571 86.3438C57.5381 86.3438 57.4204 86.3183 57.3122 86.2688C57.2039 86.2193 57.1076 86.1471 57.0298 86.057C56.952 85.9669 56.8945 85.8611 56.8613 85.7469C56.8281 85.6326 56.8199 85.5125 56.8372 85.3947L57.5627 80.4541L54.0713 76.8833C53.9653 76.7754 53.8909 76.6405 53.8562 76.4932C53.8216 76.346 53.828 76.192 53.8749 76.0482C53.9217 75.9044 54.007 75.7761 54.1217 75.6775C54.2364 75.5788 54.3759 75.5135 54.5251 75.4887L59.4508 74.6506L61.7662 70.2268C62.0544 69.6802 62.9471 69.6802 63.2353 70.2268L65.5508 74.6506L70.4765 75.4887C70.6253 75.514 70.7645 75.5796 70.8787 75.6784C70.993 75.7771 71.0782 75.9052 71.1249 76.0488C71.1716 76.1924 71.1782 76.3461 71.1439 76.4932C71.1096 76.6402 71.0357 76.7751 70.9303 76.8833L67.4372 80.4541L68.1643 85.3947C68.1856 85.5442 68.1659 85.6967 68.1073 85.8358C68.0487 85.975 67.9533 86.0956 67.8314 86.1848C67.7093 86.2742 67.5649 86.3282 67.4141 86.3407C67.2633 86.3533 67.112 86.324 66.9768 86.256L62.5 84.0383L58.0248 86.256C57.9107 86.3134 57.7848 86.3434 57.6571 86.3438ZM56.3602 76.8551L59.0334 79.5896C59.214 79.7751 59.2984 80.0334 59.262 80.2885L58.7055 84.0697L62.1323 82.3721C62.2461 82.315 62.3717 82.2852 62.4991 82.2852C62.6265 82.2852 62.7521 82.315 62.866 82.3721L66.2911 84.0697L65.7346 80.2885C65.7163 80.1623 65.7274 80.0335 65.7671 79.9123C65.8067 79.791 65.8738 79.6806 65.9632 79.5896L68.638 76.8551L64.8667 76.2125C64.7412 76.1907 64.6223 76.1404 64.5192 76.0655C64.4161 75.9905 64.3316 75.8929 64.2721 75.7802L62.5 72.3932L60.7278 75.7802C60.6683 75.8929 60.5838 75.9905 60.4807 76.0655C60.3776 76.1404 60.2587 76.1907 60.1332 76.2125L56.3602 76.8551ZM50.0168 81.8371C49.8893 81.8368 49.7635 81.8073 49.6491 81.751L45.9225 79.9043L42.1943 81.7526C42.0588 81.8199 41.9075 81.8488 41.7567 81.8361C41.606 81.8235 41.4616 81.7698 41.3392 81.6809C41.2168 81.5919 41.1211 81.4712 41.0625 81.3317C41.0039 81.1922 40.9847 81.0394 41.0068 80.8897L41.613 76.7756L38.703 73.8026C38.5969 73.6947 38.5225 73.5598 38.4879 73.4126C38.4533 73.2653 38.4597 73.1114 38.5065 72.9676C38.5533 72.8237 38.6387 72.6955 38.7534 72.5969C38.868 72.4982 39.0076 72.4329 39.1568 72.4081L43.2593 71.7091L45.1888 68.0256C45.2597 67.8926 45.3654 67.7814 45.4947 67.7038C45.6239 67.6262 45.7718 67.5853 45.9225 67.5853C46.0733 67.5853 46.2212 67.6262 46.3504 67.7038C46.4796 67.7814 46.5854 67.8926 46.6563 68.0256L48.5841 71.7091L52.685 72.4081C52.8339 72.4334 52.973 72.499 53.0873 72.5977C53.2016 72.6965 53.2867 72.8246 53.3334 72.9682C53.3802 73.1118 53.3868 73.2654 53.3525 73.4125C53.3181 73.5596 53.2443 73.6945 53.1388 73.8026L49.9439 77.0688C49.7897 77.2224 49.5811 77.3092 49.3634 77.3102C49.1456 77.3112 48.9362 77.2265 48.7805 77.0742C48.6248 76.922 48.5354 76.7146 48.5315 76.4969C48.5276 76.2792 48.6096 76.0687 48.7597 75.911L50.8499 73.7728L47.9034 73.271C47.7778 73.2494 47.6588 73.1992 47.5556 73.1243C47.4525 73.0493 47.3681 72.9516 47.3088 72.8387L45.9242 70.192L44.5379 72.8387C44.4785 72.9514 44.394 73.049 44.2909 73.124C44.1878 73.1989 44.0689 73.2492 43.9433 73.271L40.9952 73.7728L43.087 75.911C43.2676 76.0965 43.352 76.3549 43.3156 76.61L42.88 79.5647L45.5582 78.2381C45.6723 78.1817 45.7978 78.1524 45.925 78.1524C46.0523 78.1524 46.1778 78.1817 46.2919 78.2381L50.3861 80.267C50.5536 80.35 50.6881 80.4872 50.7677 80.6564C50.8473 80.8255 50.8673 81.0166 50.8245 81.1986C50.7817 81.3806 50.6786 81.5427 50.532 81.6586C50.3853 81.7746 50.2037 81.8375 50.0168 81.8371Z"/>
</mask>
<path d="M62.5 55.3371C62.2803 55.3371 62.0697 55.2498 61.9144 55.0945C61.7591 54.9392 61.6718 54.7286 61.6718 54.509C61.6718 54.2893 61.7591 54.0787 61.9144 53.9234C62.0697 53.7681 62.2803 53.6808 62.5 53.6808C64.2191 53.6808 67.4687 52.124 67.4687 46.2277V43.7433C67.4687 41.0039 65.2394 38.7746 62.5 38.7746C59.7605 38.7746 57.5312 41.0039 57.5312 43.7433V46.2277C57.5312 49.0831 58.2947 51.2677 59.7373 52.5447C59.8222 52.6156 59.892 52.7029 59.9426 52.8013C59.9932 52.8998 60.0236 53.0073 60.0319 53.1177C60.0403 53.228 60.0264 53.3389 59.9911 53.4438C59.9559 53.5487 59.8999 53.6455 59.8267 53.7284C59.7534 53.8113 59.6642 53.8787 59.5644 53.9266C59.4647 53.9745 59.3563 54.0019 59.2458 54.0072C59.1352 54.0125 59.0247 53.9955 58.9209 53.9574C58.817 53.9193 58.7218 53.8607 58.6409 53.7852C57.3788 52.6689 55.875 50.4528 55.875 46.2277V43.7433C55.875 40.0897 58.8463 37.1183 62.5 37.1183C66.1536 37.1183 69.125 40.0897 69.125 43.7433V46.2277C69.125 53.4341 64.7922 55.3371 62.5 55.3371ZM75.1173 81.8371C74.9306 81.8367 74.7496 81.7733 74.6035 81.6571C74.4574 81.5409 74.3548 81.3788 74.3125 81.197C74.2701 81.0152 74.2904 80.8244 74.37 80.6556C74.4496 80.4868 74.584 80.3499 74.7512 80.267L78.8471 78.2381C78.9612 78.1817 79.0868 78.1524 79.214 78.1524C79.3412 78.1524 79.4668 78.1817 79.5809 78.2381L82.2574 79.5647L81.8218 76.61C81.8035 76.4837 81.8146 76.355 81.8542 76.2337C81.8939 76.1125 81.961 76.0021 82.0503 75.911L84.1422 73.7728L81.194 73.271C81.0685 73.2492 80.9496 73.1989 80.8465 73.124C80.7434 73.049 80.6589 72.9514 80.5995 72.8387L79.2148 70.192L77.8285 72.8387C77.7691 72.9514 77.6846 73.049 77.5815 73.124C77.4784 73.1989 77.3595 73.2492 77.234 73.271L74.2875 73.7728L76.3777 75.911C76.5278 76.0687 76.6098 76.2792 76.6059 76.4969C76.602 76.7146 76.5125 76.922 76.3568 77.0742C76.2011 77.2265 75.9918 77.3112 75.774 77.3102C75.5563 77.3092 75.3477 77.2224 75.1935 77.0688L71.9985 73.801C71.8925 73.6931 71.8181 73.5582 71.7835 73.4109C71.7489 73.2637 71.7553 73.1098 71.8021 72.9659C71.8489 72.8221 71.9343 72.6939 72.049 72.5952C72.1636 72.4965 72.3032 72.4312 72.4524 72.4064L76.5532 71.7075L78.4828 68.024C78.5537 67.891 78.6594 67.7797 78.7886 67.7022C78.9179 67.6246 79.0658 67.5836 79.2165 67.5836C79.3672 67.5836 79.5151 67.6246 79.6443 67.7022C79.7736 67.7797 79.8793 67.891 79.9502 68.024L81.8781 71.7075L85.9806 72.4064C86.1295 72.4318 86.2686 72.4974 86.3829 72.5961C86.4972 72.6948 86.5823 72.8229 86.629 72.9665C86.6758 73.1101 86.6823 73.2638 86.648 73.4109C86.6137 73.558 86.5399 73.6929 86.4344 73.801L83.5244 76.7739L84.1306 80.8881C84.1519 81.0376 84.1322 81.19 84.0735 81.3292C84.0149 81.4683 83.9196 81.5889 83.7977 81.6781C83.6756 81.7675 83.5312 81.8215 83.3804 81.8341C83.2296 81.8466 83.0782 81.8173 82.943 81.7493L79.2165 79.9026L75.4883 81.7493C75.3733 81.8076 75.2461 81.8377 75.1173 81.8371ZM57.6571 86.3438C57.5381 86.3438 57.4204 86.3183 57.3122 86.2688C57.2039 86.2193 57.1076 86.1471 57.0298 86.057C56.952 85.9669 56.8945 85.8611 56.8613 85.7469C56.8281 85.6326 56.8199 85.5125 56.8372 85.3947L57.5627 80.4541L54.0713 76.8833C53.9653 76.7754 53.8909 76.6405 53.8562 76.4932C53.8216 76.346 53.828 76.192 53.8749 76.0482C53.9217 75.9044 54.007 75.7761 54.1217 75.6775C54.2364 75.5788 54.3759 75.5135 54.5251 75.4887L59.4508 74.6506L61.7662 70.2268C62.0544 69.6802 62.9471 69.6802 63.2353 70.2268L65.5508 74.6506L70.4765 75.4887C70.6253 75.514 70.7645 75.5796 70.8787 75.6784C70.993 75.7771 71.0782 75.9052 71.1249 76.0488C71.1716 76.1924 71.1782 76.3461 71.1439 76.4932C71.1096 76.6402 71.0357 76.7751 70.9303 76.8833L67.4372 80.4541L68.1643 85.3947C68.1856 85.5442 68.1659 85.6967 68.1073 85.8358C68.0487 85.975 67.9533 86.0956 67.8314 86.1848C67.7093 86.2742 67.5649 86.3282 67.4141 86.3407C67.2633 86.3533 67.112 86.324 66.9768 86.256L62.5 84.0383L58.0248 86.256C57.9107 86.3134 57.7848 86.3434 57.6571 86.3438ZM56.3602 76.8551L59.0334 79.5896C59.214 79.7751 59.2984 80.0334 59.262 80.2885L58.7055 84.0697L62.1323 82.3721C62.2461 82.315 62.3717 82.2852 62.4991 82.2852C62.6265 82.2852 62.7521 82.315 62.866 82.3721L66.2911 84.0697L65.7346 80.2885C65.7163 80.1623 65.7274 80.0335 65.7671 79.9123C65.8067 79.791 65.8738 79.6806 65.9632 79.5896L68.638 76.8551L64.8667 76.2125C64.7412 76.1907 64.6223 76.1404 64.5192 76.0655C64.4161 75.9905 64.3316 75.8929 64.2721 75.7802L62.5 72.3932L60.7278 75.7802C60.6683 75.8929 60.5838 75.9905 60.4807 76.0655C60.3776 76.1404 60.2587 76.1907 60.1332 76.2125L56.3602 76.8551ZM50.0168 81.8371C49.8893 81.8368 49.7635 81.8073 49.6491 81.751L45.9225 79.9043L42.1943 81.7526C42.0588 81.8199 41.9075 81.8488 41.7567 81.8361C41.606 81.8235 41.4616 81.7698 41.3392 81.6809C41.2168 81.5919 41.1211 81.4712 41.0625 81.3317C41.0039 81.1922 40.9847 81.0394 41.0068 80.8897L41.613 76.7756L38.703 73.8026C38.5969 73.6947 38.5225 73.5598 38.4879 73.4126C38.4533 73.2653 38.4597 73.1114 38.5065 72.9676C38.5533 72.8237 38.6387 72.6955 38.7534 72.5969C38.868 72.4982 39.0076 72.4329 39.1568 72.4081L43.2593 71.7091L45.1888 68.0256C45.2597 67.8926 45.3654 67.7814 45.4947 67.7038C45.6239 67.6262 45.7718 67.5853 45.9225 67.5853C46.0733 67.5853 46.2212 67.6262 46.3504 67.7038C46.4796 67.7814 46.5854 67.8926 46.6563 68.0256L48.5841 71.7091L52.685 72.4081C52.8339 72.4334 52.973 72.499 53.0873 72.5977C53.2016 72.6965 53.2867 72.8246 53.3334 72.9682C53.3802 73.1118 53.3868 73.2654 53.3525 73.4125C53.3181 73.5596 53.2443 73.6945 53.1388 73.8026L49.9439 77.0688C49.7897 77.2224 49.5811 77.3092 49.3634 77.3102C49.1456 77.3112 48.9362 77.2265 48.7805 77.0742C48.6248 76.922 48.5354 76.7146 48.5315 76.4969C48.5276 76.2792 48.6096 76.0687 48.7597 75.911L50.8499 73.7728L47.9034 73.271C47.7778 73.2494 47.6588 73.1992 47.5556 73.1243C47.4525 73.0493 47.3681 72.9516 47.3088 72.8387L45.9242 70.192L44.5379 72.8387C44.4785 72.9514 44.394 73.049 44.2909 73.124C44.1878 73.1989 44.0689 73.2492 43.9433 73.271L40.9952 73.7728L43.087 75.911C43.2676 76.0965 43.352 76.3549 43.3156 76.61L42.88 79.5647L45.5582 78.2381C45.6723 78.1817 45.7978 78.1524 45.925 78.1524C46.0523 78.1524 46.1778 78.1817 46.2919 78.2381L50.3861 80.267C50.5536 80.35 50.6881 80.4872 50.7677 80.6564C50.8473 80.8255 50.8673 81.0166 50.8245 81.1986C50.7817 81.3806 50.6786 81.5427 50.532 81.6586C50.3853 81.7746 50.2037 81.8375 50.0168 81.8371Z" fill="#FF9700"/>
<path d="M62.5 55.3371C62.2803 55.3371 62.0697 55.2498 61.9144 55.0945C61.7591 54.9392 61.6718 54.7286 61.6718 54.509C61.6718 54.2893 61.7591 54.0787 61.9144 53.9234C62.0697 53.7681 62.2803 53.6808 62.5 53.6808C64.2191 53.6808 67.4687 52.124 67.4687 46.2277V43.7433C67.4687 41.0039 65.2394 38.7746 62.5 38.7746C59.7605 38.7746 57.5312 41.0039 57.5312 43.7433V46.2277C57.5312 49.0831 58.2947 51.2677 59.7373 52.5447C59.8222 52.6156 59.892 52.7029 59.9426 52.8013C59.9932 52.8998 60.0236 53.0073 60.0319 53.1177C60.0403 53.228 60.0264 53.3389 59.9911 53.4438C59.9559 53.5487 59.8999 53.6455 59.8267 53.7284C59.7534 53.8113 59.6642 53.8787 59.5644 53.9266C59.4647 53.9745 59.3563 54.0019 59.2458 54.0072C59.1352 54.0125 59.0247 53.9955 58.9209 53.9574C58.817 53.9193 58.7218 53.8607 58.6409 53.7852C57.3788 52.6689 55.875 50.4528 55.875 46.2277V43.7433C55.875 40.0897 58.8463 37.1183 62.5 37.1183C66.1536 37.1183 69.125 40.0897 69.125 43.7433V46.2277C69.125 53.4341 64.7922 55.3371 62.5 55.3371ZM75.1173 81.8371C74.9306 81.8367 74.7496 81.7733 74.6035 81.6571C74.4574 81.5409 74.3548 81.3788 74.3125 81.197C74.2701 81.0152 74.2904 80.8244 74.37 80.6556C74.4496 80.4868 74.584 80.3499 74.7512 80.267L78.8471 78.2381C78.9612 78.1817 79.0868 78.1524 79.214 78.1524C79.3412 78.1524 79.4668 78.1817 79.5809 78.2381L82.2574 79.5647L81.8218 76.61C81.8035 76.4837 81.8146 76.355 81.8542 76.2337C81.8939 76.1125 81.961 76.0021 82.0503 75.911L84.1422 73.7728L81.194 73.271C81.0685 73.2492 80.9496 73.1989 80.8465 73.124C80.7434 73.049 80.6589 72.9514 80.5995 72.8387L79.2148 70.192L77.8285 72.8387C77.7691 72.9514 77.6846 73.049 77.5815 73.124C77.4784 73.1989 77.3595 73.2492 77.234 73.271L74.2875 73.7728L76.3777 75.911C76.5278 76.0687 76.6098 76.2792 76.6059 76.4969C76.602 76.7146 76.5125 76.922 76.3568 77.0742C76.2011 77.2265 75.9918 77.3112 75.774 77.3102C75.5563 77.3092 75.3477 77.2224 75.1935 77.0688L71.9985 73.801C71.8925 73.6931 71.8181 73.5582 71.7835 73.4109C71.7489 73.2637 71.7553 73.1098 71.8021 72.9659C71.8489 72.8221 71.9343 72.6939 72.049 72.5952C72.1636 72.4965 72.3032 72.4312 72.4524 72.4064L76.5532 71.7075L78.4828 68.024C78.5537 67.891 78.6594 67.7797 78.7886 67.7022C78.9179 67.6246 79.0658 67.5836 79.2165 67.5836C79.3672 67.5836 79.5151 67.6246 79.6443 67.7022C79.7736 67.7797 79.8793 67.891 79.9502 68.024L81.8781 71.7075L85.9806 72.4064C86.1295 72.4318 86.2686 72.4974 86.3829 72.5961C86.4972 72.6948 86.5823 72.8229 86.629 72.9665C86.6758 73.1101 86.6823 73.2638 86.648 73.4109C86.6137 73.558 86.5399 73.6929 86.4344 73.801L83.5244 76.7739L84.1306 80.8881C84.1519 81.0376 84.1322 81.19 84.0735 81.3292C84.0149 81.4683 83.9196 81.5889 83.7977 81.6781C83.6756 81.7675 83.5312 81.8215 83.3804 81.8341C83.2296 81.8466 83.0782 81.8173 82.943 81.7493L79.2165 79.9026L75.4883 81.7493C75.3733 81.8076 75.2461 81.8377 75.1173 81.8371ZM57.6571 86.3438C57.5381 86.3438 57.4204 86.3183 57.3122 86.2688C57.2039 86.2193 57.1076 86.1471 57.0298 86.057C56.952 85.9669 56.8945 85.8611 56.8613 85.7469C56.8281 85.6326 56.8199 85.5125 56.8372 85.3947L57.5627 80.4541L54.0713 76.8833C53.9653 76.7754 53.8909 76.6405 53.8562 76.4932C53.8216 76.346 53.828 76.192 53.8749 76.0482C53.9217 75.9044 54.007 75.7761 54.1217 75.6775C54.2364 75.5788 54.3759 75.5135 54.5251 75.4887L59.4508 74.6506L61.7662 70.2268C62.0544 69.6802 62.9471 69.6802 63.2353 70.2268L65.5508 74.6506L70.4765 75.4887C70.6253 75.514 70.7645 75.5796 70.8787 75.6784C70.993 75.7771 71.0782 75.9052 71.1249 76.0488C71.1716 76.1924 71.1782 76.3461 71.1439 76.4932C71.1096 76.6402 71.0357 76.7751 70.9303 76.8833L67.4372 80.4541L68.1643 85.3947C68.1856 85.5442 68.1659 85.6967 68.1073 85.8358C68.0487 85.975 67.9533 86.0956 67.8314 86.1848C67.7093 86.2742 67.5649 86.3282 67.4141 86.3407C67.2633 86.3533 67.112 86.324 66.9768 86.256L62.5 84.0383L58.0248 86.256C57.9107 86.3134 57.7848 86.3434 57.6571 86.3438ZM56.3602 76.8551L59.0334 79.5896C59.214 79.7751 59.2984 80.0334 59.262 80.2885L58.7055 84.0697L62.1323 82.3721C62.2461 82.315 62.3717 82.2852 62.4991 82.2852C62.6265 82.2852 62.7521 82.315 62.866 82.3721L66.2911 84.0697L65.7346 80.2885C65.7163 80.1623 65.7274 80.0335 65.7671 79.9123C65.8067 79.791 65.8738 79.6806 65.9632 79.5896L68.638 76.8551L64.8667 76.2125C64.7412 76.1907 64.6223 76.1404 64.5192 76.0655C64.4161 75.9905 64.3316 75.8929 64.2721 75.7802L62.5 72.3932L60.7278 75.7802C60.6683 75.8929 60.5838 75.9905 60.4807 76.0655C60.3776 76.1404 60.2587 76.1907 60.1332 76.2125L56.3602 76.8551ZM50.0168 81.8371C49.8893 81.8368 49.7635 81.8073 49.6491 81.751L45.9225 79.9043L42.1943 81.7526C42.0588 81.8199 41.9075 81.8488 41.7567 81.8361C41.606 81.8235 41.4616 81.7698 41.3392 81.6809C41.2168 81.5919 41.1211 81.4712 41.0625 81.3317C41.0039 81.1922 40.9847 81.0394 41.0068 80.8897L41.613 76.7756L38.703 73.8026C38.5969 73.6947 38.5225 73.5598 38.4879 73.4126C38.4533 73.2653 38.4597 73.1114 38.5065 72.9676C38.5533 72.8237 38.6387 72.6955 38.7534 72.5969C38.868 72.4982 39.0076 72.4329 39.1568 72.4081L43.2593 71.7091L45.1888 68.0256C45.2597 67.8926 45.3654 67.7814 45.4947 67.7038C45.6239 67.6262 45.7718 67.5853 45.9225 67.5853C46.0733 67.5853 46.2212 67.6262 46.3504 67.7038C46.4796 67.7814 46.5854 67.8926 46.6563 68.0256L48.5841 71.7091L52.685 72.4081C52.8339 72.4334 52.973 72.499 53.0873 72.5977C53.2016 72.6965 53.2867 72.8246 53.3334 72.9682C53.3802 73.1118 53.3868 73.2654 53.3525 73.4125C53.3181 73.5596 53.2443 73.6945 53.1388 73.8026L49.9439 77.0688C49.7897 77.2224 49.5811 77.3092 49.3634 77.3102C49.1456 77.3112 48.9362 77.2265 48.7805 77.0742C48.6248 76.922 48.5354 76.7146 48.5315 76.4969C48.5276 76.2792 48.6096 76.0687 48.7597 75.911L50.8499 73.7728L47.9034 73.271C47.7778 73.2494 47.6588 73.1992 47.5556 73.1243C47.4525 73.0493 47.3681 72.9516 47.3088 72.8387L45.9242 70.192L44.5379 72.8387C44.4785 72.9514 44.394 73.049 44.2909 73.124C44.1878 73.1989 44.0689 73.2492 43.9433 73.271L40.9952 73.7728L43.087 75.911C43.2676 76.0965 43.352 76.3549 43.3156 76.61L42.88 79.5647L45.5582 78.2381C45.6723 78.1817 45.7978 78.1524 45.925 78.1524C46.0523 78.1524 46.1778 78.1817 46.2919 78.2381L50.3861 80.267C50.5536 80.35 50.6881 80.4872 50.7677 80.6564C50.8473 80.8255 50.8673 81.0166 50.8245 81.1986C50.7817 81.3806 50.6786 81.5427 50.532 81.6586C50.3853 81.7746 50.2037 81.8375 50.0168 81.8371Z" stroke="#FF9700" stroke-width="0.4" mask="url(#path-6-outside-1_1_1062)"/>
</svg>
