<svg width="70" height="69" viewBox="0 0 70 69" fill="none" xmlns="http://www.w3.org/2000/svg">
<circle cx="35.2362" cy="34.386" r="33.6899" fill="url(#paint0_linear_947_988)" stroke="white" stroke-width="1.29577"/>
<g clip-path="url(#clip0_947_988)">
<path d="M42.2676 20.2469H30.2251C26.3057 20.2469 23.1172 23.4354 23.1172 27.3547V39.3974C23.1172 43.3166 26.3057 46.5051 30.2251 46.5051H42.2678C46.1869 46.5051 49.3754 43.3166 49.3754 39.3974V27.3547C49.3754 23.4354 46.1869 20.2469 42.2676 20.2469V20.2469ZM47.8361 39.3974C47.8361 42.4678 45.3381 44.9657 42.2676 44.9657H30.2251C27.1545 44.9657 24.6566 42.4678 24.6566 39.3974V27.3547C24.6566 24.2842 27.1545 21.7862 30.2251 21.7862H42.2678C45.3381 21.7862 47.8361 24.2842 47.8361 27.3547V39.3974Z" fill="white"/>
<path d="M36.2462 26.1963C32.2872 26.1963 29.0664 29.417 29.0664 33.376C29.0664 37.3351 32.2872 40.5558 36.2462 40.5558C40.2052 40.5558 43.426 37.3351 43.426 33.376C43.426 29.417 40.2052 26.1963 36.2462 26.1963ZM36.2462 39.0165C33.1362 39.0165 30.6058 36.4862 30.6058 33.376C30.6058 30.2661 33.1362 27.7356 36.2462 27.7356C39.3564 27.7356 41.8866 30.2661 41.8866 33.376C41.8866 36.4862 39.3564 39.0165 36.2462 39.0165Z" fill="white"/>
<path d="M43.5942 23.6464C42.4242 23.6464 41.4727 24.5982 41.4727 25.768C41.4727 26.9379 42.4242 27.8897 43.5942 27.8897C44.7642 27.8897 45.7159 26.9379 45.7159 25.768C45.7159 24.598 44.7642 23.6464 43.5942 23.6464ZM43.5942 26.3501C43.2733 26.3501 43.012 26.0889 43.012 25.768C43.012 25.4468 43.2733 25.1858 43.5942 25.1858C43.9153 25.1858 44.1766 25.4468 44.1766 25.768C44.1766 26.0889 43.9153 26.3501 43.5942 26.3501Z" fill="white"/>
</g>
<defs>
<linearGradient id="paint0_linear_947_988" x1="0.898437" y1="34.3283" x2="69.574" y2="34.3283" gradientUnits="userSpaceOnUse">
<stop stop-color="#F18F01"/>
<stop offset="1" stop-color="#FFA800" stop-opacity="0.91"/>
</linearGradient>
<clipPath id="clip0_947_988">
<rect width="26.2583" height="26.2583" fill="white" transform="translate(23.1172 20.2469)"/>
</clipPath>
</defs>
</svg>
