<svg width="17" height="17" viewBox="0 0 17 17" fill="none" xmlns="http://www.w3.org/2000/svg">
<g clip-path="url(#clip0_1_1119)">
<path d="M12.1542 0.793396H5.12293C2.83453 0.793396 0.972839 2.65509 0.972839 4.94349V11.9749C0.972839 14.2632 2.83453 16.1249 5.12293 16.1249H12.1544C14.4426 16.1249 16.3043 14.2632 16.3043 11.9749V4.94349C16.3043 2.65509 14.4426 0.793396 12.1542 0.793396V0.793396ZM15.4055 11.9749C15.4055 13.7676 13.947 15.2261 12.1542 15.2261H5.12293C3.33014 15.2261 1.87164 13.7676 1.87164 11.9749V4.94349C1.87164 3.15069 3.33014 1.69219 5.12293 1.69219H12.1544C13.947 1.69219 15.4055 3.15069 15.4055 4.94349V11.9749Z" fill="white"/>
<path d="M8.63862 4.26709C6.32706 4.26709 4.44653 6.14762 4.44653 8.45918C4.44653 10.7707 6.32706 12.6513 8.63862 12.6513C10.9502 12.6513 12.8307 10.7707 12.8307 8.45918C12.8307 6.14762 10.9502 4.26709 8.63862 4.26709ZM8.63862 11.7525C6.82278 11.7525 5.34533 10.2751 5.34533 8.45918C5.34533 6.64334 6.82278 5.16589 8.63862 5.16589C10.4546 5.16589 11.9319 6.64334 11.9319 8.45918C11.9319 10.2751 10.4546 11.7525 8.63862 11.7525Z" fill="white"/>
<path d="M12.9309 2.77834C12.2478 2.77834 11.6922 3.33406 11.6922 4.01705C11.6922 4.70015 12.2478 5.25588 12.9309 5.25588C13.614 5.25588 14.1697 4.70015 14.1697 4.01705C14.1697 3.33394 13.614 2.77834 12.9309 2.77834ZM12.9309 4.35696C12.7435 4.35696 12.591 4.20443 12.591 4.01705C12.591 3.82954 12.7435 3.67713 12.9309 3.67713C13.1184 3.67713 13.2709 3.82954 13.2709 4.01705C13.2709 4.20443 13.1184 4.35696 12.9309 4.35696Z" fill="white"/>
</g>
<defs>
<clipPath id="clip0_1_1119">
<rect width="15.3315" height="15.3315" fill="white" transform="translate(0.972839 0.793396)"/>
</clipPath>
</defs>
</svg>
