<svg width="69" height="69" viewBox="0 0 69 69" fill="none" xmlns="http://www.w3.org/2000/svg">
<circle cx="34.3495" cy="34.386" r="33.6899" fill="black" fill-opacity="0.2" stroke="white" stroke-width="1.29577"/>
<g clip-path="url(#clip0_947_961)">
<path d="M41.3828 20.2467H29.3403C25.4209 20.2467 22.2324 23.4353 22.2324 27.3546V39.3973C22.2324 43.3165 25.4209 46.505 29.3403 46.505H41.383C45.3022 46.505 48.4907 43.3165 48.4907 39.3973V27.3546C48.4907 23.4353 45.3022 20.2467 41.3828 20.2467V20.2467ZM46.9513 39.3973C46.9513 42.4676 44.4533 44.9656 41.3828 44.9656H29.3403C26.2698 44.9656 23.7718 42.4676 23.7718 39.3973V27.3546C23.7718 24.2841 26.2698 21.7861 29.3403 21.7861H41.383C44.4533 21.7861 46.9513 24.2841 46.9513 27.3546V39.3973Z" fill="white"/>
<path d="M35.3634 26.1961C31.4044 26.1961 28.1836 29.4169 28.1836 33.3759C28.1836 37.3349 31.4044 40.5557 35.3634 40.5557C39.3224 40.5557 42.5432 37.3349 42.5432 33.3759C42.5432 29.4169 39.3224 26.1961 35.3634 26.1961ZM35.3634 39.0163C32.2534 39.0163 29.723 36.4861 29.723 33.3759C29.723 30.2659 32.2534 27.7355 35.3634 27.7355C38.4736 27.7355 41.0038 30.2659 41.0038 33.3759C41.0038 36.4861 38.4736 39.0163 35.3634 39.0163Z" fill="white"/>
<path d="M42.7114 23.6463C41.5414 23.6463 40.5898 24.5981 40.5898 25.7679C40.5898 26.9378 41.5414 27.8896 42.7114 27.8896C43.8813 27.8896 44.8331 26.9378 44.8331 25.7679C44.8331 24.5979 43.8813 23.6463 42.7114 23.6463ZM42.7114 26.35C42.3904 26.35 42.1292 26.0888 42.1292 25.7679C42.1292 25.4467 42.3904 25.1857 42.7114 25.1857C43.0325 25.1857 43.2938 25.4467 43.2938 25.7679C43.2938 26.0888 43.0325 26.35 42.7114 26.35Z" fill="white"/>
</g>
<defs>
<clipPath id="clip0_947_961">
<rect width="26.2583" height="26.2583" fill="white" transform="translate(22.2324 20.2467)"/>
</clipPath>
</defs>
</svg>
