<svg width="14" height="14" viewBox="0 0 14 14" fill="none" xmlns="http://www.w3.org/2000/svg">
<g clip-path="url(#clip0_1_1133)">
<path d="M13.1379 13.9459V13.9454H13.1412V9.18759C13.1412 6.86005 12.6401 5.06709 9.91906 5.06709C8.61097 5.06709 7.73314 5.78492 7.37477 6.46546H7.33693V5.28439H4.75696V13.9454H7.44341V9.65677C7.44341 8.5276 7.65747 7.43571 9.05583 7.43571C10.4337 7.43571 10.4542 8.72435 10.4542 9.7292V13.9459H13.1379Z" fill="white"/>
<path d="M0.382324 5.28464H3.07202V13.9456H0.382324V5.28464Z" fill="white"/>
<path d="M1.72616 0.972733C0.866165 0.972733 0.168335 1.67056 0.168335 2.53055C0.168335 3.39054 0.866165 4.10297 1.72616 4.10297C2.58615 4.10297 3.28398 3.39054 3.28398 2.53055C3.28343 1.67056 2.5856 0.972733 1.72616 0.972733V0.972733Z" fill="white"/>
</g>
<defs>
<clipPath id="clip0_1_1133">
<rect width="12.9728" height="12.9728" fill="white" transform="translate(0.168335 0.972733)"/>
</clipPath>
</defs>
</svg>
