<svg width="17" height="17" viewBox="0 0 17 17" fill="none" xmlns="http://www.w3.org/2000/svg">
<g clip-path="url(#clip0_1_1126)">
<path d="M16.2229 3.88496C15.6527 4.13506 15.0452 4.30083 14.4118 4.38132C15.0634 3.99228 15.5607 3.38094 15.7946 2.64407C15.187 3.00628 14.5163 3.26212 13.8015 3.4049C13.2246 2.79068 12.4025 2.41026 11.5056 2.41026C9.76543 2.41026 8.36452 3.82268 8.36452 5.55418C8.36452 5.80332 8.3856 6.04288 8.43734 6.27093C5.82427 6.14349 3.51209 4.8911 1.95881 2.98328C1.68764 3.45376 1.52857 3.99228 1.52857 4.57201C1.52857 5.66055 2.08913 6.62547 2.9247 7.18412C2.41972 7.17453 1.92432 7.02793 1.50462 6.79699C1.50462 6.80658 1.50462 6.81903 1.50462 6.83149C1.50462 8.35889 2.59411 9.62758 4.02282 9.91983C3.76698 9.98978 3.48813 10.0233 3.19875 10.0233C2.99753 10.0233 2.79438 10.0118 2.6037 9.96966C3.01094 11.2144 4.16655 12.1295 5.54064 12.1592C4.47127 12.9957 3.11347 13.4997 1.64356 13.4997C1.3858 13.4997 1.13858 13.4882 0.891357 13.4566C2.28365 14.3545 3.93371 14.8671 5.71312 14.8671C11.4969 14.8671 14.6591 10.076 14.6591 5.9231C14.6591 5.78416 14.6543 5.65001 14.6476 5.51681C15.2714 5.07412 15.7955 4.52122 16.2229 3.88496Z" fill="white"/>
</g>
<defs>
<clipPath id="clip0_1_1126">
<rect width="15.3315" height="15.3315" fill="white" transform="translate(0.891357 0.972733)"/>
</clipPath>
</defs>
</svg>
