<svg xmlns="http://www.w3.org/2000/svg" version="1.1" xmlns:xlink="http://www.w3.org/1999/xlink" width="512" height="512" x="0" y="0" viewBox="0 0 68 68" style="enable-background:new 0 0 512 512" xml:space="preserve" class=""><g><path d="M65.9 28.8c0-7.3-5.9-13.2-13.2-13.2h-.9C50.7 8.5 44.6 3.2 37.3 3.2c-6.1 0-11.6 3.8-13.7 9.4-6-2.5-13.1 1.9-13.1 8.9v.8c-4.8.7-8.4 4.8-8.4 9.8 0 5.5 4.5 9.9 9.9 9.9h3.6v10.5h-5.4c-.4-1.7-2-3-3.9-3-2.2 0-4 1.8-4 4s1.8 4 4 4c1.9 0 3.4-1.3 3.9-3h6.4c.6 0 1-.4 1-1v-2h8.5v5.4c-1.7.4-3 2-3 3.9 0 2.2 1.8 4 4 4s4-1.8 4-4c0-1.9-1.3-3.4-3-3.9v-6.4c0-.6-.4-1-1-1h-9.5V42h9.1c.5 8.8 7.8 15.8 16.8 15.8 9.3 0 16.8-7.5 16.8-16.8 0-.5 0-.9-.1-1.4 3.6-2.4 5.7-6.5 5.7-10.8zM6.5 55.6c-1.1 0-2-.9-2-2s.9-2 2-2 2 .9 2 2-.9 2-2 2zm22.7 5.2c0 1.1-.9 2-2 2s-2-.9-2-2 .9-2 2-2 2 .9 2 2zm14.3-5c-8.2 0-14.8-6.6-14.8-14.8s6.6-14.8 14.8-14.8S58.3 32.9 58.3 41c0 8.2-6.6 14.8-14.8 14.8zm16.4-18.4c-1.7-7.5-8.4-13.2-16.4-13.2-8.9 0-16.2 7-16.8 15.8H12c-4.4 0-7.9-3.6-7.9-7.9s3.3-7.7 7.6-7.9c.6 0 1-.5.9-1.1-.1-.5-.1-1-.1-1.5 0-5.8 6.3-9.4 11.2-6.6.6.3 1.3 0 1.5-.6 1.5-5.4 6.5-9.1 12.2-9.1 6.6 0 12.1 5 12.7 11.6 0 .6.6 1 1.2.9.5-.1 1-.1 1.6-.1 6.2 0 11.2 5 11.2 11.2-.2 3.2-1.7 6.4-4.2 8.5z" fill="#FF9700" opacity="1" data-original="#000000"></path><path d="M18.9 31.9c-.6 0-1 .5-1 1s.4 1 1 1 1-.5 1-1c0-.6-.4-1-1-1zM13.9 31.9c-.6 0-1 .5-1 1s.4 1 1 1 1-.5 1-1c0-.6-.4-1-1-1zM8.9 31.9c-.6 0-1 .5-1 1s.4 1 1 1 1-.5 1-1c0-.6-.4-1-1-1zM50 36.3h-.7v-1.5c0-3.2-2.6-5.8-5.8-5.8s-5.8 2.6-5.8 5.8v1.5H37c-1.1 0-2 .9-2 2v10.9c0 1.1.9 2 2 2h13c1.1 0 2-.9 2-2V38.3c0-1.1-.9-2-2-2zm-10.3-1.5c0-2.1 1.7-3.8 3.8-3.8s3.8 1.7 3.8 3.8v1.5h-7.7zM37 49.2V38.3h13v10.9z" fill="#FF9700" opacity="1" data-original="#000000"></path><path d="M43.5 39.6c-1.8 0-3.2 1.4-3.2 3.2 0 1.4.9 2.6 2.2 3v1.1c0 .6.4 1 1 1s1-.4 1-1v-1.1c1.3-.4 2.2-1.6 2.2-3 0-1.8-1.5-3.2-3.2-3.2zm0 4.3c-.6 0-1.2-.5-1.2-1.2s.5-1.2 1.2-1.2 1.2.5 1.2 1.2-.6 1.2-1.2 1.2zM37.2 8.1c-3.9 0-7.4 2.3-8.8 6-.2.5 0 1.1.6 1.3.5.2 1.1 0 1.3-.6 1.2-2.9 3.9-4.7 7-4.7.6 0 1-.4 1-1s-.5-1-1.1-1z" fill="#FF9700" opacity="1" data-original="#000000"></path></g></svg>