<svg width="257" height="257" viewBox="0 0 257 257" fill="none" xmlns="http://www.w3.org/2000/svg">
<g clip-path="url(#clip0_227_5003)">
<path d="M127.08 171.36C128.274 172.064 129.816 172.05 130.992 171.313L165.374 149.753C165.914 149.414 166.359 148.944 166.668 148.386C166.977 147.829 167.139 147.202 167.139 146.564V110.981C167.166 110.798 167.184 110.614 167.184 110.426C167.184 109.787 167.021 109.159 166.712 108.601C166.403 108.042 165.956 107.572 165.415 107.233L130.988 85.722C130.39 85.3481 129.698 85.1498 128.993 85.1498C128.287 85.1498 127.596 85.3481 126.997 85.722L92.571 107.234C91.4847 107.914 90.8021 109.153 90.8021 110.434V146.564C90.8024 147.202 90.9647 147.83 91.2737 148.388C91.5827 148.946 92.0284 149.416 92.5689 149.755L126.996 171.315C127.024 171.331 127.053 171.343 127.08 171.36ZM132.756 161.319V134.023L159.609 117.245V144.48L132.756 161.319ZM128.992 93.3532L156.295 110.414L128.992 127.496L101.67 110.426L128.992 93.3532ZM98.3314 117.218L125.229 134.023V161.325L98.3314 144.48V117.218ZM2.26858 64.6325L36.695 86.1929C37.8952 86.9438 39.4909 86.9418 40.6911 86.1909L75.0729 64.6305C75.6131 64.292 76.0584 63.8219 76.3671 63.2642C76.6758 62.7065 76.8378 62.0795 76.8377 61.4421V25.8546C76.8667 25.6723 76.8818 25.488 76.8829 25.3034C76.8832 24.665 76.721 24.037 76.4116 23.4785C76.1023 22.92 75.6559 22.4494 75.1145 22.111L40.6876 0.600313C36.5695 -1.9722 32.5795 4.41215 36.697 6.98516L65.995 25.2924L38.6913 42.3764L11.37 25.3039L24.0784 17.3625C28.198 14.79 24.208 8.40368 20.0899 10.9762L2.27059 22.1115C1.18788 22.7876 0.50171 24.027 0.50171 25.3034V61.4415C0.501594 62.0795 0.663692 62.707 0.972771 63.2651C1.28185 63.8232 1.72776 64.2941 2.26858 64.6325ZM8.029 32.0934L8.62683 32.4683L34.9267 48.9013V76.2025L8.029 59.3579V32.0934ZM42.456 76.197V48.9002L69.3084 32.1225V59.3594L42.456 76.197ZM182.869 64.6325L217.296 86.1929C218.494 86.9458 220.095 86.9398 221.292 86.1909L255.674 64.6305C256.214 64.292 256.66 63.8219 256.968 63.2642C257.277 62.7065 257.439 62.0795 257.439 61.4421V25.8586C257.467 25.6759 257.484 25.4922 257.484 25.3034C257.484 24.665 257.322 24.037 257.012 23.4786C256.703 22.9202 256.257 22.4496 255.715 22.111L221.288 0.600313C220.69 0.226461 219.999 0.0282345 219.293 0.0282345C218.588 0.0282345 217.897 0.226461 217.298 0.600313L182.873 22.112C181.789 22.7881 181.103 24.0275 181.103 25.3044V61.4426C181.103 62.0804 181.266 62.7078 181.575 63.2658C181.884 63.8238 182.329 64.2943 182.87 64.633L182.869 64.6325ZM188.632 32.0934L215.53 48.9013V76.2025L188.632 59.3579L188.632 32.0934ZM223.057 76.197V48.9002L249.912 32.1225V59.3594L223.057 76.197ZM219.295 8.231L246.598 25.2919L219.293 42.3759L191.971 25.3034L219.295 8.231ZM75.1145 192.356L40.6876 170.844C40.0893 170.47 39.3979 170.272 38.6923 170.272C37.9867 170.272 37.2954 170.47 36.697 170.844L2.27009 192.356C1.18788 193.032 0.50171 194.269 0.50171 195.548V231.684C0.501348 232.323 0.663325 232.951 0.97241 233.509C1.2815 234.068 1.72753 234.538 2.26858 234.877L36.695 256.437C37.8952 257.188 39.4909 257.186 40.6931 256.435L75.0749 234.875C75.6152 234.536 76.0606 234.066 76.3692 233.508C76.6779 232.95 76.8398 232.322 76.8397 231.684V196.099C76.8648 195.918 76.8829 195.734 76.8829 195.548C76.8829 194.909 76.7206 194.282 76.4113 193.723C76.102 193.165 75.6557 192.694 75.1145 192.355V192.356ZM38.6913 178.476L65.995 195.536L38.6913 212.62L11.37 195.548L38.6913 178.476ZM8.029 202.338L8.62683 202.713L34.9267 219.146V246.447L8.029 229.6V202.338ZM42.456 246.443V219.146L69.3084 202.367V229.604L42.456 246.443ZM255.715 192.356L221.288 170.844C220.69 170.47 219.999 170.272 219.293 170.272C218.588 170.272 217.897 170.47 217.298 170.844L182.871 192.356C181.789 193.032 181.103 194.269 181.103 195.548V231.684C181.103 232.323 181.265 232.95 181.574 233.509C181.883 234.067 182.329 234.538 182.87 234.877L217.296 256.437C219.757 257.971 223.057 256.169 223.057 253.247V219.146L249.912 202.367V229.602L235.408 238.698C234.989 238.961 234.626 239.303 234.339 239.706C234.053 240.109 233.848 240.564 233.738 241.046C233.628 241.528 233.613 242.027 233.696 242.514C233.779 243.002 233.957 243.468 234.22 243.886C234.482 244.305 234.824 244.669 235.227 244.955C235.63 245.242 236.085 245.446 236.567 245.557C237.049 245.667 237.548 245.682 238.035 245.599C238.523 245.517 238.989 245.339 239.408 245.077L255.674 234.875C256.214 234.536 256.66 234.066 256.968 233.508C257.277 232.95 257.439 232.322 257.439 231.684V196.103C257.467 195.92 257.484 195.734 257.484 195.548C257.484 194.909 257.322 194.281 257.012 193.723C256.703 193.165 256.257 192.694 255.715 192.355V192.356ZM219.295 178.476L246.598 195.536L219.293 212.62L191.971 195.548L219.295 178.476ZM188.632 202.338L215.53 219.146V246.447L188.632 229.6V202.338ZM95.2373 45.1993H162.496C167.352 45.1993 167.352 37.6721 162.496 37.6721H95.2373C90.3824 37.6721 90.3824 45.1993 95.2373 45.1993ZM162.747 211.838H95.4883C90.6334 211.838 90.6334 219.367 95.4883 219.367H162.747C167.603 219.367 167.603 211.838 162.747 211.838ZM215.324 105.998V150.874C215.324 151.368 215.421 151.857 215.61 152.314C215.799 152.771 216.077 153.185 216.426 153.535C216.775 153.884 217.19 154.161 217.647 154.35C218.103 154.539 218.593 154.637 219.087 154.637C221.167 154.637 222.851 152.953 222.851 150.874V105.998C222.851 101.142 215.324 101.142 215.324 105.998ZM35.1325 106.165V151.041C35.1325 152.039 35.5291 152.997 36.2351 153.703C36.9411 154.409 37.8987 154.805 38.8971 154.805C39.8956 154.805 40.8531 154.409 41.5591 153.703C42.2651 152.997 42.6618 152.039 42.6618 151.041V106.165C42.6618 101.308 35.1325 101.308 35.1325 106.165ZM182.328 78.3599L165.364 89.5831C162.303 91.6064 163.831 96.4869 167.444 96.4869C168.182 96.4872 168.903 96.2696 169.517 95.8615L186.481 84.6378C190.53 81.9594 186.377 75.6795 182.328 78.3594V78.3599ZM88.469 95.8615C89.083 96.2699 89.8041 96.4875 90.5416 96.4869C94.1531 96.4869 95.6826 91.6064 92.6216 89.5831L75.6576 78.3594C71.6084 75.6789 67.4557 81.9594 71.5045 84.6378L88.469 95.8615ZM73.5851 181.812C74.3225 181.813 75.0436 181.596 75.6576 181.187L92.6216 169.966C96.6724 167.287 92.5177 161.005 88.469 163.686L71.5045 174.909C68.4436 176.932 69.9735 181.813 73.5851 181.813V181.812ZM165.364 169.964L182.328 181.187C182.942 181.596 183.664 181.814 184.401 181.813C188.013 181.813 189.542 176.932 186.481 174.909L169.517 163.685C165.468 161.005 161.313 167.286 165.364 169.964Z" fill="black"/>
</g>
<defs>
<clipPath id="clip0_227_5003">
<rect width="257" height="257" fill="white"/>
</clipPath>
</defs>
</svg>
