<svg width="227" height="227" viewBox="0 0 227 227" fill="none" xmlns="http://www.w3.org/2000/svg">
<path fill-rule="evenodd" clip-rule="evenodd" d="M206.804 96.9077L200.178 64.9867C199.854 63.4261 198.404 62.3643 196.816 62.531L170.138 65.3259C169.947 65.1134 169.75 64.906 169.548 64.7039C166.504 61.6598 162.457 59.9834 158.152 59.9834C157.855 59.9834 157.559 59.9932 157.264 60.0091L127.743 24.246C127.119 19.154 124.837 14.4429 121.152 10.7577C112.138 1.7424 97.4677 1.7424 88.4533 10.7577C84.0858 15.1248 81.681 20.931 81.681 27.107C81.681 28.0274 81.7408 28.9381 81.8464 29.8381L44.7859 60.4294C38.5705 60.7145 32.4388 63.2239 27.7033 67.9595C22.8206 72.8417 20.1321 79.3325 20.1321 86.2369C20.1321 93.1414 22.8206 99.6326 27.7033 104.515C31.3805 108.193 35.9715 110.624 40.9642 111.601L66.1967 166.87C65.7887 167.141 65.4088 167.452 65.0625 167.799L55.9883 176.873C53.1348 179.726 53.1348 184.37 55.9883 187.223C59.8478 191.082 59.756 195.998 58.3833 199.312C57.0107 202.626 53.5995 206.167 48.1413 206.167C44.1058 206.167 40.8228 209.45 40.8228 213.485V219.901C40.8228 220.724 41.1497 221.513 41.7318 222.095C42.3138 222.677 43.1032 223.004 43.9263 223.004H77.2616C78.0847 223.004 78.8741 222.677 79.4561 222.095C80.0381 221.513 80.3651 220.724 80.3651 219.901C80.3651 204.613 92.8031 192.175 108.091 192.175C123.379 192.175 135.816 204.613 135.816 219.901C135.816 220.724 136.143 221.513 136.726 222.095C137.308 222.677 138.097 223.004 138.92 223.004H172.255C173.078 223.004 173.868 222.677 174.45 222.095C175.032 221.513 175.359 220.724 175.359 219.901V213.485C175.359 209.449 172.076 206.167 168.04 206.167C162.582 206.167 159.171 202.626 157.798 199.312C156.426 195.998 156.334 191.082 160.194 187.222C163.046 184.369 163.046 179.726 160.193 176.872L151.119 167.799C150.441 167.117 149.635 166.576 148.746 166.209C147.858 165.841 146.906 165.653 145.944 165.655C144.983 165.653 144.03 165.841 143.142 166.209C142.253 166.577 141.447 167.117 140.768 167.799C136.909 171.659 131.993 171.567 128.679 170.194C125.365 168.821 121.825 165.41 121.825 159.952C121.825 155.916 118.542 152.634 114.506 152.634H109.424L69.5986 96.7233C71.1337 93.2475 71.8859 89.4767 71.802 85.6779L101.295 49.9489C102.457 50.1258 103.629 50.218 104.802 50.218C106.826 50.218 108.849 49.948 110.816 49.4213L142.061 75.2119C142.044 75.5077 142.036 75.8038 142.035 76.1C142.035 80.405 143.711 84.452 146.755 87.4961C146.958 87.6991 147.166 87.8947 147.378 88.0853L144.583 114.763C144.502 115.528 144.709 116.296 145.163 116.917C145.617 117.538 146.285 117.969 147.038 118.125L178.959 124.752C179.463 124.856 179.985 124.834 180.479 124.686C180.972 124.539 181.42 124.271 181.784 123.907L185.408 120.284C185.759 119.933 186.022 119.502 186.172 119.028C186.322 118.553 186.357 118.05 186.272 117.56C186.187 117.07 185.985 116.607 185.684 116.211C185.383 115.815 184.991 115.498 184.542 115.285L163.698 105.412L167.256 89.399C168.076 88.8359 168.844 88.1988 169.548 87.4956C170.249 86.7923 170.885 86.0256 171.445 85.2052L187.463 81.646L197.337 102.49C197.55 102.939 197.867 103.331 198.263 103.632C198.659 103.932 199.122 104.134 199.612 104.219C200.102 104.304 200.605 104.269 201.079 104.119C201.553 103.969 201.984 103.707 202.335 103.355L205.959 99.7328C206.323 99.3691 206.591 98.9204 206.739 98.4272C206.886 97.9339 206.908 97.4117 206.804 96.9077ZM26.3382 86.2369C26.3382 80.9907 28.3812 76.0583 32.0912 72.3483C35.921 68.5185 40.9496 66.6045 45.9799 66.6045C51.0089 66.6045 56.0397 68.5194 59.8686 72.3483C67.5263 80.0064 67.5263 92.4675 59.8686 100.126C52.2104 107.784 39.7494 107.784 32.0912 100.126C28.3817 96.4156 26.3382 91.4832 26.3382 86.2369ZM115.618 159.951C115.618 167.076 119.712 173.197 126.305 175.928C132.895 178.658 140.12 177.225 145.158 172.187C145.441 171.904 145.772 171.862 145.944 171.862C146.116 171.862 146.447 171.904 146.73 172.187L155.804 181.26C156.012 181.469 156.129 181.752 156.129 182.047C156.13 182.341 156.013 182.624 155.804 182.833C150.767 187.87 149.333 195.095 152.063 201.687C154.794 208.278 160.916 212.373 168.039 212.373C168.334 212.373 168.616 212.491 168.825 212.699C169.033 212.907 169.15 213.19 169.151 213.484V216.797H141.882C140.31 199.535 125.754 185.968 108.09 185.968C90.4254 185.968 75.8699 199.535 74.2977 216.797H47.0289V213.484C47.0294 213.19 47.1466 212.907 47.355 212.699C47.5634 212.491 47.8458 212.373 48.1404 212.373C55.2643 212.373 61.3867 208.279 64.1169 201.687C66.8471 195.095 65.4141 187.87 60.3762 182.833C60.168 182.624 60.0511 182.342 60.0511 182.047C60.0511 181.752 60.168 181.469 60.3762 181.261L69.4505 172.187C69.7333 171.904 70.0641 171.862 70.2361 171.862C70.4081 171.862 70.7393 171.904 71.0217 172.187C76.0592 177.224 83.2828 178.657 89.8752 175.927C96.467 173.197 100.562 167.075 100.562 159.951C100.562 159.656 100.679 159.374 100.888 159.166C101.096 158.957 101.378 158.84 101.673 158.84H114.506C114.8 158.84 115.083 158.957 115.292 159.165C115.5 159.374 115.618 159.656 115.618 159.951ZM101.804 152.633H101.674C97.6388 152.633 94.3562 155.916 94.3562 159.951C94.3562 165.409 90.8155 168.821 87.5014 170.193C84.1873 171.566 79.2709 171.657 75.4123 167.798C74.6349 167.022 73.6918 166.431 72.6537 166.07L47.9702 112.002C54.124 111.536 59.8478 108.924 64.2574 104.514C64.9009 103.87 65.5102 103.192 66.0827 102.484L101.804 152.633ZM70.3647 77.6695C69.0867 74.0139 66.9989 70.6945 64.2574 67.9595C61.2089 64.9038 57.4396 62.6655 53.2976 61.4514L83.6304 36.4135C84.7867 39.0403 86.4222 41.4286 88.4533 43.4563C90.3169 45.3215 92.4871 46.8527 94.8692 47.983L70.3647 77.6695ZM92.8417 39.067C89.6473 35.8722 87.8876 31.6244 87.8876 27.1065C87.8876 22.5883 89.6473 18.3409 92.8417 15.146C96.1394 11.8483 100.471 10.1995 104.803 10.1995C109.134 10.1995 113.466 11.8483 116.764 15.146C119.958 18.3409 121.718 22.5883 121.718 27.1065C121.718 31.6244 119.958 35.8722 116.764 39.067C110.168 45.662 99.4371 45.662 92.8417 39.067ZM117.185 46.6285C118.62 45.7201 119.95 44.6561 121.152 43.4559C124.037 40.5705 126.06 37.0551 127.104 33.2218L150.698 61.8047C149.263 62.5553 147.934 63.5254 146.756 64.7034C145.578 65.8814 144.608 67.2106 143.857 68.6453L117.185 46.6285ZM158.803 109.961L174.839 117.557L151.049 112.618L153.266 91.4619C154.846 91.9625 156.494 92.2169 158.152 92.2161C158.879 92.2161 159.597 92.1642 160.305 92.0702L157.102 106.483C156.95 107.17 157.035 107.888 157.344 108.52C157.653 109.152 158.168 109.66 158.803 109.961ZM165.16 83.1068C164.242 84.0299 163.15 84.7618 161.947 85.2601C160.744 85.7583 159.454 86.013 158.152 86.0095C155.505 86.0095 153.017 84.9787 151.145 83.1068C149.273 81.235 148.242 78.7468 148.242 76.0995C148.242 73.4522 149.273 70.9641 151.145 69.0922H151.145C152.063 68.1691 153.155 67.4372 154.358 66.9389C155.561 66.4407 156.85 66.186 158.152 66.1896C159.454 66.186 160.744 66.4407 161.946 66.939C163.149 67.4372 164.241 68.1691 165.159 69.0922C169.023 72.9561 169.023 79.2429 165.16 83.1068ZM192.014 76.7508C191.713 76.1149 191.205 75.6001 190.573 75.291C189.941 74.982 189.222 74.897 188.535 75.0501L174.114 78.2547C174.43 75.8915 174.222 73.4876 173.503 71.2141L194.671 68.9965L199.609 92.7862L192.014 76.7508ZM108.091 200.04C97.1396 200.04 88.2298 208.95 88.2298 219.901C88.2298 220.724 88.5568 221.513 89.1388 222.095C89.7209 222.677 90.5103 223.004 91.3334 223.004H124.848C125.671 223.004 126.461 222.677 127.043 222.095C127.625 221.513 127.952 220.724 127.952 219.901C127.952 208.95 119.042 200.04 108.091 200.04ZM94.7929 216.797C96.2014 210.758 101.629 206.247 108.091 206.247C114.553 206.247 119.98 210.758 121.389 216.797H94.7929ZM113.589 18.32C111.242 15.9733 108.121 14.681 104.803 14.681C101.484 14.681 98.3633 15.9733 96.0166 18.32C93.6694 20.6672 92.3766 23.7876 92.3766 27.1065C92.3766 30.4255 93.6694 33.5459 96.0161 35.893C98.3633 38.2397 101.484 39.5321 104.803 39.5321C108.121 39.5321 111.242 38.2397 113.589 35.893C115.936 33.5463 117.229 30.4255 117.229 27.1065C117.229 23.7876 115.936 20.6672 113.589 18.32ZM109.2 31.5042C108.624 32.0835 107.939 32.5427 107.184 32.8553C106.429 33.1679 105.62 33.3278 104.803 33.3255C103.141 33.3255 101.579 32.6787 100.405 31.5042C99.2305 30.3298 98.5836 28.7678 98.5836 27.107C98.5836 25.4462 99.2305 23.8838 100.405 22.7093C100.981 22.13 101.667 21.6707 102.422 21.3581C103.176 21.0455 103.986 20.8857 104.803 20.888C106.463 20.888 108.026 21.5348 109.2 22.7093C110.375 23.8838 111.022 25.4457 111.022 27.107C111.022 28.7683 110.375 30.3293 109.2 31.5042ZM55.6642 95.9217C61.0045 90.5819 61.0045 81.8929 55.6642 76.5526C50.3248 71.2128 41.635 71.2128 36.2956 76.5526C30.9554 81.8925 30.9554 90.5814 36.2956 95.9217C38.9651 98.5916 42.4729 99.9265 45.9799 99.9265C49.4869 99.9265 52.9943 98.5916 55.6642 95.9217ZM38.4907 86.2369C38.4907 84.2365 39.2701 82.3562 40.684 80.9415C42.0983 79.5271 43.9795 78.7482 45.9795 78.7482C47.9795 78.7482 49.8606 79.5271 51.275 80.9415C52.6888 82.3558 53.4683 84.2365 53.4683 86.2369C53.4683 88.2374 52.6888 90.1177 51.275 91.5324C49.8606 92.9467 47.9795 93.7257 45.9795 93.7257C43.9795 93.7257 42.0983 92.9467 40.684 91.5324C39.9865 90.8386 39.4335 90.0133 39.0571 89.1043C38.6806 88.1954 38.4881 87.2208 38.4907 86.2369ZM160.347 73.9049C160.929 74.4871 161.256 75.2766 161.255 76.0998C161.255 76.923 160.928 77.7124 160.346 78.2944C159.764 78.8764 158.974 79.2033 158.151 79.2031C157.328 79.203 156.539 78.8759 155.957 78.2937C155.668 78.0054 155.44 77.6633 155.284 77.2867C155.128 76.9101 155.048 76.5064 155.048 76.0988C155.048 75.2756 155.375 74.4862 155.957 73.9042C156.539 73.3222 157.329 72.9953 158.152 72.9955C158.975 72.9956 159.765 73.3227 160.347 73.9049Z" fill="#FF9700"/>
</svg>
