<svg width="212" height="212" viewBox="0 0 212 212" fill="none" xmlns="http://www.w3.org/2000/svg">
<path d="M49.0232 162.977L49.0252 162.979C49.5461 163.503 50.1655 163.918 50.8476 164.202C51.5297 164.486 52.2612 164.632 53 164.632C53.7388 164.632 54.4702 164.486 55.1524 164.202C55.8345 163.918 56.4538 163.503 56.9747 162.979L56.9766 162.977C58.0312 161.922 58.6236 160.492 58.6236 159C58.6236 157.508 58.0312 156.078 56.9768 155.023C56.9767 155.023 56.9767 155.023 56.9766 155.023L48.4106 146.457L47.7035 145.75L48.4106 145.043L56.9766 136.477C56.9767 136.477 56.9767 136.477 56.9768 136.477C58.0312 135.422 58.6236 133.991 58.6236 132.5C58.6236 131.009 58.0313 129.578 56.9769 128.523C56.9768 128.523 56.9767 128.523 56.9766 128.523M49.0232 162.977L48.3161 127.816C49.5585 126.574 51.2433 125.876 53 125.876C54.7567 125.876 56.4415 126.574 57.6839 127.816L56.9766 128.523M49.0232 162.977L35.7733 149.727C35.7733 149.727 35.7733 149.727 35.7732 149.727C34.7188 148.672 34.1264 147.241 34.1264 145.75C34.1264 144.258 34.7188 142.828 35.7732 141.773C35.7733 141.773 35.7733 141.773 35.7733 141.773L49.0231 128.523M49.0232 162.977L49.0231 128.523M56.9766 128.523C55.9218 127.469 54.4914 126.876 53 126.876C51.5085 126.876 50.0781 127.469 49.0232 128.523L49.0231 128.523M56.9766 128.523L49.0231 128.523M83.4646 128.511L83.4706 128.517L83.4768 128.523L96.7266 141.773C96.7267 141.773 96.7267 141.773 96.7267 141.773C97.7812 142.828 98.3736 144.258 98.3736 145.75C98.3736 147.241 97.7812 148.672 96.7267 149.727C96.7267 149.727 96.7267 149.727 96.7266 149.727L83.4768 162.977L83.4706 162.983L83.4646 162.989C82.9457 163.526 82.325 163.955 81.6387 164.25C80.9524 164.545 80.2143 164.7 79.4675 164.706C78.7206 164.713 77.9799 164.57 77.2886 164.288C76.5973 164.005 75.9693 163.587 75.4411 163.059C74.913 162.531 74.4953 161.903 74.2125 161.211C73.9296 160.52 73.7873 159.779 73.7938 159.033C73.8003 158.286 73.9554 157.548 74.2502 156.861C74.5451 156.175 74.9736 155.554 75.5108 155.035L75.5171 155.029L75.5232 155.023L84.0893 146.457L84.7965 145.75L84.0893 145.043L75.5232 136.477L75.5171 136.471L75.5108 136.465C74.9736 135.946 74.5451 135.325 74.2502 134.639C73.9554 133.952 73.8003 133.214 73.7938 132.467C73.7873 131.721 73.9296 130.98 74.2125 130.289C74.4953 129.597 74.913 128.969 75.4411 128.441C75.9693 127.913 76.5973 127.495 77.2886 127.212C77.9799 126.93 78.7206 126.787 79.4675 126.794C80.2143 126.8 80.9524 126.955 81.6387 127.25C82.325 127.545 82.9457 127.974 83.4646 128.511ZM128.525 83.4788L128.523 83.4768L115.273 70.2269C115.273 70.2268 115.273 70.2268 115.273 70.2268C114.219 69.1719 113.626 67.7415 113.626 66.25C113.626 64.7585 114.219 63.3281 115.273 62.2732C115.273 62.2732 115.273 62.2731 115.273 62.2731L128.523 49.0232L128.529 49.0171L128.535 49.0108C129.054 48.4736 129.675 48.0451 130.361 47.7503C131.048 47.4555 131.786 47.3003 132.533 47.2938C133.279 47.2873 134.02 47.4296 134.711 47.7125C135.403 47.9953 136.031 48.413 136.559 48.9411C137.087 49.4693 137.505 50.0973 137.788 50.7886C138.07 51.4799 138.213 52.2206 138.206 52.9675C138.2 53.7143 138.045 54.4524 137.75 55.1387C137.455 55.825 137.026 56.4457 136.489 56.9646L136.483 56.9706L136.477 56.9768L127.911 65.5429L127.204 66.25L127.911 66.9571L136.477 75.5231C136.477 75.5231 136.477 75.5232 136.477 75.5232C137.531 76.5781 138.124 78.0085 138.124 79.5C138.124 80.9915 137.531 82.422 136.477 83.4769L136.475 83.4788C135.954 84.0027 135.335 84.4184 134.652 84.7021C133.97 84.9858 133.239 85.1318 132.5 85.1318C131.761 85.1318 131.03 84.9858 130.348 84.7021C129.665 84.4184 129.046 84.0027 128.525 83.4788ZM155.025 83.4788L155.023 83.4769C153.969 82.422 153.376 80.9915 153.376 79.5C153.376 78.0085 153.969 76.5781 155.023 75.5232C155.023 75.5232 155.023 75.5231 155.023 75.5231L163.589 66.9571L164.296 66.25L163.589 65.5429L155.023 56.9768L155.017 56.9706L155.011 56.9646C154.474 56.4457 154.045 55.825 153.75 55.1387C153.455 54.4524 153.3 53.7143 153.294 52.9675C153.287 52.2206 153.43 51.4799 153.712 50.7886C153.995 50.0973 154.413 49.4693 154.941 48.9411C155.469 48.413 156.097 47.9953 156.789 47.7125C157.48 47.4296 158.221 47.2873 158.967 47.2938C159.714 47.3003 160.452 47.4555 161.139 47.7503C161.825 48.0451 162.446 48.4736 162.965 49.0108L162.971 49.0171L162.977 49.0232L176.227 62.2731C176.227 62.2731 176.227 62.2732 176.227 62.2732C177.281 63.3281 177.874 64.7585 177.874 66.25C177.874 67.7415 177.281 69.1719 176.227 70.2268C176.227 70.2268 176.227 70.2268 176.227 70.2269L162.977 83.4768L162.975 83.4788C162.454 84.0027 161.835 84.4184 161.152 84.7021C160.47 84.9858 159.739 85.1318 159 85.1318C158.261 85.1318 157.53 84.9858 156.848 84.7021C156.165 84.4184 155.546 84.0027 155.025 83.4788Z" fill="#FF9700" stroke="white" stroke-width="2"/>
<path d="M92.75 54H93.75V53V19.875C93.75 18.3832 94.3426 16.9524 95.3975 15.8975C96.4524 14.8426 97.8832 14.25 99.375 14.25H192.125C193.617 14.25 195.048 14.8426 196.102 15.8975C197.157 16.9524 197.75 18.3832 197.75 19.875V112.625C197.75 114.117 197.157 115.548 196.102 116.602C195.048 117.657 193.617 118.25 192.125 118.25H159H158V119.25V152.375C158 153.867 157.407 155.298 156.352 156.352C155.298 157.407 153.867 158 152.375 158H119.25H118.25V159V192.125C118.25 193.617 117.657 195.048 116.602 196.102C115.548 197.157 114.117 197.75 112.625 197.75H19.875C18.3832 197.75 16.9524 197.157 15.8975 196.102C14.8426 195.048 14.25 193.617 14.25 192.125V99.375C14.25 97.8832 14.8426 96.4524 15.8975 95.3975C16.9524 94.3426 18.3832 93.75 19.875 93.75H53H54V92.75V59.625C54 58.1332 54.5926 56.7024 55.6475 55.6475C56.7024 54.5926 58.1332 54 59.625 54H92.75ZM66.25 65.25H65.25V66.25V92.75V93.75H66.25H92.75H93.75V92.75V66.25V65.25H92.75H66.25ZM25.5 185.5V186.5H26.5H106H107V185.5V119.25V118.25H106H99.375C97.8832 118.25 96.4524 117.657 95.3975 116.602C94.3426 115.548 93.75 114.117 93.75 112.625V106V105H92.75H26.5H25.5V106V185.5ZM145.75 146.75H146.75V145.75V119.25V118.25H145.75H119.25H118.25V119.25V145.75V146.75H119.25H145.75ZM185.5 107H186.5V106V26.5V25.5H185.5H106H105V26.5V92.75V93.75H106H112.625C114.117 93.75 115.548 94.3426 116.602 95.3975C117.657 96.4524 118.25 97.8832 118.25 99.375V106V107H119.25H185.5Z" fill="#FF9700" stroke="white" stroke-width="2"/>
</svg>
