<svg width="204" height="204" viewBox="0 0 204 204" fill="none" xmlns="http://www.w3.org/2000/svg">
<path d="M197.772 29.4832L176.855 4.84739C175.959 3.79273 174.652 3.1875 173.267 3.1875C171.882 3.1875 170.575 3.79273 169.679 4.84739L148.762 29.4832C147.561 30.8984 147.299 32.8233 148.078 34.5067C148.857 36.1901 150.494 37.236 152.35 37.236H158.905V118.454C158.905 121.887 161.698 124.68 165.131 124.68H181.403C184.836 124.68 187.629 121.887 187.629 118.454V37.2364H194.184C196.04 37.2364 197.678 36.1905 198.457 34.5063C199.236 32.8229 198.973 30.898 197.772 29.4832ZM184.442 30.8614C183.597 30.8614 182.786 31.1972 182.188 31.795C181.591 32.3927 181.255 33.2035 181.255 34.0489V118.306H165.28V34.0489C165.28 33.2035 164.944 32.3927 164.347 31.795C163.749 31.1972 162.938 30.8614 162.093 30.8614H155.955L173.267 10.4713L190.579 30.8614H184.442ZM45.0948 118.455V73.8926H51.6495C53.5058 73.8926 55.143 72.8467 55.9223 71.1625C56.7013 69.4787 56.4387 67.5539 55.237 66.1394L34.3202 41.5036C33.8786 40.983 33.3289 40.5648 32.7092 40.2782C32.0896 39.9915 31.415 39.8433 30.7323 39.8438C30.0496 39.8432 29.375 39.9914 28.7555 40.278C28.1359 40.5647 27.5863 40.9829 27.1448 41.5036L6.228 66.1394C5.02632 67.5543 4.76414 69.4791 5.54309 71.1629C6.32204 72.8467 7.95921 73.8926 9.81593 73.8926H16.3706V118.455C16.3706 121.888 19.1637 124.681 22.5966 124.681H38.8688C42.3017 124.681 45.0948 121.888 45.0948 118.455ZM32.0041 45.6299C32.0045 45.6299 32.0045 45.6299 32.0041 45.6299ZM38.7198 70.7051V118.306H22.7452V70.7051C22.7452 69.8597 22.4094 69.049 21.8116 68.4512C21.2139 67.8535 20.4031 67.5176 19.5577 67.5176H13.4206L30.7327 47.1276L48.0448 67.5176H41.9077C41.4891 67.5176 41.0745 67.6 40.6878 67.7601C40.301 67.9203 39.9496 68.1551 39.6535 68.4511C39.3575 68.7471 39.1227 69.0985 38.9625 69.4852C38.8022 69.872 38.7198 70.2865 38.7198 70.7051ZM159.757 130.376L151.913 127.357C150.771 123.171 149.102 119.146 146.948 115.379L150.362 107.693C150.623 107.105 150.7 106.451 150.582 105.817C150.465 105.184 150.158 104.601 149.703 104.146L138.867 93.3105C138.412 92.855 137.829 92.5481 137.196 92.4304C136.563 92.3127 135.908 92.3896 135.32 92.6511L127.631 96.0661C124.077 94.0366 120.295 92.4387 116.363 91.3063V55.5641H122.917C124.774 55.5641 126.411 54.5182 127.19 52.834C127.969 51.1502 127.706 49.2254 126.505 47.8109L105.588 23.1751C104.692 22.1209 103.385 21.5156 102 21.5156C100.615 21.5156 99.3078 22.1205 98.4121 23.1755L77.4953 47.8109C76.2936 49.2258 76.0311 51.151 76.81 52.8344C77.5894 54.5182 79.2261 55.5645 81.0829 55.5645H87.6375V91.3063C83.7053 92.4386 79.9225 94.0365 76.3693 96.0661L68.6803 92.6511C68.0916 92.3896 67.4375 92.3127 66.8042 92.4304C66.1708 92.5481 65.5881 92.855 65.1326 93.3105L54.2975 104.146C53.842 104.601 53.5352 105.184 53.4176 105.818C53.2999 106.451 53.3769 107.105 53.6385 107.694L57.0527 115.382C54.8989 119.148 53.2307 123.172 52.0878 127.357L44.2429 130.377C43.6417 130.608 43.1247 131.017 42.7601 131.548C42.3955 132.079 42.2004 132.708 42.2005 133.352V148.675C42.2005 149.319 42.3957 149.948 42.7603 150.479C43.1249 151.01 43.6418 151.418 44.2429 151.65L52.0866 154.669C53.2295 158.855 54.8979 162.88 57.0519 166.647L53.6385 174.333C53.3769 174.921 53.2999 175.576 53.4176 176.209C53.5352 176.842 53.842 177.425 54.2975 177.88L65.1326 188.716C65.5881 189.171 66.1708 189.478 66.8042 189.596C67.4375 189.713 68.0916 189.636 68.6803 189.375L76.3693 185.96C80.1352 188.114 84.1586 189.782 88.3436 190.924L91.3637 198.771C91.595 199.372 92.0031 199.889 92.5342 200.253C93.0652 200.618 93.6943 200.813 94.3385 200.813H109.662C110.306 200.813 110.935 200.618 111.466 200.253C111.997 199.889 112.405 199.372 112.636 198.771L115.656 190.926C119.842 189.784 123.867 188.115 127.634 185.961L135.32 189.375C135.908 189.636 136.563 189.713 137.196 189.596C137.829 189.478 138.412 189.171 138.867 188.716L149.703 177.88C150.158 177.425 150.465 176.842 150.583 176.209C150.7 175.576 150.623 174.921 150.362 174.333L146.947 166.644C149.101 162.878 150.769 158.854 151.912 154.669L159.757 151.649C160.358 151.418 160.875 151.01 161.24 150.479C161.605 149.948 161.8 149.319 161.8 148.675V133.351C161.8 132.707 161.604 132.078 161.24 131.547C160.875 131.016 160.358 130.608 159.757 130.376ZM84.6879 49.1895L102 28.7995L119.312 49.1895H113.175C112.329 49.1895 111.518 49.5253 110.921 50.1231C110.323 50.7209 109.987 51.5316 109.987 52.377V81.2382C109.879 81.2271 109.772 81.2131 109.661 81.2131H94.3385C94.2281 81.2131 94.1205 81.2271 94.0125 81.2382V52.377C94.0125 51.5316 93.6767 50.7209 93.0789 50.1231C92.4812 49.5253 91.6704 49.1895 90.825 49.1895H84.6879ZM155.425 146.486L148.086 149.31C147.603 149.496 147.172 149.797 146.831 150.187C146.49 150.577 146.25 151.044 146.13 151.547C145.019 156.216 143.169 160.677 140.651 164.761C140.38 165.202 140.22 165.703 140.185 166.219C140.15 166.736 140.242 167.253 140.452 167.726L143.647 174.919L135.907 182.66L128.717 179.466C128.244 179.256 127.727 179.164 127.21 179.199C126.693 179.234 126.193 179.394 125.752 179.665C121.666 182.184 117.204 184.034 112.534 185.145C112.03 185.265 111.563 185.505 111.174 185.846C110.784 186.187 110.483 186.618 110.297 187.101L107.473 194.438H96.5271L93.7022 187.099C93.5162 186.616 93.2153 186.185 92.8256 185.844C92.4359 185.503 91.969 185.263 91.4653 185.143C86.7969 184.032 82.3359 182.182 78.2508 179.664C77.8099 179.393 77.3096 179.233 76.793 179.198C76.2764 179.163 75.7592 179.255 75.286 179.465L68.093 182.66L60.3529 174.92L63.5464 167.73C63.7566 167.257 63.8483 166.739 63.8136 166.222C63.7789 165.706 63.6188 165.205 63.3472 164.764C60.8284 160.678 58.9786 156.216 57.8679 151.546C57.748 151.043 57.5073 150.576 57.1665 150.186C56.8257 149.796 56.3951 149.496 55.912 149.31L48.5751 146.486V135.54L55.9132 132.715C56.3964 132.529 56.827 132.228 57.1678 131.839C57.5086 131.449 57.7493 130.982 57.8691 130.478C58.98 125.81 60.8296 121.348 63.348 117.263C63.6195 116.822 63.7794 116.322 63.8141 115.805C63.8487 115.288 63.757 114.771 63.5468 114.298L60.3526 107.106L68.0926 99.3655L75.2856 102.56C75.7588 102.77 76.276 102.862 76.7926 102.827C77.3092 102.793 77.8095 102.633 78.2504 102.361C82.3353 99.8429 86.7962 97.9935 91.4645 96.8825C91.9682 96.7626 92.435 96.5218 92.8247 96.181C93.2145 95.8402 93.5153 95.4097 93.7014 94.9265L96.5267 87.5873H107.473L110.297 94.9261C110.483 95.4093 110.784 95.8399 111.174 96.1807C111.564 96.5215 112.031 96.7622 112.534 96.8821C117.203 97.9931 121.664 99.8426 125.749 102.361C126.19 102.632 126.69 102.792 127.207 102.827C127.723 102.861 128.24 102.77 128.714 102.56L135.907 99.3651L143.647 107.105L140.453 114.295C140.243 114.768 140.151 115.286 140.186 115.802C140.221 116.319 140.381 116.82 140.652 117.261C143.171 121.346 145.021 125.808 146.132 130.478C146.252 130.982 146.492 131.448 146.833 131.838C147.174 132.228 147.605 132.529 148.088 132.715L155.425 135.539V146.486ZM102 111.102C85.5071 111.102 72.0897 124.52 72.0897 141.013C72.0897 157.506 85.5075 170.924 102 170.924C118.493 170.924 131.911 157.506 131.911 141.013C131.911 124.52 118.493 111.102 102 111.102ZM102 164.548C89.0225 164.548 78.4647 153.99 78.4647 141.013C78.4647 128.035 89.0229 117.477 102 117.477C114.978 117.477 125.536 128.035 125.536 141.013C125.536 153.99 114.978 164.548 102 164.548Z" fill="black"/>
</svg>
