<svg width="42" height="41" viewBox="0 0 42 41" fill="none" xmlns="http://www.w3.org/2000/svg">
<circle cx="20.9837" cy="20.0492" r="19.6706" fill="#EFEFEF" stroke="white" stroke-width="0.756563"/>
<g clip-path="url(#clip0_88_821)">
<path d="M28.0598 15.8851C27.4896 16.1352 26.8821 16.301 26.2487 16.3815C26.9003 15.9924 27.3976 15.3811 27.6314 14.6442C27.0239 15.0064 26.3532 15.2623 25.6383 15.405C25.0615 14.7908 24.2393 14.4104 23.3424 14.4104C21.6023 14.4104 20.2014 15.8228 20.2014 17.5543C20.2014 17.8035 20.2225 18.043 20.2742 18.2711C17.6612 18.1436 15.349 16.8912 13.7957 14.9834C13.5245 15.4539 13.3654 15.9924 13.3654 16.5721C13.3654 17.6607 13.926 18.6256 14.7616 19.1843C14.2566 19.1747 13.7612 19.0281 13.3415 18.7971C13.3415 18.8067 13.3415 18.8192 13.3415 18.8316C13.3415 20.359 14.431 21.6277 15.8597 21.92C15.6039 21.9899 15.325 22.0235 15.0356 22.0235C14.8344 22.0235 14.6313 22.012 14.4406 21.9698C14.8478 23.2145 16.0034 24.1296 17.3775 24.1593C16.3081 24.9959 14.9503 25.4999 13.4804 25.4999C13.2227 25.4999 12.9755 25.4884 12.7282 25.4568C14.1205 26.3546 15.7706 26.8673 17.55 26.8673C23.3338 26.8673 26.4959 22.0762 26.4959 17.9232C26.4959 17.7843 26.4911 17.6501 26.4844 17.517C27.1082 17.0743 27.6324 16.5214 28.0598 15.8851Z" fill="#FF9700"/>
</g>
<defs>
<clipPath id="clip0_88_821">
<rect width="15.3315" height="15.3315" fill="white" transform="translate(12.7283 12.9729)"/>
</clipPath>
</defs>
</svg>
