<svg width="227" height="66" viewBox="0 0 227 66" fill="none" xmlns="http://www.w3.org/2000/svg">
<path d="M104.93 38.01H112.916V41.011H100.81V38.2644L108.745 26.2606H100.81V23.2597H112.916V26.0063L104.93 38.01ZM139.674 23.2597L134.715 41.011H130.519L127.187 28.3714L123.703 41.011L119.532 41.0364L114.751 23.2597H118.566L121.694 37.0436L125.305 23.2597H129.273L132.68 36.9673L135.834 23.2597H139.674ZM145.559 26.1334V30.584H151.536V33.4069H145.559V38.1118H152.299V41.011H141.999V23.2342H152.299V26.1334H145.559ZM159.095 23.2597V41.011H155.534V23.2597H159.095ZM168.818 23.2597C170.683 23.2597 172.319 23.6242 173.726 24.3532C175.15 25.0823 176.244 26.125 177.007 27.4813C177.787 28.8207 178.177 30.3805 178.177 32.1608C178.177 33.941 177.787 35.5008 177.007 36.8402C176.244 38.1626 175.15 39.1884 173.726 39.9174C172.319 40.6465 170.683 41.011 168.818 41.011H162.613V23.2597H168.818ZM168.691 37.9846C170.556 37.9846 171.997 37.476 173.014 36.4587C174.031 35.4414 174.54 34.0088 174.54 32.1608C174.54 30.3127 174.031 28.8716 173.014 27.8374C171.997 26.7862 170.556 26.2606 168.691 26.2606H166.173V37.9846H168.691ZM184.402 26.1334V30.584H190.379V33.4069H184.402V38.1118H191.142V41.011H180.842V23.2342H191.142V26.1334H184.402ZM210.323 23.2597L203.812 41.011H199.489L192.979 23.2597H196.793L201.676 37.3743L206.534 23.2597H210.323ZM218.587 41.189C217.349 41.189 216.23 40.9771 215.23 40.5532C214.246 40.1294 213.466 39.519 212.89 38.7221C212.314 37.9253 212.017 36.9843 212 35.8992H215.815C215.866 36.6283 216.12 37.2047 216.578 37.6286C217.052 38.0524 217.697 38.2644 218.51 38.2644C219.341 38.2644 219.994 38.0694 220.469 37.6794C220.943 37.2725 221.181 36.7469 221.181 36.1027C221.181 35.5771 221.02 35.1447 220.698 34.8057C220.375 34.4666 219.968 34.2038 219.477 34.0173C219.002 33.8138 218.341 33.5934 217.493 33.356C216.34 33.017 215.399 32.6863 214.67 32.3642C213.958 32.0251 213.339 31.525 212.814 30.8637C212.305 30.1856 212.051 29.287 212.051 28.168C212.051 27.1168 212.314 26.2013 212.839 25.4214C213.365 24.6415 214.102 24.048 215.052 23.6411C216.001 23.2173 217.086 23.0053 218.307 23.0053C220.138 23.0053 221.622 23.4546 222.758 24.3532C223.91 25.2349 224.546 26.4725 224.665 28.0663H220.748C220.714 27.4559 220.452 26.9557 219.96 26.5658C219.485 26.1589 218.849 25.9554 218.053 25.9554C217.358 25.9554 216.798 26.1334 216.374 26.4895C215.967 26.8455 215.764 27.3626 215.764 28.0408C215.764 28.5155 215.916 28.914 216.222 29.2361C216.544 29.5413 216.934 29.7956 217.391 29.9991C217.866 30.1856 218.527 30.406 219.375 30.6603C220.528 30.9994 221.469 31.3385 222.198 31.6776C222.927 32.0166 223.554 32.5253 224.08 33.2035C224.606 33.8816 224.868 34.7717 224.868 35.8738C224.868 36.8232 224.622 37.7049 224.131 38.5187C223.639 39.3325 222.919 39.9852 221.969 40.4769C221.02 40.9516 219.892 41.189 218.587 41.189Z" fill="white"/>
<path fill-rule="evenodd" clip-rule="evenodd" d="M70.7777 39.6713L67.2736 38.8832C67.7407 36.8049 67.9778 34.6605 67.9778 32.5096C67.9778 24.7854 64.9698 17.5233 59.5078 12.0615C54.0461 6.5998 46.784 3.59157 39.0597 3.59157C34.3343 3.59157 29.6465 4.75617 25.5034 6.95918C21.4901 9.09325 17.9859 12.1925 15.3697 15.9213L12.4294 13.8586C15.3689 9.66887 19.3067 6.18654 23.8172 3.78802C28.4774 1.30983 33.7483 0 39.0597 0C43.4479 0 47.7055 0.859844 51.7146 2.55542C55.5861 4.19299 59.0626 6.5367 62.0474 9.52195C65.0327 12.5068 67.3764 15.9833 69.014 19.8548C70.7097 23.8639 71.5694 28.1217 71.5694 32.5096C71.5694 34.9251 71.303 37.3347 70.7777 39.6713Z" fill="white"/>
<path fill-rule="evenodd" clip-rule="evenodd" d="M39.0597 65.0193C34.6718 65.0193 30.4142 64.1594 26.4051 62.4637C22.5336 60.8261 19.0571 58.4824 16.0721 55.4973C13.087 52.5125 10.7433 49.036 9.10572 45.1643C7.41014 41.1554 6.55029 36.8976 6.55029 32.5097C6.55029 29.9798 6.84224 27.4595 7.41805 25.0186L10.9137 25.8432C10.4016 28.0142 10.1419 30.2571 10.1419 32.5097C10.1419 40.2339 13.1499 47.4958 18.6117 52.9577C24.0738 58.4195 31.3357 61.4275 39.0597 61.4275C43.7402 61.4275 48.3877 60.2842 52.5006 58.1211C56.4838 56.0262 59.9759 52.9794 62.5997 49.31L65.5213 51.3991C62.5733 55.5218 58.6489 58.9458 54.1725 61.3C49.5463 63.7332 44.3205 65.0193 39.0597 65.0193Z" fill="white"/>
<path fill-rule="evenodd" clip-rule="evenodd" d="M0 17V22.9121H41.1469L24.286 42.5322V47.6564H79.97V41.7439H32.9572L49.8182 22.1238V17H0Z" fill="#FF9700"/>
</svg>
