<svg width="368" height="368" viewBox="0 0 368 368" fill="none" xmlns="http://www.w3.org/2000/svg">
<path d="M291.523 141.444L291.522 141.444L222.524 106.944L291.523 141.444ZM291.523 141.444C293.019 142.192 294.277 143.341 295.156 144.764C296.036 146.187 296.501 147.826 296.5 149.499V149.5V230V230.001C296.501 231.674 296.036 233.313 295.156 234.736C294.277 236.159 293.019 237.309 291.523 238.056L291.522 238.057L222.523 272.556C222.523 272.556 222.523 272.556 222.522 272.557C221.273 273.181 219.896 273.505 218.5 273.505C217.104 273.505 215.727 273.181 214.478 272.557C214.477 272.556 214.477 272.556 214.477 272.556L145.478 238.057L145.477 238.056C143.981 237.309 142.723 236.159 141.844 234.736C140.964 233.313 140.499 231.674 140.5 230.001V230L140.5 149.5L140.5 149.499C140.499 147.826 140.964 146.187 141.844 144.764C142.723 143.341 143.981 142.192 145.477 141.444L145.478 141.444M291.523 141.444L145.478 141.444M145.478 141.444L214.476 106.944L145.478 141.444ZM219.618 125.621L218.5 125.062L217.382 125.621L174.096 147.264L169.624 149.5L174.096 151.736L217.382 173.379L218.5 173.938L219.618 173.379L262.904 151.736L267.376 149.5L262.904 147.264L219.618 125.621ZM162.118 165.871L158.5 164.062V168.107V222.893V224.438L159.882 225.129L205.882 248.129L209.5 249.938V245.893V191.107V189.562L208.118 188.871L162.118 165.871ZM227.5 245.893V249.938L231.118 248.129L277.118 225.129L278.5 224.438V222.893V168.107V164.062L274.882 165.871L228.882 188.871L227.5 189.562V191.107V245.893ZM218.5 105.996C219.896 105.996 221.273 106.32 222.522 106.944H214.478C215.727 106.32 217.104 105.996 218.5 105.996Z" fill="#FF9700" stroke="white" stroke-width="5"/>
<path d="M227.385 58.075V60.3606L229.661 60.565C292.822 66.2351 342.5 119.402 342.5 184C342.5 248.586 292.822 301.765 229.661 307.435L227.385 307.639V309.925C227.385 310.219 227.428 310.462 227.467 310.628C227.477 310.674 227.488 310.718 227.499 310.758C227.36 328.28 213.054 342.5 195.5 342.5H57.5C39.8597 342.5 25.5 328.14 25.5 310.5V57.5C25.5 39.8597 39.8597 25.5 57.5 25.5H195.5C213.054 25.5 227.36 39.7199 227.499 57.242C227.488 57.2822 227.477 57.3263 227.467 57.3717C227.428 57.538 227.385 57.7814 227.385 58.075ZM106 46V43.5H103.5H57.5C49.7844 43.5 43.5 49.7697 43.5 57.5V310.5C43.5 318.23 49.7844 324.5 57.5 324.5H195.5C199.213 324.5 202.774 323.025 205.4 320.4C207.961 317.838 209.427 314.386 209.497 310.772C209.509 310.728 209.522 310.679 209.533 310.628C209.572 310.462 209.615 310.219 209.615 309.925V307.639L207.339 307.435C144.178 301.765 94.5 248.586 94.5 184C94.5 119.414 144.178 66.2351 207.339 60.565L209.615 60.3606V58.075C209.615 57.7814 209.572 57.538 209.533 57.3717C209.522 57.3211 209.509 57.2722 209.497 57.2285C209.427 53.6138 207.961 50.162 205.4 47.6005C202.774 44.975 199.213 43.5 195.5 43.5H149.5H147V46C147 57.3038 137.804 66.5 126.5 66.5C115.196 66.5 106 57.3038 106 46ZM112.5 184C112.5 242.455 160.056 290 218.5 290C276.955 290 324.5 242.455 324.5 184C324.5 125.545 276.955 78 218.5 78C160.056 78 112.5 125.545 112.5 184Z" fill="#FF9700" stroke="white" stroke-width="5"/>
</svg>
