<svg width="341" height="341" viewBox="0 0 341 341" fill="none" xmlns="http://www.w3.org/2000/svg">
<path d="M292.379 71.0417H227.333V36.3165C227.333 24.1257 217.416 14.2083 205.225 14.2083H50.5248C38.3341 14.2083 28.4167 24.1257 28.4167 36.3165V304.684C28.4167 316.874 38.3341 326.792 50.5248 326.792H205.225C217.416 326.792 227.333 316.874 227.333 304.684V269.958H292.379C303.518 269.958 312.583 260.893 312.583 249.754V91.2459C312.583 80.1066 303.518 71.0417 292.379 71.0417ZM298.375 91.2459V99.4583H227.731C226.794 99.4655 225.874 99.208 225.078 98.7153C224.281 98.2226 223.639 97.5148 223.227 96.6735L217.515 85.25H292.379C295.69 85.25 298.375 87.9354 298.375 91.2459ZM166.11 28.4167L159.005 42.625H96.7445L89.6404 28.4167H166.11ZM205.225 312.583H50.5248C48.4308 312.58 46.4236 311.746 44.9429 310.265C43.4623 308.785 42.6287 306.778 42.625 304.684V298.375H213.125V304.684C213.121 306.778 212.288 308.785 210.807 310.265C209.326 311.746 207.319 312.58 205.225 312.583ZM213.125 284.167H42.625V36.3165C42.625 31.9687 46.1771 28.4167 50.5248 28.4167H73.7554L86.003 52.9118C86.5936 54.0904 87.5004 55.0813 88.6221 55.7739C89.7437 56.4665 91.0359 56.8333 92.3542 56.8333H163.396C164.714 56.8333 166.006 56.4665 167.128 55.7739C168.25 55.0813 169.156 54.0904 169.747 52.9118L181.995 28.4167H205.225C209.587 28.4167 213.125 31.9687 213.125 36.3165V71.0417H119.663C108.523 71.0417 99.4583 80.1066 99.4583 91.2459V249.754C99.4583 260.893 108.523 269.958 119.663 269.958H213.125V284.167ZM292.379 255.75H119.663C118.875 255.75 118.095 255.595 117.368 255.294C116.641 254.992 115.98 254.551 115.423 253.994C114.866 253.437 114.424 252.776 114.123 252.049C113.822 251.321 113.667 250.541 113.667 249.754V91.2459C113.667 87.9354 116.352 85.25 119.663 85.25H201.63L210.511 103.01C213.793 109.589 220.4 113.667 227.731 113.667H298.375V249.754C298.375 250.541 298.22 251.321 297.919 252.049C297.617 252.776 297.176 253.437 296.619 253.994C296.062 254.551 295.401 254.992 294.674 255.294C293.946 255.595 293.166 255.75 292.379 255.75Z" fill="black"/>
<path d="M144.158 168.426C146.914 171.182 151.447 171.182 154.203 168.426C156.959 165.669 156.959 161.137 154.203 158.38L145.024 149.188L154.203 140.009C155.497 138.669 156.213 136.875 156.197 135.012C156.181 133.149 155.434 131.367 154.117 130.05C152.799 128.733 151.018 127.986 149.155 127.97C147.292 127.953 145.498 128.67 144.158 129.964L129.949 144.172C128.618 145.504 127.869 147.311 127.869 149.195C127.869 151.078 128.618 152.885 129.949 154.217L144.158 168.426ZM174.421 169.747C176.109 170.582 178.058 170.716 179.844 170.12C181.63 169.524 183.108 168.246 183.955 166.564L198.164 138.148C199.911 134.667 198.476 130.361 194.981 128.614C191.486 126.866 187.195 128.301 185.447 131.797L171.239 160.213C170.407 161.901 170.275 163.849 170.871 165.634C171.467 167.419 172.743 168.897 174.421 169.747ZM215.199 168.426C216.535 169.75 218.341 170.494 220.222 170.494C222.104 170.494 223.909 169.75 225.245 168.426L239.453 154.217C240.785 152.885 241.533 151.078 241.533 149.195C241.533 147.311 240.785 145.504 239.453 144.172L225.245 129.964C223.905 128.67 222.11 127.953 220.248 127.97C218.385 127.986 216.603 128.733 215.286 130.05C213.969 131.367 213.222 133.149 213.205 135.012C213.189 136.875 213.905 138.669 215.199 140.009L224.378 149.188L215.199 158.366C213.88 159.708 213.141 161.514 213.141 163.396C213.141 165.277 213.88 167.084 215.199 168.426ZM134.979 213.125H206.021C207.905 213.125 209.712 212.377 211.044 211.044C212.377 209.712 213.125 207.905 213.125 206.021C213.125 204.137 212.377 202.33 211.044 200.997C209.712 199.665 207.905 198.917 206.021 198.917H134.979C133.095 198.917 131.288 199.665 129.956 200.997C128.623 202.33 127.875 204.137 127.875 206.021C127.875 207.905 128.623 209.712 129.956 211.044C131.288 212.377 133.095 213.125 134.979 213.125ZM262.854 227.333H134.979C133.095 227.333 131.288 228.082 129.956 229.414C128.623 230.746 127.875 232.553 127.875 234.438C127.875 236.322 128.623 238.129 129.956 239.461C131.288 240.793 133.095 241.542 134.979 241.542H262.854C264.738 241.542 266.545 240.793 267.878 239.461C269.21 238.129 269.958 236.322 269.958 234.438C269.958 232.553 269.21 230.746 267.878 229.414C266.545 228.082 264.738 227.333 262.854 227.333Z" fill="black"/>
<path d="M177.604 113.667C181.528 113.667 184.708 110.486 184.708 106.562C184.708 102.639 181.528 99.4583 177.604 99.4583C173.681 99.4583 170.5 102.639 170.5 106.562C170.5 110.486 173.681 113.667 177.604 113.667Z" fill="black"/>
<path d="M149.187 113.667C153.111 113.667 156.292 110.486 156.292 106.562C156.292 102.639 153.111 99.4583 149.187 99.4583C145.264 99.4583 142.083 102.639 142.083 106.562C142.083 110.486 145.264 113.667 149.187 113.667Z" fill="black"/>
</svg>
