<svg width="41" height="42" viewBox="0 0 41 42" fill="none" xmlns="http://www.w3.org/2000/svg">
<path d="M20.1919 41.9986H7.97207C7.01751 41.9992 6.07481 41.787 5.21259 41.3774C4.35038 40.9678 3.59034 40.3711 2.9878 39.6308C-3.81848 31.2536 2.05382 21.8071 10.0969 21.8071H20.1919V41.9986Z" fill="#AF83C8"/>
<path d="M9.84473 41.9969C1.16883 41.7835 -4.82739 30.5724 5.30201 21.8071H20.1916V31.8068C20.1916 37.4969 15.5324 42.1373 9.84473 41.9969Z" fill="#7CB75E"/>
<path d="M20.1919 20.1915H7.97207C7.01745 20.192 6.07473 19.9797 5.21252 19.5699C4.3503 19.1602 3.59029 18.5634 2.9878 17.8229C-3.81848 9.44656 2.05382 0 10.0969 0H20.1919V20.1915Z" fill="#EC4D6B"/>
<path d="M20.1914 0H30.2863C38.3294 0 44.2009 9.44656 37.3946 17.8229C36.7921 18.5634 36.0321 19.1602 35.1699 19.5699C34.3077 19.9797 33.365 20.192 32.4104 20.1915H20.1914V0Z" fill="#F07118"/>
<path d="M30.1505 41.4183C24.6467 41.4183 20.168 37.0192 20.168 31.6131C20.168 26.207 24.6467 21.8071 30.1505 21.8071C35.6542 21.8071 40.1338 26.2078 40.1338 31.6131C40.1338 37.0184 35.6551 41.4183 30.1505 41.4183Z" fill="#49BEF2"/>
</svg>
