<svg width="81" height="81" viewBox="0 0 81 81" fill="none" xmlns="http://www.w3.org/2000/svg">
<g opacity="0.7" clip-path="url(#clip0_72_832)">
<path d="M75.0834 28.8816C74.9078 24.7008 73.1287 20.7484 70.1155 17.8448C67.1024 14.9413 63.0868 13.3098 58.9024 13.2891C57.9579 13.2918 57.0155 13.3786 56.0864 13.5485C54.5547 9.35726 51.7077 5.77429 47.9709 3.33526C44.2341 0.896218 39.8082 -0.267877 35.3549 0.0169949C30.9017 0.301867 26.6602 2.0204 23.2646 4.9157C19.8691 7.81099 17.5018 11.7275 16.5166 16.0798H15.8458C13.7542 16.0905 11.6851 16.5132 9.75673 17.3236C7.82839 18.1341 6.07856 19.3164 4.60715 20.8031C3.13574 22.2897 1.97157 24.0517 1.18111 25.9883C0.390653 27.9249 -0.0106177 29.9982 0.000213559 32.0899C0.000213559 41.3606 5.85373 48.0938 13.9221 48.0938H24.0471C24.3828 48.0938 24.7047 47.9604 24.942 47.7231C25.1794 47.4857 25.3127 47.1638 25.3127 46.8281C25.3127 46.4925 25.1794 46.1705 24.942 45.9332C24.7047 45.6958 24.3828 45.5625 24.0471 45.5625H13.9221C7.21428 45.5625 2.53146 40.0191 2.53146 32.0899C2.51796 28.5467 3.90869 25.1425 6.39927 22.6222C8.88984 20.102 12.2774 18.6711 15.8205 18.6427C16.3366 18.6457 16.8521 18.6774 17.3646 18.7376C17.6865 18.7822 18.0132 18.7013 18.2771 18.5117C18.541 18.322 18.7218 18.0381 18.7821 17.7188C19.4546 13.6802 21.4733 9.98789 24.51 7.24195C27.5468 4.49601 31.423 2.85791 35.5086 2.59395C39.5943 2.32998 43.6491 3.45566 47.0139 5.788C50.3787 8.12035 52.8558 11.5222 54.0424 15.4406C54.1379 15.7505 54.3488 16.0118 54.6313 16.1708C54.9139 16.3297 55.2468 16.3742 55.5612 16.2949C56.6506 15.9972 57.7732 15.8378 58.9024 15.8203C62.5367 15.8387 66.0154 17.2971 68.5764 19.8758C71.1373 22.4546 72.5716 25.9434 72.5648 29.5777C72.5648 29.5777 72.5648 29.6979 72.5648 29.7295C72.5601 29.9947 72.6388 30.2546 72.7899 30.4727C72.9409 30.6907 73.1566 30.8557 73.4065 30.9445C74.8852 31.4505 76.1685 32.4067 77.0764 33.6788C77.9843 34.951 78.4712 36.4755 78.469 38.0384C78.469 41.6897 76.0263 45.5625 71.508 45.5625H56.9533C56.6177 45.5625 56.2958 45.6958 56.0584 45.9332C55.8211 46.1705 55.6877 46.4925 55.6877 46.8281C55.6877 47.1638 55.8211 47.4857 56.0584 47.7231C56.2958 47.9604 56.6177 48.0938 56.9533 48.0938H71.508C77.4501 48.0938 81.0002 42.9806 81.0002 38.0384C81.0019 36.1041 80.4443 34.2105 79.3945 32.5859C78.3447 30.9613 76.8476 29.6748 75.0834 28.8816Z" fill="#FFB100"/>
<path d="M41.7663 68.4703V51.7261C42.9593 51.4181 43.9991 50.6855 44.6906 49.6657C45.3822 48.6458 45.6781 47.4088 45.5228 46.1865C45.3676 44.9641 44.7718 43.8403 43.8473 43.0258C42.9227 42.2112 41.7328 41.7619 40.5007 41.7619C39.2685 41.7619 38.0786 42.2112 37.1541 43.0258C36.2295 43.8403 35.6338 44.9641 35.4785 46.1865C35.3233 47.4088 35.6191 48.6458 36.3107 49.6657C37.0022 50.6855 38.042 51.4181 39.235 51.7261V68.4703C37.6985 68.784 36.3332 69.657 35.4037 70.9201C34.4743 72.1831 34.047 73.7464 34.2046 75.3066C34.3622 76.8669 35.0935 78.313 36.2568 79.3647C37.4201 80.4164 38.9325 80.9987 40.5007 80.9987C42.0689 80.9987 43.5812 80.4164 44.7445 79.3647C45.9078 78.313 46.6391 76.8669 46.7967 75.3066C46.9544 73.7464 46.527 72.1831 45.5976 70.9201C44.6681 69.657 43.3028 68.784 41.7663 68.4703ZM37.9694 46.8281C37.9694 46.3275 38.1179 45.8381 38.396 45.4218C38.6741 45.0056 39.0695 44.6811 39.532 44.4896C39.9945 44.298 40.5035 44.2479 40.9945 44.3455C41.4855 44.4432 41.9365 44.6843 42.2905 45.0383C42.6445 45.3923 42.8856 45.8433 42.9833 46.3343C43.0809 46.8253 43.0308 47.3343 42.8392 47.7968C42.6476 48.2593 42.3232 48.6547 41.9069 48.9328C41.4907 49.2109 41.0013 49.3594 40.5007 49.3594C39.8293 49.3594 39.1855 49.0927 38.7108 48.618C38.2361 48.1433 37.9694 47.4995 37.9694 46.8281ZM40.5007 78.4688C39.7497 78.4688 39.0156 78.2461 38.3912 77.8289C37.7668 77.4117 37.2802 76.8187 36.9928 76.1249C36.7054 75.4311 36.6302 74.6677 36.7767 73.9311C36.9232 73.1946 37.2849 72.5181 37.8159 71.9871C38.3469 71.4561 39.0234 71.0945 39.7599 70.948C40.4964 70.8015 41.2599 70.8767 41.9537 71.164C42.6474 71.4514 43.2404 71.9381 43.6576 72.5625C44.0749 73.1868 44.2975 73.9209 44.2975 74.6719C44.2975 75.6789 43.8975 76.6446 43.1855 77.3567C42.4734 78.0687 41.5077 78.4688 40.5007 78.4688ZM34.1725 35.4375C34.1732 34.4905 33.9083 33.5623 33.4078 32.7583C32.9073 31.9543 32.1914 31.3069 31.3413 30.8895C30.4912 30.4721 29.5411 30.3015 28.5989 30.3971C27.6568 30.4927 26.7603 30.8507 26.0114 31.4303C25.2625 32.01 24.6912 32.7881 24.3624 33.6762C24.0336 34.5643 23.9606 35.5268 24.1515 36.4544C24.3424 37.382 24.7897 38.2374 25.4425 38.9234C26.0953 39.6095 26.9275 40.0987 27.8444 40.3355V65.8125H20.1241C19.8105 64.276 18.9375 62.9107 17.6744 61.9812C16.4113 61.0518 14.8481 60.6244 13.2878 60.7821C11.7275 60.9397 10.2814 61.671 9.22968 62.8343C8.17799 63.9976 7.5957 65.5099 7.5957 67.0781C7.5957 68.6463 8.17799 70.1587 9.22968 71.322C10.2814 72.4852 11.7275 73.2166 13.2878 73.3742C14.8481 73.5318 16.4113 73.1045 17.6744 72.1751C18.9375 71.2456 19.8105 69.8803 20.1241 68.3438H29.11C29.4457 68.3438 29.7676 68.2104 30.005 67.9731C30.2423 67.7357 30.3757 67.4138 30.3757 67.0781V40.3355C31.4617 40.0551 32.4239 39.4219 33.1111 38.5354C33.7984 37.6488 34.1717 36.5592 34.1725 35.4375ZM13.9225 70.875C13.1716 70.875 12.4375 70.6523 11.8131 70.2351C11.1887 69.8179 10.7021 69.2249 10.4147 68.5311C10.1273 67.8373 10.0521 67.0739 10.1986 66.3374C10.3451 65.6009 10.7067 64.9243 11.2377 64.3933C11.7687 63.8623 12.4453 63.5007 13.1818 63.3542C13.9183 63.2077 14.6817 63.2829 15.3755 63.5703C16.0693 63.8577 16.6623 64.3443 17.0795 64.9687C17.4967 65.5931 17.7194 66.3272 17.7194 67.0781C17.7194 68.0851 17.3194 69.0509 16.6073 69.7629C15.8953 70.475 14.9295 70.875 13.9225 70.875ZM29.11 37.9688C28.6094 37.9688 28.12 37.8203 27.7037 37.5422C27.2875 37.264 26.9631 36.8687 26.7715 36.4062C26.5799 35.9437 26.5298 35.4347 26.6274 34.9437C26.7251 34.4527 26.9662 34.0016 27.3202 33.6476C27.6742 33.2936 28.1252 33.0526 28.6162 32.9549C29.1072 32.8572 29.6162 32.9074 30.0787 33.0989C30.5412 33.2905 30.9366 33.615 31.2147 34.0312C31.4928 34.4475 31.6413 34.9369 31.6413 35.4375C31.6413 36.1088 31.3746 36.7527 30.8999 37.2274C30.4252 37.7021 29.7814 37.9688 29.11 37.9688ZM67.0788 60.75C65.62 60.7497 64.2058 61.2535 63.0757 62.176C61.9456 63.0985 61.169 64.3832 60.8772 65.8125H53.1569V40.3355C54.35 40.0274 55.3897 39.2948 56.0813 38.275C56.7728 37.2552 57.0687 36.0182 56.9134 34.7958C56.7582 33.5735 56.1624 32.4497 55.2379 31.6352C54.3133 30.8206 53.1235 30.3712 51.8913 30.3712C50.6591 30.3712 49.4692 30.8206 48.5447 31.6352C47.6201 32.4497 47.0244 33.5735 46.8691 34.7958C46.7139 36.0182 47.0098 37.2552 47.7013 38.275C48.3929 39.2948 49.4326 40.0274 50.6257 40.3355V67.0781C50.6257 67.4138 50.759 67.7357 50.9964 67.9731C51.2337 68.2104 51.5556 68.3438 51.8913 68.3438H60.8772C61.1167 69.5169 61.6841 70.598 62.5134 71.4616C63.3428 72.3251 64.4001 72.9356 65.5626 73.2223C66.7252 73.5089 67.9451 73.4598 69.0808 73.0808C70.2166 72.7017 71.2215 72.0083 71.9788 71.0809C72.7362 70.1535 73.2149 69.0303 73.3594 67.8418C73.5039 66.6532 73.3082 65.448 72.7951 64.3662C72.282 63.2844 71.4725 62.3704 70.4606 61.7303C69.4488 61.0902 68.2761 60.7503 67.0788 60.75ZM49.36 35.4375C49.36 34.9369 49.5085 34.4475 49.7866 34.0312C50.0648 33.615 50.4601 33.2905 50.9226 33.0989C51.3851 32.9074 51.8941 32.8572 52.3851 32.9549C52.8761 33.0526 53.3271 33.2936 53.6812 33.6476C54.0352 34.0016 54.2762 34.4527 54.3739 34.9437C54.4716 35.4347 54.4214 35.9437 54.2299 36.4062C54.0383 36.8687 53.7138 37.264 53.2976 37.5422C52.8813 37.8203 52.3919 37.9688 51.8913 37.9688C51.22 37.9688 50.5761 37.7021 50.1014 37.2274C49.6267 36.7527 49.36 36.1088 49.36 35.4375ZM67.0788 70.875C66.3278 70.875 65.5937 70.6523 64.9694 70.2351C64.345 69.8179 63.8583 69.2249 63.5709 68.5311C63.2836 67.8373 63.2084 67.0739 63.3549 66.3374C63.5014 65.6009 63.863 64.9243 64.394 64.3933C64.925 63.8623 65.6015 63.5007 66.3381 63.3542C67.0746 63.2077 67.838 63.2829 68.5318 63.5703C69.2256 63.8577 69.8186 64.3443 70.2358 64.9687C70.653 65.5931 70.8757 66.3272 70.8757 67.0781C70.8757 68.0851 70.4756 69.0509 69.7636 69.7629C69.0515 70.475 68.0858 70.875 67.0788 70.875Z" fill="#FFB100"/>
</g>
<defs>
<clipPath id="clip0_72_832">
<rect width="81" height="81" fill="white"/>
</clipPath>
</defs>
</svg>
