<svg width="87" height="87" viewBox="0 0 87 87" fill="none" xmlns="http://www.w3.org/2000/svg">
<path d="M47.3352 8.6063H38.7289C38.3485 8.6063 37.9836 8.45518 37.7146 8.18618C37.4457 7.91718 37.2945 7.55234 37.2945 7.17192C37.2945 6.7915 37.4457 6.42667 37.7146 6.15767C37.9836 5.88867 38.3485 5.73755 38.7289 5.73755H47.3352C47.7156 5.73755 48.0804 5.88867 48.3494 6.15767C48.6184 6.42667 48.7695 6.7915 48.7695 7.17192C48.7695 7.55234 48.6184 7.91718 48.3494 8.18618C48.0804 8.45518 47.7156 8.6063 47.3352 8.6063ZM58.8102 86.0625H27.2539C25.3525 86.0603 23.5296 85.3039 22.1851 83.9594C20.8406 82.6149 20.0843 80.7921 20.082 78.8907V30.1219C20.082 29.7415 20.2332 29.3767 20.5021 29.1077C20.7711 28.8387 21.136 28.6875 21.5164 28.6875C21.8968 28.6875 22.2617 28.8387 22.5307 29.1077C22.7997 29.3767 22.9508 29.7415 22.9508 30.1219V78.8907C22.9508 81.2631 24.8815 83.1938 27.2539 83.1938H58.8102C61.1826 83.1938 63.1133 81.2631 63.1133 78.8907V30.1219C63.1133 29.7415 63.2644 29.3767 63.5334 29.1077C63.8024 28.8387 64.1672 28.6875 64.5477 28.6875C64.9281 28.6875 65.2929 28.8387 65.5619 29.1077C65.8309 29.3767 65.982 29.7415 65.982 30.1219V78.8907C65.982 82.8438 62.7662 86.0625 58.8102 86.0625Z" fill="#FF9700"/>
<path d="M64.5465 40.1625C64.1661 40.1625 63.8012 40.0114 63.5322 39.7424C63.2632 39.4734 63.1121 39.1085 63.1121 38.7281V7.17187C63.1121 4.79942 61.1814 2.86875 58.809 2.86875H27.2527C24.8803 2.86875 22.9496 4.79942 22.9496 7.17187V38.7281C22.9496 39.1085 22.7985 39.4734 22.5295 39.7424C22.2605 40.0114 21.8957 40.1625 21.5152 40.1625C21.1348 40.1625 20.77 40.0114 20.501 39.7424C20.232 39.4734 20.0809 39.1085 20.0809 38.7281V7.17187C20.0809 3.21874 23.2967 0 27.2527 0H58.809C62.765 0 65.9809 3.21874 65.9809 7.17187V38.7281C65.9809 39.1085 65.8297 39.4734 65.5607 39.7424C65.2917 40.0114 64.9269 40.1625 64.5465 40.1625ZM73.1527 14.4872C72.361 14.4872 71.7184 13.988 71.7184 13.1962V12.9094C71.7184 12.529 71.8695 12.1641 72.1385 11.8951C72.4075 11.6261 72.7723 11.475 73.1527 11.475C73.5331 11.475 73.898 11.6261 74.167 11.8951C74.436 12.1641 74.5871 12.529 74.5871 12.9094C74.5871 13.7011 73.9445 14.4872 73.1527 14.4872ZM73.1527 20.2247C72.361 20.2247 71.7184 19.7255 71.7184 18.9337V18.6469C71.7184 18.2665 71.8695 17.9016 72.1385 17.6326C72.4075 17.3636 72.7723 17.2125 73.1527 17.2125C73.5331 17.2125 73.898 17.3636 74.167 17.6326C74.436 17.9016 74.5871 18.2665 74.5871 18.6469C74.5871 19.4386 73.9445 20.2247 73.1527 20.2247ZM73.1527 25.9622C72.361 25.9622 71.7184 25.463 71.7184 24.6712V24.3844C71.7184 24.004 71.8695 23.6391 72.1385 23.3701C72.4075 23.1011 72.7723 22.95 73.1527 22.95C73.5331 22.95 73.898 23.1011 74.167 23.3701C74.436 23.6391 74.5871 24.004 74.5871 24.3844C74.5871 25.1761 73.9445 25.9622 73.1527 25.9622ZM12.909 62.9691C12.1172 62.9691 11.4746 62.4699 11.4746 61.6781V61.3912C11.4746 61.0108 11.6257 60.646 11.8947 60.377C12.1637 60.108 12.5286 59.9569 12.909 59.9569C13.2894 59.9569 13.6542 60.108 13.9232 60.377C14.1922 60.646 14.3434 61.0108 14.3434 61.3912C14.3434 62.183 13.7008 62.9691 12.909 62.9691ZM12.909 68.7066C12.1172 68.7066 11.4746 68.2074 11.4746 67.4156V67.1287C11.4746 66.7483 11.6257 66.3835 11.8947 66.1145C12.1637 65.8455 12.5286 65.6944 12.909 65.6944C13.2894 65.6944 13.6542 65.8455 13.9232 66.1145C14.1922 66.3835 14.3434 66.7483 14.3434 67.1287C14.3434 67.9205 13.7008 68.7066 12.909 68.7066ZM12.909 74.4441C12.1172 74.4441 11.4746 73.9449 11.4746 73.1531V72.8662C11.4746 72.4858 11.6257 72.121 11.8947 71.852C12.1637 71.583 12.5286 71.4319 12.909 71.4319C13.2894 71.4319 13.6542 71.583 13.9232 71.852C14.1922 72.121 14.3434 72.4858 14.3434 72.8662C14.3434 73.658 13.7008 74.4441 12.909 74.4441Z" fill="#FF9700"/>
<path d="M68.3939 74.5875C68.1799 74.5876 67.9686 74.5398 67.7755 74.4476C67.5824 74.3554 67.4124 74.2212 67.2779 74.0548C67.1434 73.8884 67.0478 73.694 66.9982 73.4859C66.9486 73.2778 66.9461 73.0612 66.991 72.852L67.9377 68.4628C67.9942 68.1992 68.1241 67.9569 68.3124 67.764C68.5008 67.5711 68.7399 67.4354 69.002 67.3726C70.3863 67.0333 71.7093 66.4806 72.9236 65.7346C73.1526 65.5948 73.4162 65.5221 73.6845 65.5246C73.9527 65.5271 74.2149 65.6049 74.4412 65.7489L77.2813 67.5648L79.0398 65.792L77.2239 62.9748C77.0781 62.7483 76.999 62.4854 76.9954 62.2161C76.9919 61.9467 77.0641 61.6818 77.2038 61.4515C77.9501 60.2377 78.5019 58.9145 78.839 57.53C78.9021 57.2686 79.0371 57.0301 79.2287 56.8415C79.4204 56.6529 79.661 56.5217 79.9234 56.4628L83.1938 55.737V53.2785L79.9262 52.5527C79.6639 52.4938 79.4233 52.3626 79.2316 52.174C79.04 51.9854 78.905 51.7469 78.8419 51.4855C78.5035 50.1014 77.9518 48.7784 77.2067 47.5639C77.0658 47.3347 76.9926 47.0703 76.9957 46.8012C76.9987 46.5322 77.0778 46.2695 77.2239 46.0435L79.0427 43.2006L77.287 41.4449L74.4441 43.2637C74.218 43.4084 73.9557 43.4865 73.6873 43.489C73.4189 43.4915 73.1553 43.4184 72.9265 43.278C71.7116 42.533 70.3888 41.9804 69.0049 41.64C68.7427 41.5772 68.5037 41.4415 68.3153 41.2486C68.127 41.0557 67.9971 40.8134 67.9406 40.5498L67.2349 37.2938H65.9813C65.6008 37.2938 65.236 37.1427 64.967 36.8737C64.698 36.6047 64.5469 36.2398 64.5469 35.8594C64.5469 35.479 64.698 35.1142 64.967 34.8452C65.236 34.5762 65.6008 34.425 65.9813 34.425H68.391C68.7187 34.4256 69.0363 34.5383 69.291 34.7445C69.5457 34.9507 69.7221 35.2378 69.7909 35.5582L70.5569 39.0954C71.6069 39.4138 72.6368 39.8441 73.6293 40.3806L76.7104 38.4097C76.9859 38.2337 77.3133 38.157 77.6383 38.1925C77.9634 38.228 78.2666 38.3735 78.4976 38.6048L81.8856 41.9899C82.1165 42.2213 82.2614 42.5247 82.2964 42.8497C82.3313 43.1747 82.2542 43.502 82.0778 43.7772L80.107 46.8582C80.6434 47.8537 81.0737 48.8835 81.3922 49.9364L84.9351 50.7224C85.5949 50.8687 86.0625 51.4539 86.0625 52.1252V56.8874C86.0624 57.2139 85.9509 57.5305 85.7464 57.7851C85.5419 58.0396 85.2567 58.2168 84.938 58.2873L81.395 59.0733C81.0713 60.1391 80.6407 61.1694 80.1098 62.1486L82.0778 65.201C82.256 65.4752 82.3347 65.8023 82.3007 66.1276C82.2668 66.4529 82.1223 66.7567 81.8913 66.9882L78.5033 70.402C78.2722 70.6341 77.9687 70.7802 77.6431 70.8162C77.3176 70.8522 76.9895 70.7759 76.7132 70.6L73.6322 68.6292C72.6535 69.159 71.6242 69.5895 70.5598 69.9144L69.7938 73.4515C69.7251 73.7722 69.5488 74.0597 69.2941 74.2663C69.0395 74.473 68.7218 74.5863 68.3939 74.5875Z" fill="#FF9700"/>
<path d="M69.9721 61.9018C69.6649 61.9013 69.366 61.8021 69.1194 61.619C68.8728 61.4358 68.6915 61.1783 68.6022 60.8844C68.5129 60.5905 68.5203 60.2757 68.6233 59.9863C68.7264 59.6969 68.9196 59.4482 69.1746 59.2769C70.2756 58.5349 71.0855 57.4344 71.4665 56.1626C71.8476 54.8907 71.7762 53.5262 71.2646 52.301C70.7529 51.0759 69.8327 50.0659 68.6603 49.4428C67.4879 48.8197 66.1358 48.622 64.8341 48.8834C64.6495 48.9213 64.4593 48.9224 64.2743 48.8867C64.0892 48.8511 63.913 48.7793 63.7557 48.6756C63.5984 48.5718 63.4631 48.4381 63.3575 48.282C63.2518 48.126 63.178 47.9506 63.1401 47.766C63.1023 47.5814 63.1011 47.3912 63.1368 47.2062C63.1725 47.0211 63.2442 46.8449 63.348 46.6876C63.4517 46.5303 63.5855 46.395 63.7415 46.2894C63.8976 46.1838 64.0729 46.1099 64.2575 46.072C65.508 45.8185 66.7992 45.8457 68.0379 46.1519C69.2766 46.4581 70.4319 47.0355 71.4203 47.8424C72.4087 48.6494 73.2055 49.6658 73.7533 50.8181C74.3011 51.9705 74.5862 53.2302 74.5879 54.5062C74.5882 55.9202 74.2399 57.3126 73.5739 58.56C72.908 59.8074 71.9448 60.8715 70.7696 61.658C70.5338 61.8166 70.2562 61.9015 69.9721 61.9018ZM20.0816 40.1624C18.2325 40.1649 16.4318 39.5715 14.9464 38.4703C13.461 37.369 12.3699 35.8185 11.8348 34.0485C11.2998 32.2785 11.3492 30.3832 11.9759 28.6435C12.6025 26.9038 13.7729 25.4123 15.3138 24.39C15.6303 24.1924 16.0113 24.1259 16.3761 24.2047C16.7408 24.2834 17.0605 24.5012 17.2673 24.8118C17.4741 25.1223 17.5518 25.5013 17.4838 25.8682C17.4157 26.2351 17.2074 26.561 16.9031 26.7768C15.8021 27.5159 14.9908 28.6132 14.6068 29.8825C14.2229 31.1518 14.29 32.5148 14.7968 33.7402C15.3036 34.9656 16.2188 35.9779 17.3871 36.6052C18.5554 37.2325 19.9048 37.4362 21.2062 37.1818C21.5792 37.1082 21.9663 37.1851 22.2828 37.3958C22.5994 37.6065 22.8197 37.9338 22.8959 38.3063C22.9331 38.491 22.9335 38.6811 22.8971 38.8659C22.8606 39.0506 22.7881 39.2264 22.6837 39.3831C22.5792 39.5398 22.4448 39.6744 22.2883 39.779C22.1317 39.8837 21.956 39.9565 21.7713 39.9932C21.2152 40.1064 20.6491 40.1631 20.0816 40.1624Z" fill="#FF9700"/>
<path d="M20.0813 51.6378H17.6715C17.3438 51.6372 17.0262 51.5245 16.7715 51.3183C16.5168 51.1121 16.3404 50.825 16.2716 50.5046L15.5056 46.9674C14.441 46.6431 13.4116 46.2125 12.4332 45.6822L9.35213 47.6531C9.0766 47.8291 8.74919 47.9058 8.42415 47.8703C8.09911 47.8348 7.79595 47.6893 7.56489 47.458L4.1769 44.0729C3.946 43.8415 3.80107 43.5381 3.76611 43.2131C3.73116 42.8881 3.80828 42.5608 3.98469 42.2856L5.95552 39.2046C5.42517 38.2241 4.99461 37.1929 4.67033 36.1264L1.12742 35.3404C0.807868 35.2698 0.521959 35.0924 0.316959 34.8373C0.111959 34.5822 0.000144236 34.2648 0 33.9376V29.1754C0.000128436 28.8489 0.111639 28.5323 0.316107 28.2777C0.520575 28.0232 0.805763 27.846 1.12455 27.7755L4.66746 26.9895C4.98589 25.9366 5.4162 24.9067 5.95266 23.9142L3.98756 20.8589C3.80938 20.5847 3.73069 20.2576 3.76463 19.9323C3.79856 19.607 3.94308 19.3033 4.17403 19.0717L7.56203 15.6579C7.79236 15.4244 8.096 15.2774 8.42196 15.2413C8.74792 15.2053 9.07635 15.2825 9.35213 15.4599L12.4332 17.4308C13.4119 16.901 14.4411 16.4704 15.5056 16.1456L16.2716 12.6084C16.3063 12.4195 16.3786 12.2395 16.4843 12.079C16.5899 11.9186 16.7267 11.781 16.8865 11.6745C17.0463 11.5679 17.2259 11.4945 17.4146 11.4587C17.6033 11.4228 17.7973 11.4252 17.9851 11.4658C18.1728 11.5063 18.3505 11.5842 18.5076 11.6947C18.6647 11.8052 18.798 11.9462 18.8996 12.1092C19.0012 12.2723 19.069 12.454 19.099 12.6437C19.129 12.8335 19.1206 13.0273 19.0743 13.2137L18.1276 17.6029C18.0712 17.8665 17.9413 18.1088 17.7529 18.3017C17.5646 18.4946 17.3255 18.6303 17.0633 18.693C15.6784 19.0329 14.3545 19.5855 13.1389 20.3311C12.9099 20.4708 12.6463 20.5436 12.378 20.5411C12.1098 20.5385 11.8476 20.4608 11.6213 20.3167L8.78124 18.5008L7.01983 20.2737L8.83575 23.0908C8.9828 23.3168 9.06275 23.5799 9.0663 23.8496C9.06986 24.1192 8.99688 24.3843 8.85583 24.6141C8.10949 25.828 7.55775 27.1512 7.22064 28.5357C7.15754 28.7971 7.02253 29.0356 6.83088 29.2242C6.63923 29.4128 6.39861 29.544 6.13626 29.6029L2.86875 30.3258V32.7843L6.13626 33.5101C6.39861 33.569 6.63923 33.7002 6.83088 33.8888C7.02253 34.0774 7.15754 34.3159 7.22064 34.5773C7.54481 35.9313 8.09848 37.251 8.85583 38.4989C9.14271 38.9665 9.13697 39.5574 8.83862 40.0193L7.01983 42.8594L8.77551 44.6151L11.6184 42.7963C11.845 42.6528 12.1071 42.5755 12.3752 42.573C12.6433 42.5704 12.9068 42.6428 13.136 42.7819C14.3868 43.5421 15.7064 44.0929 17.0576 44.42C17.3198 44.4827 17.5588 44.6184 17.7472 44.8113C17.9355 45.0042 18.0654 45.2465 18.1219 45.5101L18.8276 48.769H20.0813C20.4617 48.769 20.8265 48.9201 21.0955 49.1891C21.3645 49.4581 21.5156 49.823 21.5156 50.2034C21.5156 50.5838 21.3645 50.9486 21.0955 51.2176C20.8265 51.4866 20.4617 51.6378 20.0813 51.6378ZM41.5969 50.2034C41.3788 50.2039 41.1635 50.1545 40.9674 50.0592C40.7713 49.9638 40.5996 49.8249 40.4654 49.653C40.3312 49.4811 40.238 49.2809 40.193 49.0675C40.1479 48.8542 40.1522 48.6333 40.2055 48.4219L43.0743 36.9469C43.1185 36.7634 43.1988 36.5906 43.3105 36.4384C43.4222 36.2863 43.5631 36.1579 43.7248 36.0607C43.8866 35.9636 44.0661 35.8995 44.2529 35.8724C44.4397 35.8453 44.63 35.8555 44.8127 35.9027C44.9956 35.9479 45.1678 36.0289 45.3193 36.1409C45.4708 36.2528 45.5988 36.3936 45.6958 36.5551C45.7928 36.7166 45.857 36.8957 45.8846 37.082C45.9123 37.2684 45.9029 37.4584 45.857 37.6411L42.9882 49.1161C42.9117 49.4271 42.7329 49.7033 42.4806 49.9004C42.2283 50.0976 41.9171 50.2043 41.5969 50.2034ZM50.2031 50.2034C49.9197 50.2033 49.6426 50.1193 49.4068 49.9618C49.1711 49.8044 48.9873 49.5806 48.8786 49.3188C48.77 49.057 48.7413 48.7688 48.7963 48.4907C48.8513 48.2127 48.9875 47.9571 49.1876 47.7563L53.9124 43.0315L49.1905 38.3095C48.9292 38.039 48.7846 37.6767 48.7879 37.3006C48.7911 36.9245 48.942 36.5648 49.2079 36.2988C49.4739 36.0329 49.8336 35.882 50.2097 35.8787C50.5858 35.8755 50.9481 36.0201 51.2187 36.2813L56.9562 42.0188C57.2251 42.2878 57.3761 42.6526 57.3761 43.0329C57.3761 43.4133 57.2251 43.7781 56.9562 44.047L51.2187 49.7845C50.9488 50.0528 50.5837 50.2034 50.2031 50.2034ZM35.8594 50.2034C35.4788 50.2034 35.1137 50.0528 34.8438 49.7845L29.1063 44.047C28.8374 43.7781 28.6864 43.4133 28.6864 43.0329C28.6864 42.6526 28.8374 42.2878 29.1063 42.0188L34.8438 36.2813C35.1144 36.0201 35.4767 35.8755 35.8528 35.8787C36.2289 35.882 36.5886 36.0329 36.8546 36.2988C37.1205 36.5648 37.2714 36.9245 37.2746 37.3006C37.2779 37.6767 37.1333 38.039 36.872 38.3095L32.1501 43.0315L36.872 47.7535C37.073 47.9539 37.21 48.2094 37.2656 48.4878C37.3213 48.7661 37.2931 49.0546 37.1847 49.3169C37.0762 49.5792 36.8924 49.8035 36.6565 49.9613C36.4206 50.1191 36.1432 50.2033 35.8594 50.2034Z" fill="#FF9700"/>
</svg>
