<svg width="42" height="42" viewBox="0 0 42 42" fill="none" xmlns="http://www.w3.org/2000/svg">
<path d="M20.9876 0C32.5886 0 41.9917 9.40311 41.9917 21.0041C41.9917 32.6052 32.5886 42 20.9959 42C9.39485 42 5.44146e-06 32.5969 5.44146e-06 21.0041C-0.0082574 9.40311 9.39485 0 20.9876 0Z" fill="#8247E5"/>
<mask id="mask0_2563_71" style="mask-type:luminance" maskUnits="userSpaceOnUse" x="7" y="8" width="28" height="26">
<path d="M34.795 8.92383H7.27148V33.0431H34.795V8.92383Z" fill="white"/>
</mask>
<g mask="url(#mask0_2563_71)">
<path d="M28.0608 18.4221C27.5568 18.1329 26.9123 18.1329 26.3422 18.4221L22.3264 20.8018L19.5997 22.3139L15.6583 24.6853C15.1543 24.9745 14.5098 24.9745 13.9396 24.6853L10.8576 22.8097C10.3536 22.5205 9.99826 21.9421 9.99826 21.2976V17.695C9.99826 17.1166 10.2875 16.5464 10.8576 16.1829L13.9396 14.3816C14.4437 14.0924 15.0882 14.0924 15.6583 14.3816L18.7403 16.2572C19.2444 16.5464 19.5997 17.1248 19.5997 17.7693V20.149L22.3264 18.5626V16.1168C22.3264 15.5384 22.0372 14.9682 21.4671 14.6047L15.7327 11.2169C15.2286 10.9277 14.5841 10.9277 14.014 11.2169L8.13912 14.679C7.56898 14.9682 7.27979 15.5466 7.27979 16.1168V22.884C7.27979 23.4624 7.56898 24.0326 8.13912 24.3961L13.9479 27.7839C14.4519 28.0731 15.0964 28.0731 15.6666 27.7839L19.6079 25.4786L22.3347 23.8921L26.2761 21.5868C26.7801 21.2976 27.4246 21.2976 27.9947 21.5868L31.0768 23.3881C31.5808 23.6773 31.9361 24.2557 31.9361 24.9002V28.5028C31.9361 29.0812 31.6469 29.6513 31.0768 30.0149L28.0691 31.8161C27.5651 32.1053 26.9206 32.1053 26.3504 31.8161L23.2601 30.0149C22.7561 29.7257 22.4008 29.1473 22.4008 28.5028V26.1974L19.674 27.7839V30.1636C19.674 30.742 19.9632 31.3121 20.5334 31.6757L26.3422 35.0634C26.8462 35.3526 27.4907 35.3526 28.0608 35.0634L33.8696 31.6757C34.3736 31.3865 34.7289 30.8081 34.7289 30.1636V23.322C34.7289 22.7436 34.4397 22.1734 33.8696 21.8099L28.0608 18.4221Z" fill="white"/>
</g>
</svg>
