<svg width="47" height="33" viewBox="0 0 47 33" fill="none" xmlns="http://www.w3.org/2000/svg">
<path d="M19.3506 0L15.7544 5.50839L12.1553 0H19.3506Z" fill="#53BAA1"/>
<path d="M34.3999 0L30.8037 5.50839L27.2046 0H34.3999Z" fill="#53BAA1"/>
<path d="M12.1553 32.9996L15.7544 27.4883L19.3506 32.9996H12.1553Z" fill="#53BAA1"/>
<path d="M27.2046 32.9996L30.8037 27.4883L34.3999 32.9996H27.2046Z" fill="#53BAA1"/>
<path d="M41.7013 18.0016C42.9762 17.7644 43.9456 17.1982 44.6067 16.3058C45.2708 15.4134 45.5999 14.3283 45.5999 13.0565C45.5999 12.001 45.4161 11.1235 45.0514 10.4179C44.6868 9.71231 44.1917 9.15198 43.5721 8.73396C42.9524 8.3189 42.2291 8.01947 41.4049 7.84158C40.5807 7.6637 39.7091 7.57476 38.793 7.57476H31.8082V13.1573C31.7518 12.9942 31.6925 12.8341 31.6273 12.674C31.1441 11.503 30.4681 10.5039 29.5995 9.67969C28.7308 8.85551 27.705 8.22106 26.5132 7.77933C25.3244 7.33759 24.0229 7.11523 22.6117 7.11523C21.2005 7.11523 19.902 7.33759 18.7102 7.77933C17.5213 8.22106 16.4926 8.85551 15.6239 9.67969C14.8472 10.4179 14.2246 11.2984 13.7562 12.3183C13.688 11.586 13.516 10.9515 13.2403 10.4179C12.8757 9.71231 12.3805 9.15198 11.7609 8.73396C11.1413 8.3189 10.4179 8.01947 9.59374 7.84158C8.76956 7.6637 7.89794 7.57476 6.98185 7.57476H0V25.6238H3.97565V18.4078H5.93828L9.71233 25.6238H14.4796L9.89317 18.0016C11.168 17.7644 12.1374 17.1982 12.7986 16.3058C12.8282 16.2643 12.8549 16.2198 12.8845 16.1783C12.8786 16.3176 12.8757 16.457 12.8757 16.5993C12.8757 18.0431 13.1188 19.3535 13.602 20.5245C14.0852 21.6956 14.7612 22.6947 15.6299 23.5189C16.4955 24.3431 17.5243 24.9775 18.7161 25.4193C19.9049 25.861 21.2064 26.0833 22.6176 26.0833C24.0288 26.0833 25.3274 25.861 26.5192 25.4193C27.708 24.9775 28.7367 24.3431 29.6054 23.5189C30.4711 22.6947 31.147 21.6956 31.6333 20.5245C31.6985 20.3674 31.7578 20.2044 31.8141 20.0413V25.6238H35.7897V18.4078H37.7524L41.5264 25.6238H46.2937L41.7013 18.0016ZM9.34471 14.1771C9.13125 14.4499 8.86443 14.6485 8.54128 14.776C8.21812 14.9035 7.85643 14.9806 7.45916 15.0043C7.05893 15.031 6.68241 15.0428 6.32369 15.0428H3.97862V10.9397H6.57865C6.93441 10.9397 7.30203 10.9664 7.67558 11.0168C8.04914 11.0672 8.38118 11.165 8.66876 11.3103C8.95633 11.4555 9.19647 11.6631 9.38325 11.9358C9.57002 12.2086 9.66489 12.5732 9.66489 13.0328C9.66489 13.5219 9.55816 13.9044 9.34471 14.1771ZM27.8296 18.9325C27.5657 19.6381 27.1892 20.2488 26.6941 20.7676C26.2019 21.2865 25.612 21.6897 24.9212 21.9802C24.2334 22.2707 23.4626 22.413 22.6147 22.413C21.7638 22.413 20.9959 22.2678 20.3081 21.9802C19.6203 21.6926 19.0304 21.2865 18.5352 20.7676C18.0431 20.2488 17.6636 19.6381 17.3998 18.9325C17.1359 18.2269 17.0055 17.4502 17.0055 16.5993C17.0055 15.7662 17.1359 14.9924 17.3998 14.2779C17.6636 13.5634 18.0401 12.9497 18.5352 12.4309C19.0274 11.9121 19.6174 11.5089 20.3081 11.2184C20.9959 10.9308 21.7638 10.7855 22.6147 10.7855C23.4655 10.7855 24.2334 10.9308 24.9212 11.2184C25.609 11.5059 26.199 11.9121 26.6941 12.4309C27.1862 12.9497 27.5657 13.5664 27.8296 14.2779C28.0934 14.9924 28.2239 15.7662 28.2239 16.5993C28.2239 17.4502 28.0934 18.2269 27.8296 18.9325ZM41.1529 14.1771C40.9394 14.4499 40.6726 14.6485 40.3494 14.776C40.0263 14.9035 39.6646 14.9806 39.2673 15.0043C38.8671 15.031 38.4906 15.0428 38.1319 15.0428H35.7868V10.9397H38.3868C38.7426 10.9397 39.1102 10.9664 39.4838 11.0168C39.8573 11.0672 40.1894 11.165 40.4769 11.3103C40.7645 11.4555 41.0046 11.6631 41.1914 11.9358C41.3782 12.2086 41.4731 12.5732 41.4731 13.0328C41.4731 13.5219 41.3663 13.9044 41.1529 14.1771Z" fill="#202826"/>
</svg>
