<svg width="44" height="33" viewBox="0 0 44 33" fill="none" xmlns="http://www.w3.org/2000/svg">
<path d="M24.9655 9.03113L23.466 11.6711L18.338 2.64009L2.59595 30.3603H13.2544C13.2544 31.8183 14.4169 33.0003 15.8508 33.0003H2.59595C1.66842 33.0003 0.811424 32.4968 0.347734 31.68C-0.115956 30.8633 -0.115909 29.857 0.347859 29.0403L16.0899 1.32008C16.5537 0.503217 17.4109 0 18.3386 0C19.2662 0 20.1234 0.503217 20.5872 1.32008L24.9655 9.03113Z" fill="#00C58E"/>
<path d="M36.3293 29.0404L26.4649 11.6713L24.9655 9.03125L23.466 11.6713L13.6027 29.0404C13.139 29.8571 13.1389 30.8634 13.6026 31.6802C14.0663 32.4969 14.9233 33.0004 15.8508 33.0004H34.0779C35.0057 33.0004 35.863 32.4975 36.327 31.6806C36.7909 30.8638 36.791 29.8573 36.3271 29.0404H36.3293ZM15.8508 30.3604L24.9655 14.3113L34.0779 30.3604H15.8508Z" fill="#2F495E"/>
<path d="M43.3817 31.6814C42.918 32.498 42.0611 33.0014 41.1336 33.0014H34.0778C35.5118 33.0014 36.6742 31.8194 36.6742 30.3614H41.1282L28.49 8.10493L26.4648 11.6723L24.9653 9.03224L26.2419 6.78492C26.7057 5.96806 27.5629 5.46484 28.4906 5.46484C29.4182 5.46484 30.2754 5.96806 30.7392 6.78492L43.3817 29.0414C43.8455 29.8582 43.8455 30.8645 43.3817 31.6814Z" fill="#108775"/>
</svg>
