<svg width="86" height="78" viewBox="0 0 86 78" fill="none" xmlns="http://www.w3.org/2000/svg">
<g opacity="0.7">
<path d="M36.2969 26.1162L31.35 24.6574L28.4351 20.4032C28.1791 20.0304 27.8361 19.7255 27.4359 19.5149C27.0358 19.3043 26.5903 19.1942 26.1381 19.1942C25.6858 19.1942 25.2404 19.3043 24.8402 19.5149C24.44 19.7255 24.0971 20.0304 23.841 20.4032L20.9233 24.6574L15.9778 26.1162C15.5439 26.2442 15.1477 26.4759 14.8234 26.7914C14.4992 27.1069 14.2567 27.4966 14.1168 27.9269C13.977 28.3571 13.9441 28.815 14.0209 29.2608C14.0978 29.7066 14.2821 30.127 14.5579 30.4856L17.7017 34.5742L17.5606 39.7299C17.5485 40.182 17.6467 40.6303 17.8467 41.0359C18.0466 41.4416 18.3424 41.7924 18.7084 42.0582C19.0743 42.3239 19.4995 42.4965 19.9472 42.5611C20.3948 42.6256 20.8514 42.5802 21.2776 42.4288L26.1366 40.7006L30.9942 42.4288C31.4206 42.5809 31.8776 42.6268 32.3257 42.5625C32.7738 42.4981 33.1995 42.3255 33.5658 42.0595C33.9321 41.7935 34.228 41.4422 34.4278 41.036C34.6277 40.6298 34.7255 40.181 34.7127 39.7285L34.5716 34.5742L37.7154 30.4856C37.9868 30.1257 38.1674 29.7056 38.2419 29.261C38.3165 28.8164 38.2827 28.3604 38.1435 27.9317C38.0043 27.5029 37.7638 27.114 37.4423 26.798C37.1208 26.482 36.7279 26.2481 36.2969 26.1162ZM31.9764 33.2248C31.7748 33.4868 31.6695 33.8102 31.6783 34.1407L31.8295 39.668C31.6567 39.6392 26.1395 37.5582 26.1366 37.7324C26.1395 37.5568 20.6122 39.6421 20.4437 39.668L20.5949 34.1407C20.6038 33.8102 20.4985 33.4868 20.2968 33.2248L16.924 28.8395L22.2295 27.2755C22.5474 27.1821 22.8231 26.9817 23.0101 26.7081L26.1366 22.1457L29.2632 26.7081C29.4501 26.9817 29.7259 27.1821 30.0438 27.2755L35.3493 28.8395L31.9764 33.2248Z" fill="#F6654D"/>
<path d="M78.8279 1.32266L76.7886 2.75273C76.1783 2.5354 75.5355 2.42293 74.8876 2.42005H5.76059C4.23325 2.42158 2.76891 3.02898 1.68892 4.10897C0.608932 5.18896 0.00152505 6.65331 0 8.18064V57.1456C0.00152505 58.673 0.608932 60.1373 1.68892 61.2173C2.76891 62.2973 4.23325 62.9047 5.76059 62.9062H34.5578V64.8504C29.199 65.8254 25.9226 68.0634 25.9226 70.827C25.9226 75.0812 33.1666 77.3077 40.3241 77.3077C47.4816 77.3077 54.7256 75.0812 54.7256 70.827C54.7256 68.0619 51.4449 65.8225 46.0789 64.849V62.9048H74.8876C76.415 62.9032 77.8793 62.2958 78.9593 61.2159C80.0393 60.1359 80.6467 58.6715 80.6482 57.1442V12.3599L84.695 8.31745C85.4899 7.50336 85.9538 6.42289 85.9967 5.2859C86.0396 4.14892 85.6584 3.03657 84.9271 2.16491C84.1958 1.29324 83.1667 0.724488 82.0395 0.569108C80.9124 0.413728 79.7677 0.681373 78.8279 1.32266ZM51.8453 70.827C51.8453 72.0497 47.7783 74.4274 40.3241 74.4274C32.8699 74.4274 28.8029 72.0497 28.8029 70.827C28.8029 69.9485 30.9315 68.4868 34.9178 67.7249C35.3209 68.8336 36.0555 69.7913 37.0218 70.4681C37.988 71.1448 39.1392 71.5077 40.3189 71.5076C41.4985 71.5074 42.6496 71.1442 43.6157 70.4672C44.5818 69.7902 45.3161 68.8323 45.7189 67.7235C49.7124 68.4853 51.8453 69.9485 51.8453 70.827ZM43.1986 65.7851C43.1986 66.549 42.8952 67.2816 42.355 67.8217C41.8149 68.3619 41.0822 68.6654 40.3183 68.6654C39.5544 68.6654 38.8218 68.3619 38.2817 67.8217C37.7415 67.2816 37.438 66.549 37.438 65.7851V62.9048H43.1986V65.7851ZM74.8876 60.0245H5.76059C4.99692 60.0237 4.26475 59.72 3.72475 59.18C3.18476 58.64 2.88106 57.9079 2.88029 57.1442V56.1807H77.7679V57.1456C77.7672 57.9093 77.4635 58.6415 76.9235 59.1815C76.3835 59.7215 75.6513 60.0237 74.8876 60.0245ZM77.7679 53.3004H2.88029V8.18064C2.88106 7.41697 3.18476 6.6848 3.72475 6.14481C4.26475 5.60481 4.99692 5.30111 5.76059 5.30035H73.1537L56.5344 16.9511C55.7917 17.4743 55.2324 18.2178 54.9357 19.0764C54.639 19.935 54.6199 20.8652 54.8811 21.7353C54.1307 22.2997 53.4389 22.938 52.8159 23.6406C50.8118 22.7418 48.543 22.6291 46.4596 23.3248C44.3762 24.0205 42.6304 25.4738 41.5684 27.3965C39.8344 31.407 38.9564 35.7352 38.9905 40.1044C30.2719 52.9274 10.1386 46.7435 10.081 31.223C10.0806 28.0271 11.047 24.9057 12.8533 22.2692C14.6595 19.6326 17.2211 17.6042 20.2015 16.4503C23.1819 15.2965 26.4416 15.0713 29.5524 15.8043C32.6631 16.5373 35.4793 18.1942 37.631 20.5573C37.8885 20.8399 38.2476 21.0087 38.6295 21.0265C39.0114 21.0444 39.3848 20.9097 39.6674 20.6523C39.95 20.3949 40.1188 20.0357 40.1367 19.6538C40.1545 19.2719 40.0199 18.8986 39.7625 18.6159C37.2192 15.8231 33.8905 13.865 30.2139 12.9989C26.5372 12.1327 22.6846 12.3991 19.1621 13.7629C15.6396 15.1267 12.612 17.5242 10.4772 20.6404C8.34242 23.7566 7.20024 27.4457 7.20073 31.223C7.35915 49.9708 31.7264 56.9541 41.7715 41.1557C45.8586 41.4696 52.3522 41.5157 55.1461 39.1539C56.4348 38.059 57.3999 36.633 57.9375 35.0297C58.475 33.4265 58.5645 31.7069 58.1963 30.0565C58.9989 29.5669 59.7493 28.9965 60.4358 28.3542C61.2471 28.7622 62.1663 28.9047 63.0631 28.7615C63.96 28.6184 64.7891 28.1967 65.4331 27.5564L77.7679 15.2359V53.3004ZM53.2926 36.949C51.5299 38.4396 46.2345 38.6052 41.8809 38.2754C42.5088 32.7452 43.5486 23.2273 51.985 26.4359C52.0317 27.3673 52.3819 28.2578 52.982 28.9716C53.5822 29.6853 54.3993 30.1832 55.3088 30.3891C55.6333 31.561 55.6159 32.8012 55.2587 33.9635C54.9014 35.1258 54.2193 36.1617 53.2926 36.949ZM57.2098 27.3015C56.9173 27.5471 56.5391 27.6664 56.1586 27.6332C55.778 27.5999 55.4263 27.4169 55.1807 27.1243C54.9351 26.8318 54.8158 26.4536 54.849 26.0731C54.8822 25.6925 55.0652 25.3408 55.3578 25.0952L56.4609 24.1691L58.313 26.3755L57.2098 27.3015ZM82.6601 6.27965L63.3967 25.52C63.2554 25.6601 63.0866 25.7695 62.9009 25.8412C62.7153 25.9129 62.5169 25.9455 62.318 25.9368C62.1192 25.9282 61.9243 25.8785 61.7456 25.7909C61.5669 25.7033 61.4083 25.5797 61.2797 25.4278L59.5947 23.4203L57.9097 21.4141C57.7825 21.2608 57.6883 21.0828 57.6331 20.8913C57.5778 20.6998 57.5628 20.499 57.5889 20.3014C57.615 20.1038 57.6817 19.9138 57.7847 19.7432C57.8878 19.5726 58.025 19.4251 58.1877 19.3101C59.6638 18.2732 79.7841 4.16983 80.4812 3.68018C80.8306 3.44427 81.2551 3.34621 81.6726 3.40491C82.0901 3.46362 82.4711 3.67494 82.742 3.99807C83.0128 4.3212 83.1544 4.73322 83.1392 5.15458C83.1241 5.57594 82.9534 5.97676 82.6601 6.27965Z" fill="#F6654D"/>
</g>
</svg>
