<svg width="165" height="60" viewBox="0 0 165 60" fill="none" xmlns="http://www.w3.org/2000/svg">
<path fill-rule="evenodd" clip-rule="evenodd" d="M109.912 22.33C107.838 22.33 106.283 23.11 105.505 24.41L105.116 25.19V22.72H101.746V37.8H105.376V28.83C105.376 26.75 106.542 25.45 108.616 25.45C110.56 25.45 111.597 26.62 111.597 28.7V37.8H115.226V28.05C115.097 24.54 113.153 22.33 109.912 22.33ZM92.4143 22.33C88.137 22.33 85.5447 25.06 85.5447 29.35V31.43C85.5447 35.59 88.2666 38.06 92.5439 38.06C95.3954 38.06 97.4692 37.02 98.6357 34.81L96.4323 33.51C95.525 34.81 93.9696 35.59 92.5439 35.59C90.3404 35.59 89.0443 34.29 89.0443 31.95V31.3H99.1542V28.83C99.0246 24.93 96.4323 22.33 92.4143 22.33ZM95.7842 29.09H89.0443V28.7C89.0443 26.23 90.2108 24.8 92.4143 24.8C94.4881 24.8 95.7842 26.1 95.7842 28.44V29.09ZM151 20.25V17.39H138.557V20.25H142.964V34.94H138.557V37.8H151V34.94H146.593V20.25H151ZM56.2518 17C50.6784 17 47.1788 20.51 47.1788 26.1V29.09C47.1788 34.68 50.6784 38.19 56.2518 38.19C61.8253 38.19 65.3248 34.68 65.3248 29.09V26.1C65.3248 20.51 61.8253 17 56.2518 17ZM61.566 29.35C61.566 33.12 59.6218 35.2 56.2518 35.2C52.8819 35.2 50.9376 33.12 50.9376 29.35V25.84C50.9376 22.07 52.8819 19.99 56.2518 19.99C59.6218 19.99 61.566 22.07 61.566 25.84V29.35ZM76.7309 22.46C74.7867 22.46 73.2313 23.24 72.324 24.54L71.9352 25.06V22.72H68.5652V43H72.1944V35.72L72.5833 36.24C73.3609 37.41 75.0459 38.19 76.8605 38.19C79.9713 38.19 83.082 36.11 83.082 31.56V28.96C82.9524 25.71 81.0082 22.33 76.7309 22.46ZM79.3232 31.43C79.3232 33.9 77.8974 35.33 75.694 35.33C73.6202 35.33 72.0648 33.77 72.0648 31.43V29.22C72.0648 26.88 73.4906 25.32 75.694 25.32C77.8974 25.32 79.3232 26.88 79.3232 29.22V31.43ZM125.077 17.39L117.819 37.8H121.448L122.874 33.38H131.299L132.724 37.67H136.354L129.095 17.26L125.077 17.39ZM123.781 30.52L127.021 20.25L130.262 30.52H123.781ZM37.8466 27.66C38.4946 25.84 38.2354 23.89 37.3281 22.33C35.9024 19.86 33.0508 18.56 30.3289 19.21C28.7736 17.52 26.4405 16.74 24.1074 17.13C21.7744 17.65 19.9598 19.34 19.1821 21.55C17.3675 21.94 15.8121 23.11 14.9048 24.67C13.479 27.14 13.7383 30.26 15.6825 32.34C15.0344 34.16 15.2937 36.11 16.201 37.67C17.6267 40.14 20.4782 41.44 23.2001 40.79C24.4963 42.22 26.1813 43 28.1255 43C30.977 43 33.4397 41.18 34.347 38.45C36.1616 38.06 37.717 36.89 38.6243 35.33C40.05 32.86 39.7908 29.74 37.8466 27.66ZM28.1255 41.31C26.959 41.31 25.922 40.92 25.0147 40.14L25.1444 40.01L30.3289 37.02C30.5882 36.89 30.7178 36.63 30.7178 36.24V28.96L32.9212 30.26V36.37C32.9212 39.1 30.8474 41.31 28.1255 41.31ZM17.6267 36.76C17.1083 35.72 16.849 34.68 17.1083 33.51L17.2379 33.64L22.4224 36.63C22.6817 36.76 22.9409 36.76 23.3297 36.63L29.6809 32.99V35.46C29.6809 35.46 29.6809 35.46 29.6809 35.59L24.4963 38.58C22.0336 39.88 19.0525 39.1 17.6267 36.76ZM16.3306 25.58C16.849 24.54 17.7563 23.89 18.9229 23.5V29.61C18.9229 29.87 19.0525 30.13 19.3117 30.39L25.5332 34.03L23.3297 35.33C23.3297 35.33 23.3297 35.33 23.2001 35.33L18.0156 32.34C15.8121 30.78 15.0344 27.79 16.3306 25.58ZM34.2174 29.74L27.9959 26.1L30.1993 24.8C30.1993 24.8 30.1993 24.8 30.3289 24.8L35.5135 27.79C37.1985 28.7 38.1058 30.52 37.9762 32.47C37.8466 34.29 36.5504 35.98 34.8654 36.63V30.52C34.7358 30.13 34.4766 29.87 34.2174 29.74ZM36.4208 26.49L36.2912 26.36L31.1066 23.37C30.8474 23.24 30.4585 23.24 30.1993 23.37L23.9778 27.01V24.54C23.9778 24.54 23.9778 24.54 23.9778 24.41L29.1624 21.42C30.8474 20.51 32.7916 20.51 34.347 21.68C35.9024 22.72 36.68 24.54 36.4208 26.49ZM22.8113 30.91L20.6078 29.61V23.5C20.6078 21.55 21.6448 19.86 23.4594 19.08C25.1444 18.3 27.2182 18.56 28.6439 19.73L28.5143 19.86L23.3297 22.85C23.0705 22.98 22.9409 23.24 22.9409 23.63L22.8113 30.91ZM23.9778 28.31L26.8293 26.75L29.6809 28.31V31.56L26.8293 33.12L23.9778 31.56V28.31Z" fill="black"/>
</svg>
