<svg width="81" height="81" viewBox="0 0 81 81" fill="none" xmlns="http://www.w3.org/2000/svg">
<path d="M44.2969 10.125H36.7031C36.3675 10.125 36.0455 9.99166 35.8082 9.75431C35.5708 9.51696 35.4375 9.19504 35.4375 8.85938C35.4375 8.52371 35.5708 8.20179 35.8082 7.96444C36.0455 7.72709 36.3675 7.59375 36.7031 7.59375H44.2969C44.6325 7.59375 44.9545 7.72709 45.1918 7.96444C45.4292 8.20179 45.5625 8.52371 45.5625 8.85938C45.5625 9.19504 45.4292 9.51696 45.1918 9.75431C44.9545 9.99166 44.6325 10.125 44.2969 10.125ZM54.4219 78.4688H26.5781C24.9004 78.4667 23.292 77.7994 22.1057 76.6131C20.9194 75.4267 20.252 73.8183 20.25 72.1406V29.1094C20.25 28.7737 20.3833 28.4518 20.6207 28.2144C20.858 27.9771 21.18 27.8438 21.5156 27.8438C21.8513 27.8438 22.1732 27.9771 22.4106 28.2144C22.6479 28.4518 22.7812 28.7737 22.7812 29.1094V72.1406C22.7812 74.234 24.4848 75.9375 26.5781 75.9375H54.4219C56.5152 75.9375 58.2188 74.234 58.2188 72.1406V29.1094C58.2188 28.7737 58.3521 28.4518 58.5894 28.2144C58.8268 27.9771 59.1487 27.8438 59.4844 27.8438C59.82 27.8438 60.142 27.9771 60.3793 28.2144C60.6167 28.4518 60.75 28.7737 60.75 29.1094V72.1406C60.75 75.6287 57.9125 78.4688 54.4219 78.4688Z" fill="#BCBCBC"/>
<path d="M59.4844 37.9687C59.1487 37.9687 58.8268 37.8354 58.5894 37.5981C58.3521 37.3607 58.2188 37.0388 58.2188 36.7031V8.85937C58.2188 6.76603 56.5152 5.0625 54.4219 5.0625H26.5781C24.4848 5.0625 22.7812 6.76603 22.7812 8.85937V36.7031C22.7812 37.0388 22.6479 37.3607 22.4106 37.5981C22.1732 37.8354 21.8513 37.9687 21.5156 37.9687C21.18 37.9687 20.858 37.8354 20.6207 37.5981C20.3833 37.3607 20.25 37.0388 20.25 36.7031V8.85937C20.25 5.37131 23.0875 2.53125 26.5781 2.53125H54.4219C57.9125 2.53125 60.75 5.37131 60.75 8.85937V36.7031C60.75 37.0388 60.6167 37.3607 60.3793 37.5981C60.142 37.8354 59.82 37.9687 59.4844 37.9687ZM67.0781 15.3141C66.3795 15.3141 65.8125 14.8736 65.8125 14.175V13.9219C65.8125 13.5862 65.9458 13.2643 66.1832 13.0269C66.4205 12.7896 66.7425 12.6562 67.0781 12.6562C67.4138 12.6562 67.7357 12.7896 67.9731 13.0269C68.2104 13.2643 68.3438 13.5862 68.3438 13.9219C68.3438 14.6205 67.7767 15.3141 67.0781 15.3141ZM67.0781 20.3766C66.3795 20.3766 65.8125 19.9361 65.8125 19.2375V18.9844C65.8125 18.6487 65.9458 18.3268 66.1832 18.0894C66.4205 17.8521 66.7425 17.7187 67.0781 17.7187C67.4138 17.7187 67.7357 17.8521 67.9731 18.0894C68.2104 18.3268 68.3438 18.6487 68.3438 18.9844C68.3438 19.683 67.7767 20.3766 67.0781 20.3766ZM67.0781 25.4391C66.3795 25.4391 65.8125 24.9986 65.8125 24.3V24.0469C65.8125 23.7112 65.9458 23.3893 66.1832 23.1519C66.4205 22.9146 66.7425 22.7812 67.0781 22.7812C67.4138 22.7812 67.7357 22.9146 67.9731 23.1519C68.2104 23.3893 68.3438 23.7112 68.3438 24.0469C68.3438 24.7455 67.7767 25.4391 67.0781 25.4391ZM13.9219 58.0922C13.2233 58.0922 12.6562 57.6517 12.6562 56.9531V56.7C12.6562 56.3643 12.7896 56.0424 13.0269 55.8051C13.2643 55.5677 13.5862 55.4344 13.9219 55.4344C14.2575 55.4344 14.5795 55.5677 14.8168 55.8051C15.0542 56.0424 15.1875 56.3643 15.1875 56.7C15.1875 57.3986 14.6205 58.0922 13.9219 58.0922ZM13.9219 63.1547C13.2233 63.1547 12.6562 62.7142 12.6562 62.0156V61.7625C12.6562 61.4268 12.7896 61.1049 13.0269 60.8676C13.2643 60.6302 13.5862 60.4969 13.9219 60.4969C14.2575 60.4969 14.5795 60.6302 14.8168 60.8676C15.0542 61.1049 15.1875 61.4268 15.1875 61.7625C15.1875 62.4611 14.6205 63.1547 13.9219 63.1547ZM13.9219 68.2172C13.2233 68.2172 12.6562 67.7767 12.6562 67.0781V66.825C12.6562 66.4893 12.7896 66.1674 13.0269 65.9301C13.2643 65.6927 13.5862 65.5594 13.9219 65.5594C14.2575 65.5594 14.5795 65.6927 14.8168 65.9301C15.0542 66.1674 15.1875 66.4893 15.1875 66.825C15.1875 67.5236 14.6205 68.2172 13.9219 68.2172Z" fill="#BCBCBC"/>
<path d="M62.8788 68.3438C62.69 68.3438 62.5036 68.3016 62.3332 68.2203C62.1628 68.139 62.0128 68.0205 61.8941 67.8737C61.7754 67.7269 61.6911 67.5553 61.6473 67.3717C61.6035 67.1881 61.6014 66.9969 61.641 66.8123L62.4763 62.9395C62.5261 62.7069 62.6408 62.4932 62.8069 62.323C62.9731 62.1528 63.1841 62.033 63.4154 61.9777C64.6368 61.6782 65.8041 61.1906 66.8756 60.5323C67.0777 60.409 67.3103 60.3448 67.547 60.347C67.7836 60.3493 68.015 60.4179 68.2147 60.545L70.7206 62.1472L72.2723 60.5829L70.67 58.0972C70.5414 57.8974 70.4715 57.6654 70.4684 57.4277C70.4652 57.1901 70.529 56.9563 70.6523 56.7532C71.3108 55.6821 71.7976 54.5146 72.0951 53.2929C72.1507 53.0623 72.2699 52.8519 72.439 52.6855C72.6081 52.519 72.8204 52.4033 73.0519 52.3513L75.9375 51.7109V49.5416L73.0544 48.9012C72.8229 48.8492 72.6106 48.7335 72.4415 48.5671C72.2724 48.4007 72.1533 48.1902 72.0976 47.9596C71.799 46.7383 71.3123 45.571 70.6548 44.4994C70.5305 44.2971 70.4659 44.0638 70.4686 43.8264C70.4713 43.589 70.5411 43.3572 70.67 43.1578L72.2748 40.6493L70.7257 39.1002L68.2172 40.705C68.0177 40.8327 67.7863 40.9016 67.5495 40.9039C67.3127 40.9061 67.08 40.8416 66.8782 40.7177C65.8062 40.0603 64.639 39.5727 63.4179 39.2723C63.1866 39.217 62.9757 39.0972 62.8095 38.927C62.6433 38.7568 62.5287 38.5431 62.4788 38.3105L61.8562 35.4375H60.75C60.4143 35.4375 60.0924 35.3042 59.8551 35.0668C59.6177 34.8295 59.4844 34.5075 59.4844 34.1719C59.4844 33.8362 59.6177 33.5143 59.8551 33.2769C60.0924 33.0396 60.4143 32.9062 60.75 32.9062H62.8763C63.1654 32.9067 63.4456 33.0062 63.6704 33.1881C63.8951 33.37 64.0508 33.6234 64.1115 33.9061L64.7873 37.0271C65.7138 37.3081 66.6225 37.6878 67.4983 38.1611L70.2169 36.4222C70.46 36.2668 70.7489 36.1992 71.0357 36.2305C71.3225 36.2618 71.59 36.3901 71.7938 36.5943L74.7833 39.5812C74.987 39.7853 75.1149 40.053 75.1457 40.3398C75.1766 40.6266 75.1085 40.9153 74.9528 41.1581L73.2139 43.8767C73.6872 44.755 74.0669 45.6637 74.3479 46.5927L77.474 47.2863C78.0562 47.4154 78.4688 47.9318 78.4688 48.5241V52.7259C78.4686 53.014 78.3702 53.2934 78.1898 53.518C78.0094 53.7426 77.7578 53.899 77.4765 53.9612L74.3504 54.6547C74.0647 55.5951 73.6848 56.5042 73.2164 57.3682L74.9528 60.0615C75.1101 60.3035 75.1795 60.5921 75.1496 60.8791C75.1196 61.1661 74.9921 61.4342 74.7883 61.6385L71.7989 64.6507C71.5949 64.8554 71.3272 64.9843 71.0399 65.0161C70.7527 65.0478 70.4632 64.9805 70.2194 64.8253L67.5008 63.0863C66.6373 63.5538 65.7291 63.9337 64.7899 64.2203L64.114 67.3414C64.0534 67.6243 63.8978 67.878 63.6731 68.0603C63.4484 68.2427 63.1681 68.3427 62.8788 68.3438Z" fill="#BCBCBC"/>
<path d="M64.271 57.1505C63.9999 57.1501 63.7362 57.0626 63.5186 56.901C63.301 56.7394 63.141 56.5122 63.0622 56.2528C62.9834 55.9935 62.99 55.7157 63.0809 55.4604C63.1718 55.205 63.3423 54.9856 63.5673 54.8345C64.5388 54.1798 65.2534 53.2087 65.5896 52.0865C65.9258 50.9643 65.8629 49.7603 65.4114 48.6793C64.96 47.5983 64.148 46.7071 63.1135 46.1573C62.0791 45.6075 60.8861 45.4331 59.7375 45.6637C59.5746 45.6971 59.4068 45.6981 59.2435 45.6667C59.0802 45.6352 58.9248 45.5719 58.786 45.4803C58.6472 45.3888 58.5278 45.2708 58.4346 45.1331C58.3414 44.9954 58.2762 44.8407 58.2428 44.6778C58.2094 44.5149 58.2084 44.3471 58.2399 44.1838C58.2713 44.0205 58.3346 43.8651 58.4262 43.7263C58.5178 43.5875 58.6357 43.4681 58.7734 43.3749C58.9111 43.2817 59.0658 43.2165 59.2287 43.1831C60.3321 42.9594 61.4714 42.9834 62.5644 43.2536C63.6574 43.5237 64.6767 44.0332 65.5488 44.7452C66.4209 45.4572 67.124 46.354 67.6074 47.3708C68.0907 48.3877 68.3422 49.4991 68.3438 50.625C68.344 51.8727 68.0368 53.1012 67.4491 54.2019C66.8615 55.3026 66.0116 56.2414 64.9747 56.9354C64.7667 57.0754 64.5217 57.1503 64.271 57.1505ZM20.25 37.9687C18.6184 37.9709 17.0296 37.4474 15.7189 36.4757C14.4083 35.504 13.4455 34.1359 12.9734 32.5741C12.5013 31.0123 12.545 29.34 13.0979 27.805C13.6508 26.27 14.6835 24.9539 16.0431 24.0519C16.3223 23.8776 16.6586 23.8189 16.9804 23.8884C17.3022 23.9578 17.5843 24.15 17.7668 24.424C17.9493 24.6981 18.0178 25.0324 17.9578 25.3562C17.8978 25.6799 17.714 25.9675 17.4454 26.1579C16.4739 26.8101 15.7581 27.7783 15.4193 28.8982C15.0805 30.0182 15.1398 31.2208 15.5869 32.3021C16.0341 33.3833 16.8416 34.2765 17.8725 34.83C18.9033 35.3835 20.0939 35.5633 21.2423 35.3388C21.5714 35.2738 21.9129 35.3417 22.1922 35.5276C22.4715 35.7135 22.666 36.0023 22.7332 36.331C22.766 36.4939 22.7663 36.6617 22.7342 36.8247C22.7021 36.9878 22.6381 37.1429 22.5459 37.2811C22.4537 37.4194 22.3352 37.5381 22.197 37.6305C22.0589 37.7228 21.9039 37.787 21.7409 37.8194C21.2503 37.9193 20.7507 37.9693 20.25 37.9687Z" fill="#BCBCBC"/>
<path d="M20.25 48.0938H18.1237C17.8346 48.0933 17.5544 47.9938 17.3296 47.8119C17.1049 47.63 16.9492 47.3766 16.8885 47.0939L16.2127 43.9729C15.2733 43.6867 14.365 43.3068 13.5017 42.8389L10.7831 44.5778C10.54 44.7332 10.2511 44.8008 9.96433 44.7695C9.67753 44.7382 9.41003 44.6098 9.20616 44.4057L6.21675 41.4188C6.01301 41.2147 5.88513 40.947 5.85429 40.6602C5.82345 40.3734 5.89149 40.0847 6.04716 39.8419L7.78612 37.1233C7.31816 36.2582 6.93826 35.3483 6.65212 34.4073L3.52603 33.7137C3.24408 33.6515 2.9918 33.4949 2.81092 33.2698C2.63004 33.0447 2.53138 32.7647 2.53125 32.4759V28.2741C2.53136 27.986 2.62976 27.7066 2.81017 27.482C2.99058 27.2574 3.24222 27.101 3.5235 27.0388L6.64959 26.3452C6.93056 25.4163 7.31025 24.5076 7.78359 23.6318L6.04969 20.936C5.89247 20.694 5.82303 20.4054 5.85298 20.1184C5.88292 19.8314 6.01044 19.5633 6.21422 19.359L9.20362 16.3468C9.40686 16.1408 9.67478 16.011 9.96239 15.9792C10.25 15.9474 10.5398 16.0156 10.7831 16.1722L13.5017 17.9111C14.3653 17.4436 15.2734 17.0637 16.2127 16.7771L16.8885 13.6561C16.9192 13.4894 16.983 13.3306 17.0762 13.189C17.1694 13.0474 17.2901 12.9261 17.4311 12.832C17.5721 12.738 17.7306 12.6732 17.8971 12.6416C18.0636 12.61 18.2348 12.6121 18.4004 12.6479C18.5661 12.6837 18.7229 12.7524 18.8615 12.8499C19.0001 12.9474 19.1177 13.0718 19.2074 13.2156C19.297 13.3595 19.3569 13.5199 19.3833 13.6873C19.4098 13.8547 19.4024 14.0257 19.3615 14.1902L18.5262 18.063C18.4764 18.2956 18.3618 18.5094 18.1956 18.6796C18.0294 18.8498 17.8185 18.9695 17.5871 19.0249C16.3651 19.3248 15.197 19.8124 14.1244 20.4702C13.9223 20.5935 13.6897 20.6577 13.453 20.6555C13.2164 20.6533 12.985 20.5847 12.7853 20.4576L10.2794 18.8553L8.72522 20.4196L10.3275 22.9053C10.4573 23.1047 10.5278 23.3369 10.5309 23.5748C10.5341 23.8127 10.4697 24.0466 10.3452 24.2494C9.68669 25.3204 9.19986 26.488 8.90241 27.7096C8.84673 27.9402 8.7276 28.1507 8.5585 28.3171C8.3894 28.4835 8.17708 28.5992 7.94559 28.6512L5.0625 29.2891V31.4584L7.94559 32.0988C8.17708 32.1508 8.3894 32.2665 8.5585 32.4329C8.7276 32.5993 8.84673 32.8098 8.90241 33.0404C9.18844 34.2352 9.67697 35.3995 10.3452 36.5006C10.5983 36.9132 10.5933 37.4347 10.33 37.8422L8.72522 40.3481L10.2743 41.8972L12.7828 40.2924C12.9827 40.1659 13.214 40.0976 13.4505 40.0954C13.6871 40.0932 13.9196 40.157 14.1218 40.2798C15.2255 40.9506 16.3898 41.4366 17.5821 41.7251C17.8134 41.7805 18.0243 41.9002 18.1905 42.0704C18.3567 42.2406 18.4713 42.4544 18.5212 42.687L19.1438 45.5625H20.25C20.5857 45.5625 20.9076 45.6958 21.1449 45.9332C21.3823 46.1705 21.5156 46.4925 21.5156 46.8281C21.5156 47.1638 21.3823 47.4857 21.1449 47.7231C20.9076 47.9604 20.5857 48.0938 20.25 48.0938ZM39.2344 46.8281C39.042 46.8286 38.852 46.785 38.679 46.7009C38.506 46.6167 38.3544 46.4941 38.236 46.3425C38.1176 46.1908 38.0354 46.0142 37.9956 45.8259C37.9559 45.6376 37.9597 45.4428 38.0067 45.2562L40.538 35.1312C40.577 34.9693 40.6479 34.8168 40.7464 34.6826C40.845 34.5484 40.9692 34.4351 41.112 34.3493C41.2548 34.2636 41.4131 34.2071 41.5779 34.1831C41.7427 34.1592 41.9107 34.1683 42.0719 34.2098C42.2333 34.2498 42.3852 34.3212 42.5189 34.42C42.6526 34.5188 42.7655 34.643 42.8511 34.7855C42.9367 34.928 42.9933 35.086 43.0177 35.2505C43.0421 35.4149 43.0338 35.5826 42.9933 35.7438L40.462 45.8688C40.3945 46.1431 40.2368 46.3869 40.0142 46.5608C39.7915 46.7348 39.5169 46.8289 39.2344 46.8281ZM46.8281 46.8281C46.578 46.8281 46.3335 46.7539 46.1255 46.615C45.9175 46.4761 45.7553 46.2786 45.6594 46.0476C45.5636 45.8166 45.5383 45.5624 45.5868 45.317C45.6353 45.0716 45.7555 44.8461 45.9321 44.669L50.101 40.5L45.9346 36.3336C45.704 36.0949 45.5765 35.7752 45.5794 35.4433C45.5822 35.1115 45.7154 34.794 45.95 34.5594C46.1847 34.3247 46.5021 34.1916 46.8339 34.1887C47.1658 34.1859 47.4855 34.3134 47.7242 34.544L52.7867 39.6065C53.024 39.8438 53.1572 40.1657 53.1572 40.5013C53.1572 40.8369 53.024 41.1587 52.7867 41.3961L47.7242 46.4586C47.4861 46.6953 47.1639 46.8282 46.8281 46.8281ZM34.1719 46.8281C33.8361 46.8282 33.5139 46.6953 33.2758 46.4586L28.2133 41.3961C27.976 41.1587 27.8428 40.8369 27.8428 40.5013C27.8428 40.1657 27.976 39.8438 28.2133 39.6065L33.2758 34.544C33.5145 34.3134 33.8342 34.1859 34.1661 34.1887C34.4979 34.1916 34.8153 34.3247 35.05 34.5594C35.2846 34.794 35.4178 35.1115 35.4206 35.4433C35.4235 35.7752 35.2959 36.0949 35.0654 36.3336L30.899 40.5L35.0654 44.6664C35.2427 44.8433 35.3636 45.0688 35.4127 45.3143C35.4618 45.5599 35.4369 45.8145 35.3412 46.046C35.2456 46.2774 35.0834 46.4753 34.8753 46.6145C34.6671 46.7537 34.4223 46.8281 34.1719 46.8281Z" fill="#BCBCBC"/>
</svg>
